<svg xmlns="http://www.w3.org/2000/svg" xmlns:xlink="http://www.w3.org/1999/xlink" xml:space="preserve" width="297mm" height="210mm" version="1.1" style="shape-rendering:geometricPrecision; text-rendering:geometricPrecision; image-rendering:optimizeQuality; fill-rule:evenodd; clip-rule:evenodd" viewBox="0 0 29700 21000">
 <defs>
  <style type="text/css">
   <![CDATA[
    .str1 {stroke:black;stroke-width:10;stroke-opacity:0.501961}
    .str3 {stroke:black;stroke-width:50}
    .str5 {stroke:#434242;stroke-width:10}
    .str2 {stroke:#3F3E3F;stroke-width:10}
    .str0 {stroke:black;stroke-width:10}
    .str6 {stroke:#2B2A29;stroke-width:7.62}
    .str4 {stroke:black;stroke-width:7.62}
    .fil7 {fill:none}
    .fil0 {fill:#FEFEFE}
    .fil1 {fill:#FEFEFE}
    .fil9 {fill:#D9DADA}
    .fil5 {fill:#FEFEFE;fill-rule:nonzero}
    .fil4 {fill:#D9DADA;fill-rule:nonzero}
    .fil8 {fill:#434242;fill-rule:nonzero}
    .fil6 {fill:#2B2A29;fill-rule:nonzero}
    .fil3 {fill:black;fill-rule:nonzero}
    .fil2 {fill:#FEFEFE;fill-rule:nonzero;fill-opacity:0.501961}
   ]]>
  </style>
 </defs>
 <g id="Plan_x0020_1">
  <metadata id="CorelCorpID_0Corel-Layer"/>
  <path class="fil0 str0" d="M24867 10653c114,46 204,83 295,165 39,35 90,22 107,-29 21,-67 89,-54 144,-38 44,13 52,54 143,51 78,-2 154,37 214,82l0 0 116 -119c28,-29 63,-102 108,-102 128,0 158,-118 225,-207 48,-63 59,-89 78,-165 61,-41 143,-62 216,-62 82,0 111,55 128,-45 7,-41 11,-77 11,-119 45,-59 136,2 160,-105 23,-107 84,-21 150,-91 33,-35 99,-83 117,-124l197 -221c27,-30 77,-111 124,-90 31,14 76,-10 97,-32 45,-47 76,-10 112,19 60,48 16,122 30,178l1 1c52,0 99,-67 142,-84 72,-29 113,58 99,-71 -17,-159 -32,-232 47,-376 30,-60 93,-130 76,-197l-1 -1c-90,-22 -153,-156 -173,-239 -28,0 -58,49 -96,44 -11,-43 -71,2 -88,2 -14,-56 15,-91 49,-128 54,-58 -64,-89 47,-111 0,-14 -24,-25 -35,-31 -13,-24 -13,-54 -23,-78 -9,-20 -59,-59 -59,-70 28,-29 33,-34 64,-11 33,25 62,9 80,-18 16,-23 34,-31 56,-46 23,-16 35,-42 28,-69 -10,-40 -39,-65 -10,-107 39,-56 8,-77 -34,-113l0 0c-51,0 -100,-12 -140,-44 -32,-25 -101,-30 -120,-58 -16,-23 -13,-39 -44,-49 -55,-19 -46,-15 -68,-68 -22,-53 -87,-39 -117,-80 -21,-29 -7,-55 -17,-83 20,-73 -110,-77 -146,-93 -85,-39 -49,-124 -151,-138 -59,-8 -80,-42 -114,-80 -4,-31 -43,-42 -70,-46 -67,-34 -188,-58 -261,-37 -85,24 -102,110 -153,168 -130,149 -290,-62 -423,-66 -47,-1 -100,-125 -172,-142 -42,-38 -108,-92 -68,-154 42,-64 26,-74 -16,-124 -85,-102 -88,-159 -88,-291 -2,0 -1,0 -2,-2 -66,-16 -140,-34 -202,-68 -76,-42 -159,-30 -233,-70 -16,-40 -56,-87 -64,-131 -9,-46 79,-71 27,-113 -3,-22 -227,-109 -262,-123l-276 -117c-80,-34 -100,-11 -175,27 -78,38 -148,123 -235,139 -79,110 -127,195 -135,333 -6,103 8,239 -23,335 -7,23 -43,104 -73,97l0 0 -260 186c-138,98 -136,76 -234,213 -33,47 -196,171 -252,209 -38,26 -86,128 -90,174 -5,68 -4,55 19,121 28,79 73,102 121,171 14,182 -17,198 -57,359 -13,55 -79,164 -131,194 -45,26 -122,106 -37,148 104,52 72,160 170,239 103,83 190,94 282,157 13,9 32,25 40,38 29,85 48,139 83,220 56,130 157,103 279,132 130,31 98,10 207,96 70,56 129,104 195,165 100,92 261,-1 261,184 0,82 29,123 27,188 -2,52 -95,109 -35,159 34,29 49,48 49,94 -18,118 -51,66 -77,156 -17,57 122,169 191,166 37,-2 124,15 124,66l0 0z"/>
  <path class="fil0 str0" d="M21221 11233l487 -57c134,-67 176,-61 260,-191 44,-68 93,-90 172,-89 79,1 180,-114 262,2 52,74 295,81 349,171 17,28 99,57 134,55 37,-3 126,64 230,22 10,-4 11,-4 21,-7l55 -60 0 0c-3,-9 -3,-4 -5,-9 -35,-77 -37,-121 -88,-199 -76,-116 -68,-115 -121,-246 -9,-97 -13,-186 -9,-283 4,-88 17,-154 29,-240 16,-115 -34,-198 -97,-291 -42,-62 -81,-126 -124,-186 -59,-82 -30,-86 -118,-71 -171,29 -348,40 -513,84 -18,4 -58,9 -77,9 -68,1 -81,8 -143,23 -64,15 -110,51 -158,68 -90,31 -163,82 -242,114 -50,20 -218,126 -253,164 -28,32 -166,118 -207,147 -54,38 -56,44 -124,80l-134 8 0 0c-5,12 -13,-4 -72,57 -37,38 -2,82 -2,142 0,90 27,30 58,86 15,28 -57,87 -8,124 29,22 76,99 76,136 -2,77 -33,104 46,155 88,56 8,101 80,172 64,64 86,64 172,87 35,9 53,15 63,25l0 0z"/>
  <path class="fil0 str0" d="M21221 11233l487 -57c134,-67 176,-61 260,-191 44,-68 93,-90 172,-89 79,1 180,-114 262,2 52,74 295,81 349,171 17,28 99,57 134,55 37,-3 126,64 230,22 10,-4 11,-4 21,-7l55 -60 0 0c47,-41 153,-125 163,-193 6,-40 60,-152 100,-163 71,-19 73,25 165,7 50,-10 101,-6 151,-3 71,5 103,32 193,14 59,-12 106,-18 166,-37 144,-45 175,-50 304,30 42,26 56,64 129,68 78,4 138,-44 206,-81 8,-5 94,-63 99,-66l0 0c114,46 204,83 295,165 39,35 90,22 107,-29 21,-67 89,-54 144,-38 44,13 52,54 143,51 78,-2 154,37 214,82l0 0c0,56 -1,153 -15,207 -10,65 44,66 76,98 0,59 -21,106 1,166 10,27 70,72 71,88 -8,16 5,70 -5,96 -12,30 -44,64 -44,81 0,49 49,105 73,147 52,91 88,89 144,157 27,33 2,46 86,130 29,200 133,147 132,244 -1,85 7,72 75,91 108,31 106,114 150,194 21,40 78,147 120,163 118,46 -11,141 76,184 146,72 61,56 144,119 29,22 37,48 47,55 70,47 119,135 64,213 -29,41 -47,104 -77,127 -137,104 -120,-48 -282,-7 -81,21 -163,-23 -187,-105 -28,-96 -283,-172 -369,-189 -94,-19 -105,-32 -211,-20 -13,-8 -29,-22 -42,-31 -60,-43 -70,-68 -110,-120 -115,-151 131,-224 -21,-346 -68,-55 -146,-148 -196,-221 -38,-56 -97,-96 -144,-144 -123,-126 -240,-66 -333,-165 -44,-47 -139,77 -158,108 -30,49 -102,105 -148,38 -42,-61 -118,-73 -139,-117 -23,-49 -82,66 -89,82 -42,91 -10,68 -82,164 -26,34 -101,80 -140,96 -81,33 -110,31 -199,5 -90,-2 -153,14 -238,-24 -110,-50 -208,58 -277,35 -105,-35 -147,85 -282,18 -121,-61 -229,190 -335,106 -80,-63 -186,85 -268,86 -123,1 -157,40 -257,79 -101,40 -170,75 -261,135 -81,53 -130,68 -210,134 -19,19 -33,36 -44,62 -33,81 -68,167 -126,234 -87,99 -115,151 -166,271 -35,83 -150,177 -238,181 -58,3 -39,0 -94,17 -130,41 -144,164 -302,95 -53,-23 -79,34 -90,79 -35,143 -108,112 -135,219 -30,126 -3,153 -83,256 -44,56 -49,58 -120,52 -62,-5 -70,-15 -121,-38 -28,-12 -39,-25 -52,-27l0 0c25,-35 58,-174 38,-212 -32,-59 -6,-75 -14,-141 -9,-76 -160,-56 -195,-117 -39,-67 -26,-121 -12,-194 8,-32 21,-63 38,-91 83,-144 -20,-157 -20,-260 0,-107 101,-166 97,-207 -3,-33 37,-138 24,-156 -33,-46 -61,-34 -114,-113l-12 -153 0 0c21,-11 39,-21 52,-27 13,-7 73,-19 90,-25 98,-34 73,24 170,-36 50,-31 109,-54 167,-63 22,-4 160,-44 178,-53 84,-40 199,3 226,-32 51,-67 71,-4 128,38 41,30 72,84 119,65 24,-10 137,-137 158,-163 75,-93 149,-87 200,-141 61,-64 3,-86 152,-200 29,-23 12,-84 -5,-107 -63,-87 -1,-118 -97,-168 -48,-25 -85,-35 -126,-57 -27,-14 -71,-60 -76,-61 -101,-18 -183,302 -230,64 -12,-61 -8,-80 -47,-40 -164,168 -97,4 -118,-53 -15,-41 86,-157 106,-181 3,-29 6,-48 18,-75 53,-116 5,-28 -1,-152 -3,-57 2,-82 -14,-98l0 0z"/>
  <path class="fil0 str0" d="M20808 10248l134 -8c68,-35 70,-41 124,-80 41,-29 178,-115 207,-147 35,-39 203,-144 253,-164 79,-32 152,-83 242,-114 48,-17 94,-53 158,-68 62,-14 75,-22 143,-23 19,0 59,-5 77,-9 164,-44 342,-55 513,-84 87,-15 59,-11 118,71 43,60 82,124 124,186 64,93 113,176 97,291 -12,86 -25,152 -29,240 -4,97 -1,186 9,283 52,131 45,131 121,246 51,77 53,122 88,199 2,5 2,1 5,9l0 0c47,-41 153,-125 163,-193 6,-40 60,-152 100,-163 71,-19 73,25 165,7 50,-10 101,-6 151,-3 71,5 103,32 193,14 59,-12 106,-18 166,-37 144,-45 175,-50 304,30 42,26 56,64 129,68 78,4 138,-44 206,-81 8,-5 94,-63 99,-66l0 0c0,-51 -86,-68 -124,-66 -69,3 -208,-109 -191,-166 26,-90 59,-38 77,-156 0,-46 -14,-66 -49,-94 -59,-50 34,-106 35,-159 2,-65 -27,-106 -27,-188 0,-185 -161,-92 -261,-184 -66,-61 -125,-109 -195,-165 -109,-86 -77,-65 -207,-96 -123,-29 -223,-2 -279,-132 -35,-81 -53,-135 -83,-220 -8,-13 -28,-29 -40,-38 -92,-63 -179,-74 -282,-157 -98,-79 -66,-187 -170,-239 -84,-43 -8,-123 37,-148 52,-29 118,-139 131,-194 39,-161 71,-178 57,-359 -48,-70 -94,-92 -121,-171 -23,-67 -25,-53 -19,-121 4,-46 52,-147 90,-174 56,-38 218,-162 252,-209 98,-138 96,-116 234,-213l260 -186 0 0c0,-31 -31,-87 -46,-115 -19,-37 -16,-114 -16,-156 0,-101 -116,-14 -162,-54l0 0c-2,1 -114,89 -125,97 -84,62 -181,176 -264,221 -85,47 -90,76 -152,131 -60,53 -87,71 -143,140l-4 10c-42,99 -70,149 -130,236 -55,81 -68,86 -47,179 23,101 127,166 14,198 -81,23 -181,84 -252,130 -60,38 -120,119 -154,137 -33,18 -140,103 -169,70 -40,-46 -184,-67 -239,-79l0 0c-28,109 -23,101 12,185 23,54 10,152 -12,203 -25,204 -5,155 -151,296 -33,32 -55,79 -59,124 -7,92 15,218 -69,284 -12,9 -72,80 -84,90l0 0c2,6 -7,14 -34,21 -80,23 -149,88 -176,168 -24,72 -22,86 -87,134 -50,37 -64,164 -172,240 -50,36 -69,107 -137,110 -98,5 -83,103 -144,110 -40,5 -74,103 -106,130 -26,23 -47,72 -62,104 -12,58 -14,77 -17,85l0 0z"/>
  <path class="fil0 str0" d="M18988 13460l36 126c-5,107 7,72 -46,135 -41,48 23,157 1,218 -7,18 2,129 -1,164 -3,47 -4,127 6,171 13,56 -29,159 63,191 58,20 151,-44 148,103 -2,85 82,107 150,76 25,-12 116,-52 137,-26 6,7 30,40 33,46 33,113 11,76 0,163 -15,112 45,128 47,141l0 0c-9,21 -18,48 -26,84 -35,151 -77,177 -182,277 -76,72 -169,103 -253,159 -110,73 -114,47 -218,79 -102,32 -160,145 -242,95 -54,-33 -186,32 -186,-120 0,-27 -16,-25 -35,-13l0 0c2,-20 -56,-110 -68,-132 -69,-122 -95,-65 -43,-196 36,-89 143,-187 -11,-244 -105,-39 -58,-192 -78,-221 -64,-95 -101,-20 -6,-141 26,-33 47,-40 72,-61 100,-85 103,-85 46,-210 -7,-9 -9,-12 -17,-20 -137,-135 -26,-106 -105,-259 -30,-60 24,-141 -3,-192 -3,-6 -5,-11 -5,-15l0 0c-5,-46 126,-23 160,-44 108,-67 45,90 188,-34 47,-41 38,-55 61,-86 88,-124 123,-81 207,-144 73,-55 63,-83 172,-70l0 0z"/>
  <path class="fil0 str0" d="M20171 12797l12 153c53,79 81,67 114,113 13,18 -27,123 -24,156 3,41 -97,99 -97,207 0,103 103,116 20,260 -16,28 -30,59 -38,91 -14,73 -27,127 12,194 36,61 186,41 195,117 8,66 -18,82 14,141 21,39 -12,177 -38,212l0 0c-15,-3 -31,8 -73,45 -6,9 -13,17 -19,26 -96,132 -89,299 -252,349 -79,24 -101,-18 -142,-58 -52,-52 -132,13 -167,53 -46,53 -90,24 -128,112l0 0c-2,-13 -62,-30 -47,-141 12,-87 33,-50 0,-163 -3,-7 -27,-39 -33,-46 -21,-25 -112,15 -137,26 -68,32 -152,9 -150,-76 4,-147 -90,-83 -148,-103 -92,-32 -49,-136 -63,-191 -10,-44 -9,-124 -6,-171 2,-34 -6,-146 1,-164 23,-61 -42,-170 -1,-218 53,-63 42,-28 46,-135l-36 -126 0 0c53,12 228,-147 310,-160 55,-9 108,-86 97,-142 -24,-124 20,-121 20,-185 0,-76 -4,-162 74,-206 69,-39 115,-76 178,-119 47,-32 137,92 172,91 102,-3 40,87 166,115 38,8 111,-28 166,-57l0 0z"/>
  <path class="fil0 str0" d="M22103 7964c55,12 198,33 239,79 29,33 136,-52 169,-70 34,-18 94,-99 154,-137 72,-46 172,-107 252,-130 113,-32 9,-97 -14,-198 -21,-93 -8,-99 47,-179 60,-88 88,-138 130,-236l4 -10c56,-69 83,-87 143,-140 62,-55 67,-84 152,-131 83,-46 180,-159 264,-221 11,-8 123,-96 125,-97l0 0c-7,-6 -12,-14 -15,-27 -16,-60 -83,-53 -139,-53l0 0c-12,1 -77,-8 -91,-10 -14,-2 -82,-9 -83,-9 -52,-12 -152,0 -209,3 -82,4 -83,19 -163,-4 -117,-34 -105,-108 -158,-130 -73,-31 -55,-47 -154,-9 -6,5 -5,4 -12,6 -100,27 -164,78 -245,134 -175,122 -313,20 -495,-4 -85,-11 -111,-47 -176,14 -113,106 -136,16 -234,67 -32,17 -61,187 -53,215 17,60 7,76 -1,143 -11,20 -23,38 -34,59 -24,46 -206,119 -257,125 -119,15 -140,188 -87,256 59,75 48,62 100,158l0 0c-22,9 -47,13 -71,24 -76,35 -88,17 -145,34 -110,33 -98,-59 -172,-86 -70,-26 -107,-47 -172,-89 -1,0 -46,-19 -48,-19 -73,-23 -142,-63 -208,-85 -116,-38 -332,-171 -447,-152 -188,31 -77,-145 -94,-207 -20,-76 -34,-176 -26,-255 10,-107 -149,-32 -245,-138 -107,-119 -127,-64 -231,-115 -108,-53 -132,-16 -187,-31 -57,-16 -45,-22 -125,-35l10 2 -65 62c-16,3 -86,82 -117,103 -50,35 -103,131 -87,191 35,135 -84,101 -38,188 79,149 4,164 33,241 8,22 85,54 102,57 67,14 69,155 69,200l0 0c131,37 65,7 160,13 57,4 66,-14 114,26 15,13 21,23 35,37 104,104 55,245 292,112 35,-19 153,-2 178,20 44,38 40,31 40,100 0,135 5,261 13,394 2,41 1,63 6,108 64,232 2,410 -24,642 -11,94 -49,170 -127,225 -127,91 -91,201 -59,330 3,12 5,7 5,22l25 161 0 0c37,-21 59,-32 101,-83 44,-53 98,-111 141,-167 54,-71 167,-63 245,-84 195,-53 411,-68 613,-95 91,-12 198,-11 290,-11 140,31 251,69 397,59 14,-1 237,-8 238,-8 25,6 56,14 59,25l0 0c11,-10 72,-81 84,-90 83,-65 62,-191 69,-284 3,-45 26,-93 59,-124 145,-141 125,-92 151,-296 22,-52 35,-150 12,-203 -36,-84 -41,-76 -12,-185l0 0z"/>
  <path class="fil0 str0" d="M21264 7426c-52,-96 -41,-83 -100,-158 -53,-68 -32,-240 87,-256 50,-6 233,-79 257,-125 11,-21 24,-39 34,-59 8,-67 18,-83 1,-143 -8,-28 21,-199 53,-215 98,-51 120,39 234,-67 65,-61 91,-25 176,-14 182,23 320,125 495,4 81,-56 145,-107 245,-134 7,-2 7,-1 12,-6 99,-38 81,-22 154,9 53,23 41,97 158,130 81,23 81,8 163,4 57,-3 157,-15 209,-3 1,0 70,7 83,9 15,2 80,11 91,10l0 0c0,-62 132,-90 179,-120 44,-28 168,-101 150,-164 0,-33 -178,-86 -143,-133 54,-73 115,-43 180,-84 54,-34 5,-79 26,-101 157,0 179,-153 179,-275 0,-88 271,-57 308,-118 23,-63 112,-125 68,-199 -39,-67 -73,-91 -89,-173 -7,-38 -53,-9 -85,-20 -29,-10 -24,-25 -42,-39 -8,-72 75,-124 75,-165 -31,-31 -83,-19 -118,-58 -42,-22 -69,-109 -97,-112 -49,-7 -94,-26 -78,-82 8,-31 -20,-52 -23,-80 -3,-40 5,-88 10,-127 10,-70 26,-79 -22,-142 -34,-45 -135,-73 -160,-12 -17,43 -24,68 -73,44 -30,-15 -70,-74 -93,-99 -8,-9 -47,-120 -57,-154 0,-61 52,-134 -20,-159 -58,-20 -89,-70 -142,-88 -40,-13 -94,2 -114,-43l-66 -150c-39,-89 78,-152 69,-196 -1,0 -1,0 -2,-2 -63,13 -104,53 -178,53 -66,0 -131,-30 -197,-19 -155,26 -195,198 -270,311 -21,31 -131,150 -131,50 0,-62 -97,-174 10,-196 2,-3 3,-6 5,-10 -23,-61 -2,-116 -46,-179 -31,-45 70,-60 97,-70 45,-18 86,-44 125,-71 42,-29 38,-81 76,-109 52,-38 145,-1 205,-37 42,-25 11,-141 -16,-168 -20,-20 -55,-47 -55,-79l-90 -16c-51,-9 -25,-24 -15,-58 6,-54 4,-70 -8,-113 -74,-8 -123,-34 -179,-81 -53,-45 -135,-6 -182,-81 -12,-18 -48,-73 -66,-83 -17,-10 -43,-5 -56,-16 -19,-16 -17,-48 -26,-69 -25,-62 7,-115 -9,-174 -6,-21 -208,-96 -236,-93 -70,-15 -99,-76 -161,-85 -67,-9 -97,66 -151,80 -43,12 -56,-11 -93,-13 -52,-3 -88,41 -120,-25 -36,0 -75,29 -114,29 -18,25 -13,86 -38,106 -27,21 -62,23 -93,37 -38,18 -170,112 -197,104l-138 -37c-23,-13 7,-102 -6,-132 -6,-15 -128,34 -145,48l-101 82c-30,16 -78,0 -94,15l-77 71c-78,73 50,87 42,149 -7,54 -38,86 -64,131 -43,76 -62,68 10,141 0,18 -139,93 -157,93 -23,-23 -31,-57 -53,-77 -5,-5 -100,-6 -110,-4 -63,17 -136,126 -152,-5 -18,-15 -116,-51 -140,-47 -18,36 -37,99 -37,140 0,65 51,104 -39,84 -50,-34 -84,-82 -147,-50 -44,22 -81,21 -122,38 -49,20 -59,-22 -89,-22l-1 2c-17,9 -1,150 11,169 21,32 38,196 -6,174l-124 -63c-46,-24 -125,13 -129,-66 -2,-44 -24,-195 -89,-195 -32,64 -69,104 -69,186 0,59 -4,216 -77,147 -49,-47 -66,-57 -136,-58l-269 -5c-59,-1 -137,166 -149,218 -5,24 -11,132 -43,132l0 0 34 129c-22,101 -38,56 -73,117 -54,93 -76,73 -23,172 11,20 -2,59 2,91 16,152 211,-34 251,72 16,42 -20,26 29,84 56,67 2,133 2,225 0,80 25,182 55,256 80,97 73,56 112,95 25,25 9,133 63,213 19,28 28,86 50,126 28,50 20,91 -16,132 -21,23 -87,95 -93,119 -29,122 54,241 49,366 -1,37 19,202 37,231 39,62 126,37 165,148 -26,85 -24,37 -72,104 -6,8 -4,39 -7,44l0 0c80,13 68,18 125,35 54,15 79,-22 187,31 104,51 124,-3 231,115 96,106 255,31 245,138 -7,79 6,179 26,255 17,62 -94,238 94,207 115,-19 331,114 447,152 66,21 136,62 208,85 2,1 47,19 48,19 66,42 103,63 172,89 74,27 62,119 172,86 57,-17 69,0 145,-34 24,-11 49,-15 71,-24l0 0z"/>
  <path class="fil0 str0" d="M17013 8710l-97 66 -133 133 0 0c-3,0 -7,0 -10,0 -34,0 -176,37 -210,51 -23,10 -84,-9 -137,7 -122,35 -116,-48 -176,-90 -64,-45 -188,-57 -260,-62l-5 -3c-17,-6 -76,-46 -92,-59 -108,-86 -183,-31 -227,-75 -20,-20 -21,-21 -42,-40 -35,-31 -169,-9 -209,9 -148,63 -141,-6 -198,9 -42,11 -76,-12 -106,1 -11,5 -65,150 -68,157l0 0c-22,-1 -54,-36 -55,-55 -5,-64 -86,-120 -141,-138 -68,-22 -75,-19 -140,-56 -118,-67 -21,-148 -66,-205 -19,-24 -44,-49 -35,-80 31,-108 -58,-101 -44,-150 22,-77 12,-65 -40,-152l-1 -9c-23,-113 -28,-54 12,-152 8,-19 5,-97 1,-108 -22,-61 74,-94 122,-77 51,18 -7,-58 -18,-69 -48,-45 -28,4 -42,-66 -8,-39 -33,-117 -8,-154 45,-68 41,-30 92,-128l0 0c75,-104 57,-95 100,-195 23,-54 138,-101 196,-99 43,1 90,-99 127,-110l0 0c54,39 170,106 241,110 57,3 93,66 207,45 68,-13 123,-22 188,-47 53,-21 89,-33 96,27 6,49 11,61 9,116 -2,63 61,128 51,266 -5,73 -17,209 87,209 93,0 103,81 183,95 82,14 34,80 47,148 2,9 1,54 1,68 73,97 48,65 128,124 43,32 62,-1 112,-29 95,-53 103,-87 170,-143 87,-72 59,-7 163,-34 72,-18 102,19 102,86 0,85 61,63 29,173 -23,79 24,113 74,163 53,52 90,52 62,150 -23,82 -184,180 -100,261 20,20 65,84 62,112l0 0z"/>
  <path class="fil0 str0" d="M14779 4280c-114,101 -137,214 -98,359 10,36 21,73 36,107l2 5c56,146 15,59 136,135 20,12 -13,153 8,213 15,42 19,57 23,100 13,129 28,97 84,192 18,31 59,111 51,146 -12,52 -28,150 -62,191 -7,9 -63,196 -13,196 138,0 186,-20 316,60 52,32 39,74 39,123 18,142 0,99 44,232 46,141 -11,178 -134,223 -48,18 -137,41 -107,109 6,13 3,59 3,75l-6 65 0 0c54,39 170,106 241,110 57,3 93,66 207,45 68,-13 123,-22 188,-47 53,-21 89,-33 96,27 6,49 11,61 9,116 -2,63 61,128 51,266 -5,73 -17,209 87,209 93,0 103,81 183,95 82,14 34,80 47,148 2,9 1,54 1,68 73,97 48,65 128,124 43,32 62,-1 112,-29 95,-53 103,-87 170,-143 87,-72 59,-7 163,-34 72,-18 102,19 102,86 0,85 61,63 29,173 -23,79 24,113 74,163 53,52 90,52 62,150 -23,82 -184,180 -100,261 20,20 65,84 62,112l0 0c87,19 71,16 142,20 53,3 101,38 171,31 48,-5 156,4 189,42 16,18 120,35 143,34l0 0 132 -11c2,0 119,-17 137,-18 90,-3 154,-81 204,-95 92,-25 123,-91 232,-23 51,33 121,-46 143,-83 28,-48 120,-131 117,-178 -3,-53 0,-163 -66,-185 -62,-20 -59,-5 -143,-38l0 0c-52,-11 -165,17 -196,-11 -69,-62 -74,-12 -144,-80 -2,-2 -60,-112 -69,-127 -18,-33 -66,-71 -98,-85 -97,-42 -17,-127 -87,-176 -80,-57 -71,-62 -74,-174l2 -8c28,-116 22,-223 39,-332 9,-56 -23,-128 -73,-155 -50,-27 -46,-34 -81,-65 -49,-43 -10,-129 25,-166 53,-56 93,-145 95,-224 1,-52 33,-149 12,-188 -16,-30 -9,-59 -12,-66 -27,-66 -94,-48 -158,-35 -19,7 -72,23 -92,27 -76,13 -134,33 -211,19 -48,-9 -159,-144 -180,-191 -36,-78 -158,-4 -219,15 -136,43 -154,82 -275,-13 -45,-36 -160,-5 -211,13 -151,54 -143,-167 -171,-212 -33,-54 -23,-56 -37,-106 -12,-41 9,-181 18,-215 0,-182 -65,-254 -200,-362 -54,-43 -154,-135 -206,-167 -107,-66 -19,-138 -157,-150 -65,-6 -253,-64 -306,-99 -48,-31 -117,-52 -169,-86 -54,-35 -26,-67 -48,-117 -30,-68 -134,-93 -202,-135 -29,-18 -57,-45 -65,-81 -21,-91 -21,-90 -83,-174l0 0z"/>
  <path class="fil0 str0" d="M14511 3820l91 39c31,64 65,122 94,183 17,34 48,91 51,128 1,12 25,101 31,110l0 0c-114,101 -137,214 -98,359 10,36 21,73 36,107l2 5c56,146 15,59 136,135 20,12 -13,153 8,213 15,42 19,57 23,100 13,129 28,97 84,192 18,31 59,111 51,146 -12,52 -28,150 -62,191 -7,9 -63,196 -13,196 138,0 186,-20 316,60 52,32 39,74 39,123 18,142 0,99 44,232 46,141 -11,178 -134,223 -48,18 -137,41 -107,109 6,13 3,59 3,75l-6 65 0 0c-37,11 -85,111 -127,110 -58,-2 -173,45 -196,99 -43,99 -26,91 -100,195l0 0c-24,-5 -98,12 -134,-9 -48,-28 -68,-48 -121,-72 -70,-32 -95,-3 -146,-71 -74,-99 -28,-140 -46,-221 -17,-74 -67,-104 -143,-114 -80,-11 -118,-110 -153,-21 -24,60 -138,45 -181,26 -63,-28 -137,-11 -150,-20 -104,-72 -122,-86 -198,-193 -1,-8 -1,-7 -5,-14 -54,-107 -19,-163 -50,-228 -32,-69 -174,-99 -243,-124 -29,-11 -141,-93 -166,-117 -77,-74 -17,-162 -20,-218 -1,-18 33,-156 40,-181 21,-71 -63,-132 -116,-166 -90,-58 -68,-58 -147,-137l-188 -122 0 0c23,-34 11,-88 21,-130 30,-129 172,-252 286,-214 34,19 50,63 58,97l118 3c20,-79 9,-182 24,-266 19,-106 100,-33 122,-80 70,-144 163,-111 301,-146 68,-18 111,-41 171,-76 61,-35 31,-62 53,-119 38,-16 63,-49 109,-42 72,12 135,34 210,34 59,0 88,-37 101,-90 9,-34 37,-31 47,-78 17,-86 160,-172 242,-179 45,-39 98,-61 136,-109l0 0z"/>
  <path class="fil0 str0" d="M16405 10053c140,0 94,-12 207,-33 104,-19 178,-4 280,25l0 0c-30,6 -53,24 -65,61 -15,46 -34,38 -55,119 -5,11 -26,55 -33,63 -83,103 -188,183 -316,223 -95,29 -68,38 -133,91 -93,76 -147,11 -181,19 -78,18 -28,90 -228,90 -78,0 -184,108 -269,122 -79,13 -77,1 -161,44 -62,24 -182,71 -228,118 -113,117 -111,32 -217,98 -102,64 -86,-3 -126,-71 -28,-48 -48,-84 -98,-51 -60,40 -252,118 -322,89 -93,-40 -143,-8 -192,-87 -33,-52 -154,41 -158,-45 -3,-61 -39,-47 -56,-85 -29,-65 34,-47 -67,-110l0 0 81 -107c21,-19 40,-45 64,-66 44,-40 123,-75 152,-104 32,-32 141,-70 141,-110 0,-82 -174,-25 -170,-128 3,-68 0,-59 49,-130l0 0c110,56 93,43 160,-28 21,-23 28,-39 57,-62 39,-31 80,-52 131,-46 61,7 78,-61 137,-95 70,-40 133,-81 213,-100 82,-19 113,-23 197,-30 53,-4 155,-50 202,-76 2,-1 68,-28 68,-28l61 -36 0 0c118,47 129,19 219,46 24,7 69,59 128,71 56,12 136,57 148,119 4,23 50,107 79,115 56,15 22,124 174,110 31,-3 96,-9 124,4l0 0z"/>
  <path class="fil0 str0" d="M19000 7317c131,37 65,7 160,13 57,4 66,-14 114,26 15,13 21,23 35,37 104,104 55,245 292,112 35,-19 153,-2 178,20 44,38 40,31 40,100 0,135 5,261 13,394 2,41 1,63 6,108 64,232 2,410 -24,642 -11,94 -49,170 -127,225 -127,91 -91,201 -59,330 3,12 5,7 5,22l25 161 0 0c-11,6 -22,13 -36,21 -83,52 -157,59 -242,92 -88,35 -185,50 -277,69 -118,25 -138,-21 -229,-42 -103,-24 -77,-56 -207,-51l-19 7c-102,37 -206,67 -305,112 -76,34 -179,61 -246,95 -42,21 -96,36 -147,52l0 0c-34,10 -67,21 -96,33 -193,86 -501,175 -713,175 -112,0 -96,-10 -195,-27 -19,-3 -37,-4 -53,-1l0 0c-102,-29 -176,-44 -280,-25 -114,21 -68,33 -207,33l0 0c53,-76 84,-116 166,-154 92,-44 221,-44 292,-91 66,-43 68,-98 70,-172 2,-84 -12,-87 40,-163 34,-50 31,-151 88,-223 34,-43 37,-98 62,-152 47,-99 0,-73 -67,-115 -35,-22 -108,-19 -145,-57 -5,-5 -26,-7 -33,-7l-93 -10 0 0 133 -133 97 -66 0 0c87,19 71,16 142,20 53,3 101,38 171,31 48,-5 156,4 189,42 16,18 120,35 143,34l0 0 132 -11c2,0 119,-17 137,-18 90,-3 154,-81 204,-95 92,-25 123,-91 232,-23 51,33 121,-46 143,-83 28,-48 120,-131 117,-178 -3,-53 0,-163 -66,-185 -62,-20 -59,-5 -143,-38l0 0c-1,-118 -16,-177 97,-245 96,-57 178,-5 203,-138 14,-76 152,-105 137,-232 -8,-68 80,-111 110,-184 5,-12 33,-88 40,-90l0 0z"/>
  <path class="fil0 str0" d="M15533 9586c118,47 129,19 219,46 24,7 69,59 128,71 56,12 136,57 148,119 4,23 50,107 79,115 56,15 22,124 174,110 31,-3 96,-9 124,4l0 0c53,-76 84,-116 166,-154 92,-44 221,-44 292,-91 66,-43 68,-98 70,-172 2,-84 -12,-87 40,-163 34,-50 31,-151 88,-223 34,-43 37,-98 62,-152 47,-99 0,-73 -67,-115 -35,-22 -108,-19 -145,-57 -5,-5 -26,-7 -33,-7l-93 -10 0 0c-3,0 -7,0 -10,0 -34,0 -176,37 -210,51 -23,10 -84,-9 -137,7 -122,35 -116,-48 -176,-90 -64,-45 -188,-57 -260,-62l-5 -3c-17,-6 -76,-46 -92,-59 -108,-86 -183,-31 -227,-75 -20,-20 -21,-21 -42,-40 -35,-31 -169,-9 -209,9 -148,63 -141,-6 -198,9 -42,11 -76,-12 -106,1 -11,5 -65,150 -68,157l0 0c69,37 69,43 135,63 130,41 -33,159 48,259 26,32 33,116 93,180 28,29 31,58 84,82 32,15 49,31 90,44 57,19 42,100 42,143l0 0z"/>
  <path class="fil0 str0" d="M15042 8815c69,37 69,43 135,63 130,41 -33,159 48,259 26,32 33,116 93,180 28,29 31,58 84,82 32,15 49,31 90,44 57,19 42,100 42,143l0 0 -61 36c-1,0 -66,27 -68,28 -48,25 -149,72 -202,76 -84,7 -116,11 -197,30 -81,19 -143,60 -213,100 -59,34 -76,102 -137,95 -50,-6 -92,15 -131,46 -30,24 -36,40 -57,62 -68,71 -51,84 -160,28l0 0c-2,-60 39,-116 67,-171 101,-198 -70,-179 -80,-289 -10,-117 45,-101 -31,-211 -40,-57 -42,-87 -76,-139 -64,-99 -4,-186 -137,-190 -77,-2 -83,-56 -175,-29 -167,49 -142,15 -287,12 -72,-2 -142,-40 -183,-40 -79,2 -111,-2 -171,51 -38,34 -71,155 -114,104 -55,-65 -172,-43 -200,-59 -92,-53 -65,-50 -195,-75l0 0c-26,-32 -115,-127 -148,-146 -86,-48 -27,-76 -128,-146 -61,-42 -90,-138 -121,-163 -76,-61 -100,-10 -66,-112 18,-54 81,-80 71,-104 -28,-68 63,-81 62,-104 -3,-68 -32,-86 -64,-154 -4,-5 -10,-26 -15,-35 -49,-87 -50,-99 -78,-191 -28,-91 -18,-174 -128,-193 -33,-6 -103,-37 -134,-53 -44,-23 -128,-19 -152,-59 -87,-148 -209,-133 -249,-203 -40,-68 -93,-75 -160,-29 -88,61 -97,11 -127,24 -92,38 -15,93 -97,127 -113,47 -108,98 -243,107 -72,5 -76,-10 -135,-17 -46,-6 -182,-54 -203,-55 -77,-4 -79,-9 -160,22l0 0 -117 -49c-8,-5 -10,-6 -19,-7 -49,-10 -102,-49 -102,-101 0,-34 -50,-79 -79,-86 -76,-19 -51,-72 -110,-86 -79,-19 -35,-58 -98,-62 -51,-3 -80,-11 -131,24 -69,47 -75,8 -109,-33 -29,-36 -15,-106 -33,-106 -93,4 -161,136 -223,176 -92,61 -195,112 -308,93 -107,-18 -79,-55 -193,2l-168 61 0 0c6,-16 10,-32 22,-40 1,-7 325,-233 359,-299 40,-78 76,-206 81,-292l8 -149c3,-62 52,-105 65,-158 46,-17 66,-84 109,-103 34,-62 118,-126 176,-166l714 -496c57,-55 114,-93 198,-95l207 -5c48,-1 74,-34 122,-29 72,7 135,0 203,-19l97 -27c10,-3 75,-31 78,-22 41,10 73,120 84,154 10,0 20,-8 28,-13 50,-29 207,-113 245,-46 88,44 191,-80 245,-145 39,-47 146,-62 155,-111 13,-70 -11,-88 73,-88 53,0 94,-11 137,-42 67,-48 78,35 143,10 29,-11 140,-94 145,-58 17,10 31,58 56,58l0 0 188 122c79,78 57,79 147,137 53,34 137,95 116,166 -7,25 -41,163 -40,181 3,55 -57,144 20,218 25,24 136,106 166,117 69,25 210,55 243,124 30,65 -5,121 50,228 4,8 4,6 5,14 77,108 95,121 198,193 13,9 87,-7 150,20 44,19 158,35 181,-26 35,-88 72,10 153,21 76,10 126,40 143,114 18,82 -28,122 46,221 51,68 77,39 146,71 53,24 72,44 121,72 35,21 110,4 134,9l0 0c-51,98 -47,60 -92,128 -25,37 0,115 8,154 14,70 -6,21 42,66 11,10 69,87 18,69 -48,-17 -144,16 -122,77 4,11 7,89 -1,108 -40,98 -35,39 -12,152l1 9c52,87 63,75 40,152 -14,49 75,42 44,150 -9,31 16,57 35,80 45,57 -52,138 66,205 66,37 72,33 140,56 55,18 136,74 141,138 2,19 34,54 55,55l0 0z"/>
  <path class="fil0 str0" d="M10840 10963c-23,79 -33,134 35,189 52,43 36,96 158,165 17,9 124,72 117,91 -18,48 -85,102 -127,128 -59,37 -188,203 -72,229 58,13 111,60 112,122 1,67 50,98 72,158 25,68 130,117 186,152 69,44 68,82 182,60 107,-21 112,-67 233,-50 141,20 84,-19 194,-51 62,-18 170,15 229,-52 32,-37 -68,-158 17,-262 44,-54 190,-96 259,-167 11,-11 42,-38 55,-46l86 -119 0 0c0,-32 5,-21 15,-44 35,-84 151,-110 230,-135 41,-21 76,-53 101,-90 22,-33 -49,-104 -72,-127 -53,-52 -59,-76 -126,-118 -73,-46 -51,-66 -151,-116 -67,-33 -93,1 -154,-69 -84,-95 -7,-196 -9,-254 -3,-100 -41,-166 -110,-236l0 0 -86 2c-12,0 -36,1 -46,0 -110,-9 -161,26 -262,57 -62,19 -136,105 -255,132 -66,15 -64,25 -120,51 -80,37 -146,158 -229,170 -138,19 -204,176 -312,198 -61,13 -78,9 -147,29l0 0z"/>
  <path class="fil0 str0" d="M12725 9052c-40,39 -43,44 -82,67 -49,29 15,82 -71,132 -21,12 -86,87 -86,116 0,102 -68,158 60,155 37,-1 120,29 96,86 -49,119 -47,159 -136,265 -28,33 -84,14 -109,64 -13,25 84,24 103,88 13,42 -6,103 -23,143 -10,23 -31,57 -43,82l-137 75 0 0c69,70 107,135 110,236 2,57 -75,158 9,254 62,70 87,36 154,69 101,50 79,71 151,116 67,42 73,65 126,118 23,23 95,94 72,127 -25,37 -60,70 -101,90 -79,25 -195,51 -230,135 -9,23 -15,11 -15,44l0 0c49,-18 139,-55 193,-31 81,36 199,-34 303,-7l7 1c114,12 57,13 135,43 51,20 244,9 302,-7 17,-5 117,-2 131,10l0 0c13,-12 25,-22 35,-26 24,-9 53,-35 92,-47 114,-36 205,-78 268,-180l27 -44c-28,-29 -54,-58 -48,-98 7,-45 -52,-49 -80,-73 -116,-99 -45,-230 50,-319l0 0 81 -107c21,-19 40,-45 64,-66 44,-40 123,-75 152,-104 32,-32 141,-70 141,-110 0,-82 -174,-25 -170,-128 3,-68 0,-59 49,-130l0 0c-2,-60 39,-116 67,-171 101,-198 -70,-179 -80,-289 -10,-117 45,-101 -31,-211 -40,-57 -42,-87 -76,-139 -64,-99 -4,-186 -137,-190 -77,-2 -83,-56 -175,-29 -167,49 -142,15 -287,12 -72,-2 -142,-40 -183,-40 -79,2 -111,-2 -171,51 -38,34 -71,155 -114,104 -55,-65 -172,-43 -200,-59 -92,-53 -65,-50 -195,-75l0 0z"/>
  <path class="fil0 str0" d="M10593 10890c60,-92 87,-114 148,-190 30,-38 57,-125 59,-172 3,-48 -4,-78 -15,-125 -14,-64 -16,-81 -51,-142 -30,-51 51,-80 89,-142 51,-84 75,-120 144,-191 50,-52 117,-177 128,-250 9,-61 -8,-112 9,-178l2 -9c25,-126 8,-52 -51,-87 -57,-33 55,-111 69,-150 20,-58 51,-64 1,-89 -84,-42 -43,-110 -82,-188 -8,-16 -65,-258 -70,-288 -16,-84 -92,-52 -163,-70 -85,-22 -149,-106 -200,-171 -40,-51 -70,-14 -127,-142 -11,-24 -19,-43 -26,-60 -6,-5 -35,-31 -42,-30 -100,20 -87,66 -149,128 -24,24 -59,81 -69,91 -33,32 -56,72 -82,111 -47,70 -170,112 -249,109 -74,-3 -169,59 -237,28 -62,-28 -159,-18 -212,27 -26,22 -95,19 -121,-2 -67,-52 0,-45 -115,-82l-10 -8c-45,-40 -74,-67 -123,-102 -142,-103 -356,55 -475,-1 -65,-31 -152,3 -197,-51 -32,-39 -57,-57 -107,-23 -62,42 -31,47 -115,80 -26,10 -126,-25 -144,-42 -32,-32 -32,-35 -70,-68 -53,-45 -181,-25 -210,-91 -29,-65 -20,-51 -65,-128l-18 -134 0 0c-24,-5 -50,-16 -89,-30 -137,-52 -133,122 -193,122 -38,46 -83,24 -126,8 -65,-25 -51,7 -118,32 -35,13 -68,12 -99,37 -47,38 -97,380 -57,421 70,44 143,39 221,50 8,13 59,62 74,66 2,13 -3,44 -14,52 -4,34 -40,74 -47,115 -6,38 9,81 9,121l0 0 166 85c35,18 80,37 122,35 59,-2 69,-20 129,-18 35,1 55,-20 106,7 23,12 57,3 82,21 13,9 50,1 71,51 14,33 243,49 259,86 11,25 9,209 22,270 12,57 1,52 29,111 51,109 61,42 132,115 37,38 179,-5 237,12 86,25 141,-69 208,1 60,63 153,-32 264,-3 54,14 147,24 194,-13 48,-39 52,-46 92,-88 13,-14 31,11 55,26 60,37 90,83 113,151 21,129 1,90 -29,198 -7,25 -195,173 -58,234 65,29 32,54 4,97 -35,54 -72,77 -41,145 35,76 61,70 78,148 8,37 36,63 39,128 0,9 10,32 11,36l0 0c103,-41 117,-31 216,-42 85,-10 129,-161 223,-85 29,23 168,39 206,28 43,-13 180,45 235,48 42,2 134,70 181,57 10,-3 29,-6 39,-6l0 0z"/>
  <path class="fil0 str0" d="M10593 10890c95,-13 73,-4 155,15 16,4 90,42 92,57l0 0c69,-20 86,-17 147,-29 108,-22 174,-179 312,-198 83,-11 149,-133 229,-170 56,-26 54,-36 120,-51 119,-27 193,-112 255,-132 101,-32 152,-66 262,-57 10,1 34,0 46,0l86 -2 0 0 137 -75c12,-25 34,-59 43,-82 17,-40 36,-101 23,-143 -20,-64 -116,-63 -103,-88 26,-51 82,-31 109,-64 89,-105 88,-146 136,-265 24,-57 -60,-87 -96,-86 -127,3 -60,-53 -60,-155 0,-29 65,-104 86,-116 85,-50 21,-104 71,-132 38,-22 42,-27 82,-67l0 0c-26,-32 -115,-127 -148,-146 -86,-48 -27,-76 -128,-146 -61,-42 -90,-138 -121,-163 -76,-61 -100,-10 -66,-112 18,-54 81,-80 71,-104 -28,-68 63,-81 62,-104 -3,-68 -32,-86 -64,-154 -4,-5 -10,-26 -15,-35 -49,-87 -50,-99 -78,-191 -28,-91 -18,-174 -128,-193 -33,-6 -103,-37 -134,-53 -44,-23 -128,-19 -152,-59 -87,-148 -209,-133 -249,-203 -40,-68 -93,-75 -160,-29 -88,61 -97,11 -127,24 -92,38 -15,93 -97,127 -113,47 -108,98 -243,107 -72,5 -76,-10 -135,-17 -46,-6 -182,-54 -203,-55 -77,-4 -79,-9 -160,22l0 0 -117 -49c-8,-5 -10,-6 -19,-7 -49,-10 -102,-49 -102,-101 0,-34 -50,-79 -79,-86 -76,-19 -51,-72 -110,-86 -79,-19 -35,-58 -98,-62 -51,-3 -80,-11 -131,24 -69,47 -75,8 -109,-33 -29,-36 -15,-106 -33,-106 -93,4 -161,136 -223,176 -92,61 -195,112 -308,93 -107,-18 -79,-55 -193,2l-168 61 0 0c-8,21 -17,42 -49,40 -39,-2 -65,-25 -101,-3l-248 154c-42,26 -152,64 -178,103 -50,75 13,164 -36,217 -44,48 -43,48 -111,54 -88,-36 -199,56 -276,84 -52,19 -82,23 -115,16l0 0 18 134c46,77 36,63 65,128 30,66 157,45 210,91 39,33 38,36 70,68 17,17 118,52 144,42 84,-33 53,-38 115,-80 50,-34 75,-16 107,23 45,54 131,21 197,51 119,56 333,-101 475,1 49,36 78,62 123,102l10 8c115,36 48,30 115,82 27,21 95,24 121,2 53,-44 150,-55 212,-27 68,31 163,-31 237,-28 80,3 202,-39 249,-109 26,-39 49,-79 82,-111 10,-10 45,-68 69,-91 63,-61 49,-108 149,-128 7,-1 37,25 42,30 7,17 16,36 26,60 57,127 87,90 127,142 51,66 115,150 200,171 71,18 147,-15 163,70 6,31 63,273 70,288 39,78 -2,146 82,188 50,25 19,31 -1,89 -14,39 -126,117 -69,150 59,34 75,-40 51,87l-2 9c-18,67 -1,117 -9,178 -10,74 -77,199 -128,250 -69,71 -93,107 -144,191 -38,62 -119,91 -89,142 36,61 37,78 51,142 11,47 17,77 15,125 -2,47 -29,134 -59,172 -60,76 -88,97 -148,190l0 0z"/>
  <path class="fil0 str0" d="M9911 12192c-120,42 -109,36 -137,151 -26,103 2,119 -105,179 -35,20 -150,141 -167,179 -8,20 -36,34 -45,87 -27,154 -59,205 145,135 108,-37 53,53 131,98 28,17 40,65 16,92 -34,38 -85,25 -135,77 -51,54 -103,-22 -182,63 -41,45 -9,115 56,134 48,13 168,38 191,75l7 8c73,138 64,72 165,110 45,17 74,183 77,225 2,24 39,175 51,192 52,72 172,25 207,135l0 0c-25,0 -53,1 -88,2 -177,5 -324,45 -497,69 -65,9 -247,18 -290,29 -87,23 -178,21 -263,51 -143,51 -139,62 -299,62 -7,0 -21,1 -27,-1 -67,-14 -176,37 -231,11 -87,-41 -133,-55 -210,-115 -85,-66 -232,-122 -269,-226 -19,-55 -81,-82 -135,-96 -90,-23 -173,-54 -262,-79 -64,-18 -206,-15 -237,-26 -56,-18 -83,-15 -130,-26 -51,-12 -235,24 -269,-15 -31,-35 -89,53 -97,81l0 0 -111 -52c-70,-24 -63,-26 -94,-76 -4,-7 -6,-122 -23,-163 -15,-36 35,-113 38,-160 2,-33 38,-127 60,-150 53,-56 78,-36 136,-65 57,-12 72,-17 118,-34 84,-31 61,-12 122,-85 25,-30 48,-13 99,-44 54,-34 147,-79 195,-13 0,1 37,29 46,40 10,12 37,17 53,17l87 6 0 0c83,58 46,52 73,124 32,89 13,77 125,66 3,0 73,13 104,13 112,0 118,-20 216,-70 73,-38 71,-60 170,-60 37,0 66,23 91,48 65,65 84,-1 161,-34 84,-36 78,-24 162,-40 48,-9 93,-138 41,-162 -60,-29 -71,-36 -142,-40 -41,-2 -119,-9 -159,-7 -48,2 -56,-62 -45,-101 2,-9 4,-18 5,-26 163,-207 237,-167 461,-249 76,-28 236,-74 285,-138 23,-30 38,-109 63,-159 34,-69 34,-160 119,-184 39,-11 81,-16 127,-30 59,-19 126,-18 200,-42 61,-20 108,-31 154,27 33,41 37,130 93,183l0 0z"/>
  <path class="fil0 str0" d="M10593 10890c95,-13 73,-4 155,15 16,4 90,42 92,57l0 0c-23,79 -33,134 35,189 52,43 36,96 158,165 17,9 124,72 117,91 -18,48 -85,102 -127,128 -59,37 -188,203 -72,229 58,13 111,60 112,122 1,67 50,98 72,158 25,68 130,117 186,152 69,44 68,82 182,60 107,-21 112,-67 233,-50 141,20 84,-19 194,-51 62,-18 170,15 229,-52 32,-37 -68,-158 17,-262 44,-54 190,-96 259,-167 11,-11 42,-38 55,-46l86 -119 0 0c49,-18 139,-55 193,-31 81,36 199,-34 303,-7l7 1c114,12 57,13 135,43 51,20 244,9 302,-7 17,-5 117,-2 131,10l0 0c-39,37 -85,100 -102,127 -42,63 -105,116 -156,174 -29,33 -100,86 -113,116 -38,89 -26,82 -88,166 -66,88 -139,93 -238,123 -57,43 -52,55 -86,88 -52,49 -111,120 -161,172 -60,61 -96,143 -167,194 -96,68 -109,117 -184,184 -68,61 -77,72 -131,143 -74,96 -94,73 -149,128 -36,36 -46,83 -16,128 59,88 49,94 83,184 40,108 22,126 -91,188 -63,29 -79,8 -148,58 -82,60 -84,69 -184,114 -104,48 -71,50 -134,114 -81,82 -72,96 -189,139 -135,50 -282,80 -412,130l-7 1c-105,8 -228,23 -330,49 -88,22 -190,-1 -266,-47 -81,-49 -123,-59 -191,-60l0 0c-35,-110 -155,-63 -207,-135 -12,-17 -49,-168 -51,-192 -3,-42 -32,-208 -77,-225 -102,-37 -92,28 -165,-110l-7 -8c-23,-37 -144,-61 -191,-75 -66,-19 -98,-89 -56,-134 79,-86 131,-9 182,-63 50,-53 101,-39 135,-77 24,-27 13,-76 -16,-92 -78,-45 -23,-136 -131,-98 -204,70 -172,20 -145,-135 9,-54 36,-68 45,-87 16,-38 132,-159 167,-179 107,-60 80,-77 105,-179 28,-114 18,-109 137,-151l0 0 103 -36c27,-3 94,-35 105,-61 26,-65 -4,-83 -23,-132 -20,-52 -60,-78 -69,-100 -19,-43 -54,-97 -107,-101 -87,-7 -41,-174 -53,-236 -22,-115 -82,-56 -73,-218 8,-14 66,-71 80,-77 81,-34 8,-83 -18,-111 -53,-55 -143,-42 -157,-75 -31,-69 -52,-58 -124,-77 -57,-15 -62,-12 -80,-78l0 0c103,-41 117,-31 216,-42 85,-10 129,-161 223,-85 29,23 168,39 206,28 43,-13 180,45 235,48 42,2 134,70 181,57 10,-3 29,-6 39,-6l0 0z"/>
  <path class="fil0 str0" d="M9493 10890c18,66 23,63 80,78 72,19 93,7 124,77 15,32 104,20 157,75 26,27 99,77 18,111 -14,6 -72,62 -80,77 -9,162 50,103 73,218 12,62 -34,229 53,236 53,4 88,58 107,101 10,22 50,48 69,100 19,49 49,68 23,132 -11,27 -78,58 -105,61l-103 36 0 0c-55,-53 -60,-142 -93,-183 -46,-58 -93,-47 -154,-27 -74,24 -141,24 -200,42 -46,14 -87,19 -127,30 -86,24 -85,115 -119,184 -25,50 -40,129 -63,159 -49,64 -209,110 -285,138 -224,82 -298,43 -461,249 -1,9 -3,18 -5,26 -11,40 -3,104 45,101 40,-2 118,5 159,7 71,4 82,12 142,40 52,25 7,153 -41,162 -85,16 -78,4 -162,40 -77,33 -96,100 -161,34 -25,-25 -54,-48 -91,-48 -99,0 -97,22 -170,60 -98,51 -104,70 -216,70 -31,0 -101,-14 -104,-13 -111,11 -92,23 -125,-66 -26,-72 10,-66 -73,-124l0 0c0,0 9,-22 10,-25 11,-28 3,-43 6,-63 15,-109 81,-77 63,-161 -4,-20 -3,-42 -5,-51 -4,-19 -59,-80 -76,-89 -43,-25 -38,-53 -32,-99 5,-38 -28,-74 -14,-86 46,-39 131,26 162,-14 27,-35 -15,-77 -44,-93 -44,-24 -57,-49 -99,-80 4,-14 2,-42 0,-56 -14,-96 37,-85 41,-117 7,-63 -14,-36 18,-109 15,-33 12,-83 -6,-113 -53,-88 -44,-93 -61,-189 -21,-117 -152,22 -235,8 -43,-7 -151,-48 -179,-49 -132,-6 -69,-63 -142,-101 -53,-28 -41,-24 -85,-67 -2,-44 -27,-57 -18,-113 12,-76 7,-60 -18,-131 -11,-30 -7,-79 -30,-90 -61,-32 -103,0 -137,-26 -22,-16 -9,-97 -3,-120 11,-43 -21,-65 -24,-120 -2,-26 -5,-62 -5,-88 0,-20 -49,-19 -64,-19 -29,0 -55,-4 -82,-3 -53,2 -86,30 -136,40 -54,11 -22,-114 -17,-135l-1 -9c-1,-25 -14,-92 -24,-116 -28,-65 -75,-115 -86,-183 -16,-98 25,-149 -75,-225 -28,-21 -36,-32 -55,-59 -7,-10 -74,-63 -82,-70l-57 -39 0 0c41,-6 112,-208 118,-217 80,-124 281,-98 370,-203 39,-46 75,-121 121,-157 19,-15 62,2 85,1 51,-2 96,-31 142,-35 63,-29 88,-111 148,-150 95,-61 209,-60 209,-202l0 0 166 85c35,18 80,37 122,35 59,-2 69,-20 129,-18 35,1 55,-20 106,7 23,12 57,3 82,21 13,9 50,1 71,51 14,33 243,49 259,86 11,25 9,209 22,270 12,57 1,52 29,111 51,109 61,42 132,115 37,38 179,-5 237,12 86,25 141,-69 208,1 60,63 153,-32 264,-3 54,14 147,24 194,-13 48,-39 52,-46 92,-88 13,-14 31,11 55,26 60,37 90,83 113,151 21,129 1,90 -29,198 -7,25 -195,173 -58,234 65,29 32,54 4,97 -35,54 -72,77 -41,145 35,76 61,70 78,148 8,37 36,63 39,128 0,9 10,32 11,36l0 0z"/>
  <path class="fil0 str0" d="M4099 11585l-4 -101c64,-80 66,-60 149,-83 71,-19 99,-19 167,-51 65,-30 116,-12 133,-104 4,-23 8,-62 7,-84 -3,-33 100,-88 121,-132 15,-31 107,-76 136,-40 12,15 88,12 140,54 54,44 103,-28 69,-79 -5,-8 -12,-40 -33,-72 -13,-20 14,-63 2,-110 -14,-58 -12,-155 68,-157 30,-1 33,-7 72,-4 81,6 127,-81 233,-84 22,-1 41,-7 61,-13 27,-8 50,-12 77,-21 9,-3 112,-17 126,-17 41,1 135,-16 158,-54 17,-26 -4,-43 -18,-68 -15,-28 -37,-42 -47,-82 -17,-64 -23,-73 14,-132 24,-39 22,-66 68,-99 19,-14 103,-25 125,-16 42,17 52,-8 92,-19l0 0c-6,1 -12,-3 -16,-12 -6,0 -28,-41 -37,-47 -17,-11 -41,-11 -61,-14l0 -133c-14,-10 -93,75 -126,72 -66,35 -121,56 -193,75 -27,7 -150,86 -150,58 0,-111 -80,-149 -80,-255 0,-72 -5,-108 -67,-152l-82 -58c-22,0 -45,22 -65,30 -23,10 -32,-29 -48,-34 -8,-57 -259,199 -287,210 -43,18 -45,58 -73,72 -52,26 -52,-31 -117,22 -51,42 -124,132 -195,140 -45,20 -61,41 -115,28 -27,-6 -41,46 -60,58 -68,42 -138,1 -212,1 -41,0 -88,18 -126,31 0,129 -153,275 -282,257 -3,-5 -11,-8 -13,-13 -42,-11 -88,23 -134,7 -168,-57 -81,-143 -143,-190 -1,-5 -56,-115 -59,-121 -31,-53 -102,-18 -120,-21 -76,-14 -91,55 -136,55 -26,0 -65,-52 -80,-67 -41,-14 -85,-24 -127,-9 -73,26 -109,33 -160,-40 -24,-34 -39,-56 -67,-89 -40,-47 -144,-105 -206,-105 -49,0 -70,-32 -98,-24 -30,9 -52,17 -84,23l-135 53 0 0c12,19 20,49 32,64 22,28 76,10 109,-2 47,-16 36,-41 87,-11 47,28 91,55 91,116 0,63 30,123 43,176 -10,26 -34,45 -34,78 0,39 29,82 5,121 -10,16 -36,28 -42,46 -10,32 24,50 -24,74 -39,19 -119,67 -122,115 -2,40 -44,40 -70,60 -32,24 -46,39 -71,70 -18,94 90,196 88,196 -10,40 -78,51 -78,104 0,29 27,60 47,79 36,32 19,75 45,116 15,23 2,40 38,40 16,0 66,4 77,-4 1,1 3,3 4,4 0,30 28,104 43,133 25,49 109,53 119,93 -49,118 104,48 142,20 26,-19 39,-76 69,-51 40,32 29,38 82,25 -11,43 -41,99 11,132 54,34 103,7 156,-13 61,-23 40,31 76,46 46,19 95,-14 133,-37 65,-40 101,68 186,-1 15,-12 17,-48 31,-55 2,-1 40,10 46,9 54,-12 8,56 51,55l193 -6c61,-2 79,45 141,66 39,14 69,2 98,-24 27,-24 103,33 120,-44 7,-33 14,-16 46,-16 25,0 49,-19 69,-19l0 0z"/>
  <path class="fil0 str0" d="M6015 10017l57 39c8,6 75,59 82,70 19,26 27,38 55,59 100,75 59,127 75,225 11,68 58,118 86,183 10,24 23,91 24,116l1 9c-5,21 -38,146 17,135 49,-10 82,-38 136,-40 26,-1 52,3 82,3 14,0 64,-1 64,19 -1,26 3,62 5,88 3,55 36,77 24,120 -6,24 -19,104 3,120 35,26 76,-6 137,26 22,11 19,60 30,90 25,71 31,55 18,131 -9,56 15,69 18,113 44,43 32,39 85,67 73,39 10,95 142,101 29,1 136,42 179,49 83,14 214,-125 235,-8 17,95 8,100 61,189 18,30 20,81 6,113 -32,73 -11,46 -18,109 -4,32 -55,22 -41,117 2,14 4,42 0,56 42,31 55,56 99,80 29,16 71,57 44,93 -31,41 -116,-25 -162,14 -13,12 19,47 14,86 -6,46 -11,75 32,99 16,9 71,70 76,89 2,10 1,32 5,51 18,84 -49,51 -63,161 -3,20 5,34 -6,63 -1,3 -10,24 -10,25l0 0 -87 -6c-16,0 -42,-5 -53,-17 -9,-11 -45,-39 -46,-40 -48,-66 -141,-21 -195,13 -50,32 -74,15 -99,44 -61,74 -38,54 -122,85 -46,17 -62,21 -118,34 -58,29 -83,9 -136,65 -22,23 -58,117 -60,150 -3,46 -53,123 -38,160 17,41 19,156 23,163 31,50 24,52 94,76l111 52 0 0c-20,65 -50,129 -82,189 -6,8 -26,22 -35,27 -56,28 -80,18 -106,30 -86,38 -287,56 -383,52 -69,-3 -129,4 -199,4 -105,0 -110,35 -170,39 -93,8 -74,139 -230,90 -110,-35 -140,11 -200,10 -97,-2 -138,-3 -193,86 -27,44 -85,54 -131,29 -75,-40 -85,-3 -148,21 -98,37 -129,69 -244,49l-236 2 0 0c9,-82 -45,-203 -2,-261 31,-42 18,-41 13,-87 -16,-12 -31,-29 -49,-41 -14,-9 -17,-116 -20,-137 -36,-21 -100,-13 -124,-48 9,-36 36,-92 36,-123 -52,-13 -160,-23 -187,-78 -32,-64 -17,-146 -50,-207 -12,-22 -36,-66 -27,-91 15,-42 50,-69 47,-120 -4,-67 -58,-121 -12,-183 46,-46 122,-22 122,-95 0,-72 13,-68 51,-130 11,-18 9,-63 4,-83 -26,-6 -37,-36 -48,-58 -12,-23 -73,-24 -99,-27 -11,-42 63,-51 85,-71 58,-54 57,-39 123,-11 38,16 60,13 99,5 25,-5 84,-19 74,-57 -14,-48 -57,-60 -88,-98 -18,-23 -59,-12 -85,-26 -29,-15 -40,-46 -61,-65 -45,-40 -20,-48 -37,-94 -11,-53 -72,-94 -72,-134 0,-46 33,-112 46,-158 9,-35 -32,-45 -51,-69 -42,-53 -57,-32 -11,-78 17,-17 -10,-47 -15,-60 -92,0 -88,-138 -88,-210l0 0 -4 -101c64,-80 66,-60 149,-83 71,-19 99,-19 167,-51 65,-30 116,-12 133,-104 4,-23 8,-62 7,-84 -3,-33 100,-88 121,-132 15,-31 107,-76 136,-40 12,15 88,12 140,54 54,44 103,-28 69,-79 -5,-8 -12,-40 -33,-72 -13,-20 14,-63 2,-110 -14,-58 -12,-155 68,-157 30,-1 33,-7 72,-4 81,6 127,-81 233,-84 22,-1 41,-7 61,-13 27,-8 50,-12 77,-21 9,-3 112,-17 126,-17 41,1 135,-16 158,-54 17,-26 -4,-43 -18,-68 -15,-28 -37,-42 -47,-82 -17,-64 -23,-73 14,-132 24,-39 22,-66 68,-99 19,-14 103,-25 125,-16 42,17 52,-8 92,-19l0 0z"/>
  <path class="fil0 str0" d="M19000 7317c-1,-45 -2,-185 -69,-200 -17,-4 -94,-36 -102,-57 -28,-77 46,-92 -33,-241 -46,-88 73,-54 38,-188 -15,-59 37,-156 87,-191 31,-21 102,-100 117,-103l65 -62 -10 -2c4,-4 1,-35 7,-44 48,-68 46,-19 72,-104 -39,-110 -127,-86 -165,-148 -19,-30 -39,-194 -37,-231 5,-125 -78,-244 -49,-366 6,-24 72,-96 93,-119 36,-41 44,-82 16,-132 -22,-41 -32,-98 -50,-126 -54,-80 -38,-189 -63,-213 -39,-39 -32,2 -112,-95 -30,-74 -55,-176 -55,-256 0,-92 54,-158 -2,-225 -49,-58 -14,-42 -29,-84 -39,-106 -235,79 -251,-72 -3,-32 9,-71 -2,-91 -53,-99 -31,-79 23,-172 35,-61 52,-16 73,-117l-34 -129 0 0 -17 -38c-27,-33 -78,-19 -107,-50 -18,-20 -38,-75 -57,-85 -38,-19 -229,26 -271,48 -73,39 -81,26 -136,-15 -24,-18 -67,-5 -95,-5 -73,0 60,-68 -18,-125 -31,-23 -36,-83 -62,-95 -129,-61 -258,-49 -379,-141 -8,-6 -75,-37 -75,-15 35,18 141,227 141,266 -74,0 -129,-164 -218,-164 -71,-27 -127,-33 -203,-33 -65,0 -72,-37 -119,-69 -76,-54 -202,-65 -286,-26 -21,10 -138,81 -140,55 -4,-67 -33,-127 -33,-199 0,-48 -31,-47 -38,-76 -34,-8 -52,26 -97,5 -33,-15 -73,-54 -83,-90 -12,-46 -14,-193 -56,-221 0,-39 -55,-54 -81,-68 -32,-32 -86,-137 -140,-114l-212 90c-64,27 -293,180 -299,251 -42,42 -74,115 -135,138 -53,20 -98,-59 -146,-22 -38,29 -35,79 -93,91 -61,12 -208,170 -233,130 -35,-56 -56,4 -103,16 -35,9 -56,-7 -84,-19 -15,12 -40,109 -42,133 -55,34 -116,58 -183,27 -64,-29 -119,18 -186,18 -36,0 -40,61 -40,87 0,63 -80,87 -69,154 18,110 103,73 164,134 27,27 12,77 55,115 29,158 156,29 156,181l0 0 91 39c31,64 65,122 94,183 17,34 48,91 51,128 1,12 25,101 31,110l0 0c62,83 62,83 83,174 8,35 36,63 65,81 68,41 172,67 202,135 22,50 -6,82 48,117 52,34 121,55 169,86 54,35 242,93 306,99 139,12 50,83 157,150 52,32 152,124 206,167 135,108 200,180 200,362 -9,35 -30,174 -18,215 14,51 5,53 37,106 27,45 20,266 171,212 51,-18 166,-49 211,-13 120,96 139,56 275,13 61,-19 183,-92 219,-15 22,47 132,182 180,191 77,14 135,-6 211,-19 20,-3 72,-19 92,-27 64,-12 131,-31 158,35 3,8 -4,36 12,66 21,39 -11,137 -12,188 -2,78 -41,168 -95,224 -35,36 -73,122 -25,166 35,31 31,38 81,65 50,27 82,99 73,155 -17,110 -11,216 -39,332l-2 8c4,112 -5,118 74,174 69,49 -11,134 87,176 33,14 80,52 98,85 8,15 67,125 69,127 70,68 74,18 144,80 32,28 144,0 196,11l0 0c-1,-118 -16,-177 97,-245 96,-57 178,-5 203,-138 14,-76 152,-105 137,-232 -8,-68 80,-111 110,-184 5,-12 33,-88 40,-90l0 0z"/>
  
  
  
  
  
  
  
  
  
  
  
  
  
  
  
  
  <g id="_2421065307424">
   
   
   
   
   
   
   
   
   
   
   
   
   
   
  </g>
 </g>
</svg>