<svg xmlns="http://www.w3.org/2000/svg" xmlns:xlink="http://www.w3.org/1999/xlink" xml:space="preserve" width="297mm" height="210mm" version="1.1" style="shape-rendering:geometricPrecision; text-rendering:geometricPrecision; image-rendering:optimizeQuality; fill-rule:evenodd; clip-rule:evenodd" viewBox="0 0 29700 21000">
 <defs>
  <style type="text/css">
   <![CDATA[
    .str1 {stroke:white;stroke-width:50;stroke-opacity:0.501961}
    .str3 {stroke:white;stroke-width:50}
    .str5 {stroke:#434242;stroke-width:50}
    .str0 {stroke:white;stroke-width:50}
    .str2 {stroke:white;stroke-width:50}
    .str6 {stroke:#2B2A29;stroke-width:7.62}
    .str4 {stroke:white;stroke-width:7.62}
    .fil6 {fill:none}
    .fil0 {fill:#171729}
    .fil1 {fill:#171729}
    .fil8 {fill:#D9DADA}
    .fil5 {fill:#171729;fill-rule:nonzero}
    .fil4 {fill:#D9DADA;fill-rule:nonzero}
    .fil7 {fill:#434242;fill-rule:nonzero}
    .fil3 {fill:black;fill-rule:nonzero}
    .fil2 {fill:#171729;fill-rule:nonzero;fill-opacity:0.501961}
   ]]>
  </style>
 </defs>
 <g id="Plan_x0020_1">
  <metadata id="CorelCorpID_0Corel-Layer"/>
  <path class="fil0 str0" d="M19292 5513c-69,95 -46,92 -68,184 -10,41 -97,127 -76,178 6,15 -12,150 -24,170l-38 80 0 0c-17,18 -28,29 -49,43 -15,10 -45,15 -54,24 -26,28 -19,32 -44,68l-6 2c-66,26 -58,143 -112,58 -25,-40 -49,-32 -62,11 -23,74 -67,32 -107,33 -61,1 -55,121 -171,88 -152,-43 -140,78 -220,42 -62,-28 -61,68 -111,38 -68,-40 -35,-87 -94,-64 -59,23 -100,96 -134,117 -16,10 -12,13 -19,22 -27,32 -22,60 -31,80 -12,25 -49,21 -70,20l-4 1c-42,10 -50,35 -57,76 -14,76 -64,49 -101,57 -77,16 -62,72 -86,93 -38,34 -65,-25 -116,2 -90,49 -90,-50 -110,-52 -33,-2 -113,98 -146,121 -21,15 -5,47 -16,67 -30,52 -52,-3 -85,-4 -14,0 -78,48 -87,54 -2,-1 -77,-23 -82,-23 -21,0 -54,17 -64,32 -10,15 -25,37 -35,50 -27,27 -77,73 -76,114 1,45 -25,76 -70,83 -60,9 -97,12 -130,70 -10,18 -49,60 -74,53 -68,-19 -72,-12 -121,-70l0 0 -4 -78c0,-6 0,-11 0,-17 0,-53 -37,-64 -73,-91 -33,-24 -37,-65 -28,-103 13,-51 -6,-73 1,-98 8,-32 -4,-55 -27,-78 -28,-28 -19,-9 -48,-55l-89 -59 0 0c9,-10 17,-22 30,-36 37,-40 60,-57 100,-90 36,-30 62,-49 96,-82 20,-19 82,-38 111,-52 46,-23 104,-13 129,-69 12,-27 -16,-50 -27,-82 -10,-27 -13,-32 -20,-62 -21,-101 -134,-52 -12,-176 12,-12 34,-30 42,-42 29,-50 46,-48 79,-86 71,-84 163,-150 226,-242 20,-29 56,-57 82,-94 32,-44 55,-66 90,-104 35,-37 52,-66 93,-104 40,-37 73,-75 129,-80 47,-4 96,-24 111,-73 42,-70 27,-69 88,-128 34,-33 53,-74 95,-105 36,-27 61,-64 92,-95 40,-41 41,-54 62,-103 27,-62 128,-92 190,-97 56,-5 149,-57 164,-114l0 0 58 124c14,57 18,98 49,145 16,24 15,100 37,139 12,20 23,115 -10,139 -32,24 -189,-85 -117,51 31,59 102,65 106,119 1,9 20,35 27,42 54,54 88,73 133,-2 26,-44 74,-57 117,-31 78,48 88,-32 188,68 84,84 92,9 183,-17 35,-10 43,18 99,-21 57,-41 133,-16 208,-93 10,-10 76,-55 80,-25 8,61 148,-13 116,85 -5,15 -21,34 -7,53l0 0z"/>
  <path class="fil0 str0" d="M17138 7543c192,-17 290,7 433,-114 86,-73 178,-106 293,-115 95,-7 459,-37 507,-119 7,-13 50,-35 52,-44l78 -154 0 0c44,38 48,53 94,57 51,5 203,-19 161,60 -21,40 -15,112 36,135 91,41 23,118 47,204l2 7c63,94 53,52 84,88 37,43 -24,123 33,154 11,6 18,60 57,90 43,32 82,30 121,58 9,6 68,26 91,45l0 0c-4,26 -2,36 -8,67 -13,13 -48,43 -57,56 -9,13 -81,48 -88,15 -8,-34 18,-45 -29,-54 -34,-7 -72,18 -94,44 -46,54 -120,112 -192,126 -33,7 -46,3 -37,49 15,46 -14,85 -57,102 -50,19 -160,36 -132,115 28,77 22,75 3,151 -18,70 -46,122 -110,160 -23,14 -50,15 -54,36 -10,49 -45,55 -80,80 -33,23 -50,117 -107,78 -14,-10 -58,-91 -65,-110 -30,-87 -25,-80 -20,-170 1,-15 18,-86 17,-85 -20,7 -73,83 -113,106 -26,15 -48,44 -62,71 -27,51 -23,45 -64,94 -5,2 -12,13 -17,18 -36,41 -53,97 -79,127 -55,63 -51,76 -60,158 -6,49 2,239 -9,265 -11,27 -84,44 -111,49l12 -2c1,-11 -12,-104 -18,-118 -10,-24 -27,-136 -43,-174 -25,-62 56,-117 1,-242 -27,-60 -101,-111 -65,-173 32,-54 23,-48 44,-118 -7,-54 9,-114 -28,-159 -99,-117 -5,-192 -60,-247 -80,-81 -74,-114 -124,-201 -54,-93 -46,-37 -46,-158 0,-43 -38,-117 -74,-132 -80,-33 -78,-95 -63,-171l0 0z"/>
  <path class="fil0 str0" d="M15907 7674c-13,-36 4,-87 59,-64 84,36 140,-139 177,-76 25,42 99,65 106,-17 3,-36 30,-82 69,-81 5,0 20,-1 24,-4l0 0c49,58 53,50 121,70 24,7 63,-35 74,-53 33,-58 71,-60 130,-70 45,-7 71,-39 70,-83 -1,-41 49,-87 76,-114 11,-13 25,-35 35,-50 10,-16 43,-32 64,-32 5,0 80,22 82,23 9,-6 73,-54 87,-54 33,1 55,56 85,4 11,-20 -5,-52 16,-67 33,-23 113,-124 146,-121 21,2 20,101 110,52 51,-28 78,32 116,-2 23,-21 9,-77 86,-93 37,-8 87,19 101,-57 7,-40 16,-66 57,-76l4 -1c21,1 58,5 70,-20 9,-20 4,-48 31,-80 8,-9 4,-12 19,-22 34,-21 75,-94 134,-117 58,-22 25,24 94,64 50,30 50,-66 111,-38 80,36 68,-85 220,-42 115,33 110,-87 171,-88 40,-1 84,41 107,-33 13,-42 37,-50 62,-11 53,85 46,-32 112,-58l6 -2c25,-36 18,-40 44,-68 8,-9 39,-14 54,-24 20,-14 32,-25 49,-43l0 0 109 120 0 0c-47,67 -90,120 -129,191 -36,64 -77,112 -132,159 -53,45 -51,43 -111,79 -67,41 -20,106 -116,160 -26,15 -73,65 -106,88 -15,10 -92,63 -101,74l0 0 -78 154c-2,9 -44,31 -52,44 -48,82 -412,112 -507,119 -115,8 -207,42 -293,115 -143,121 -241,97 -433,114l0 0c-80,-21 -70,-10 -117,55 -40,56 4,79 -55,139 -41,41 -67,57 -122,76 -43,15 -131,9 -156,-37 -21,-37 -91,-91 -110,-117 -43,-60 -159,-80 -218,-39 -37,26 -115,59 -158,64 -77,9 -49,-29 -154,-2l-142 -8 0 0z"/>
  <path class="fil0 str0" d="M14698 8002c6,74 18,104 -3,174 -15,50 26,69 -61,98 -57,19 19,81 19,151 0,4 0,7 0,11l-6 52 0 0 -5 1c-21,4 -38,20 -60,19 -49,-2 -49,6 -85,15 -37,10 4,88 15,115 9,22 43,65 43,68 1,54 -73,-17 -82,-23 -41,-24 -98,-87 -116,-13 -26,106 -38,-22 -50,-37 -40,-50 -6,-70 -6,-106 0,-38 -172,55 -176,57 -15,4 -9,5 -21,11 -60,29 -124,81 -190,34 -54,-38 -129,-20 -145,39 -28,101 -84,87 -118,130 -61,77 119,48 147,46 51,-5 62,-41 78,-29 24,18 -14,84 51,80 45,-3 94,-49 110,-48 14,1 -31,91 -35,121 -2,16 -56,58 -67,63 -65,34 -15,39 -130,60 -46,-5 -60,-42 -66,-46 -3,-2 -91,49 -113,57 -50,19 -83,-8 -97,7 -76,79 -57,75 -163,75 -147,0 -83,82 -58,90 50,16 -12,70 42,93 76,32 24,107 -9,121 -154,66 -68,97 -130,121 -34,13 -133,-87 -137,-46 -3,38 -36,103 -47,138 -19,58 -62,47 -43,93 32,78 32,53 -18,139l0 0c-46,-6 -40,-20 -54,6 -10,19 -11,33 -44,32 -65,-2 -12,40 -55,39 -64,-1 -36,67 -39,103 -4,53 -72,53 -110,47 -49,-8 -121,63 -69,75 9,2 63,32 60,41 -2,5 -64,59 -14,69 63,13 66,26 90,78l16 79 0 0c-44,0 -117,-23 -139,26 -21,46 7,84 -19,110 -33,32 -81,6 -106,4 -73,-5 -73,117 -142,130 -77,14 -102,23 -166,68 -25,18 -67,26 -96,14 -42,-19 -40,-26 -17,-66 17,-29 54,-60 42,-89 -3,-8 41,-39 45,-41 58,-31 0,-56 8,-88 6,-22 9,-22 15,-53 2,-4 2,-4 3,-8 12,-40 46,-65 9,-101 -33,-32 -35,-20 -65,-63 -21,-30 -15,-40 -26,-61 -11,-22 -69,23 -80,32 -21,18 -58,43 -74,3 -17,-42 -22,-68 -3,-111 8,-17 8,-34 13,-44 20,-47 -39,-7 -70,-16 -50,-16 -91,42 -90,86 1,34 -57,54 -83,55 -28,2 -69,76 -108,50 -40,-27 -19,-29 -78,-49l0 0c0,-11 2,-22 1,-33 -3,-34 0,-84 28,-109 31,-27 16,-72 35,-114 30,-67 34,-91 12,-163 1,-29 -10,-61 -26,-85 -28,-43 -4,-71 42,-78 33,-4 33,-4 64,-15 32,-11 116,-54 143,-49 73,14 74,28 131,-29 69,-69 68,-70 105,-158 28,-69 28,-86 22,-160 -3,-34 4,-26 -24,-42 -14,-8 -106,4 -115,5 -53,-5 -33,-8 -86,4 -42,9 -67,49 -94,30 -51,-33 -59,-12 -80,-17 -62,-15 -36,-77 -52,-127 -17,-54 -25,-42 -8,-99 12,-41 34,-31 30,-84 -3,-43 -41,-75 -62,-110 -29,-49 -29,-72 -14,-126l0 0c88,-41 63,-28 106,24 45,54 162,-7 239,9 95,20 115,37 215,6 62,-19 135,-17 210,-40 92,-28 105,65 162,-29 32,-52 95,-41 135,0 36,37 86,33 95,-25 6,-36 53,-100 101,-94 109,15 64,-59 183,-91 42,-11 74,-20 117,-29 73,-18 56,-13 111,-17 61,-5 86,-118 191,-126 47,-3 77,-11 124,1 50,13 36,-11 55,47 22,68 80,3 145,26 62,22 80,10 137,71 32,34 103,-15 154,-17 19,-1 64,-14 94,-16l0 0c95,-113 60,-90 189,-140 69,-27 24,-69 74,-136 90,-121 53,-40 168,-93 26,-12 92,-60 121,-59l0 0z"/>
  <path class="fil0 str0" d="M14698 8002c6,74 18,104 -3,174 -15,50 26,69 -61,98 -57,19 19,81 19,151 0,4 0,7 0,11l-6 52 0 0c74,-23 158,-38 235,-28 35,4 26,11 75,1 73,-15 71,69 152,35 25,-10 43,61 142,-41 26,-27 51,-35 83,-72 22,-26 23,44 87,38 48,-5 53,-33 137,-31 32,1 117,-21 103,28 -8,27 34,190 114,31 17,-34 68,-62 106,-62 62,-11 103,-15 161,4 146,49 159,40 117,203 -18,71 107,71 115,172 2,22 73,120 75,186 0,11 12,89 19,101 48,89 -36,171 11,191 31,13 129,-81 147,-105 31,-41 62,-38 63,16 2,77 128,58 126,129 -2,57 4,37 -10,102 0,1 -4,47 -4,48 19,121 -21,110 -54,211 -24,73 -7,39 -14,104 -6,63 -78,108 -73,218 1,17 -46,75 -48,130 -4,80 8,110 -30,189 -15,32 -8,46 -32,84 -17,26 -88,154 -91,175 -4,25 2,31 1,51 37,93 21,67 36,132 17,72 24,36 -27,110 -12,18 -10,66 -22,85l0 0c5,1 9,5 11,13 9,50 6,84 27,134 22,54 -44,148 -21,217 13,39 2,78 20,123 7,18 7,50 39,23 2,-1 78,-86 81,-89 16,-21 49,-66 79,-43 75,58 82,42 159,-12 26,-18 48,-49 81,-74 55,-41 96,-76 161,-102 44,-18 42,-59 39,-103 -3,-39 -22,-97 -37,-134 -15,-39 -17,-111 -5,-151 22,-74 34,-122 71,-193 8,-14 9,-20 14,-35 15,-39 21,-56 32,-93 16,-57 42,-71 7,-137 -25,-46 67,-38 41,-149 -10,-44 56,-108 85,-135 66,-65 2,-118 78,-199 22,-23 43,-46 64,-70 23,-41 49,-82 66,-125 8,-19 39,-82 60,-82 73,-3 45,-58 103,-68l12 -2c1,-11 -12,-104 -18,-118 -10,-24 -27,-136 -43,-174 -25,-62 56,-117 1,-242 -27,-60 -101,-111 -65,-173 32,-54 23,-48 44,-118 -7,-54 9,-114 -28,-159 -99,-117 -5,-192 -60,-247 -80,-81 -74,-114 -124,-201 -54,-93 -46,-37 -46,-158 0,-43 -38,-117 -74,-132 -80,-33 -78,-95 -63,-171l0 0c-80,-21 -70,-10 -117,55 -40,56 4,79 -55,139 -41,41 -67,57 -122,76 -43,15 -131,9 -156,-37 -21,-37 -91,-91 -110,-117 -43,-60 -159,-80 -218,-39 -37,26 -115,59 -158,64 -77,9 -49,-29 -154,-2l-142 -8 0 0c35,98 9,112 23,191 5,31 -5,84 -36,91 -1,0 -139,-39 -166,-38 -37,2 -52,-13 -79,-18 -117,-22 -58,-68 -167,-114 -60,-25 -123,-19 -153,-30 -84,-30 -180,78 -322,42 -74,-18 -132,23 -176,79 -45,57 -65,80 -133,124l0 0z"/>
  <path class="fil0 str0" d="M14146 8430c95,-113 60,-90 189,-140 69,-27 24,-69 74,-136 90,-121 53,-40 168,-93 26,-12 92,-60 121,-59l0 0c68,-44 88,-67 133,-124 44,-56 102,-98 176,-79 142,35 238,-72 322,-42 30,11 93,5 153,30 109,46 50,92 167,114 27,5 41,20 79,18 27,-2 165,38 166,38 30,-6 41,-60 36,-91 -13,-79 13,-93 -23,-191l0 0c-13,-36 4,-87 59,-64 84,36 140,-139 177,-76 25,42 99,65 106,-17 3,-36 30,-82 69,-81 5,0 20,-1 24,-4l0 0 -4 -78c0,-6 0,-11 0,-17 0,-53 -37,-64 -73,-91 -33,-24 -37,-65 -28,-103 13,-51 -6,-73 1,-98 8,-32 -4,-55 -27,-78 -28,-28 -19,-9 -48,-55l-89 -59 0 0c-10,11 -20,20 -40,29 -6,5 -11,8 -18,11 -108,56 -245,118 -368,123 -62,2 -135,22 -198,27 -52,5 -99,41 -122,41 -54,1 -81,-35 -112,-69 -15,-17 -118,-36 -141,-36 -66,-2 -145,-7 -209,-4 -53,2 -113,-6 -164,6 -34,1 -77,4 -110,8 -166,16 -341,58 -502,101 -78,20 -125,99 -214,55 -22,-11 -40,-15 -56,-15l0 0c0,10 -2,40 -2,46 4,109 44,72 -13,181 -14,26 -24,64 -4,90 81,109 -14,115 35,181 59,79 -11,124 21,185 28,52 51,38 45,86 -14,102 48,82 91,136 40,50 40,131 66,170 26,39 18,37 34,75 24,58 26,83 56,148l0 0z"/>
  <path class="fil0 str0" d="M11353 8484c14,-74 2,-41 0,-93 -1,-46 130,-58 120,-136 -1,-5 -28,-23 -36,-36 -6,-9 -27,-14 -31,-23 -18,-51 -11,-43 -19,-82 -1,-5 -29,-84 -29,-84 -19,-26 -32,26 -32,44 2,103 -58,125 -40,64 11,-36 8,-72 14,-109 8,-53 5,-107 -24,-153 -31,-50 -14,-73 -4,-127 9,-47 33,-78 27,-135 -4,-40 -6,-34 -17,-71 -7,-25 -2,-83 -2,-111 5,-23 13,-44 14,-67 1,-23 14,-55 15,-84 1,-21 6,-72 12,-92 5,-16 39,-88 54,-98l0 0c-20,-3 -40,-3 -66,3 -31,7 -35,5 -63,6 -89,1 -77,80 -148,93 -99,17 -55,-51 -207,12 -43,18 -64,11 -101,25 -61,24 -47,21 -113,28 -65,6 -96,-10 -157,-9l0 0 -41 88c-8,0 -27,10 -35,13 -214,93 -250,116 -451,-13 -89,-57 -165,-70 -227,-164 -39,-58 -108,-4 -140,34 -44,51 -99,98 -139,149 -39,50 -186,124 -248,144 -53,17 -103,36 -152,51l0 0 20 155c21,72 27,120 60,183 17,32 28,98 17,134 -9,32 -20,172 -1,197 27,36 32,23 12,83 -10,29 -7,95 30,112 23,10 51,39 55,65 5,30 29,87 29,125 0,67 45,99 53,130l0 0c63,1 34,8 77,17 35,7 76,-5 63,-48 -9,-30 3,-25 -27,-54 -18,-18 -21,-57 7,-67 46,-17 13,-73 57,-100 22,-14 40,84 52,101 19,26 19,24 29,56 12,39 80,18 98,-31 17,-49 48,-92 106,-82 45,7 -21,97 54,96 58,-1 59,-61 132,-29 32,14 18,3 41,27 20,21 65,41 95,27l6 -2c57,49 51,32 58,95 2,21 30,36 38,79 5,29 22,48 50,26 44,-34 50,-47 53,-100 1,-21 8,-45 8,-71 -2,-106 68,-48 102,-116 5,-10 -27,-44 -33,-61 -9,-26 -20,-56 -53,-49 -43,8 -23,154 -101,134 -15,-4 -12,-14 -47,-14 -38,1 -75,-30 -75,-71 0,-52 38,-37 66,-83 21,-35 22,-87 70,-91 83,-6 56,-92 114,-109 48,-14 55,25 142,-22 43,-23 100,-46 148,-57 26,-13 45,-20 67,1 14,13 -10,31 22,63 10,10 41,48 45,62 8,22 9,24 14,48 8,36 85,3 62,125 -3,17 -14,117 -7,125 7,8 63,-21 90,-20 42,2 7,-66 1,-88 -42,-147 77,-45 79,-153 1,-32 18,-147 64,-74 18,28 2,80 55,105 28,13 16,53 40,83 15,19 32,43 55,53l73 17 0 0z"/>
  <path class="fil0 str0" d="M11323 8767c-23,-28 -36,-43 -20,-78 8,-18 69,-16 95,-28 46,-22 18,-44 4,-78 -6,-14 -19,-29 -26,-42l-23 -56 0 0c14,-74 2,-41 0,-93 -1,-46 130,-58 120,-136 -1,-5 -28,-23 -36,-36 -6,-9 -27,-14 -31,-23 -18,-51 -11,-43 -19,-82 -1,-5 -29,-84 -29,-84 -19,-26 -32,26 -32,44 2,103 -58,125 -40,64 11,-36 8,-72 14,-109 8,-53 5,-107 -24,-153 -31,-50 -14,-73 -4,-127 9,-47 33,-78 27,-135 -4,-40 -6,-34 -17,-71 -7,-25 -2,-83 -2,-111 5,-23 13,-44 14,-67 1,-23 14,-55 15,-84 1,-21 6,-72 12,-92 5,-16 39,-88 54,-98l0 0c16,2 33,6 54,8l7 1c98,15 91,-26 154,-74 43,-32 95,-50 149,-44 60,7 174,-11 242,-15 50,-2 88,-7 141,-7 89,0 106,1 187,-42 53,-28 59,-51 54,-105 -1,-12 -2,-17 4,-28 25,-43 7,-45 24,-71 18,-27 33,-16 64,-16 26,0 66,10 96,12 60,6 102,-3 162,-5 88,-3 86,-17 178,11 71,22 150,39 217,70 21,10 46,15 71,26 42,19 89,29 106,79 23,67 39,66 101,102 21,12 44,31 64,40 46,18 76,43 122,60 71,26 70,38 153,42 40,2 65,-7 92,-6l0 0c0,10 -2,40 -2,46 4,109 44,72 -13,181 -14,26 -24,64 -4,90 81,109 -14,115 35,181 59,79 -11,124 21,185 28,52 51,38 45,86 -14,102 48,82 91,136 40,50 40,131 66,170 26,39 18,37 34,75 24,58 26,83 56,148l0 0c-30,2 -75,15 -94,16 -52,2 -122,51 -154,17 -57,-61 -76,-49 -137,-71 -65,-23 -123,42 -145,-26 -19,-58 -5,-34 -55,-47 -48,-13 -77,-5 -124,-1 -106,8 -130,121 -191,126 -55,5 -38,-1 -111,17 -43,9 -75,18 -117,29 -119,31 -74,106 -183,91 -48,-6 -95,58 -101,94 -9,58 -59,62 -95,25 -40,-41 -103,-53 -135,0 -57,94 -70,1 -162,29 -75,23 -147,20 -210,40 -100,31 -120,14 -215,-6 -77,-16 -194,45 -239,-9 -43,-52 -19,-65 -106,-24l0 0c-14,-15 -54,-1 -71,6 -48,18 -59,-18 -95,-1 -45,20 -10,32 -84,34l0 0z"/>
  <path class="fil0 str0" d="M9957 9689c36,45 32,48 63,84 43,49 213,19 236,110 20,76 73,49 104,101 51,86 239,9 289,144 2,6 44,205 44,209 0,28 11,109 11,130l0 0c-24,-1 -40,31 -70,48 -42,22 -80,48 -128,52 -47,4 -37,-8 -95,8 -14,2 -29,6 -43,9 -46,8 -119,28 -162,28 -89,0 -88,-29 -173,14 -47,24 -186,169 -220,52 -18,-63 -60,-47 -112,-85 -48,-35 -42,-141 -28,-191 10,-35 -29,-52 -57,-62 -65,-23 -78,-17 -122,-70 -16,-19 -46,20 -56,31 -43,48 -85,63 -129,100 -62,52 -53,50 -130,94 -30,37 -29,95 -25,140l0 0c-9,-6 -160,-93 -171,-97 -49,-17 -102,-52 -138,-65 -40,-14 -129,-26 -171,-22 -122,11 15,-80 -63,-135 -78,-55 18,-132 82,-136 52,-4 90,-67 126,-52 37,15 63,-57 64,-73 5,-62 36,-81 40,-102 5,-27 68,-146 90,-134 16,8 67,68 74,87 33,82 153,5 201,-20l4 -12c137,88 117,33 242,-13 112,-41 146,23 264,-58 54,-37 83,-58 136,-100 5,-4 16,-10 23,-11l0 0z"/>
  <path class="fil0 str0" d="M11323 8767c74,-2 40,-14 84,-34 36,-16 47,19 95,1 16,-6 57,-21 71,-6l0 0c-15,55 -14,78 14,126 21,35 59,67 62,110 4,53 -18,43 -30,84 -17,57 -9,45 8,99 16,51 -10,112 52,127 20,5 29,-16 80,17 27,18 52,-22 94,-30 53,-11 33,-9 86,-4 9,-1 101,-12 115,-5 28,16 21,8 24,42 6,74 7,91 -22,160 -37,89 -35,89 -105,158 -57,57 -58,43 -131,29 -27,-5 -111,39 -143,49 -31,10 -32,10 -64,15 -47,6 -71,35 -42,78 16,24 27,56 26,85 22,72 18,96 -12,163 -19,42 -4,86 -35,114 -28,25 -30,75 -28,109 1,11 -1,22 -1,33l0 0 -29 10c-27,18 -39,51 -58,72 -22,24 -28,51 -67,45 -30,-4 -30,15 -59,6 -36,-11 -15,-11 -70,-21l-55 42 0 0c-4,-3 -13,-3 -28,0 -60,11 -114,22 -175,29 -48,6 -51,-5 -86,-5 -43,0 -135,30 -170,6 -7,-5 -13,-7 -19,-7l0 0c0,-20 -11,-102 -11,-130 0,-5 -41,-204 -44,-209 -50,-134 -237,-57 -289,-144 -31,-52 -85,-25 -104,-101 -23,-91 -194,-61 -236,-110 -32,-36 -27,-40 -63,-84l0 0c75,-34 75,-34 147,-26 76,9 153,23 202,-48 28,-41 10,-98 64,-124 52,-25 121,-127 168,-173 9,-8 126,-174 134,-188 19,-33 80,-50 122,-28 56,30 114,-32 139,-76 41,-71 165,-41 237,-159 17,-29 121,-95 153,-101l0 0z"/>
  <path class="fil0 str0" d="M9320 8889c-58,103 -25,100 -2,187 25,95 66,85 122,159 26,35 81,178 46,211 -51,49 -130,56 -121,170 1,18 10,40 2,57 -29,51 -40,55 -46,101 -4,34 -11,52 -24,84 -1,3 -5,19 -7,24l4 -12c137,88 117,33 242,-13 112,-41 146,23 264,-58 54,-37 83,-58 136,-100 5,-4 16,-10 23,-11l0 0c75,-34 75,-34 147,-26 76,9 153,23 202,-48 28,-41 10,-98 64,-124 52,-25 121,-127 168,-173 9,-8 126,-174 134,-188 19,-33 80,-50 122,-28 56,30 114,-32 139,-76 41,-71 165,-41 237,-159 17,-29 121,-95 153,-101l0 0c-23,-28 -36,-43 -20,-78 8,-18 69,-16 95,-28 46,-22 18,-44 4,-78 -6,-14 -19,-29 -26,-42l-23 -56 0 0 -73 -17c-23,-10 -40,-34 -55,-53 -24,-30 -13,-70 -40,-83 -53,-25 -37,-76 -55,-105 -46,-73 -63,42 -64,74 -2,107 -121,6 -79,153 6,21 41,90 -1,88 -27,-1 -83,28 -90,20 -7,-8 4,-109 7,-125 23,-123 -54,-89 -62,-125 -5,-24 -6,-26 -14,-48 -5,-14 -35,-52 -45,-62 -32,-32 -8,-50 -22,-63 -22,-21 -41,-15 -67,-1 -48,11 -105,33 -148,57 -86,47 -94,7 -142,22 -57,17 -30,103 -114,109 -49,4 -49,56 -70,91 -28,47 -66,31 -66,83 0,42 37,72 75,71 35,-1 32,10 47,14 78,20 58,-126 101,-134 34,-7 45,23 53,49 6,18 38,51 33,61 -34,68 -105,10 -102,116 1,26 -7,50 -8,71 -3,52 -9,66 -53,100 -28,22 -45,3 -50,-26 -8,-43 -35,-58 -38,-79 -6,-63 -1,-46 -58,-95l-6 2c-29,14 -75,-7 -95,-27 -23,-24 -10,-13 -41,-27 -73,-32 -74,28 -132,29 -74,2 -9,-88 -54,-96 -58,-9 -89,34 -106,82 -17,49 -86,70 -98,31 -10,-33 -11,-30 -29,-56 -12,-17 -30,-115 -52,-101 -43,27 -10,84 -57,100 -28,10 -25,50 -7,67 30,29 18,24 27,54 13,43 -28,55 -63,48 -42,-9 -13,-16 -77,-17l0 0c-18,35 -15,28 -4,54 4,11 30,37 36,61 6,27 -9,25 -33,35l-44 2 0 0z"/>
  <path class="fil0 str0" d="M11995 14236l146 -12c78,0 61,5 115,9 66,5 118,-57 190,-49 17,2 148,7 159,3 103,-39 45,-116 119,-107 75,9 -10,41 84,124 20,18 11,90 115,82 31,-2 23,-45 56,32 10,25 71,71 107,71 61,0 113,-56 209,-53 40,1 41,-12 87,2 56,16 56,-96 214,-90 32,1 201,-66 157,-9 -11,14 -66,112 -68,130 -8,65 55,69 73,95 10,14 28,29 31,55 12,92 90,66 158,76 85,12 163,-9 253,19 51,16 62,46 137,70 22,7 150,18 166,28l0 0c1,-9 4,-20 12,-38 17,-38 -31,-21 -32,-62 -1,-34 40,-50 45,-112 5,-60 64,-23 101,-36 78,-28 50,-63 79,-133 29,-72 21,-44 71,-93 72,-70 68,-135 68,-229 0,-10 1,-14 -1,-24 5,-45 18,-116 50,-150 65,-69 65,-98 106,-172 12,-22 60,-40 80,-62 36,-39 60,-54 106,-79 1,0 11,-9 12,-9l0 0c5,-6 68,-64 63,-76 -12,-26 -59,-82 -51,-109 15,-49 67,-96 72,-115 0,-47 -16,-115 -37,-157 -11,-23 -16,-66 -36,-93 -25,-33 -21,-31 -66,-44 -40,-11 -92,-27 -116,-64 -23,-35 -40,-74 -63,-109 -22,-33 -39,-78 -74,-104 -20,-15 -42,-44 -69,-65 -13,-9 -34,-28 -39,-46l0 1c-74,14 -108,-4 -164,-7 -46,-2 -57,51 -99,-7 -35,-49 -95,-12 -141,-25 -114,-32 -76,-118 -115,-160 -28,-30 -36,-54 -27,-95 5,-24 29,-64 25,-78 -11,-36 -29,-28 -42,-82 -8,-34 -119,-4 -117,-73 1,-41 -22,-78 -15,-110 9,-37 6,-38 37,-66l0 0c-6,-9 -15,-14 -18,-30 -17,-77 20,-48 -35,-130 -12,-1 -39,-7 -49,-13 -21,-14 -22,-6 -36,-10 -27,-8 -58,5 -66,2 -37,-12 -8,-36 -74,-34 -29,1 -93,-89 -108,-110l-2 2c-1,1 -111,72 -98,24 10,-35 -11,-127 -62,-105 -24,10 -2,154 -57,139 -28,-8 -34,-107 -74,-69 -61,58 -52,-22 -88,109 -7,25 -27,39 -52,35 -11,-2 -63,28 -73,37 -22,18 -41,26 -69,22 -50,-8 -129,30 -154,75 -12,21 -27,46 -39,67 -9,41 -22,65 -52,93 -23,21 -79,19 -80,85 -1,33 54,26 -29,107 -51,50 -3,71 -62,124 -19,17 -51,75 -84,75 -56,-1 -34,-43 -109,-2 -15,8 -24,22 -46,34 -32,18 -46,19 -83,31l0 0c-11,54 -7,76 -4,130 -28,28 -59,52 -90,75 -32,23 -62,45 -95,67 -23,16 -77,58 -93,78 -16,20 -39,61 4,63 30,1 72,12 72,48 0,54 -17,124 50,142 24,6 77,-15 120,-10 56,5 97,-1 136,53 29,40 33,86 74,116 32,9 62,15 94,16 50,2 22,51 41,93 16,37 21,59 60,68 83,19 71,9 56,92 -4,21 15,72 15,108 0,44 -32,35 -39,89 -6,47 -53,90 32,115 24,7 35,23 50,41 0,25 2,54 -27,66 -27,11 -38,-23 -89,1 -20,10 -70,28 -92,23 -35,-9 -98,10 -127,31 -57,42 -24,25 -92,50 -50,18 -59,78 -92,113 -38,40 -61,86 -100,120l-4 3c-50,4 -48,-9 -85,-10 -23,0 -112,-6 -129,-13 -37,-14 -40,-19 -72,-37 -43,-24 -9,25 -4,43 6,20 14,61 1,79l0 0z"/>
  <path class="fil0 str0" d="M12968 9935c50,-87 50,-62 18,-139 -19,-46 23,-35 43,-93 12,-35 44,-100 47,-138 4,-42 103,59 137,46 62,-24 -24,-56 130,-121 33,-14 85,-89 9,-121 -54,-23 8,-76 -42,-93 -25,-8 -89,-90 58,-90 106,0 87,4 163,-75 14,-15 47,12 97,-7 22,-8 109,-59 113,-57 6,4 20,41 66,46 115,-21 65,-26 130,-60 11,-6 65,-48 67,-63 4,-30 49,-121 35,-121 -16,-1 -65,45 -110,48 -65,4 -27,-62 -51,-80 -16,-12 -27,25 -78,29 -29,3 -208,31 -147,-46 34,-43 90,-29 118,-130 17,-59 91,-77 145,-39 66,47 130,-5 190,-34 12,-6 6,-7 21,-11 5,-2 176,-96 176,-57 0,36 -34,56 6,106 12,15 24,143 50,37 18,-74 74,-11 116,13 9,5 83,76 82,23 0,-3 -34,-46 -43,-68 -10,-27 -52,-106 -15,-115 37,-9 36,-17 85,-15 22,1 39,-15 60,-19l5 -1 0 0c74,-23 158,-38 235,-28 35,4 26,11 75,1 73,-15 71,69 152,35 25,-10 43,61 142,-41 26,-27 51,-35 83,-72 22,-26 23,44 87,38 48,-5 53,-33 137,-31 32,1 117,-21 103,28 -8,27 34,190 114,31 17,-34 68,-62 106,-62 62,-11 103,-15 161,4 146,49 159,40 117,203 -18,71 107,71 115,172 2,22 73,120 75,186 0,11 12,89 19,101 48,89 -36,171 11,191 31,13 129,-81 147,-105 31,-41 62,-38 63,16 2,77 128,58 126,129 -2,57 4,37 -10,102 0,1 -4,47 -4,48 19,121 -21,110 -54,211 -24,73 -7,39 -14,104 -6,63 -78,108 -73,218 1,17 -46,75 -48,130 -4,80 8,110 -30,189 -15,32 -8,46 -32,84 -17,26 -88,154 -91,175 -4,25 2,31 1,51 37,93 21,67 36,132 17,72 24,36 -27,110 -12,18 -10,66 -22,85l0 0c-18,-5 -52,21 -61,29 -57,51 -115,61 -167,109 -3,3 -29,16 -33,18 -29,13 -51,39 -47,73 10,77 9,86 -15,157 -11,34 -14,25 -27,49 -11,21 -60,60 -80,66 -24,7 -32,25 -49,42 -53,54 -90,124 -150,167 -38,27 -57,27 -86,70 -47,50 -110,98 -109,173 1,60 -46,58 -73,75 -9,6 -41,56 -50,70 -8,11 -58,53 -70,60 -63,38 -55,28 -110,85 -35,36 -72,24 -102,36 -33,13 -41,48 -52,74 -31,70 -72,32 -100,79 -26,44 -21,38 -65,77 -21,21 -79,52 -108,71 -12,8 -14,18 -12,28l0 1c-74,14 -108,-4 -164,-7 -46,-2 -57,51 -99,-7 -35,-49 -95,-12 -141,-25 -114,-32 -76,-118 -115,-160 -28,-30 -36,-54 -27,-95 5,-24 29,-64 25,-78 -11,-36 -29,-28 -42,-82 -8,-34 -119,-4 -117,-73 1,-41 -22,-78 -15,-110 9,-37 6,-38 37,-66l0 0c72,-8 62,4 116,-20 63,-28 44,-4 101,1 47,4 100,-26 78,-79 -16,-39 -12,-36 18,-71 3,-3 4,-2 8,-7 91,-105 28,-82 20,-181 -2,-20 -14,-7 -11,-71 1,-12 -29,-98 -43,-115 -19,-24 -53,-135 -98,-132 -28,2 -60,-22 -66,-55 -9,-50 -15,-12 -6,-80 6,-51 -70,-92 -79,-165 -3,-27 -45,-130 -58,-159 -47,-103 -141,-29 -172,-108 -18,-44 107,-141 -8,-133 -28,2 -140,-24 -151,-65 -25,-85 -73,-56 -131,-123 -53,-60 -304,-39 -260,-95 32,-41 94,-75 66,-128 -30,-69 -41,-113 -123,-89 -55,16 -93,-45 -146,-29 -5,2 -51,1 -82,10 -16,5 -47,8 -64,10l-64 -13 0 0z"/>
  <path class="fil0 str0" d="M12968 9935c-46,-6 -40,-20 -54,6 -10,19 -11,33 -44,32 -65,-2 -12,40 -55,39 -64,-1 -36,67 -39,103 -4,53 -72,53 -110,47 -49,-8 -121,63 -69,75 9,2 63,32 60,41 -2,5 -64,59 -14,69 63,13 66,26 90,78l16 79 0 0c0,47 -9,36 -9,63 -1,16 68,66 67,104 -2,61 -31,50 -11,123 7,28 5,153 63,105 48,-40 50,1 43,41 -10,61 43,101 101,104 92,4 87,90 136,143l3 4c42,36 64,46 120,47 24,0 181,-26 203,-33 28,-10 93,-35 116,-8 31,37 47,56 74,98 25,39 22,44 59,76 18,16 50,47 49,73 -1,25 -4,35 -21,55l-3 4 2 -2c15,21 79,111 108,110 66,-2 36,22 74,34 8,3 39,-10 66,-2 14,4 15,-4 36,10 10,6 37,12 49,13 55,82 18,53 35,130 3,16 12,21 18,30l0 0c72,-8 62,4 116,-20 63,-28 44,-4 101,1 47,4 100,-26 78,-79 -16,-39 -12,-36 18,-71 3,-3 4,-2 8,-7 91,-105 28,-82 20,-181 -2,-20 -14,-7 -11,-71 1,-12 -29,-98 -43,-115 -19,-24 -53,-135 -98,-132 -28,2 -60,-22 -66,-55 -9,-50 -15,-12 -6,-80 6,-51 -70,-92 -79,-165 -3,-27 -45,-130 -58,-159 -47,-103 -141,-29 -172,-108 -18,-44 107,-141 -8,-133 -28,2 -140,-24 -151,-65 -25,-85 -73,-56 -131,-123 -53,-60 -304,-39 -260,-95 32,-41 94,-75 66,-128 -30,-69 -41,-113 -123,-89 -55,16 -93,-45 -146,-29 -5,2 -51,1 -82,10 -16,5 -47,8 -64,10l-64 -13 0 0z"/>
  <path class="fil0 str0" d="M11182 10444l55 -42c55,9 34,10 70,21 29,9 29,-10 59,-6 39,5 46,-21 67,-45 19,-21 32,-54 58,-72l29 -10 0 0c59,20 39,22 78,49 40,27 81,-48 108,-50 25,-2 83,-21 83,-55 -1,-44 40,-101 90,-86 31,9 90,-30 70,16 -4,10 -5,27 -13,44 -19,43 -14,69 3,111 16,40 53,15 74,-3 11,-9 69,-54 80,-32 11,22 5,31 26,61 30,43 32,31 65,63 37,36 4,62 -9,101 -1,4 -1,4 -3,8 -6,31 -9,30 -15,53 -8,33 50,57 -8,88 -4,2 -48,32 -45,41 12,29 -25,60 -42,89 -24,41 -25,47 17,66 28,13 70,4 96,-14 64,-45 90,-53 166,-68 70,-13 69,-136 142,-130 25,2 73,28 106,-4 26,-25 -2,-64 19,-110 22,-50 95,-26 139,-26l0 0c0,47 -9,36 -9,63 -1,16 68,66 67,104 -2,61 -31,50 -11,123 7,28 5,153 63,105 48,-40 50,1 43,41 -10,61 43,101 101,104 92,4 87,90 136,143l3 4c42,36 64,46 120,47 24,0 181,-26 203,-33 28,-10 93,-35 116,-8 31,37 47,56 74,98 25,39 22,44 59,76 18,16 50,47 49,73 -1,25 -4,35 -21,55l-3 4 0 0c-1,1 -111,72 -98,24 10,-35 -11,-127 -62,-105 -24,10 -2,154 -57,139 -28,-8 -34,-107 -74,-69 -61,58 -52,-22 -88,109 -7,25 -27,39 -52,35 -11,-2 -63,28 -73,37 -22,18 -41,26 -69,22 -50,-8 -129,30 -154,75 -12,21 -27,46 -39,67 -9,41 -22,65 -52,93 -23,21 -79,19 -80,85 -1,33 54,26 -29,107 -51,50 -3,71 -62,124 -19,17 -51,75 -84,75 -56,-1 -34,-43 -109,-2 -15,8 -24,22 -46,34 -32,18 -46,19 -83,31l0 0c9,-44 -16,-41 -42,-19 -46,39 -88,70 -134,107 -50,42 -102,127 -126,31 -11,-44 -19,-83 -35,-126 -11,-29 -20,-97 -39,-112 -73,-61 -98,-30 -159,-64 -84,-46 -72,-75 -112,-143 -49,-84 7,-93 -122,-85 -15,-1 -26,-11 -34,-23 -18,-28 -3,-99 7,-130 17,-55 -36,-51 -78,-61 -45,-11 -31,-16 -56,-35 -41,-29 -113,22 -155,43 -39,19 -80,49 -117,64 -80,33 -173,61 -260,51 -40,-5 -86,-29 -113,0 -26,28 -44,47 -73,73 -20,19 -58,84 -76,86 -42,7 -25,-83 -37,-113 -13,-33 -27,-74 -10,-109 33,-69 42,-61 22,-147 -1,-16 -3,-34 -5,-50 -8,-60 7,-98 3,-149 -3,-29 18,-69 37,-90 55,-62 26,-40 35,-111 7,-57 45,-66 81,-93 11,-8 71,-72 62,-80 -37,-28 -79,-6 -114,-33 -30,-24 -78,34 -92,-8 -11,-34 6,-59 -18,-121 3,-4 16,-29 20,-36 26,-47 125,-130 175,-160 41,-24 55,-49 88,-70 53,-35 144,-118 191,-165 15,-16 58,-52 44,-62l0 0z"/>
  <path class="fil0 str0" d="M6602 9011l113 79c41,9 35,2 71,-4 59,-9 67,-3 107,37 22,23 5,87 -22,106 -53,39 -8,74 -110,123 -26,13 -33,46 -30,72 2,21 37,-33 55,23 27,83 57,-21 85,-21 26,0 34,19 65,-21 26,-34 23,-50 66,-82 45,-33 74,-29 102,18 22,37 4,69 43,109 27,29 34,63 54,91l2 4c13,31 25,63 46,88 31,35 110,47 154,52l0 0c2,28 71,43 27,76 -28,21 -146,63 -53,120 93,56 35,91 38,118l-8 55 0 0c-22,5 -121,11 -141,3 -24,-10 -115,20 -140,33 -36,18 -158,39 -193,21 -36,-19 -85,12 -100,46 -19,42 -152,133 -187,120 -47,-18 -78,32 -118,45 -50,16 -67,22 -124,47l0 0c-52,7 -262,52 -284,-20 -28,-90 -183,-58 -238,-88 -44,-23 -130,-38 -179,-52 -128,-38 -145,18 -193,-114 -34,-92 -32,-83 -79,-175l0 0 -13 -104c16,-28 38,-60 65,-77 52,-34 158,19 158,-102 0,-42 55,-104 92,-104 61,0 67,9 126,-10 100,-32 58,-122 74,-160 49,-119 130,19 161,-65 19,-52 -12,-86 -24,-118 -5,-15 17,-108 24,-128 18,-50 -110,-19 -133,-6 -39,22 -40,-49 11,-100 30,-30 -20,-52 -6,-86 15,-37 -29,-79 33,-79 102,0 84,-52 62,-128l0 0c-42,-22 -34,-27 -58,-60 -22,-30 10,-63 48,-53 14,3 69,5 71,7l30 -23 0 0c14,13 33,35 56,34 24,-1 99,-75 118,-74 27,1 -17,66 13,81 15,8 47,-42 51,-59 19,-82 32,-22 73,-54 51,-39 47,-12 108,-22 44,-7 10,16 -4,49 -10,23 -28,52 -30,75 -2,30 3,45 1,73 -3,39 -24,67 -24,118 -37,117 -39,60 -98,117 -38,36 74,28 45,99 -12,29 88,114 109,137 15,15 66,-24 30,-91l0 0z"/>
  <path class="fil0 str0" d="M9320 8889c-58,103 -25,100 -2,187 25,95 66,85 122,159 26,35 81,178 46,211 -51,49 -130,56 -121,170 1,18 10,40 2,57 -29,51 -40,55 -46,101 -4,34 -11,52 -24,84 -1,3 -5,19 -7,24l0 0c-48,25 -168,103 -201,20 -8,-19 -58,-79 -74,-87 -22,-11 -85,107 -90,134 -4,21 -34,40 -40,102 -1,16 -27,88 -64,73 -35,-15 -74,48 -126,52 -64,5 -160,81 -82,136 78,55 -59,146 63,135 43,-4 131,8 171,22 37,13 89,48 138,65 11,4 163,91 171,97l0 0c3,33 7,84 12,115 10,58 -30,124 -30,166 0,42 -22,60 -58,79 -30,16 -66,51 -84,58 -85,32 -96,-39 -177,-13 -94,30 4,-133 15,-156 23,-49 19,-59 -3,-102 -37,-74 -7,-90 -13,-116 -4,-18 -119,-8 -150,-18 -32,-10 -33,-63 -65,26 -21,60 -29,75 -60,130 -37,65 -34,60 -106,91 -14,22 -17,62 -15,87 4,46 -46,50 -54,76 -13,46 66,3 48,33 -6,9 -43,44 -56,59 -28,32 -80,42 -82,61 -3,34 52,45 75,44 20,0 104,-31 101,-17 -8,37 -130,45 -161,44 -78,-1 -113,72 -174,53 -81,-26 -62,-62 -169,-6 -84,45 -158,-10 -199,61 -51,91 -93,189 -142,281l-5 9c-14,26 -33,54 -65,60 -52,9 -64,-7 -113,41 -75,73 -139,4 -158,-73 -29,-116 -21,-135 21,-245 82,-218 73,-149 -63,-132 -53,7 -83,-21 -118,12 -36,34 -91,58 -140,67 -19,3 -125,40 -138,28 -33,-31 42,-93 48,-122 4,-17 -42,2 -52,5 -40,11 -118,86 -154,114 -16,13 -46,11 -51,-3 -5,-14 28,-97 31,-110 16,-24 20,-30 32,-57 8,-18 38,-68 32,-83l0 0c0,-22 16,-75 17,-85 3,-40 27,-107 29,-130 1,-17 75,-133 83,-141 24,-25 51,-117 66,-146 31,-59 -53,-78 -96,-100 -38,-19 -69,-18 -106,-28 -50,-13 -54,-18 -97,-38 -107,-50 -125,-49 -205,-145l0 0c56,-25 74,-31 124,-47 40,-13 71,-63 118,-45 35,13 168,-78 187,-120 15,-34 63,-66 100,-46 35,19 157,-3 193,-21 24,-12 116,-42 140,-33 20,8 119,2 141,-3l0 0c91,41 134,68 240,42 14,-3 123,-18 138,-18 76,0 57,139 201,121 14,-2 71,-21 77,-20 6,-49 7,-141 0,-194 -9,-74 26,-64 -4,-176 -6,-23 -6,-80 35,-76 97,12 80,-90 104,-166 25,-76 16,-96 102,-99 35,-1 33,2 61,-33 11,-13 77,-122 77,-135 -3,-60 27,-61 47,-119 12,-37 47,-29 57,-60 1,-2 13,-21 15,-24 22,-120 -12,-63 -39,-137 -13,-36 52,-85 48,-140 -5,-66 -10,-43 -26,-97 -13,-42 58,-32 92,-47 10,-5 17,-7 28,-7l0 0c13,13 63,59 88,73 49,27 -34,77 21,129 36,34 -55,119 79,106 35,-3 95,-15 125,-3 34,14 80,-93 110,-110 16,-9 69,-100 107,-30 8,14 73,0 124,51l0 0z"/>
  <path class="fil0 str0" d="M7407 9687c2,28 71,43 27,76 -28,21 -146,63 -53,120 93,56 35,91 38,118l-8 55 0 0c91,41 134,68 240,42 14,-3 123,-18 138,-18 76,0 57,139 201,121 14,-2 71,-21 77,-20 6,-49 7,-141 0,-194 -9,-74 26,-64 -4,-176 -6,-23 -6,-80 35,-76 97,12 80,-90 104,-166 25,-76 16,-96 102,-99 35,-1 33,2 61,-33 11,-13 77,-122 77,-135 -3,-60 27,-61 47,-119 12,-37 47,-29 57,-60 1,-2 13,-21 15,-24 22,-120 -12,-63 -39,-137 -13,-36 52,-85 48,-140 -5,-66 -10,-43 -26,-97 -13,-42 58,-32 92,-47 10,-5 17,-7 28,-7l0 0 19 -94c3,-34 -21,-54 -53,-58 -84,-10 -167,20 -232,73 -156,127 -55,-95 -171,-64 -153,40 -87,41 -87,106 -73,0 -192,28 -265,40 -24,0 -28,40 -35,57 -11,29 -75,60 -105,73 -135,60 -66,-53 -118,-60 -62,-8 8,-55 21,-75 54,-76 -68,-51 -78,-39 -24,27 -54,49 -84,70l0 0c94,98 57,90 3,179 -27,45 -43,100 -43,154 0,27 6,169 15,185 59,118 145,-14 131,99 -4,33 -63,124 -43,174 9,21 -15,66 -24,84 -40,84 -30,42 -85,77 -20,13 -26,23 -26,32l0 0z"/>
  <path class="fil0 str0" d="M6602 9011l113 79c41,9 35,2 71,-4 59,-9 67,-3 107,37 22,23 5,87 -22,106 -53,39 -8,74 -110,123 -26,13 -33,46 -30,72 2,21 37,-33 55,23 27,83 57,-21 85,-21 26,0 34,19 65,-21 26,-34 23,-50 66,-82 45,-33 74,-29 102,18 22,37 4,69 43,109 27,29 34,63 54,91l2 4c13,31 25,63 46,88 31,35 110,47 154,52l0 0c-1,-9 6,-19 26,-32 56,-35 46,7 85,-77 9,-18 33,-62 24,-84 -21,-50 39,-142 43,-174 14,-113 -72,19 -131,-99 -8,-17 -15,-158 -15,-185 0,-54 16,-110 43,-154 54,-89 91,-81 -3,-179l0 0c6,-7 6,-27 3,-35 -18,-47 105,-94 110,-135 7,-60 -88,-60 -119,-64l-3 -3c-30,-50 6,-89 -8,-109 -78,-116 -94,-13 -131,1 -48,19 -6,-48 -88,-36 -73,11 -28,-81 -56,-92 -61,-25 -89,-81 -131,-66 -77,27 -68,79 -37,142 8,17 101,73 33,121 -57,40 -18,98 -84,124 -171,67 -54,98 -105,145 -87,79 -106,-45 -151,-33 -36,10 -80,-4 -91,35 -4,15 13,145 20,160 9,22 -71,88 -37,152l0 0z"/>
  <path class="fil0 str0" d="M6602 9011c-34,-64 46,-130 37,-152 -7,-16 -24,-146 -20,-160 11,-39 55,-25 91,-35 46,-13 64,112 151,33 51,-47 -66,-78 105,-145 66,-26 27,-84 84,-124 68,-48 -24,-104 -33,-121 -31,-63 -40,-115 37,-142 42,-15 70,41 131,66 28,12 -17,103 56,92 82,-12 40,55 88,36 37,-15 53,-117 131,-1 13,20 -23,59 8,109l3 3c32,4 127,4 119,64 -5,41 -128,88 -110,135 3,8 3,28 -3,35l0 0c30,-21 61,-43 84,-70 10,-12 132,-37 78,39 -14,19 -84,67 -21,75 52,6 -17,120 118,60 29,-13 94,-43 105,-73 6,-18 10,-57 35,-57 72,-12 191,-40 265,-40 0,-66 -66,-67 87,-106 117,-30 16,192 171,64 65,-53 147,-83 232,-73 32,4 56,24 53,58l-19 94 0 0c13,13 63,59 88,73 49,27 -34,77 21,129 36,34 -55,119 79,106 35,-3 95,-15 125,-3 34,14 80,-93 110,-110 16,-9 69,-100 107,-30 8,14 73,0 124,51l0 0 44 -2c24,-11 39,-8 33,-35 -6,-24 -32,-50 -36,-61 -11,-27 -14,-20 4,-54l0 0c-8,-31 -53,-63 -53,-130 0,-38 -24,-96 -29,-125 -4,-26 -32,-55 -55,-65 -38,-17 -40,-82 -30,-112 20,-60 15,-47 -12,-83 -19,-25 -8,-166 1,-197 10,-35 -1,-102 -17,-134 -34,-63 -39,-111 -60,-183l-20 -155 0 0c-91,27 -180,37 -280,-16 -32,-17 -152,49 -203,62 -126,31 -160,35 -296,42 -36,-12 -131,-102 -182,-128 -68,-34 -79,-17 -119,37 -45,61 -151,130 -228,130 -118,0 -108,-14 -201,-66 -50,-27 -42,-14 -75,-57 -8,-10 -136,0 -156,2 -78,4 -155,17 -231,21l-15 0c-74,0 -122,-62 -184,3 -35,35 -87,111 -140,112 -42,1 -123,-35 -194,-34 -48,0 -98,2 -147,5l0 0 -68 111c-34,82 -53,100 -68,185 -10,57 -69,72 -66,184 0,1 -17,140 -17,141 -9,24 -6,154 -20,170 -14,16 -37,65 -45,72l0 0c14,13 33,35 56,34 24,-1 99,-75 118,-74 27,1 -17,66 13,81 15,8 47,-42 51,-59 19,-82 32,-22 73,-54 51,-39 47,-12 108,-22 44,-7 10,16 -4,49 -10,23 -28,52 -30,75 -2,30 3,45 1,73 -3,39 -24,67 -24,118 -37,117 -39,60 -98,117 -38,36 74,28 45,99 -12,29 88,114 109,137 15,15 66,-24 30,-91l0 0z"/>
  <path class="fil0 str0" d="M4526 9006c8,83 2,129 58,194 4,5 7,29 17,42l18 68 0 0c-23,10 -63,23 -88,24 -60,4 -57,65 -33,104 37,62 -109,75 -59,190 28,65 -69,51 -96,35 -43,-25 -119,24 -146,58 -74,92 -84,19 -146,-35 -25,-22 -8,-83 6,-100 46,-55 -40,-125 -94,-133 -82,-13 -11,-98 -86,-66 -128,55 -133,9 -173,16 -62,12 -70,-13 -84,-13 -96,3 -106,12 -96,123 2,15 8,23 13,35 16,39 31,41 41,58 54,83 -56,78 -87,92 -72,33 43,82 58,94 52,41 25,49 24,90 -2,70 -81,109 -138,134 -46,20 -147,106 -153,108 -38,16 -84,91 -123,110 -21,10 -137,12 -150,7 -28,-11 -122,-13 -148,-3 -127,49 -70,-31 -119,-38 -80,-12 -74,-46 -88,-128 1,-17 -1,-104 -6,-117 -17,-41 -28,-130 -11,-170 15,-36 6,-54 6,-88 0,-62 32,-143 88,-176 33,-20 22,-105 0,-117 -44,-24 -80,-74 -110,-110l-75 -69 0 0c38,-13 55,-57 26,-57 -39,1 -50,37 -28,-44 8,-9 15,-15 23,-22 12,-13 46,-38 51,-45 16,-21 12,-52 17,-69 6,-21 -11,-85 -20,-102 -29,-58 -22,-105 -10,-165 8,-41 -2,-67 14,-114 0,-8 -3,-28 -2,-33 3,-43 18,-58 38,-90 17,-29 32,-33 46,-61 17,-34 -24,-104 -48,-114 -29,-12 -40,-46 -22,-73 22,-34 21,-9 36,-55 6,-19 -3,-52 -9,-71 -14,-42 -27,-81 -34,-125l0 0c13,-39 11,-57 11,-96 0,-31 51,-2 74,2 31,5 52,14 87,17 110,9 169,10 278,-16 68,-16 139,-17 208,-17 74,0 140,-39 215,-55 9,-2 21,-6 29,-7 82,-39 159,-50 243,-78 25,-8 12,-33 9,-61 -3,-30 -9,-30 -12,-46 -2,-12 25,-57 33,-76 14,-37 20,-58 31,-97 17,-59 71,-37 119,-37 30,0 56,2 88,1 108,-3 165,7 238,-64l0 0 40 216c14,34 32,69 35,105 10,105 74,222 66,322 -7,84 -66,41 -66,230 0,34 45,79 18,143 -13,32 -3,129 11,159 23,50 94,132 98,163 23,89 32,57 1,132 -5,13 29,51 32,75 2,20 15,84 20,104l0 0z"/>
  <path class="fil0 str0" d="M6062 8656c-42,-22 -34,-27 -58,-60 -22,-30 10,-63 48,-53 14,3 69,5 71,7l30 -23 0 0c8,-7 31,-56 45,-72 14,-16 11,-146 20,-170 0,-1 17,-140 17,-141 -3,-112 56,-127 66,-184 15,-85 34,-103 68,-185l68 -111 0 0c-93,6 -187,16 -277,29 -69,10 -119,6 -188,25 -64,9 -135,2 -197,9 -91,10 -229,16 -315,-20 -72,-30 -174,-63 -250,-74 -29,-4 -67,-18 -97,-27 -39,-12 -114,-71 -142,-101 -84,-89 -151,-111 -248,-175 -21,-16 -28,-15 -53,-38 -35,-33 -56,-40 -87,-66 -19,-15 -78,-12 -101,-10 -34,3 -61,0 -94,3 -51,4 -72,87 -94,113 -8,10 -16,18 -24,26l0 0 40 216c14,34 32,69 35,105 10,105 74,222 66,322 -7,84 -66,41 -66,230 0,34 45,79 18,143 -13,32 -3,129 11,159 23,50 94,132 98,163 23,89 32,57 1,132 -5,13 29,51 32,75 2,20 15,84 20,104l0 0c103,-18 80,-27 153,-46 31,-8 88,-54 72,-10 -21,56 -28,82 -23,143 6,82 103,67 113,-59 4,-49 44,-107 46,-144 2,-38 50,-135 96,-81 27,32 121,31 155,-14 21,-28 93,-96 127,-60 22,24 1,28 38,65 45,45 179,19 217,55 4,3 17,8 22,9 50,54 36,45 66,86 35,48 117,3 89,-62 -15,-36 33,-67 66,-64 30,3 43,-39 25,-71 -24,-43 11,-67 46,-80 13,-5 71,5 88,19 23,19 104,-29 142,-36l0 0z"/>
  <path class="fil0 str0" d="M4526 9006c8,83 2,129 58,194 4,5 7,29 17,42l18 68 0 0c76,75 60,85 108,164 22,36 58,147 7,173 -45,23 -70,115 -92,164 -33,72 -122,69 -167,134 -3,4 -16,16 -17,18l0 0c109,37 58,27 137,33 92,7 40,96 173,33 72,-34 185,-71 265,-68 78,2 122,-74 240,-29 26,10 77,1 106,1l57 -11 0 0 -13 -104c16,-28 38,-60 65,-77 52,-34 158,19 158,-102 0,-42 55,-104 92,-104 61,0 67,9 126,-10 100,-32 58,-122 74,-160 49,-119 130,19 161,-65 19,-52 -12,-86 -24,-118 -5,-15 17,-108 24,-128 18,-50 -110,-19 -133,-6 -39,22 -40,-49 11,-100 30,-30 -20,-52 -6,-86 15,-37 -29,-79 33,-79 102,0 84,-52 62,-128l0 0c-38,7 -119,55 -142,36 -17,-14 -74,-24 -88,-19 -34,13 -70,37 -46,80 18,32 5,73 -25,71 -32,-3 -81,28 -66,64 28,65 -54,110 -89,62 -30,-41 -16,-32 -66,-86 -5,-1 -19,-5 -22,-9 -37,-36 -172,-10 -217,-55 -37,-37 -16,-42 -38,-65 -34,-36 -106,32 -127,60 -34,45 -127,46 -155,14 -46,-54 -94,43 -96,81 -2,37 -43,95 -46,144 -10,126 -106,140 -113,59 -5,-62 2,-87 23,-143 16,-44 -41,2 -72,10 -73,19 -50,29 -153,46l0 0z"/>
  <path class="fil0 str0" d="M2582 11162l89 25c111,-32 57,-32 108,-59 66,-36 92,6 115,-125 3,-18 9,-34 22,-47 23,-23 50,-20 84,-55 26,-27 49,-58 69,-91 33,-58 97,-62 156,-61 46,1 105,-38 135,-71 37,-41 51,-74 108,-79 21,-2 41,-60 130,-60l106 7 0 0c50,53 109,112 63,185 -29,47 -155,63 -158,66 -13,13 -27,58 -27,79l0 0c-40,15 -80,45 -99,67 -24,27 -70,56 -85,79 -26,39 -92,105 -132,127 -42,24 -94,10 -100,64 -4,36 7,30 -3,85 -16,21 -24,25 -44,40 -59,44 -68,26 -118,49 -102,47 -55,62 -65,144 -7,56 31,86 -8,127 -28,28 -23,52 -43,67 -52,37 -87,15 -129,21 -33,4 -1,44 10,55 49,52 54,94 108,138 9,6 20,17 26,26 22,38 23,59 33,99 4,18 32,63 44,76 37,38 105,59 150,108 35,38 -15,79 -50,91 -51,18 -34,18 -74,44 -31,20 -40,38 -78,44 -49,8 -60,19 -101,32 -21,6 -108,23 -118,27 -60,27 -24,64 -41,109 -11,29 -8,25 -9,53 -4,77 -17,70 -65,122l0 0c0,-11 4,-30 3,-34 -2,-40 6,-40 24,-84 0,-1 0,-3 0,-4 11,-16 -7,-58 -17,-71 -18,-23 -24,-58 -3,-81 23,-27 53,-74 65,-108 24,-64 18,-150 12,-218 -3,-34 -4,-35 -21,-72l-3 -7c-28,-48 -46,-87 -71,-135 -23,-45 -61,-226 -51,-275 17,-83 37,-66 12,-149 -9,-28 -8,-49 -13,-75 -5,-29 -5,-118 -5,-147 -3,-4 -2,-32 -2,-38 0,-52 38,-72 61,-109l0 0z"/>
  <path class="fil0 str0" d="M4618 9311c76,75 60,85 108,164 22,36 58,147 7,173 -45,23 -70,115 -92,164 -33,72 -122,69 -167,134 -3,4 -16,16 -17,18l0 0c-85,63 -71,51 -164,44 -57,-4 -61,-22 -136,-7 -142,28 -102,40 -169,155 -16,28 -132,80 -168,104 -42,29 -75,36 -82,104 -9,86 25,110 22,137 -2,15 -41,46 -58,46l0 0 -106 -7c-89,0 -109,58 -130,60 -57,5 -71,38 -108,79 -30,33 -89,72 -135,71 -60,-1 -123,3 -156,61 -19,33 -42,64 -69,91 -33,35 -61,32 -84,55 -13,13 -19,29 -22,47 -23,132 -49,90 -115,125 -51,27 3,27 -108,59l-89 -25 0 0c27,-44 79,-113 91,-162 18,-77 -17,-58 -68,-53 -28,3 -65,19 -85,14 -29,-8 -24,-34 -21,-57l4 -3c18,-28 44,-44 54,-62 23,-41 10,-64 -10,-102 -24,-44 -27,-50 -74,-67 -67,-24 -32,-84 -53,-106 -29,-30 -34,-64 -32,-104 2,-38 -1,-43 -29,-64 -28,-21 -29,-23 -29,-58 0,-20 -23,-35 -41,-40 -23,-7 -28,-36 -24,-56 14,-61 -6,-45 -20,-89 -9,-30 -72,-43 -99,-52l0 0c2,-2 2,-3 3,-5 14,-50 15,-57 -30,-77 -48,-22 -11,-77 17,-99 32,-25 -57,-46 -28,-63 21,-12 15,7 53,-21 2,-3 1,-4 1,-8 6,-32 -13,-42 -41,-59 -52,-31 -33,-74 21,-54 41,15 23,-11 24,-40 4,-71 -48,-74 -38,-105 11,-34 49,4 65,6 97,9 17,-62 34,-82 25,-30 46,25 74,-14 12,-17 50,-36 53,-58 5,-43 -28,-24 26,-67 26,-26 55,-50 96,-43 62,11 7,-63 69,-85l0 0 75 69c30,36 66,86 110,110 22,12 33,97 0,117 -56,33 -88,114 -88,176 0,35 9,52 -6,88 -17,40 -6,129 11,170 5,13 7,100 6,117 14,82 8,116 88,128 49,7 -8,87 119,38 26,-10 120,-8 148,3 12,5 129,3 150,-7 39,-19 85,-94 123,-110 6,-3 107,-88 153,-108 57,-25 136,-64 138,-134 1,-41 28,-50 -24,-90 -15,-12 -129,-61 -58,-94 31,-14 141,-9 87,-92 -11,-17 -26,-19 -41,-58 -5,-12 -10,-19 -13,-35 -9,-111 1,-120 96,-123 14,0 22,25 84,13 39,-7 45,39 173,-16 75,-33 5,53 86,66 54,8 139,78 94,133 -14,17 -31,78 -6,100 62,54 72,127 146,35 27,-34 103,-83 146,-58 27,16 125,31 96,-35 -50,-115 96,-128 59,-190 -24,-39 -27,-100 33,-104 25,-2 66,-14 88,-24l0 0z"/>
  <path class="fil0 str0" d="M4457 9963c-85,63 -71,51 -164,44 -57,-4 -61,-22 -136,-7 -142,28 -102,40 -169,155 -16,28 -132,80 -168,104 -42,29 -75,36 -82,104 -9,86 25,110 22,137 -2,15 -41,46 -58,46l0 0c50,53 109,112 63,185 -29,47 -155,63 -158,66 -13,13 -27,58 -27,79l0 0c39,-14 78,-14 101,21 68,108 123,-13 205,-13 54,0 37,18 117,3 60,-11 123,-17 184,-24l3 0c80,-45 165,-102 235,-161 52,-44 88,-33 120,21 38,64 101,48 149,5 19,-17 73,-67 97,-33 19,27 77,94 104,111 26,17 64,44 59,79 -9,63 -36,111 -42,184 -7,81 2,63 58,22 36,-26 65,-55 99,-82 29,-23 78,-101 107,-105 2,0 13,10 22,13 17,7 99,30 95,53 -4,21 -56,75 -32,123 16,31 54,-20 74,-35 4,-3 10,-7 13,-10 41,-41 80,-53 120,-89 25,-23 98,-50 135,-42 57,11 129,-54 116,29 -8,50 35,15 32,90 -1,22 27,36 45,43 28,11 45,-21 69,-37 64,-42 43,-50 73,-102 13,-22 39,-48 59,-19 35,50 82,26 137,23 34,-1 43,-8 84,-6 56,4 29,-6 84,17 67,27 139,-53 164,60 8,36 16,33 13,77 -7,96 38,84 117,86 17,0 114,-13 121,3l0 0c0,-22 16,-75 17,-85 3,-40 27,-107 29,-130 1,-17 75,-133 83,-141 24,-25 51,-117 66,-146 31,-59 -53,-78 -96,-100 -38,-19 -69,-18 -106,-28 -50,-13 -54,-18 -97,-38 -107,-50 -125,-49 -205,-145l0 0c-52,7 -262,52 -284,-20 -28,-90 -183,-58 -238,-88 -44,-23 -130,-38 -179,-52 -128,-38 -145,18 -193,-114 -34,-92 -32,-83 -79,-175l0 0 -57 11c-28,0 -79,9 -106,-1 -118,-45 -162,32 -240,29 -80,-2 -193,35 -265,68 -133,62 -81,-27 -173,-33 -79,-6 -28,4 -137,-33l0 0z"/>
  <path class="fil0 str0" d="M12175 15114c-17,54 -14,89 -62,126 -25,19 -86,90 -97,120 -17,48 -1,50 -7,84l-1 3c0,80 1,63 -44,124 -29,39 -18,80 -51,131 -28,44 -74,111 -53,165 30,77 25,173 17,254l-1 9c5,52 -3,63 26,101 35,44 -20,132 -18,191 1,20 -9,56 -4,80 2,8 7,85 7,94 -1,68 19,116 -1,191 -11,43 -23,82 -34,125l-1 4c-3,71 -25,105 -38,168 -7,34 -39,122 -58,151 -8,12 -24,51 -36,70 -15,25 -37,69 -56,89 -21,21 -77,93 -99,121l0 0 -396 1 0 0 -313 1 2 -7c22,-69 27,-102 63,-168 29,-55 51,-113 74,-171 39,-97 40,-84 44,-192l0 -8c-1,-55 -3,-118 -27,-169 -28,-62 18,-108 -36,-159 -55,-52 -50,-82 -80,-145l0 0c0,-2 1,-3 1,-5 23,-51 29,-85 29,-142 1,-9 1,-19 2,-29 3,-66 14,-124 19,-189 3,-36 21,-100 20,-126 -1,-42 27,-87 70,-94 30,-5 34,-3 64,-14 91,-33 31,-85 5,-132 -23,-40 4,-59 33,-93l2 -8c8,-42 12,-71 -29,-93 -48,-25 -49,-122 -49,-171 0,-84 8,-42 -26,-117 -26,-58 -100,-97 -75,-162 22,-57 19,-50 -3,-101 -9,-20 34,-24 46,-25 33,-4 52,-15 82,-21 27,-6 66,-29 84,-4 34,46 53,59 102,88 21,12 37,38 55,26 33,-24 37,-1 69,26 34,28 69,21 86,28 54,24 63,7 106,18 88,23 53,59 138,-3 22,-16 22,-21 48,-22 30,-1 44,-21 51,-46l0 0 115 25c86,10 56,13 139,-3 29,-6 60,-27 87,-5 2,2 6,7 9,7l0 0z"/>
  <path class="fil0 str0" d="M11826 15090l115 25c86,10 56,13 139,-3 29,-6 60,-27 87,-5 2,2 6,7 9,7l0 0c36,18 69,43 107,51 10,2 49,36 51,57 0,10 56,73 88,73 31,0 59,4 72,40 13,36 -52,73 -59,157 -2,29 -17,84 -16,118 1,25 -43,78 -33,176 7,74 46,59 39,148 -6,83 -19,66 57,119 24,17 -54,31 -35,107 113,138 123,108 260,58 7,-3 32,32 55,45 130,73 2,50 -2,148 0,9 36,99 42,110l0 0c4,-1 6,1 8,7 8,32 25,57 35,96 17,66 27,174 58,229 22,39 99,52 104,107 8,94 21,63 82,21 27,-19 62,-25 95,-26 60,3 51,8 94,-25 56,-43 38,61 162,3 46,-22 96,-22 145,-12 18,4 53,1 76,4l0 0c30,-10 69,-11 69,-46 0,-47 11,-33 -6,-88 -11,-35 47,-59 31,-129 -13,-58 -24,-84 16,-134 16,-20 39,-54 33,-80 -8,-36 19,-72 37,-102 9,-72 24,-11 89,-66 55,-46 18,-21 -10,-73 -23,-43 -31,-22 -4,-77 23,-47 -32,-89 0,-145 35,-60 54,-82 3,-144 -70,-85 4,-77 32,-144 19,-46 24,-41 22,-92 0,-6 1,-18 3,-24 -1,-59 14,-108 35,-162 14,-35 27,-91 70,-40 40,47 46,23 100,33 108,20 95,-46 112,-131 19,-93 -6,-53 62,-125 27,-29 46,-53 67,-87 18,-28 44,-66 34,-100 -8,-25 45,-52 16,-98 -12,-19 21,-72 35,-88 13,-51 -7,-50 -4,-76l0 0c-16,-10 -144,-21 -166,-28 -76,-23 -87,-54 -137,-70 -91,-28 -169,-6 -253,-19 -68,-10 -146,16 -158,-76 -3,-27 -21,-41 -31,-55 -17,-26 -80,-30 -73,-95 2,-17 57,-115 68,-130 44,-57 -125,10 -157,9 -158,-6 -158,106 -214,90 -46,-13 -47,0 -87,-2 -96,-3 -148,53 -209,53 -36,0 -97,-46 -107,-71 -32,-78 -25,-35 -56,-32 -104,8 -94,-64 -115,-82 -93,-82 -9,-114 -84,-124 -75,-9 -16,68 -119,107 -11,4 -142,-1 -159,-3 -71,-9 -124,53 -190,49 -53,-4 -37,-9 -115,-9l-146 12 0 0c-6,8 -16,12 -33,6 -86,-28 -156,-29 -173,76 -7,45 -155,165 -191,187l0 0c14,73 -1,169 16,233 6,22 98,9 103,21 11,26 -35,93 41,67 75,-25 61,8 70,73 2,17 1,32 5,53 2,12 4,65 4,78 -4,17 -6,40 -11,60l0 0z"/>
  <path class="fil0 str0" d="M12175 15114c36,18 69,43 107,51 10,2 49,36 51,57 0,10 56,73 88,73 31,0 59,4 72,40 13,36 -52,73 -59,157 -2,29 -17,84 -16,118 1,25 -43,78 -33,176 7,74 46,59 39,148 -6,83 -19,66 57,119 24,17 -54,31 -35,107 113,138 123,108 260,58 7,-3 32,32 55,45 130,73 2,50 -2,148 0,9 36,99 42,110l0 0c-14,2 -40,42 -43,47 -42,73 -73,128 -99,210 -13,40 -27,67 -41,103 -23,61 -57,125 -82,187 -64,161 -103,77 -178,107 -48,19 -61,27 -82,76l-1 3c-18,68 -2,118 -11,180 -3,20 3,42 -10,52 -23,20 -105,21 -147,40 -43,20 -103,30 -91,87 4,18 0,65 -2,85 -10,104 -65,75 -88,126 -14,32 -39,30 -70,37 -20,4 -66,53 -81,69 -61,70 -89,-33 -135,-55 -32,-16 -18,-66 -25,-99 -4,-17 -41,-37 -53,-46l1 -217 0 0c22,-28 78,-99 99,-121 19,-20 41,-64 56,-89 12,-20 28,-58 36,-70 19,-29 52,-117 58,-151 12,-63 35,-97 38,-168l1 -4c11,-43 23,-82 34,-125 20,-75 0,-123 1,-191 0,-9 -5,-87 -7,-94 -5,-24 4,-60 4,-80 -2,-59 53,-146 18,-191 -30,-38 -22,-49 -26,-101l1 -9c7,-80 12,-177 -17,-254 -21,-54 25,-121 53,-165 32,-51 21,-91 51,-131 45,-61 44,-44 44,-124l1 -3c6,-34 -10,-36 7,-84 11,-30 72,-101 97,-120 48,-37 45,-72 62,-126l0 0z"/>
  <path class="fil0 str0" d="M20033 6440c-8,52 -35,244 -32,295 4,64 -74,113 -132,117 -25,2 -76,107 -110,139 -26,25 -72,87 -20,109 44,19 34,-3 84,3 105,13 84,36 205,-2 66,-20 104,-81 157,-109 34,-18 201,-182 187,-68 -3,23 -5,100 -5,126l0 0c54,27 78,-28 135,35 20,23 14,72 77,70 24,-1 214,-78 240,-93 29,-17 64,-28 96,-43 29,-18 100,-70 122,-98 18,-23 33,-63 68,-61 46,2 48,-71 107,-92 14,-5 37,-17 51,-17 13,-5 24,-10 34,-14l0 0c68,-25 83,-16 167,-19 45,-2 147,-110 188,-140 36,-26 65,-53 104,-78 42,-27 88,-86 144,-75l0 0c-3,-3 -9,-104 -10,-112 -5,-44 -5,-39 0,-84 13,-102 -40,-115 -137,-121 -117,-7 -116,-54 -265,-27 -89,0 -119,106 -194,115 -34,4 -17,6 -40,16 -51,23 -60,84 -119,96 -23,5 -115,-1 -137,-9 -66,-27 -106,5 -143,3 -68,-3 -61,-77 -218,-39 -35,8 -80,-27 -93,-58 -12,-31 -21,-181 -21,-222 0,-38 -90,55 -112,68 -57,33 -138,128 -176,182 -51,72 -134,151 -202,208l0 0z"/>
  <path class="fil0 str0" d="M19196 6245c53,-77 51,-97 88,-171 36,-72 27,-190 138,-183 20,1 49,-5 64,-20 6,-6 65,-138 91,-88 37,69 43,-16 96,-2 44,12 -12,62 82,75 16,2 84,50 76,87 -17,73 -47,134 -38,210 6,50 -23,73 3,146 12,35 67,34 105,66 16,14 139,59 132,75l0 0c-8,52 -35,244 -32,295 4,64 -74,113 -132,117 -25,2 -76,107 -110,139 -26,25 -72,87 -20,109 44,19 34,-3 84,3 105,13 84,36 205,-2 66,-20 104,-81 157,-109 34,-18 201,-182 187,-68 -3,23 -5,100 -5,126l0 0c-42,-21 -84,21 -111,50 -48,51 -85,122 -136,173 -29,29 -49,73 -65,89 -30,29 -48,54 -76,85 -5,6 -6,49 -30,79 -32,38 -16,81 -66,91 -42,9 -27,2 -66,25 -32,19 -24,43 -50,62 -42,32 -44,-26 -72,24 -11,20 -98,111 -116,123 -54,38 -75,41 -137,55 -61,14 -75,22 -141,23 -60,1 -69,-69 -74,-35l0 0c-22,-18 -82,-38 -91,-45 -39,-27 -78,-25 -121,-58 -39,-29 -47,-84 -57,-90 -57,-31 4,-110 -33,-154 -31,-36 -21,6 -84,-88l-2 -7c-24,-86 44,-163 -47,-204 -51,-23 -57,-95 -36,-135 42,-78 -110,-55 -161,-60 -46,-4 -50,-19 -94,-57l0 0c9,-11 87,-64 101,-74 33,-23 80,-74 106,-88 96,-54 49,-119 116,-160 60,-36 58,-35 111,-79 55,-47 97,-95 132,-159 39,-71 82,-124 129,-191l0 0z"/>
  <path class="fil0 str0" d="M21609 4124c49,-57 50,-49 112,-70 54,-18 154,-1 198,-63 43,-61 81,-41 104,-137 9,-36 28,-80 58,-102 46,-33 54,-31 79,-82 20,-40 117,-65 138,-110 39,-85 -18,-58 96,-111 34,-16 40,-69 54,-90l0 0c41,-46 75,-53 118,-107 49,-62 48,-95 112,-149 44,-37 67,-42 125,-53 37,-7 89,-12 129,-18 92,-14 193,-15 286,-33 132,-25 268,-12 402,-21l13 -1 46 9c37,10 200,19 242,14 42,-5 55,3 91,3 34,0 15,53 6,70 -28,54 -50,127 -93,168 -39,37 -27,38 -48,73 -25,41 -68,70 -104,105 -37,33 -69,55 -102,92 -26,30 -61,50 -80,70 -31,34 -40,49 -78,79 -32,25 -54,61 -82,86 -95,83 -22,127 -70,162 -24,18 -61,33 -43,70 23,47 5,23 12,65 4,23 15,41 39,49 27,9 15,27 11,43 -7,28 -6,30 -19,65l1 3c18,63 21,33 49,70 44,61 -27,76 -19,130 13,90 126,52 128,92 3,65 -24,52 36,93 28,19 27,20 66,21 18,7 24,14 38,26 24,20 55,19 63,49 16,65 -35,86 7,167 11,22 -27,96 -39,116 -21,35 -37,83 -56,111 -63,91 -19,43 7,82 24,36 72,-51 95,-52 47,-1 9,112 26,110 15,-1 53,-95 92,-119 20,-12 76,-19 96,-1 28,25 68,23 92,44 16,14 41,18 48,33 12,27 38,48 39,73 3,70 36,53 44,87 9,36 0,75 -28,101 -20,19 -44,32 -69,55 -16,10 -25,22 -37,34 -37,37 -72,86 -115,110 -62,35 -42,9 -102,65 -31,29 -33,46 -57,73 -34,39 -89,12 -103,-27 -5,-14 -27,-28 -29,-42 -10,-57 -101,44 -125,8 -23,-36 -33,-2 -68,7 -42,10 -57,13 -99,29 -45,18 -61,15 -109,41 -36,12 -71,21 -107,35 -101,38 -212,61 -317,86 -39,9 -133,40 -152,-16 -26,-75 -63,-67 -102,-111 -43,-48 -149,8 -174,48 -8,13 -17,24 -26,33l0 0c-27,-25 -79,-64 -103,-87 -61,-61 -116,-94 -36,-182 35,-38 18,-33 18,-64 0,-17 -31,-59 2,-109 41,-62 -92,-89 -131,-78 -52,15 -51,-16 -101,-34 -41,-15 -86,1 -106,-19 -41,-42 -56,-7 -99,-17 -83,-21 -73,-20 -135,-66 -78,-59 -203,33 -201,-32 4,-121 -97,-30 -43,-173 9,-24 -14,-128 10,-136 31,-10 38,-8 79,-19 0,-1 8,-19 9,-20 25,-35 6,-52 42,-109 31,-49 10,-48 8,-76 -4,-52 53,-67 84,-87 24,-15 19,-144 13,-171 -25,-106 -51,-147 -57,-267l0 0z"/>
  <path class="fil0 str0" d="M19087 6125l109 120 0 0c53,-77 51,-97 88,-171 36,-72 27,-190 138,-183 20,1 49,-5 64,-20 6,-6 65,-138 91,-88 37,69 43,-16 96,-2 44,12 -12,62 82,75 16,2 84,50 76,87 -17,73 -47,134 -38,210 6,50 -23,73 3,146 12,35 67,34 105,66 16,14 139,59 132,75l0 0c67,-57 151,-136 202,-208 38,-54 120,-149 176,-182 22,-13 112,-105 112,-68 0,41 8,191 21,222 12,32 58,67 93,58 157,-38 150,36 218,39 37,2 77,-30 143,-3 21,9 114,14 137,9 59,-12 69,-73 119,-96 23,-10 6,-12 40,-16 76,-9 105,-115 194,-115 148,-27 147,20 265,27 97,6 149,19 137,121 -5,45 -6,40 0,84 1,8 7,109 10,112l0 0c65,13 115,-47 167,-79 12,-8 23,-14 36,-22 48,-2 123,-1 140,-59 3,-11 -5,-62 0,-83 3,-13 2,-25 7,-42 11,-41 5,-83 4,-124 0,-24 28,-74 45,-92 20,-22 40,-36 57,-55l0 0c-27,-25 -79,-64 -103,-87 -61,-61 -116,-94 -36,-182 35,-38 18,-33 18,-64 0,-17 -31,-59 2,-109 41,-62 -92,-89 -131,-78 -52,15 -51,-16 -101,-34 -41,-15 -86,1 -106,-19 -41,-42 -56,-7 -99,-17 -83,-21 -73,-20 -135,-66 -78,-59 -203,33 -201,-32 4,-121 -97,-30 -43,-173 9,-24 -14,-128 10,-136 31,-10 38,-8 79,-19 0,-1 8,-19 9,-20 25,-35 6,-52 42,-109 31,-49 10,-48 8,-76 -4,-52 53,-67 84,-87 24,-15 19,-144 13,-171 -25,-106 -51,-147 -57,-267l0 0c-13,8 -69,36 -81,40 -37,14 -140,119 -169,61 -18,-35 -44,-40 -48,-68 -9,-59 23,-29 -22,-115 -31,8 -82,14 -112,31 -89,50 -97,-6 -174,94 -35,45 -109,56 -159,42 -138,-37 -106,-35 -228,20 -67,30 -73,58 -118,94 -46,37 -41,112 -139,135 -96,23 -116,104 -184,156 -59,45 -123,114 -162,178 -44,72 -94,84 -163,113 -20,9 -57,90 -68,114 -30,68 -86,94 -142,138 -16,12 -49,35 -68,40 -102,26 -93,53 -93,157 0,88 -81,78 -86,116 -7,53 -31,39 -101,42l0 0c-69,95 -46,92 -68,184 -10,41 -97,127 -76,178 6,15 -12,150 -24,170l-38 80 0 0z"/>
  <path class="fil0 str0" d="M18026 4737l58 124c14,57 18,98 49,145 16,24 15,100 37,139 12,20 23,115 -10,139 -32,24 -189,-85 -117,51 31,59 102,65 106,119 1,9 20,35 27,42 54,54 88,73 133,-2 26,-44 74,-57 117,-31 78,48 88,-32 188,68 84,84 92,9 183,-17 35,-10 43,18 99,-21 57,-41 133,-16 208,-93 10,-10 76,-55 80,-25 8,61 148,-13 116,85 -5,15 -21,34 -7,53l0 0c70,-3 95,11 101,-42 5,-38 86,-28 86,-116 0,-105 -9,-131 93,-157 20,-5 53,-27 68,-40 56,-44 111,-71 142,-138 11,-24 48,-105 68,-114 69,-30 119,-41 163,-113 39,-64 103,-133 162,-178 68,-52 88,-133 184,-156 98,-23 92,-98 139,-135 45,-36 51,-64 118,-94 122,-55 90,-57 228,-20 50,13 124,3 159,-42 77,-101 85,-44 174,-94 30,-17 81,-23 112,-31 44,86 13,56 22,115 4,28 30,33 48,68 29,58 132,-47 169,-61 12,-5 68,-33 81,-40l0 0c49,-57 50,-49 112,-70 54,-18 154,-1 198,-63 43,-61 81,-41 104,-137 9,-36 28,-80 58,-102 46,-33 54,-31 79,-82 20,-40 117,-65 138,-110 39,-85 -18,-58 96,-111 34,-16 40,-69 54,-90l0 0 -8 2c-59,17 -119,34 -180,49 -82,19 -162,51 -241,69 -78,17 -151,-41 -219,-69 -32,-13 -72,-36 -103,-18 -40,23 -72,29 -108,47 -45,24 -86,26 -132,44 -80,30 -175,63 -250,101l-19 5c-48,13 -96,33 -142,46 -70,20 -99,46 -160,77 -30,15 -107,43 -123,54 -35,24 -97,35 -139,35 -81,-1 -138,0 -212,41 -50,28 -116,47 -173,55 -31,4 -42,2 -63,27 -39,52 -88,38 -149,122 -56,77 -125,0 -211,102 -48,57 -69,55 -141,42l-6 2c-40,6 -60,13 -91,41 -71,65 -111,-2 -185,74 -57,58 -146,23 -228,85 -45,34 -69,45 -126,54 -90,14 -96,109 -188,95 -26,-4 -82,29 -105,42 -42,25 -86,-21 -104,-56 -25,-47 4,-59 -50,-54 -33,18 -87,32 -111,50 -77,58 -106,5 -161,6 -88,1 -58,-19 -113,-56 -36,-25 -42,-34 -82,-6 -64,44 -42,-41 -77,-60 -48,-27 20,-109 -27,-97 -15,4 -99,53 -109,64 -43,46 -23,116 -7,168 6,11 12,16 20,26 15,18 42,39 49,48 38,51 69,52 50,119l0 0z"/>
  
  
  
  
  
  
  
  
  
  
  
  
  
  
  
  
  
  
  
  
  
  
  
  
  <g id="_2420861650096">
   
   
   
   
   
   
   
   
  </g>
  <g id="_2420861645360">
   
   
   
   
   
   
   
   
   
   
   
   
   
   
  </g>
 </g>
</svg>