<svg xmlns="http://www.w3.org/2000/svg" xmlns:xlink="http://www.w3.org/1999/xlink" xml:space="preserve" width="297mm" height="210mm" version="1.1" style="shape-rendering:geometricPrecision; text-rendering:geometricPrecision; image-rendering:optimizeQuality; fill-rule:evenodd; clip-rule:evenodd" viewBox="0 0 29700 21000">
 <defs>
  <style type="text/css">
   <![CDATA[
    .str2 {stroke:black;stroke-width:10;stroke-opacity:0.501961}
    .str4 {stroke:black;stroke-width:50}
    .str1 {stroke:#AE4A84;stroke-width:25}
    .str6 {stroke:#434242;stroke-width:10}
    .str0 {stroke:black;stroke-width:10}
    .str3 {stroke:black;stroke-width:10}
    .str7 {stroke:#2B2A29;stroke-width:7.62}
    .str5 {stroke:black;stroke-width:7.62}
    .fil7 {fill:none}
    .fil2 {fill:none;fill-rule:nonzero}
    .fil1 {fill:#FEFEFE}
    .fil0 {fill:#FEFEFE}
    .fil9 {fill:#D9DADA}
    .fil6 {fill:#FEFEFE;fill-rule:nonzero}
    .fil5 {fill:#D9DADA;fill-rule:nonzero}
    .fil8 {fill:#434242;fill-rule:nonzero}
    .fil4 {fill:black;fill-rule:nonzero}
    .fil3 {fill:#FEFEFE;fill-rule:nonzero;fill-opacity:0.501961}
   ]]>
  </style>
 </defs>
 <g id="Plan_x0020_1">
  <metadata id="CorelCorpID_0Corel-Layer"/>
  
  
  
  
  
  
  <path class="fil1 str0" d="M13593 9591c1,3 23,135 44,135 27,0 16,-32 51,2 47,47 114,-59 168,-1 40,42 145,4 229,60 42,28 207,-32 216,91 3,39 49,147 90,154 59,11 235,123 298,159 37,21 116,19 186,62 9,6 40,19 50,20 112,1 159,5 238,75 47,42 37,57 99,70 56,12 28,72 157,81 75,5 77,54 172,46 120,-9 82,30 119,36 13,2 60,-38 127,-38 89,0 251,-31 207,116 -7,23 -1,109 -15,162 -19,71 -52,103 4,180 23,33 -85,109 53,140 79,18 34,122 135,88 60,-21 123,-9 146,57 14,40 29,50 67,62 117,1 71,15 136,26 52,9 128,-10 163,42 3,4 30,22 35,29l0 0 95 -11 0 0 8 -109c0,-38 6,-100 -24,-128 -71,-66 34,-136 -22,-192 -50,-50 -27,28 -104,-110l-2 -7c-15,-39 -47,-79 -69,-121 -23,-44 -133,-58 -177,-55 -61,4 22,-106 28,-112 35,-35 -19,-120 89,-146 105,-25 24,-138 121,-110 135,38 90,-89 53,-155 -60,-108 40,-152 5,-258 -20,-60 -5,-54 7,-99 6,-22 12,-33 20,-39l0 0c-37,-37 -123,-90 -132,-159 -4,-36 -124,-140 -148,-159 -7,-15 -19,-34 -29,-49 -47,-69 -34,-157 0,-229 47,-98 -175,-96 -248,-168 -53,-52 -34,-33 -96,-72 -87,-55 41,-147 -108,-155 -90,-5 -98,-40 -182,-40 -43,0 -144,36 -173,-2 -37,-48 -111,62 -128,89 -32,52 -61,49 -102,68 -44,20 -145,-55 -184,-53 -56,3 -134,85 -169,15 -33,-66 36,-112 6,-143 -35,-37 -39,-31 -75,-86 -60,-50 -59,-85 -109,-121 -76,-56 -3,-134 -29,-174 -25,-39 -81,-58 -126,-33 -83,44 -105,23 -159,41 -37,12 -67,12 -65,55 4,73 -185,69 -235,69 -82,0 -77,-20 -135,-39 -65,-22 -134,-138 -109,-199 23,-55 38,-119 14,-176 -45,-108 113,-183 -17,-209 -66,-13 -58,-42 -84,-45 -69,-8 -55,29 -130,29 -52,0 -36,-49 -40,-101l-14 -104 0 0c-52,37 -44,35 -93,27 -11,-2 -2,-23 -68,-31 -29,-4 -115,-21 -117,37 -1,38 54,17 -49,79 -95,58 12,75 12,161 0,15 7,96 18,101 68,32 51,28 -7,71 -94,68 16,88 87,62 29,-10 51,103 31,134 -22,34 -46,39 -53,63l0 0c-5,15 -3,37 10,78 18,58 -2,63 -24,114 -17,41 -63,69 -10,96 49,24 11,77 34,134 14,35 38,83 41,119 8,94 -18,69 -22,109 -6,62 88,76 135,125 27,28 84,56 66,112 -10,32 -131,20 -100,106 22,59 -97,34 -119,110 -22,75 31,49 31,133l0 6z"/>
  <path class="fil1 str0" d="M18399 7703c-23,-21 -41,-25 -64,-39 -21,-13 -41,-17 -64,-27 -30,-13 -50,-50 -59,-52 -20,-4 -68,-19 -84,-25l-5 -2c-35,-10 -78,-20 -114,-28 -124,-27 -97,-62 -162,-133 -20,-22 -100,-38 -129,-37 -68,1 -127,-33 -142,-102 -9,-43 -48,-71 -61,-113 -15,-49 -46,-31 -75,-32 -137,-3 -120,8 -231,-73 -31,-18 -70,-36 -97,-53 -34,-23 -46,-25 -81,-42 -21,-10 -30,-11 -47,-18 -56,-23 -65,-6 -126,-47 -45,-31 -43,-54 -107,-65 -81,-14 -123,-6 -189,-73 -22,-22 -23,-17 -43,-31 -36,-25 -51,-32 -94,-24 -55,10 -92,21 -150,21 -19,0 -91,7 -99,5 -35,-7 -38,6 -63,7 -14,0 -42,49 -48,61 -21,43 -59,57 -104,48 -42,-9 -34,-4 -83,-24l-2 -2c-16,-15 -24,-45 -24,-67 -2,-75 -106,-10 -136,-21 -42,-16 -50,31 -82,26 -39,-6 -32,-49 -36,-77 -5,-29 -51,-38 -75,-40 -34,-2 -99,-53 -132,-58 -96,-16 -127,-86 -190,-87 -14,0 -96,-24 -104,-30 -22,-17 -37,-14 -55,10 -26,36 -95,59 -137,39 -39,-18 -68,17 -101,1 -40,-19 -66,15 -84,46 -17,29 -24,75 -36,103 -26,59 -30,58 -92,47 -6,3 -11,5 -16,8 -57,30 -95,69 -145,103 -29,20 -177,164 -203,152 -10,-5 -3,-72 -3,-85 0,-56 -3,-59 -13,-112 -10,-51 -66,-31 -101,-26 -20,3 -37,10 -52,13l0 0 -20 178c-41,102 -41,69 11,128 43,49 -40,76 -10,132 21,39 -21,80 -67,86 -44,6 -88,37 -29,73 41,25 60,85 35,130 -75,134 -170,-75 -217,53 -12,31 47,38 39,59 -4,10 -4,50 -7,57l0 0 14 104c4,53 -12,101 40,101 75,0 62,-37 130,-29 27,3 19,32 84,45 129,26 -28,100 17,209 24,57 8,121 -14,176 -25,61 44,177 109,199 57,19 52,39 135,39 49,0 238,4 235,-69 -2,-42 28,-42 65,-55 54,-18 76,3 159,-41 45,-24 101,-6 126,33 25,40 -47,118 29,174 50,37 49,71 109,121 37,55 40,49 75,86 30,32 -39,78 -6,143 35,70 113,-12 169,-15 39,-2 140,73 184,53 41,-19 71,-16 102,-68 16,-27 91,-137 128,-89 29,38 130,2 173,2 84,0 91,35 182,40 149,8 21,101 108,155 62,39 44,20 96,72 73,72 295,70 248,168 -34,72 -47,160 0,229 10,14 21,33 29,49 23,18 143,123 148,159 8,69 95,121 132,159l0 0c21,-15 50,2 92,-36 91,-82 61,-31 145,-161 3,-5 5,-7 8,-13l0 0c21,-37 11,-129 71,-150 71,-25 46,-36 71,-73 57,-83 158,8 207,-64 109,-160 94,-91 4,-147 -37,-23 -155,-6 -188,9 -63,29 -99,12 -142,-40 -67,-80 -155,64 -155,-75 0,-54 -40,-63 -18,-88 52,-61 123,16 167,-73 30,-60 42,-56 89,-35 46,21 100,-30 165,-38 48,-6 43,-19 60,-75 2,-26 20,-79 -13,-99 -73,-43 -15,-128 41,-158 90,-50 58,-110 109,-122 98,-23 116,-92 152,-101 87,-22 56,-29 106,-51 19,-9 57,-28 75,-15 45,32 82,-1 93,-48 22,-94 165,-67 198,-104 20,-22 37,-18 44,-24 15,-14 121,4 133,-92 11,-90 -28,-17 42,-132l49 -87 0 0z"/>
  <path class="fil1 str0" d="M11553 8114c43,0 77,-2 115,9 77,22 12,61 87,65 12,0 89,-32 104,-31l66 26 0 0c19,-22 28,-53 36,-80 17,-60 -43,-91 -58,-136 -32,-95 41,-191 31,-216 -32,-77 -29,-65 -44,-147 -13,-74 33,-114 33,-139 0,-39 -29,-87 -26,-93 44,-107 50,-44 99,-68 46,-22 33,-60 22,-93 -8,-25 -37,-87 -45,-101 0,-2 -25,-50 -28,-55 -29,-54 55,-117 30,-122 -6,-29 -49,-39 -73,-30 -58,22 -37,-176 -33,-206 17,-136 -36,-123 -48,-163 -13,-43 -41,-24 -51,-31 -14,-10 -127,-7 -146,-1 -53,17 -125,10 -179,8l0 0c-14,130 8,56 11,134 2,46 -55,118 -64,167 -32,174 -104,104 -113,177 -16,134 -29,63 -68,142 -27,55 2,122 -35,154 -45,40 -94,47 -124,84 -36,45 121,177 121,228 0,62 29,92 79,124 44,27 87,26 106,85 22,68 156,65 165,172 0,1 2,5 2,7l25 129 0 0z"/>
  <path class="fil1 str0" d="M13791 7644c-52,37 -44,35 -93,27 -11,-2 -2,-23 -68,-31 -29,-4 -115,-21 -117,37 -1,38 54,17 -49,79 -95,58 12,75 12,161 0,15 7,96 18,101 68,32 51,28 -7,71 -94,68 16,88 87,62 29,-10 51,103 31,134 -22,34 -46,39 -53,63l-21 -4c103,19 -132,-40 -155,-49 -59,-21 -143,22 -167,-9 -26,-33 -71,-51 -80,-90 -6,-27 -59,-85 -84,-99 -59,-33 -49,-34 -117,-55 -40,-13 -55,-80 -46,-102 17,-43 -65,0 -76,3 -50,14 -97,101 -136,79 -38,-21 -58,-22 -90,-37 -81,-39 -136,121 -156,176 -8,22 -87,170 -98,180 -59,52 -47,28 -89,95 -91,145 -117,1 -160,2 -45,2 5,-88 15,-102 21,-29 -100,-40 -116,-39 -25,1 -49,-108 -51,-115l0 0c19,-22 28,-53 36,-80 17,-60 -43,-91 -58,-136 -32,-95 41,-191 31,-216 -32,-77 -29,-65 -44,-147 -13,-74 33,-114 33,-139 0,-39 -29,-87 -26,-93 44,-107 50,-44 99,-68 46,-22 33,-60 22,-93 -8,-25 -37,-87 -45,-101 0,-2 -25,-50 -28,-55 -29,-54 55,-117 30,-122 -6,-29 -49,-39 -73,-30 -58,22 -37,-176 -33,-206 17,-136 -36,-123 -48,-163 -13,-43 -41,-24 -51,-31 -14,-10 -127,-7 -146,-1 -53,17 -125,10 -179,8l0 0c-4,-1 -13,-16 -13,-20 -2,-30 -72,-71 -81,-71 -80,3 -41,-66 -9,-85 58,-34 44,-52 66,-104 6,-14 2,-133 3,-148l-15 -136 0 0c53,10 103,22 155,35 92,22 93,60 207,33 71,-17 75,-84 141,-87 47,-2 78,-26 108,-60 37,-41 57,-61 111,-82 5,-2 15,-3 22,-4 56,3 44,10 87,20 28,6 128,-4 155,-14 40,-15 48,-28 79,-57 32,-29 10,-36 69,-40 39,-2 52,-32 84,-54 24,-16 35,-11 58,-25 28,-18 37,-9 69,-42 21,-21 24,-30 52,-41 25,-9 44,-42 56,-63 43,-72 59,-23 102,-7 55,21 73,-50 130,-68 52,-17 79,-78 118,-10 15,26 54,62 85,69 29,6 46,23 76,36 31,13 62,28 95,38 58,16 35,20 80,40 40,17 58,31 82,68 23,35 36,228 29,273 -2,14 -1,39 -3,58 -4,32 -5,68 -10,102 -7,46 -4,84 -15,134 -1,4 -2,10 -3,15 -1,29 -5,108 9,134 29,55 13,156 84,184 27,11 63,42 87,61 27,22 83,29 114,50 9,6 48,20 57,33 9,14 22,28 32,44 19,31 38,33 61,27l0 0 -20 178c-41,102 -41,69 11,128 43,49 -40,76 -10,132 21,39 -21,80 -67,86 -44,6 -88,37 -29,73 41,25 60,85 35,130 -75,134 -170,-75 -217,53 -12,31 47,38 39,59 -4,10 -4,50 -7,57l0 0z"/>
  <path class="fil1 str0" d="M10489 10140l119 -56c103,-61 50,-51 104,-93 38,-30 108,19 180,-49 41,-38 176,9 227,9 72,0 160,9 229,4 37,-2 181,-14 179,44 -1,24 8,132 18,153 40,89 80,99 171,96 45,-1 153,49 194,70 37,19 125,15 137,20 143,-74 97,-36 194,4 35,15 65,-47 169,26 22,15 12,26 67,54 22,11 42,49 94,27 55,-23 30,-51 120,-40 53,6 50,53 142,-14 38,-28 94,-22 136,-6 26,10 187,-20 235,-14l0 0c-16,223 -47,90 -106,251 -8,22 -13,62 -4,84 8,20 -57,107 -37,154 59,142 -28,143 42,273 23,43 5,103 -2,151 -8,54 -7,184 -58,214 -25,15 -33,32 -79,54 -61,29 -67,73 -86,129 -27,77 -70,69 -83,137 -6,30 9,28 -5,74 -28,93 -83,67 -102,180 -2,11 -3,14 -8,24 31,109 36,95 95,174 45,61 38,142 -29,84 -13,-12 -30,-14 -44,-4l-28 53 0 0c-10,0 -33,1 -40,-1 -48,-9 -144,-15 -166,44 -45,122 -103,33 -155,101 -97,126 -167,26 -265,58 -47,15 -154,11 -193,-26 -36,-34 -190,-29 -202,-38 -44,-32 -36,-3 -71,-72l-2 -5c-26,-42 -64,-79 -80,-127 -37,-108 -86,-135 -147,-214 -57,-74 -236,-144 -328,-150 -105,-7 -97,-29 -170,-51 -52,-16 -45,-12 -96,-34 -80,-34 -86,-152 -85,-225 -71,-27 -42,-65 -93,-88 -55,-25 -153,19 -198,-15 -54,-41 -47,-7 -71,-14 -58,-18 -82,-26 -97,-91 -29,-127 -98,-22 -145,2 -61,31 -73,7 -152,64 -36,26 -29,33 -67,21 -67,-21 -30,-25 -135,-13l0 0c0,-29 34,-84 24,-108 -12,-29 16,-91 39,-109 43,-33 65,14 131,-30 46,-31 138,-31 166,10 33,49 117,-16 165,2 34,13 126,-41 91,-90 -77,-106 74,-80 118,-87 44,-7 75,12 101,-14 17,-17 94,13 102,23 34,44 50,17 55,36 19,61 108,-42 170,1 45,31 52,7 90,-44 7,-110 -8,-167 -19,-270 -4,-34 -99,-98 -125,-103 -42,-9 -37,-14 -65,-36 -38,-30 -41,-50 -62,-85 -27,-46 13,-108 -40,-195 -11,-19 -92,-86 -113,-98 -36,-21 -48,-162 -50,-194l0 0z"/>
  <path class="fil1 str0" d="M13551 8349c-5,15 -3,37 10,78 18,58 -2,63 -24,114 -17,41 -63,69 -10,96 49,24 11,77 34,134 14,35 38,83 41,119 8,94 -18,69 -22,109 -6,62 88,76 135,125 27,28 84,56 66,112 -10,32 -131,20 -100,106 22,59 -97,34 -119,110 -22,75 31,49 31,133l0 0 0 6c-56,79 -52,36 -85,67 -13,12 22,94 -75,117 -86,20 -51,104 -154,135 -38,12 -88,48 -93,89 -8,67 19,83 -10,130 -33,55 -7,117 23,168 28,46 27,9 6,79l0 0c-48,-6 -210,24 -235,14 -42,-16 -98,-22 -136,6 -91,67 -89,21 -142,14 -91,-11 -65,17 -120,40 -52,22 -72,-16 -94,-27 -55,-28 -45,-39 -67,-54 -104,-73 -134,-11 -169,-26 -97,-40 -51,-78 -194,-4 -13,-5 -101,-2 -137,-20 -41,-21 -149,-71 -194,-70 -91,3 -131,-7 -171,-96 -10,-21 -19,-130 -18,-153 2,-58 -142,-47 -179,-44 -69,4 -157,-4 -229,-4 -51,0 -186,-47 -227,-9 -73,67 -143,19 -180,49 -53,42 0,32 -104,93l-119 56 0 0c-1,-9 -12,-26 -12,-32 -1,-16 -38,-29 -54,-37 -36,-19 -19,-23 -51,-43 -29,-18 -29,6 -72,-39 -15,-17 -51,-26 -71,-36 -64,-34 -129,-32 -185,18 -48,43 -88,-7 -103,-53 -12,-38 -16,-31 -32,-59 -21,-36 -63,-53 -54,-88 21,-82 66,-59 50,-150 -7,-40 25,-99 -20,-125 -30,-18 -44,-33 -55,-69 -11,-37 -14,-27 -32,-52 -38,-53 -40,-50 -29,-122l1 -10c3,-27 7,-53 9,-78 20,-188 -55,-136 -74,-232 -5,-22 -20,-66 -35,-83l0 0c-36,-42 32,-100 10,-125 -32,-36 -55,-2 -113,-43 -39,-28 -7,-61 -28,-72l7 9 36 -124c41,-70 48,-70 71,-139 9,-27 37,-75 57,-95 32,-32 32,-9 84,-9 35,0 55,8 98,-5 7,-2 196,-16 204,-13 33,11 19,-14 90,26 65,37 115,-59 170,-65 66,-8 85,30 141,52 47,19 46,28 105,10 37,-11 61,30 110,42 81,20 43,33 143,5 6,-2 31,-6 36,-6 1,-1 136,-127 150,-59 10,49 26,150 97,152 34,1 44,-41 115,-12 56,23 125,-40 143,-91 36,-100 63,-33 -43,-116 -19,-15 -128,-23 -89,-106 10,-22 77,1 94,45 22,57 156,4 193,4l0 0c43,0 77,-2 115,9 77,22 12,61 87,65 12,0 89,-32 104,-31l66 26 0 0c2,7 25,116 51,115 17,-1 137,10 116,39 -10,14 -60,104 -15,102 43,-2 69,143 160,-2 42,-67 30,-43 89,-95 11,-10 90,-158 98,-180 20,-55 75,-216 156,-176 32,16 52,16 90,37 39,22 86,-65 136,-79 11,-3 93,-46 76,-3 -9,22 6,89 46,102 68,22 58,23 117,55 25,14 78,72 84,99 9,40 54,58 80,90 24,31 107,-12 167,9 23,8 258,67 155,49l21 4z"/>
  <path class="fil1 str0" d="M16281 11897l6 123c-81,136 -5,113 -18,174 -27,133 -30,103 30,214 21,39 -13,72 72,71 28,-1 100,31 101,64 1,28 18,70 56,60 111,-28 16,180 214,78 45,-23 130,-128 197,-75 23,18 6,51 20,90 18,48 -2,26 37,72 18,21 -2,27 52,65 66,46 47,67 120,107 2,1 67,47 68,47l105 52 0 0c-26,43 -34,67 -79,70 -61,4 -52,142 -185,68 -116,-65 -132,46 -193,78 -60,32 -62,43 -136,63 -196,54 -111,147 -282,166 -72,8 -37,49 -87,93 -9,8 -66,72 -72,81l-164 133 0 0 -123 93c-15,13 -53,27 -72,36 -42,21 -110,17 -137,-21 -37,-53 -69,-50 -126,-71 -28,-10 -87,-69 -99,-96 -19,-44 -69,-95 -117,-101 -73,-9 -70,3 -157,-28l-75 -91 0 0c14,-10 13,-25 2,-60 -13,-40 -33,-17 -38,-110 0,-5 -45,-125 -48,-128 -43,-40 -67,123 -132,107 -88,-21 -85,-87 -129,-85 -45,1 -10,-76 -123,-106 -62,-17 6,-64 -154,-97 -60,-13 -20,-15 -101,-17 -80,-2 -213,-134 -133,-170 168,-76 40,-32 28,-122 -4,-27 -20,-87 -46,-101 -77,-23 -168,-57 -205,-133 -44,-91 -133,-110 -225,-107 -34,1 -92,-2 -121,18l-99 18 0 0c9,-143 8,-64 74,-118 43,-35 -2,-78 132,-116 29,-8 58,50 180,12 51,-16 120,1 144,-43 18,-33 -66,-43 -82,-92 -15,-46 -29,-61 12,-104 48,-50 14,-38 31,-66 11,-17 39,13 88,-38 8,-9 71,-74 80,-67 52,44 10,135 150,71 40,-18 128,-41 160,0 28,36 127,51 144,117 11,41 40,34 65,86 17,35 79,51 79,0 0,-37 31,-31 29,-118 -1,-32 13,-36 18,-54 9,-97 -22,-74 -53,-146 -54,-127 4,-58 71,-96 33,-19 -32,-88 -43,-118 -23,-65 30,-15 101,-69 19,-14 76,-52 97,-47 44,12 116,-3 147,-40 11,-13 -15,-29 37,-12 14,5 215,34 127,-42 -28,-24 -69,-118 7,-100 41,10 43,2 84,34 45,35 53,19 38,93 -18,92 -44,121 46,119 36,-1 82,71 82,103 0,99 -7,109 79,173 83,62 35,24 128,49 175,47 97,157 296,113 10,-2 15,-1 25,-1l0 0z"/>
  <path class="fil1 str0" d="M13593 9591c1,3 23,135 44,135 27,0 16,-32 51,2 47,47 114,-59 168,-1 40,42 145,4 229,60 42,28 207,-32 216,91 3,39 49,147 90,154 59,11 235,123 298,159 37,21 116,19 186,62 9,6 40,19 50,20 112,1 159,5 238,75 47,42 37,57 99,70 56,12 28,72 157,81 75,5 77,54 172,46 120,-9 82,30 119,36 13,2 60,-38 127,-38 89,0 251,-31 207,116 -7,23 -1,109 -15,162 -19,71 -52,103 4,180 23,33 -85,109 53,140 79,18 34,122 135,88 60,-21 123,-9 146,57 14,40 29,50 67,62 117,1 71,15 136,26 52,9 128,-10 163,42 3,4 30,22 35,29l0 0c-5,3 -5,4 -9,8 -16,21 -33,33 -44,48 -43,57 -97,36 -121,88 -19,41 -53,87 -93,108 -59,31 -49,102 -150,125 -53,12 -51,17 -68,73l0 0c-10,0 -15,-1 -25,1 -199,43 -121,-67 -296,-113 -93,-25 -44,13 -128,-49 -86,-64 -79,-74 -79,-173 0,-32 -46,-104 -82,-103 -91,2 -65,-27 -46,-119 15,-74 7,-57 -38,-93 -41,-32 -42,-24 -84,-34 -76,-18 -35,76 -7,100 88,77 -113,47 -127,42 -51,-17 -26,-1 -37,12 -31,37 -103,52 -147,40 -20,-5 -77,33 -97,47 -71,54 -125,4 -101,69 11,30 76,99 43,118 -68,38 -126,-31 -71,96 31,73 62,49 53,146 -4,17 -18,22 -18,54 2,87 -29,81 -29,118 0,51 -62,35 -79,0 -25,-52 -54,-45 -65,-86 -17,-66 -116,-81 -144,-117 -32,-41 -120,-18 -160,0 -140,64 -98,-28 -150,-71 -9,-7 -71,58 -80,67 -48,51 -77,20 -88,38 -18,28 16,17 -31,66 -41,43 -28,58 -12,104 16,49 99,59 82,92 -23,44 -92,27 -144,43 -122,39 -151,-20 -180,-12 -133,39 -89,82 -132,116 -67,54 -66,-25 -74,118l0 0c-20,9 -34,25 -46,44 -30,46 -99,101 -115,125 -47,69 -105,166 -201,97 -95,-68 -77,54 -86,93 -22,92 -146,-23 -177,-25 -54,-4 -74,-18 -119,-44 -70,-39 -202,-28 -220,-98 -16,-64 -49,-57 -55,-82 -13,-59 14,-24 -23,-118l0 0 28 -53c14,-10 31,-7 44,4 66,59 74,-23 29,-84 -59,-79 -64,-66 -95,-174 5,-10 6,-12 8,-24 19,-113 75,-86 102,-180 14,-45 -1,-44 5,-74 13,-68 56,-60 83,-137 20,-57 26,-100 86,-129 46,-22 54,-40 79,-54 51,-29 50,-160 58,-214 7,-48 25,-108 2,-151 -71,-130 16,-131 -42,-273 -19,-47 46,-134 37,-154 -9,-21 -4,-62 4,-84 59,-162 91,-28 106,-251l0 0c21,-70 22,-34 -6,-79 -31,-51 -57,-113 -23,-168 29,-47 2,-63 10,-130 5,-41 55,-77 93,-89 103,-31 68,-115 154,-135 97,-23 62,-105 75,-117 34,-31 30,12 85,-67l0 -6 0 6z"/>
  <path class="fil1 str0" d="M9451 11531l-14 115c-45,21 -99,30 -110,84 -6,29 50,45 23,99 -34,66 -30,69 -38,137 -7,58 -19,144 -33,200 -16,67 -97,142 -148,184 -74,60 -145,183 -116,282 26,88 59,140 88,218 11,28 -4,91 -15,122 -66,76 -99,106 -122,202 -9,37 -46,128 -48,164 -2,34 -25,114 -54,133 -26,17 -95,109 -115,127l0 0c-79,61 -145,50 -200,137 -47,75 -83,125 -146,188 -80,80 -113,70 -183,120 -130,92 -218,52 -348,126 -132,76 -185,120 -244,243l0 0 -57 -28c-124,-61 -161,-143 -311,-157 -33,-3 -91,-4 -114,-25 -55,-49 -72,-18 -106,-28 -64,-19 -96,-71 -79,-138 12,-51 21,-280 -2,-321 -40,-70 12,-93 -52,-159 -17,-17 -41,-17 -57,-25 -134,-68 -87,3 -147,-166l0 0 25 -109c11,-26 39,-43 61,-50 170,-53 76,-97 110,-162 59,-110 129,-19 139,-125 7,-74 42,-72 59,-96 31,-42 13,-109 -21,-143 -19,-19 -43,-53 -30,-82 7,-17 -37,-134 -38,-137 -4,-10 -7,-21 -13,-30 -32,-45 -30,-100 -5,-149 57,-113 -29,-109 7,-198 34,-84 25,-51 32,-140 3,-41 20,-87 28,-128 12,-61 -65,-43 -32,-108 16,-32 61,-55 37,-78 -38,-36 45,-46 64,-78 21,-38 24,-44 48,-93l73 -121 0 0c31,12 52,75 64,104 11,26 22,84 40,97 40,31 78,1 104,-30l6 -4c32,-16 51,-19 85,-12 53,11 68,15 88,68 10,27 46,64 76,65 37,2 39,11 65,16 34,6 25,34 60,38 81,8 100,-88 95,-150 -5,-74 26,-71 32,-26 6,45 11,72 34,112 10,16 34,17 51,14 99,-17 24,-168 54,-233 25,-56 38,17 103,-14 89,-41 69,21 153,6 15,-3 27,-6 37,-9l0 0 5 86c29,47 23,26 54,38 11,4 73,-16 100,-16 44,0 42,30 103,27 25,-2 37,-5 65,-5 31,0 61,-2 92,4 23,4 107,-5 131,-10 36,-7 89,16 107,49 13,23 33,24 57,24 81,-8 31,3 90,19 57,15 82,-29 149,-29 59,0 61,3 108,-40l0 0z"/>
  <path class="fil1 str0" d="M9447 14903c90,6 113,-6 193,-12 50,-4 96,14 111,62 8,25 54,-9 -1,76 -57,89 82,69 78,180 -2,43 45,96 93,64 89,-61 56,-29 150,-51 79,-19 47,-79 99,-81 25,-1 32,11 76,-4 41,-15 124,-61 122,10 -2,88 89,43 107,58 36,31 150,55 167,-8 33,-117 182,-71 150,-185 -9,-30 48,-48 79,-69 68,-47 92,-89 123,11 6,18 101,19 105,22l0 0c5,-8 15,-24 20,-33 21,-37 53,-57 38,-88 -11,-22 -23,-79 -13,-102 12,-30 -72,-63 -86,-64 -123,-11 -118,-149 -71,-227 62,-102 -75,-70 -30,-163 11,-22 -72,-75 -15,-150 75,-100 -64,-110 -3,-148 81,-51 30,-89 65,-87 46,2 170,-69 121,-79 -42,-9 -33,-29 -98,-40 -24,-4 -57,-37 -53,-45 21,-48 33,10 10,-94l0 0c-24,-4 -120,-28 -135,-24 -84,23 -36,-27 -71,-18 -46,12 -90,52 -105,98 -13,40 -48,86 -93,58 -60,-38 -49,19 -108,3 -159,-45 -184,70 -240,68 -26,-1 -38,-159 -35,-175 34,-182 -187,96 -241,82 -97,-27 -62,-6 -137,60 -34,30 -34,-25 -53,-59 -26,-46 -11,-39 -88,30 -24,6 -34,84 -37,88 -19,25 -37,73 -46,80 -76,70 5,65 -11,96 -21,40 -59,27 -90,8l-6 -4c-21,19 -126,188 -107,215 9,13 28,76 29,77 8,11 -24,92 -28,100 -30,46 -24,32 -20,79 4,51 82,78 81,99 -3,60 51,121 53,148 6,69 2,77 -49,139l0 0z"/>
  <path class="fil1 str0" d="M9710 11530c105,-12 68,-8 135,13 39,12 31,5 67,-21 80,-56 92,-33 152,-64 47,-24 116,-129 145,-2 15,66 39,74 97,91 23,7 17,-27 71,14 44,34 143,-9 198,15 50,23 22,61 93,88 -1,74 5,191 85,225 51,22 45,18 96,34 74,22 65,44 170,51 92,6 271,76 328,150 61,79 110,106 147,214 16,48 54,85 80,127l2 5c36,69 27,40 71,72 12,9 166,4 202,38 39,37 146,41 193,26 98,-32 169,68 265,-58 53,-68 110,20 155,-101 22,-59 119,-53 166,-44 8,1 31,1 40,1l0 0c37,94 10,60 23,118 6,25 39,18 55,82 18,70 149,59 220,98 46,26 65,40 119,44 30,2 155,118 177,25 9,-39 -10,-161 86,-93 96,69 154,-29 201,-97 17,-24 86,-79 115,-125 12,-18 26,-35 46,-44l0 0 99 -18c29,-20 87,-17 121,-18 92,-3 181,16 225,107 37,77 128,110 205,133 26,14 42,74 46,101 12,90 141,46 -28,122 -80,36 53,168 133,170 81,2 41,4 101,17 160,33 92,80 154,97 112,30 78,108 123,106 44,-1 41,65 129,85 65,16 89,-147 132,-107 3,3 48,123 48,128 5,94 26,71 38,110 11,35 12,50 -2,60l0 0c-9,6 -24,11 -46,17 -59,17 -80,-4 -125,67 -37,58 -91,55 -151,39 -121,-32 -78,-7 -179,-7 -76,0 -75,-39 -98,-31 -114,41 -7,50 -75,104 -7,5 -104,28 -106,29l0 0c-84,11 -137,88 -242,13 -81,-57 -163,43 -222,-41 -31,-44 -48,-34 -81,-65 -41,-37 -41,-24 -78,-44 -71,-39 -189,-61 -223,-139 -66,-153 -76,-69 -192,-28 -31,11 -81,59 -97,85 -53,87 -137,74 -137,23 0,-36 62,-79 4,-110 -70,-37 -6,-119 -110,-180 -67,-40 -203,-62 -203,-158 0,-86 -115,-60 -168,-51 -75,-8 -140,-33 -204,-70 -73,-43 -177,-15 -237,-51 -36,-21 -46,-18 -77,-30 -97,-39 -131,37 -182,104 -44,58 -73,30 -82,67 -21,91 -44,62 -108,78 -90,22 -141,-32 -200,9 -110,78 -108,-25 -163,-3 -95,39 -77,-63 -234,-2 -109,42 -69,-9 -146,-3 -101,8 -17,219 -37,269 -8,19 -8,99 -8,110l-46 141 0 0c-24,-4 -120,-28 -135,-24 -84,23 -36,-27 -71,-18 -46,12 -90,52 -105,98 -13,40 -48,86 -93,58 -60,-38 -49,19 -108,3 -159,-45 -184,70 -240,68 -26,-1 -38,-159 -35,-175 34,-182 -187,96 -241,82 -97,-27 -62,-6 -137,60 -34,30 -34,-25 -53,-59 -26,-46 -11,-39 -88,30 -24,6 -34,84 -37,88 -19,25 -37,73 -46,80 -76,70 5,65 -11,96 -21,40 -59,27 -90,8l0 0c-9,-5 -17,-11 -25,-17 -87,-62 -163,82 -260,57 -61,-16 -80,1 -134,-10 -41,-8 -143,28 -138,-7 6,-49 102,-65 140,-79 57,-22 79,-26 39,-63 -89,-82 -74,-37 -131,-72 -43,-26 -124,77 -140,24 -23,-73 -112,18 -128,-17 -27,-61 59,-73 72,-86 47,-49 58,2 32,-100l-75 -82 0 0c20,-19 89,-110 115,-127 30,-19 52,-100 54,-133 2,-36 40,-127 48,-164 22,-96 55,-126 122,-202 11,-31 26,-93 15,-122 -29,-78 -62,-130 -88,-218 -29,-99 42,-222 116,-282 51,-42 133,-117 148,-184 13,-56 26,-142 33,-200 8,-68 4,-71 38,-137 28,-54 -29,-70 -23,-99 11,-54 65,-63 110,-84l14 -115 0 0c22,-20 65,-45 94,-53 24,-7 55,-14 79,-7 25,8 22,-10 55,17 1,1 3,1 4,2l28 40 0 0z"/>
  <path class="fil1 str0" d="M6955 17896l158 -31c109,-92 15,-80 84,-136 50,-40 13,-41 31,-102 1,-3 47,-56 63,-92 49,-111 86,81 137,16 20,-25 43,-59 75,-23 13,15 -27,73 12,134 18,29 119,-2 159,95 21,50 137,-18 199,-18 69,0 179,-32 220,-91 46,-66 97,-51 25,-132 -49,-56 103,-83 108,-149 2,-31 9,-20 1,-59 -10,-47 42,-115 48,-187 5,-53 33,-95 89,-73 65,26 95,-30 129,-74 15,-20 56,-33 80,-32 39,-16 67,-28 107,-33 12,-2 150,-97 157,-108 19,-29 -4,-37 13,-79 0,0 12,-85 20,-108 28,-79 -80,-36 7,-134 23,-26 16,-124 -9,-138 -31,-17 -12,-21 -59,-33 -21,-6 -67,-82 -72,-104 -12,-51 -103,-121 -141,-177 -26,-38 -190,-159 -53,-163 28,-1 73,-11 81,-41 22,-90 135,-40 168,-150 16,-55 20,-34 9,-93 -4,-20 3,-30 4,-45 25,-19 129,-75 83,-118 -30,-28 66,-68 39,-144 -20,-58 -20,-48 -76,-69 -37,-14 -195,-131 -94,-168 32,-11 18,-16 58,-21 18,-2 66,-29 66,-29l31 -35 0 0c-5,-7 -7,-14 -11,-20 -40,-52 -75,-112 -144,-126 -50,-10 -48,-28 -73,-46 -87,-62 -156,2 -229,2 -55,0 -128,8 -179,33 -38,19 -79,16 -57,-27 38,-73 -45,-29 -57,-68 -21,-67 -77,-26 -142,-26 -68,0 -213,64 -269,33 -37,-21 -69,26 -124,7 -38,-14 -15,-75 -11,-96l-75 -23 0 0c-38,85 -80,169 -129,249 -2,3 -6,4 -9,6 -98,72 -177,125 -286,179 -78,39 -143,90 -213,140 -98,70 -138,135 -218,214 -189,189 -316,488 -498,647 -56,49 -90,117 -160,175 -132,109 -208,192 -304,335 -42,63 -49,122 -83,177 -26,41 -60,131 -78,157 -40,56 -78,148 -109,211 -6,12 -12,24 -17,35l0 0c64,32 82,36 134,87 35,35 77,118 92,166 13,39 11,51 31,93 24,50 54,92 86,136 15,21 35,79 43,104 -4,37 -15,106 8,138 15,22 24,23 34,37 16,23 11,131 92,89 19,-10 48,-62 93,-87 46,-26 20,-91 8,-129 -9,-29 5,-80 43,-86 47,-7 32,-12 59,14 20,19 -88,99 -12,111 47,8 15,77 103,30 48,-26 -16,-62 -16,-121 0,-11 2,-68 17,-70 42,-6 28,5 59,-34 17,-22 35,-15 42,11 7,27 26,51 49,66 45,29 26,-90 108,-24 20,16 93,49 116,44 43,-9 65,-56 69,-95 5,-45 9,-54 56,-53 3,0 80,13 83,14 21,9 15,59 39,93 21,29 66,116 73,151 8,38 23,64 4,90l0 0z"/>
  <path class="fil1 str0" d="M7544 14595c22,-48 42,-96 63,-144 6,-14 12,-27 18,-39l0 0c59,-123 112,-167 244,-243 129,-74 218,-34 348,-126 71,-50 104,-41 183,-120 63,-63 99,-113 146,-188 55,-87 121,-76 200,-137l0 0 75 82c26,102 15,51 -32,100 -13,14 -100,25 -72,86 16,35 105,-56 128,17 16,52 98,-50 140,-24 56,35 42,-10 131,72 40,37 18,42 -39,63 -38,15 -134,30 -140,79 -4,36 97,-1 138,7 54,11 73,-6 134,10 97,25 173,-119 260,-57 7,5 16,11 25,17l-6 -4c-21,19 -126,188 -107,215 9,13 28,76 29,77 8,11 -24,92 -28,100 -30,46 -24,32 -20,79 4,51 82,78 81,99 -3,60 51,121 53,148 6,69 2,77 -49,139l0 0c-42,-11 -103,28 -148,-4 -34,-24 -95,-31 -135,-15 -147,63 -29,81 -252,69l0 0c-5,-7 -7,-14 -11,-20 -40,-52 -75,-112 -144,-126 -50,-10 -48,-28 -73,-46 -87,-62 -156,2 -229,2 -55,0 -128,8 -179,33 -38,19 -79,16 -57,-27 38,-73 -45,-29 -57,-68 -21,-67 -77,-26 -142,-26 -68,0 -213,64 -269,33 -37,-21 -69,26 -124,7 -38,-14 -15,-75 -11,-96l-75 -23 0 0z"/>
  <path class="fil1 str0" d="M14469 13880l101 76c60,120 20,60 106,130 53,43 8,157 110,157 21,0 57,-59 79,-82 56,-56 55,-11 105,-24 9,-2 62,-9 43,19 -28,42 4,43 -55,86 -63,46 -118,66 -126,159 -4,48 -62,71 -87,123 -19,38 -30,110 -19,151 8,26 4,35 20,68 9,19 17,75 17,97 73,170 19,85 35,220 7,56 44,71 25,119 0,0 8,72 6,83l0 0c-55,0 -52,5 -101,16 -103,22 -82,-52 -93,-68 -49,-74 -111,-29 -170,-14 -57,14 -155,77 -182,78 -58,3 -78,33 -132,65 -44,-24 -80,-74 -124,-71 -46,4 -78,18 -114,47 -46,37 -66,-30 -68,-62 -8,-101 -86,35 -110,-18 -37,-82 48,-132 57,-165 4,-16 13,-172 10,-181 -15,-50 -2,-109 -13,-149 -4,-17 -20,-26 -20,-26 -56,-13 -187,38 -249,9 -30,-14 -88,9 -104,-14 -37,-54 -39,-41 -130,-18l-101 32 0 0 -5 -7c-54,-29 -53,-29 -80,-70 -19,-29 5,-73 46,-45 21,15 111,41 141,18 41,-30 122,-19 72,-106 14,-25 124,-9 117,-163 -2,-41 141,-83 120,-155 -9,-31 16,-33 -23,-76 -11,-13 -64,-131 -34,-157 18,-16 57,-122 109,-132 16,-3 17,64 76,44 69,-23 140,103 172,114 74,25 -29,81 124,112 67,13 94,-107 167,-107 44,0 64,-17 119,-15 29,1 92,-41 110,-60 27,-17 44,-26 53,-38l0 0z"/>
  <path class="fil1 str0" d="M14456 13728c2,-1 99,-23 106,-29 68,-53 -39,-63 75,-104 23,-8 21,31 98,31 102,0 59,-25 179,7 60,16 114,19 151,-39 45,-70 66,-50 125,-67 22,-6 37,-10 46,-17l0 0 75 91c86,32 84,20 157,28 48,6 98,57 117,101 12,28 71,86 99,96 57,21 89,19 126,71 27,38 94,43 137,21 19,-10 57,-23 72,-36l123 -93 0 0c68,-3 220,-26 290,-55 24,-10 94,-16 141,-34 48,-19 23,70 52,122 12,21 21,53 44,73 9,8 48,57 56,71 32,59 34,69 1,135 -17,34 -45,37 -61,102 -5,21 -19,48 -26,75l38 211 0 0c-5,21 -162,153 -190,169 -47,28 -70,77 -84,127 -16,54 -18,49 -81,79l-12 4c-45,14 -133,25 -148,31 -57,22 -53,165 -67,222 -24,95 35,123 -35,143 -53,15 -116,-6 -132,-62 -17,-62 -80,-124 -146,-132 -72,-9 -88,-78 -115,-60 -75,50 -15,155 -125,219 -25,15 -73,32 -71,79 3,87 -88,46 -94,30 -27,-68 -102,-46 -151,-15 -121,76 -83,25 -168,36 -96,12 -108,-75 -132,-77 -51,-4 -6,12 -96,-21l0 0c3,-11 -6,-83 -6,-83 20,-48 -18,-63 -25,-119 -17,-135 37,-51 -35,-220 0,-22 -8,-78 -17,-97 -16,-32 -12,-42 -20,-68 -12,-41 0,-113 19,-151 25,-52 83,-76 87,-123 8,-93 63,-113 126,-159 59,-43 27,-44 55,-86 19,-28 -34,-22 -43,-19 -50,13 -49,-32 -105,24 -23,23 -59,82 -79,82 -102,0 -57,-113 -110,-157 -86,-70 -45,-10 -106,-130l-101 -76 0 0c8,-11 9,-23 5,-46 -5,-27 -18,-52 -16,-92 0,-7 -2,-4 -2,-14l0 0z"/>
  <path class="fil1 str0" d="M12023 15408l-55 117c2,53 3,63 7,106 3,29 -8,160 -44,167 -49,10 -31,66 -100,58 -44,-5 -78,43 -60,86 20,49 -91,33 -99,97 -13,102 -6,68 -61,154 -25,39 10,96 -75,146 -21,13 -72,105 -82,130 4,56 -10,96 33,97 28,1 89,-28 82,42 -8,74 82,34 131,99 35,47 -1,135 -1,207 0,124 -89,28 -121,91 -17,34 117,59 82,139 -70,159 64,95 48,258 -6,59 -58,154 43,192 101,38 194,-11 266,22 7,3 32,25 39,26l0 0c10,-5 20,-6 30,2 44,35 63,2 108,29 29,17 55,3 90,3 29,0 61,-26 92,-39 54,-23 136,-37 179,13 7,9 21,34 32,48 6,8 14,18 19,25 89,39 115,26 143,-66 10,-30 -1,-82 48,-78 60,5 107,-33 75,-96 -18,-35 -9,-56 19,-80 45,-38 28,-87 96,-26 61,54 72,14 135,37 24,9 49,4 87,19 58,24 96,64 143,-4 7,-11 24,-64 22,-78 -3,-24 -5,-43 -7,-68 -4,-50 -43,-116 -32,-162 -20,-55 -17,-73 -46,-126 -12,-22 -43,-65 -7,-73 131,-30 199,-138 237,-258 17,-53 -3,-61 -3,-114 0,-50 -3,-111 20,-157 25,-10 72,-25 72,-60 0,-48 19,-41 46,-78 12,-16 32,-61 44,-65 9,-3 19,16 40,25 28,12 63,18 83,28 27,14 18,29 73,50 41,15 75,40 120,10 39,-27 8,-55 97,-58 65,-2 36,-2 95,15 32,9 128,12 147,34 23,27 87,88 93,117 8,39 -9,57 26,101 5,6 70,69 73,70 18,11 42,21 61,33 42,15 137,59 174,14 34,-42 41,-68 99,-86 82,-26 92,-93 135,-97 9,-1 39,-18 61,-23 27,-6 56,-10 83,-15l0 0c-28,-57 -193,-166 -219,-263 -21,-79 -109,-99 -118,-156 -28,-171 -124,-16 -179,-16 -27,0 -131,-42 -150,-62 -74,-74 -62,-81 -96,-197 -2,-5 -4,-10 -7,-16 -22,-48 -23,-104 -79,-75 -72,37 -208,8 -182,114 22,89 5,63 -64,84 -57,17 -94,1 -145,18 -30,10 -60,10 -67,12 -32,10 -105,-3 -155,10 -82,21 -92,-33 -121,-97 -25,-55 -67,-99 -131,-99 -25,0 -88,-17 -108,-29 -44,-25 -42,61 -74,93 -86,86 -88,-32 -106,-66 -32,-60 7,-81 -20,-114 -29,-36 -13,-56 -52,-73 -21,-9 -14,-96 -68,-96 -57,0 -52,-6 -84,-40 -9,-10 -106,30 -110,31l-47 -81 0 0c-29,-10 -53,-53 -148,-79 -83,-23 -87,-9 -153,20 -71,32 -224,127 -289,125 -59,-1 -105,33 -159,49l0 0z"/>
  <path class="fil1 str0" d="M10984 13654l46 -141c0,-11 0,-91 8,-110 21,-50 -64,-261 37,-269 78,-6 37,45 146,3 157,-60 139,41 234,2 55,-23 52,80 163,3 59,-41 110,13 200,-9 64,-16 87,12 108,-78 8,-37 37,-9 82,-67 52,-67 85,-143 182,-104 31,12 41,9 77,30 61,36 164,8 237,51 64,38 130,63 204,70 52,-9 168,-35 168,51 0,96 136,119 203,158 103,61 40,143 110,180 58,31 -4,74 -4,110 0,51 84,64 137,-23 16,-26 65,-74 97,-85 116,-41 126,-125 192,28 34,78 152,101 223,139 36,20 37,6 78,44 34,31 51,21 81,65 58,84 141,-16 222,41 105,75 158,-2 242,-13l0 0c0,10 3,7 2,14 -3,39 11,65 16,92 4,23 3,36 -5,46l0 0c-9,12 -25,21 -53,38 -18,18 -81,60 -110,60 -55,-1 -75,15 -119,15 -72,0 -100,120 -167,107 -153,-31 -50,-87 -124,-112 -32,-11 -103,-137 -172,-114 -59,20 -60,-47 -76,-44 -52,10 -91,116 -109,132 -29,26 23,144 34,157 39,43 14,46 23,76 21,72 -121,114 -120,155 7,154 -103,138 -117,163 50,86 -31,75 -72,106 -30,23 -120,-4 -141,-18 -41,-29 -65,16 -46,45 28,41 27,41 80,70l5 7 0 0c30,76 39,89 57,167 21,88 -63,64 -82,69 -18,4 -80,84 -85,90 -50,19 -96,75 -168,49 -83,-30 -131,35 -98,112 6,14 10,31 8,43 -2,28 -17,50 -46,41l0 0c-29,-10 -53,-53 -148,-79 -83,-23 -87,-9 -153,20 -71,32 -224,127 -289,125 -59,-1 -105,33 -159,49l0 0c-93,27 16,-99 -97,-97 -35,1 -65,-32 -70,-63 -10,-53 -13,-35 -42,-61 -84,-77 -146,61 -174,-23 -29,-88 -129,-13 -172,-56 -53,-53 -173,30 -209,-63 -19,-48 -35,-71 -86,-41 -57,34 -78,69 -73,-29l0 0c5,-8 15,-24 20,-33 21,-37 53,-57 38,-88 -11,-22 -23,-79 -13,-102 12,-30 -72,-63 -86,-64 -123,-11 -118,-149 -71,-227 62,-102 -75,-70 -30,-163 11,-22 -72,-75 -15,-150 75,-100 -64,-110 -3,-148 81,-51 30,-89 65,-87 46,2 170,-69 121,-79 -42,-9 -33,-29 -98,-40 -24,-4 -57,-37 -53,-45 21,-48 33,10 10,-94l0 0z"/>
  <path class="fil1 str0" d="M6955 17896l158 -31c109,-92 15,-80 84,-136 50,-40 13,-41 31,-102 1,-3 47,-56 63,-92 49,-111 86,81 137,16 20,-25 43,-59 75,-23 13,15 -27,73 12,134 18,29 119,-2 159,95 21,50 137,-18 199,-18 69,0 179,-32 220,-91 46,-66 97,-51 25,-132 -49,-56 103,-83 108,-149 2,-31 9,-20 1,-59 -10,-47 42,-115 48,-187 5,-53 33,-95 89,-73 65,26 95,-30 129,-74 15,-20 56,-33 80,-32 39,-16 67,-28 107,-33 12,-2 150,-97 157,-108 19,-29 -4,-37 13,-79 0,0 12,-85 20,-108 28,-79 -80,-36 7,-134 23,-26 16,-124 -9,-138 -31,-17 -12,-21 -59,-33 -21,-6 -67,-82 -72,-104 -12,-51 -103,-121 -141,-177 -26,-38 -190,-159 -53,-163 28,-1 73,-11 81,-41 22,-90 135,-40 168,-150 16,-55 20,-34 9,-93 -4,-20 3,-30 4,-45 25,-19 129,-75 83,-118 -30,-28 66,-68 39,-144 -20,-58 -20,-48 -76,-69 -37,-14 -195,-131 -94,-168 32,-11 18,-16 58,-21 18,-2 66,-29 66,-29l31 -35 0 0c223,12 105,-6 252,-69 39,-17 101,-10 135,15 45,32 106,-6 148,4l0 0c90,6 113,-6 193,-12 50,-4 96,14 111,62 8,25 54,-9 -1,76 -57,89 82,69 78,180 -2,43 45,96 93,64 89,-61 56,-29 150,-51 79,-19 47,-79 99,-81 25,-1 32,11 76,-4 41,-15 124,-61 122,10 -2,88 89,43 107,58 36,31 150,55 167,-8 33,-117 182,-71 150,-185 -9,-30 48,-48 79,-69 68,-47 92,-89 123,11 6,18 101,19 105,22l0 0c-5,99 16,63 73,29 52,-30 68,-7 86,41 36,92 156,9 209,63 43,43 143,-32 172,56 27,84 90,-54 174,23 29,27 32,8 42,61 6,31 35,63 70,63 113,-2 4,124 97,97l0 0 -55 117c2,53 3,63 7,106 3,29 -8,160 -44,167 -49,10 -31,66 -100,58 -44,-5 -78,43 -60,86 20,49 -91,33 -99,97 -13,102 -6,68 -61,154 -25,39 10,96 -75,146 -21,13 -72,105 -82,130 4,56 -10,96 33,97 28,1 89,-28 82,42 -8,74 82,34 131,99 35,47 -1,135 -1,207 0,124 -89,28 -121,91 -17,34 117,59 82,139 -70,159 64,95 48,258 -6,59 -58,154 43,192 101,38 194,-11 266,22 7,3 32,25 39,26l0 0c-19,10 -36,37 -45,51 -34,50 -91,37 -144,45 -43,12 -94,15 -139,21 -31,4 -50,3 -79,6 -39,4 -45,-20 -86,-4 -66,26 -56,54 -65,109 -10,59 -45,48 -82,56 -58,13 -69,15 -101,68 -25,41 -68,48 -113,44 -46,-4 -58,14 -98,18 -55,5 -90,22 -145,18 -46,-3 -56,41 -30,73 21,26 34,61 50,93 17,34 -57,77 -75,86l-7 2c-45,10 -81,37 -127,56 -82,33 -68,94 -123,125 -4,2 -78,16 -83,16 -26,0 -2,-88 -6,-107 -10,-57 -13,-61 -13,-124 0,-123 -34,-31 -58,-7 -31,30 -50,66 -97,52 -46,-14 -53,-19 -104,-5 -33,9 -141,91 -167,115 -55,48 -46,41 -111,71 -49,22 -114,10 -165,-3 -33,-8 -105,12 -113,-18 -15,-56 10,-55 -39,-106 -10,-15 -26,-31 -33,-42 -42,-68 -53,-155 -34,-232 12,-52 -43,-45 -75,-37 -68,17 -34,-26 -104,1 -54,21 -53,-15 -61,-58 -16,-85 -19,-70 -9,-160 1,-9 2,-102 0,-106 -8,-17 -101,4 -132,-12 -32,-17 -68,-3 -78,35 -18,71 -31,66 -103,80 -33,6 -66,15 -92,39 -32,29 -40,42 -59,79 -22,45 -67,59 -113,66 -22,4 -75,32 -89,51 -21,29 -40,60 -69,82 -47,36 -38,109 -31,161 3,23 -36,70 -59,73 -52,8 -60,-9 -98,-25 -77,-31 -128,-27 -207,-20 -51,4 -45,-11 -75,-18 -57,-14 -56,40 -58,82 -5,18 7,28 -6,51 -19,32 -91,27 -121,23 -101,-15 -49,111 -66,164 -10,31 -15,61 -33,86 -35,50 -16,41 -34,87 -11,30 -14,61 -31,85 -35,50 -44,77 -57,10 -4,-20 -21,-45 -21,-46 -3,-32 66,-80 49,-96 -27,-27 -40,3 -65,13 -48,19 -53,24 -93,-16 -19,-22 -9,-46 -25,-55 -64,-36 -154,58 -166,-81 -5,-53 -21,-46 -64,-66 -17,-8 -59,-45 -71,-61 -36,-52 -17,-56 -85,-70 -37,-8 -58,-2 -88,-7 -72,-11 -67,-36 -96,-89 -15,-28 -67,-29 -69,-65 -2,-37 12,-48 19,-86 -8,-47 -44,-66 -86,-78 -44,-13 -43,-13 -83,-32 -48,-23 -7,-85 15,-114 37,-49 47,-37 88,-61 16,-9 27,-18 33,-27l0 0z"/>
  <path class="fil1 str0" d="M4917 13666c18,147 -25,213 -158,275 -45,21 -211,8 -179,109 13,40 -7,39 -34,74 -9,13 -22,41 -24,56l-4 104c4,9 7,19 12,29 29,68 40,77 15,139 -8,21 40,67 -50,155 -102,100 104,208 93,369 -5,80 25,97 26,129 3,58 7,82 -14,135 -35,94 -109,77 -112,135 -2,38 -14,61 -26,97 -40,121 -131,152 -143,185 -28,82 -6,54 -65,156 -6,6 -9,13 -14,20 -41,54 -33,141 -117,169 -86,28 -89,196 -176,192 -54,-2 -103,38 -148,62 -53,28 -33,18 -77,53 -60,48 -39,-7 -24,-46 18,-47 33,-94 48,-143 21,-22 -24,-57 -35,-61 -51,-20 14,-77 42,-91 53,-25 137,-97 192,-135 46,-31 44,-34 80,-66 49,-43 -18,-84 -58,-94 -83,-21 -71,-114 -156,-136 -48,-12 -74,-152 -127,-184 -90,-55 -18,-117 -46,-151 -47,-57 -2,-53 -110,-55 -48,-1 -112,34 -126,28 -50,-21 -30,0 -86,22 -33,13 -62,50 -69,25 -11,-44 -12,-86 -24,-139 -3,-26 -12,-45 -2,-73 16,-46 -27,-57 -39,-69 -24,-22 -73,41 -73,-136 0,-95 -140,-93 -35,-187 79,-70 -70,-83 -104,-186 -12,-38 -71,-77 -106,-85 -52,-12 -102,-56 -129,-58 -71,-6 -93,-12 -159,-51l-81 -69 0 0c64,-60 65,-87 103,-158 38,-70 15,-54 87,-78 23,-8 66,-7 77,-27 12,-22 50,-20 65,-10 79,50 98,-48 124,-97 24,-45 60,-25 81,-29 47,-9 55,-10 85,-53 7,-10 10,-15 18,-24 22,-22 100,-65 132,-71 36,-7 57,-15 93,-6 27,7 53,-9 70,-29 51,-60 66,-36 119,-71 53,-36 69,-1 128,-43 27,-19 32,-34 51,-54 19,-21 47,-96 81,-95 31,1 83,9 88,-37 8,-79 86,-43 120,-72 18,-16 25,-30 47,-49 41,-42 96,-16 135,-34 42,-19 51,10 79,41 16,17 39,28 61,25l0 0 20 122 79 -7c76,25 58,11 82,59 6,12 65,76 82,83 19,8 35,24 67,30 58,11 85,59 126,92 18,15 26,32 60,54 6,3 59,37 60,37l0 0z"/>
  <path class="fil1 str0" d="M7242 11341l-73 121c-24,49 -27,56 -48,93 -18,32 -101,42 -64,78 24,22 -21,45 -37,78 -33,65 44,47 32,108 -8,41 -25,87 -28,128 -7,88 2,55 -32,140 -36,89 50,85 -7,198 -24,49 -27,103 5,149 6,9 10,20 13,30 1,2 46,119 38,137 -12,29 11,62 30,82 34,34 52,101 21,143 -17,24 -52,22 -59,96 -10,106 -81,15 -139,125 -34,64 60,109 -110,162 -22,7 -50,24 -61,50l-25 109 0 0 -97 0c-22,0 -44,3 -64,11 -151,61 -137,-43 -172,-59 -47,-22 -80,-43 -131,-19 -91,43 -168,-54 -281,-7 -57,23 -62,33 -130,47 -76,16 -142,-40 -165,-15 -52,58 45,77 -48,128 -75,41 72,116 39,218 -10,32 -25,64 -30,97 -13,76 -187,75 -244,71 -20,-1 -96,-45 -115,-58 -67,-45 -93,-27 -167,-52 -62,-20 -112,-45 -174,-61l0 0c0,0 -54,-33 -60,-37 -34,-21 -41,-39 -60,-54 -42,-34 -69,-82 -126,-92 -32,-6 -48,-23 -67,-30 -17,-7 -75,-70 -82,-83 -24,-48 -6,-34 -82,-59l-79 7 -20 -122 0 0c11,-2 21,-8 30,-18 21,-27 14,-17 38,-36 24,-19 54,-18 73,-35 55,-52 7,-75 25,-115 21,-46 54,-22 88,-29 122,-25 16,-84 -26,-86 -60,-4 -23,-59 11,-58 50,1 59,1 105,-17 57,-23 92,-96 127,-144 1,-19 12,-65 9,-77 -13,-53 56,-65 92,-74 35,-9 75,-65 85,-96 21,-68 65,-80 130,-96 64,-16 70,-40 115,-72 42,-30 66,-70 100,-95 34,-25 60,-64 87,-85 49,-39 60,-64 127,-78 26,-14 122,-43 155,-52 101,-29 77,-159 80,-241 2,-52 -2,-105 7,-156 9,-50 100,-83 147,-83 41,0 60,-25 98,-14 28,8 56,16 81,-7 45,-43 114,47 145,58 32,12 31,15 55,29 44,26 36,103 56,146 14,30 13,63 39,80 42,27 67,21 116,20l7 -1c18,-5 116,-4 138,-2 34,3 54,-2 85,1 98,7 65,-76 125,-38 36,24 49,-37 54,-61 10,-46 9,-89 17,-129 7,-34 6,-57 9,-89 5,-46 -4,-127 70,-110 42,10 88,-4 127,0 37,3 39,-9 74,5l0 0z"/>
  <path class="fil1 str0" d="M6698 13365c61,169 13,98 147,166 16,8 40,7 57,25 64,67 12,89 52,159 23,41 15,269 2,321 -16,67 16,119 79,138 35,10 51,-21 106,28 23,20 81,22 114,25 150,14 187,96 311,157l57 28 0 0c-6,12 -12,25 -18,39 -21,48 -42,96 -63,144l0 0c-38,85 -80,169 -129,249 -2,3 -6,4 -9,6 -98,72 -177,125 -286,179 -78,39 -143,90 -213,140 -98,70 -138,135 -218,214 -189,189 -316,488 -498,647 -56,49 -90,117 -160,175 -132,109 -208,192 -304,335 -42,63 -49,122 -83,177 -26,41 -60,131 -78,157 -40,56 -78,148 -109,211 -6,12 -12,24 -17,35l0 0c-61,123 -102,184 -201,296 -87,97 -190,226 -329,234 -78,4 -221,35 -289,33 -113,-2 -221,60 -320,79 -126,24 -205,101 -343,64 -113,-30 -152,-36 -268,-48 -80,-8 -108,11 -193,26 -28,5 -82,-15 -116,-26 -170,-54 -220,-81 -358,-64l0 0c-6,-12 -2,-31 4,-44 32,-68 89,-41 115,-135 1,-7 4,-18 7,-25 49,-128 -48,-72 13,-187 21,-39 22,-27 43,-51 36,-41 5,-68 -24,-96 -83,-79 9,-65 -105,-106 -39,-14 -27,-69 -18,-99 10,-30 41,-62 34,-83 -2,-5 -37,-56 -40,-60 -6,-6 -13,-13 -20,-19 -108,-97 -34,-135 -70,-162 -57,-43 -156,40 -191,-65 -18,-54 -37,-55 -67,-93 -39,-49 -136,-88 -163,-127 -9,-13 -21,-104 -18,-123 5,-29 18,-88 -3,-114 -26,-33 -38,-51 -62,-89 -3,-8 -14,-21 -20,-27 -89,-88 -29,-151 -82,-225 -32,-45 17,-106 -1,-169 -11,-37 -4,-81 -2,-120 2,-36 -8,-55 -34,-80 -29,-28 -16,-95 -11,-130 3,-13 5,-26 4,-39 -7,-73 -34,-51 -79,-68 -21,-8 -37,-2 -41,-22 -12,-56 6,-94 25,-142 14,-34 46,-67 47,-97 1,-30 -3,-43 2,-77 3,-21 24,-78 35,-98 21,-41 -3,-88 35,-104 71,-28 52,-49 51,-122 -2,-36 -13,-60 -23,-92 -14,-47 -23,-68 -41,-112 -11,-27 9,-52 31,-66 63,-40 63,-5 144,-81l0 0 81 69c66,39 88,45 159,51 27,2 77,46 129,58 35,8 94,48 106,85 33,103 183,115 104,186 -105,94 35,91 35,187 0,177 50,114 73,136 12,12 56,23 39,69 -10,28 -1,47 2,73 12,52 13,95 24,139 6,25 36,-12 69,-25 55,-23 36,-43 86,-22 14,6 78,-29 126,-28 108,2 63,-2 110,55 28,34 -43,96 46,151 53,33 80,172 127,184 85,22 73,114 156,136 40,10 107,51 58,94 -37,32 -34,35 -80,66 -56,37 -139,109 -192,135 -29,14 -94,71 -42,91 11,4 56,39 35,61 -15,49 -30,96 -48,143 -15,39 -35,94 24,46 44,-35 24,-25 77,-53 46,-24 94,-64 148,-62 87,4 89,-164 176,-192 84,-28 76,-115 117,-169 5,-7 8,-14 14,-20 59,-102 38,-74 65,-156 11,-33 103,-64 143,-185 12,-35 24,-59 26,-97 3,-58 77,-40 112,-135 20,-54 17,-77 14,-135 -2,-32 -32,-49 -26,-129 10,-161 -196,-269 -93,-369 90,-87 41,-134 50,-155 24,-62 14,-71 -15,-139 -4,-10 -7,-20 -12,-29l4 -104c2,-15 15,-43 24,-56 26,-36 46,-35 34,-74 -32,-101 134,-88 179,-109 133,-62 176,-128 158,-275l0 0c62,16 111,41 174,61 74,24 100,6 167,52 19,13 95,57 115,58 57,4 231,6 244,-71 6,-33 20,-65 30,-97 33,-102 -114,-178 -39,-218 93,-50 -4,-70 48,-128 23,-25 89,31 165,15 68,-14 73,-24 130,-47 113,-47 190,50 281,7 51,-24 84,-3 131,19 35,16 21,120 172,59 20,-8 43,-11 64,-11l97 0 0 0z"/>
  <path class="fil1 str0" d="M18018 9843c98,23 60,22 131,17 100,-7 69,-75 106,-152 21,-44 31,8 57,-68 15,-45 86,-123 116,-179 34,-61 37,-148 97,-38 50,92 188,24 251,-13 72,-42 113,69 210,69 137,0 207,9 340,57 15,5 62,12 77,13 126,5 75,18 155,45 118,40 122,-60 250,57 56,51 133,25 194,50 30,12 152,-21 195,-19l0 0c4,16 6,32 6,42 31,145 -35,39 -64,95 -2,5 45,135 -91,145 -22,2 -69,28 -48,68 13,24 26,97 11,128l0 0c-39,79 -71,10 -107,37 -25,20 -94,50 -126,49 -8,0 -122,57 -123,60 -16,36 50,59 22,147 -15,48 52,40 101,80 51,41 -24,62 38,165 97,161 -46,208 -63,360 -5,42 -20,93 -24,139 -10,156 -13,174 79,296 33,44 94,107 56,165 -35,53 -75,65 -42,148 42,104 41,61 41,185 0,127 73,146 49,308 -18,124 2,191 138,195 53,1 136,55 73,124 -23,25 -50,90 -50,90l-17 52 0 0c-8,0 -34,1 -40,0 -68,-8 -182,42 -232,17 -38,-19 -42,-18 -75,-32 -52,-22 -149,63 -199,2 -32,-39 -125,-2 -153,-42 -35,-50 -113,9 -123,29 -43,87 -137,72 -212,97 -91,30 -106,16 -202,12l0 0c3,-32 -20,-35 5,-97 27,-66 63,-161 61,-234 -4,-136 15,-96 47,-193 25,-75 7,-47 2,-104 -2,-25 -26,-68 -36,-99 -41,-126 -39,-117 -145,-207l0 0c5,-4 68,-20 75,-24 76,-53 -22,-72 -1,-121 12,-26 129,-93 146,-106 27,-30 35,-48 80,-52 90,-9 -9,-57 44,-131 45,-64 -34,-121 -72,-167 -28,-34 8,-151 22,-189 36,-99 -31,-146 13,-227 38,-70 -49,-93 -64,-184 -18,-109 -122,-71 -174,-80 -47,-9 -135,23 -177,43 -115,54 -96,-24 -182,-21 -114,4 -118,-44 -176,-135 -1,-5 -5,-10 -6,-16 -23,-115 -53,-43 -103,-147 -40,-83 -119,23 -157,-3 -110,-74 -58,-211 -102,-252 -54,-51 63,-207 93,-252l0 0z"/>
  <path class="fil1 str0" d="M18759 11908c106,91 104,81 145,207 10,30 33,74 36,99 5,57 23,28 -2,104 -32,96 -51,57 -47,193 2,72 -34,167 -61,234 -25,62 -2,65 -5,97l0 0c0,37 -6,99 8,135 12,30 -34,34 38,147 15,23 97,126 98,130 9,27 29,45 -7,82 -33,34 -64,20 -109,97 -11,18 -56,60 -84,60 -87,-3 -80,136 -134,169 -60,37 -9,161 -107,179 -21,4 -65,32 -100,40 -12,3 -22,9 -30,17l0 0c-2,0 -63,-23 -64,-23 -95,-48 -185,-40 -291,-27 -12,-4 -16,-7 -25,-16 -69,-71 -84,-165 -57,-256 38,-127 -76,-135 -52,-216 28,-93 79,-48 30,-166 -6,-14 -66,-90 -77,-100 -40,-37 -71,-108 -92,-127 -27,-25 -45,-58 -64,-80 -36,-41 -16,-51 -33,-93 -11,-26 -8,-159 -65,-129 -63,34 -115,28 -156,70 -56,56 -36,139 -82,166 -60,36 -38,59 -31,140l0 0 -105 -52c0,0 -66,-46 -68,-47 -72,-40 -54,-61 -120,-107 -54,-38 -34,-43 -52,-65 -39,-46 -19,-25 -37,-72 -14,-39 3,-72 -20,-90 -67,-53 -151,51 -197,75 -198,101 -104,-106 -214,-78 -38,10 -55,-33 -56,-60 -1,-32 -73,-64 -101,-64 -85,2 -51,-32 -72,-71 -60,-111 -57,-81 -30,-214 12,-61 -64,-38 18,-174l-6 -123 0 0c18,-56 15,-61 68,-73 101,-23 91,-94 150,-125 40,-21 75,-67 93,-108 24,-53 78,-32 121,-88 11,-15 29,-27 44,-48 3,-4 4,-6 9,-8l0 0 95 -11 0 0c40,19 118,40 116,92 -2,38 12,72 53,75 51,3 67,102 113,134 18,12 89,145 102,173 15,32 65,104 98,115 81,28 131,-6 223,30 32,12 47,12 84,34 32,19 82,35 93,-15 15,-70 97,-127 171,-124 56,2 101,-95 159,-35 59,62 98,14 140,-30 52,-53 63,-15 137,-58 53,-31 114,46 174,63 102,30 13,97 160,27 29,-14 44,-7 74,-7l0 0z"/>
  <path class="fil1 str0" d="M17040 9585c-3,5 -5,8 -8,13 -84,130 -54,79 -145,161 -42,38 -72,21 -92,36l0 0c-8,6 -15,17 -20,39 -12,45 -27,39 -7,99 35,107 -65,150 -5,258 37,66 82,194 -53,155 -97,-28 -16,85 -121,110 -108,25 -54,111 -89,146 -6,6 -88,115 -28,112 44,-3 154,12 177,55 22,42 54,82 69,121l2 7c76,138 53,60 104,110 56,56 -49,126 22,192 30,28 24,90 24,128l-8 109 0 0c40,19 118,40 116,92 -2,38 12,72 53,75 51,3 67,102 113,134 18,12 89,145 102,173 15,32 65,104 98,115 81,28 131,-6 223,30 32,12 47,12 84,34 32,19 82,35 93,-15 15,-70 97,-127 171,-124 56,2 101,-95 159,-35 59,62 98,14 140,-30 52,-53 63,-15 137,-58 53,-31 114,46 174,63 102,30 13,97 160,27 29,-14 44,-7 74,-7l0 0c5,-4 68,-20 75,-24 76,-53 -22,-72 -1,-121 12,-26 129,-93 146,-106 27,-30 35,-48 80,-52 90,-9 -9,-57 44,-131 45,-64 -34,-121 -72,-167 -28,-34 8,-151 22,-189 36,-99 -31,-146 13,-227 38,-70 -49,-93 -64,-184 -18,-109 -122,-71 -174,-80 -47,-9 -135,23 -177,43 -115,54 -96,-24 -182,-21 -114,4 -118,-44 -176,-135 -1,-5 -5,-10 -6,-16 -23,-115 -53,-43 -103,-147 -40,-83 -119,23 -157,-3 -110,-74 -58,-211 -102,-252 -54,-51 63,-207 93,-252l0 0c-32,-8 -36,-13 -72,-5 -50,11 -240,42 -283,24 -48,-20 -55,12 -90,33 -41,24 -100,161 -174,40 -31,-51 4,-23 -54,-81 -49,-49 37,-155 20,-188 -7,-15 -136,14 -159,16 -57,4 -46,4 -65,-69l-100 -29 0 0z"/>
  <path class="fil1 str0" d="M19886 6925c-16,31 -26,70 -38,97 -13,30 -20,41 -48,63 -6,6 -11,11 -17,17 -27,29 -39,33 -67,55 -41,31 -54,29 -97,48 -45,20 -68,14 -107,24 -37,9 -98,3 -127,13 -38,14 -35,43 -39,70 -16,109 -71,37 -115,131 -14,30 -59,58 -86,77 -29,21 -47,27 -74,43 -49,29 -54,14 -96,65 -26,32 -15,34 -66,34 -8,0 -33,-9 -41,-12 -33,-14 -79,-12 -100,-30 -24,-20 -65,-25 -95,-25 -30,0 -63,-11 -83,-36 -31,-40 -92,75 -98,96 -12,42 -51,85 -92,48l0 0 -49 87c-69,115 -31,43 -42,132 -12,96 -118,78 -133,92 -7,6 -25,2 -44,24 -33,37 -176,11 -198,104 -11,47 -47,80 -93,48 -18,-13 -56,6 -75,15 -50,22 -19,29 -106,51 -36,9 -54,78 -152,101 -51,12 -19,73 -109,122 -56,31 -114,116 -41,158 33,19 16,73 13,99 -16,56 -11,69 -60,75 -65,8 -119,59 -165,38 -47,-21 -59,-25 -89,35 -44,88 -115,12 -167,73 -22,26 18,34 18,88 0,139 88,-5 155,75 43,51 79,68 142,40 34,-15 151,-32 188,-9 89,56 105,-13 -4,147 -49,72 -151,-20 -207,64 -25,37 0,48 -71,73 -59,21 -50,113 -71,150l0 0 100 29c19,73 8,72 65,69 23,-2 152,-30 159,-16 17,33 -69,139 -20,188 59,59 23,30 54,81 74,120 133,-16 174,-40 36,-21 42,-53 90,-33 43,18 234,-13 283,-24 35,-8 40,-3 72,5l0 0c98,23 60,22 131,17 100,-7 69,-75 106,-152 21,-44 31,8 57,-68 15,-45 86,-123 116,-179 34,-61 37,-148 97,-38 50,92 188,24 251,-13 72,-42 113,69 210,69 137,0 207,9 340,57 15,5 62,12 77,13 126,5 75,18 155,45 118,40 122,-60 250,57 56,51 133,25 194,50 30,12 152,-21 195,-19l0 0c-5,-19 -12,-37 -22,-43 -35,-21 -16,-58 6,-79 45,-42 -59,-109 -92,-116 -83,-19 3,-131 35,-151 56,-34 49,-76 63,-145l5 -8c21,-59 46,-161 -38,-180 -110,-25 -65,-149 -93,-223 -20,-50 -26,-102 -52,-143 -16,-25 -12,-21 -22,-44 -11,-25 8,-86 11,-115 7,-63 -17,-41 -51,-75 -58,-58 -24,-169 13,-229 81,-134 49,-73 62,-234 -4,-27 -23,-78 -17,-103 24,-103 -35,-74 -32,-122 4,-50 7,-33 0,-86 -8,-64 16,-118 -51,-155 -46,-26 -31,-107 -7,-130 58,-53 21,-57 15,-104 -2,-15 23,-58 24,-99 1,-34 -14,-90 -20,-117l-51 -58 0 0z"/>
  <path class="fil1 str0" d="M18201 14640l111 -12c118,7 109,35 201,47 80,11 34,-23 148,18 47,17 34,-3 86,32 40,27 121,-92 218,-6 53,46 181,-10 267,12 73,19 152,-5 219,-30 83,-31 108,49 247,-2 39,-14 145,-9 179,13 57,38 152,4 238,50 37,20 107,38 145,67 7,6 65,26 95,46 4,3 173,57 180,60l0 0c-23,54 -13,43 -53,98 -9,27 -27,43 -47,63 -86,85 -28,135 -52,234 -17,71 3,77 2,135 0,27 5,41 6,62 1,44 -2,88 -20,128 -15,32 13,67 28,97 -5,24 18,46 13,92 -14,142 -182,141 -233,238 -13,25 -25,43 -39,68 -29,50 -68,11 -76,35 -16,47 -22,75 31,99 46,21 28,70 2,100 -54,64 32,81 -18,125 -24,21 -22,27 -40,56 -6,12 -13,67 -14,82 -7,56 21,72 -14,127 -20,33 25,23 -1,89 -14,34 -40,59 -60,98 -16,33 -12,40 -18,70 -6,29 -1,38 -1,66 0,42 20,27 0,83 -15,41 10,73 -14,90 -18,13 -59,-4 -81,-10 -32,-9 -60,-12 -76,-41 -20,-38 -49,9 -71,11 -45,4 -46,-87 -165,-91 -28,-1 -54,1 -60,-27 -5,-23 -34,-4 -44,6 -21,21 -13,25 -48,55 -9,16 -15,29 -16,47 -4,67 -36,59 -68,118 -71,131 4,130 -7,239 0,4 2,24 1,25 -6,16 -67,-51 -115,-50 -73,1 -13,-56 -104,-44 -47,6 -89,99 -143,9 -42,-70 -116,-27 -149,-37 -22,-7 -10,-88 -8,-106 5,-51 -33,-53 -76,-64 -51,-13 -113,-74 -158,-53 -37,17 -48,137 -81,160 -9,6 -68,12 -88,17 -44,12 -67,13 -112,21 -8,1 -11,2 -19,5 -46,15 -84,35 -133,46 -40,9 -89,-16 -114,-48 -20,-26 -26,-30 -49,-52 -21,-21 -45,-33 -62,-50 -25,-26 -36,-35 -43,-35l0 0 -19 -77c0,-6 1,-34 -1,-37 -8,-18 16,-95 23,-110 19,-43 5,-88 -29,-118 -49,-42 -39,-91 -106,-117 -108,-43 -192,-74 -156,-207 24,-90 6,-72 -26,-120 -1,-1 -9,-83 -9,-85 2,-44 -82,-38 -108,-21 -96,62 -106,-25 -42,-104 89,-110 92,-87 115,-241 2,-26 4,-54 6,-80 10,-96 -23,-126 -72,-198 -37,-54 -163,-90 -132,-162 29,-67 -21,-124 5,-177 39,-80 7,-76 16,-103 3,-10 8,-16 13,-21l0 0c31,-26 88,29 117,20 66,-19 68,19 101,52 25,24 38,71 57,65 132,-44 108,56 198,0 4,-3 91,-93 95,-99 63,-79 69,9 103,-11 40,-23 57,-73 56,-118 -1,-68 29,-63 31,-87 3,-33 -22,-79 -22,-134 0,-109 10,-76 42,-155 16,-38 0,-79 13,-99 50,-74 89,36 103,-137l0 0z"/>
  <path class="fil1 str0" d="M12771 15293c28,10 44,-12 46,-41 2,-13 -1,-29 -8,-43 -34,-77 15,-142 98,-112 72,26 118,-30 168,-49 6,-6 67,-86 85,-90 19,-5 103,19 82,-69 -18,-78 -27,-91 -57,-167l0 0 101 -32c91,-23 92,-36 130,18 16,23 74,0 104,14 62,29 193,-22 249,-9 0,0 16,9 20,26 10,40 -2,99 13,149 3,9 -6,166 -10,181 -9,33 -93,83 -57,165 24,53 102,-83 110,18 3,32 22,99 68,62 36,-29 68,-43 114,-47 44,-4 80,47 124,71 54,-32 74,-62 132,-65 27,-1 125,-64 182,-78 58,-14 120,-60 170,14 11,16 -10,91 93,68 49,-11 46,-16 101,-16l0 0c89,33 45,17 96,21 24,2 36,89 132,77 84,-10 46,40 168,-36 49,-30 123,-52 151,15 6,16 97,57 94,-30 -2,-47 46,-64 71,-79 110,-64 49,-169 125,-219 27,-18 42,51 115,60 66,8 129,71 146,132 15,56 79,77 132,62 70,-20 12,-49 35,-143 14,-57 11,-200 67,-222 16,-6 104,-16 148,-31l12 -4c63,-30 65,-25 81,-79 14,-49 37,-99 84,-127 28,-16 185,-149 190,-169l0 0c4,1 134,31 160,33 48,3 68,34 38,77 -17,24 -45,106 -23,130 18,20 -55,122 -64,153 -16,52 -22,82 43,98 46,12 129,-26 137,42 10,79 34,169 121,192 93,24 145,63 218,124l0 0c-5,4 -10,11 -13,21 -9,27 23,23 -16,103 -26,53 24,110 -5,177 -31,72 95,108 132,162 50,71 82,101 72,198 -3,25 -4,54 -6,80 -23,153 -26,131 -115,241 -64,79 -53,166 42,104 26,-17 110,-23 108,21 0,2 8,84 9,85 32,48 50,30 26,120 -36,133 48,164 156,207 66,26 57,75 106,117 35,30 49,76 29,118 -7,15 -31,93 -23,110 2,4 1,32 1,37l19 77 0 0c-13,0 -12,35 -67,55 -68,25 18,86 -133,162 -104,52 -26,110 -103,114 -66,4 -142,35 -171,99 -19,41 -14,65 -46,102 -9,29 -8,54 -25,81 -25,40 -25,48 -38,90 -16,52 6,60 11,98 8,56 -11,82 -45,122 -23,27 -63,38 -71,71 -15,59 42,100 6,138 -19,21 -21,34 -35,50 -36,42 -27,54 -81,31 -32,-14 -24,-13 -50,-30 -17,-12 -46,-22 -67,-23 -37,-1 -54,-48 -61,-78 -4,-9 -9,-18 -13,-26 -13,-26 -19,-32 -31,-54 -45,-77 -113,-48 -153,-106 -49,-70 -84,-39 -154,-50 -32,-5 -62,-3 -91,-9 -43,-8 -56,-14 -74,-55 -11,-25 -40,-37 -64,-45 -32,-11 -16,-58 6,-73 40,-27 34,-33 56,-72 34,-58 36,-104 28,-172 0,-15 -1,-37 -3,-52 -8,-61 31,-78 13,-135 -22,-71 75,-118 68,-135 -9,-21 -51,5 -83,-7 -23,-9 -52,-6 -76,-1 -201,38 -141,-39 -220,-58 -61,-15 -60,-75 -83,-65 -37,16 -45,76 -90,111 -23,18 -92,32 -121,30 -113,-9 -93,-62 -167,-83 -91,-27 -54,-108 -79,-147 -22,-33 -39,-52 -31,-98 9,-49 34,-81 46,-134 -2,-14 -3,-26 -3,-40 -2,-46 -7,-73 -13,-117 -9,-71 -64,-139 -120,-182 -58,-45 -62,-58 -134,-72 -31,-6 -93,21 -109,15 -58,-21 85,-175 -3,-162l0 0c-28,-57 -193,-166 -219,-263 -21,-79 -109,-99 -118,-156 -28,-171 -124,-16 -179,-16 -27,0 -131,-42 -150,-62 -74,-74 -62,-81 -96,-197 -2,-5 -4,-10 -7,-16 -22,-48 -23,-104 -79,-75 -72,37 -208,8 -182,114 22,89 5,63 -64,84 -57,17 -94,1 -145,18 -30,10 -60,10 -67,12 -32,10 -105,-3 -155,10 -82,21 -92,-33 -121,-97 -25,-55 -67,-99 -131,-99 -25,0 -88,-17 -108,-29 -44,-25 -42,61 -74,93 -86,86 -88,-32 -106,-66 -32,-60 7,-81 -20,-114 -29,-36 -13,-56 -52,-73 -21,-9 -14,-96 -68,-96 -57,0 -52,-6 -84,-40 -9,-10 -106,30 -110,31l-47 -81 0 0z"/>
  <path class="fil1 str0" d="M17340 13039c-26,43 -34,67 -79,70 -61,4 -52,142 -185,68 -116,-65 -132,46 -193,78 -60,32 -62,43 -136,63 -196,54 -111,147 -282,166 -72,8 -37,49 -87,93 -9,8 -66,72 -72,81l-164 133 0 0c68,-3 220,-26 290,-55 24,-10 94,-16 141,-34 48,-19 23,70 52,122 12,21 21,53 44,73 9,8 48,57 56,71 32,59 34,69 1,135 -17,34 -45,37 -61,102 -5,21 -19,48 -26,75l38 211 0 0c4,1 134,31 160,33 48,3 68,34 38,77 -17,24 -45,106 -23,130 18,20 -55,122 -64,153 -16,52 -22,82 43,98 46,12 129,-26 137,42 10,79 34,169 121,192 93,24 145,63 218,124l0 0c31,-26 88,29 117,20 66,-19 68,19 101,52 25,24 38,71 57,65 132,-44 108,56 198,0 4,-3 91,-93 95,-99 63,-79 69,9 103,-11 40,-23 57,-73 56,-118 -1,-68 29,-63 31,-87 3,-33 -22,-79 -22,-134 0,-109 10,-76 42,-155 16,-38 0,-79 13,-99 50,-74 89,36 103,-137l0 0c-2,-14 -5,-19 -9,-33 -13,-38 -38,-95 18,-119 75,-34 -24,-102 116,-133 163,-36 18,-76 -1,-94 -58,-58 -85,-18 -112,-27 -132,-42 -88,-79 -123,-97 -30,-15 -64,-66 -84,-78 -82,-48 84,-48 93,-46 65,11 111,-13 156,-7 65,8 22,14 121,7 3,-4 8,-19 6,-24 -13,-33 -5,-70 17,-91l0 0c-2,0 -63,-23 -64,-23 -95,-48 -185,-40 -291,-27 -12,-4 -16,-7 -25,-16 -69,-71 -84,-165 -57,-256 38,-127 -76,-135 -52,-216 28,-93 79,-48 30,-166 -6,-14 -66,-90 -77,-100 -40,-37 -71,-108 -92,-127 -27,-25 -45,-58 -64,-80 -36,-41 -16,-51 -33,-93 -11,-26 -8,-159 -65,-129 -63,34 -115,28 -156,70 -56,56 -36,139 -82,166 -60,36 -38,59 -31,140l0 0z"/>
  <path class="fil1 str0" d="M9020 8862c0,0 27,95 36,110 16,26 9,64 -17,86 -37,30 7,95 -46,112 -14,5 -114,78 -119,97 -2,8 -24,55 -29,75 -28,109 -82,218 -209,223 -19,1 -81,53 -145,36 -67,-18 -63,-20 -124,-51 -96,-49 -82,70 -157,76 -47,4 -66,121 -108,144 -22,12 -17,20 -58,28 -77,13 -92,-24 -169,1 -50,16 -132,24 -182,9 -28,-9 -133,36 -226,4 -38,-13 -106,-13 -76,49 7,15 11,32 11,49 29,109 27,51 77,92 52,42 -22,119 0,176 20,53 84,31 78,160 -2,39 50,87 46,187 0,4 3,52 2,54l0 0c-13,1 -27,2 -43,0 -66,-9 -102,-33 -128,-95 -10,-24 -20,-40 -33,-62 -87,-148 -128,-92 -192,-157 -55,-57 -54,-44 -130,-68 -19,7 -27,12 -48,17 -98,25 -133,75 -237,28 -43,-19 -47,-37 -77,-56 -26,-16 -33,-25 -55,-42 -34,-27 -51,-43 -89,-65 -31,-18 -96,-37 -113,-51 -35,-28 -34,-23 -71,-41 -35,-17 -129,24 -144,-27 -11,-37 -4,-51 -19,-91 -6,-13 -15,-22 -24,-33 -13,-16 -72,-59 -91,-72 -32,-21 -69,-73 -80,-108 -12,-36 -15,-33 -34,-62 -21,-33 -17,-20 -40,-43 -29,-30 -36,-31 -69,-50 -20,-12 -88,-25 -110,-36 -63,-32 -110,-11 -110,-98 0,-12 -8,-37 -10,-54 -9,-109 -77,-66 -97,-112 -21,-49 13,-50 -45,-83 -74,-42 -29,-41 -55,-87 -21,-38 6,-80 34,-107 41,-40 89,-114 17,-151 -44,-23 14,-42 37,-41 20,0 60,-13 69,-1 29,36 26,23 67,37 26,9 29,7 53,13 43,10 23,6 65,3 50,-4 68,-56 116,-74 73,-27 59,-64 132,-83 80,-21 131,123 146,57 9,-40 -4,-39 15,-90l2 -2c42,-40 36,-67 27,-121 -18,-110 48,-125 24,-206 -23,-79 -35,-180 -26,-262l0 0 124 70c53,128 63,72 82,110 26,53 6,28 59,59 34,20 50,25 88,38 25,8 43,28 90,41 61,16 57,-1 118,-30 63,-30 69,-58 128,-36 41,15 75,-43 127,72 31,70 86,48 80,-25 -6,-64 27,-112 24,-188 -1,-22 29,-97 68,-81 25,10 48,-10 91,0 61,14 203,-50 240,65 11,35 77,56 113,59 83,7 37,76 159,51 9,-2 154,8 164,21 14,19 -72,268 111,63 10,-11 26,-15 40,-17 123,34 59,36 119,65 47,23 80,15 136,32 50,14 76,8 82,60 14,113 18,60 126,107 125,55 -13,113 84,139 40,11 62,-2 112,31 27,17 52,24 64,53 8,18 83,17 130,79 3,4 19,19 22,21l0 0z"/>
  <path class="fil1 str0" d="M10489 10140c2,31 14,172 50,194 21,12 101,79 113,98 52,87 13,149 40,195 20,35 23,55 62,85 28,22 22,27 65,36 26,5 121,69 125,103 12,104 26,161 19,270 -38,51 -45,75 -90,44 -62,-43 -151,61 -170,-1 -6,-19 -21,8 -55,-36 -8,-10 -85,-40 -102,-23 -26,26 -57,8 -101,14 -45,7 -196,-20 -118,87 36,49 -56,103 -91,90 -48,-18 -132,47 -165,-2 -28,-42 -120,-42 -166,-10 -66,44 -88,-4 -131,30 -23,18 -51,80 -39,109 10,24 -24,79 -24,108l0 0 -28 -40c-2,-1 -3,-1 -4,-2 -33,-27 -30,-9 -55,-17 -24,-7 -55,0 -79,7 -29,9 -72,33 -94,53l0 0c-47,43 -49,40 -108,40 -67,0 -91,45 -149,29 -60,-16 -10,-27 -90,-19 -24,0 -44,-1 -57,-24 -18,-33 -72,-55 -107,-49 -24,5 -108,14 -131,10 -31,-5 -61,-4 -92,-4 -28,0 -40,3 -65,5 -61,4 -58,-27 -103,-27 -27,0 -90,20 -100,16 -31,-12 -25,9 -54,-38l-5 -86 0 0c30,-12 31,-32 6,-79 -20,-18 -100,-44 -96,-71 7,-47 66,-60 87,-80 29,-27 -5,-61 -31,-76 -72,-41 -22,-63 -101,-106 -28,-16 -57,-36 -80,-58 -26,-24 -38,-34 -65,-57 -76,-63 -157,73 -180,-45 -7,-41 -12,-63 19,-95 47,-48 -18,-68 -57,-69 -32,0 -128,-20 -151,-41 -58,-52 -90,-36 -137,-31l0 0c0,-2 -2,-51 -2,-54 3,-100 -48,-148 -46,-187 6,-129 -57,-107 -78,-160 -22,-57 52,-134 0,-176 -50,-41 -48,17 -77,-92 0,-17 -3,-33 -11,-49 -30,-61 38,-62 76,-49 94,32 198,-13 226,-4 50,16 132,8 182,-9 77,-25 92,12 169,-1 41,-7 35,-15 58,-28 42,-23 61,-140 108,-144 75,-6 61,-125 157,-76 61,31 57,32 124,51 64,17 126,-35 145,-36 127,-4 181,-114 209,-223 5,-19 27,-67 29,-75 5,-19 105,-92 119,-97 54,-18 10,-82 46,-112 26,-22 34,-60 17,-86 -9,-15 -36,-110 -36,-110l0 0c54,-10 55,-5 102,-5 61,0 76,26 158,9 57,-12 109,-40 169,-23 11,3 87,4 100,1 3,-1 118,5 124,5l0 0c15,17 30,60 35,83 20,96 94,44 74,232 -3,26 -7,51 -9,78l-1 10c-11,72 -9,69 29,122 17,25 21,15 32,52 10,36 25,51 55,69 45,27 13,85 20,125 16,91 -29,68 -50,150 -9,34 33,52 54,88 16,28 20,21 32,59 15,46 55,96 103,53 56,-50 121,-52 185,-18 20,11 56,19 71,36 42,46 43,21 72,39 32,20 15,24 51,43 16,8 53,21 54,37 1,6 11,23 12,32l0 0z"/>
  <path class="fil1 str0" d="M7722 6756l126 17c77,-89 -4,-64 58,-123 29,-28 28,-121 112,-158 37,-16 27,-23 71,-29 33,-4 87,-50 105,-81 42,-69 88,-152 167,-68 46,49 132,22 173,-20 73,-76 132,30 190,-142 12,-36 45,-55 66,-116 2,-5 3,-8 6,-12 26,-65 30,-86 20,-150 -4,-28 19,-79 38,-100 28,-31 74,-109 27,-142 -70,-50 88,-75 -44,-152 -33,-19 -22,-112 -109,-180 -53,-41 -110,-143 -43,-196 85,-67 -13,-118 156,-181 53,-20 50,-53 87,-102 6,-8 11,-16 16,-24l24 -165 0 0c-7,-1 -15,-4 -22,-10 -24,-19 -68,-48 -94,-63 -12,-7 -37,-12 -50,-15 -55,-15 -102,-17 -158,-25 -95,-14 -108,-22 -185,-70 -7,-4 7,-33 9,-35 16,-18 32,-96 31,-121 -1,-19 23,-68 36,-77 38,-26 61,-90 64,-134 1,-22 22,-84 30,-108 28,-83 19,-68 23,-157 -5,-37 -3,-101 4,-138 6,-36 11,-65 14,-102 2,-32 1,-63 0,-94 -2,-57 -5,-68 -21,-123 -6,-21 -29,-54 -32,-64 -12,-38 -43,-74 -58,-115 -7,-24 -28,-46 -39,-70 -18,-38 -45,-72 -63,-109 -19,-36 -39,-61 -59,-94 -23,-37 -17,-26 -44,-53 -23,-23 -76,-33 -107,-32 -39,1 -78,-5 -117,-8 -10,-1 -115,-20 -122,-22 -46,-15 -134,-24 -182,-23 -29,1 -65,-7 -92,-8 -50,-2 -98,-18 -144,-36 -36,-18 -53,-27 -86,-49 -25,-17 -84,-30 -113,-24 -50,9 -147,8 -197,-4 -51,-13 -81,-14 -131,-19 -27,-3 -56,-3 -83,-12 -36,-12 -162,-33 -183,-49 -33,-26 -46,-45 -57,-87 -1,-13 -8,-36 -12,-49 -11,-40 -7,-42 -31,-77 -18,-27 -28,-29 -42,-47 -26,-33 -81,-50 -88,-63 -28,-48 -92,9 -113,36 -38,50 -64,-44 -65,-68 -1,-21 -6,-62 -24,-75 -14,-10 -109,-3 -146,-36 -15,-13 -38,-27 -54,-36 -26,-8 -34,-18 -42,-46 -7,-22 -20,-40 -28,-64 -7,-21 2,-50 -2,-54 -13,-14 -59,-15 -77,-11 -79,14 -59,-37 -89,-27 -53,17 -54,116 -79,155 -31,49 -31,36 -74,56 -82,39 -41,75 -79,116 -3,4 -45,51 -45,51 -7,10 -39,37 -49,41 -16,7 -31,22 -46,31 -40,25 -31,31 -80,30 -18,0 -61,-23 -74,-34 -15,-13 -65,-17 -81,-13 -34,9 -68,3 -103,-1l-105 -35c-19,12 -39,21 -53,26 -125,41 -102,13 -207,29 -52,8 -108,108 -96,152 29,112 38,174 -41,267l0 0c-9,11 -19,27 -28,45 9,60 2,46 0,97 -2,54 5,85 42,127 21,24 84,-4 105,-18 20,-12 36,-18 56,-32 25,-17 70,-36 101,-32 82,12 102,92 70,160 -22,46 -81,76 -89,137 -6,43 -12,25 0,74l1 6c34,48 46,40 90,68 28,18 96,24 131,46 43,27 52,10 66,73 13,58 46,94 89,130 36,31 47,81 23,122 -27,49 -60,62 -89,108 -29,45 -46,55 -59,114 -2,8 -3,14 -4,22 -26,70 -33,38 -55,69 -23,32 19,21 9,86 -4,26 -4,82 38,70 43,-12 60,-1 102,-18 47,-19 124,-41 170,-10 26,18 10,46 -11,63 -25,19 -47,40 -29,74 18,35 49,8 75,52 25,43 122,28 117,83 -9,90 -50,100 7,190 22,34 10,56 10,94l-1 10c15,46 35,120 -10,155 -18,14 -47,55 -29,74 36,39 35,31 32,84 -2,43 35,41 38,94 3,71 50,66 91,119 17,22 72,51 98,34 33,-21 64,-85 87,-88 15,-2 17,23 51,32 132,34 52,72 68,145 8,35 8,39 23,74 31,50 44,47 88,77 43,29 97,-1 108,-50 5,-23 37,-113 65,-106 65,17 117,-101 191,-19 65,71 126,35 92,161 -30,110 27,129 10,217 -8,42 -56,115 -82,149 -17,22 -26,57 -32,84 9,24 51,121 86,116 45,-7 37,-81 92,-82 21,0 16,-7 47,-4 55,7 105,-28 135,39 11,26 8,37 26,68 36,61 58,192 99,230 51,47 61,-9 140,22 65,25 54,37 138,45 27,3 52,23 55,50 2,20 18,100 22,108 11,28 28,52 17,70l0 0 21 75c-2,5 -48,84 -27,84 18,0 27,-17 41,-30 19,-18 40,-34 62,-51 17,-13 48,-55 70,-62 54,-17 28,2 81,19 35,12 103,25 78,77l0 0z"/>
  <path class="fil1 str0" d="M11395 5947l15 136c-1,15 3,134 -3,148 -21,52 -8,71 -66,104 -33,19 -72,89 9,85 10,0 79,40 81,71 0,4 10,19 13,20l0 0c-14,130 8,56 11,134 2,46 -55,118 -64,167 -32,174 -104,104 -113,177 -16,134 -29,63 -68,142 -27,55 2,122 -35,154 -45,40 -94,47 -124,84 -36,45 121,177 121,228 0,62 29,92 79,124 44,27 87,26 106,85 22,68 156,65 165,172 0,1 2,5 2,7l25 129 0 0c-38,0 -171,53 -193,-4 -17,-44 -83,-67 -94,-45 -39,83 70,91 89,106 106,84 79,16 43,116 -18,51 -87,114 -143,91 -71,-29 -81,13 -115,12 -71,-2 -87,-103 -97,-152 -14,-68 -149,59 -150,59 -5,0 -31,4 -36,6 -100,28 -62,15 -143,-5 -49,-12 -73,-53 -110,-42 -60,18 -58,8 -105,-10 -56,-22 -75,-60 -141,-52 -55,7 -105,103 -170,65 -71,-41 -57,-15 -90,-26 -9,-3 -197,11 -204,13 -42,13 -63,5 -98,5 -52,0 -52,-23 -84,9 -20,20 -48,68 -57,95 -23,69 -30,69 -71,139l-36 124 -7 -9c-16,-9 -49,-45 -60,-56 -31,-42 -60,-43 -98,-69 -16,-11 -29,-15 -42,-22 -16,-10 -40,-15 -54,-22 -66,-34 -47,-106 -58,-156 -7,-29 -63,-78 -87,-91 -40,-21 -78,-41 -118,-62 -60,-31 -48,-40 -81,-88 -8,-11 -88,-128 -90,-133 -10,-24 -16,-37 -29,-61 -3,-8 -3,-8 -7,-15 -12,-24 -38,-108 -50,-121 -57,-58 -128,-55 -183,-132 -17,-24 -34,-42 -50,-65 -39,-53 -94,-9 -133,19 -34,25 -48,41 -77,68 -115,107 -125,-36 -166,-106 -17,-30 -14,-19 -28,-54 -9,-23 1,-62 -13,-66 -57,-19 -116,59 -136,-21 -12,-49 7,-57 -26,-102 -22,-30 -42,-38 -71,-79 -7,-9 -12,-16 -19,-25 -28,-34 -36,-81 -24,-124 8,-30 -5,-61 -33,-73 -74,-31 -55,-81 -76,-102 -27,-28 -27,-62 -10,-96l0 0 126 17c77,-89 -4,-64 58,-123 29,-28 28,-121 112,-158 37,-16 27,-23 71,-29 33,-4 87,-50 105,-81 42,-69 88,-152 167,-68 46,49 132,22 173,-20 73,-76 132,30 190,-142 12,-36 45,-55 66,-116 2,-5 3,-8 6,-12 26,-65 30,-86 20,-150 -4,-28 19,-79 38,-100 28,-31 74,-109 27,-142 -70,-50 88,-75 -44,-152 -33,-19 -22,-112 -109,-180 -53,-41 -110,-143 -43,-196 85,-67 -13,-118 156,-181 53,-20 50,-53 87,-102 6,-8 11,-16 16,-24l24 -165 0 0c21,3 41,-14 59,-28 28,-21 56,-21 86,-7 54,27 96,14 155,3 54,-10 51,-21 98,24 15,15 22,15 42,36 16,18 43,34 58,54 35,45 76,79 134,87 41,5 82,10 124,15 18,2 161,36 171,43 47,30 50,25 102,40 38,12 67,13 53,68 -11,42 -31,62 -29,116 1,28 41,31 61,39 56,9 44,10 69,46 17,24 75,15 103,36 34,26 102,20 143,26 41,7 37,30 6,50 -16,10 -49,41 -59,57 -12,21 -50,86 -26,110 1,1 63,19 69,19 78,-1 71,14 145,-31 40,-24 55,-72 108,-78 57,-6 99,-10 156,-10 56,0 158,1 210,-6 101,-15 57,96 62,159l1 11c-7,73 -7,41 -43,97 -14,22 -10,64 9,83 48,46 30,83 70,129 18,20 39,123 90,112 2,0 76,-8 77,-8 46,3 82,15 126,24l0 0z"/>
  <path class="fil1 str0" d="M7722 6756c-17,34 -18,68 10,96 21,21 2,71 76,102 28,12 42,43 33,73 -12,43 -4,89 24,124 7,9 12,16 19,25 28,40 49,49 71,79 33,45 13,54 26,102 20,80 79,2 136,21 14,5 4,43 13,66 13,35 10,24 28,54 41,70 51,213 166,106 29,-27 43,-43 77,-68 40,-29 95,-73 133,-19 17,23 33,42 50,65 55,77 126,74 183,132 12,12 38,97 50,121 3,7 4,7 7,15 13,24 19,37 29,61 2,5 82,121 90,133 33,48 21,57 81,88 40,21 78,41 118,62 24,13 81,62 87,91 12,51 -8,123 58,156 14,7 38,12 54,22 13,8 26,12 42,22 38,26 67,27 98,69 12,11 44,47 60,56l0 0c21,12 -11,45 28,72 58,41 82,7 113,43 22,25 -46,84 -10,125l0 0c-6,0 -121,-6 -124,-5 -13,3 -88,2 -100,-1 -60,-17 -112,11 -169,23 -81,17 -97,-9 -158,-9 -47,0 -48,-5 -102,5l0 0c-3,-1 -19,-17 -22,-21 -47,-61 -122,-61 -130,-79 -13,-30 -38,-36 -64,-53 -50,-32 -72,-20 -112,-31 -97,-26 41,-84 -84,-139 -107,-48 -112,6 -126,-107 -6,-53 -33,-46 -82,-60 -56,-16 -88,-9 -136,-32 -60,-29 4,-31 -119,-65 -13,2 -30,6 -40,17 -183,205 -97,-45 -111,-63 -10,-13 -155,-23 -164,-21 -122,25 -77,-44 -159,-51 -35,-3 -101,-24 -113,-59 -37,-115 -179,-51 -240,-65 -44,-10 -67,10 -91,0 -39,-16 -69,59 -68,81 2,75 -30,123 -24,188 6,73 -48,95 -80,25 -52,-115 -86,-57 -127,-72 -59,-22 -66,7 -128,36 -61,29 -57,46 -118,30 -48,-12 -65,-33 -90,-41 -38,-12 -54,-18 -88,-38 -53,-31 -33,-6 -59,-59 -19,-39 -30,17 -82,-110l-124 -70 0 0c3,-27 35,-32 -60,-22 -10,-2 -21,-3 -31,-4 -46,-8 -98,0 -138,-21 -102,-54 -233,29 -330,-76 -39,-42 -55,-74 -103,-114 -22,-19 -24,-27 -40,-43 -40,-41 18,-99 -93,-91 -52,4 -49,-30 -98,30 -17,21 -54,17 -78,10 -33,-9 -33,-11 -74,-17 -29,-1 -76,-11 -101,-24 -18,-9 -85,-41 -95,-50 -24,-23 6,-132 -6,-170 -10,-32 -2,-76 -14,-116 -33,-110 66,-45 136,-84 55,-30 76,81 129,63 83,-27 21,-118 79,-117 9,0 74,24 89,29 97,34 122,-37 201,-46 41,-5 72,-57 80,-92 24,-102 0,-81 74,-167l3 -5c23,-46 53,-118 62,-166 8,-44 -19,-86 -7,-106 21,-34 57,3 76,9 28,9 140,1 177,1 54,0 58,-25 109,20 33,29 89,39 132,38 88,-1 84,18 158,34 57,13 61,31 110,46 11,0 17,0 28,1 43,5 57,25 91,22 36,-3 49,-2 84,2 67,7 76,-32 108,-48 40,-20 59,-16 101,-8 92,17 54,-16 104,-26 68,-14 67,18 122,22 16,1 94,-33 107,-43 28,-20 16,-4 37,-10 16,-5 26,-11 30,-19l0 0 21 75c-2,5 -48,84 -27,84 18,0 27,-17 41,-30 19,-18 40,-34 62,-51 17,-13 48,-55 70,-62 54,-17 28,2 81,19 35,12 103,25 78,77l0 0z"/>
  <path class="fil1 str0" d="M20750 12884c1,8 -12,25 -51,56 -23,19 -111,88 -50,109 16,5 36,25 48,37 75,75 -14,171 157,165 127,-4 52,203 191,33 39,-48 38,-190 127,-169 91,21 159,-73 239,-23 21,13 38,12 58,38 21,27 165,57 204,112 39,56 42,24 84,70 60,66 105,-29 192,13 22,11 38,19 62,27 131,47 86,20 180,103 30,26 113,19 169,64l0 0c24,-32 54,-50 93,-35 32,13 28,23 34,58 6,36 -8,50 37,74 8,5 29,5 36,6 79,1 62,-1 129,22 48,16 70,-17 130,15 68,36 69,-3 125,26 18,9 20,49 29,72 16,41 11,47 51,71 35,21 33,70 65,60 41,-13 85,-19 128,-21 37,-1 47,-18 107,-13 40,4 59,15 75,28l0 0c20,17 34,36 74,41 59,8 101,79 140,22 21,-31 68,-78 96,-106 34,-50 22,-79 20,-133 -1,-26 -38,-75 -59,-91 -19,-13 -54,-24 -78,-43 -31,-24 -48,-25 -82,-49 -43,-31 -51,-16 -60,-70 -5,-29 -9,-33 -12,-68 -2,-34 -4,-53 -3,-88 2,-60 -150,-45 -111,-146 14,-37 29,-23 28,-74 -1,-29 5,-61 5,-83 66,-66 26,-73 123,-72 35,1 102,71 150,-2 24,-36 1,-41 52,-86 13,-11 30,-28 42,-40l30 -21c13,-10 24,-21 36,-31 23,-19 28,-112 56,-141 26,-26 40,-64 78,-41 61,37 62,16 100,-32 34,-43 47,-116 119,-95 31,9 65,-14 108,0 29,9 108,37 112,73 2,17 18,27 22,39 7,24 60,88 81,70 6,-5 -11,-72 29,-48 62,38 70,77 121,112 14,9 105,20 124,16 35,-8 61,21 52,-21 -6,-29 -6,-84 -5,-113 -2,-6 -5,-11 -7,-17 -8,-20 -20,-62 -31,-76 -26,-32 -22,-37 -38,-69 -12,-24 -57,-49 -81,-63 -62,-37 -41,-121 -60,-155 -24,-43 -27,-79 13,-114 38,-34 70,-67 49,-122 -10,-25 -16,-56 -3,-82 13,-25 14,-3 36,-55 0,-16 1,-38 0,-53 -5,-61 20,-119 20,-176 0,-28 -31,-29 -55,-29 -43,1 -54,0 -96,-7 -52,-9 -64,-59 -94,-82 -36,-28 -82,-16 -103,-24 -41,-15 -69,-38 -84,-79 -24,-66 -66,-87 -86,-138 -30,-76 -53,-37 -112,-52 -29,-7 -33,-7 -57,-31 -20,-69 -10,-107 13,-171 23,-66 -120,-66 -18,-181 63,-72 -57,-66 -93,-71 -74,-11 -80,-17 -142,-53 -23,-14 -79,7 -104,-10 -15,-10 -26,-25 -32,-42l0 0c-3,16 -48,94 -44,118 15,72 -103,82 -37,158 56,65 29,15 59,97 57,159 -74,123 -71,186 4,80 -84,106 -149,91 -75,-17 -104,62 -190,-7 -82,-66 -171,38 -218,98 -106,139 -49,141 -66,180 -29,68 -103,105 -174,85 -120,-36 -97,36 -168,30 -60,-5 -53,-9 -136,-9 -122,0 -15,94 -22,114 -47,16 -101,-39 -138,-50 -39,-11 -98,-43 -127,-18 -50,45 -76,21 -127,-18 -45,-34 -250,-14 -310,-5 -112,17 -193,-25 -282,-17 -47,4 -95,6 -138,-16 -79,-40 -252,-21 -287,-86 -23,-43 -32,-38 -71,-58 -25,-13 -62,85 -62,101 2,56 24,100 37,158 16,12 33,41 33,60 1,46 67,24 20,71 -70,70 -88,48 -67,156 7,34 29,83 17,105 -22,41 5,59 15,84 64,153 -175,155 -175,278 0,114 -41,90 -59,119 -7,11 23,91 29,99 21,29 11,5 46,60l-11 108 0 0z"/>
  <path class="fil1 str0" d="M20750 12884c1,8 -12,25 -51,56 -23,19 -111,88 -50,109 16,5 36,25 48,37 75,75 -14,171 157,165 127,-4 52,203 191,33 39,-48 38,-190 127,-169 91,21 159,-73 239,-23 21,13 38,12 58,38 21,27 165,57 204,112 39,56 42,24 84,70 60,66 105,-29 192,13 22,11 38,19 62,27 131,47 86,20 180,103 30,26 113,19 169,64l0 0c-29,39 -19,55 -66,67 -37,9 -31,50 -25,81 7,38 1,69 -36,89 -48,26 -184,-72 -202,-50 -12,14 1,69 1,94 0,62 16,38 -2,113 -15,19 -43,38 -62,55 -28,26 -40,71 -27,107 23,65 5,61 5,126 0,6 3,25 0,25 -6,-1 -44,-25 -73,-30 -37,-6 -72,-29 -110,-37 -36,-7 -43,-10 -76,-22 -45,-16 -73,-52 -110,-63 -74,-22 -80,24 -125,54 -63,42 -106,5 -166,-9 -55,-13 -53,-21 -73,32 -5,17 -10,38 -11,56 -3,53 -13,84 -12,138 0,53 -31,74 -24,108 14,72 -14,107 -42,171 -30,69 -2,84 -13,112 -22,51 -84,18 -115,18 -36,0 -56,-3 -83,-29 -20,-19 -36,-29 -55,-45 -49,-41 -15,27 -43,69 -38,59 -107,29 -135,67 -29,40 -27,25 -67,50 -26,16 -64,40 -77,69l0 0c-7,-4 -177,-58 -180,-60 -30,-21 -88,-41 -95,-46 -38,-30 -108,-48 -145,-67 -86,-46 -181,-12 -238,-50 -34,-23 -140,-28 -179,-13 -139,51 -164,-29 -247,2 -67,25 -146,49 -219,30 -86,-22 -215,35 -267,-12 -97,-86 -178,33 -218,6 -52,-35 -39,-15 -86,-32 -113,-41 -67,-7 -148,-18 -92,-13 -82,-40 -201,-47l-111 12 0 0c-2,-14 -5,-19 -9,-33 -13,-38 -38,-95 18,-119 75,-34 -24,-102 116,-133 163,-36 18,-76 -1,-94 -58,-58 -85,-18 -112,-27 -132,-42 -88,-79 -123,-97 -30,-15 -64,-66 -84,-78 -82,-48 84,-48 93,-46 65,11 111,-13 156,-7 65,8 22,14 121,7 3,-4 8,-19 6,-24 -13,-33 -5,-70 17,-91l0 0c8,-8 19,-14 30,-17 35,-8 78,-36 100,-40 98,-18 47,-142 107,-179 54,-34 47,-172 134,-169 28,1 73,-41 84,-60 45,-77 76,-63 109,-97 36,-37 16,-55 7,-82 -1,-4 -83,-107 -98,-130 -72,-113 -26,-117 -38,-147 -14,-35 -8,-98 -8,-135l0 0c96,5 111,19 202,-12 75,-25 169,-11 212,-97 10,-20 88,-79 123,-29 27,40 121,2 153,42 50,61 146,-23 199,-2 33,14 37,12 75,32 50,26 164,-25 232,-17 6,1 32,0 40,0l0 0c10,93 2,124 70,182 14,12 99,-18 156,19 26,17 94,26 112,-21 17,-45 86,-49 126,-38 49,13 71,-17 135,-15 29,1 90,-17 92,-1l0 0z"/>
  <path class="fil1 str0" d="M22964 9406c72,-20 51,-17 98,-36 44,-18 37,46 139,46 83,0 83,-16 148,37 41,33 123,-22 200,8 13,5 100,-7 130,5 42,17 124,-1 135,84 7,54 -164,138 -107,232 4,7 45,44 52,50l0 0c9,-7 19,-12 30,-16 57,-22 65,-10 99,-67 15,-17 22,-28 40,-44 38,-34 35,-83 96,-98 45,-11 18,-56 72,-55 27,0 61,97 99,72 60,-38 48,-107 87,-150 41,-44 24,-65 43,-116 15,-40 5,-37 12,-64 13,-53 0,-66 65,-66 100,0 34,-54 110,-71 79,-17 62,-90 114,-90 25,0 32,3 52,5 75,4 90,-3 136,-61 15,-13 35,-32 49,-43 29,-22 127,-101 149,-127 28,-32 64,-62 88,-91 51,-63 107,-66 177,-103 68,-36 104,-58 167,-102 24,-17 55,-46 75,-59 56,-34 64,-48 98,-105l0 -6c6,-141 139,-60 178,-138 18,-36 36,-84 7,-119 -49,-59 -2,-77 -35,-92 -18,-8 -101,-7 -120,-3 -90,19 -29,-96 -27,-122 4,-43 6,-39 22,-76 17,-39 41,-50 17,-85 -23,-33 -25,-11 -52,-62l-4 -10c-18,-36 -19,-80 -55,-105 -46,-32 -20,-6 -53,-52 -44,-60 -53,-40 -98,-71 -22,-15 -47,-9 -56,-34 -51,-140 129,-205 179,-318 13,-30 44,-77 -6,-72 -40,4 -82,0 -101,44 -13,30 -43,59 -76,39 -19,-12 -58,1 -70,13 -40,39 -56,13 -76,49 -28,51 -76,53 -125,69 -58,19 -87,-37 -107,-23l0 0c-25,18 -20,18 -57,37 -13,29 -22,55 1,82 21,26 20,46 26,74 14,62 -24,112 -17,139 11,42 -2,82 -36,110 -33,27 -66,73 -93,92 -37,24 -58,44 -91,70 -63,48 -59,53 -96,118 -24,41 -17,58 -30,88 -31,74 -60,39 -106,13 -61,-35 -62,-15 -78,-87 -18,-80 -30,-72 -113,-86l-5 -6c-87,-66 -131,-44 -192,-146 -13,-22 -34,-86 -36,-110 -3,-31 -34,-81 -63,-90 -62,-20 3,-47 -48,-70 -10,-4 -90,29 -100,32 -7,3 -13,9 -18,15 -14,15 -44,97 -49,120 -21,97 -135,64 -166,8 -54,-97 -89,-54 -124,-104 -15,-22 -68,35 -75,45 -17,23 -44,33 -41,51 11,60 1,61 -5,116 -4,37 -60,53 -89,54 -33,1 -48,1 -81,10 -91,23 -99,-76 -181,-96 -36,-9 -26,3 -54,-25 -23,-24 -53,58 -57,71 -13,43 -53,75 -95,85l0 0 17 97c-36,74 -8,8 -52,58 -12,13 13,46 -34,80 -17,12 -11,35 -48,50 -48,20 -51,93 -12,130 8,8 39,47 46,60 39,81 12,30 79,58 13,5 19,21 23,33 7,94 -6,93 39,150 52,65 -31,82 38,163 24,29 33,47 65,78 38,36 26,136 23,184 -3,40 -40,77 6,137 51,66 -15,99 -11,181l-3 131 0 0z"/>
  <path class="fil1 str0" d="M20750 12884l11 -108c-35,-55 -24,-32 -46,-60 -5,-7 -36,-87 -29,-99 18,-29 59,-5 59,-119 0,-123 239,-125 175,-278 -10,-25 -37,-42 -15,-84 12,-23 -11,-71 -17,-105 -21,-108 -3,-86 67,-156 47,-47 -20,-25 -20,-71 0,-19 -17,-48 -33,-60 -13,-58 -36,-102 -37,-158 0,-16 37,-114 62,-101 38,20 47,15 71,58 35,65 208,46 287,86 43,22 91,20 138,16 89,-8 170,34 282,17 60,-9 265,-29 310,5 51,39 77,63 127,18 29,-26 88,7 127,18 37,10 91,66 138,50 7,-20 -100,-114 22,-114 83,0 76,4 136,9 71,6 48,-66 168,-30 71,21 145,-17 174,-85 17,-39 -40,-41 66,-180 46,-61 136,-164 218,-98 85,68 115,-10 190,7 65,15 153,-11 149,-91 -3,-63 128,-28 71,-186 -30,-82 -3,-33 -59,-97 -66,-76 52,-86 37,-158 -5,-24 40,-102 44,-118l0 0c-5,-11 -8,-23 -10,-35 -7,-39 20,-86 -16,-109 -18,-11 -20,-28 -7,-45 20,-26 31,-14 66,-29 8,-29 12,-59 22,-88 17,-53 -13,-70 12,-139 10,-27 24,-45 32,-65 17,-42 -9,-62 -16,-86 -18,-60 46,-86 34,-108 -16,-31 -2,-56 21,-74l0 0c-6,-6 -47,-43 -52,-50 -57,-94 113,-178 107,-232 -10,-85 -93,-67 -135,-84 -30,-12 -117,-1 -130,-5 -77,-30 -159,25 -200,-8 -66,-53 -65,-37 -148,-37 -102,0 -95,-64 -139,-46 -47,19 -26,16 -98,36l0 0 -6 2c-37,15 -79,84 -80,116 -2,37 -68,78 -99,78 -87,-2 -57,105 -104,132 -75,42 90,112 -43,171 -60,27 -143,50 -207,79 -66,29 -62,38 -150,66 -41,0 -82,-12 -114,-11 -61,1 -75,-36 -114,-7 -74,56 -67,33 -139,27 -55,-4 -82,15 -123,15 -2,0 -88,-29 -89,-29 -25,-24 -103,42 -113,57 -37,49 -76,62 -129,28 -60,-38 -74,-20 -102,-32 -41,-17 -39,-19 -82,-19 -106,0 -156,155 -232,26 -23,-38 3,-69 -102,2 -40,27 -112,41 -127,68 -57,105 -117,20 -150,29 -91,27 -61,48 -179,48 -72,0 -90,-20 -139,-20 -79,0 -122,-30 -194,-66l-138 -7 0 0c-39,79 -71,10 -107,37 -25,20 -94,50 -126,49 -8,0 -122,57 -123,60 -16,36 50,59 22,147 -15,48 52,40 101,80 51,41 -24,62 38,165 97,161 -46,208 -63,360 -5,42 -20,93 -24,139 -10,156 -13,174 79,296 33,44 94,107 56,165 -35,53 -75,65 -42,148 42,104 41,61 41,185 0,127 73,146 49,308 -18,124 2,191 138,195 53,1 136,55 73,124 -23,25 -50,90 -50,90l-17 52 0 0c10,93 2,124 70,182 14,12 99,-18 156,19 26,17 94,26 112,-21 17,-45 86,-49 126,-38 49,13 71,-17 135,-15 29,1 90,-17 92,-1l0 0z"/>
  <path class="fil1 str0" d="M20197 9682c4,16 6,32 6,42 31,145 -35,39 -64,95 -2,5 45,135 -91,145 -22,2 -69,28 -48,68 13,24 26,97 11,128l0 0 138 7c72,36 116,66 194,66 49,0 67,20 139,20 118,0 88,-21 179,-48 33,-10 93,76 150,-29 15,-27 87,-41 127,-68 106,-71 80,-40 102,-2 76,129 126,-26 232,-26 42,0 41,2 82,19 28,11 42,-7 102,32 53,34 93,21 129,-28 11,-15 89,-80 113,-57 0,0 86,29 89,29 41,0 67,-19 123,-15 72,5 64,28 139,-27 39,-29 53,8 114,7 32,-1 73,11 114,11 88,-28 84,-37 150,-66 64,-28 146,-52 207,-79 133,-58 -33,-129 43,-171 47,-26 17,-134 104,-132 30,1 97,-41 99,-78 2,-33 44,-101 80,-116l6 -2 0 0 3 -131c-4,-81 62,-115 11,-181 -47,-60 -9,-98 -6,-137 3,-48 16,-148 -23,-184 -32,-30 -41,-49 -65,-78 -69,-81 14,-98 -38,-163 -45,-57 -32,-56 -39,-150 -4,-12 -11,-27 -23,-33 -67,-27 -39,23 -79,-58 -6,-13 -37,-52 -46,-60 -40,-36 -37,-109 12,-130 36,-15 31,-38 48,-50 47,-34 22,-67 34,-80 45,-50 17,16 52,-58l-17 -97 0 0c-53,13 -37,66 -103,71 -27,2 -51,-7 -71,0 -48,17 -40,23 -101,36 -25,-18 -53,-24 -77,-43 -28,-22 -50,-38 -78,-58 -25,-18 -48,-33 -72,-50 -37,-27 -57,-37 -95,-60 -73,-43 -140,-35 -172,-53 -14,-8 -76,-28 -91,-25 -64,10 -91,20 -145,57 -31,21 -74,42 -109,55 -14,5 -131,33 -148,34 -25,1 -81,23 -95,45 -19,30 -23,42 -49,73 -8,15 -7,24 -6,41 2,25 0,78 -1,105 -2,33 -2,53 -32,66 -40,17 -96,-12 -127,-37 -38,-31 -21,-30 -75,-48 -75,-25 -102,4 -164,-54 -66,-63 -6,-177 -78,-174 -27,1 -26,2 -55,0 -41,-3 -46,-21 -74,8 -47,51 -75,-1 -107,-16 -97,-46 -98,85 -211,36 -28,-12 -41,-29 -61,-40 -25,-14 -44,-35 -61,-45 -32,-19 -52,-41 -79,-65 -28,-24 -50,-52 -75,-79 -22,-25 -72,-60 -75,-94 -4,-42 4,-76 1,-119 -4,-19 -6,-49 -9,-69 -11,-89 -45,-170 -44,-257 0,-32 -2,-62 -2,-93 0,-14 14,-107 3,-112 -9,-5 -98,19 -115,24 -23,7 -39,26 -51,48l0 0 51 58c6,27 21,83 20,117 -2,41 -26,85 -24,99 6,47 43,51 -15,104 -24,22 -39,104 7,130 66,37 43,91 51,155 7,53 4,36 0,86 -4,48 56,19 32,122 -6,25 13,76 17,103 -13,161 20,100 -62,234 -37,60 -71,171 -13,229 34,34 58,12 51,75 -3,29 -23,90 -11,115 10,23 6,19 22,44 26,41 33,93 52,143 29,73 -17,198 93,223 85,19 59,121 38,180l-5 8c-14,69 -7,111 -63,145 -32,19 -118,132 -35,151 33,7 137,75 92,116 -22,20 -41,58 -6,79 10,6 17,24 22,43l0 0z"/>
  
  
  
  
  
  
  
  
  
  
  
  
  
  
  
  
  
  
  
  
  
  
  
  
  
  
  
  
  
  
  
  
  
  
  
  
  
  
  
  
  
 </g>
</svg>