<svg xmlns="http://www.w3.org/2000/svg" xmlns:xlink="http://www.w3.org/1999/xlink" xml:space="preserve" width="210mm" height="297mm" version="1.1" style="shape-rendering:geometricPrecision; text-rendering:geometricPrecision; image-rendering:optimizeQuality; fill-rule:evenodd; clip-rule:evenodd" viewBox="0 0 21000 29700">
 <defs>
  <style type="text/css">
   <![CDATA[
    .str1 {stroke:black;stroke-width:10;stroke-opacity:0.501961}
    .str3 {stroke:black;stroke-width:50}
    .str5 {stroke:#434242;stroke-width:10}
    .str0 {stroke:black;stroke-width:10}
    .str2 {stroke:black;stroke-width:10}
    .str6 {stroke:#2B2A29;stroke-width:7.62}
    .str4 {stroke:black;stroke-width:7.62}
    .fil6 {fill:none}
    .fil1 {fill:#FEFEFE}
    .fil0 {fill:#FEFEFE}
    .fil8 {fill:#D9DADA}
    .fil5 {fill:#FEFEFE;fill-rule:nonzero}
    .fil4 {fill:#D9DADA;fill-rule:nonzero}
    .fil7 {fill:#434242;fill-rule:nonzero}
    .fil3 {fill:black;fill-rule:nonzero}
    .fil2 {fill:#FEFEFE;fill-rule:nonzero;fill-opacity:0.501961}
   ]]>
  </style>
 </defs>
 <g id="Plan_x0020_1">
  <metadata id="CorelCorpID_0Corel-Layer"/>
  <rect class="fil0" x="1000" y="1000" width="17720" height="27700"/>
  
  
  
  
  
  
  
  
  <path class="fil1 str0" d="M13202 5779c22,2 96,0 116,16 52,39 -4,81 91,95 59,9 128,56 183,83 70,35 24,-74 42,-109 28,-56 -2,-44 63,-88 19,-13 -9,-39 -11,-59 -2,-23 -25,-92 28,-75 13,4 85,9 103,10 55,12 58,10 107,13 71,5 102,6 172,22 48,11 52,3 99,31 15,9 106,99 114,112 22,37 25,71 30,113 1,9 3,48 3,57l0 0c-3,67 11,90 15,147 2,30 -10,67 -45,68 -21,1 -55,31 -63,50 -8,18 -15,15 -21,48 -13,73 -50,84 -58,109 -13,40 30,37 58,63 20,19 49,28 74,54 30,31 56,61 34,108 -13,27 -72,53 -95,133 -4,15 -13,34 -18,50 -5,67 -5,154 56,198 43,32 69,69 94,116 34,65 94,68 119,139 12,36 108,110 140,136 77,62 89,59 108,163 4,23 8,48 8,72 -7,29 -17,57 -18,86 -4,87 -53,50 -65,115 -5,28 63,116 88,124 24,8 19,5 43,16 19,9 53,47 54,73 2,30 1,83 -7,111 -5,17 22,140 -55,40 -33,-43 -44,-61 -103,-64 -39,-2 -130,-73 -162,-100 -16,-13 -86,-40 -107,-40 -115,0 -168,110 -275,94 -46,-7 -30,2 -76,-20 -38,-18 -138,23 -172,47 -12,8 -46,23 -62,32 -5,3 -11,6 -16,9l0 0 -45 -13c-11,-10 -30,-15 -38,-34 -20,-51 -35,-100 -14,-154 16,-40 60,-126 35,-168 -24,-41 -116,-36 -156,-26 -118,28 -90,-42 -159,-81 -46,-26 -59,-25 -109,-35 -45,-9 -168,-4 -195,-25 -79,-63 -98,-12 -178,-18 -58,-5 -79,47 -100,92 -23,49 -39,98 -99,112 -75,18 -25,108 -37,138 -18,45 -17,19 -26,85l0 0 -168 21c-36,5 -80,49 -110,70 -57,41 -107,92 -160,21 -57,-75 -99,-53 -170,-83 -67,-28 -144,-184 -228,-236 -54,-33 -42,-38 -77,-72 -7,-7 -166,-29 -183,-31 -53,-5 -57,-17 -101,-25 -55,-11 -88,-84 -117,-125l0 0c4,-43 5,-84 10,-127 5,-45 -18,-180 24,-203 50,-27 111,-32 100,-105 -6,-36 -19,-122 1,-152 16,-25 53,-43 79,-57 23,-30 36,-47 57,-76 12,-18 61,-103 46,-122 -7,-9 -30,-46 -30,-57 0,-20 36,-8 65,-24 43,-23 61,-9 102,-55 66,-74 99,-38 140,-85 19,-22 4,-108 -5,-108 -18,1 -56,39 -136,33 -25,-2 -97,-5 -107,-28 -11,-29 31,-17 43,-77 22,-112 59,-48 127,-85 45,-25 75,-53 100,5 35,83 100,-11 159,111 12,25 24,45 57,49 43,5 56,-61 112,-79 103,-33 44,-54 56,-113 12,-61 60,-15 96,-20 18,-2 40,-14 58,-9 57,9 94,12 148,30 53,18 74,-26 132,-34 107,-15 74,-77 27,-138 -29,-37 -53,-44 -28,-97 26,-56 -19,-100 51,-140 20,-11 93,-4 112,22 35,49 74,-18 128,-28 11,-2 23,-6 35,-8l69 -32 0 0z"/>
  <path class="fil1 str0" d="M3495 20110l113 -27c46,-24 26,-17 23,-58 -3,-35 -31,-25 -2,-97 10,-23 -21,-125 36,-145 36,-13 77,-131 106,-61 28,67 117,-10 152,-9 28,1 46,-34 86,-48 26,-10 -8,-55 -45,-53 -39,1 -38,-82 -76,-40 -41,46 -89,70 -150,72 -31,1 -53,-45 -39,-81 14,-36 1,-85 40,-77 53,11 72,-22 76,-68 7,-70 20,-84 88,-86 62,-2 103,-36 143,-78 4,-5 43,-25 60,-40 4,-3 7,-6 10,-9 17,-22 29,-47 46,-65 18,-19 50,5 75,11 34,8 61,19 97,27 80,18 80,137 122,197 22,30 37,65 62,96 12,15 21,35 32,51 33,73 45,84 91,139 24,29 32,-18 87,0 18,6 54,3 64,37 10,34 8,38 14,71 16,86 104,83 135,156 17,40 62,77 96,105 38,31 84,33 132,34 38,1 51,2 89,6 24,3 145,18 146,-20 1,-28 -32,-41 -53,-74 -61,-97 -1,-94 23,-196 7,-31 42,-181 94,-127 51,52 145,43 200,95 61,58 104,-6 169,11 55,14 75,25 134,30 23,2 35,5 56,8l113 -5 0 0c-15,-49 -8,-64 2,-112 8,-38 42,-81 36,-104 -11,-44 -76,-54 11,-105 20,-12 79,-40 52,-67 -27,-26 -40,-53 -75,-76 -12,-8 -17,-18 -35,-27 -53,-28 -62,-39 -104,-83 -19,-20 -16,-36 -56,-49 -40,-14 -46,-23 -71,-59 -18,-26 -24,-43 -21,-74 -7,-73 -19,-118 -32,-187 -5,-28 95,-36 120,-59 51,-48 42,-45 107,-74 17,-8 86,-65 99,-81 41,-51 34,-96 61,-140 23,-39 31,-150 79,-166 63,-21 99,26 197,-46 95,-69 50,-20 144,-50 51,-16 81,-61 134,-77 28,-9 56,-26 87,-25 73,16 82,32 129,82 41,43 31,46 86,80 36,22 75,39 113,58 54,27 52,63 138,47 91,-17 67,-135 237,-114 44,5 64,31 127,12 12,-4 19,-7 31,-11l44 -39 0 0c0,0 -19,-75 -22,-84 -10,-37 -15,-90 -58,-111 -21,-10 -46,-38 -46,-61 2,-58 4,-73 41,-124 38,-14 16,-43 8,-69 -21,-76 -95,-3 -87,-67 17,-126 49,-75 75,-116 7,-12 -12,-58 -13,-83 -5,-68 -63,-43 -86,-86 -22,-41 6,-76 -46,-150 -54,-76 -79,-137 -52,-232 0,-14 0,-28 0,-43 0,-42 -37,-58 -74,-58 -40,0 -65,-8 -96,-9 -28,-1 -54,-16 -75,-21 -91,-22 -92,-76 -212,-93 -35,-5 -142,-3 -159,-8 -70,-18 -119,44 -175,74 -65,35 -62,-51 -105,-64 -44,-14 -104,-6 -157,-14 -46,-7 -121,11 -151,-9 -33,-21 -33,-74 -30,-108l0 0c-85,0 -83,14 -134,26 -80,19 -93,-17 -155,-49 -86,-44 -107,76 -134,117 -70,107 -110,77 -138,100 -28,24 0,72 -10,94 -18,39 -9,122 -56,138 -32,11 -50,19 -66,52 -30,65 -104,69 -167,71 -23,-1 -84,48 -99,66 -71,86 -104,1 -168,-17 -41,-11 -125,-66 -149,-101 -24,-36 -88,-13 -127,-37 -38,-23 -76,-30 -90,-75 -27,-89 -83,-20 -132,6 -58,31 -87,36 -152,43l0 0 -66 22c-1,0 -11,5 -12,6 -51,38 -67,102 -112,153 -20,23 -76,43 -104,43 -64,1 -37,82 -48,106 -39,83 -133,-22 -121,63 5,34 39,60 34,71 -19,45 16,38 -35,111 -42,11 -134,66 -176,34 -77,-58 -53,26 -115,57 -64,32 -26,109 -35,145 -12,48 -5,92 -29,137 -29,54 -55,40 -99,40 -29,0 -73,-39 -89,-63 -25,-37 -56,-66 -91,-24 -34,41 -21,39 -72,58 -27,10 -58,57 -86,80 -27,23 -32,8 -69,19 -23,7 -82,-8 -90,14 -2,7 -6,102 -6,108l-27 92 0 0c14,7 24,16 14,27 -80,80 10,92 -13,180 -2,7 -3,13 -4,20 -25,80 -28,109 -11,188 9,41 28,96 -14,123 -71,47 -2,128 -83,213 -39,41 -111,16 -141,-24 -7,-10 -64,-59 -76,-50 -42,28 -51,-33 -110,16 -44,37 -86,34 -89,36 -7,5 15,21 8,52 -11,48 -35,83 34,85 45,1 29,38 105,13 9,-3 66,-13 75,-10 17,4 92,30 101,40 76,77 -12,61 -39,115 -28,67 -35,125 -107,157 -36,16 -17,57 -104,52 -45,-3 -104,-25 -75,56 17,46 22,7 81,22 47,13 46,6 95,28 13,6 114,32 122,26 16,-11 -40,-47 -50,-89 -16,-71 -22,-22 33,-84 20,-23 58,-10 88,-7 29,3 29,9 65,9 48,-1 38,52 53,91 28,71 45,39 52,121 6,71 95,70 144,99 53,31 117,54 162,98 40,39 119,40 142,90l0 0z"/>
  <path class="fil1 str0" d="M6260 16708c-2,34 -2,87 30,108 31,20 106,2 151,9 53,8 113,0 157,14 43,13 40,99 105,64 56,-30 105,-93 175,-74 17,4 124,3 159,8 120,17 121,71 212,93 21,5 47,20 75,21 31,1 56,9 96,9 37,0 74,16 74,58 0,14 0,28 0,43 -27,95 -2,156 52,232 53,74 24,110 46,150 23,42 81,18 86,86 2,25 21,71 13,83 -25,41 -57,-11 -75,116 -9,64 65,-9 87,67 7,26 30,56 -8,69 -37,51 -39,66 -41,124 -1,23 25,51 46,61 44,20 48,74 58,111 3,9 21,84 22,84l0 0c33,-10 41,-11 71,-4 36,9 60,34 50,72 -6,23 4,106 21,128 19,25 38,49 48,79 2,7 14,24 14,30 10,45 31,79 18,129 -4,13 12,45 12,59l0 0c110,-26 111,-56 175,-133 23,-28 35,-53 63,-82 16,-16 41,-61 57,-35 11,18 29,34 44,59 29,47 76,76 121,106 45,31 83,-7 84,76l0 0c12,-18 31,-70 47,-92 28,-37 19,-37 29,-71 21,-68 57,-59 117,-59 15,0 116,-18 123,-23 19,-15 15,-22 41,-48 0,-44 16,-72 52,-96 118,-78 -14,-182 76,-297 28,-36 52,-67 78,-105 24,-35 -21,-76 -48,-95 -45,-32 -30,-86 -86,-88 -49,-2 -111,-13 -129,-67 -21,-61 -64,-45 -63,-164 0,-29 -2,-66 -5,-95 -4,-38 8,-111 3,-138 -11,-58 -75,-116 -102,-186 -29,-76 -40,-112 -40,-195 0,-86 -61,-73 -79,-109 -29,-55 -24,-95 -14,-154 0,-19 -1,-34 -4,-53 -3,-18 -25,-68 -35,-82 -65,-92 -68,-95 -37,-201 14,-48 57,-116 8,-159 -24,-21 -38,-40 -58,-62 -12,-13 -20,-28 -30,-42 -17,-23 -23,-53 -29,-62 -50,-74 -137,-19 -153,-95 -14,-67 1,-81 -50,-141 -32,-37 -4,-68 24,-97 9,-16 6,-32 4,-48 -4,-23 -43,-76 -60,-92 -80,-78 -16,-188 -59,-245 -43,-57 -46,-59 -50,-135 -3,-69 16,-66 -25,-127l0 0 -3 2c-3,2 -59,65 -62,69 -46,65 -147,19 -150,-12 -4,-54 -85,-67 -124,-74 -19,-9 -25,-13 -39,-27 -2,-2 -38,-66 -39,-69 -18,-54 -62,-54 -111,-46 -70,11 -118,-44 -187,4 -53,36 -96,40 -151,7 -46,-29 -34,-32 -97,-51l0 0 -22 87c-1,5 -1,6 -1,11 1,38 -1,60 10,96 10,33 -87,67 -114,86 -26,18 -58,27 -74,39 -61,47 -114,23 -121,102 -4,52 -23,64 -71,64 -103,0 -16,77 -134,104 -35,8 -47,-15 -27,36l0 0c60,41 90,73 135,127 33,40 27,75 3,117 -18,31 -9,36 -42,67 -18,18 -54,62 -40,89 27,51 30,51 19,115 -4,25 -7,74 24,83 44,12 78,34 78,84 -16,86 3,64 -64,119 -46,37 -5,74 -13,103 -20,67 -23,63 32,80 18,6 28,38 -17,51 -21,6 -44,21 -28,45 40,57 12,74 -41,38 -31,-21 -38,16 -79,11 -65,-7 -4,76 -85,77 -41,0 -42,51 -87,49 -9,0 -16,13 -17,21l0 0z"/>
  <path class="fil1 str0" d="M6485 15433c60,41 90,73 135,127 33,40 27,75 3,117 -18,31 -9,36 -42,67 -18,18 -54,62 -40,89 27,51 30,51 19,115 -4,25 -7,74 24,83 44,12 78,34 78,84 -16,86 3,64 -64,119 -46,37 -5,74 -13,103 -20,67 -23,63 32,80 18,6 28,38 -17,51 -21,6 -44,21 -28,45 40,57 12,74 -41,38 -31,-21 -38,16 -79,11 -65,-7 -4,76 -85,77 -41,0 -42,51 -87,49 -9,0 -16,13 -17,21l0 0c-85,0 -83,14 -134,26 -80,19 -93,-17 -155,-49 -86,-44 -107,76 -134,117 -70,107 -110,77 -138,100 -28,24 0,72 -10,94 -18,39 -9,122 -56,138 -32,11 -50,19 -66,52 -30,65 -104,69 -167,71 -23,-1 -84,48 -99,66 -71,86 -104,1 -168,-17 -41,-11 -125,-66 -149,-101 -24,-36 -88,-13 -127,-37 -38,-23 -76,-30 -90,-75 -27,-89 -83,-20 -132,6 -58,31 -87,36 -152,43l0 0c-1,-5 -3,-13 -4,-18 -13,-89 75,-83 84,-97 12,-17 14,-29 28,-53 2,-22 6,-49 0,-70 -8,-28 -125,-92 -49,-177 44,-50 95,-34 99,-89 3,-37 5,-50 14,-87 14,-55 14,-79 -40,-111 -23,-14 -55,-42 -66,-48 -29,-15 -31,-26 -51,-41 -61,-47 -39,-129 -44,-137 -17,-28 -79,88 -133,37 -39,-37 -44,-12 -76,-10 -53,4 -74,-70 -83,-107 -33,-34 -77,-20 -117,-10 -85,20 -48,-118 -48,-159 0,-57 37,-87 84,-116 42,-25 30,-82 91,-94 76,-15 55,-1 104,-59 42,-51 58,3 76,23 38,45 51,83 106,28 66,-66 34,-138 123,-138 51,0 -19,-73 -33,-83 -38,-28 2,-53 22,-75 27,-30 125,-80 80,-130 -47,-53 -77,-14 -58,-112 -8,-27 -19,-59 -28,-87 -29,-93 -87,-40 -53,-134 15,-42 -2,-99 33,-106 38,-7 61,23 137,3 83,-21 120,23 169,20 48,-2 67,7 120,-2 87,-16 188,-35 235,-119 32,-56 21,-92 34,-123 20,-48 20,-16 32,-80 5,-26 18,-81 47,-87 41,-8 78,-9 124,-19l0 0c31,64 21,65 22,124 1,40 -22,53 16,84 28,23 35,87 86,28 33,-38 57,-26 102,-26 27,0 54,4 79,-2 44,-11 76,-75 102,-33 20,32 52,62 92,50 36,-11 45,70 166,-42 51,-47 98,-15 86,45 -4,21 -2,53 9,72 2,3 10,15 10,17 25,25 41,37 69,53 24,14 8,48 -4,63 -43,53 75,79 35,123 -35,39 -69,74 -48,129 22,55 -6,67 -18,118 -7,28 -43,66 -33,112 16,72 94,71 152,84 31,7 55,-8 77,-27 4,-4 35,-14 38,-16l0 0z"/>
  <path class="fil1 str0" d="M5367 12017c83,-27 63,-11 133,-22 16,-3 30,0 41,-19 25,-44 -25,-154 29,-136 40,14 106,-14 137,-42 46,-43 80,-7 141,-19 51,-10 157,-5 113,-90 -21,-40 -50,-48 -20,-109 17,-35 18,-21 20,-66 2,-61 81,-46 127,-44 25,1 136,40 129,-1 -5,-30 -21,-54 -37,-79 -10,-16 -6,-26 -1,-42 26,-51 35,-73 56,-122 32,-79 61,31 151,-34 43,-31 -2,-63 45,-112 36,-38 62,-100 55,-153 -6,-39 9,-82 -2,-126 -5,-20 15,-40 40,-30 18,7 44,1 64,1l25 -8 0 0c56,60 42,43 119,18 20,-6 68,17 89,25 29,11 74,51 97,36 32,-20 -48,-124 13,-132 17,-2 98,55 106,84 29,106 107,24 148,77 19,24 12,78 82,86 34,4 100,19 123,45 62,70 100,17 184,7 38,-4 41,-1 76,11l5 2c31,7 113,24 120,66 9,55 42,26 46,123 2,51 40,114 86,54 36,-47 41,14 107,3 98,-16 103,-27 97,72 -3,49 17,105 61,131 35,21 57,36 79,71 2,2 4,9 5,12l0 0c-52,68 -98,111 -165,163 -45,34 -127,89 -187,77 -23,-5 -48,4 -80,-12 -77,-39 -123,-27 -196,12 -61,33 -51,14 -115,-4 -28,-8 -78,10 -107,4 -62,-13 7,112 23,131 43,51 42,82 4,136 -18,25 -93,23 -133,60 -28,27 -32,22 -60,61 -25,61 -13,58 28,89 66,48 71,46 71,136 0,17 0,34 0,51l0 0 -41 35c-39,40 -18,67 -43,111 -30,56 -92,37 -91,88 2,51 -26,49 -52,86 -31,43 18,87 9,116 -30,97 -56,41 -24,160 0,23 7,50 5,74 -3,54 11,114 -31,155 -32,32 -29,55 -56,79 -35,32 -27,47 -39,79 -25,71 -87,74 -150,76l0 0c-6,-5 -9,-16 -20,-24 -80,-59 -123,-13 -168,-46 -35,-26 -44,-73 -48,-114l-1 -3c-12,-48 -29,-72 4,-114 19,-25 0,-58 -19,-64 -89,-24 -105,79 -140,73 -40,-8 -16,-93 -7,-116 16,-43 4,-45 4,-78 0,-43 78,-84 -5,-133 -37,-22 -6,-58 19,-67 99,-40 -51,-54 -77,-63 -56,-20 -35,-11 -91,-13 -67,-2 -115,40 -153,-21 -45,-71 -113,-34 -155,-55 -47,-24 -86,52 -99,86 -21,54 -78,40 -112,7 -20,-19 -11,-81 -45,-79 -51,2 -62,17 -124,9 -30,-4 -37,21 -42,49 -6,37 15,79 -40,49 -36,-19 -6,-21 -69,-15l0 0 -82 -48c-3,-3 -6,-4 -10,-7 -26,-17 -57,-45 -73,-71 -23,-38 -20,-76 4,-112 27,-41 55,-59 79,-104 22,-40 1,-98 41,-128 31,-23 4,-54 -3,-85 -19,-77 -33,-136 -27,-217l0 0z"/>
  <path class="fil1 str0" d="M5445 14479c31,64 21,65 22,124 1,40 -22,53 16,84 28,23 35,87 86,28 33,-38 57,-26 102,-26 27,0 54,4 79,-2 44,-11 76,-75 102,-33 20,32 52,62 92,50 36,-11 45,70 166,-42 51,-47 98,-15 86,45 -4,21 -2,53 9,72 2,3 10,15 10,17 25,25 41,37 69,53 24,14 8,48 -4,63 -43,53 75,79 35,123 -35,39 -69,74 -48,129 22,55 -6,67 -18,118 -7,28 -43,66 -33,112 16,72 94,71 152,84 31,7 55,-8 77,-27 4,-4 35,-14 38,-16l0 0c-20,-51 -8,-28 27,-36 118,-27 31,-104 134,-104 48,0 67,-12 71,-64 7,-79 60,-55 121,-102 16,-13 48,-22 74,-39 27,-18 124,-53 114,-86 -11,-36 -9,-58 -10,-96 0,-5 1,-6 1,-11l22 -87 0 0c-4,-21 -6,-46 -17,-64 -16,-26 -53,-50 -56,-54 -30,-53 44,-68 46,-76 14,-52 -82,-22 -85,-61 -5,-55 19,-40 -2,-125 -8,-34 -8,-79 24,-101 47,-32 33,-51 48,-85 17,-38 79,3 73,-57 0,-4 -38,-81 -38,-82 0,-6 -33,-63 -38,-75 -20,-46 -1,-28 -38,-70 -37,-41 -94,-56 -122,-105 -29,-51 -29,-39 -29,-98 0,-46 -74,-64 -32,-124 48,-68 25,-31 54,-112l0 0c-6,-5 -9,-16 -20,-24 -80,-59 -123,-13 -168,-46 -35,-26 -44,-73 -48,-114l-1 -3c-12,-48 -29,-72 4,-114 19,-25 0,-58 -19,-64 -89,-24 -105,79 -140,73 -40,-8 -16,-93 -7,-116 16,-43 4,-45 4,-78 0,-43 78,-84 -5,-133 -37,-22 -6,-58 19,-67 99,-40 -51,-54 -77,-63 -56,-20 -35,-11 -91,-13 -67,-2 -115,40 -153,-21 -45,-71 -113,-34 -155,-55 -47,-24 -86,52 -99,86 -21,54 -78,40 -112,7 -20,-19 -11,-81 -45,-79 -51,2 -62,17 -124,9 -30,-4 -37,21 -42,49 -6,37 15,79 -40,49 -36,-19 -6,-21 -69,-15l0 0c-3,7 -19,76 -45,57 -2,-1 -83,10 -66,49 16,37 64,25 45,83 -10,32 -4,121 3,155 3,16 13,101 16,104 9,11 16,30 35,48 30,27 -8,66 -8,110 1,92 64,5 -18,157 -9,17 -13,33 -19,49 -19,40 -18,48 -39,83 -9,16 -49,33 -36,80 21,72 -5,72 -5,146 0,37 -12,85 34,75 12,-2 91,-15 89,7 -2,23 4,45 11,65 15,40 25,28 52,53 28,25 22,22 22,59 0,19 -6,51 -1,74 13,56 -32,50 -31,130 0,11 0,27 0,39l-34 67 0 0z"/>
  <path class="fil1 str0" d="M5439 12789c-3,7 -19,76 -45,57 -2,-1 -83,10 -66,49 16,37 64,25 45,83 -10,32 -4,121 3,155 3,16 13,101 16,104 9,11 16,30 35,48 30,27 -8,66 -8,110 1,92 64,5 -18,157 -9,17 -13,33 -19,49 -19,40 -18,48 -39,83 -9,16 -49,33 -36,80 21,72 -5,72 -5,146 0,37 -12,85 34,75 12,-2 91,-15 89,7 -2,23 4,45 11,65 15,40 25,28 52,53 28,25 22,22 22,59 0,19 -6,51 -1,74 13,56 -32,50 -31,130 0,11 0,27 0,39l-34 67 0 0c-46,10 -83,10 -124,19 -30,6 -42,61 -47,87 -12,64 -12,32 -32,80 -13,31 -2,67 -34,123 -47,84 -148,103 -235,119 -53,10 -72,0 -120,2 -49,2 -86,-42 -169,-20 -76,20 -99,-10 -137,-3 -35,7 -18,64 -33,106 -34,95 25,41 53,134 9,28 20,59 28,87 -18,98 11,60 58,112 44,49 -54,100 -80,130 -20,23 -61,47 -22,75 14,10 84,83 33,83 -89,0 -57,72 -123,138 -55,55 -67,17 -106,-28 -18,-20 -33,-74 -76,-23 -49,58 -27,44 -104,59 -61,12 -49,69 -91,94 -47,28 -84,58 -84,116 0,41 -37,179 48,159 40,-10 85,-24 117,10 9,37 30,111 83,107 31,-2 36,-27 76,10 54,51 116,-65 133,-37 5,8 -17,90 44,137 20,16 22,26 51,41 11,6 42,34 66,48 54,32 54,56 40,111 -9,37 -12,49 -14,87 -4,54 -55,39 -99,89 -76,85 41,150 49,177 6,21 3,48 0,70 -14,24 -16,36 -28,53 -9,13 -98,7 -84,97 1,5 3,13 4,18l0 0 -66 22c-1,0 -11,5 -12,6 -51,38 -67,102 -112,153 -20,23 -76,43 -104,43 -64,1 -37,82 -48,106 -39,83 -133,-22 -121,63 5,34 39,60 34,71 -19,45 16,38 -35,111 -42,11 -134,66 -176,34 -77,-58 -53,26 -115,57 -64,32 -26,109 -35,145 -12,48 -5,92 -29,137 -29,54 -55,40 -99,40 -29,0 -73,-39 -89,-63 -25,-37 -56,-66 -91,-24 -34,41 -21,39 -72,58 -27,10 -58,57 -86,80 -27,23 -32,8 -69,19 -23,7 -82,-8 -90,14 -2,7 -6,102 -6,108l-27 92 0 0c-13,-7 -31,-12 -37,-13 -44,-9 -52,-23 -84,-44 -35,-22 -75,-28 -117,-44 -39,-15 -37,-14 -76,-23 -31,-7 -68,54 -117,65 -16,4 -145,-64 -177,-73 -16,-5 -2,-33 4,-42 27,-45 -5,-62 17,-95 5,-8 72,-60 80,-63 44,-18 -47,-78 -57,-93 -39,-57 -12,-56 42,-88l4 -1c37,-14 60,-29 103,-43 28,-9 84,-14 100,-24 44,-29 106,-77 149,-21 40,51 119,-56 135,-89 46,-96 65,-34 123,-76 95,-68 103,-17 141,-32 48,-19 13,-82 8,-112 -7,-38 -42,-78 -34,-110 11,-48 -59,-90 -44,-130 30,-78 43,-26 61,-134 -3,-10 -6,-22 -10,-32 -26,-78 35,-78 26,-154 -5,-40 -5,-69 -9,-106 -10,-91 -16,-72 17,-155 22,-56 9,-39 5,-86 -5,-62 30,-71 54,-107 20,-30 -150,-24 -169,-33 -70,-35 -108,57 -182,76 -91,24 -92,17 -164,-43 -13,-27 -32,-41 -33,-74 -3,-67 51,-81 90,-110 28,-21 65,-35 87,-52 30,-23 22,-19 54,-37 46,-26 61,-12 79,-21 34,-18 54,-58 37,-94 -26,-58 -60,-157 -75,-219 -5,-19 -11,-71 -13,-77 -15,-45 -2,-52 -28,-110l3 -10c20,-84 58,-126 28,-215 -5,-16 -13,-92 -13,-111 -2,-70 4,-83 -17,-155 -7,-24 3,-64 -11,-71 -14,-7 -107,38 -169,12 -28,-11 -64,-4 -98,-4 -65,0 -81,-37 -88,-100 -9,-30 -14,-49 -19,-77 -3,-19 -32,-81 -45,-93 -64,-58 -31,-39 11,-86 2,-2 23,-28 25,-31 24,-32 34,-45 28,-85 -5,-32 0,-23 -13,-56 -17,-45 -17,-38 -14,-89 4,-60 18,-83 42,-134 5,-10 -11,-40 -3,-65 13,-39 32,-46 40,-94 3,-18 19,-79 46,-66 30,15 106,-42 123,-65 13,-17 37,-30 55,-41 42,0 126,9 157,-24 36,-38 31,-58 82,-76 30,-11 79,-40 101,-63 35,-36 121,-43 121,-104 0,-76 71,-73 92,-167 9,-38 -25,-92 -20,-102l0 0c19,-47 13,-69 60,-110 42,-38 76,-102 86,-157 3,-19 3,-60 6,-85l0 -6c-18,-73 -10,-13 37,-79 21,-30 55,-59 60,-97 6,-47 16,-79 -12,-122 -9,-14 15,-69 7,-94 -11,-36 42,-132 -4,-150 -7,-3 -17,-12 -19,-20 -13,-3 21,-52 -13,-94 -10,-12 -22,-68 -13,-88 14,-31 71,-61 40,-100 -5,-6 -31,-47 -32,-52 -10,-49 -12,-95 -6,-145 51,-91 37,-60 34,-156 -1,-36 58,-60 69,-131 4,-25 41,-98 65,-67 6,8 25,17 34,37 13,29 86,62 112,33 21,-24 21,5 39,-50 15,-46 31,-70 56,-109 10,-15 52,-119 53,-137 1,-17 0,-31 -1,-43l0 0 120 18c34,5 51,3 82,5 20,1 80,-3 89,2 17,9 45,90 65,117 27,36 11,97 86,155 51,40 29,39 61,79 62,76 141,-35 221,26 54,41 127,-17 225,16 52,17 50,35 119,33 58,-2 155,59 168,60l0 0c-6,81 8,140 27,217 8,30 35,62 3,85 -41,30 -20,88 -41,128 -24,45 -53,63 -79,104 -24,36 -27,74 -4,112 16,26 48,54 73,71 3,2 6,4 10,7l82 48 0 0z"/>
  <path class="fil1 str0" d="M8429 14585c9,-71 35,-128 62,-192 36,-83 38,-277 64,-377 22,-82 49,-125 104,-190 47,-57 121,-74 186,-103 35,-16 64,-22 97,-34 31,-37 51,-42 82,-70 49,-45 51,-43 89,-101 32,-50 28,-55 48,-108 1,-1 9,-26 9,-26l50 -49 0 0c83,-39 67,-44 115,-107 5,-6 96,-136 94,-88 -1,22 14,54 34,68 15,11 57,49 47,71 -9,21 -76,64 -80,107 -3,36 22,29 17,88 -4,45 0,62 -11,109 -14,56 63,31 94,117 11,29 51,114 91,86 54,-36 47,-80 137,-50 34,11 19,48 74,38 74,-14 86,91 132,-12 18,-39 28,-46 52,-77 34,-29 86,-78 108,-16 15,42 73,47 106,35 55,-20 14,-91 48,-127 11,-11 28,18 58,24 99,19 74,-35 162,-42 55,-5 71,72 193,-24 48,-38 85,-28 137,-17 91,18 90,-5 161,-4 44,1 164,56 142,-22 -22,-77 -27,-199 -18,-278 3,-29 -3,-74 1,-111 2,-20 0,-77 11,-94 62,-101 35,-87 123,-164 6,-5 110,-57 118,-58 109,-17 182,57 225,43 55,-18 14,-135 85,-166 38,-17 63,-1 104,-6 30,-3 84,1 116,1l82 -8 0 0c8,57 11,113 13,171 2,38 16,48 51,55 28,5 72,35 86,61 10,18 71,78 97,71 50,-13 102,-90 126,-86 13,2 14,15 52,20 46,6 40,37 58,76 20,44 1,101 82,116 72,13 97,18 160,56 36,21 15,45 53,87 33,36 -8,107 50,104 20,-1 44,-57 92,-82 75,-27 54,-16 106,15 21,12 92,-15 145,-2 33,9 71,8 111,21 19,6 35,27 53,34l0 0c-13,13 -1,62 -37,103 -20,23 -4,44 -11,74 -24,92 31,50 42,106 2,11 -3,74 -14,86 -35,39 -65,-33 -99,27 -20,35 -114,30 -88,117 14,47 -16,75 -26,118 -11,45 -13,47 -16,95 -2,35 -20,80 -32,113 -2,37 -12,94 -51,112 -60,28 -16,-61 -126,70 -21,24 -53,47 -86,41 -29,-5 -53,-12 -82,-14 -32,-3 -86,-30 -127,-37 -68,-12 -69,-11 -129,-45 -14,-8 -66,-34 -81,-30 -31,9 -55,10 -77,-16 -49,-60 12,-86 -18,-105 -19,-12 -7,18 -47,-25 -27,-29 -58,-65 -101,-38 -30,19 1,62 -59,62 -49,0 -71,18 -118,21 -41,2 -80,89 -120,32 -8,-11 -41,-32 -55,-21 -44,34 -37,-72 -179,7 -33,19 -42,65 -106,33 -14,-7 -27,-13 -40,-21 -27,-12 -85,-49 -112,-35 -84,45 -43,-47 -134,2 -45,25 -19,10 -61,-13 -44,-24 -62,31 -121,40 -37,6 -56,11 -94,9 -29,-1 -40,18 -9,40 30,21 50,57 30,92 -24,42 28,40 -2,86 -27,42 -23,59 -77,87 -31,16 -76,42 -33,70 39,25 32,30 38,73 -20,110 -46,90 -105,176 -35,51 -59,95 -100,143 -45,52 -50,100 -120,137 -28,15 -43,7 -74,40 -63,67 -88,25 -114,59 -10,13 -1,55 -1,79 0,31 -6,67 -11,98 -5,20 -17,79 -36,94 -10,8 -6,23 -47,41 -54,24 -32,-14 -98,-9 -25,2 -74,0 -91,-19 -30,-32 -35,-120 -47,-124 -19,-8 -74,61 -124,-31 -39,-73 -27,35 -98,45l-9 2 0 0c-40,-19 -114,-81 -153,-98 -52,-23 -31,-21 -65,-49 -37,-31 -35,-78 -56,-107 -1,-1 -77,-51 -83,-55 -27,-15 -14,-15 -46,-16 -45,-1 -96,48 -110,42 -54,-22 -64,-60 -94,-99 -26,-34 -49,-99 -64,-138 -2,-3 -18,-38 -18,-40 -13,-46 -25,-47 -68,-59 -47,-13 -147,-10 -178,-30 -12,-8 -71,-73 -75,-86 -15,-45 -86,-43 -122,-45 -34,-2 -61,8 -85,-16 -39,-39 -93,-31 -146,-34l9 0z"/>
  <path class="fil1 str0" d="M8555 18728c0,48 46,134 103,61 29,-37 39,-55 82,-79 63,-33 76,30 133,53 53,21 50,10 93,51 61,58 147,6 195,104 25,51 65,57 113,31 36,-20 78,-37 119,-25 30,9 60,24 82,46 33,58 36,55 72,101 21,26 68,86 68,119 0,57 -13,65 32,115 56,62 63,77 86,159 13,47 15,48 54,77 4,3 15,17 18,21 26,-21 49,-44 66,-71 39,-62 75,-68 123,-120 41,-45 96,-103 165,-87 25,6 15,14 54,4 64,-16 89,-45 131,8 22,27 73,-18 83,26 10,41 57,38 88,33 43,-7 26,52 136,38 114,-14 47,31 132,37 -47,74 -44,33 -74,70 -30,36 -13,106 -18,150 -7,65 1,60 11,122 7,40 0,10 67,5 60,-5 75,-49 117,-78 18,-13 40,-50 65,-71 45,-38 33,-20 89,-37 51,-16 199,-58 183,-130 -9,-40 -23,-75 -34,-116 -23,-86 -9,-73 5,-156 5,-32 8,-33 8,-68 1,-41 16,-87 25,-126l2 -14c-23,-41 -14,-28 -25,-60 -13,-36 -24,7 -71,-11 -57,-22 -73,-19 -131,-18 -43,1 -35,-45 -119,22 -32,26 -65,18 -106,16 -48,-3 -42,-18 -84,-43 -43,-26 -13,-16 -65,-28 -46,-11 -47,-8 -89,-33 -51,-30 -149,25 -217,-44 -14,-14 -42,-44 -61,-45 -16,-1 -39,-15 -65,-19 -29,-5 -53,-20 -85,-24 -19,-3 -116,-22 -102,-53 27,-59 6,-63 17,-109 11,-43 10,-93 -22,-127 -11,-12 -48,-58 -46,-73 6,-36 74,-78 83,-139 3,-20 7,-45 20,-62 18,-44 39,-71 9,-113 -14,-21 -46,2 -15,-52 44,-75 -57,-78 11,-145 41,-40 36,-63 42,-117 8,-71 -105,-121 -106,-151 -1,-14 34,-125 42,-139 21,-39 21,-67 31,-107 0,-80 16,-37 42,-85 6,-11 19,-63 3,-73 -25,-15 5,-40 -12,-90 -16,-48 -9,-99 -63,-47 -37,36 -78,31 -66,-34 8,-45 -9,-90 -22,-133 -13,-41 -55,-44 -87,-84 -18,-22 -33,-30 -54,-60 -11,-15 -54,-58 -47,-73 13,-30 62,-52 61,-69 -1,-25 -53,-43 32,-107 28,-21 40,-50 43,-84 -10,-55 -3,-95 -15,-148 -9,-42 -18,-77 -42,-112 -24,-35 -24,-135 -31,-183 -5,-34 -10,-62 -20,-95 -22,-80 -24,-119 -16,-202 3,-27 8,-137 13,-151l-11 -63 0 0c-40,-19 -114,-81 -153,-98 -52,-23 -31,-21 -65,-49 -37,-31 -35,-78 -56,-107 -1,-1 -77,-51 -83,-55 -27,-15 -14,-15 -46,-16 -45,-1 -96,48 -110,42 -54,-22 -64,-60 -94,-99 -26,-34 -49,-99 -64,-138 -2,-3 -18,-38 -18,-40 -13,-46 -25,-47 -68,-59 -47,-13 -147,-10 -178,-30 -12,-8 -71,-73 -75,-86 -15,-45 -86,-43 -122,-45 -34,-2 -61,8 -85,-16 -39,-39 -93,-31 -146,-34l0 0c-1,4 -6,7 -8,11 -38,65 -140,88 -199,171 -28,39 -81,78 -103,113 -26,42 -74,92 -109,127l0 0c41,61 22,58 25,127 4,76 7,78 50,135 43,57 -21,168 59,245 17,16 56,69 60,92 3,16 5,32 -4,48 -28,28 -55,59 -24,97 51,60 36,74 50,141 16,76 103,21 153,95 6,9 12,38 29,62 10,14 18,29 30,42 20,21 34,41 58,62 49,43 6,111 -8,159 -31,106 -28,109 37,201 10,14 32,64 35,82 3,18 4,34 4,53 -9,60 -14,99 14,154 19,36 79,23 79,109 0,83 10,119 40,195 27,70 91,127 102,186 5,27 -8,100 -3,138 3,29 5,66 5,95 -1,119 43,103 63,164 18,55 80,65 129,67 56,2 41,56 86,88 27,19 72,60 48,95 -26,37 -50,69 -78,105 -90,115 41,219 -76,297 -37,24 -52,53 -52,96 -26,26 -23,33 -41,48 -7,5 -108,23 -123,23 -60,0 -96,-9 -117,59 -11,34 -1,34 -29,71 -16,21 -35,73 -47,92l0 0z"/>
  <path class="fil1 str0" d="M6828 13520c63,-2 125,-5 150,-76 11,-32 3,-47 39,-79 27,-24 24,-48 56,-79 41,-41 27,-101 31,-155 2,-24 -5,-51 -5,-74 -32,-119 -7,-63 24,-160 9,-30 -40,-73 -9,-116 26,-36 53,-34 52,-86 -2,-51 60,-32 91,-88 24,-45 3,-72 43,-111l41 -35 0 0c79,-4 56,4 120,18 23,5 78,41 81,-4 3,-38 1,-76 48,-75 38,1 106,-94 126,-39 16,43 15,81 82,74 56,-6 20,-19 83,-2 33,9 65,-82 89,-28 10,22 24,24 35,65 17,59 56,19 108,8 6,-1 22,-5 28,-7 72,-2 67,-1 82,55 4,15 6,88 7,108 2,31 11,50 3,87 -14,67 3,125 67,155 27,13 32,19 66,32 61,23 71,96 161,98 111,2 157,94 233,108 53,9 92,25 137,56 24,17 31,32 35,60 7,21 55,154 77,162 21,8 40,-16 61,-27 61,-32 78,-39 145,-33 3,0 4,3 8,3l0 0 -50 49c0,0 -8,25 -9,26 -20,53 -16,59 -48,108 -38,58 -39,57 -89,101 -31,28 -51,33 -82,70 -33,12 -62,18 -97,34 -65,29 -139,46 -186,103 -54,65 -82,107 -104,190 -26,101 -28,294 -64,377 -28,64 -54,121 -62,192l-9 0c-1,4 -6,7 -8,11 -38,65 -140,88 -199,171 -28,39 -81,78 -103,113 -26,42 -74,92 -109,127l0 0 -3 2c-3,2 -59,65 -62,69 -46,65 -147,19 -150,-12 -4,-54 -85,-67 -124,-74 -19,-9 -25,-13 -39,-27 -2,-2 -38,-66 -39,-69 -18,-54 -62,-54 -111,-46 -70,11 -118,-44 -187,4 -53,36 -96,40 -151,7 -46,-29 -34,-32 -97,-51l0 0c-4,-21 -6,-46 -17,-64 -16,-26 -53,-50 -56,-54 -30,-53 44,-68 46,-76 14,-52 -82,-22 -85,-61 -5,-55 19,-40 -2,-125 -8,-34 -8,-79 24,-101 47,-32 33,-51 48,-85 17,-38 79,3 73,-57 0,-4 -38,-81 -38,-82 0,-6 -33,-63 -38,-75 -20,-46 -1,-28 -38,-70 -37,-41 -94,-56 -122,-105 -29,-51 -29,-39 -29,-98 0,-46 -74,-64 -32,-124 48,-68 25,-31 54,-112l0 0z"/>
  <path class="fil1 str0" d="M5367 12017c83,-27 63,-11 133,-22 16,-3 30,0 41,-19 25,-44 -25,-154 29,-136 40,14 106,-14 137,-42 46,-43 80,-7 141,-19 51,-10 157,-5 113,-90 -21,-40 -50,-48 -20,-109 17,-35 18,-21 20,-66 2,-61 81,-46 127,-44 25,1 136,40 129,-1 -5,-30 -21,-54 -37,-79 -10,-16 -6,-26 -1,-42 26,-51 35,-73 56,-122 32,-79 61,31 151,-34 43,-31 -2,-63 45,-112 36,-38 62,-100 55,-153 -6,-39 9,-82 -2,-126 -5,-20 15,-40 40,-30 18,7 44,1 64,1l25 -8 0 0c0,-7 0,-4 1,-11 11,-43 60,-63 37,-93 -29,-36 -9,-52 25,-87 6,-30 35,-113 30,-136 -11,-49 -12,-76 -2,-126 15,-78 -23,-92 10,-160 29,-58 39,-64 35,-135 -2,-38 14,-138 29,-173 18,-42 20,-79 29,-123 -4,-22 -27,-36 -36,-50 -28,-49 -50,-77 -6,-124 16,-16 22,-25 36,-41 20,-23 -1,-90 -16,-110 -34,-46 -22,-48 -41,-88 -26,-54 -93,-124 -106,-176 -11,-42 -13,-44 -37,-78 -44,-63 -41,-26 -86,-113l-9 -134 0 0c-14,0 -29,0 -43,1 -41,3 -31,43 -36,57 -29,79 -100,-62 -77,30 0,53 6,47 -17,93 -13,27 -96,17 -105,-20 -11,-43 -26,-86 -45,-126 -30,-63 -13,-35 -12,-92 1,-46 -166,-28 -189,-71 -20,-36 -7,90 -47,127 -46,42 -46,25 -81,7 -20,-10 -34,-26 -40,-29 -44,-24 -53,-5 -86,5 -8,3 -13,101 -40,131 -42,47 -112,64 -170,38 -37,-16 -44,-36 -58,-68 -31,-73 25,-93 -49,-77 -69,14 -34,-12 -91,37 -42,36 -3,63 -114,118 -37,19 -91,3 -91,51 0,72 -2,76 -15,147 4,10 9,43 12,55 10,44 9,80 18,120 8,37 5,150 14,174 11,27 7,99 -10,122 -46,61 -56,49 -72,125 -6,30 -30,63 -62,64 -34,2 -70,15 -103,25 -45,14 -57,-11 -72,47 -6,25 -12,106 2,127 15,22 -39,35 -41,49 -1,10 46,55 50,60 -6,13 -10,27 -9,42 4,41 -3,37 -11,68 -11,47 -78,42 -115,40 -59,-4 -20,31 -40,52 -24,26 48,58 61,69 27,24 18,103 10,135 -34,138 -107,27 -109,3 -4,-54 -7,-62 -32,-109 -21,-40 -19,-87 -65,-108 -20,-9 -44,-6 -65,1 -44,15 -48,37 -70,65 -44,56 -64,145 -95,179 -19,22 -29,61 -29,90 2,93 -69,201 -69,266 0,35 -42,87 -72,89 -59,4 -27,34 -9,65 23,39 13,44 -17,77 -8,21 -13,35 -8,58 9,40 13,32 29,56 23,36 51,61 28,106 -35,69 -23,90 -18,131l0 0 120 18c34,5 51,3 82,5 20,1 80,-3 89,2 17,9 45,90 65,117 27,36 11,97 86,155 51,40 29,39 61,79 62,76 141,-35 221,26 54,41 127,-17 225,16 52,17 50,35 119,33 58,-2 155,59 168,60l0 0z"/>
  <path class="fil1 str0" d="M10219 9942c23,90 25,117 -49,175 -62,49 -64,170 -154,170 -86,0 -103,-63 -199,4 -28,19 -43,60 -43,93 0,79 -6,150 -17,228 -4,28 2,90 2,121 -23,64 -59,131 -41,201 16,62 -49,90 -43,162 3,41 18,199 39,221 35,37 36,22 72,47 59,41 51,127 85,197 23,47 40,74 58,125 17,57 33,79 92,77 47,-1 79,51 107,58l11 38 0 0c113,-13 90,1 176,54 30,19 135,-8 181,-8 19,0 38,0 57,0 64,18 54,13 104,45 22,14 71,18 93,4 28,-18 94,-56 124,-28 13,12 35,26 48,43 64,89 121,-40 192,-36 30,2 24,-7 58,11 33,17 233,10 274,3 44,-8 100,4 128,43 16,22 60,72 86,78 53,13 150,-4 208,-4l196 -97 0 0 60 -12c60,-28 117,-27 181,-59 100,-50 101,15 158,41 60,27 41,40 119,59 22,0 48,-1 69,0 50,2 154,-4 202,-18 55,-16 98,18 153,31 42,9 77,11 120,20 26,5 133,48 154,61 31,20 170,69 169,0 -2,-85 -78,-70 -123,-89 -57,-24 -64,-66 -61,-123 -4,-13 -32,-47 -42,-61 -65,-88 -18,-102 -123,-164 -44,-26 -52,-95 -35,-140 25,-63 -80,-26 -99,-56 -31,-48 63,-59 70,-87 9,-38 14,-52 32,-86 25,-48 4,-80 -44,-99 -50,-20 -59,-76 -117,-66 -54,9 -103,31 -154,-3 -37,-25 -53,-49 -72,-89l-1 -3c-34,-55 -30,-49 -82,-79 -51,-29 -150,-7 -207,4 -112,22 -80,-119 -27,-156 27,-19 23,-49 -3,-69 -76,-57 9,-116 8,-150 -2,-57 -59,-82 -103,-100 -67,-27 -62,-80 -132,-94 -58,-12 -50,-12 -109,-40l0 0 -68 -80c-44,-20 -65,-28 -95,-68 -12,-16 -69,-55 -87,-63 -57,-25 -119,66 -203,84 -64,13 -148,38 -174,107 -34,92 -102,90 -125,123 -12,17 -19,156 -19,185 0,25 -20,22 -24,16 -32,-43 -58,-46 -101,-70 -21,-12 -22,-55 -24,-79 -3,-53 -76,-46 -112,-38 -56,11 -92,-51 -100,-97 -7,-43 -15,-43 6,-89 0,-23 22,-97 31,-121 13,-34 17,-53 27,-86 11,-35 -6,-79 -27,-106 -36,-47 -23,-104 -55,-133 -4,-4 -119,-52 -133,-57 -35,-12 -74,49 -86,75 -29,62 -43,54 -83,93 -22,21 -67,-4 -77,-19 -30,-44 -33,-62 -72,-102 -22,-22 -62,-3 -79,15 -54,57 -54,67 -126,113l0 0z"/>
  <path class="fil1 str0" d="M10138 11859c113,-13 90,1 176,54 30,19 135,-8 181,-8 19,0 38,0 57,0 64,18 54,13 104,45 22,14 71,18 93,4 28,-18 94,-56 124,-28 13,12 35,26 48,43 64,89 121,-40 192,-36 30,2 24,-7 58,11 33,17 233,10 274,3 44,-8 100,4 128,43 16,22 60,72 86,78 53,13 150,-4 208,-4l196 -97 0 0c3,21 9,112 35,123 36,16 67,73 59,112 -7,32 3,108 -6,138 -11,36 -15,53 -35,87 -23,38 -28,68 -60,108 -23,29 -45,86 -77,116l0 0 -82 8c-32,0 -87,-4 -116,-1 -41,5 -66,-11 -104,6 -71,31 -30,148 -85,166 -43,14 -116,-60 -225,-43 -8,1 -113,53 -118,58 -88,77 -61,63 -123,164 -11,17 -9,75 -11,94 -4,38 2,82 -1,111 -9,80 -5,201 18,278 22,78 -98,22 -142,22 -71,-1 -70,23 -161,4 -52,-10 -89,-20 -137,17 -122,96 -138,20 -193,24 -88,8 -62,61 -162,42 -30,-6 -47,-35 -58,-24 -35,36 7,106 -48,127 -34,12 -91,7 -106,-35 -22,-62 -73,-13 -108,16 -24,30 -35,38 -52,77 -46,103 -58,-1 -132,12 -54,10 -40,-27 -74,-38 -91,-30 -83,13 -137,50 -40,27 -81,-57 -91,-86 -31,-86 -108,-60 -94,-117 11,-47 8,-64 11,-109 5,-59 -20,-52 -17,-88 4,-43 70,-86 80,-107 10,-23 -32,-60 -47,-71 -20,-14 -35,-46 -34,-68 2,-49 -90,82 -94,88 -48,63 -32,68 -115,107l0 0c-4,0 -5,-3 -8,-3 -67,-5 -84,1 -145,33 -21,11 -40,35 -61,27 -22,-8 -70,-140 -77,-162 -3,-27 -11,-43 -35,-60 -44,-31 -84,-47 -137,-56 -76,-14 -122,-106 -233,-108 -90,-1 -101,-75 -161,-98 -33,-13 -39,-19 -66,-32 -64,-30 -81,-88 -67,-155 8,-37 -1,-56 -3,-87 -1,-20 -3,-94 -7,-108 -15,-56 -9,-57 -82,-55 -5,2 -22,6 -28,7 -52,11 -91,51 -108,-8 -12,-41 -25,-43 -35,-65 -24,-54 -56,37 -89,28 -63,-17 -27,-4 -83,2 -67,7 -66,-31 -82,-74 -20,-55 -88,40 -126,39 -47,-2 -45,37 -48,75 -3,45 -58,9 -81,4 -64,-14 -40,-22 -120,-18l0 0c0,-17 0,-33 0,-51 0,-90 -6,-88 -71,-136 -41,-30 -53,-28 -28,-89 28,-39 31,-34 60,-61 39,-38 115,-35 133,-60 38,-53 39,-85 -4,-136 -16,-19 -86,-143 -23,-131 29,6 79,-12 107,-4 63,18 53,37 115,4 73,-39 119,-52 196,-12 32,17 57,8 80,12 59,12 142,-42 187,-77 68,-52 113,-95 165,-163l0 0c44,-57 26,-47 50,-93 31,-57 96,-41 150,-41 45,0 69,-18 108,-40 10,-5 19,-13 31,-16l31 -80 0 0c86,0 73,3 144,41 42,22 44,30 75,61 26,26 30,44 60,69 71,60 147,-8 223,-12 78,-4 59,81 68,129 11,56 -12,143 45,184 8,6 37,31 42,33 36,2 70,2 105,8 6,1 113,9 121,8 26,-1 84,21 94,51 7,20 9,30 21,48 47,71 88,36 149,65 29,14 166,33 194,24 138,-47 141,-121 172,-138l0 0z"/>
  <path class="fil1 str0" d="M7867 8474c-1,-31 0,-61 6,-91 24,-108 121,-87 205,-101 36,-6 62,13 127,-6 129,-38 127,-36 203,69 5,7 11,11 16,17 21,22 64,78 103,65 7,-2 79,-22 81,-22 52,1 79,31 119,58 122,82 47,-75 79,-119 19,-26 43,-5 81,-1 36,4 101,-5 125,10 20,12 29,20 29,47 0,44 15,40 29,80 7,18 15,42 14,62l13 23 0 0c13,-13 25,-24 42,-29 29,-8 35,-18 57,-30 39,-22 45,-73 71,-98 31,-30 40,-21 79,-21 28,0 28,-42 23,-60 -6,-23 1,-88 1,-114 -1,-31 10,-51 11,-74 1,-14 -65,-6 -99,-37 -37,-34 -30,-17 -69,-27 -23,-6 -71,6 -81,-16 -13,-31 -5,-30 -26,-70 -1,-19 -2,-33 0,-52 11,-98 -55,-152 -35,-231 25,-100 -10,-164 10,-253 9,-42 -11,-88 -57,-94 -62,-9 14,-58 37,-83 31,-35 3,-46 41,-88 39,-43 55,-32 95,-78 18,-20 30,-43 42,-67l30 -93 0 0c-11,-7 -48,-42 -60,-53 -51,-49 -28,-101 -44,-144 -13,-34 -14,-80 -3,-115 14,-44 11,-69 -29,-98 -68,-50 -86,-96 -133,-159l-36 -112 0 0c-52,13 -223,-33 -255,-2 -35,35 -36,42 -52,86 -14,39 -109,48 -138,41 -32,-8 -93,1 -126,7 -46,9 -55,5 -99,34 -11,8 -23,24 -32,35 -25,30 -39,91 -33,129 7,48 12,35 24,69 24,68 48,84 48,165 0,34 -16,65 -48,80 -52,25 -73,69 -111,107 -48,47 -54,45 -116,64 -41,12 -30,76 -86,93 -63,20 -65,34 -135,39 -61,4 -92,13 -148,45 -3,9 2,25 4,34 18,82 -84,118 2,169 46,27 -9,118 41,151 44,30 -30,82 -32,110 -3,45 -79,73 -90,110 -4,14 12,87 16,106 0,1 4,77 4,82 0,25 5,55 5,77 0,67 -72,17 -92,-5l0 0 -25 83c1,29 12,143 38,161 16,11 6,32 65,36 75,5 84,-10 102,74 16,74 118,8 155,21 0,0 17,2 20,3l0 0z"/>
  <path class="fil1 str0" d="M9097 8566c-8,104 30,125 -38,218 -21,29 -55,76 -43,112 26,83 59,88 101,151 36,55 69,100 15,155 -29,30 -68,44 -73,85 -8,29 -31,116 -33,147 -4,53 16,19 73,35 41,12 43,-4 81,32 24,23 64,18 81,-17 36,-70 82,-18 138,-26 20,-3 80,-7 74,26 -7,40 8,124 54,141 54,20 87,0 118,-44 21,-29 83,-101 125,-92 57,13 30,3 72,38 46,38 98,-4 157,75 58,77 15,55 0,113 -14,52 89,68 102,110 25,82 59,61 112,112l4 4 0 0c23,90 25,117 -49,175 -62,49 -64,170 -154,170 -86,0 -103,-63 -199,4 -28,19 -43,60 -43,93 0,79 -6,150 -17,228 -4,28 2,90 2,121 -23,64 -59,131 -41,201 16,62 -49,90 -43,162 3,41 18,199 39,221 35,37 36,22 72,47 59,41 51,127 85,197 23,47 40,74 58,125 17,57 33,79 92,77 47,-1 79,51 107,58l11 38 0 0c-30,16 -34,91 -172,138 -28,10 -165,-10 -194,-24 -61,-29 -102,7 -149,-65 -12,-18 -14,-28 -21,-48 -10,-31 -68,-53 -94,-51 -8,0 -115,-7 -121,-8 -35,-6 -69,-5 -105,-8 -5,-2 -35,-27 -42,-33 -57,-41 -35,-128 -45,-184 -9,-48 10,-133 -68,-129 -76,4 -152,72 -223,12 -30,-25 -34,-43 -60,-69 -31,-31 -34,-39 -75,-61 -71,-38 -58,-41 -144,-41l0 0 -1 -3c-1,-32 -25,-62 -37,-90 -38,-85 -101,-61 -107,-140 -3,-36 14,-53 41,-79 22,-57 29,-72 -17,-109 -34,-28 -47,-24 -81,-39 -45,-19 -77,-20 -84,-71 -16,-116 -25,-159 -126,-228 -21,-14 -36,-30 -51,-40 -31,-21 -47,-56 -57,-91 -26,-96 -92,-60 -121,-102 -30,-43 -33,-81 -69,-127 -35,-48 -74,-89 -104,-139 -41,-69 -37,-124 -122,-149 -93,-27 -52,-71 -123,-98 -50,-19 -104,-44 -55,-102 36,-43 -24,-63 -8,-100 18,-42 59,-25 87,-21 24,4 57,20 74,-2 28,-36 42,20 46,41 15,75 76,11 103,49 20,28 52,26 69,-4 54,-100 92,0 117,-92 14,-53 60,-69 83,-27 14,25 40,7 71,23 50,28 40,32 58,0 35,-64 52,-60 26,-139 -5,-16 -29,-53 -20,-60 2,-2 71,29 94,30 21,1 53,23 65,16 34,-20 8,-126 1,-150 -4,-7 -9,-18 -13,-24 -42,-65 -81,-121 -141,-170 -33,-27 -40,-34 -68,-64 -61,-64 33,-114 -25,-140 -34,-15 -56,-23 -87,-47 -53,-41 -124,-32 -140,-109 -17,-80 13,-124 -33,-218l0 0c-1,-31 0,-61 6,-91 24,-108 121,-87 205,-101 36,-6 62,13 127,-6 129,-38 127,-36 203,69 5,7 11,11 16,17 21,22 64,78 103,65 7,-2 79,-22 81,-22 52,1 79,31 119,58 122,82 47,-75 79,-119 19,-26 43,-5 81,-1 36,4 101,-5 125,10 20,12 29,20 29,47 0,44 15,40 29,80 7,18 15,42 14,62l13 23 0 0z"/>
  <path class="fil1 str0" d="M7513 8096c-34,-36 -67,14 -69,42 -3,44 -77,35 -104,34l-3 1c-49,18 -45,25 -83,51 -51,35 -46,45 -79,85 -36,44 -16,50 -13,97 5,68 60,83 -16,117 -47,21 -54,9 -66,61 -14,58 -153,22 -176,1 -36,-34 -44,42 -56,53 -19,18 -81,10 -94,-18 -10,-23 -60,4 -69,20 -32,61 -68,-5 -76,49 -5,34 -23,49 -31,74 -13,38 -41,44 -72,45l0 0 9 134c45,87 42,50 86,113 23,33 26,35 37,78 14,53 80,122 106,176 19,40 7,41 41,88 15,20 36,87 16,110 -14,16 -21,25 -36,41 -44,47 -22,74 6,124 8,15 32,28 36,50 -9,45 -11,81 -29,123 -15,35 -32,135 -29,173 5,71 -6,78 -35,135 -34,67 5,81 -10,160 -10,50 -9,77 2,126 5,23 -24,106 -30,136 -34,35 -54,51 -25,87 24,30 -26,50 -37,93 -2,6 -1,4 -1,11l0 0c56,60 42,43 119,18 20,-6 68,17 89,25 29,11 74,51 97,36 32,-20 -48,-124 13,-132 17,-2 98,55 106,84 29,106 107,24 148,77 19,24 12,78 82,86 34,4 100,19 123,45 62,70 100,17 184,7 38,-4 41,-1 76,11l5 2c31,7 113,24 120,66 9,55 42,26 46,123 2,51 40,114 86,54 36,-47 41,14 107,3 98,-16 103,-27 97,72 -3,49 17,105 61,131 35,21 57,36 79,71 2,2 4,9 5,12l0 0c44,-57 26,-47 50,-93 31,-57 96,-41 150,-41 45,0 69,-18 108,-40 10,-5 19,-13 31,-16l31 -80 0 0 -1 -3c-1,-32 -25,-62 -37,-90 -38,-85 -101,-61 -107,-140 -3,-36 14,-53 41,-79 22,-57 29,-72 -17,-109 -34,-28 -47,-24 -81,-39 -45,-19 -77,-20 -84,-71 -16,-116 -25,-159 -126,-228 -21,-14 -36,-30 -51,-40 -31,-21 -47,-56 -57,-91 -26,-96 -92,-60 -121,-102 -30,-43 -33,-81 -69,-127 -35,-48 -74,-89 -104,-139 -41,-69 -37,-124 -122,-149 -93,-27 -52,-71 -123,-98 -50,-19 -104,-44 -55,-102 36,-43 -24,-63 -8,-100 18,-42 59,-25 87,-21 24,4 57,20 74,-2 28,-36 42,20 46,41 15,75 76,11 103,49 20,28 52,26 69,-4 54,-100 92,0 117,-92 14,-53 60,-69 83,-27 14,25 40,7 71,23 50,28 40,32 58,0 35,-64 52,-60 26,-139 -5,-16 -29,-53 -20,-60 2,-2 71,29 94,30 21,1 53,23 65,16 34,-20 8,-126 1,-150 -4,-7 -9,-18 -13,-24 -42,-65 -81,-121 -141,-170 -33,-27 -40,-34 -68,-64 -61,-64 33,-114 -25,-140 -34,-15 -56,-23 -87,-47 -53,-41 -124,-32 -140,-109 -17,-80 13,-124 -33,-218l0 0c-3,-1 -20,-3 -20,-3 -37,-14 -139,53 -155,-21 -18,-83 -27,-69 -102,-74 -59,-4 -48,-25 -65,-36 -27,-18 -37,-132 -38,-161l25 -83 0 0z"/>
  <path class="fil1 str0" d="M11375 7587c4,-43 5,-84 10,-127 5,-45 -18,-180 24,-203 50,-27 111,-32 100,-105 -6,-36 -19,-122 1,-152 16,-25 53,-43 79,-57 23,-30 36,-47 57,-76 12,-18 61,-103 46,-122 -7,-9 -30,-46 -30,-57 0,-20 36,-8 65,-24 43,-23 61,-9 102,-55 66,-74 99,-38 140,-85 19,-22 4,-108 -5,-108 -18,1 -56,39 -136,33 -25,-2 -97,-5 -107,-28 -11,-29 31,-17 43,-77 22,-112 59,-48 127,-85 45,-25 75,-53 100,5 35,83 100,-11 159,111 12,25 24,45 57,49 43,5 56,-61 112,-79 103,-33 44,-54 56,-113 12,-61 60,-15 96,-20 18,-2 40,-14 58,-9 57,9 94,12 148,30 53,18 74,-26 132,-34 107,-15 74,-77 27,-138 -29,-37 -53,-44 -28,-97 26,-56 -19,-100 51,-140 20,-11 93,-4 112,22 35,49 74,-18 128,-28 11,-2 23,-6 35,-8l69 -32 0 0c-13,-46 -94,-33 -113,-50 -38,-33 -51,-91 -36,-139 18,-56 0,-71 9,-113 17,-78 18,-56 -4,-136 -22,-79 -23,-119 28,-188 139,-188 243,14 322,-11 51,-16 26,18 72,19 95,2 84,-68 38,-85 -45,-16 -40,6 -63,-53 2,-70 40,-51 79,-25 93,63 140,18 86,-63 -45,-68 31,-135 -35,-149 -72,-16 -117,56 -136,-35 -5,-27 -19,-42 -21,-51 -9,-45 104,-47 114,-62 24,-36 -88,-55 -95,-60 -18,-13 -81,-6 -100,1 -64,23 -94,-24 -41,-83 27,-30 37,-58 55,-94 33,-64 -100,-50 -144,-68 -13,-5 -86,31 -99,40 -36,24 -36,39 -65,12 -27,-25 0,-143 8,-175 0,-14 -1,-29 -2,-44 -3,-42 10,-156 0,-179 -28,-63 -13,-121 -4,-187 9,-67 -86,-34 -120,-22 -55,19 -174,32 -224,-6 -26,-19 -82,-50 -97,-76 -16,-30 -58,-86 -85,-105 -31,-21 -22,-42 -13,-76 10,-34 -111,-18 -126,-14 -24,5 -39,-45 -38,-56 3,-50 -48,-1 -58,20 -28,58 -11,36 -53,82 -15,17 -72,24 -87,18 -23,-9 -52,-8 -73,-12 -28,-5 -71,-8 -98,-10 -20,-17 -70,-8 -40,-58 6,-10 61,-48 29,-61 -34,-14 -64,39 -127,11 -50,-22 -106,23 -122,70 -17,48 -58,63 -68,13 -9,-43 -9,-50 -24,-92 -16,-47 -80,-65 -124,-64 -65,2 -62,-29 -62,-82 0,-57 -27,-72 -26,-92 2,-56 -15,-78 -73,-86 -55,-8 -45,-38 -103,-42 -37,-3 -43,-2 -82,-21l-59 -76 0 0c-10,5 -23,11 -49,22 -18,8 -30,12 -48,24 -22,15 -22,43 -6,57 27,23 20,25 27,60 10,53 -74,55 -119,110 -41,50 -106,24 -149,66 -51,50 -91,43 -159,53 -19,3 -44,-9 -47,-2 -13,29 74,117 -37,111 -55,-3 -60,18 -105,18 -7,0 -26,-9 -46,-19l0 0 11 100c50,21 64,33 116,49 31,10 53,42 66,70 14,31 85,56 98,98 1,3 29,36 37,54 11,26 44,37 42,94 -2,59 -7,79 -26,136l-1 5c-37,60 -55,119 -50,189 2,33 11,63 11,102 0,103 5,103 64,187 50,72 143,94 184,182 32,68 38,126 36,201l-1 9c-11,48 -12,79 -9,127 3,48 9,62 42,100 23,26 115,29 152,35 45,8 69,1 114,22 26,12 37,4 53,40 9,18 23,70 22,90 0,0 16,56 18,64 1,3 1,4 2,6 -18,45 -37,89 -36,138 1,31 -19,82 -40,104 -25,26 -67,33 -100,41 -42,11 -52,75 -90,102 -84,62 -93,130 -140,215 -11,19 -23,40 -34,59 -13,51 -13,45 -56,54 -51,11 -73,-1 -125,36 -27,20 -72,63 -52,99 43,75 -62,69 13,167 17,22 1,54 19,96 19,47 10,34 38,77 40,62 2,124 -40,172 -15,17 -59,53 -61,74l0 0c-10,62 -9,110 23,166 27,46 74,87 17,129 -33,25 -21,78 -33,92 -33,41 -32,50 -28,100 5,56 45,52 86,76l2 1c73,-7 43,0 89,15 31,10 60,22 89,37 32,16 98,12 126,-14 18,-16 96,-54 122,-45 11,4 40,2 59,14 27,17 42,16 71,43 17,16 25,17 40,42 5,8 18,19 27,34 15,26 22,27 47,38l0 0z"/>
  <path class="fil1 str0" d="M12688 8045c21,84 46,117 -44,160 -57,27 -5,86 -18,142 -26,114 -9,141 45,238 22,40 37,124 -6,156 -23,17 -59,85 -59,118 1,53 12,56 16,97l0 4c-7,61 -27,93 35,112 18,6 47,31 39,55 -9,30 -12,55 -24,88 -25,64 9,121 -53,177 -12,11 -31,46 -34,63 -4,21 -13,48 -12,69 2,43 -57,63 -66,119 -2,14 9,57 -9,78 -17,20 -7,14 -32,32 -38,28 -31,37 -22,86 2,11 7,75 7,86 -3,65 7,173 -64,210 -29,15 -59,-7 -87,-4 -44,4 -47,42 -90,37 -46,-5 -52,52 -109,66 -34,8 -58,41 -66,75 -3,11 -4,20 -7,31l0 0 -68 -80c-44,-20 -65,-28 -95,-68 -12,-16 -69,-55 -87,-63 -57,-25 -119,66 -203,84 -64,13 -148,38 -174,107 -34,92 -102,90 -125,123 -12,17 -19,156 -19,185 0,25 -20,22 -24,16 -32,-43 -58,-46 -101,-70 -21,-12 -22,-55 -24,-79 -3,-53 -76,-46 -112,-38 -56,11 -92,-51 -100,-97 -7,-43 -15,-43 6,-89 0,-23 22,-97 31,-121 13,-34 17,-53 27,-86 11,-35 -6,-79 -27,-106 -36,-47 -23,-104 -55,-133 -4,-4 -119,-52 -133,-57 -35,-12 -74,49 -86,75 -29,62 -43,54 -83,93 -22,21 -67,-4 -77,-19 -30,-44 -33,-62 -72,-102 -22,-22 -62,-3 -79,15 -54,57 -54,67 -126,113l0 0 -4 -4c-53,-52 -87,-30 -112,-112 -13,-43 -116,-58 -102,-110 16,-58 58,-35 0,-113 -59,-79 -111,-37 -157,-75 -42,-35 -15,-26 -72,-38 -42,-9 -104,62 -125,92 -31,44 -64,64 -118,44 -46,-17 -61,-100 -54,-141 6,-33 -55,-29 -74,-26 -56,8 -102,-44 -138,26 -18,35 -57,40 -81,17 -38,-36 -40,-21 -81,-32 -56,-16 -77,18 -73,-35 2,-31 25,-118 33,-147 5,-41 43,-54 73,-85 54,-56 21,-100 -15,-155 -42,-63 -75,-68 -101,-151 -12,-36 22,-83 43,-112 68,-93 29,-114 38,-218l0 0c13,-13 25,-24 42,-29 29,-8 35,-18 57,-30 39,-22 45,-73 71,-98 31,-30 40,-21 79,-21 28,0 28,-42 23,-60 -6,-23 1,-88 1,-114 -1,-31 10,-51 11,-74 1,-14 -65,-6 -99,-37 -37,-34 -30,-17 -69,-27 -23,-6 -71,6 -81,-16 -13,-31 -5,-30 -26,-70 -1,-19 -2,-33 0,-52 11,-98 -55,-152 -35,-231 25,-100 -10,-164 10,-253 9,-42 -11,-88 -57,-94 -62,-9 14,-58 37,-83 31,-35 3,-46 41,-88 39,-43 55,-32 95,-78 18,-20 30,-43 42,-67l30 -93 0 0c54,23 80,30 136,25 54,-4 110,-45 153,-75 59,-41 33,15 117,-31 66,-35 97,-77 165,-115 65,-36 53,-32 109,-4 19,10 30,73 98,82 44,6 116,33 156,31 103,-5 105,-6 202,-33 31,-9 103,4 134,-6 25,-8 42,1 64,14l34 19 0 0c-10,62 -9,110 23,166 27,46 74,87 17,129 -33,25 -21,78 -33,92 -33,41 -32,50 -28,100 5,56 45,52 86,76l2 1c73,-7 43,0 89,15 31,10 60,22 89,37 32,16 98,12 126,-14 18,-16 96,-54 122,-45 11,4 40,2 59,14 27,17 42,16 71,43 17,16 25,17 40,42 5,8 18,19 27,34 15,26 22,27 47,38l0 0c28,41 62,114 117,125 44,9 48,20 101,25 17,2 176,24 183,31 35,34 23,39 77,72 84,52 161,208 228,236 71,30 113,7 170,83 53,71 103,20 160,-21 29,-21 74,-65 110,-70l168 -21 0 0z"/>
  <path class="fil1 str0" d="M10362 3464c-21,-10 -43,-22 -54,-27 -54,-23 -43,-98 -107,-51 -74,54 -109,15 -179,25 -69,10 -52,-12 -84,-20 -76,-20 -103,17 -143,16 -38,-1 -63,-4 -104,-4 -18,-21 -61,-16 -84,-16 -55,0 -72,-25 -95,-25 -49,0 -81,26 -100,25 -66,-2 -24,-68 -65,-82 -19,-7 -27,-39 -26,-57 2,-42 -12,-35 26,-75l-47 -4c-16,6 -19,9 -32,19 -15,11 -20,21 -31,30 -24,21 -28,53 -61,69 -26,12 -14,8 -34,24 -22,18 -23,24 -54,31l-5 0c-56,-1 -113,11 -166,11 -68,-1 -188,11 -249,-9 -23,-7 -16,-75 -43,-113 -11,-16 -78,-26 -99,-29 -64,-9 -39,-27 -106,-21 -68,7 -47,23 -121,0 -88,-27 -29,-63 -113,7 -33,27 -67,58 -100,83 -31,25 -52,20 -75,34 -26,16 -85,31 -114,41 -35,18 -50,40 -96,37 -42,-2 -120,9 -152,-24 -38,-38 -52,-31 -84,-55 -44,-34 -72,-7 -89,-93 -18,-87 -69,-38 -74,-82 -8,-84 -54,-10 -68,-87 -15,-78 -28,-49 -40,-78 -15,-34 -1,-24 -35,-30 -26,-5 -107,20 -125,34 -35,28 -37,15 -63,31 -19,12 -34,6 -38,11 -19,27 4,11 -42,64 26,16 30,40 20,68 -34,98 43,97 97,159 15,16 35,52 40,73 10,40 35,35 19,95 -27,101 87,101 116,162 16,32 31,87 38,124l-10 103c-31,32 -53,39 -89,59 -48,27 -18,105 -113,87 -33,-6 -41,41 -42,65 -2,26 -13,57 -13,73 1,49 -54,43 -35,70 19,28 10,44 -23,58 -16,7 -73,-4 -82,13 -18,31 6,84 0,127 -7,51 49,25 77,59 19,23 23,17 37,37 7,11 25,84 25,97 1,61 9,54 34,99 25,46 -12,51 48,36 27,-6 64,-42 66,-66 2,-22 6,-35 13,-56 10,-31 6,-76 43,-64 50,17 66,-26 95,-2 33,27 58,-2 70,-34 23,-65 73,-62 89,-109 8,-24 37,-31 50,-14 36,50 55,56 109,78 17,7 43,3 57,5 39,6 33,-4 71,30 4,5 5,12 7,17 16,48 -1,49 41,71 31,17 41,7 65,9 46,4 71,-18 109,-9 62,13 165,-108 197,-33 29,69 48,53 83,94 20,23 11,112 23,126 12,14 16,0 54,46 9,14 19,29 33,40 45,34 24,46 32,75 7,26 -2,74 41,63 71,-17 45,29 92,11 37,-14 39,35 34,59 -20,107 53,27 94,53 41,26 73,-13 113,-32 23,-10 104,22 118,44 4,6 3,63 3,73 -1,26 18,42 43,43 35,2 42,-8 80,-8 17,0 33,18 39,34 8,22 52,76 73,82 27,8 17,7 32,21 47,44 20,78 25,136 2,25 -5,39 -20,61 -30,47 -45,36 -60,96 -4,4 -9,12 -13,18 -23,31 -92,96 -64,138 22,34 -14,69 -22,112 -5,27 -31,52 -13,69 22,22 29,61 45,77 33,33 14,61 -21,83 -71,44 -32,71 -102,89l0 0 36 112c47,63 65,109 133,159 40,30 43,54 29,98 -11,35 -10,81 3,115 16,43 -7,95 44,144 11,11 49,46 60,53l0 0c54,23 80,30 136,25 54,-4 110,-45 153,-75 59,-41 33,15 117,-31 66,-35 97,-77 165,-115 65,-36 53,-32 109,-4 19,10 30,73 98,82 44,6 116,33 156,31 103,-5 105,-6 202,-33 31,-9 103,4 134,-6 25,-8 42,1 64,14l34 19 0 0c3,-21 47,-57 61,-74 42,-48 80,-111 40,-172 -28,-43 -19,-31 -38,-77 -17,-42 -2,-75 -19,-96 -75,-99 31,-92 -13,-167 -21,-36 24,-79 52,-99 52,-38 74,-26 125,-36 43,-9 42,-3 56,-54 11,-19 24,-40 34,-59 46,-85 56,-153 140,-215 37,-28 47,-92 90,-102 33,-8 75,-15 100,-41 21,-22 40,-74 40,-104 -1,-48 19,-92 36,-138 -2,-3 -2,-3 -2,-6 -2,-7 -18,-63 -18,-64 1,-20 -13,-71 -22,-90 -17,-36 -27,-27 -53,-40 -45,-21 -69,-14 -114,-22 -37,-6 -129,-9 -152,-35 -33,-38 -39,-52 -42,-100 -3,-48 -2,-79 9,-127l1 -9c2,-75 -4,-132 -36,-201 -41,-88 -134,-110 -184,-182 -58,-84 -64,-84 -64,-187 0,-39 -9,-69 -11,-102 -4,-70 14,-129 50,-189l1 -5c20,-57 24,-77 26,-136 2,-57 -31,-68 -42,-94 -7,-17 -35,-50 -37,-54 -13,-41 -84,-66 -98,-98 -13,-28 -35,-60 -66,-70 -51,-16 -66,-28 -116,-49l-11 -100 0 0z"/>
  <path class="fil1 str0" d="M6131 21840c-12,17 -81,124 -68,145 33,53 82,33 122,129 30,71 105,107 140,174 29,56 66,61 125,69 173,23 95,59 96,110 0,12 -2,31 5,41 5,57 2,74 45,105 43,30 -40,48 19,116 7,8 75,20 49,87 -7,19 -65,52 -85,49 -48,-7 -67,-12 -80,43 -9,40 47,57 8,123 -15,25 -36,95 -20,120 77,70 51,21 111,59 26,16 -23,107 57,71 33,-15 146,-38 130,31 -5,23 -7,73 9,94 8,11 33,22 54,49 21,27 24,34 41,63 31,52 85,-29 163,109 20,35 73,35 102,64 62,62 69,-40 114,-31 75,16 116,-59 191,-26 14,6 14,38 67,63 68,33 58,82 78,145 1,4 5,8 7,13l35 35 0 0c-3,13 -47,78 -55,100 -24,62 -65,44 -67,69 -4,56 67,79 98,115 19,23 17,20 24,58l0 0c-18,-2 -70,38 -105,12 -34,-26 -61,-16 -74,-38 -21,-36 -71,-18 -99,2 -62,44 -55,50 -144,57l0 0c-16,-12 -31,-48 -38,-67 -12,-35 40,-109 -33,-139 -76,-31 -93,-35 -83,-121 9,-77 -77,54 -136,23 -72,-37 -67,58 -70,102 -7,88 -127,68 -85,162 14,31 31,115 10,146 -52,81 114,137 87,216 -34,97 -92,-49 -103,-80 -17,-50 -56,-17 -87,-50 -30,-31 -82,-46 -124,-41 -52,6 -58,-7 -89,36 -27,38 -61,138 -117,137 -41,-1 -41,48 -28,75 14,29 6,39 37,60 -10,18 -26,53 -36,66 -28,37 -24,65 28,70 116,12 -23,133 -104,122 -52,-7 -95,-79 -92,56 2,64 -16,47 -38,91 -34,69 73,84 116,88 36,3 130,-13 103,40 -44,89 -177,-6 -230,-14 -60,-9 -33,-2 -82,-32 -50,-31 -51,-60 -116,-69 -77,-10 -40,-77 -89,-94 -80,-27 -103,-57 -119,-142 -5,-17 -16,-31 -20,-50 -6,-36 -48,-56 -81,-61 -60,-9 -120,-6 -179,-30 -39,-16 -47,-31 -88,-49l0 0c0,-3 14,-37 16,-40 26,-39 38,-90 58,-129 33,-62 -43,-41 -65,-27 -65,41 -40,-46 -18,-73 34,-40 49,-70 63,-119 10,-37 10,-81 16,-118 6,-32 -11,-30 2,-83 0,-10 4,-39 5,-52 8,-82 69,-142 65,-183 -4,-45 -3,-48 0,-93 4,-68 -66,-85 -8,-168 10,-15 24,-102 20,-113 -24,-54 62,-55 61,-91 -3,-95 -8,-70 48,-153 0,-12 -1,-19 -4,-30 -16,-58 -12,-81 -84,-67 -35,7 -101,-41 -91,-58 50,-92 112,-25 138,-46 52,-41 -54,-118 -33,-166 20,-46 -6,-46 -21,-91 -15,-48 81,-66 76,-130 -4,-47 -31,-10 -17,-120 -4,-21 -4,-50 -7,-71 -12,-88 -28,-155 -26,-246 1,-32 -11,-112 -57,-103 -55,11 -142,53 -193,18 -54,-37 -37,-77 -54,-113 -21,-46 -33,-84 -52,-132l0 0c9,-6 35,-21 45,-26 55,-26 -10,-90 8,-128 27,-56 101,3 132,26 86,65 71,-28 137,-38 107,-17 74,-81 109,-104 37,-24 66,-38 110,-32 40,5 54,-16 92,-33 27,-12 56,-9 79,-16 30,-9 116,35 136,53 12,12 39,22 47,2 8,-20 34,-58 60,-45 46,23 16,23 85,36l0 0c-43,48 -70,75 -63,142 2,21 -9,70 -21,84l0 0z"/>
  <path class="fil1 str0" d="M3495 20110l113 -27c46,-24 26,-17 23,-58 -3,-35 -31,-25 -2,-97 10,-23 -21,-125 36,-145 36,-13 77,-131 106,-61 28,67 117,-10 152,-9 28,1 46,-34 86,-48 26,-10 -8,-55 -45,-53 -39,1 -38,-82 -76,-40 -41,46 -89,70 -150,72 -31,1 -53,-45 -39,-81 14,-36 1,-85 40,-77 53,11 72,-22 76,-68 7,-70 20,-84 88,-86 62,-2 103,-36 143,-78 4,-5 43,-25 60,-40 4,-3 7,-6 10,-9 17,-22 29,-47 46,-65 18,-19 50,5 75,11 34,8 61,19 97,27 80,18 80,137 122,197 22,30 37,65 62,96 12,15 21,35 32,51 33,73 45,84 91,139 24,29 32,-18 87,0 18,6 54,3 64,37 10,34 8,38 14,71 16,86 104,83 135,156 17,40 62,77 96,105 38,31 84,33 132,34 38,1 51,2 89,6 24,3 145,18 146,-20 1,-28 -32,-41 -53,-74 -61,-97 -1,-94 23,-196 7,-31 42,-181 94,-127 51,52 145,43 200,95 61,58 104,-6 169,11 55,14 75,25 134,30 23,2 35,5 56,8l113 -5 0 0c33,70 20,33 4,100 -9,36 3,76 35,97 10,6 54,1 79,6 121,25 110,95 235,126 68,17 2,55 39,101 3,4 4,1 7,7 26,2 101,8 115,42 12,30 -101,46 -118,48 -17,2 -81,32 -81,55 0,80 56,46 20,113 -22,40 -24,79 -15,121 11,50 -60,68 -72,139 -4,23 128,88 -9,134 -37,12 -43,43 -39,78l0 7c30,41 22,34 65,32 12,-1 105,-17 98,3 -14,38 -25,86 -13,126 29,93 4,84 0,172 -2,39 5,59 0,97 -6,43 -81,15 -106,-8 -18,-16 -59,-104 -91,-56 -18,26 14,86 28,110 21,38 1,86 -35,109 -27,18 -20,11 -44,23 -14,7 -16,29 -25,40l0 0c-69,-13 -39,-13 -85,-36 -26,-13 -52,25 -60,45 -8,19 -35,9 -47,-2 -20,-19 -106,-62 -136,-53 -23,7 -52,4 -79,16 -39,17 -52,38 -92,33 -44,-5 -73,8 -110,32 -35,23 -3,87 -109,104 -66,10 -51,104 -137,38 -30,-23 -105,-82 -132,-26 -18,38 48,102 -8,128 -10,5 -36,20 -45,26l0 0 -31 -52c-11,-17 -41,-56 -64,-56 -107,3 -111,92 -139,172 -20,56 -82,32 -121,33 -34,1 -179,-8 -211,-14 -31,-6 -31,-99 -28,-121 8,-53 -39,-128 -28,-171 19,-70 -80,-21 -114,-63 -28,-35 -123,24 -142,-33 -14,-42 -51,-40 -92,-41l-144 -26 0 0c7,-5 15,-13 23,-19 24,-19 109,-45 82,-84 -33,-47 -78,-19 -134,-118 -32,-56 -58,-99 -1,-148 31,-27 71,-33 103,-46 52,-22 142,-2 170,-40 49,-68 39,-185 16,-261 -4,-4 -6,-6 -11,-9 -51,-35 -87,21 -156,-24 -35,-23 -2,-108 -45,-132 -100,-57 -169,29 -215,-4 -42,-31 -10,-86 -106,-131 -25,-12 -43,-28 -64,-41 -61,-39 -105,-33 -171,-28 -89,7 -79,41 -83,-57 -3,-68 9,-163 29,-228 3,-14 3,-54 -4,-68l0 0z"/>
  <path class="fil1 str0" d="M8611 20861c-4,-1 10,-5 33,-46 13,-24 39,-55 41,-84 1,-14 15,-22 10,-56 -7,-44 0,-50 -24,-93 -15,-27 -25,-58 -1,-82 48,-46 40,-152 41,-215 0,-8 -4,-54 -7,-60 -14,-27 -22,-116 -13,-145 -2,-18 0,-123 10,-144 26,-50 23,-117 33,-175 13,-76 -14,-39 -78,-48 -96,-14 -58,-46 -172,-16 -67,17 -85,-24 -86,-84 -1,-49 16,-123 -37,-152 -60,-33 -119,-37 -181,-78 -46,-30 -77,-45 -124,-70 -24,-13 -34,-20 -53,-39 -69,-41 -62,-67 -40,-140 13,-43 -66,-43 -21,-119 27,-45 42,-146 51,-200 4,-26 -10,-47 18,-80l0 0c0,-14 -15,-46 -12,-59 14,-50 -8,-84 -18,-129 -1,-6 -12,-24 -14,-30 -10,-30 -29,-55 -48,-79 -17,-22 -27,-104 -21,-128 10,-38 -14,-63 -50,-72 -30,-7 -38,-6 -71,4l0 0 -44 39c-11,4 -19,7 -31,11 -63,19 -83,-7 -127,-12 -170,-21 -146,97 -237,114 -86,16 -84,-20 -138,-47 -38,-19 -77,-36 -113,-58 -55,-34 -46,-36 -86,-80 -47,-50 -56,-66 -129,-82 -31,-1 -58,16 -87,25 -53,16 -84,61 -134,77 -94,30 -48,-19 -144,50 -98,71 -134,25 -197,46 -48,16 -55,128 -79,166 -27,44 -20,89 -61,140 -12,16 -81,73 -99,81 -66,29 -57,26 -107,74 -25,24 -125,31 -120,59 12,68 25,114 32,187 -3,31 2,48 21,74 25,36 30,45 71,59 40,14 37,29 56,49 42,43 50,55 104,83 18,10 24,19 35,27 35,23 48,50 75,76 28,27 -31,55 -52,67 -86,51 -21,62 -11,105 6,24 -29,66 -36,104 -10,48 -17,62 -2,112l0 0c33,70 20,33 4,100 -9,36 3,76 35,97 10,6 54,1 79,6 121,25 110,95 235,126 68,17 2,55 39,101 3,4 4,1 7,7 26,2 101,8 115,42 12,30 -101,46 -118,48 -17,2 -81,32 -81,55 0,80 56,46 20,113 -22,40 -24,79 -15,121 11,50 -60,68 -72,139 -4,23 128,88 -9,134 -37,12 -43,43 -39,78l0 7c30,41 22,34 65,32 12,-1 105,-17 98,3 -14,38 -25,86 -13,126 29,93 4,84 0,172 -2,39 5,59 0,97 -6,43 -81,15 -106,-8 -18,-16 -59,-104 -91,-56 -18,26 14,86 28,110 21,38 1,86 -35,109 -27,18 -20,11 -44,23 -14,7 -16,29 -25,40l0 0c-43,48 -70,75 -63,142 2,21 -9,70 -21,84l0 0c114,0 128,-9 230,49 68,39 100,29 169,53 52,17 58,11 108,48 41,31 90,52 127,4 40,-54 64,-76 111,-122l3 -3c49,-2 82,-1 128,12 30,8 24,25 70,22 51,-3 16,115 64,92 43,-20 122,-58 165,-70 9,-2 55,-21 32,-37 -33,-22 -37,-50 -85,-62 -51,-13 -90,-72 -100,-122 -13,-64 32,-36 32,-127 0,-56 39,-87 93,-93 60,-7 84,6 141,-37 35,-26 77,-60 112,-20 40,46 82,42 136,35 35,-4 115,18 128,-39 9,-39 -56,-113 -58,-148 -8,-22 -44,-94 -16,-116 37,-29 44,-68 54,-110 23,-95 102,3 165,-63 43,-46 -106,-78 -32,-161 22,-24 44,-40 68,-69 29,-36 58,-27 68,20 9,44 46,75 83,98 85,54 75,-174 209,-62 60,50 26,106 73,113 36,5 71,-21 109,-29l92 -36 0 0z"/>
  <path class="fil1 str0" d="M4637 26204l110 30c61,24 94,28 139,-21 23,-25 101,-60 101,-90 0,-45 7,-39 -6,-91 -7,-27 -16,-49 -15,-78 1,-32 -70,-36 -37,-123 9,-24 14,-98 4,-124 -18,-49 -19,-87 -57,-132 -20,-23 -95,-44 -125,-54 -27,-9 -48,-4 -83,-24 -51,-28 -108,-56 -165,-69 -15,-3 -105,-34 -79,-57 24,-20 58,-37 87,-63 19,-17 45,-33 61,-48 52,-33 75,-36 121,-82 34,-35 16,-76 34,-112 21,-41 26,-54 55,-93 18,-25 20,-29 42,-52 48,-51 0,-108 78,-164 13,-9 74,-13 100,-20 87,-24 143,9 218,0 12,-1 46,-2 59,-2l63 -21 0 0c0,-3 14,-37 16,-40 26,-39 38,-90 58,-129 33,-62 -43,-41 -65,-27 -65,41 -40,-46 -18,-73 34,-40 49,-70 63,-119 10,-37 10,-81 16,-118 6,-32 -11,-30 2,-83 0,-10 4,-39 5,-52 8,-82 69,-142 65,-183 -4,-45 -3,-48 0,-93 4,-68 -66,-85 -8,-168 10,-15 24,-102 20,-113 -24,-54 62,-55 61,-91 -3,-95 -8,-70 48,-153 0,-12 -1,-19 -4,-30 -16,-58 -12,-81 -84,-67 -35,7 -101,-41 -91,-58 50,-92 112,-25 138,-46 52,-41 -54,-118 -33,-166 20,-46 -6,-46 -21,-91 -15,-48 81,-66 76,-130 -4,-47 -31,-10 -17,-120 -4,-21 -4,-50 -7,-71 -12,-88 -28,-155 -26,-246 1,-32 -11,-112 -57,-103 -55,11 -142,53 -193,18 -54,-37 -37,-77 -54,-113 -21,-46 -33,-84 -52,-132l0 0 -31 -52c-11,-17 -41,-56 -64,-56 -107,3 -111,92 -139,172 -20,56 -82,32 -121,33 -34,1 -179,-8 -211,-14 -31,-6 -31,-99 -28,-121 8,-53 -39,-128 -28,-171 19,-70 -80,-21 -114,-63 -28,-35 -123,24 -142,-33 -14,-42 -51,-40 -92,-41l-144 -26 0 0c-55,13 -47,22 -85,42 -28,15 -122,109 -153,136 -36,31 -63,35 -108,38 -24,1 -124,10 -145,21 -1,-1 -1,-3 -1,-5 -32,-101 46,-157 -52,-187 -55,-17 -117,32 -160,63 -37,27 -107,30 -129,-10 -12,-22 -21,-150 -21,-180 0,-69 -27,-129 -87,-166 -53,-32 -145,131 -169,170 -39,60 -66,51 -118,69 -66,23 -71,23 -102,92 -9,20 -25,42 -37,60 -54,85 11,162 -122,206 -66,22 -61,-6 -134,43 -48,33 -7,144 5,189 15,54 -14,65 -60,92 -46,27 -81,64 -129,83 -80,31 -43,106 -42,173 1,51 37,37 -16,85 -52,47 60,58 -64,134 -51,32 -61,23 -62,83 -1,65 25,72 -32,109 -43,29 -53,54 -47,105 6,45 -4,50 -5,80 -2,70 -18,84 25,145 25,36 58,65 89,96 8,8 14,16 23,22 36,25 46,56 67,77 31,30 30,46 48,69 26,32 28,41 36,80 10,51 0,80 -38,114 -24,21 -56,31 -84,46 -27,15 -53,14 -76,30 -34,24 -30,45 -46,66 -42,53 -98,-2 -127,28 -18,18 10,89 21,105 14,21 35,36 53,55l0 0c23,-2 51,40 60,61 44,105 52,96 114,177 38,50 38,144 61,208 39,111 64,106 149,32 16,-14 61,-9 72,9 39,-16 129,-44 155,-78 7,-9 21,-19 31,-14 31,16 98,-34 170,-12 22,7 67,8 87,34 38,47 34,38 80,75 27,21 35,51 80,72 29,14 80,42 95,71 12,23 54,28 79,53 25,26 21,17 43,50 19,28 52,24 83,48 79,61 8,71 49,147 14,26 40,66 64,82 64,32 49,25 92,70 10,10 0,10 26,29 48,34 -20,118 82,118 160,0 39,25 24,116 -3,18 14,47 24,61 31,41 -11,70 35,114 47,44 10,99 69,167l4 4c20,38 20,51 35,82 10,23 52,82 59,101 20,53 19,37 -30,69 -11,7 -52,7 -84,23 -60,30 -51,16 -54,89 -2,33 4,55 -4,92 -3,14 16,58 34,59 34,1 51,24 115,15 28,-4 118,-9 133,-31 22,-30 3,-37 8,-69 3,-18 20,-207 51,-188 20,13 78,22 102,25 66,9 49,14 52,89 0,9 -85,39 -48,73 65,59 -12,164 60,209 18,11 114,9 132,-2 48,-28 114,-64 150,-108 10,-12 46,-43 61,-40 7,1 53,15 56,18l0 0z"/>
  <path class="fil1 str0" d="M7645 24233c33,70 52,96 135,89 37,-3 71,-68 100,-94 31,-28 44,1 101,-80 13,-19 21,-22 37,-48 22,-37 73,-64 115,-64 41,0 36,11 38,51 2,34 -2,94 -24,121 -5,6 -5,13 -7,16l-5 48 0 0c4,-1 11,-1 20,2 34,10 20,51 118,39 26,-3 46,11 68,-32 17,-33 -3,-29 15,-73 26,-62 4,-35 38,-68l0 0c-17,-17 -61,-64 -70,-83 -34,-80 -71,-75 -19,-172 23,-43 -39,-54 -69,-62 -41,-12 -145,90 -214,47 -24,-15 -44,11 -57,30 -58,86 -248,20 -322,-10l0 0c-3,13 -47,78 -55,100 -24,62 -65,44 -67,69 -4,56 67,79 98,115 19,23 17,20 24,58l0 0zm-3008 1970c6,6 -7,46 -7,64 1,67 -76,43 -81,169 -1,17 4,27 4,46 -2,54 -15,99 18,140 37,46 -14,93 56,185 33,43 31,84 33,135 4,126 5,109 50,225 12,30 4,60 8,90 1,11 2,25 2,37 -19,72 -13,90 -19,156 -3,34 12,73 26,104 29,63 10,95 39,147 19,34 66,58 103,59 38,2 35,6 75,-7 30,-10 61,-7 91,-33l0 0c7,-22 27,-95 52,-108 44,-23 129,-53 162,-85 22,-21 71,-72 104,-57 41,18 83,47 123,69 18,10 90,35 113,44 30,11 47,21 81,31 113,34 167,1 272,14 21,3 73,-6 100,-6 47,17 122,59 165,11 7,-8 13,-17 22,-22l0 0c-14,-36 -27,-49 -6,-79 16,-23 -4,-43 13,-81 26,-60 24,-62 23,-124 0,-70 37,24 103,29 48,4 44,-20 49,-69 8,-87 -32,-64 41,-149 21,-25 29,-47 54,-73 27,-28 30,-70 46,-106 3,-6 4,-6 4,-12 -16,-56 -7,-64 -14,-114 -4,-26 -3,-108 7,-133 34,-92 79,-65 98,-210 9,-67 -17,-66 22,-134 16,-29 49,-110 19,-139 -53,-50 -58,-27 -32,-105 8,-25 13,-43 20,-69 8,-84 27,-52 40,-108 9,-38 8,-50 10,-87 2,-46 80,14 160,-75 22,-24 37,-37 57,-63 21,-28 87,-56 121,-60 30,-4 135,-23 139,-60 3,-29 -31,-95 48,-84 79,11 70,2 145,-11 67,-12 141,26 176,-67 8,-22 18,-86 26,-114 45,-147 105,-120 188,-218l3 -4c43,-48 121,-96 152,-153 34,-61 -28,-62 51,-100 50,-24 38,-57 58,-57 28,0 110,-39 113,-71 4,-34 -20,-55 15,-80 18,-13 62,29 98,-8 20,-20 24,-24 47,-42 49,-39 -15,-77 -45,-95 -43,-25 -1,-43 -90,-69 -36,-10 -106,-36 -75,-84 18,-28 6,-59 24,-63l0 0c-16,0 -114,31 -128,38 -48,22 -92,53 -140,78 -72,38 -140,84 -220,104 -68,17 -84,23 -156,27 -83,4 -90,-41 -147,-40 -46,1 -81,-11 -128,-7 -34,4 -42,-29 -40,-56 6,-81 -10,-77 46,-152l0 0c-16,-12 -31,-48 -38,-67 -12,-35 40,-109 -33,-139 -76,-31 -93,-35 -83,-121 9,-77 -77,54 -136,23 -72,-37 -67,58 -70,102 -7,88 -127,68 -85,162 14,31 31,115 10,146 -52,81 114,137 87,216 -34,97 -92,-49 -103,-80 -17,-50 -56,-17 -87,-50 -30,-31 -82,-46 -124,-41 -52,6 -58,-7 -89,36 -27,38 -61,138 -117,137 -41,-1 -41,48 -28,75 14,29 6,39 37,60 -10,18 -26,53 -36,66 -28,37 -24,65 28,70 116,12 -23,133 -104,122 -52,-7 -95,-79 -92,56 2,64 -16,47 -38,91 -34,69 73,84 116,88 36,3 130,-13 103,40 -44,89 -177,-6 -230,-14 -60,-9 -33,-2 -82,-32 -50,-31 -51,-60 -116,-69 -77,-10 -40,-77 -89,-94 -80,-27 -103,-57 -119,-142 -5,-17 -16,-31 -20,-50 -6,-36 -48,-56 -81,-61 -60,-9 -120,-6 -179,-30 -39,-16 -47,-31 -88,-49l0 0 -63 21c-13,0 -47,0 -59,2 -74,8 -131,-24 -218,0 -25,7 -86,10 -100,20 -78,56 -30,113 -78,164 -22,23 -24,27 -42,52 -29,39 -34,52 -55,93 -18,35 0,77 -34,112 -45,47 -69,50 -121,82 -16,15 -42,31 -61,48 -29,25 -63,42 -87,63 -27,23 64,53 79,57 57,13 114,40 165,69 35,19 56,15 83,24 30,10 105,31 125,54 38,45 39,84 57,132 9,25 5,100 -4,124 -33,87 38,91 37,123 -1,28 8,51 15,78 13,52 6,46 6,91 0,30 -78,65 -101,90 -45,49 -78,45 -139,21l-110 -30 0 0z"/>
  <path class="fil1 str0" d="M8395 24142c4,-4 10,-9 16,-16 7,-7 11,-12 20,-16 55,-23 65,-43 113,-64 21,-9 112,-29 132,-22 22,8 31,-17 69,-7 34,9 85,-5 91,-44 7,-45 26,-47 21,-90 -6,-49 34,-34 61,-45 31,-12 29,-5 63,-28 50,-34 96,-39 123,-102 18,-41 35,-112 17,-155 -9,-22 9,-102 8,-139 -1,-37 35,-47 52,-99 16,-51 52,-33 87,-54 29,-17 21,-14 52,-24 36,-1 96,9 102,-34 1,-6 -4,-56 -4,-72 0,-24 -7,-53 -10,-79 -6,-51 -6,-74 -7,-124 -2,-49 -18,-94 -50,-131 -34,-39 -56,-91 -47,-144 5,-31 -4,-38 12,-82 19,-51 1,-30 -19,-69 -10,-20 15,-61 -19,-54 -14,3 -22,-15 -31,-28 -13,-20 -10,-27 -44,-25 -18,1 -41,25 -53,-11 -16,-50 36,-49 36,-119l0 -10c-2,-53 0,-55 -15,-100 -14,-43 -2,-29 -36,-58 -29,-25 -37,-78 -33,-113 7,-57 -1,-64 -2,-113 -1,-38 49,-123 62,-163 16,-48 64,-101 24,-139 -19,-18 -26,-24 -52,-30 -10,-2 -56,-27 -60,-34 -16,-26 -10,-33 -11,-57 13,-52 15,-18 65,-34 73,-24 31,-24 46,-95 9,-43 -2,-62 -1,-108 1,-77 -49,-26 -110,-26 -16,0 -107,-7 -118,-18 -27,-26 -10,-71 -30,-101 -18,-28 -2,-38 -8,-69 -7,-32 6,-28 -16,-75 -14,-30 -6,-120 -62,-104 -9,3 -25,12 -42,17 -26,7 -56,26 -76,32 -59,6 -32,13 -74,0 -15,-5 -23,-4 -25,-4l0 0 -92 36c-38,8 -73,35 -109,29 -47,-7 -13,-64 -73,-113 -134,-112 -124,116 -209,62 -37,-23 -74,-53 -83,-98 -9,-46 -39,-55 -68,-20 -24,29 -46,45 -68,69 -75,83 75,115 32,161 -63,66 -142,-32 -165,63 -10,42 -17,81 -54,110 -28,22 8,95 16,116 2,35 67,109 58,148 -13,57 -93,34 -128,39 -55,7 -96,11 -136,-35 -35,-40 -77,-6 -112,20 -58,42 -81,30 -141,37 -54,6 -93,37 -93,93 0,91 -45,62 -32,127 10,50 48,109 100,122 48,12 52,40 85,62 23,15 -23,34 -32,37 -44,12 -122,50 -165,70 -49,23 -13,-95 -64,-92 -46,3 -39,-14 -70,-22 -46,-13 -79,-14 -128,-12l-3 3c-46,47 -70,69 -111,122 -37,49 -86,27 -127,-4 -49,-37 -55,-30 -108,-48 -69,-23 -101,-13 -169,-53 -102,-58 -116,-49 -230,-49l0 0c-12,17 -81,124 -68,145 33,53 82,33 122,129 30,71 105,107 140,174 29,56 66,61 125,69 173,23 95,59 96,110 0,12 -2,31 5,41 5,57 2,74 45,105 43,30 -40,48 19,116 7,8 75,20 49,87 -7,19 -65,52 -85,49 -48,-7 -67,-12 -80,43 -9,40 47,57 8,123 -15,25 -36,95 -20,120 77,70 51,21 111,59 26,16 -23,107 57,71 33,-15 146,-38 130,31 -5,23 -7,73 9,94 8,11 33,22 54,49 21,27 24,34 41,63 31,52 85,-29 163,109 20,35 73,35 102,64 62,62 69,-40 114,-31 75,16 116,-59 191,-26 14,6 14,38 67,63 68,33 58,82 78,145 1,4 5,8 7,13l35 35 0 0c74,31 264,96 322,10 13,-20 33,-45 57,-30 69,43 173,-58 214,-47 31,9 93,19 69,62 -52,97 -15,92 19,172 8,20 53,66 70,83l0 0zm-750 92c33,70 52,96 135,89 37,-3 71,-68 100,-94 31,-28 44,1 101,-80 13,-19 21,-22 37,-48 22,-37 73,-64 115,-64 41,0 36,11 38,51 2,34 -2,94 -24,121 -5,6 -5,13 -7,16l-5 48 0 0c-16,0 -114,31 -128,38 -48,22 -92,53 -140,78 -72,38 -140,84 -220,104 -68,17 -84,23 -156,27 -83,4 -90,-41 -147,-40 -46,1 -81,-11 -128,-7 -34,4 -42,-29 -40,-56 6,-81 -10,-77 46,-152l0 0c88,-7 81,-13 144,-57 28,-20 78,-38 99,-2 13,23 40,13 74,38 35,26 86,-14 105,-12l0 0z"/>
  <path class="fil1 str0" d="M13810 8174c0,23 4,44 3,65 -2,31 -63,7 -30,84 19,44 30,33 26,92 -1,23 -15,115 -1,128 30,28 52,28 80,53 60,51 104,89 150,153 41,57 80,13 122,-9 68,-36 53,34 166,-77 48,-48 195,-123 160,19 -13,51 -27,107 -36,158 -9,53 38,117 77,148 3,3 3,3 7,5 43,38 68,72 100,119 43,63 63,64 120,106 85,61 265,-9 314,98 18,39 15,100 64,132 17,11 80,51 91,63 20,22 64,94 85,127l0 0c41,-38 41,-5 73,-27 80,-52 -29,-101 125,-140 7,-11 11,-17 20,-26 87,-82 126,42 182,-46 19,-30 79,-40 112,-37 62,5 89,-33 126,-34 89,-2 137,-11 161,-108 10,-43 21,-57 38,-93 23,-50 31,-47 56,-83 15,-22 27,-127 23,-156 -7,-44 -133,-42 -156,-78 -25,-39 -19,-18 -49,-42 -19,-15 -46,-22 -50,-33 -12,-43 71,-82 94,-95l0 0 1 -45c3,-31 15,-61 20,-95 10,-72 57,-93 123,-104 50,-8 128,-85 141,-132 8,-29 39,-51 67,-47 52,7 99,-25 141,-19 41,6 93,6 128,-19 50,-36 98,-29 143,-85 39,-49 150,11 103,-221 -10,-37 21,-127 60,-142 47,-18 69,-62 106,-61 114,2 49,-51 104,-114 27,-30 28,-50 47,-78 16,-24 23,-48 35,-69 26,-47 -19,-126 66,-113 52,8 94,-7 135,-40 1,-9 5,-20 12,-36 18,-37 15,-88 8,-123 -13,-64 37,-27 45,-83 11,-75 -33,-60 -34,-92 -1,-28 -6,-31 -8,-51 -8,-74 -127,-16 -155,-47 -54,-59 -150,36 -185,42 -54,10 -32,-63 -35,-76 -15,-71 -76,54 -109,39 -31,-14 4,-30 -56,-19 -24,4 -60,-19 -71,-40 -19,-36 -56,-31 -71,-53 -37,-54 2,-62 -69,-77 -30,-6 -37,65 -38,86 -3,38 -12,54 -12,93 0,30 -35,42 -58,42 -8,0 -15,-1 -22,-2 0,-3 -16,-17 -16,-26 3,-41 -27,-64 -18,-100 6,-26 8,-65 -18,-81 -42,-25 1,-91 -22,-128 -48,-81 8,-137 1,-157 -3,-8 -68,-39 -70,-41 -8,-11 -10,-11 -22,-17 -35,-19 -85,-46 -125,-46 -88,0 -66,-72 -118,-108 -29,-20 -22,-69 -28,-90 -4,-15 -3,-25 2,-33l0 0c-17,-12 -45,-34 -61,-47 -62,-51 -81,5 -119,-13 -62,-30 -79,19 -124,48 -32,21 -76,121 -116,48 -51,-93 -46,-81 -139,-128 -34,-17 -69,-48 -94,-77 -18,-22 -47,-31 -60,-43 -33,-30 -54,-34 -89,-52 -23,-13 -70,-20 -89,-34 -57,-40 -41,10 -76,41 -30,26 -27,24 -73,11l-3 -1c-40,-12 -62,-16 -100,-3 -87,29 -102,139 -158,61 -23,-32 -55,-42 -94,-34 -53,10 -43,13 -97,9 -52,-4 -95,26 -114,76 -45,116 -68,54 -123,73 -66,22 -37,38 -125,34l0 0c-3,67 11,90 15,147 2,30 -10,67 -45,68 -21,1 -55,31 -63,50 -8,18 -15,15 -21,48 -13,73 -50,84 -58,109 -13,40 30,37 58,63 20,19 49,28 74,54 30,31 56,61 34,108 -13,27 -72,53 -95,133 -4,15 -13,34 -18,50 -5,67 -5,154 56,198 43,32 69,69 94,116 34,65 94,68 119,139 12,36 108,110 140,136 77,62 89,59 108,163 4,23 8,48 8,72 -7,29 -17,57 -18,86 -4,87 -53,50 -65,115 -5,28 63,116 88,124 24,8 19,5 43,16 19,9 53,47 54,73 2,30 1,83 -7,111 -5,17 22,140 -55,40 -33,-43 -44,-61 -103,-64 -39,-2 -130,-73 -162,-100 -16,-13 -86,-40 -107,-40 -115,0 -168,110 -275,94 -46,-7 -30,2 -76,-20 -38,-18 -138,23 -172,47 -12,8 -46,23 -62,32 -5,3 -11,6 -16,9l0 0z"/>
  <path class="fil1 str0" d="M13810 8174c0,23 4,44 3,65 -2,31 -63,7 -30,84 19,44 30,33 26,92 -1,23 -15,115 -1,128 30,28 52,28 80,53 60,51 104,89 150,153 41,57 80,13 122,-9 68,-36 53,34 166,-77 48,-48 195,-123 160,19 -13,51 -27,107 -36,158 -9,53 38,117 77,148 3,3 3,3 7,5 43,38 68,72 100,119 43,63 63,64 120,106 85,61 265,-9 314,98 18,39 15,100 64,132 17,11 80,51 91,63 20,22 64,94 85,127l0 0c-12,11 -28,29 -48,55 -24,31 -51,46 -72,75 -28,40 -69,56 -115,38 -38,-15 -35,-7 -76,4 -25,7 -26,11 -57,14 -43,4 -49,15 -82,28 -50,19 -66,29 -113,54 -52,29 -103,36 -120,108 -27,111 -4,110 -86,213 -33,41 -66,86 -99,126 -38,91 2,83 64,124 24,16 58,54 22,80 -22,16 -125,45 -155,46 -29,1 -94,11 -78,54 12,35 99,58 48,130 -34,49 -31,92 3,139 55,75 -18,139 96,149 29,3 100,19 107,53 3,14 0,33 -2,48 -34,48 -26,42 -66,71 -28,20 5,55 11,90 9,51 31,88 -18,124 -64,47 -122,-26 -142,51 -8,31 24,109 -34,111 -35,1 -116,-73 -171,-3 -12,15 -47,98 -48,114 -4,71 65,64 14,180 -12,27 -20,45 -31,73 -21,30 -44,67 -82,42 -19,-12 -79,49 -73,82 3,13 4,22 4,32 17,10 34,19 49,30 24,16 32,17 57,37 20,16 70,53 103,57 -3,94 -20,32 -53,67 -16,18 -34,99 -68,34 -16,-30 -4,-45 -33,-91 -46,-73 -27,-80 -88,-13 -45,50 -122,42 -178,146 -28,51 -35,69 -15,123 24,66 -29,112 -48,174 -3,9 -5,17 -8,26 0,0 -62,97 -63,103 -10,43 34,44 25,127 -4,34 9,70 37,90 33,22 61,-14 67,85 2,35 41,70 60,108 32,64 43,80 43,158 0,38 -7,63 -46,81 -60,27 -128,-51 -178,-72 -44,-18 -44,-36 -106,-44 -53,-7 -105,-45 -151,0l0 0c-19,-7 -34,-29 -53,-34 -40,-12 -78,-12 -111,-21 -52,-14 -124,14 -145,2 -52,-31 -31,-41 -106,-15 -47,25 -71,81 -92,82 -58,3 -17,-67 -50,-104 -38,-42 -17,-66 -53,-87 -63,-38 -88,-43 -160,-56 -81,-14 -63,-72 -82,-116 -18,-39 -12,-70 -58,-76 -38,-5 -39,-18 -52,-20 -23,-4 -76,72 -126,86 -26,7 -88,-53 -97,-71 -14,-26 -58,-56 -86,-61 -34,-6 -49,-17 -51,-55 -2,-57 -5,-113 -13,-171l0 0c32,-30 53,-87 77,-116 32,-40 37,-69 60,-108 20,-33 24,-51 35,-87 9,-30 0,-106 6,-138 8,-39 -23,-97 -59,-112 -26,-11 -33,-102 -35,-123l0 0 60 -12c60,-28 117,-27 181,-59 100,-50 101,15 158,41 60,27 41,40 119,59 22,0 48,-1 69,0 50,2 154,-4 202,-18 55,-16 98,18 153,31 42,9 77,11 120,20 26,5 133,48 154,61 31,20 170,69 169,0 -2,-85 -78,-70 -123,-89 -57,-24 -64,-66 -61,-123 -4,-13 -32,-47 -42,-61 -65,-88 -18,-102 -123,-164 -44,-26 -52,-95 -35,-140 25,-63 -80,-26 -99,-56 -31,-48 63,-59 70,-87 9,-38 14,-52 32,-86 25,-48 4,-80 -44,-99 -50,-20 -59,-76 -117,-66 -54,9 -103,31 -154,-3 -37,-25 -53,-49 -72,-89l-1 -3c-34,-55 -30,-49 -82,-79 -51,-29 -150,-7 -207,4 -112,22 -80,-119 -27,-156 27,-19 23,-49 -3,-69 -76,-57 9,-116 8,-150 -2,-57 -59,-82 -103,-100 -67,-27 -62,-80 -132,-94 -58,-12 -50,-12 -109,-40l0 0c3,-11 5,-19 7,-31 8,-34 32,-67 66,-75 57,-14 63,-72 109,-66 43,5 46,-32 90,-37 28,-3 58,19 87,4 70,-37 61,-145 64,-210 0,-12 -5,-76 -7,-86 -9,-49 -16,-58 22,-86 25,-18 14,-12 32,-32 18,-21 7,-64 9,-78 10,-55 68,-76 66,-119 -1,-22 8,-48 12,-69 3,-17 22,-52 34,-63 62,-57 29,-113 53,-177 13,-33 15,-58 24,-88 8,-24 -22,-49 -39,-55 -62,-19 -42,-51 -35,-112l0 -4c-4,-41 -14,-44 -16,-97 -1,-32 36,-100 59,-118 43,-32 28,-116 6,-156 -53,-97 -70,-124 -45,-238 13,-56 -39,-115 18,-142 90,-43 64,-76 44,-160l0 0c9,-66 8,-40 26,-85 12,-30 -38,-121 37,-138 60,-14 76,-63 99,-112 22,-46 42,-97 100,-92 80,7 98,-45 178,18 27,22 150,16 195,25 49,10 63,10 109,35 70,39 42,109 159,81 40,-10 131,-14 156,26 25,42 -19,129 -35,168 -21,54 -6,103 14,154 7,18 26,23 38,34l45 13 0 0z"/>
  <path class="fil1 str0" d="M11100 2964l59 76c39,19 45,19 82,21 58,4 48,35 103,42 57,8 74,31 73,86 -1,20 26,34 26,92 0,53 -3,84 62,82 44,-1 108,17 124,64 14,42 14,49 24,92 11,50 52,35 68,-13 16,-47 72,-92 122,-70 63,27 93,-25 127,-11 32,13 -23,51 -29,61 -30,50 20,41 40,58 27,3 70,5 98,10 21,4 50,3 73,12 15,6 72,-1 87,-18 42,-47 25,-24 53,-82 10,-22 61,-70 58,-20 -1,11 15,61 38,56 16,-3 136,-20 126,14 -10,34 -19,55 13,76 27,19 69,75 85,105 15,26 71,56 97,76 50,38 169,25 224,6 34,-12 128,-45 120,22 -8,66 -24,124 4,187 10,23 -3,137 0,179 1,14 2,29 2,44 -8,32 -35,149 -8,175 30,28 30,12 65,-12 13,-9 86,-45 99,-40 45,18 177,4 144,68 -18,36 -28,64 -55,94 -53,59 -23,106 41,83 19,-7 81,-14 100,-1 7,5 119,23 95,60 -10,14 -122,17 -114,62 2,10 15,24 21,51 18,90 64,19 136,35 66,14 -10,82 35,149 54,81 8,127 -86,63 -39,-26 -77,-45 -79,25 23,59 18,37 63,53 46,17 57,87 -38,85 -46,-1 -21,-36 -72,-19 -79,25 -183,-177 -322,11 -51,69 -50,109 -28,188 22,80 21,58 4,136 -9,42 8,57 -9,113 -15,48 -2,106 36,139 20,17 100,4 113,50l0 0c22,2 96,0 116,16 52,39 -4,81 91,95 59,9 128,56 183,83 70,35 24,-74 42,-109 28,-56 -2,-44 63,-88 19,-13 -9,-39 -11,-59 -2,-23 -25,-92 28,-75 13,4 85,9 103,10 55,12 58,10 107,13 71,5 102,6 172,22 48,11 52,3 99,31 15,9 106,99 114,112 22,37 25,71 30,113 1,9 3,48 3,57l0 0c88,3 59,-12 125,-34 55,-19 77,44 123,-73 19,-50 62,-79 114,-76 55,4 45,1 97,-9 39,-7 71,2 94,34 56,78 71,-32 158,-61 39,-13 61,-10 100,3l3 1c46,13 43,15 73,-11 36,-31 19,-81 76,-41 19,13 66,21 89,34 35,19 55,23 89,52 13,11 41,20 60,43 24,29 59,60 94,77 93,47 88,35 139,128 40,72 83,-27 116,-48 45,-29 62,-78 124,-48 38,18 57,-38 119,13 16,13 44,35 61,47l0 0c8,-15 26,-22 36,-37 41,-64 25,-84 56,-142 16,-30 -2,-135 -12,-167 -10,-31 17,-114 25,-142 0,-7 0,-16 -1,-23 -4,-39 -1,-78 14,-114 32,-77 37,-29 -5,-93 -30,-46 -37,-61 -48,-114 -4,-21 -66,-47 -68,-46 -49,7 -81,41 -105,81 -19,31 -69,37 -90,5 -21,-31 -60,-51 -70,-72 -7,-16 25,-73 34,-91 19,-39 18,-57 26,-94 13,-61 -15,-110 -41,-165 15,-38 19,-51 58,-73 69,-39 132,-108 140,-189 7,-62 40,-129 40,-195 0,-151 -57,-112 -77,-239 -31,9 -73,-7 -102,-5 -20,1 -79,33 -101,44 -42,20 -59,-3 -71,12 -49,62 15,113 7,158 -5,26 -8,41 -31,42 0,0 -91,-21 -99,-23 -45,-12 -87,-6 -134,-29 -59,-29 -68,-10 -117,-18 -25,-4 -75,2 -90,-15 -50,-59 -98,-9 -130,-31 -27,-18 7,-10 -60,-40 25,-47 -10,-94 -43,-126 -61,-61 12,-93 -30,-117 -13,-8 -41,-48 -55,-60 -23,-19 -14,-68 -2,-82 27,-31 22,-57 30,-88 18,-68 -37,-146 -64,-203 -2,-4 -2,-15 -3,-22 -7,-79 -58,-44 -38,-106 17,-53 -46,-68 -85,-63 -104,13 0,-86 -140,-107 -35,-5 -128,0 -149,-22 -29,-31 -56,-30 -95,-34 -52,-5 -41,-73 -27,-105 17,-41 -48,-60 -75,-61 -29,-1 -50,-26 -49,-54 1,-33 -21,-143 -44,-164 -61,-56 -81,-86 -70,-173 3,-22 5,-30 9,-50 8,-39 9,-34 -10,-64 -14,-21 -98,-47 -125,-55 -60,-18 -53,-50 -91,-60 -148,-36 -73,-104 -140,-145 -77,-48 -200,-35 -243,-69 -20,-16 -49,-17 -78,-20l0 0 -114 56c-30,36 -36,46 -58,86 -36,64 -26,47 -42,114 -7,27 0,50 -4,62 -17,55 -60,79 -115,78 -92,-1 -28,72 -82,116 -16,13 -38,55 -38,78 1,55 -37,88 -57,139 -4,10 -13,46 -13,46 -40,50 -99,-1 -145,42 -39,37 -82,66 -127,95 -56,36 -165,60 -233,60 -47,0 -93,-23 -134,-28 -68,-9 -64,-22 -132,15 -30,8 -97,12 -130,13 -113,4 -99,-78 -157,-108 -52,-28 -83,-25 -140,-65 0,0 -87,-93 -94,-102 -29,-35 -86,-51 -122,-77 -25,-18 -33,-19 -53,-31 -5,-3 -11,-2 -17,2l0 0c-12,7 -24,22 -29,30 -58,97 -93,39 -163,105 -87,83 -169,10 -212,41 -28,20 -35,27 -50,35l0 0z"/>
  
  
  
  
  
  
  
  
  
  
  
  
  
  
  
  
  
  
  
  
  
  
  
  
 </g>
</svg>