<svg xmlns="http://www.w3.org/2000/svg" xmlns:xlink="http://www.w3.org/1999/xlink" xml:space="preserve" width="210mm" height="297mm" version="1.1" style="shape-rendering:geometricPrecision; text-rendering:geometricPrecision; image-rendering:optimizeQuality; fill-rule:evenodd; clip-rule:evenodd" viewBox="0 0 21000 29700">
 <defs>
  <style type="text/css">
   <![CDATA[
    .str1 {stroke:black;stroke-width:10;stroke-opacity:0.501961}
    .str3 {stroke:black;stroke-width:50}
    .str5 {stroke:#434242;stroke-width:10}
    .str2 {stroke:#3F3E3F;stroke-width:10}
    .str0 {stroke:black;stroke-width:10}
    .str6 {stroke:#2B2A29;stroke-width:7.62}
    .str4 {stroke:black;stroke-width:7.62}
    .fil6 {fill:none}
    .fil0 {fill:#FEFEFE}
    .fil8 {fill:#D9DADA}
    .fil4 {fill:#FEFEFE;fill-rule:nonzero}
    .fil3 {fill:#D9DADA;fill-rule:nonzero}
    .fil7 {fill:#434242;fill-rule:nonzero}
    .fil5 {fill:#2B2A29;fill-rule:nonzero}
    .fil2 {fill:black;fill-rule:nonzero}
    .fil1 {fill:#FEFEFE;fill-rule:nonzero;fill-opacity:0.501961}
   ]]>
  </style>
 </defs>
 <g id="Plan_x0020_1">
  <metadata id="CorelCorpID_0Corel-Layer"/>
  <rect class="fil0" x="1000" y="1000" width="19000" height="24370"/>
  
  
  <path class="fil0 str0" d="M8981 9256c67,-12 74,-80 125,-100 33,-13 69,-16 100,-36 43,-27 12,-48 7,-80 -85,-21 -115,-127 -168,-172l-169 -144c-6,-24 -226,127 -259,158 -86,80 -193,135 -276,218 -65,82 -90,149 -66,248 0,86 -103,55 -130,94 -18,27 -99,91 -99,116 64,0 136,2 201,-10 59,-10 114,-45 173,-56 97,-18 189,1 285,-12 64,-9 153,-19 153,-100 -12,-71 60,-113 123,-124zm-480 -366c-13,-56 -20,-111 17,-162 13,-18 54,-14 75,-14 19,0 71,-10 83,-24 13,-1 29,-16 38,-25 54,-42 73,9 120,20 1,4 5,4 5,11 -4,1 -24,19 -30,23 -98,58 -191,126 -290,183l-19 -11zm-785 3158c3,-17 0,-40 0,-58 0,-6 -3,-8 -6,-12 -11,-2 -22,-6 -33,-10 -16,-6 -22,-3 -34,7 -3,26 -26,54 -25,79 1,16 22,32 36,38 8,3 16,3 24,3 13,-1 24,-20 35,-28l3 -19zm3725 2453c31,-23 73,-65 69,-81 -221,0 -332,-139 -435,-306 -29,-47 -37,-129 -63,-167 4,-48 2,-61 -15,-105 -12,-29 1,-45 26,-57 54,-27 109,-63 92,-130 -15,-59 -12,-14 -57,-14 -26,0 -41,-9 -60,-25 -79,-68 66,-63 29,-123 -16,-26 -29,-71 -50,-91 -33,-30 -81,-36 -110,-73 -24,-31 -56,-79 -75,-113 -24,-43 -21,-95 -32,-141 -62,0 -85,163 -154,45 -35,-46 -231,-336 -273,-326 -50,12 -92,59 -157,70 -72,13 -159,3 -224,-27 -79,-37 -93,-109 -123,-178 -56,-127 96,-196 76,-298 -9,-48 -102,-60 -136,-105 -17,-22 -70,-161 -50,-184 17,-19 54,-33 69,-54 39,-53 155,22 173,-18 7,-16 -65,-50 -76,-63 -23,-29 76,-149 15,-136 -95,20 -85,125 -139,190 -116,139 -165,1 -299,1 -94,0 -116,-11 -193,-49 -66,-32 -144,36 -189,-51 -51,-99 -22,-109 30,-185 51,-74 27,-151 11,-234 -12,48 -32,86 -42,137 0,85 -121,139 -166,201 -43,59 -173,37 -242,37 -47,0 -84,-41 -139,-41 -175,0 -65,-29 -162,-99l-169 -253c-56,-83 -218,1 -311,-18 -92,-19 -157,55 -234,44 -1,-2 0,0 -1,-2l-4 -1c-1,-2 0,-2 -2,-2l-29 -155 -32 -162c-12,-25 -109,-29 -133,-88 -26,-63 -77,-114 -143,-131 -61,0 -114,38 -141,91 -55,14 -117,-65 -174,-91 -104,-48 -238,-68 -352,-47 -97,19 -84,-14 -163,-24 -61,-8 -196,-3 -216,76 -24,6 -230,-173 -243,-184 -48,-43 -146,-31 -74,-104 25,-25 71,16 94,19 126,176 279,18 284,-141 45,-76 46,-288 46,-382 66,-66 254,-256 254,-350 25,-13 52,11 80,5 30,-7 58,-32 86,-45 62,-31 147,15 216,24 175,23 344,-38 509,-58 72,-6 155,-85 211,-53 77,45 174,78 260,101 183,50 423,26 593,-53l319 -147c98,-45 204,-264 276,-372 20,-30 52,-40 77,-64 59,-55 -3,-117 -51,-152 -29,-21 -34,-62 -58,-86 -45,-45 -89,-70 -143,-104 -29,-18 -41,-54 -63,-67 0,-40 -77,-60 -104,-78 -49,-32 -76,-56 -128,-8 -35,32 -56,36 -105,38 -46,2 -116,31 -137,76 -32,69 0,136 -75,175 -154,103 -183,288 -336,388 -159,104 -251,213 -459,223l-349 18c-21,21 -5,82 -39,91 -6,24 -187,13 -213,13 -59,0 -262,15 -282,-51 -20,-64 -77,-73 -137,-57 -38,10 -57,59 -85,79 -34,79 50,226 -86,273 -108,38 -236,-60 -334,-87 -36,-10 -195,-3 -209,39 2,0 2,1 4,1 4,16 59,55 76,60 0,30 -55,41 -79,51 -66,28 -76,-5 -120,4 -24,5 -54,30 -74,45 -30,22 -78,13 -113,8 -72,-9 -59,-28 -86,-80 -10,-19 -36,-15 -49,-33 -68,-103 59,-63 39,-146 -9,-39 -25,-78 -36,-117 -96,-349 -200,-696 -303,-1043 -15,-52 -106,-349 -145,-290 -61,0 -35,16 -80,-42 -36,-46 -29,-20 -29,-81 -33,-6 -9,-79 -18,-109 -14,-45 -39,-95 -49,-142 -13,-62 -38,-225 -93,-258 -30,-18 -114,-58 -114,-104 21,-15 98,-12 89,-53 -6,-31 -15,-55 -15,-90 7,-37 12,-90 2,-127 -7,-26 -51,-87 -45,-109 93,-46 192,-38 243,54 34,61 210,-110 234,-140 17,-22 95,-129 72,-144 -54,-36 -156,-74 -147,-141 68,-39 117,-161 178,-193 59,-32 164,36 244,-17 96,-48 152,-143 197,-235 28,-58 23,-157 76,-184 188,-94 347,66 515,48 124,-13 185,-89 286,-128 175,-68 154,135 285,121l245 -27c0,-4 1,-9 -4,-11 -16,-130 -648,-160 -726,-119 -82,43 -116,106 -218,106 -84,0 -167,-87 -265,-101 -223,-32 -158,248 -304,265 -42,42 -62,63 -119,76 -39,9 -68,24 -77,69 -22,112 -116,15 -180,91 -40,48 -79,104 -130,141 -60,43 -134,59 -191,111 -59,54 -62,159 -80,229 -15,4 -15,-2 -26,-4 -10,-40 -53,-80 -75,-115 -70,-110 -101,-181 -211,-260 -26,-19 -36,-87 -56,-119 -66,-106 -90,-208 -118,-326 -20,-85 10,-96 -56,-162 -24,-24 -25,-74 -25,-107 -54,-199 -165,-545 -244,-723 -7,-16 -27,-42 -31,-57 -3,-1 -8,-4 -8,-6 -18,0 -45,13 -58,10 -12,-35 11,-77 -2,-111 -8,-56 -74,-86 -77,-127 -4,-47 -6,-87 -15,-132 -21,-103 -117,-195 -117,-304 39,-10 69,-2 111,6 49,10 101,-3 150,-12 36,-6 205,-73 205,-116l0 0c111,-59 227,26 335,12 130,-17 183,-34 275,-130 269,-278 600,-123 900,21 37,18 109,6 145,24 79,39 164,82 194,-31 15,-56 18,-102 67,-138 30,-23 76,-16 117,-2 85,29 109,-27 187,-50 66,-19 77,-77 118,-129 23,-29 127,44 168,56 183,56 192,-152 267,-251 104,-138 3,-227 33,-369 1,-3 256,-236 256,-236 22,-51 26,-132 100,-121 25,4 164,55 142,-21 -3,-10 -22,-30 -27,-39 -11,-19 -68,-54 -86,-69 -22,-19 29,-32 43,-43 39,-29 50,-75 60,-121 11,-54 11,-95 52,-125 33,-24 112,-27 146,-60 3,-3 3,-4 4,1 4,13 10,38 26,44 32,12 78,0 105,16 13,67 -16,147 -19,217 -6,145 106,84 117,129l2 1c0,24 6,46 6,69 49,49 119,72 167,123 98,105 -30,85 -55,129 -50,10 -24,73 -10,98 15,25 -45,105 -61,125 -7,73 16,102 24,166 71,61 78,69 185,69 165,0 243,81 385,131 144,51 164,-86 262,-67 82,16 107,68 212,68 106,0 323,-33 405,39 99,87 75,188 114,307 52,62 52,151 94,222 29,48 96,75 112,124 13,39 18,62 0,101 -31,67 -8,136 -80,180 -61,38 -81,77 -81,146 84,21 178,-56 265,-16 31,14 59,41 80,67 20,25 53,90 76,104 25,88 15,205 19,298 2,46 11,117 26,160 14,42 46,110 51,153 16,11 36,116 36,138 0,59 -33,87 -45,136 -41,26 -57,113 -91,147 -22,97 -43,104 13,205 23,42 75,90 91,135 40,117 18,125 153,160 82,22 212,90 243,177 35,16 92,99 120,130 50,55 100,88 179,92 179,-16 277,44 436,81 175,41 291,16 309,-181 81,-93 60,-150 219,-167 185,-20 323,-21 498,-99 92,-41 153,-18 245,-18 118,0 201,-83 303,-129 19,-25 73,-60 101,-72 40,-44 110,-69 168,-69 77,0 115,-23 185,-43 54,-48 125,-86 198,-86 91,0 148,-68 207,-128l0 0c33,-39 110,-15 148,1 113,48 170,86 281,11 70,-48 161,-27 240,-27 55,0 108,39 158,1 45,-34 36,-62 99,-62 78,0 104,8 138,-69 26,-60 11,-150 32,-217 0,-49 19,-176 69,-196 58,-22 71,-51 101,-105 30,-53 136,-104 193,-112 28,-4 81,-2 105,12 28,16 55,41 82,56 11,77 -28,75 -75,134 -65,81 -49,188 61,212 58,13 119,16 176,32 39,11 85,35 120,44 7,48 -24,85 -24,137 0,239 254,157 405,103 170,-62 -135,-145 -27,-238 42,-36 108,-161 185,-110 47,31 63,114 133,30 95,-114 124,-85 144,27 11,61 79,19 114,35 15,7 23,86 23,103 99,66 228,19 141,216 -31,70 -62,160 -75,235 -15,86 -76,186 -76,275 -36,193 187,51 247,60 33,67 114,136 158,201 35,51 63,84 30,150 -51,102 -63,200 -63,317 0,103 29,192 -89,252 -27,44 -77,73 -113,110 -71,71 -14,119 -54,203l-49 104c-12,26 -51,53 -57,79 15,12 95,5 125,19 41,20 144,128 182,90 48,-48 18,-87 101,-115 49,-16 82,187 91,222 22,84 161,216 241,242 75,72 88,299 125,401 26,73 10,101 -38,155 -37,42 -40,157 -69,178 -5,38 -95,99 -122,129 -63,72 -134,77 -215,113 -85,27 -201,51 -234,149 -45,36 -69,115 -69,171 3,5 3,10 7,14l0 0c-29,6 -58,49 -82,63 -30,18 -48,31 -76,49 -41,27 -70,68 -109,96 -38,28 -29,23 -83,52 -6,5 -12,8 -18,13 -44,32 -73,68 -112,102 -58,50 -152,62 -226,81 -115,29 -155,81 -248,134 -45,25 -60,45 -95,76 -43,37 -72,78 -110,119 -58,63 -45,110 -58,185 -8,47 27,123 -18,141 -48,20 -37,-6 -112,35 -15,9 -27,22 -47,32 -50,25 -92,74 -149,84 -109,20 -129,-41 -201,-74 -55,-25 -112,-43 -166,-5 -55,39 -143,57 -210,49 -27,-3 -137,16 -169,22 -73,14 -95,4 -176,34 -48,18 -128,98 -173,43 -57,-70 -14,-105 -82,-56 -27,20 -67,33 -85,53 -31,33 -49,53 -91,76 -61,34 -78,39 -146,7 -7,-6 -14,-10 -21,-16 -63,-45 -96,-79 -146,-137 -35,-41 -76,-133 -93,-185 -15,-47 -26,-67 -48,-109 -35,-67 -35,-80 -52,-152 -6,-23 -17,-145 -20,-149 -22,-31 -147,20 -212,9 -118,-21 -145,80 -247,92 -62,7 -68,-10 -114,-34 -29,-16 -50,-50 -74,-31 -81,64 11,207 -108,173 -48,-14 -131,-13 -182,-21 -64,-10 -50,4 -70,59 -29,81 -16,105 -5,185 4,34 26,75 3,100 -38,40 -65,33 -110,16 -13,-5 -121,-67 -126,-72 -33,-32 -58,-33 -85,-54 -44,-34 -118,-31 -97,37 29,93 137,42 192,102 20,22 40,44 61,66 13,25 14,55 12,82 -5,59 39,95 89,54 39,-31 65,-5 66,36 1,41 3,62 -24,94 -46,56 -25,27 -9,63 29,63 -9,83 -46,125 -17,19 14,64 28,78 48,48 7,62 22,96 10,23 37,23 64,42 54,38 23,54 37,93 28,82 28,-9 95,-19 58,-9 37,-41 74,-65 52,-33 105,12 133,-13 33,-31 75,-6 114,9 10,13 14,36 20,52 8,22 -3,96 -9,120 -10,39 -7,73 -7,111 0,14 41,62 53,73 48,43 56,34 117,34 30,0 71,-6 80,24 20,64 36,31 54,57 29,41 31,38 -13,84 0,10 1,15 1,23 2,86 46,60 116,60 25,0 100,-8 115,5 56,48 -115,83 -113,148 1,33 118,56 145,73 57,35 90,45 105,117 8,39 51,86 46,115 -17,100 -68,64 -68,146 0,60 22,66 -13,118 -43,64 -6,61 23,90 39,39 14,52 -22,81 -50,41 -80,10 -97,97 -5,13 -10,30 -13,44 -15,60 -60,110 -100,157 -41,48 -117,74 -145,123 -49,85 -23,88 -12,164 2,15 52,147 61,165 22,43 26,219 22,265 1,58 -1,48 23,102 15,32 15,24 30,47 29,44 85,51 113,72 54,40 74,52 110,111 24,39 17,56 30,80 38,73 43,84 43,167 0,35 -16,73 -33,104 -13,23 -98,104 -120,123 -78,65 -125,1 -184,-27 -35,-16 -71,-49 -101,-58 -42,-12 -65,-27 -103,-44 -51,-23 -78,-66 -133,-76 -38,-7 -44,-18 -74,-27 -37,-12 -63,-45 -54,-83 9,-38 16,-112 21,-149l-1 -3c-10,-38 -13,-60 -34,-95 -13,-21 -38,-33 -58,-47 -46,-35 -153,-52 -207,-71 -40,-14 -96,-19 -125,-30 -20,-7 -27,-7 -42,-11 -26,-7 -79,-4 -103,-9 -92,-22 -95,-9 -146,-89 -19,-30 -6,-25 -37,-51 -30,-25 -68,-13 -94,12 -36,35 -94,65 -139,88l-152 -27 0 0z"/>
  <path class="fil0 str0" d="M5450 13310c-7,2 -14,5 -21,6 -10,-10 -13,-27 -19,-42 -5,-11 -22,-11 -32,-8 -18,5 -43,-5 -60,6 -22,15 6,35 13,47 7,1 23,7 30,11 15,8 26,26 45,26 25,0 37,-22 57,-26l-13 -19zm180 -23c-15,20 -36,19 -60,19 -26,0 -47,-3 -70,1 -2,17 -2,32 20,35 47,5 96,-4 144,-4 25,0 62,-15 73,12 8,20 21,42 48,38 19,-3 26,-14 33,-29 16,-31 32,-57 21,-93 -4,-15 -12,-18 -19,-30 -49,-6 -108,2 -150,36l-41 14zm536 -507c11,-21 30,-46 25,-72 -5,-24 -22,-37 -46,-38 -23,-2 -43,-1 -66,2 -15,2 -32,7 -33,25 -1,10 18,99 38,101 6,12 47,9 58,8l24 -27zm5274 1720l152 27c45,-23 103,-53 139,-88 26,-25 64,-37 94,-12 31,26 18,21 37,51 51,79 53,67 146,89 24,6 77,2 103,9 15,4 22,4 42,11 29,10 84,15 125,30 53,19 160,36 207,71 19,14 45,26 58,47 21,35 24,57 34,95l1 3c-4,37 -12,111 -21,149 -9,38 17,71 54,83 29,10 36,21 74,27 55,10 82,53 133,76 39,18 61,32 103,44 30,9 66,41 101,58 59,28 106,92 184,27 22,-19 108,-99 120,-123 16,-31 33,-69 33,-104 0,-84 -6,-95 -43,-167 -13,-24 -6,-41 -30,-80 -36,-59 -56,-72 -110,-111 -28,-21 -84,-28 -113,-72 -15,-23 -15,-14 -30,-47 -24,-54 -22,-44 -23,-102 4,-46 0,-223 -22,-265 -9,-18 -59,-150 -61,-165 -11,-76 -37,-79 12,-164 28,-49 104,-76 145,-123 40,-46 85,-96 100,-157 3,-14 8,-31 13,-44 17,-87 47,-55 97,-97 36,-29 61,-42 22,-81 -30,-30 -67,-26 -23,-90 35,-53 13,-58 13,-118 0,-82 51,-46 68,-146 5,-30 -38,-77 -46,-115 -15,-73 -48,-82 -105,-117 -27,-17 -144,-41 -145,-73 -2,-65 169,-100 113,-148 -15,-13 -90,-5 -115,-5 -69,0 -114,26 -116,-60 0,-8 -2,-14 -1,-23 45,-47 42,-43 13,-84 -18,-26 -35,8 -54,-57 -9,-30 -50,-24 -80,-24 -61,0 -69,9 -117,-34 -11,-10 -53,-58 -53,-73 1,-38 -2,-72 7,-111 6,-24 17,-98 9,-120 -6,-16 -10,-39 -20,-52 -39,-15 -80,-40 -114,-9 -27,25 -81,-20 -133,13 -37,24 -17,56 -74,65 -67,11 -66,101 -95,19 -13,-39 17,-55 -37,-93 -27,-19 -54,-18 -64,-42 -15,-34 26,-48 -22,-96 -14,-14 -45,-59 -28,-78 37,-42 75,-62 46,-125 -16,-36 -38,-7 9,-63 27,-32 25,-53 24,-94 -1,-41 -27,-67 -66,-36 -51,41 -95,5 -89,-54 3,-27 1,-57 -12,-82 -21,-23 -41,-44 -61,-66 -55,-61 -163,-10 -192,-102 -21,-67 53,-71 97,-37 27,21 52,22 85,54 5,5 113,67 126,72 45,16 72,24 110,-16 23,-25 2,-66 -3,-100 -10,-80 -24,-105 5,-185 20,-55 6,-69 70,-59 51,8 133,7 182,21 119,34 27,-109 108,-173 24,-19 45,15 74,31 46,24 52,42 114,34 102,-12 129,-112 247,-92 65,11 191,-40 212,-9 3,4 15,126 20,149 17,72 17,85 52,152 22,43 33,63 48,109 17,52 58,144 93,185 50,58 83,92 146,137 8,6 14,10 21,16 68,32 84,28 146,-7 41,-23 60,-43 91,-76 18,-20 58,-33 85,-53 68,-49 25,-14 82,56 45,55 125,-25 173,-43 80,-30 102,-20 176,-34 32,-6 142,-24 169,-22 67,7 154,-10 210,-49 53,-38 111,-21 166,5 71,33 92,94 201,74 57,-11 99,-59 149,-84 20,-10 32,-23 47,-32 75,-40 63,-15 112,-35 45,-18 10,-94 18,-141 13,-75 0,-121 58,-185 38,-41 67,-82 110,-119 36,-31 51,-51 95,-76 93,-53 132,-105 248,-134 75,-19 168,-31 226,-81 39,-34 68,-70 112,-102 6,-5 12,-8 18,-13 54,-29 44,-24 83,-52 39,-29 68,-70 109,-96 28,-18 46,-31 76,-49 24,-14 53,-57 82,-63l0 0c6,45 79,109 105,148 54,80 89,159 131,246l68 140c25,50 72,95 79,153 16,74 95,132 102,198 41,35 75,124 99,174 44,93 40,229 29,331 -5,50 -29,92 -54,135 -13,22 -33,36 -50,54 -48,48 -124,180 -76,240 30,38 153,98 158,143 50,35 33,202 17,253 -49,154 -24,304 120,399 78,51 183,31 272,41 97,11 141,41 222,87 46,35 446,261 445,265 -47,24 -103,93 -131,138 -68,111 -32,220 32,320 26,40 73,62 92,104 92,205 -290,261 -31,742 42,78 128,152 184,224 59,78 166,129 157,239 -18,56 -144,201 -197,230 -66,37 -88,-104 -147,-23 -40,56 -89,43 -148,27 -92,-24 -204,13 -279,-43 -62,-47 -134,-139 -203,-82 0,52 -33,136 -93,136 -60,0 -105,88 -164,70 -88,-8 -157,-67 -247,-12 -44,27 -54,115 -58,162 -9,93 -89,234 -162,290 -89,68 -194,53 -287,106 -18,127 96,236 142,340 160,102 361,60 534,153 74,40 142,82 224,110 76,26 168,19 205,107 24,49 36,109 62,155 30,54 143,26 145,45 6,3 -5,22 -8,37 8,18 9,58 9,118 0,166 174,274 174,413 0,122 90,180 131,291 -29,33 -94,67 -113,99l-296 450c-53,81 -127,163 -207,218 -54,37 -148,33 -211,47 -40,64 -44,88 -10,165 17,35 24,76 24,115 -43,78 -50,137 -5,211 52,85 59,174 0,263 -5,71 -22,208 -91,246 -36,20 -327,240 -145,261 122,14 102,67 116,175 10,84 9,171 6,255 -3,104 -51,248 58,306 41,22 98,29 137,55 28,19 5,99 15,128 12,45 -9,100 10,143 14,33 84,69 113,90 15,78 13,161 13,241 -65,64 -290,38 -290,214 0,66 13,122 -32,179 -35,44 -86,123 -125,158 -61,80 -195,123 -195,246 0,139 5,162 -141,167 -74,2 -124,-6 -181,41 -185,150 271,314 255,443 -64,51 -143,75 -161,166 12,69 -70,49 -88,109 -32,106 34,329 -150,229 -65,-35 -116,-204 -185,-221 -40,-10 -149,95 -179,123 -75,71 26,215 -100,295 -59,38 -97,51 -166,60 -25,3 -130,-7 -141,4 0,58 -29,154 -73,195 -19,17 -71,47 -79,69 -14,42 -17,79 -43,118 -9,34 -87,165 -119,169 -40,-32 -178,-150 -180,-196 -3,-60 19,-117 23,-171 0,-78 18,-118 -62,-148 -16,-6 -49,-17 -57,-26 -13,-14 -7,-45 -17,-62 -7,-13 -30,-30 -55,-38 -30,-10 -64,-20 -93,-31 -51,-20 -35,-90 -107,-107 -37,-9 -74,-42 -114,-55 -36,-12 -73,-13 -110,-2 -77,22 -89,77 -110,143 -14,45 -30,59 -64,86 -34,27 -57,97 -62,138 -1,9 -12,24 -17,31 -10,15 -47,20 -61,31 143,58 209,187 209,654 -102,49 -155,-83 -297,-106 -92,-15 -85,-64 -147,-113 -40,-32 -98,1 -145,1 -44,0 -90,-37 -129,-54 -64,-27 -167,16 -199,64 -44,68 -85,93 -166,75 -125,-28 -106,123 -203,128 -56,2 -86,-46 -139,-44 -42,2 -117,69 -150,93l-155 208 0 0c-39,1 -76,-8 -89,-49 -20,-65 -26,-116 -58,-181 -126,-58 -237,65 -362,-4 -35,-19 -76,-16 -111,-33 -75,-149 -266,-39 -334,-148l-43 -26c0,-81 -153,-77 -17,-156 83,-48 -75,-117 56,-140 64,-11 24,-83 17,-118 -12,-59 -46,-150 -46,-205 0,-82 -56,-154 55,-164 38,-44 56,-132 41,-192 -19,-59 -50,-108 -79,-164 -26,-51 -36,-107 -51,-160 -27,-93 -47,-212 -144,-260 -2,-9 0,-9 0,-18 95,-27 -71,-285 -99,-320 -47,-59 -96,-3 -117,-19 0,-20 35,-44 50,-55 -8,-42 -42,-49 -82,-44 -69,9 -15,-46 -6,-72 14,-41 -126,-151 -172,-143 -48,8 -96,87 -101,132 -5,3 -5,5 -11,5 -7,-23 -34,-46 -43,-69 -8,-19 5,-39 -4,-63 -8,-25 -93,-117 -120,-117 -51,0 -87,37 -92,-41 -2,-44 -100,-12 -117,-62 -59,0 -75,96 -143,23 -30,-33 -46,-115 -86,-125 -53,-13 -6,-54 -8,-82 -6,-74 55,-27 62,-79 5,-36 2,-48 -2,-85 -40,-91 -149,-470 -292,-388 -62,36 -83,-32 -113,-57 0,-77 -78,-249 -149,-282 -91,-42 -245,-121 -303,-202 -26,-2 -52,-14 -79,-17 -83,0 -160,13 -230,-37 -56,-40 -139,-42 -184,-86 -9,-75 -11,-109 -89,-135 -34,-48 -117,-5 -156,13 -69,33 -95,4 -157,10l-24 0c0,-24 112,-60 131,-82 12,-14 14,-32 31,-41 145,-77 148,-127 142,-275 -4,-81 -65,-100 -106,-155 37,-50 108,-47 169,-74 57,-25 137,-47 186,-79 42,-28 36,-65 64,-95 41,-43 65,-59 46,-127 -17,-61 -54,-127 -81,-184 -24,-51 20,-46 62,-68 25,-11 67,-48 83,-70 18,-24 9,-55 23,-74 38,-53 58,-39 117,-54 6,-23 -34,-54 -45,-74 -24,-41 -37,-91 -46,-138 -49,-260 -149,-511 -194,-764 -6,-32 -8,-111 -24,-135 0,-391 -225,-902 -325,-1289l-52 -203c-28,-108 -73,-235 -76,-346 -29,-96 -87,-184 -113,-276 -92,-319 -261,-1232 -470,-1472 -12,-130 -196,-390 -279,-528 -32,-54 -71,-108 -110,-158 -31,-39 -58,-48 -99,-72 -119,37 -209,84 -329,104 -85,14 -51,127 -136,140 -155,23 -267,-10 -336,-148 -67,-134 -148,-37 -247,-82 -48,-22 -72,-79 -130,-79 -57,0 -107,-18 -141,-66 -81,-20 -157,-7 -129,-122 0,-89 -10,-204 -66,-275 -72,-92 -235,9 -312,-48 -60,-44 -17,-89 -17,-135 0,-17 -40,-34 -52,-48 -27,-31 -22,-75 -45,-105 -103,-130 -105,-130 67,-159 41,-7 122,-93 133,-10 87,54 278,125 315,228 51,143 215,49 201,-90 -6,-65 121,-19 145,19 17,26 -9,83 29,81 124,-7 156,-87 261,-140 51,-25 140,35 179,61 45,30 39,120 72,166 83,7 58,-28 120,-54 34,0 214,128 225,53 10,-66 119,-48 174,-45 81,5 47,114 118,127 84,15 126,-53 204,-75 138,-39 93,-223 256,-166 53,19 119,46 158,87 20,22 121,172 138,143 9,-16 1,-142 -6,-144 0,-51 -15,-82 -1,-137 34,-8 156,166 198,198 141,95 211,91 369,107 159,17 174,83 282,179 78,70 116,-4 182,-4 70,71 60,269 118,363 63,103 239,126 256,261 157,114 198,303 422,303 68,0 86,-30 139,-58 50,-26 147,51 185,81 67,54 110,92 85,181 -63,39 -43,63 -80,110 -38,49 -125,20 -155,62 -20,28 -4,72 -16,105 -35,53 -91,79 -32,135 44,42 90,63 126,112 80,109 183,224 298,297 54,35 71,88 118,130 24,21 210,14 244,2 6,-2 15,-8 26,-16l0 0z"/>
  
  
  
  
  
  
  
  
  
  
  
  
  
  
  
  
 </g>
</svg>