<svg xmlns="http://www.w3.org/2000/svg" xmlns:xlink="http://www.w3.org/1999/xlink" xml:space="preserve" width="297mm" height="210mm" version="1.1" style="shape-rendering:geometricPrecision; text-rendering:geometricPrecision; image-rendering:optimizeQuality; fill-rule:evenodd; clip-rule:evenodd" viewBox="0 0 29700 21000">
 <defs>
  <style type="text/css">
   <![CDATA[
    .str1 {stroke:black;stroke-width:10;stroke-opacity:0.501961}
    .str3 {stroke:black;stroke-width:50}
    .str5 {stroke:#434242;stroke-width:10}
    .str2 {stroke:#3F3E3F;stroke-width:10}
    .str0 {stroke:black;stroke-width:10}
    .str6 {stroke:#2B2A29;stroke-width:7.62}
    .str4 {stroke:black;stroke-width:7.62}
    .fil6 {fill:none}
    .fil0 {fill:#FEFEFE}
    .fil8 {fill:#D9DADA}
    .fil4 {fill:#FEFEFE;fill-rule:nonzero}
    .fil3 {fill:#D9DADA;fill-rule:nonzero}
    .fil7 {fill:#434242;fill-rule:nonzero}
    .fil5 {fill:#2B2A29;fill-rule:nonzero}
    .fil2 {fill:black;fill-rule:nonzero}
    .fil1 {fill:#FEFEFE;fill-rule:nonzero;fill-opacity:0.501961}
   ]]>
  </style>
 </defs>
 <g id="Plan_x0020_1">
  <metadata id="CorelCorpID_0Corel-Layer"/>
  <rect class="fil0" x="1000" y="1000" width="24803" height="19000"/>
  
  
  
  <path class="fil0 str0" d="M19176 18729c77,-68 -59,-113 -102,-156 -14,-14 -52,-88 -5,-69 75,32 132,29 192,-34 18,-19 68,-91 88,-97 21,-7 31,20 53,24 29,6 69,-92 120,-105 57,-15 92,-119 141,-119 33,27 15,114 7,149 -21,94 97,10 134,10 27,22 16,51 16,82 -8,25 -30,44 -39,69 -41,31 -48,102 -99,137 -45,30 -100,29 -151,35 -92,10 -46,36 -34,97 7,33 40,131 78,138 21,21 113,16 143,17 125,4 43,-147 114,-183 13,-7 64,29 79,36 37,17 80,15 117,32 27,42 -17,80 -34,112 -28,54 -42,61 -20,122l47 51 0 0c-32,52 -64,171 -106,208 -64,58 -115,17 -164,-31 -40,-39 -89,-33 -142,-42 -64,-10 -72,-88 -126,-88 -34,0 -57,40 -57,71 0,8 4,36 -5,38 -1,4 -3,2 -4,5 -13,0 -32,-10 -35,-24 -5,-3 -27,-60 -31,-68 -2,-19 -9,-35 -9,-55 0,-10 3,-31 0,-40 -10,-33 1,-40 -31,-57 -20,-10 -42,31 -51,44 -19,29 -59,55 -69,5 -12,-53 16,-94 20,-144 1,-18 16,-39 16,-58 0,-15 -10,-47 -27,-51 -5,-19 -13,-46 -23,-63l0 0z"/>
  
  <path class="fil0 str0" d="M12209 16888c-34,-3 -68,-12 -94,-16 -84,-15 -72,70 -172,15 -49,-27 -31,-15 -75,-5l0 0 42 -50c1,-1 17,-10 17,-11 8,-1 22,-13 30,-17 46,-22 97,-56 147,-21 38,26 72,75 104,107l0 0zm6616 860l74 13c7,2 8,0 12,4 21,0 32,15 43,29 0,6 2,12 2,18 -18,22 -35,28 -61,39 -21,9 -26,18 -42,34 -2,22 -15,39 8,54 13,9 40,15 47,28 12,21 24,66 31,90 7,25 11,58 -16,72 -25,12 -71,-97 -84,-116 -25,-35 -86,-45 -128,-45l0 0c1,-34 3,-68 10,-99 14,-61 53,-74 96,-111 3,-3 6,-6 9,-10l0 0z"/>
  
  <path class="fil0 str0" d="M20470 4935l-78 -8c-81,57 -31,37 -27,90 8,94 -37,118 -125,99 -29,-6 -66,-241 -141,-157 -33,38 29,102 -62,143 -21,9 -64,59 -69,82 -11,45 -32,7 -57,93 -18,62 -184,130 -109,178 39,25 -66,107 3,175 69,69 50,47 68,130 14,62 78,37 137,156l2 7c40,67 31,58 27,121 -3,43 -33,62 -31,120 2,74 -188,57 -119,134 29,32 33,68 2,99 -79,79 -7,78 -71,132 -36,30 -57,61 -64,110 -9,64 73,103 18,144 -36,27 40,127 -137,84 -41,-10 -71,42 -9,84 14,10 66,56 40,79 -43,37 -58,71 -60,129 -1,35 76,155 -59,150 -27,-1 -48,-35 -92,-45 -7,-1 -32,-12 -39,-15l-63 -20 0 0c-11,-3 -31,-16 -42,-15 -84,4 -87,97 -143,130 -86,51 -86,-96 -164,-114 -79,-19 12,-61 -20,-133 -35,-79 -175,52 -193,-11 -23,-81 -133,-15 -152,-15 -66,-3 15,-116 -33,-121 -91,-11 -84,35 -126,-64 -5,-4 -27,-34 -40,-46 -28,-28 -72,-45 -74,-49 -54,-69 162,-12 160,-46 -3,-77 29,44 92,7 76,-44 -20,-77 19,-134 34,-52 18,-15 42,-79 17,-47 -22,-112 -47,-148l0 0c37,-9 28,-11 68,-11 37,0 35,-54 30,-66 -18,-43 8,-100 -44,-150 -38,-37 -66,-97 0,-125 59,-25 34,-22 56,-53 39,-55 -97,-119 -70,-175 49,-98 48,-81 11,-188 -46,-132 -73,-92 -74,-264 5,-9 13,-33 18,-44 15,-35 -7,-146 -29,-158 -47,-26 -18,-119 1,-157 32,-63 18,-60 12,-115 -15,-119 146,-67 71,-187 -16,-25 38,-73 51,-79 97,-41 81,-173 88,-256l0 0c36,0 135,19 179,19 83,0 42,-123 74,-198 32,-74 28,-92 51,-170 7,-13 17,-47 18,-62 2,-44 3,-28 15,-61 21,-56 156,-92 130,-163 -7,-18 1,-45 1,-57 -1,-22 41,-93 55,-104 40,-33 75,-134 18,-160 -91,-41 3,-58 -75,-110 -96,-64 -121,-16 -114,-167l-86 -53 0 0c26,-52 -39,-77 -71,-119 -25,-34 54,-90 79,-110 12,-36 20,-73 20,-111 49,-75 125,-76 205,-99 74,-21 157,-57 234,-57 26,21 26,45 46,67 2,22 16,38 10,63 -18,68 -71,130 -82,197 -40,75 47,50 92,86 84,68 112,104 220,57 27,-12 62,-47 89,-28 24,17 51,48 51,79 -60,76 -81,148 -195,101 -48,-19 -53,-42 -69,17l-34 122c-49,36 -81,64 -94,125 -9,43 -31,133 -57,166 -1,9 -4,10 -4,16 -50,57 46,260 87,303l214 230c42,0 48,-64 89,-58 32,43 34,27 25,85 -11,68 -17,130 38,183 72,68 133,-3 198,-29 72,-9 142,-16 162,-93 11,-43 -3,-90 13,-133 6,-16 46,-91 60,-90 56,4 78,159 118,192 45,37 108,86 141,133 14,21 -25,99 -39,120 -51,76 35,59 38,137 2,57 50,110 89,143l1 10c-35,35 -143,-17 -189,47 -20,17 -53,42 -77,53 -14,25 -23,40 -28,55l0 0z"/>
  <path class="fil0 str0" d="M22514 8116c8,-92 8,-117 73,-185 29,-30 105,-9 132,13 60,48 218,15 99,-51 -21,-12 -101,-30 -76,-81 25,-52 82,-75 31,-135 -7,-8 -36,-108 -35,-120 0,-6 31,-154 33,-158 8,-20 -13,-84 -13,-122 0,-75 3,-202 22,-275l0 0c-8,-6 -17,-10 -26,-14 -70,-28 -172,-75 -193,-156 -56,-19 -121,-10 -145,47 -13,30 -56,164 -103,153 0,-34 -3,-87 -27,-111l-92 -175c-29,-55 -73,-92 -82,-155 -7,-47 -9,-43 -50,-28 -49,17 -105,64 -145,16 -77,-91 -58,-60 -125,18 -18,21 -71,84 -99,84 -34,0 -17,-204 -98,-189 -55,10 -109,82 -155,82 -3,-4 -4,-8 -4,-14l4 14c0,2 28,70 30,72 25,42 64,119 10,157 -65,46 -94,87 -134,155 -34,59 -121,120 -152,168 -30,47 -172,150 -225,128 -78,-32 -9,-61 -164,17 -20,27 -87,53 -124,88 -70,67 -18,139 -81,139 -84,0 -81,91 -43,117 43,29 87,103 42,148 -16,16 -43,32 -62,46 -110,85 -15,95 -39,135 -31,52 -105,33 -122,37 -13,4 -111,94 -112,95l0 0c-19,28 -23,41 -49,57 -34,21 19,69 20,107 2,63 -3,43 -12,101 -5,35 25,187 62,203 54,25 91,-42 132,-1 80,80 184,-83 255,-58 46,16 64,8 115,40l0 0c96,-73 95,-79 75,-188 -21,-117 27,-184 40,-111 4,25 37,113 76,102 38,-11 94,-25 121,9 23,29 70,28 102,19 41,-11 99,-49 131,-35 21,9 100,-12 116,-39 37,-61 101,16 72,-82 -16,-53 -26,-84 23,-121 50,-37 139,-130 208,-107 40,13 40,54 10,86 -21,22 -109,129 -63,157 23,14 81,-72 115,-14 7,12 107,71 114,-20 7,-88 -8,-62 55,-140 26,-32 66,-41 88,-63 4,-3 90,-75 102,-67 71,50 62,159 192,175 51,6 57,9 107,22 10,3 35,6 43,9l0 0z"/>
  <path class="fil0 str0" d="M20265 8075c-19,28 -23,41 -49,57 -34,21 19,69 20,107 2,63 -3,43 -12,101 -5,35 25,187 62,203 54,25 91,-42 132,-1 80,80 184,-83 255,-58 46,16 64,8 115,40l0 0 -101 68 -5 4c-27,20 -54,46 -55,84 -3,115 42,84 3,203 -24,72 -55,122 -94,190l0 0c-3,2 -15,8 -18,9 -63,16 -54,33 -73,44 -112,60 -82,7 -150,25 -51,13 -69,141 -59,177 11,40 9,85 10,126 1,28 -21,137 -40,155 -54,51 -25,50 -120,78l0 0c-39,-54 -40,-24 -69,-101 -21,-55 -11,-123 -81,-124 -203,-5 -109,-74 -162,-96 -114,-47 -136,14 -238,-10 -140,-33 -155,38 -207,158 -23,52 -122,165 -166,202 -64,54 -37,63 -141,92 -22,8 -60,11 -83,17 -82,21 -75,-140 -133,-77 -15,16 -91,72 -95,24 -1,-18 -26,-67 -39,-80 -28,-30 -138,12 -163,-32 -46,-82 -119,67 -164,48 -15,-6 -66,20 -76,51 -15,45 4,46 19,71 36,61 -80,55 -82,57 -55,44 8,114 -69,146 -31,13 -20,50 -3,64 74,58 -7,88 -67,82 -42,-4 -83,-38 -96,-32 -29,13 -78,12 -82,13 -29,12 -73,-58 -77,-73 -22,-96 -54,-40 -65,-131 -11,-88 -74,-61 -79,-104 -10,-81 8,-69 -85,-85l-3 9c1,-2 5,-16 4,-17 -4,-95 100,-41 106,-113 5,-58 73,-61 50,-117 -36,-88 -87,-23 -48,-172 1,-12 -13,-43 -21,-52 -54,-61 47,-55 -3,-150 -46,-87 93,-99 102,-141 10,-51 38,-29 71,-38 20,-6 111,20 109,-34 -1,-40 -6,-44 -5,-92 6,-159 253,-103 302,-149 22,-21 52,-36 56,-39 59,-54 95,-16 141,-18 43,-2 12,-50 73,-37 49,10 46,17 86,-6 79,-44 30,-124 104,-148 59,-18 49,-108 51,-154l0 0c11,-11 10,-21 31,-31 120,-63 99,8 193,-61 53,-39 35,-79 44,-112 27,-101 90,-85 165,-58 46,17 96,72 94,-13 -3,-117 51,-47 51,-152 0,-133 129,-16 20,-179l0 0c78,-48 58,-42 125,-29 57,11 66,29 130,-8 33,-19 81,-52 113,-73 15,-10 80,-66 76,-22 -2,20 60,158 86,177 80,56 123,-40 183,145 8,25 96,82 110,126 6,20 63,63 83,68l0 0z"/>
  <path class="fil0 str0" d="M19357 7691c78,-48 58,-42 125,-29 57,11 66,29 130,-8 33,-19 81,-52 113,-73 15,-10 80,-66 76,-22 -2,20 60,158 86,177 80,56 123,-40 183,145 8,25 96,82 110,126 6,20 63,63 83,68l0 0c1,-1 99,-91 112,-95 16,-5 91,15 122,-37 24,-40 -71,-49 39,-135 19,-15 47,-31 62,-46 44,-44 1,-118 -42,-148 -38,-26 -41,-117 43,-117 63,0 11,-72 81,-139 37,-35 104,-61 124,-88 155,-78 86,-49 164,-17 53,22 194,-81 225,-128 31,-48 118,-109 152,-168 40,-68 69,-109 134,-155 53,-38 15,-115 -10,-157 -1,-2 -29,-70 -30,-72l-4 -14c-1,-15 5,-34 3,-47 -3,-20 -19,-20 -16,-46 5,-47 67,-67 87,-106 -31,-94 -218,-111 -49,-225 39,-26 -9,-204 -9,-252 -41,-10 -78,5 -123,-16 -45,-21 -82,-59 -124,-79 -85,-39 -54,257 -176,124 -43,-47 -56,-128 -37,-186 12,-37 133,-180 33,-157 -49,11 -105,6 -155,5l-147 -184c-18,-22 -85,-148 -119,-133 -21,33 -96,143 -123,52 -21,-72 -16,-111 -1,-185 9,-46 1,-65 -7,-111 -7,-41 -8,-60 -1,-80l0 0 -78 -8c-81,57 -31,37 -27,90 8,94 -37,118 -125,99 -29,-6 -66,-241 -141,-157 -33,38 29,102 -62,143 -21,9 -64,59 -69,82 -11,45 -32,7 -57,93 -18,62 -184,130 -109,178 39,25 -66,107 3,175 69,69 50,47 68,130 14,62 78,37 137,156l2 7c40,67 31,58 27,121 -3,43 -33,62 -31,120 2,74 -188,57 -119,134 29,32 33,68 2,99 -79,79 -7,78 -71,132 -36,30 -57,61 -64,110 -9,64 73,103 18,144 -36,27 40,127 -137,84 -41,-10 -71,42 -9,84 14,10 66,56 40,79 -43,37 -58,71 -60,129 -1,35 76,155 -59,150 -27,-1 -48,-35 -92,-45 -7,-1 -32,-12 -39,-15l-63 -20 0 0c-82,121 -79,126 -79,267 0,49 -88,156 -20,191 9,5 65,-8 101,5l0 0z"/>
  <path class="fil0 str0" d="M19355 7228c-82,121 -79,126 -79,267 0,49 -88,156 -20,191 9,5 65,-8 101,5l0 0c109,163 -20,45 -20,179 0,105 -53,35 -51,152 2,86 -48,30 -94,13 -75,-27 -138,-43 -165,58 -9,32 9,73 -44,112 -94,69 -72,-2 -193,61 -21,11 -20,21 -31,31l0 0 -62 -75c-55,-44 -76,-82 -105,-141 -62,-127 -213,-191 -347,-207 -97,-12 -117,29 -178,35 -54,6 -101,17 -135,-33 -77,-114 -113,-73 -218,-82 -19,-2 -77,-26 -91,-40 -39,-39 -79,67 -79,95 -3,113 14,69 -64,148 -12,12 28,73 -44,98 -108,37 -139,-100 -188,-80 -87,36 -36,-26 -122,-49 -78,-21 -71,30 -125,-82l0 0c110,-32 63,-6 132,-9 54,-3 143,-88 121,-108 -5,-5 -107,-55 -49,-68 49,-11 51,-63 36,-99 -19,-47 150,-44 169,-54 17,-10 5,-57 -40,-71 -110,-34 90,-84 42,-108 -21,-11 -35,5 -65,-47 -30,-52 -22,-122 34,-145 28,-12 103,39 123,-92 2,-9 4,-17 4,-26 3,-65 -7,-34 62,-52 49,-13 112,-53 69,-107 -14,-17 -34,-48 -16,-68 64,-72 24,-116 63,-162 20,-23 47,10 43,-81 -2,-38 130,-9 110,-64 -4,-11 29,-206 47,-209 38,-8 45,67 85,5 23,-36 -14,-109 124,-159 33,-12 1,32 75,20 116,-19 22,192 173,100 35,-21 124,-79 150,-21 13,29 12,4 16,46 2,23 30,38 49,40l73 42 0 0c25,36 64,101 47,148 -24,64 -7,28 -42,79 -39,58 57,90 -19,134 -64,37 -95,-84 -92,-7 1,34 -215,-23 -160,46 2,3 46,21 74,49 13,13 35,42 40,46 42,98 35,53 126,64 48,6 -33,118 33,121 19,1 129,-66 152,15 18,63 158,-68 193,11 32,72 -59,114 20,133 78,18 79,165 164,114 56,-34 59,-126 143,-130 11,-1 31,13 42,15l0 0z"/>
  <path class="fil0 str0" d="M22138 10006l-127 3c-26,15 -109,46 -113,86 -1,8 -17,48 -19,81 -3,47 -65,152 -48,180 14,23 43,36 62,88 19,52 -33,120 21,145 45,20 64,58 64,104 0,36 -113,68 -88,165 10,37 -14,108 -53,87 -11,-6 -154,29 -194,29 -38,0 -97,-15 -115,-51 -24,-46 231,-139 180,-181 -62,-51 -109,-165 -184,-119 -45,27 -43,150 -51,201 -8,46 -212,-30 -225,-19l0 0c-71,90 -49,75 -49,170 0,156 -96,131 -125,202 -4,9 -4,127 -1,141 -1,6 -17,123 -7,137 38,54 29,75 -6,129 -29,45 -98,146 -37,190 19,14 145,-107 149,1 0,6 -30,80 -15,97l0 0c107,20 76,10 152,-14 23,-7 57,-34 99,-43 55,-13 71,-19 127,-14 98,8 14,49 124,75 59,14 39,133 65,176 26,45 92,60 133,78 27,11 86,88 113,114 55,53 107,59 182,51 61,-6 78,-21 146,-1 83,24 93,34 157,89 4,4 53,55 54,61l0 0c46,-25 92,-50 138,-68 108,-41 528,-300 628,-241l0 0 -19 -58c-1,-15 -4,-54 -14,-65 -1,-3 -3,-5 -4,-8 -13,-11 -18,-18 -37,-20l-63 -8c-39,-5 -79,-50 -43,-86 13,-13 31,-17 43,-30 73,-68 153,-96 215,-178 60,-79 -126,-62 -157,-68 -47,-8 -28,-82 -21,-120 15,-89 -17,-141 -47,-221 -14,-39 -15,-76 -20,-115 -44,-25 -68,-1 -114,-8 -58,-9 -12,-47 9,-81 32,-128 -99,-149 -99,-252 0,-79 64,-229 159,-232 57,-2 105,98 147,133 68,57 153,107 189,-15 17,-58 42,-60 89,-84 62,-32 74,-47 114,-101 30,-40 105,-25 150,-25 1,-2 0,0 1,-2 -59,-19 -67,-96 -134,-104 -39,-14 -56,-58 -109,-60 -34,-2 -82,2 -114,-6 -22,-5 41,-170 -33,-120 -44,30 -13,71 -24,113 -17,63 -112,-10 -141,7 -19,12 -81,94 -107,70 -17,-16 -27,-95 -21,-115 21,-73 -34,-55 -56,-107 -12,-27 -7,-47 -11,-75 -16,-103 -82,54 -133,54 -36,0 -6,-148 15,-170 11,-11 58,-58 58,-73l0 0c-18,0 -86,23 -101,30 -44,20 -102,69 -146,98 -52,35 -137,61 -198,61 -37,0 -150,89 -181,44 -19,-27 -46,-46 -72,-67 -55,-43 -12,-31 -106,-68l0 0z"/>
  <path class="fil0 str0" d="M22514 8116c8,-92 8,-117 73,-185 29,-30 105,-9 132,13 60,48 218,15 99,-51 -21,-12 -101,-30 -76,-81 25,-52 82,-75 31,-135 -7,-8 -36,-108 -35,-120 0,-6 31,-154 33,-158 8,-20 -13,-84 -13,-122 0,-75 3,-202 22,-275l0 0c50,33 88,95 152,121 88,36 216,12 216,138 0,87 -79,153 -79,243l51 61 91 45c34,17 107,49 141,15 34,-34 4,-103 33,-125 31,0 93,43 123,58 52,27 101,-18 133,0 20,41 45,116 70,150 1,19 9,65 -19,70 -65,12 -86,18 -36,84 17,22 22,44 46,59 28,19 64,12 94,22l55 18 0 0c21,16 33,39 53,57 3,7 10,13 15,20 8,14 12,29 17,43 8,19 15,39 26,57l1 5c4,13 10,35 17,45 0,53 -24,104 -68,138 -81,61 54,197 108,239 117,94 142,-95 241,-95 22,18 83,37 83,70 0,66 -37,138 -39,209 -3,93 -49,135 -91,212l0 18c-3,4 -3,5 -3,9l-3 4c0,43 -42,109 -59,148 -32,72 -75,161 -94,237 -17,69 -1,123 -1,189 -1,1 -1,1 -2,3l-5 4c-3,0 -5,2 -7,4 -50,0 -90,7 -141,-5 -195,-46 -270,-31 -390,129 -92,74 -170,306 -285,326 -62,11 -120,-18 -173,-48 -24,-13 -86,-74 -109,-74l0 0c-18,0 -86,23 -101,30 -44,20 -102,69 -146,98 -52,35 -137,61 -198,61 -37,0 -150,89 -181,44 -19,-27 -46,-46 -72,-67 -55,-43 -12,-31 -106,-68l0 0c10,-10 2,-6 16,-18 46,-42 141,-23 162,-77 28,-70 15,-109 -53,-144 -41,-21 -115,-12 -116,-31 -7,-93 111,-180 19,-216 -82,-32 -43,-82 1,-92 107,-24 46,-41 78,-101 33,-63 38,-72 6,-157l-2 -4c-9,-45 -42,-48 -29,-93 16,-55 88,-75 91,-90 14,-71 -103,3 40,-139 12,-12 21,-27 29,-41 15,-27 36,-106 39,-137 10,-85 110,-99 61,-165 -59,-81 79,-90 84,-101 14,-35 -39,-65 -65,-76 -41,-17 10,-188 17,-209l0 0z"/>
  <path class="fil0 str0" d="M20788 8524c96,-73 95,-79 75,-188 -21,-117 27,-184 40,-111 4,25 37,113 76,102 38,-11 94,-25 121,9 23,29 70,28 102,19 41,-11 99,-49 131,-35 21,9 100,-12 116,-39 37,-61 101,16 72,-82 -16,-53 -26,-84 23,-121 50,-37 139,-130 208,-107 40,13 40,54 10,86 -21,22 -109,129 -63,157 23,14 81,-72 115,-14 7,12 107,71 114,-20 7,-88 -8,-62 55,-140 26,-32 66,-41 88,-63 4,-3 90,-75 102,-67 71,50 62,159 192,175 51,6 57,9 107,22 10,3 35,6 43,9l0 0c-7,22 -57,193 -17,209 26,11 79,40 65,76 -5,12 -143,21 -84,101 49,67 -51,80 -61,165 -4,31 -24,110 -39,137 -8,14 -17,29 -29,41 -143,143 -25,68 -40,139 -3,15 -74,36 -91,90 -13,45 20,48 29,93l2 4c32,84 27,94 -6,157 -32,60 29,77 -78,101 -43,10 -83,60 -1,92 92,36 -27,122 -19,216 2,19 76,10 116,31 68,34 81,73 53,144 -21,54 -116,35 -162,77 -13,12 -6,8 -16,18l0 0 -127 3c-26,15 -109,46 -113,86 -1,8 -17,48 -19,81 -3,47 -65,152 -48,180 14,23 43,36 62,88 19,52 -33,120 21,145 45,20 64,58 64,104 0,36 -113,68 -88,165 10,37 -14,108 -53,87 -11,-6 -154,29 -194,29 -38,0 -97,-15 -115,-51 -24,-46 231,-139 180,-181 -62,-51 -109,-165 -184,-119 -45,27 -43,150 -51,201 -8,46 -212,-30 -225,-19l0 0c-13,-2 -39,-18 -49,-28 -16,-16 -88,-15 -107,-4 -30,16 -89,-83 -132,-96 -87,-26 -90,-127 -80,-204 -1,-14 -38,-61 -47,-69 -111,-107 31,-115 -50,-189 -74,-68 25,-199 -93,-240 -39,-14 -52,-61 -36,-98 18,-42 22,-121 -5,-161 -65,-97 33,-111 57,-143 32,-44 49,-69 20,-124 -54,-103 -65,-106 -9,-207 20,-36 77,-83 62,-110 -20,-38 -11,-97 -42,-85 -46,16 -54,27 -80,64 -55,77 -72,34 -121,-38l0 0c39,-68 70,-118 94,-190 39,-119 -6,-88 -3,-203 1,-38 28,-64 55,-84l5 -4 101 -68 0 0z"/>
  <path class="fil0 str0" d="M21248 10806c-71,90 -49,75 -49,170 0,156 -96,131 -125,202 -4,9 -4,127 -1,141 -1,6 -17,123 -7,137 38,54 29,75 -6,129 -29,45 -98,146 -37,190 19,14 145,-107 149,1 0,6 -30,80 -15,97l0 0 -65 71c0,4 1,8 -1,12 -18,62 14,76 20,112 5,34 34,72 16,84 -36,24 -28,12 -65,20 -65,15 -135,-47 -165,-29 -101,60 -63,187 -90,213 -95,92 -223,-42 -253,37 -6,17 44,124 -31,128 -74,4 -59,12 -135,-49l0 0c-22,2 -118,-70 -145,-83 -59,-28 -38,-88 -88,-61 -34,18 -17,166 -7,188 27,62 -10,102 5,139 13,33 -57,53 -81,60 -33,9 -109,-8 -125,-30 -18,-25 -68,-46 -73,-53 -51,-74 -67,-35 -108,-58 -76,-42 -49,-40 -141,-61 -130,-31 -56,-114 -123,-168 -76,-61 -129,55 -137,15 -13,-65 96,-73 113,-122 14,-39 37,-93 57,-125 27,-64 -13,-60 -42,-84 -47,-38 -174,63 -226,-87 -18,-51 -84,-74 -135,-74 -95,0 -87,-17 -135,-88 -20,-29 -32,-76 -43,-111 -4,-13 -62,-90 -71,-99 -53,-51 41,-107 74,-112 92,-14 99,-83 60,-86 -47,-3 -52,0 -104,-9 -64,-11 -46,-125 -46,-165l0 0c166,-120 109,-176 194,-241 55,-42 42,117 77,132 96,41 140,1 216,-52 63,-43 144,-26 154,-149 3,-32 13,-107 -6,-135 -10,-14 36,-40 48,-79 24,-76 -20,-97 3,-165 10,-31 45,-24 62,-79 3,-10 18,-23 19,-44 3,-48 -13,-103 -7,-148 9,-63 79,-85 117,-119 112,-102 81,-67 90,-193 3,-36 31,-70 66,-81 15,-5 75,-51 95,-63l89 -96 0 0c95,-29 67,-27 120,-78 19,-18 40,-128 40,-155 -1,-41 1,-87 -10,-126 -10,-37 8,-164 59,-177 68,-17 38,35 150,-25 19,-10 10,-27 73,-44 3,-1 15,-7 18,-9l0 0c49,72 67,114 121,38 26,-36 33,-47 80,-64 32,-11 22,47 42,85 15,27 -42,74 -62,110 -56,101 -46,104 9,207 29,55 12,80 -20,124 -23,32 -122,46 -57,143 27,40 23,119 5,161 -16,37 -3,84 36,98 118,41 19,172 93,240 81,74 -61,82 50,189 9,8 46,55 47,69 -10,77 -7,178 80,204 43,13 101,113 132,96 19,-10 92,-12 107,4 10,10 36,27 49,28l0 0z"/>
  <path class="fil0 str0" d="M13452 4550l104 65c123,68 42,20 135,9 31,-4 11,21 26,61 34,91 15,69 123,49 59,-11 80,-71 78,-123 -1,-28 17,-73 37,-95 41,-43 62,-135 99,-24 6,19 11,87 60,77 68,-14 36,-42 103,-6 20,11 124,-44 151,57 4,15 19,46 30,57 60,60 335,-128 340,-26 2,40 -20,63 35,75 19,4 51,47 40,80 -14,45 -26,160 34,177 133,36 62,111 152,95 64,-11 51,-58 131,-23 25,11 32,6 64,27 44,29 99,7 129,-30 36,-44 124,-91 180,-91 96,-42 83,-20 165,-35 32,-6 80,-36 46,-79 -15,-19 -34,-47 -54,-63 -9,-7 -52,-65 -51,-76 4,-38 56,-56 29,-93 -40,-54 5,-164 66,-86 29,36 65,-64 84,-1 28,98 131,6 161,13 51,13 107,-39 25,-85 -43,-24 -86,-280 4,-126 31,53 128,43 157,-15 15,-31 42,13 104,-15 51,-23 51,-4 65,-67 11,-52 67,-52 52,-141 -4,-22 16,-28 -15,-45 -28,-15 -25,-28 -73,-41 -73,-19 28,-152 99,-12 24,47 127,-7 154,-33 65,-64 106,-8 64,54 -49,73 38,114 44,138 16,62 -15,94 73,60 41,-15 112,18 120,61 10,50 87,28 136,71 55,49 52,24 88,107 27,62 60,18 70,90 12,85 178,-17 218,37 20,27 161,-5 142,49 -4,12 -1,54 3,65l32 47 0 0c0,22 -22,36 -18,79 9,92 -67,55 -81,61 -73,30 -51,68 -143,68 -56,0 -37,-10 -104,26 -102,48 -79,-22 -127,-22 -83,1 -44,100 -123,115 -40,8 -17,69 -3,87 62,79 -8,83 -27,121 -50,105 97,84 38,146 -85,89 -80,96 -84,212 -3,102 110,208 25,260 -131,80 -164,-60 -232,-35 -57,21 -20,50 -77,48 -43,-2 -78,-59 -95,-37 -23,32 -32,71 -53,114 -5,2 -10,3 -15,6 -68,31 -116,-3 -158,28 -32,23 -44,141 -106,135 -104,-11 -61,-107 -76,-127 -25,-34 -3,-42 -14,-61 -23,-38 -65,-25 -101,-24 0,0 -58,-11 -62,-12 -27,-7 -75,6 -96,24 -41,36 -9,82 -85,131 -64,42 -43,51 -26,111 17,58 35,23 33,96l-2 -2c-16,18 -45,24 -62,53 -18,30 -44,51 -54,69 -52,91 -166,9 -245,133 -36,57 -44,140 -93,184 -36,32 -160,72 -205,59 -107,-32 -31,-119 -26,-194 12,-169 -104,-52 -135,-127 -22,-53 -103,13 -186,-21 -61,-25 -200,-49 -262,-33 -114,28 -128,6 -231,102l0 0c-6,0 -8,-1 -14,1 -110,39 -13,-238 -66,-176 -274,323 -171,56 -213,9 -35,-38 22,-117 45,-153 39,-63 -75,-39 -127,-67 -41,-22 -32,-134 -23,-175 15,-70 -71,12 -102,-21 -24,-25 -4,-53 -83,-119 -36,-30 -135,5 -184,15 -53,11 -204,-19 -254,-47 -43,-24 -111,-149 -110,-197 1,-31 -3,-38 -5,-61 -3,-45 -80,-21 -98,-11 -83,45 -93,5 -80,107 6,45 -39,103 -77,126 -13,8 -29,81 -31,100 -3,24 -17,78 -51,75 -35,-3 -79,114 -132,34 -44,-66 -62,-36 -100,-127 -52,-127 48,-162 53,-194 9,-47 -7,-45 7,-116 0,-26 9,-132 2,-152 -36,-94 -71,-57 -21,-150 10,-19 65,-98 64,-112 -2,-28 21,-123 35,-145 91,-135 137,-93 257,-128 90,-27 79,-40 152,-72 38,-17 137,66 187,26 65,-52 75,-9 102,-17 65,-21 68,-63 62,-121 -6,-58 6,-60 62,-92l0 0z"/>
  <path class="fil0 str0" d="M15700 6288c3,-73 -16,-38 -33,-96 -18,-60 -39,-69 26,-111 76,-49 44,-95 85,-131 21,-18 69,-31 96,-24 4,1 62,12 62,12 36,-1 78,-14 101,24 11,18 -12,27 14,61 15,20 -29,116 76,127 62,7 75,-111 106,-135 42,-31 90,3 158,-28 5,-2 10,-3 15,-6 21,-43 29,-82 53,-114 16,-22 52,35 95,37 56,3 19,-27 77,-48 68,-25 101,114 232,35 85,-52 -28,-158 -25,-260 4,-116 -1,-123 84,-212 59,-63 -88,-41 -38,-146 18,-38 88,-42 27,-121 -14,-18 -37,-79 3,-87 79,-15 41,-115 123,-115 48,0 25,70 127,22 68,-37 48,-26 104,-26 92,0 70,-38 143,-68 15,-6 90,31 81,-61 -4,-42 18,-57 18,-79l0 0c1,0 166,-34 178,-31 45,10 68,-2 126,22 28,11 59,-34 47,-75 -24,-82 216,-82 216,-167 0,-44 24,-106 0,-130 -53,-53 16,-183 53,-150 71,63 130,-29 181,-60 62,-38 34,72 150,-4 41,-26 92,-28 122,16 5,7 55,76 56,77 25,27 50,55 82,74 13,8 103,47 103,49l0 0c-7,84 9,215 -88,256 -13,5 -66,54 -51,79 75,121 -86,69 -71,187 7,55 20,51 -12,115 -19,38 -48,131 -1,157 22,12 44,123 29,158 -5,11 -12,35 -18,44 1,172 28,132 74,264 37,107 38,90 -11,188 -28,56 109,120 70,175 -22,31 3,28 -56,53 -66,28 -38,88 0,125 52,49 26,107 44,150 5,13 7,66 -30,66 -40,0 -32,2 -68,11l0 0 -73 -42c-19,-2 -47,-17 -49,-40 -4,-42 -3,-17 -16,-46 -26,-58 -115,0 -150,21 -151,92 -57,-119 -173,-100 -74,12 -41,-32 -75,-20 -138,50 -101,123 -124,159 -40,62 -47,-13 -85,-5 -18,4 -51,198 -47,209 20,55 -111,26 -110,64 4,91 -23,57 -43,81 -39,45 0,90 -63,162 -18,20 3,51 16,68 44,54 -19,94 -69,107 -69,19 -59,-12 -62,52 0,9 -3,16 -4,26 -21,130 -95,80 -123,92 -55,23 -63,93 -34,145 30,52 44,36 65,47 48,25 -152,75 -42,108 45,14 57,61 40,71 -19,11 -189,8 -169,54 15,37 14,88 -36,99 -58,13 43,63 49,68 21,20 -67,105 -121,108 -69,4 -22,-23 -132,9l0 0c-17,0 -80,34 -93,46 -16,16 63,100 44,152 -28,75 -101,-4 -130,-31l-2 -4c-12,-27 1,-77 -39,-94 -109,-45 -72,-105 -115,-124 -99,-43 -306,138 -219,-78 29,-71 -53,-53 -39,-148 16,-114 84,-99 45,-238 -15,-55 24,-132 62,-168 28,-27 50,-50 84,-72 19,-12 66,-75 77,-93 12,-21 73,-33 78,-95 7,-86 90,-153 90,-216 0,-16 -34,-94 -45,-106 -40,-44 -57,-87 -105,-25 -55,70 -51,23 -79,33 -34,13 -113,111 -146,38 -65,-145 -187,-38 -217,-88 -45,-74 -172,47 -206,9 -67,-76 -112,22 -112,-159 0,-52 21,-36 -64,-49l0 0 -101 -17 -72 -74 2 2z"/>
  <path class="fil0 str0" d="M17509 4739c1,0 166,-34 178,-31 45,10 68,-2 126,22 28,11 59,-34 47,-75 -24,-82 216,-82 216,-167 0,-44 24,-106 0,-130 -53,-53 16,-183 53,-150 71,63 130,-29 181,-60 62,-38 34,72 150,-4 41,-26 92,-28 122,16 5,7 55,76 56,77 25,27 50,55 82,74 13,8 103,47 103,49l0 0c36,0 135,19 179,19 83,0 42,-123 74,-198 32,-74 28,-92 51,-170 7,-13 17,-47 18,-62 2,-44 3,-28 15,-61 21,-56 156,-92 130,-163 -7,-18 1,-45 1,-57 -1,-22 41,-93 55,-104 40,-33 75,-134 18,-160 -91,-41 3,-58 -75,-110 -96,-64 -121,-16 -114,-167l-86 -53 0 0c-46,29 -92,77 -150,70 -41,-5 -96,-106 -116,-141 -29,-15 -153,-2 -190,1l-213 15c-217,0 -260,-121 -260,-315 -2,-3 -2,-2 -2,-5 -1,-1 -1,-1 -2,-3l-211 -27c-96,-13 -166,-31 -237,-97 -19,-18 -72,-74 -98,-74l-10 6c-32,58 -102,106 -111,171l-28 198c-16,18 -27,14 -48,12l-87 -65c-68,-91 19,-226 -37,-297 -73,-12 -215,40 -228,-64 -8,-68 -54,-182 -136,-114 -50,42 -124,90 -185,34 -53,-49 -139,-123 -24,-151 95,-23 249,123 293,-10 21,-64 33,-67 -27,-105l-12 2c-89,-21 -176,-35 -268,-33 -96,2 -160,76 -242,87 -30,4 -62,-55 -78,-76 -37,-47 -71,-43 -134,-43 -108,0 -109,-66 -131,-147 -29,-105 -83,-101 -181,-101l-3 1 -3 2c-31,50 -107,63 -159,63 -135,0 -81,105 -110,174 -35,81 -123,14 -169,-6 -49,-108 -188,-29 -171,69 27,154 -149,81 -192,-5 -17,-34 3,-149 -33,-149 -108,0 -252,2 -350,49 -49,24 -92,51 -147,44 -41,-25 -86,-76 -123,-95 -54,-86 -282,-56 -369,-54 -148,3 -213,77 -333,143 -31,17 -136,94 -167,39 -4,-1 -8,-3 -12,-5l-60 -81 0 0c-21,19 -54,29 -78,43l-69 41c-15,33 -59,61 -87,83l0 0 75 98c-16,39 -29,75 -55,108 -24,29 -111,150 -40,172 37,12 92,-70 220,-23 73,27 -25,105 22,153 38,38 -66,66 -25,124 34,47 -100,180 47,176 45,-1 104,77 105,124 1,21 5,25 -2,50 -83,122 -82,66 -184,124 -29,16 -95,45 -68,86 62,95 -94,51 -52,172 15,43 84,48 62,103 -40,100 86,102 111,157 14,31 21,38 -12,73 -59,60 -210,-64 -243,71 -11,44 53,35 90,49 12,5 221,63 152,110 -40,27 -84,63 -82,117 0,15 77,38 14,100 -39,39 -63,78 -63,133 -64,114 -8,70 50,98 5,2 24,15 25,19l0 0 104 65c123,68 42,20 135,9 31,-4 11,21 26,61 34,91 15,69 123,49 59,-11 80,-71 78,-123 -1,-28 17,-73 37,-95 41,-43 62,-135 99,-24 6,19 11,87 60,77 68,-14 36,-42 103,-6 20,11 124,-44 151,57 4,15 19,46 30,57 60,60 335,-128 340,-26 2,40 -20,63 35,75 19,4 51,47 40,80 -14,45 -26,160 34,177 133,36 62,111 152,95 64,-11 51,-58 131,-23 25,11 32,6 64,27 44,29 99,7 129,-30 36,-44 124,-91 180,-91 96,-42 83,-20 165,-35 32,-6 80,-36 46,-79 -15,-19 -34,-47 -54,-63 -9,-7 -52,-65 -51,-76 4,-38 56,-56 29,-93 -40,-54 5,-164 66,-86 29,36 65,-64 84,-1 28,98 131,6 161,13 51,13 107,-39 25,-85 -43,-24 -86,-280 4,-126 31,53 128,43 157,-15 15,-31 42,13 104,-15 51,-23 51,-4 65,-67 11,-52 67,-52 52,-141 -4,-22 16,-28 -15,-45 -28,-15 -25,-28 -73,-41 -73,-19 28,-152 99,-12 24,47 127,-7 154,-33 65,-64 106,-8 64,54 -49,73 38,114 44,138 16,62 -15,94 73,60 41,-15 112,18 120,61 10,50 87,28 136,71 55,49 52,24 88,107 27,62 60,18 70,90 12,85 178,-17 218,37 20,27 161,-5 142,49 -4,12 -1,54 3,65l32 47 0 0z"/>
  <path class="fil0 str0" d="M18436 15542l62 -76c177,-25 67,15 183,55 45,15 115,-59 179,-7 31,25 71,45 110,29 85,-35 126,-64 222,-79 52,-9 148,-50 148,34 0,38 19,79 36,113 20,41 49,28 80,104 28,72 25,88 94,128 79,46 48,121 165,161 75,26 152,69 188,142 25,52 136,96 187,120 27,12 25,42 73,72 41,26 139,79 183,30 18,-20 -4,-61 4,-100 7,-35 -24,-32 9,-74l33 -34 0 0c0,-15 -4,-91 -10,-104 -22,-45 -127,-48 -141,-55 -62,-32 7,-70 -159,-126 -39,-13 -10,-76 4,-98 57,-91 -62,-115 -62,-154 0,-58 48,-24 -10,-120 -27,-45 79,-146 101,-153 78,-26 -34,-107 44,-126 72,-18 36,31 117,-49 11,-22 24,-60 32,-82 13,-33 17,-88 26,-101 13,-20 170,-99 197,-105 116,-27 69,-45 75,-137 3,-47 89,-53 111,-58 63,-17 112,51 139,-15 27,-66 -5,-260 0,-275 35,-115 103,-74 149,-93 149,-62 103,141 227,52 26,-18 158,-55 185,-53 34,3 139,-32 161,-17 42,28 125,-54 145,-75l0 0c-8,-45 -10,-88 -13,-133 -2,-29 -12,-94 -33,-115 -37,-37 -45,-29 -89,-37 -29,-5 -120,4 -153,8 -78,10 -107,-33 -153,-26 -42,6 -87,-4 -129,-5 -39,-1 -110,-28 -142,-50 -56,-38 -30,-52 -105,-34l0 0c-49,48 -44,37 -101,52 -37,10 -70,3 -123,21 -77,26 -104,-49 -179,39 -59,70 -124,-24 -144,-22 -28,2 -45,-5 -77,18 -33,23 -143,27 -182,14 -76,-26 -116,6 -204,6 -135,64 -96,6 -223,9 -103,3 -70,-222 -169,-210 -31,4 6,107 -4,154 -8,39 -18,135 -81,93 -39,-27 -81,-290 -172,-142 -46,76 -57,26 -101,54 -43,27 -4,145 -63,198 -72,64 -72,98 -179,44 -80,-41 -187,118 -318,22 -36,-26 -26,-30 -70,-49 -76,-33 -72,-42 -163,-64 -21,-5 -97,-27 -117,-15l0 0c24,8 -34,108 -44,122 -25,36 -78,63 -88,110 -8,36 3,23 -19,58 -22,36 -20,68 -12,109 11,60 30,-27 60,-27 3,14 24,50 41,50 35,0 45,-52 67,-52 0,45 9,35 47,45l1 2c-20,25 13,38 13,58 -25,0 -88,11 -103,2 -43,-27 -139,-18 -192,-14 -48,4 -18,99 -37,128 6,-8 -8,96 32,54 27,-29 23,-3 33,24 13,37 -11,11 -26,5 -13,-5 -15,44 -15,57 2,34 53,-4 61,-6 -11,15 -2,35 -9,50 -8,18 -26,28 -34,44 -10,20 19,10 26,5 31,-20 29,38 63,38 8,0 36,-31 38,-10 5,43 13,34 46,34 7,0 17,47 -11,42 -20,-3 -42,-36 -59,-14 -41,55 -72,37 -132,41 -31,2 -13,62 -13,79 0,124 -10,191 20,318 9,37 -13,93 53,93 80,0 52,-178 99,-226 11,-11 26,56 32,67 10,21 32,131 49,60 8,-31 33,-87 53,-111 4,-5 -6,185 21,200 17,10 85,46 138,58l0 0z"/>
  <path class="fil0 str0" d="M20906 13825c74,-18 49,-4 105,34 32,22 103,49 142,50 42,1 87,11 129,5 46,-6 75,37 153,26 32,-4 124,-13 153,-8 44,7 52,0 89,37 21,21 31,85 33,115 3,45 6,88 13,133l0 0c113,-53 84,-25 185,-33 64,-5 202,24 243,13 18,-5 116,-88 154,-108 42,-23 85,-59 137,-63 41,-3 209,-29 237,-49 75,-51 38,-28 40,-109 0,-16 -15,-50 -15,-98 0,-4 -13,-33 -13,-37l0 0c-20,14 -36,26 -42,25 -46,-5 -64,-54 -104,0 -26,35 -67,62 -113,62 -31,0 -50,-53 -69,-51 -58,5 -51,113 -135,29 -95,-95 -241,-357 -241,-492l2 -2c129,0 347,34 347,-170 0,-116 -239,-238 -168,-333 -14,-80 -44,-122 -78,-194 -4,-8 -10,-19 -15,-32 54,-27 110,-44 180,-43 91,0 175,-43 256,-88l0 0c-1,-6 -50,-57 -54,-61 -64,-55 -74,-65 -157,-89 -69,-20 -86,-5 -146,1 -74,8 -126,2 -182,-51 -27,-26 -86,-103 -113,-114 -42,-17 -107,-33 -133,-78 -25,-43 -5,-163 -65,-176 -110,-26 -26,-67 -124,-75 -56,-5 -72,2 -127,14 -42,10 -76,36 -99,43 -76,24 -45,34 -152,14l0 0 -65 71c0,4 1,8 -1,12 -18,62 14,76 20,112 5,34 34,72 16,84 -36,24 -28,12 -65,20 -65,15 -135,-47 -165,-29 -101,60 -63,187 -90,213 -95,92 -223,-42 -253,37 -6,17 44,124 -31,128 -74,4 -59,12 -135,-49l0 0c-1,29 -15,219 0,240 13,18 55,-11 104,21 39,26 32,8 62,60 4,7 52,35 74,67 7,9 17,19 26,26 58,64 61,72 57,155 -3,63 58,104 117,91 38,-9 119,-5 148,30 47,58 78,64 20,152 -42,64 16,88 -4,165 -19,74 -6,77 -58,145 -42,56 -87,131 -36,194 2,2 2,-1 5,6l0 0z"/>
  <path class="fil0 str0" d="M18303 13299c-16,10 -2,32 6,42 17,20 42,8 66,12 13,2 25,1 37,-1 5,-1 28,-8 28,-16 -10,-3 -18,-18 -27,-24 -24,-9 -92,-25 -110,-14zm204 74c-25,-18 -76,-3 -101,9 -36,17 -92,5 -127,-7 -33,-11 -64,29 -90,46 -30,19 -72,21 -108,22 -26,1 -101,84 -91,103 6,12 25,23 15,38 -21,32 -21,42 5,77 24,31 47,-8 67,-18 17,-9 29,1 46,5 20,4 86,-10 85,-35 -1,-18 -16,-23 -5,-41 7,-12 29,-15 36,-26 44,0 61,-21 102,-32 30,-8 65,8 90,-14 43,-37 220,-22 208,-108 -33,-20 -57,-8 -89,-16l-42 -3zm-270 674c-9,26 -66,28 -77,48 -19,34 -74,36 -107,36 -16,-65 35,-53 62,-101 30,-53 57,-91 94,-138l114 -123c27,-30 42,-76 74,-97 80,-54 207,-90 258,-175 30,-51 28,-119 53,-168 32,-64 174,22 174,-37 -13,-6 -83,-27 -87,-42 -4,-1 -5,-9 -5,-13 -23,0 -97,47 -126,57 -60,20 -155,16 -203,-30 -22,-21 -44,-60 -75,-48 -75,30 -114,28 -190,12 -87,0 -200,6 -283,30 -43,13 -155,98 -196,82 -35,-14 -36,-61 -58,-77 -5,-44 -19,-80 -5,-126l42 -135c25,-82 62,-163 83,-247 15,-60 56,-17 85,-72 15,-29 12,-50 41,-72 22,-48 82,-79 82,-140 0,-46 29,-93 26,-130 -2,-29 -45,-30 -64,-50 -17,-19 52,-58 67,-70 18,-15 113,-22 133,-9 30,19 50,45 84,62 21,11 85,30 107,20 21,-9 103,-80 106,-80 25,0 43,14 68,14 39,0 -26,-65 -26,-87 0,-60 -112,-32 -60,-71 12,-9 63,-39 63,-53 -40,0 -62,39 -94,48 -63,19 -49,-49 -76,-58 0,21 1,47 -13,63 -22,49 -37,45 -69,82 -29,34 -57,-18 -75,20 -7,16 -53,17 -67,9 -17,-10 -19,-75 -19,-95 -9,-2 -30,56 -32,68 -3,17 -17,32 -20,42 -32,8 -121,78 -148,101 -45,38 -131,96 -188,111 -27,7 -166,-189 -77,-189 0,-2 0,-1 2,-2 0,-50 -27,-96 -32,-145 -6,-58 20,-93 37,-145 30,-88 47,-192 47,-285 47,-224 185,-508 463,-395 55,23 133,105 184,105 34,0 68,0 91,28 23,3 47,-21 61,-39 20,-25 -6,-28 -6,-55l0 0 89 -40c36,-19 98,-62 143,-62 52,0 103,-7 152,13 0,0 22,3 22,3l0 0c0,41 -18,155 46,165 52,9 57,5 104,9 40,3 32,72 -60,86 -33,5 -127,61 -74,112 9,8 67,86 71,99 12,34 24,82 43,111 48,71 40,88 135,88 51,0 117,24 135,74 53,150 179,48 226,87 29,23 69,20 42,84 -19,32 -43,86 -57,125 -17,49 -127,57 -113,122 8,39 61,-76 137,-15 67,54 -7,137 123,168 92,22 65,19 141,61 41,23 57,-16 108,58 4,6 55,28 73,53 16,22 92,40 125,30 24,-7 94,-27 81,-60 -15,-37 22,-77 -5,-139 -9,-22 -27,-170 7,-188 50,-26 29,33 88,61 27,13 123,85 145,83l0 0c-1,29 -15,219 0,240 13,18 55,-11 104,21 39,26 32,8 62,60 4,7 52,35 74,67 7,9 17,19 26,26 58,64 61,72 57,155 -3,63 58,104 117,91 38,-9 119,-5 148,30 47,58 78,64 20,152 -42,64 16,88 -4,165 -19,74 -6,77 -58,145 -42,56 -87,131 -36,194 2,2 2,-1 5,6l0 0c-49,48 -44,37 -101,52 -37,10 -70,3 -123,21 -77,26 -104,-49 -179,39 -59,70 -124,-24 -144,-22 -28,2 -45,-5 -77,18 -33,23 -143,27 -182,14 -76,-26 -116,6 -204,6 -135,64 -96,6 -223,9 -103,3 -70,-222 -169,-210 -31,4 6,107 -4,154 -8,39 -18,135 -81,93 -39,-27 -81,-290 -172,-142 -46,76 -57,26 -101,54 -43,27 -4,145 -63,198 -72,64 -72,98 -179,44 -80,-41 -187,118 -318,22 -36,-26 -26,-30 -70,-49 -76,-33 -72,-42 -163,-64 -21,-5 -97,-27 -117,-15l0 0z"/>
  <path class="fil0 str0" d="M18360 11210c4,-17 -6,-42 -17,-54 -12,-12 -35,-8 -50,-5 -37,8 -56,-11 -89,-20 -12,-3 -25,-2 -36,-7 -8,-4 -21,-15 -29,-15 -9,0 -6,14 -3,19 24,33 96,28 130,48 10,6 16,18 22,26 9,14 43,12 59,14l13 -5zm-902 69c7,-11 10,-20 10,-34 -1,0 -1,-1 -2,-2 -4,0 -9,-3 -15,-3 -10,0 -18,5 -27,7 -16,4 -33,9 -48,15 -23,8 -31,20 -44,39 -6,9 -8,11 -8,23 0,8 -3,16 -1,24 16,0 37,-18 52,-25 18,-9 42,-15 61,-26l22 -19zm1005 6c0,-10 5,-38 -5,-43 -6,-22 -79,-67 -99,-85 -45,-40 -79,-41 -136,-46 -30,-3 -51,-28 -85,-34 -35,-6 -123,11 -147,-13l-3 -39c0,-1 -1,-2 -1,-3l-1 -1c-2,0 -5,-1 -5,-3 -67,0 -129,33 -201,24 -33,27 -52,77 -92,85 -23,5 -77,44 -85,12 -23,0 -41,-3 -60,15 -7,6 -56,59 -64,51 -22,-22 47,-109 47,-132 -12,3 -76,99 -85,113 -30,47 -48,64 -109,67 -36,1 -45,-23 -28,28 4,13 -14,18 -20,27 -33,49 -34,94 -47,150 -137,0 -80,-26 -80,-128 -11,3 -38,49 -45,61 -3,6 -17,79 -21,69 -9,-24 -5,-105 16,-122 46,-39 23,-27 -5,-27 0,-51 53,-92 45,-160 -7,-53 -35,-127 -33,-176 1,-28 25,-40 30,-63 18,0 53,68 73,81 39,26 52,7 95,-5 15,-4 83,-19 79,-28 -8,-21 -38,-49 -60,-61 -21,-9 -138,-46 -135,-58 3,-10 65,-118 36,-103l0 0c-4,-23 -90,-84 -110,-88 -76,-14 -55,-137 -26,-176 59,-79 -2,-92 9,-130 35,-117 149,3 235,-161 24,-46 21,-53 36,-89 10,-24 1,-83 -8,-106 -42,-115 90,-46 119,-100 30,-55 49,-61 95,-114l3 -9c93,16 75,5 85,85 5,43 69,16 79,104 11,91 42,34 65,131 3,15 48,85 77,73 4,-2 52,-1 82,-13 14,-6 54,28 96,32 59,6 141,-24 67,-82 -17,-14 -29,-51 3,-64 77,-32 15,-102 69,-146 2,-1 117,5 82,-57 -15,-25 -33,-27 -19,-71 10,-31 61,-57 76,-51 45,19 118,-130 164,-48 25,45 135,3 163,32 12,13 37,62 39,80 4,47 80,-8 95,-24 58,-63 51,98 133,77 24,-6 62,-9 83,-17 104,-29 78,-39 141,-92 44,-37 143,-150 166,-202 52,-120 67,-191 207,-158 103,24 125,-37 238,10 54,22 -40,91 162,96 70,2 60,69 81,124 29,77 31,47 69,101l0 0 -89 96c-21,12 -80,58 -95,63 -35,11 -63,45 -66,81 -9,126 22,92 -90,193 -38,34 -108,56 -117,119 -7,44 10,100 7,148 -2,21 -16,34 -19,44 -17,55 -52,49 -62,79 -22,68 21,89 -3,165 -12,39 -58,65 -48,79 19,27 9,102 6,135 -10,122 -91,106 -154,149 -77,53 -120,93 -216,52 -35,-15 -22,-174 -77,-132 -85,65 -28,121 -194,241l0 0c0,0 -22,-3 -22,-3 -49,-20 -100,-13 -152,-13 -45,0 -107,43 -143,62l-89 40 0 0z"/>
  <path class="fil0 str0" d="M20934 16772l17 -85c23,-29 19,-20 37,-39 17,-17 46,-74 28,-96 -19,-23 -24,-52 -30,-79l5 -71 0 0c47,-76 51,-81 42,-154 -1,-5 18,-115 21,-125 12,-41 42,-107 73,-138 86,-86 28,-155 104,-256 20,-27 96,-82 108,-9 8,49 17,101 68,56 89,-79 59,72 209,-66 20,-18 113,-11 139,-11 105,-23 96,-6 181,-2 64,3 120,58 145,113 11,25 41,63 67,71 63,20 115,42 176,69 5,2 67,21 73,23l0 0c16,61 109,156 120,195 31,116 48,280 37,404 -11,86 -22,114 -44,181 -57,0 -108,-36 -159,5 -35,28 -53,134 -84,130l-148 -22c-45,-7 63,127 80,143 35,32 87,159 20,175l0 4c-86,0 -158,37 -215,95 -50,50 -149,125 -219,80 -79,-50 -98,-26 -175,27 -72,49 -93,-38 -128,-95 -62,-101 -105,-177 -219,-221 -65,-25 -90,-58 -122,-106 -141,106 -131,-75 -164,-175 -9,-26 -22,-32 -37,-25l-7 4z"/>
  <path class="fil0 str0" d="M21723 14216c113,-53 84,-25 185,-33 64,-5 202,24 243,13 18,-5 116,-88 154,-108 42,-23 85,-59 137,-63 41,-3 209,-29 237,-49 75,-51 38,-28 40,-109 0,-16 -15,-50 -15,-98 0,-4 -13,-33 -13,-37l0 0c31,-22 71,-52 97,-57l223 -48c56,-12 179,23 219,-9 26,-21 16,-62 49,-62 39,58 115,112 179,143 64,30 103,-72 139,-99 3,3 5,2 9,2 10,19 86,44 93,64 52,0 77,-119 128,-119 13,54 86,110 86,168 0,45 -21,177 -71,186 -47,9 -122,-5 -161,27 -77,66 -66,-98 -146,11 -28,38 -185,62 -237,62 -40,0 -58,-42 -99,-42 -26,0 -97,120 -120,82 -9,-15 -59,-117 -84,-108 -14,5 -67,182 -73,205l-60 16c-103,21 -199,27 -299,27 -67,0 -9,109 -2,139 33,130 -42,282 -151,358 -67,46 -206,25 -234,101 -48,130 44,267 -168,267 -5,-18 -28,-18 -42,-15 -27,110 5,166 -150,144 -67,-9 -201,-83 -243,-27 -43,57 -112,39 -139,-20 -50,-111 -48,-68 -139,-46 0,114 87,199 190,199 46,0 37,26 68,53 52,47 296,-132 381,-24 18,93 50,176 151,82 76,-70 16,139 22,170 11,59 121,54 130,75 8,21 -2,50 7,73 28,67 125,124 203,124l2 2c0,37 -18,55 -22,84 -29,7 -35,26 -28,50l0 0c-6,-3 -68,-21 -73,-23 -60,-27 -113,-49 -176,-69 -26,-9 -55,-46 -67,-71 -25,-55 -80,-110 -145,-113 -85,-4 -76,-21 -181,2 -26,0 -119,-7 -139,11 -151,139 -120,-12 -209,66 -51,45 -60,-7 -68,-56 -12,-74 -88,-18 -108,9 -76,101 -18,170 -104,256 -31,31 -61,97 -73,138 -3,11 -22,120 -21,125 9,73 6,78 -42,154l0 0c-8,-2 -19,-4 -27,-2 -32,9 -49,5 -81,8 -54,5 -135,9 -174,-35 -64,-71 -125,-19 -185,-82 -45,-47 -86,-85 -132,-132l0 0c0,-15 -4,-91 -10,-104 -22,-45 -127,-48 -141,-55 -62,-32 7,-70 -159,-126 -39,-13 -10,-76 4,-98 57,-91 -62,-115 -62,-154 0,-58 48,-24 -10,-120 -27,-45 79,-146 101,-153 78,-26 -34,-107 44,-126 72,-18 36,31 117,-49 11,-22 24,-60 32,-82 13,-33 17,-88 26,-101 13,-20 170,-99 197,-105 116,-27 69,-45 75,-137 3,-47 89,-53 111,-58 63,-17 112,51 139,-15 27,-66 -5,-260 0,-275 35,-115 103,-74 149,-93 149,-62 103,141 227,52 26,-18 158,-55 185,-53 34,3 139,-32 161,-17 42,28 125,-54 145,-75l0 0z"/>
  <path class="fil0 str0" d="M19058 16702l74 61c65,-52 27,-27 58,-62 15,-17 52,-12 64,21 5,13 61,22 88,35 48,24 116,53 87,117 -51,109 61,51 69,119 9,75 -21,107 60,174 36,30 83,-2 137,15 30,9 28,-12 98,21 79,37 178,-57 313,43 31,23 26,36 81,27 84,-12 161,-43 243,-60 141,-81 75,-12 154,-48 18,-8 70,-45 98,-45l0 0c23,71 89,155 136,156 27,0 141,-27 141,-7l47 95c0,49 40,107 15,154 -29,52 -72,90 -97,144 -41,88 -95,218 -168,287 -41,38 -136,82 -119,135 28,0 56,-24 82,-27 2,-8 12,-9 18,-7 1,2 8,9 9,9 0,84 20,194 24,287l13 309c1,28 37,152 26,154 -19,2 -55,-16 -73,-24 -35,-14 -73,-27 -111,-27 -25,-12 -59,-37 -87,-38 -29,-1 -39,20 -63,30 -53,23 -85,-29 -139,-24 -37,24 -71,88 -95,127 -27,44 -62,73 -99,108 -21,20 -38,54 -61,69 -10,17 -45,40 -63,48l0 0 -47 -51c-22,-61 -8,-67 20,-122 17,-32 60,-70 34,-112 -36,-17 -80,-15 -117,-32 -16,-7 -66,-42 -79,-36 -72,36 11,187 -114,183 -30,-1 -122,4 -143,-17 -38,-7 -72,-105 -78,-138 -12,-61 -58,-87 34,-97 51,-5 107,-4 151,-35 52,-35 58,-106 99,-137 9,-25 31,-44 39,-69 0,-31 11,-61 -16,-82 -37,0 -155,84 -134,-10 8,-35 26,-122 -7,-149 -49,0 -84,104 -141,119 -51,13 -90,111 -120,105 -22,-4 -32,-30 -53,-24 -20,6 -69,78 -88,97 -60,63 -117,66 -192,34 -46,-20 -8,55 5,69 43,43 179,88 102,156l0 0c-33,-11 -85,-19 -120,-22 -40,-40 -122,-37 -167,-12 -64,36 -86,130 -158,142 -73,12 -35,41 -42,91 -21,21 -50,10 -76,13 -24,24 4,80 -13,112 -48,27 -88,-64 -129,-61l-80 -9 0 0c14,-38 4,-94 5,-135 2,-33 44,-81 37,-108 -4,-1 -5,-5 -10,-5 -13,-39 -15,-81 -28,-123 -14,-44 69,-68 55,-123 7,-6 6,-58 16,-74 12,-20 35,-25 49,-43 20,-25 -20,-109 16,-130 1,-10 20,-35 26,-47 44,-24 81,26 110,-42 13,-30 16,-99 37,-120 2,-21 3,-43 4,-65l0 0c42,0 104,10 128,45 13,19 59,129 84,116 28,-14 24,-48 16,-72 -7,-25 -19,-69 -31,-90 -8,-13 -34,-20 -47,-28 -23,-15 -11,-32 -8,-54 16,-16 21,-25 42,-34 26,-11 43,-17 61,-39 0,-6 -2,-12 -2,-18 -11,-14 -22,-29 -43,-29 -4,-3 -5,-2 -12,-4l-74 -13 0 0c17,-24 15,-59 38,-76 3,-13 33,-11 40,-23 7,-11 3,-42 3,-56 0,-48 -5,-109 8,-154 21,-27 9,-113 0,-143 -10,-34 -41,-59 -30,-95 10,-34 -44,-115 -47,-156 -4,-79 -33,-117 -57,-189 -4,-12 -27,-93 -13,-97 4,16 24,61 38,69 32,19 37,-6 65,-6 0,20 7,127 -18,119 0,-22 -13,-62 -17,-86l-2 0c-7,20 -27,40 -9,71 8,14 26,71 39,72 16,1 20,19 11,34 -19,32 11,37 10,67 -2,43 19,32 29,62 19,0 8,-26 15,-28 0,-11 27,4 32,-3 5,-7 3,-40 1,-48 0,-40 -17,-45 -3,-89 6,-8 5,-20 9,-29 5,-12 11,-21 11,-35 0,-27 -33,-26 -32,-51 1,-13 23,-28 16,-37 -10,0 -42,-6 -36,-21 9,-21 32,-24 32,-50 0,-10 1,-22 11,-27 20,-10 36,-16 53,-29 14,-1 25,-7 36,-12l0 0z"/>
  <path class="fil0 str0" d="M20934 16772l17 -85c23,-29 19,-20 37,-39 17,-17 46,-74 28,-96 -19,-23 -24,-52 -30,-79l5 -71 0 0c-8,-2 -19,-4 -27,-2 -32,9 -49,5 -81,8 -54,5 -135,9 -174,-35 -64,-71 -125,-19 -185,-82 -45,-47 -86,-85 -132,-132l0 0 -33 34c-33,41 -2,39 -9,74 -8,39 14,81 -4,100 -44,50 -142,-3 -183,-30 -47,-30 -46,-60 -73,-72 -51,-23 -162,-68 -187,-120 -35,-73 -113,-116 -188,-142 -117,-40 -86,-115 -165,-161 -69,-40 -66,-56 -94,-128 -30,-77 -60,-63 -80,-104 -16,-35 -36,-76 -36,-113 0,-84 -95,-43 -148,-34 -96,16 -137,44 -222,79 -39,16 -79,-4 -110,-29 -64,-52 -134,22 -179,7 -116,-39 -6,-79 -183,-55l-62 76 0 0c33,7 61,5 69,-19 22,22 -48,72 -62,79 -35,17 -68,-8 -101,-15 -79,-15 119,430 126,447 49,127 14,-48 115,-31 9,37 -24,34 -16,73 17,86 27,151 65,233l51 111c7,14 24,66 18,68 -4,21 -12,20 19,20 0,2 0,1 2,2 0,29 -13,63 -13,86 22,7 75,56 81,80l2 0c24,-71 70,-53 126,-82 21,-11 83,-13 108,-15 10,-1 80,66 94,78 29,23 16,31 -14,31 -20,0 -34,7 -47,14l0 0 74 61c65,-52 27,-27 58,-62 15,-17 52,-12 64,21 5,13 61,22 88,35 48,24 116,53 87,117 -51,109 61,51 69,119 9,75 -21,107 60,174 36,30 83,-2 137,15 30,9 28,-12 98,21 79,37 178,-57 313,43 31,23 26,36 81,27 84,-12 161,-43 243,-60 141,-81 75,-12 154,-48 18,-8 70,-45 98,-45l0 0c-12,-38 -12,-72 10,-87 30,-22 65,-23 95,-42 23,-14 101,-200 153,-224l-7 4z"/>
  <path class="fil0 str0" d="M10405 8289c-6,6 -11,12 -19,16 -9,5 -20,11 -27,18 -3,3 -7,6 -10,9 -3,3 -2,7 -2,11 2,1 0,1 4,2 1,3 3,4 4,7 2,6 1,12 7,15 10,5 23,-7 28,-16 5,-9 9,-22 16,-32l0 -31zm439 1504c88,50 66,52 153,60 33,3 108,28 87,77 -18,44 -59,95 -54,130 4,23 97,58 106,95 11,42 -5,47 24,106 31,64 44,72 89,123 88,100 169,301 305,108 23,-33 101,-8 66,-135 -17,-60 147,-232 172,-202 0,0 27,73 37,91 73,132 11,82 148,123 45,13 31,-6 70,40 18,22 93,30 130,55 4,3 26,13 31,13l121 22 0 0c30,-39 84,-50 131,-62 107,-28 63,-21 144,47 140,117 64,-100 151,-58 48,24 52,-94 50,-98 -14,-37 23,-73 56,-83 47,-14 38,-56 22,-91 -23,-52 -35,-46 -63,-75 -26,-27 -41,-117 -87,-71 -13,13 -47,142 -94,93 -40,-42 -37,-27 -41,-111 3,-23 5,-22 13,-41 24,-58 97,-64 77,-134 -30,-106 102,-105 128,-179 44,-128 122,-126 66,-258 -25,-59 -116,-137 -116,-192 0,-112 35,-104 -51,-192 -72,-73 128,-69 133,-91 11,-2 22,-28 17,-40 -19,-47 18,-61 51,-31 63,57 74,43 132,79 22,14 104,22 128,12 47,-19 56,-88 48,-135 -11,-64 40,-113 82,-152l4 -6c25,-48 75,-129 55,-183 -12,-32 19,-97 36,-117 49,-57 -38,-107 -21,-146 21,-49 -38,-106 44,-187 84,-84 121,-43 121,-168 0,-14 -24,-67 -35,-74 -88,-59 -94,-3 -107,-143l0 0c0,0 -83,63 -85,65 -30,29 -123,63 -149,34 -18,-21 -72,11 -80,-24 -12,-58 -81,-114 -136,-103 -84,17 -57,-3 -102,-19 -43,-15 -55,-7 -93,-6 -93,4 -227,120 -320,67 -42,-24 -29,-28 -99,-60 -42,8 -57,11 -100,11 -80,0 -50,-2 -122,21 -158,50 -145,87 -333,87 -92,0 -79,-5 -161,-21 -87,-18 -206,-100 -280,-73 -56,20 -102,42 -156,65 -47,21 -190,36 -238,22 -43,-13 -100,-10 -142,4 -93,32 -112,44 -170,126l-81 137 0 0c11,43 -48,220 -75,255 -29,38 -53,88 -55,136 -4,78 -78,58 -94,90l-3 1c-10,53 -23,90 -50,119l0 0 203 20c100,23 121,37 209,1 20,-8 65,-8 86,10 80,71 109,6 207,121 27,31 34,44 66,75 33,32 70,71 84,117 17,55 -46,84 -19,154 10,26 -3,65 -30,81 -48,28 -73,59 -54,114 20,58 69,135 7,174 -24,15 -47,53 -33,82 26,55 -14,105 -48,146 -57,0 -59,-1 -91,33 -10,10 -30,99 -24,117l0 0z"/>
  <path class="fil0 str0" d="M15698 6286l72 74 101 17 0 0c-33,92 -74,82 -110,146 -25,44 -79,100 -48,151 18,30 -19,135 -58,134 -44,-1 -27,22 -69,40 -20,9 -94,3 -114,-1 -94,-19 -36,127 -37,179 -1,82 2,57 -33,130 -35,73 25,49 -12,147 -81,215 123,178 136,89 11,-76 83,-99 113,-26 32,77 139,-65 154,-7 27,106 -81,143 -146,196 -117,95 -116,42 -130,207 -2,14 -8,43 -6,56 7,50 -11,173 8,204 11,18 152,20 150,105 -3,110 125,-108 205,-28 77,77 -16,179 -4,219 37,123 -73,182 -40,239 52,91 30,70 4,145 -16,44 -15,134 6,177 9,19 28,83 30,84 73,61 80,-56 112,-44 70,26 14,164 31,202 23,49 15,45 26,117 24,83 42,78 106,112 80,41 113,41 58,132 -51,84 -137,48 -204,22 -52,-20 -14,127 -6,147 15,38 126,29 91,106 -42,92 86,69 118,77 70,17 244,76 244,166 0,36 -5,46 -7,74 -4,62 -31,65 -77,93 -35,21 5,156 -20,173 -58,38 -129,82 -193,36 -6,-4 -68,21 -77,24 -53,22 -65,-129 -89,-168 -100,-162 -188,-27 -271,-110 -15,-15 -41,-85 -70,-70 -51,28 8,70 -71,149 -13,13 -16,25 -11,42 25,80 65,46 119,27 34,-12 20,79 -5,102 -54,53 -39,20 -60,92 -21,75 96,136 19,180 -98,57 -98,-83 -122,-97 -88,-51 -131,69 -158,126l0 0 -36 10c-17,1 -102,17 -94,-24 9,-48 -29,-94 -76,-66 -103,60 -59,114 -162,108 -80,-5 -65,-51 -111,-68 -48,-18 -72,-55 -119,-23 -74,51 -78,-13 -127,0 -100,26 -78,36 -97,119 -8,36 -53,59 -78,49 -70,-29 -54,57 -81,56 -55,-2 -38,-90 -121,-52 -65,29 -134,105 -194,134 -107,52 -118,0 -165,149l0 0c-56,61 -37,41 -37,99 0,30 -87,74 -103,75 -56,4 -52,-81 -45,-116 7,-35 -16,-69 -47,-87 -78,-44 -39,-14 -69,20 -62,70 -44,68 -104,4 -42,-19 -12,-72 -114,-18 -36,19 -15,118 -98,35 -96,-95 -100,35 -144,36 -62,2 -35,100 1,131 14,12 167,54 198,57 31,2 33,54 33,81 0,157 -130,67 -199,69 -52,2 -65,-38 -103,-24 -19,7 -135,105 -144,119 -22,32 -119,79 -112,20 11,-93 95,-115 69,-194 -28,-85 -82,-94 -114,-163 -21,-44 -56,-87 -98,-113 -51,-31 -93,-69 -99,-132 -4,-40 -40,-113 -76,-124 -93,-29 -35,-85 -78,-115 -30,-21 -13,-61 5,-78 5,-5 59,-71 37,-75 1,-15 -34,-14 -40,-16 -53,-22 -28,27 -79,-57l0 0c30,-39 84,-50 131,-62 107,-28 63,-21 144,47 140,117 64,-100 151,-58 48,24 52,-94 50,-98 -14,-37 23,-73 56,-83 47,-14 38,-56 22,-91 -23,-52 -35,-46 -63,-75 -26,-27 -41,-117 -87,-71 -13,13 -47,142 -94,93 -40,-42 -37,-27 -41,-111 3,-23 5,-22 13,-41 24,-58 97,-64 77,-134 -30,-106 102,-105 128,-179 44,-128 122,-126 66,-258 -25,-59 -116,-137 -116,-192 0,-112 35,-104 -51,-192 -72,-73 128,-69 133,-91 11,-2 22,-28 17,-40 -19,-47 18,-61 51,-31 63,57 74,43 132,79 22,14 104,22 128,12 47,-19 56,-88 48,-135 -11,-64 40,-113 82,-152l4 -6c25,-48 75,-129 55,-183 -12,-32 19,-97 36,-117 49,-57 -38,-107 -21,-146 21,-49 -38,-106 44,-187 84,-84 121,-43 121,-168 0,-14 -24,-67 -35,-74 -88,-59 -94,-3 -107,-143l0 0 91 28c46,0 119,56 137,55 19,-1 89,27 103,35 27,16 142,40 169,33 31,-9 85,-10 112,-10 21,0 34,2 55,-5 61,-19 142,-9 170,-24 57,-31 147,98 234,58 112,-51 134,5 176,4 60,-2 50,-24 100,25 53,53 39,143 101,81 5,-5 50,-39 56,-42 80,-38 40,9 87,-69 44,-73 -28,-151 -105,-127 -77,24 -26,-103 -65,-87 -38,15 -13,11 -73,16 -29,0 -60,-73 -68,-97 -39,-118 116,-79 28,-163 -36,-34 16,-123 -105,-123 -57,0 -29,-63 -14,-82 60,-76 -70,-111 -123,-161 -57,-54 -196,-43 -94,-144 12,-12 72,-86 29,-84 -92,4 -49,-31 -77,-66 -47,-58 -79,-82 -128,-152l0 0c103,-96 117,-74 231,-102 62,-16 201,8 262,33 83,34 164,-31 186,21 31,75 147,-42 135,127 -5,75 -80,163 26,194 45,13 170,-27 205,-59 49,-43 57,-127 93,-184 79,-125 193,-42 245,-133 10,-18 36,-39 54,-69 17,-29 46,-35 62,-53l0 0z"/>
  <path class="fil0 str0" d="M14419 13221c-75,134 -5,117 36,153 144,127 -20,105 -33,97 -114,-68 -120,82 -125,151 -3,47 -25,95 -78,93 -66,-2 -128,52 -122,119 5,63 -95,97 -51,196 17,38 88,50 131,82 7,5 14,10 21,15 72,45 53,21 79,35 40,20 -63,115 73,134 112,15 70,131 26,142 -77,19 -91,-8 -135,1 -29,6 -4,153 -4,187 0,82 -33,83 -3,181 20,66 -41,153 -61,215 -14,44 -33,117 15,151 8,6 59,1 115,39 60,41 88,47 146,103 17,16 52,38 66,59 4,116 2,65 -24,156 -13,47 87,70 123,120 16,22 33,25 45,63 2,5 46,70 50,74l0 0c35,-84 252,-84 332,-117 24,-53 39,-21 83,-21 9,-35 -44,-61 1,-103 34,-32 75,-28 116,-38 41,-11 60,-43 97,-56 27,-9 39,12 63,-14 38,-41 63,-81 125,-83 113,-4 162,13 256,-69 87,-76 209,-122 293,-200 34,-4 106,-33 130,-58 7,-33 -28,-78 -29,-116 -2,-42 3,-85 28,-120 49,-66 38,-95 50,-171 9,-60 101,-156 141,-199 17,-27 29,-99 51,-116 7,-22 48,-53 65,-70 40,-40 65,-78 95,-126l37 -59c12,-20 17,-51 31,-69 5,-58 44,-116 50,-175 15,-86 25,-188 103,-244 35,-76 44,-170 10,-249 -14,-34 -51,-68 -73,-99l-95 -136c-24,-65 -37,-119 -48,-187 -4,-27 -48,-114 -76,-121l0 -3c-7,-2 30,-34 30,-36l4 0c2,9 27,20 29,32 11,3 24,42 34,44 11,25 51,-50 57,-63 31,-67 8,-144 17,-216 4,-28 3,-72 -2,-99 -7,-37 -40,-63 -42,-99 4,-18 5,-37 5,-56l0 0c-6,-8 -129,-54 -144,-60 -47,-20 -70,-78 -88,-92 -31,-24 -51,-49 -75,-80 -42,-54 -63,-137 -141,-150 -144,-23 -147,-11 -181,-173l0 0c-12,-1 -25,-3 -37,-5 -29,-5 -107,-49 -122,-43 -50,23 -71,-8 -115,5 -138,44 -118,-51 -224,-35 -16,2 -143,152 -154,172 -29,49 -180,34 -90,88 61,37 46,59 66,77 23,20 -33,70 -112,42 -23,-8 -99,-10 -116,-3 -46,19 -102,14 -150,17 -11,0 -7,0 -17,2 -155,32 -103,175 -170,216 -43,26 -92,86 -65,137 22,41 -28,139 -59,170 -9,9 -30,35 -37,46 -30,49 -73,59 -84,93 -23,73 -81,41 -93,84 -15,54 29,133 79,156 39,18 -15,101 -27,108 -37,23 91,106 33,138 -33,19 -101,25 -137,35l0 0z"/>
  <path class="fil0 str0" d="M13892 11067c46,-150 58,-97 165,-149 61,-29 130,-104 194,-134 83,-38 66,50 121,52 27,1 11,-85 81,-56 25,10 70,-13 78,-49 19,-83 -3,-93 97,-119 49,-13 53,51 127,0 47,-32 71,5 119,23 46,17 31,63 111,68 103,6 58,-48 162,-108 47,-27 85,18 76,66 -8,41 77,25 94,24l36 -10 0 0 137 95c4,25 1,47 -23,62 -41,26 -181,8 -149,92 32,83 -14,70 -37,115 -47,86 106,61 143,81 51,27 158,-10 198,17 66,44 50,22 112,24 78,2 110,-27 163,29 29,30 133,29 177,33 62,6 80,83 130,81 64,-2 143,103 92,128 -65,33 -83,105 0,103 69,-2 140,27 77,97 -51,56 -53,52 -117,71 -87,25 -114,21 -208,18l0 0c-12,-1 -25,-3 -37,-5 -29,-5 -107,-49 -122,-43 -50,23 -71,-8 -115,5 -138,44 -118,-51 -224,-35 -16,2 -143,152 -154,172 -29,49 -180,34 -90,88 61,37 46,59 66,77 23,20 -33,70 -112,42 -23,-8 -99,-10 -116,-3 -46,19 -102,14 -150,17 -11,0 -7,0 -17,2 -155,32 -103,175 -170,216 -43,26 -92,86 -65,137 22,41 -28,139 -59,170 -9,9 -30,35 -37,46 -30,49 -73,59 -84,93 -23,73 -81,41 -93,84 -15,54 29,133 79,156 39,18 -15,101 -27,108 -37,23 91,106 33,138 -33,19 -101,25 -137,35l0 0c-5,-12 -13,-36 -18,-49 -8,-19 16,-64 2,-83 -54,-76 -152,-61 -158,-139 -4,-54 -86,-41 -103,-66 -12,-18 -79,-75 -84,-79 -13,-5 -26,-6 -44,-13 -99,-39 -74,-92 -101,-141 -31,-57 4,-138 -74,-173 -77,-34 -7,-92 67,-90 108,3 -25,-144 -47,-151 -98,-28 -135,37 -151,-118l-13 7c60,-35 146,-24 174,-36 114,-47 63,-71 78,-107 48,-117 118,-42 118,-229 0,-93 66,-138 9,-208 -38,-46 -62,-45 -62,-121 0,-68 -17,-68 -55,-108 -116,-121 -4,-130 -2,-181 0,-8 -60,-64 -64,-68l0 0z"/>
  <path class="fil0 str0" d="M15871 6378c85,13 64,-4 64,49 0,181 46,83 112,159 34,38 161,-83 206,-9 30,50 152,-57 217,88 33,73 112,-25 146,-38 28,-10 24,37 79,-33 49,-62 66,-19 105,25 11,12 45,90 45,106 0,63 -83,130 -90,216 -5,61 -66,74 -78,95 -10,18 -58,81 -77,93 -35,22 -56,45 -84,72 -38,36 -77,113 -62,168 39,139 -29,124 -45,238 -14,95 68,76 39,148 -87,216 120,36 219,78 43,19 6,79 115,124 40,17 27,67 39,94l2 4c29,27 102,105 130,31 19,-53 -60,-137 -44,-152 13,-12 75,-46 93,-46l0 0c54,112 47,61 125,82 85,22 35,84 122,49 50,-20 80,117 188,80 72,-25 31,-86 44,-98 79,-79 62,-35 64,-148 1,-28 40,-134 79,-95 14,14 72,38 91,40 105,9 141,-33 218,82 34,50 81,39 135,33 61,-6 81,-47 178,-35 133,16 285,80 347,207 29,59 50,97 105,141l62 75 0 0c-3,47 7,136 -51,154 -75,23 -25,103 -104,148 -41,23 -37,16 -86,6 -61,-12 -30,35 -73,37 -45,2 -81,-35 -141,18 -4,3 -33,18 -56,39 -49,47 -296,-10 -302,149 -2,48 3,52 5,92 2,53 -89,28 -109,34 -33,10 -61,-13 -71,38 -9,42 -148,54 -102,141 50,96 -51,89 3,150 8,9 22,40 21,52 -39,149 12,84 48,172 23,55 -46,59 -50,117 -6,71 -110,18 -106,113 0,2 -3,16 -4,17l0 0c-46,53 -66,59 -95,114 -29,54 -161,-15 -119,100 9,23 18,82 8,106 -15,35 -12,43 -36,89 -86,164 -201,44 -235,161 -11,37 49,51 -9,130 -29,40 -50,162 26,176 20,4 106,64 110,88l0 0c-94,47 -176,123 -194,233 -4,26 3,60 -8,82 -14,28 -51,4 -47,17 15,46 65,142 -9,182 -25,14 -58,103 -81,71 -15,-21 -25,-117 -25,-145 -105,105 129,292 45,404 -3,13 -56,106 -68,107 -43,4 -50,37 1,37 0,32 -44,75 -63,101 -33,45 -62,103 -88,153 -47,92 -14,197 -15,294l0 0c-6,-8 -129,-54 -144,-60 -47,-20 -70,-78 -88,-92 -31,-24 -51,-49 -75,-80 -42,-54 -63,-137 -141,-150 -144,-23 -147,-11 -181,-173l0 0c94,3 122,8 208,-18 64,-19 67,-15 117,-71 64,-71 -7,-99 -77,-97 -84,2 -66,-70 0,-103 51,-26 -28,-130 -92,-128 -51,2 -68,-75 -130,-81 -44,-4 -148,-3 -177,-33 -53,-55 -86,-27 -163,-29 -63,-2 -46,20 -112,-24 -41,-27 -147,11 -198,-17 -37,-20 -189,5 -143,-81 24,-44 70,-31 37,-115 -33,-84 108,-67 149,-92 24,-15 27,-37 23,-62l-137 -95 0 0c28,-56 70,-177 158,-126 24,14 24,153 122,97 77,-45 -40,-106 -19,-180 20,-72 5,-39 60,-92 24,-24 39,-114 5,-102 -54,18 -94,53 -119,-27 -5,-17 -2,-29 11,-42 80,-80 20,-122 71,-149 29,-16 55,55 70,70 83,83 171,-52 271,110 24,39 36,190 89,168 9,-4 71,-28 77,-24 64,46 134,2 193,-36 25,-17 -15,-152 20,-173 46,-28 73,-31 77,-93 2,-29 7,-38 7,-74 0,-90 -173,-149 -244,-166 -32,-8 -160,16 -118,-77 35,-77 -75,-68 -91,-106 -8,-20 -45,-166 6,-147 67,26 153,62 204,-22 55,-91 22,-91 -58,-132 -64,-33 -82,-29 -106,-112 -11,-72 -3,-68 -26,-117 -18,-38 38,-177 -31,-202 -32,-12 -39,105 -112,44 -2,-2 -21,-65 -30,-84 -21,-43 -22,-133 -6,-177 27,-76 48,-55 -4,-145 -33,-57 77,-117 40,-239 -12,-40 81,-142 4,-219 -80,-80 -208,138 -205,28 2,-85 -139,-87 -150,-105 -19,-31 -1,-154 -8,-204 -2,-13 4,-42 6,-56 13,-165 13,-113 130,-207 65,-53 173,-90 146,-196 -15,-58 -122,84 -154,7 -30,-73 -101,-50 -113,26 -13,89 -217,126 -136,-89 37,-98 -23,-75 12,-147 35,-73 32,-48 33,-130 1,-52 -57,-198 37,-179 21,4 94,10 114,1 41,-18 25,-42 69,-40 39,1 76,-104 58,-134 -31,-51 23,-106 48,-151 36,-63 77,-54 110,-146l0 0z"/>
  <path class="fil0 str0" d="M11851 15181c3,-1 152,-62 166,-57 0,0 21,24 28,29 50,37 179,22 240,17 84,-6 28,24 104,69 9,5 218,151 218,152 21,23 29,23 51,55 14,20 136,75 154,130 29,93 12,50 4,130 -1,9 -6,57 -9,61 -17,55 -64,201 44,190 101,-10 122,-107 214,18 19,26 34,74 -7,93 -22,10 -68,42 -68,68 -22,11 44,27 27,73 -27,73 0,65 45,121 45,56 52,146 80,194l0 0 -125 66c-92,6 -103,23 -171,78 -46,37 -133,20 -192,44 -66,38 -60,90 -165,76l-212 -28 -1 2c-5,1 -4,7 -8,9 -3,20 -24,18 -21,45 11,8 57,42 57,55 -24,20 -60,22 -96,18l0 0c-32,-32 -66,-81 -104,-107 -50,-35 -101,-1 -147,21 -8,4 -22,16 -30,17 -1,1 -16,10 -17,11l-42 50 0 0c-19,4 -32,-4 -51,6 -74,41 -25,108 -124,37 -57,-41 -178,-111 -245,-91 -24,7 -47,-12 -43,-11 -85,-53 -152,-71 -212,-151 -38,0 -98,28 -123,-22 -144,-21 -303,-75 -428,-158l-405 -269c-33,-22 -66,-29 -94,-53 -160,-99 -314,-214 -459,-337l0 0 132 -79c95,-8 50,4 104,4 55,0 119,-87 148,-58 28,28 78,66 114,29 23,-23 80,-111 104,-96 37,24 49,26 96,27 54,2 91,-49 42,-105 -15,-17 -18,-74 16,-80 53,-9 13,-97 86,-140 18,-10 75,-66 83,-90 14,-40 15,-37 25,-82 6,-24 31,-57 57,-42 11,6 78,-21 127,0 27,12 69,-47 34,-104 -24,-38 7,-12 -42,-58 -29,-27 -37,-24 -72,-64 -10,-12 -33,-32 -33,-48 -16,-60 -24,-69 18,-101 28,-22 95,-13 121,10 12,11 203,27 241,45 45,21 125,24 173,60 30,23 80,41 118,44 69,6 96,38 77,103 -10,33 -26,230 -12,254 56,99 66,-99 185,0 22,18 1,26 42,45 32,15 -8,53 68,59 34,2 71,-15 73,-53 0,-2 8,-32 9,-35l33 -97 0 0z"/>
  <path class="fil0 str0" d="M13708 12119c16,155 53,90 151,118 22,6 154,153 47,151 -74,-2 -144,56 -67,90 78,34 43,115 74,173 26,50 2,102 101,141 18,7 31,8 44,13 5,5 72,61 84,79 17,25 98,12 103,66 6,78 105,64 158,139 13,19 -10,64 -2,83 5,13 13,37 18,49l0 0c-75,134 -5,117 36,153 144,127 -20,105 -33,97 -114,-68 -120,82 -125,151 -3,47 -25,95 -78,93 -66,-2 -128,52 -122,119 5,63 -95,97 -51,196 17,38 88,50 131,82 7,5 14,10 21,15 72,45 53,21 79,35 40,20 -63,115 73,134 112,15 70,131 26,142 -77,19 -91,-8 -135,1 -29,6 -4,153 -4,187 0,82 -33,83 -3,181 20,66 -41,153 -61,215 -14,44 -33,117 15,151 8,6 59,1 115,39 60,41 88,47 146,103 17,16 52,38 66,59 4,116 2,65 -24,156 -13,47 87,70 123,120 16,22 33,25 45,63 2,5 46,70 50,74l0 0c-16,37 -48,3 -78,3 -81,0 -70,42 -70,98 -55,14 -107,12 -161,37 -48,23 -121,25 -158,50 -53,36 -32,-6 -51,-12 -3,-12 -88,17 -81,43l27 101c4,14 43,37 43,44 -47,12 -111,-12 -154,15 -56,35 -114,95 -176,116l-229 58c-72,18 -138,5 -206,41l-272 144 0 0c-28,-47 -35,-138 -80,-194 -45,-56 -72,-48 -45,-121 17,-46 -49,-61 -27,-73 0,-25 46,-57 68,-68 40,-19 26,-66 7,-93 -92,-125 -113,-28 -214,-18 -108,11 -61,-135 -44,-190 3,-4 8,-52 9,-61 8,-80 25,-37 -4,-130 -17,-55 -140,-110 -154,-130 -23,-32 -30,-33 -51,-55 -1,-1 -210,-146 -218,-152 -76,-44 -20,-75 -104,-69 -62,4 -190,20 -240,-17 -7,-5 -27,-29 -28,-29 -14,-4 -163,56 -166,57l0 0c-38,-16 -74,-71 -101,-90 -68,-50 -52,-58 -95,-146 31,-30 66,-85 116,-84 79,2 197,21 231,-75 35,-96 158,-55 156,-121 -5,-157 22,-140 -130,-104 -31,7 -95,42 -108,39 -65,-16 17,-156 17,-169 -8,-161 255,-10 213,-130 -22,-64 -4,-99 -13,-128 -51,-165 -197,57 -248,-68 -23,-56 -71,10 -115,-47 -159,-204 70,-145 44,-191 -40,-70 75,-23 97,-43 48,-44 2,-127 -19,-167 -8,-17 -93,-126 -110,-152 -19,-30 -48,-52 -76,-75 -76,-65 -45,-28 -115,-121l0 0c69,-184 14,-75 -20,-163 -13,-33 60,-67 87,-92 38,-36 37,8 116,8 124,0 119,-29 207,-102 32,-27 49,54 125,32 89,-26 76,107 184,55 75,-36 24,-33 105,-21 165,25 59,-169 86,-205 91,-120 84,-11 174,-101 26,-31 55,-74 55,-117 0,-37 -31,-1 -62,12 -66,29 -82,23 -143,-32 -69,-62 73,-53 54,-112 -11,-32 21,-55 57,-55 144,0 80,-94 203,-136 42,-14 183,-64 199,-100 24,-50 12,-133 59,-134 55,-2 125,-58 138,-5 12,49 46,24 38,105 -7,68 99,70 105,54 21,-66 -99,-278 51,-245 91,20 43,195 190,177 9,-1 10,-2 19,-2l74 -4 13 -7z"/>
  <path class="fil0 str0" d="M9346 13330c-99,1 -49,-20 -99,-22 -27,-1 10,119 -57,91 -15,-6 -87,8 -114,4 -90,-13 -119,107 -57,110 26,1 106,61 28,97 -21,10 -42,-53 -96,4 -85,89 -187,-74 -180,24 6,78 139,84 51,171 -66,66 41,76 14,165 -13,40 23,60 57,60 70,0 140,22 107,106 -15,38 -98,56 -141,81 -42,24 -121,9 -103,85 2,10 -128,124 -64,194 25,28 68,2 68,100 0,149 38,49 155,170l8 10c-68,154 -41,55 -108,135 -5,6 -23,48 -28,54l0 0c-26,-29 -53,-66 -74,-90 -27,-32 -74,-77 -92,-112 -19,-12 -28,-37 -48,-48 -27,-48 -77,-94 -114,-141l-109 -137 -200 -258c-48,-22 -71,-128 -120,-159l-11 -18c-46,-63 -123,-107 -175,-163l-134 -144c-88,-94 -108,-215 -225,-296 -54,-37 -120,0 -150,-59 -3,-2 -4,-3 -5,-6 -41,-26 -68,-87 -113,-110 -2,-4 -10,-9 -13,-12 -177,-162 -353,-322 -526,-483l0 0 75 -183c99,-110 81,-34 132,24 37,42 70,79 130,49 45,-22 16,-50 39,-100 6,-12 95,-33 114,-27 69,21 78,-66 94,-109 22,-60 142,-134 214,-76 16,13 135,79 152,47 28,-53 -16,-80 53,-129 9,-6 9,24 63,-27 99,-93 234,69 107,146 -42,25 -117,-17 -140,68 -19,71 16,65 -46,107 -61,42 -21,24 -93,45 -68,20 -70,87 -56,146 26,114 104,-50 134,-19 42,44 38,85 101,71 57,-12 64,77 120,34 7,-6 -6,-111 123,-87 44,8 25,30 108,18 20,-3 24,-3 44,-3l54 12 0 0c1,50 -19,271 26,302 27,18 21,35 78,47 74,15 116,-52 114,-120 -2,-68 128,-39 165,-51 49,-15 164,-83 222,-112 47,-23 54,-1 50,44 -9,119 -42,78 40,188 38,51 22,71 51,132 32,66 105,1 143,-26l42 -62 0 0c60,109 56,93 173,134 82,29 84,35 46,115l0 0z"/>
  <path class="fil0 str0" d="M9684 15832c-122,-103 -238,-212 -347,-321l0 -2c-3,-3 -4,-7 -8,-7 -1,-6 -18,-9 -19,-14 -4,0 -3,1 -5,-3 -6,-1 -9,-8 -12,-13 -83,-83 -192,-154 -267,-243 -55,-66 -180,-159 -210,-234 -9,-7 -19,-17 -29,-28l0 0c5,-6 23,-49 28,-54 67,-79 40,19 108,-135l-8 -10c-117,-121 -155,-21 -155,-170 0,-99 -43,-73 -68,-100 -64,-70 66,-184 64,-194 -19,-75 60,-61 103,-85 43,-24 125,-42 141,-81 33,-84 -37,-106 -107,-106 -34,0 -69,-20 -57,-60 27,-89 -80,-98 -14,-165 88,-88 -45,-94 -51,-171 -8,-98 95,65 180,-24 54,-57 75,6 96,-4 78,-35 -2,-95 -28,-97 -62,-3 -33,-124 57,-110 27,4 100,-10 114,-4 68,28 30,-92 57,-91 51,2 0,23 99,22l0 0c19,43 15,30 -3,53 -20,26 3,103 12,132 12,42 109,-3 132,-18 11,-7 120,-59 131,-56 71,19 25,48 82,50 38,2 46,16 67,43 9,11 7,72 2,86 -14,41 -7,35 -37,68 -29,31 3,74 13,112 15,60 91,-36 99,-57 28,-66 57,-116 136,-115 24,0 38,-3 64,2 43,8 73,-77 92,-106 17,-26 32,-69 57,-87 48,-44 98,-95 166,-77 19,5 30,-2 69,12 81,30 224,-128 277,-32 10,18 23,20 44,65 46,102 134,46 200,11 75,-38 50,32 147,4 132,-38 163,178 295,53 18,-18 24,-165 101,-169 23,-1 50,75 104,2l0 0c70,94 38,56 115,121 28,23 56,46 76,75 17,26 101,135 110,152 21,40 68,123 19,167 -22,20 -137,-27 -97,43 27,47 -203,-12 -44,191 44,57 92,-10 115,47 51,125 197,-98 248,68 9,29 -9,65 13,128 41,120 -221,-31 -213,130 1,13 -81,153 -17,169 13,3 76,-32 108,-39 151,-36 124,-53 130,104 2,66 -121,25 -156,121 -34,95 -152,77 -231,75 -50,-1 -85,54 -116,84 43,88 27,96 95,146 26,19 62,74 101,90l0 0 -33 97c-1,3 -9,33 -9,35 -2,37 -38,55 -73,53 -76,-5 -37,-44 -68,-59 -40,-19 -20,-27 -42,-45 -119,-100 -128,99 -185,0 -14,-24 3,-220 12,-254 19,-66 -8,-98 -77,-103 -38,-3 -87,-21 -118,-44 -48,-36 -129,-39 -173,-60 -38,-18 -229,-34 -241,-45 -26,-23 -93,-32 -121,-10 -42,33 -33,42 -18,101 0,16 22,36 33,48 35,39 43,37 72,64 49,46 18,20 42,58 36,56 -7,115 -34,104 -49,-21 -117,6 -127,0 -26,-15 -52,17 -57,42 -11,46 -11,42 -25,82 -8,24 -66,79 -83,90 -72,42 -33,131 -86,140 -34,6 -31,63 -16,80 49,56 12,107 -42,105 -47,-2 -59,-3 -96,-27 -23,-15 -81,73 -104,96 -36,36 -86,-1 -114,-29 -29,-29 -93,58 -148,58 -54,0 -8,-12 -104,-4l-132 79 0 0z"/>
  <path class="fil0 str0" d="M12328 10500c51,84 26,35 79,57 6,2 41,1 40,16 21,4 -32,70 -37,75 -18,17 -35,57 -5,78 43,30 -14,86 78,115 36,11 72,84 76,124 6,63 48,101 99,132 43,26 77,68 98,113 32,69 87,78 114,163 26,79 -58,101 -69,194 -7,59 90,12 112,-20 9,-13 125,-112 144,-119 38,-13 51,26 103,24 69,-2 199,88 199,-69 0,-26 -1,-78 -33,-81 -31,-2 -183,-45 -198,-57 -36,-30 -63,-129 -1,-131 45,-1 49,-131 144,-36 83,83 63,-16 98,-35 102,-54 72,-1 114,18 60,64 42,66 104,-4 30,-34 -9,-64 69,-20 31,18 54,52 47,87 -7,35 -11,120 45,116 16,-1 103,-45 103,-75 0,-58 -18,-39 37,-99l0 0c4,4 64,60 64,68 -2,51 -114,60 2,181 38,40 55,40 55,108 0,76 24,75 62,121 57,69 -9,115 -9,208 0,187 -70,112 -118,229 -15,36 37,60 -78,107 -28,12 -115,1 -174,36l0 0 -74 4c-9,0 -10,1 -19,2 -147,18 -98,-157 -190,-177 -150,-33 -30,180 -51,245 -5,16 -111,14 -105,-54 8,-80 -26,-56 -38,-105 -13,-54 -83,3 -138,5 -47,1 -35,84 -59,134 -17,36 -157,85 -199,100 -122,42 -59,136 -203,136 -36,0 -67,23 -57,55 20,60 -123,50 -54,112 62,56 77,61 143,32 31,-13 62,-49 62,-12 0,43 -29,86 -55,117 -90,90 -83,-20 -174,101 -27,36 79,230 -86,205 -81,-12 -30,-15 -105,21 -108,52 -95,-81 -184,-55 -76,22 -93,-58 -125,-32 -88,73 -83,102 -207,102 -79,0 -78,-44 -116,-8 -27,26 -99,60 -87,92 34,88 90,-21 20,163l0 0c-54,72 -81,-3 -104,-2 -77,3 -83,151 -101,169 -132,125 -163,-90 -295,-53 -96,28 -72,-42 -147,-4 -66,34 -155,90 -200,-11 -21,-46 -34,-47 -44,-65 -53,-96 -196,62 -277,32 -39,-14 -50,-7 -69,-12 -69,-18 -118,32 -166,77 -25,18 -40,61 -57,87 -19,29 -50,114 -92,106 -27,-5 -40,-2 -64,-2 -79,-1 -108,49 -136,115 -9,20 -84,117 -99,57 -10,-39 -41,-82 -13,-112 30,-32 23,-27 37,-68 5,-14 6,-75 -2,-86 -21,-27 -29,-41 -67,-43 -57,-3 -11,-32 -82,-50 -11,-3 -120,49 -131,56 -22,15 -120,61 -132,18 -8,-29 -32,-107 -12,-132 18,-23 22,-11 3,-53l0 0c38,-81 36,-86 -46,-115 -117,-41 -113,-24 -173,-134l0 0c1,-8 -8,-20 -14,-25 -43,-42 -77,-98 -114,-139 -66,-72 43,-101 94,-116 40,-12 128,-23 136,-77 11,-74 -24,-40 17,-121 48,-94 137,-20 92,-192 -16,-62 33,-117 83,-114 108,8 38,136 89,174 74,55 117,-99 107,-160 -28,-160 0,-94 49,-95 80,-3 71,-35 57,-101l3 -3c38,-38 106,-41 155,-56 47,-14 119,-11 110,-63 -21,-111 82,-31 178,-72 129,-54 72,24 150,35 194,26 175,-62 273,-89 107,-30 63,103 53,150 -33,143 140,-23 165,-52 60,-71 4,-96 4,-191 0,-68 111,-61 49,-143 -85,-112 41,-95 14,-168 -11,-31 8,-60 33,-80 103,-78 -13,-105 -26,-144 -29,-89 -46,-60 -123,-73 -178,-30 -101,-74 -120,-91 -23,-21 -28,28 -76,-61l-3 -8c-19,-93 -137,-103 -101,-175 57,-114 10,-62 -37,-119 -26,-31 -51,-36 -31,-68 13,-20 26,-67 5,-79 -64,-37 36,-107 158,-40 21,12 35,-31 35,-48 2,-87 -161,-89 -50,-129 22,-8 115,69 95,-4 -60,-221 134,112 134,-39 0,-63 89,-46 80,-84 -15,-61 -139,-12 -149,-70 -19,-110 197,-50 185,-111 -17,-85 -91,-58 -103,-74 -39,-54 29,-136 59,-172l0 0c88,50 66,52 153,60 33,3 108,28 87,77 -18,44 -59,95 -54,130 4,23 97,58 106,95 11,42 -5,47 24,106 31,64 44,72 89,123 88,100 169,301 305,108 23,-33 101,-8 66,-135 -17,-60 147,-232 172,-202 0,0 27,73 37,91 73,132 11,82 148,123 45,13 31,-6 70,40 18,22 93,30 130,55 4,3 26,13 31,13l121 22 0 0z"/>
  <path class="fil0 str0" d="M8691 9791c4,-7 7,-13 4,-21 -5,-11 -18,-10 -28,-10 -6,0 -16,2 -21,5 -4,2 -15,5 -15,9 -9,3 9,21 13,23 8,3 18,4 26,4l21 -9zm-12 196c-4,-3 -7,-6 -11,-10 -9,-9 -37,-14 -47,-5 -5,4 -5,11 -3,16 2,6 5,19 9,22 1,5 13,11 18,11 6,0 9,2 15,-1 6,-2 13,-5 18,-8l0 -25zm-82 45c0,-51 -24,-62 -72,-57 -22,2 -30,3 -30,27 0,20 0,36 -2,55 -28,28 -64,-11 -91,-22 -15,-6 -72,-10 -65,20 7,30 129,55 159,58 25,3 57,-9 83,-11 35,-3 21,-14 30,-39l-12 -32zm297 -100c14,-8 25,-24 40,-31 5,-17 16,-35 -5,-47 -8,-5 -18,-4 -26,-9 -13,-8 -26,-40 -41,-37 -16,3 -28,23 -45,29 -17,6 -26,9 -45,10 -31,1 -49,8 -63,35 -15,28 -30,79 12,90 24,6 39,12 64,7 26,-5 51,-24 77,-32l32 -16zm-956 464c16,11 32,21 48,9 33,-24 84,75 107,97 81,78 184,-99 151,-176 1,-1 3,-6 4,-7 81,-11 112,86 189,6 6,-6 21,-27 29,-28 3,-27 41,-24 41,-68 0,-13 25,-47 32,-61 43,-86 91,-13 153,-13l1 -1c0,-15 -11,-27 -13,-39 -18,-10 -21,-36 -21,-55 2,-1 1,-1 2,-2 45,0 71,-48 110,-59 48,-14 93,-7 141,-7 38,0 36,-34 64,-39 118,-23 390,72 485,-34 63,-70 33,-187 105,-211 11,-3 18,-13 25,-22 17,-23 33,-49 44,-75 8,-16 29,-52 43,-62 3,-24 -11,-63 4,-82 13,-16 80,-23 77,-35 -25,-6 -94,13 -87,-26 7,-39 63,-23 63,-40 0,-21 -23,-42 -35,-58 -24,-37 59,-23 68,-22 52,6 75,-15 106,-56 52,-70 26,-134 50,-207 23,-70 134,-173 130,-239 22,-52 100,-167 151,-189 32,-14 56,-29 73,-48l0 0 203 20c100,23 121,37 209,1 20,-8 65,-8 86,10 80,71 109,6 207,121 27,31 34,44 66,75 33,32 70,71 84,117 17,55 -46,84 -19,154 10,26 -3,65 -30,81 -48,28 -73,59 -54,114 20,58 69,135 7,174 -24,15 -47,53 -33,82 26,55 -14,105 -48,146 -57,0 -59,-1 -91,33 -10,10 -30,99 -24,117l0 0c-30,36 -98,117 -59,172 12,17 86,-11 103,74 12,61 -204,1 -185,111 10,58 134,9 149,70 9,37 -80,21 -80,84 0,151 -194,-182 -134,39 20,73 -73,-4 -95,4 -111,41 52,43 50,129 0,17 -14,60 -35,48 -122,-67 -221,3 -158,40 21,12 7,59 -5,79 -20,32 5,37 31,68 47,57 94,5 37,119 -36,72 82,82 101,175l3 8c48,89 52,40 76,61 19,17 -59,61 120,91 77,13 94,-17 123,73 13,39 128,66 26,144 -25,19 -44,49 -33,80 27,73 -98,56 -14,168 62,82 -49,75 -49,143 0,95 56,121 -4,191 -25,29 -198,195 -165,52 11,-47 55,-180 -53,-150 -98,27 -79,115 -273,89 -78,-10 -21,-89 -150,-35 -97,40 -200,-39 -178,72 10,51 -63,49 -110,63 -50,15 -118,19 -155,56l-3 3c14,66 23,99 -57,101 -49,2 -77,-64 -49,95 11,61 -33,216 -107,160 -51,-39 19,-167 -89,-174 -49,-4 -99,51 -83,114 45,172 -44,98 -92,192 -41,80 -6,47 -17,121 -8,54 -96,65 -136,77 -51,15 -160,44 -94,116 38,41 72,97 114,139 6,5 15,17 14,25l0 0 -42 62c-38,28 -111,92 -143,26 -30,-61 -13,-81 -51,-132 -81,-109 -48,-69 -40,-188 3,-46 -4,-67 -50,-44 -58,28 -173,96 -222,112 -37,12 -167,-18 -165,51 2,68 -40,136 -114,120 -57,-12 -51,-29 -78,-47 -45,-31 -24,-252 -26,-302l0 0c27,-30 70,-26 106,-22 80,8 132,-55 159,-43 91,38 154,-134 132,-188 -11,-26 6,-68 -2,-81 -64,-99 33,-196 -63,-237 -42,-18 -78,-49 -100,-90 -35,-67 -83,-94 -59,-169 27,-81 -42,-57 -27,-118 16,-66 14,-77 70,-130 9,-32 52,-67 26,-82 -46,-27 -121,-23 -172,-11 -96,21 -71,-105 -81,-138 -15,-50 12,-191 -68,-197 -148,-11 -89,-155 -130,-214 -95,-135 6,-140 -29,-234 -45,-122 -53,-96 -59,-243l37 -146 0 0z"/>
  <path class="fil0 str0" d="M5844 10233c-31,7 -50,34 -82,39 -22,3 -49,-9 -69,1 -12,6 -2,30 -3,41 -1,25 -15,49 -24,71 -3,7 -24,58 -10,58 3,8 13,-9 14,-11 10,-17 24,-25 43,-30 32,-8 13,-38 25,-58 9,-17 44,-44 65,-44 7,-1 13,-3 20,-2 9,1 12,11 16,17 2,3 3,8 7,9 19,7 52,-41 41,-44 -3,-12 -28,-17 -31,-35l-11 -13zm625 43c-8,-2 -14,-3 -22,-5 -14,-3 -33,-1 -47,2 -17,4 -26,9 -26,27 3,4 4,9 5,14 5,13 30,24 42,29 10,5 21,2 32,2 6,-5 12,-8 15,-16 3,-8 10,-32 5,-40l-5 -13zm128 -204c-20,-5 -39,-11 -61,-12 -14,-1 -69,-2 -73,16 -24,17 50,56 61,63 16,9 33,15 50,8 11,-4 21,-10 28,-19 9,-11 11,-17 11,-31l-16 -25zm995 406c1,-23 1,-48 10,-69 8,-19 9,-43 -1,-61 -32,-8 -52,-41 -84,-30 -36,12 -72,30 -106,47 -3,12 -13,16 -9,32 14,52 187,145 190,82zm-915 2252l75 -183c99,-110 81,-34 132,24 37,42 70,79 130,49 45,-22 16,-50 39,-100 6,-12 95,-33 114,-27 69,21 78,-66 94,-109 22,-60 142,-134 214,-76 16,13 135,79 152,47 28,-53 -16,-80 53,-129 9,-6 9,24 63,-27 99,-93 234,69 107,146 -42,25 -117,-17 -140,68 -19,71 16,65 -46,107 -61,42 -21,24 -93,45 -68,20 -70,87 -56,146 26,114 104,-50 134,-19 42,44 38,85 101,71 57,-12 64,77 120,34 7,-6 -6,-111 123,-87 44,8 25,30 108,18 20,-3 24,-3 44,-3l54 12 0 0c27,-30 70,-26 106,-22 80,8 132,-55 159,-43 91,38 154,-134 132,-188 -11,-26 6,-68 -2,-81 -64,-99 33,-196 -63,-237 -42,-18 -78,-49 -100,-90 -35,-67 -83,-94 -59,-169 27,-81 -42,-57 -27,-118 16,-66 14,-77 70,-130 9,-32 52,-67 26,-82 -46,-27 -121,-23 -172,-11 -96,21 -71,-105 -81,-138 -15,-50 12,-191 -68,-197 -148,-11 -89,-155 -130,-214 -95,-135 6,-140 -29,-234 -45,-122 -53,-96 -59,-243l37 -146 0 0c-30,-20 -30,-15 -26,-48 0,-41 -24,-71 -24,-102l-50 46c-22,20 -20,34 -22,64 -2,50 -37,77 -37,132 0,75 -54,31 -107,58 -83,41 4,189 -141,131 -37,-15 2,39 -20,51 -13,7 -47,-12 -75,5 -15,9 -20,22 -37,30 -10,5 -43,10 -38,-12 3,-14 86,-81 31,-95 -45,-12 -137,40 -102,-53 11,-29 -22,-36 -26,-62 -7,-44 -36,-41 -62,-67 -5,-5 -16,-18 -16,-26 -15,-7 -56,-10 -72,-6 0,18 90,164 45,184 -89,39 -63,29 -110,114 -35,62 -65,53 -127,53 -24,0 -67,28 -91,38 -64,27 -122,-8 -184,1 -39,6 -89,-27 -129,-17 0,132 -141,164 -243,207 -31,-5 -96,22 -93,59 2,29 10,75 -4,101 -17,32 -20,48 -67,48 -63,0 -87,-45 -77,-98 6,-31 7,-55 -1,-80 -13,0 -24,56 -29,67l-74 135c-19,36 -21,63 -14,101 4,21 -30,41 -29,71 1,19 1,128 -9,135 -15,10 -31,-30 -42,-37 -16,-11 -36,-8 -55,-8l-1 -1c0,-49 30,-130 42,-182 19,-86 32,-157 73,-236 19,-36 29,-49 33,-93 3,-33 50,8 61,9 9,16 71,21 89,27 7,3 31,-1 18,-9l-116 -72c-62,-38 -51,-69 -42,-134 18,-62 17,-143 52,-197 14,-22 57,-40 56,-69 -2,-38 -16,-70 -28,-103 -3,-2 -5,-5 -7,-7 -37,-5 -62,36 -99,48 -40,14 -77,3 -115,13 -53,13 -79,40 -140,33 -76,-9 -87,-50 -137,-94 -18,-26 -20,-58 -16,-88 11,-6 26,-34 37,-34 19,0 77,21 68,-18 -5,-24 5,-55 -2,-82 -15,-4 -152,101 -172,118 -84,75 -161,162 -209,265 -24,51 -21,122 -53,167 -11,16 -34,17 -46,31 -15,19 -14,54 -16,78 24,40 89,140 80,184l-4 4c-1,3 -1,2 -3,4 -5,43 49,79 73,111l187 244c370,483 791,895 1228,1300l0 0z"/>
  <path class="fil0 str0" d="M9909 8476c43,-36 95,-68 142,-101 12,-8 25,-13 37,-19 25,-13 94,-51 102,-77 14,3 29,65 21,77 -15,23 -82,18 -82,50 13,3 78,-3 79,4 2,7 -23,46 -28,55 -18,35 -56,46 -93,50 -23,3 -49,5 -72,1 -26,-4 -50,-13 -78,-15l-29 -26zm459 -298c7,-24 26,-45 26,-73 0,-33 -32,18 -39,26 -12,12 -36,28 -52,34 -29,12 -19,35 -24,60 -2,13 -3,27 -5,41 -2,12 -3,27 0,38 14,4 33,-28 41,-38 14,-19 34,-39 45,-61l9 -27zm-161 -81c1,-12 9,-37 1,-48 -10,0 -16,7 -26,9 -4,1 -7,2 -11,2 -4,0 -7,2 -11,3 -11,1 -21,11 -18,24 2,9 8,29 16,35 10,7 31,1 42,-3l7 -22zm348 -150l-1 -1c-29,0 -89,68 -131,78 -65,15 -108,57 -154,104l-9 -4c-6,-26 0,-77 -16,-99 -133,0 -182,167 -61,176 88,7 31,35 2,57l-175 126c-83,60 -119,83 -210,83 0,-1 -3,-2 -5,-3 0,-2 -2,-3 -4,-4 -1,-2 -4,-5 -5,-5 -6,-35 -143,-145 -167,-50 -25,98 -172,90 -254,57 -32,-13 -81,-23 -90,-58 -9,-35 15,-43 15,-69 -27,7 -65,40 -73,67 -9,31 52,57 71,72 44,36 -107,161 -145,163 -19,1 -70,-17 -78,-13 -38,18 -67,20 -109,26 -106,14 -224,8 -315,72 -44,31 -83,58 -137,66l-204 29c-33,18 -94,27 -119,45 -25,19 -31,57 -66,76l-145 80c-9,5 -30,-4 -36,2 -1,2 4,32 -1,42 -17,37 -55,139 -97,139 -17,0 34,44 6,53 -30,10 -85,-6 -111,-20 -102,-56 -129,-84 -165,-192 -7,21 8,103 6,104 -42,42 -58,-12 -88,41 -33,60 -179,-67 -198,-100 -8,-14 18,-49 9,-55 -19,-12 -114,91 -130,26 -10,-38 -43,32 -55,35 -50,11 -46,27 -113,27 -147,28 -227,-189 -370,-174 -50,6 -71,-7 -114,-21 -27,-37 -92,-29 -130,-21 -68,14 -108,9 -174,5 -49,-38 -137,-5 -195,-49 -78,-78 -214,-126 -308,-189 -103,-69 -220,-146 -330,-204l-225 -119c-18,-25 -60,-31 -81,-58 -59,-54 -116,-92 -182,-136l-119 -79c-35,-23 -60,-45 -99,-53 -71,-14 -129,-42 -187,-82 -45,-31 49,-90 49,-116l-1 -1c-2,-1 -3,-2 -5,-3l-1 -1c-1,-3 -4,-4 -7,-4 -11,17 -51,29 -62,48 -81,12 -239,-119 -310,-175 -12,-9 -78,-77 -73,-83 23,0 104,66 127,82 37,26 101,37 146,37 10,0 82,-11 66,-22 -32,-20 -95,-20 -133,-39 -38,-19 -139,-52 -143,-99 29,-51 -92,4 -125,-26 -24,-21 -128,-121 -128,-148 0,-61 49,-17 79,-46 18,-17 151,-46 151,-62 0,-26 -21,-43 -47,-46 -39,-4 -50,-17 -48,-53 2,-50 89,-44 89,-57l-1 -1c-23,-6 -65,-6 -85,9 -37,27 -2,82 -29,102 -59,44 -148,103 -220,46 -16,-13 -22,-98 -8,-117 3,-4 76,25 47,-10 -13,-15 -57,-55 -17,-69 45,-15 63,-16 107,0 29,10 8,-16 8,-24 0,-28 118,-11 109,-46l-2 0c-1,-5 -29,1 -34,1 -14,0 -30,-4 -43,-7 -24,-6 -58,-18 -78,-34 -59,-48 -103,81 -162,81 -41,0 -58,-40 -62,-77 -8,-14 -23,-41 -37,-47 -13,-5 -41,44 -57,17 -12,-21 24,-104 38,-122 10,-12 54,-61 54,-69 -13,-4 -32,1 -47,4 -26,4 -1,-22 9,-27 23,-11 85,-7 100,-27 15,-21 -16,-28 -31,-28 -25,0 -52,-17 -77,-9 -32,11 -50,71 -52,101 -4,64 -100,-42 -108,-51 -26,-31 -28,-51 -71,-69 0,52 67,82 55,133 -26,0 -46,0 -62,-26 -18,-28 -53,-31 -72,-52 -35,-40 -70,-84 -67,-144 2,-39 57,-48 81,-58 26,-11 131,-30 131,-58 0,-8 -14,-38 -21,-40 0,-17 2,-26 -1,-43 -42,-11 -76,-101 -73,-139 4,-57 63,-92 109,-111 1,-2 3,-8 -1,-9 -1,-4 -25,5 -32,3 0,-2 0,-1 -1,-2 0,-18 39,-83 50,-99 40,-55 43,-33 37,-103 -8,-100 141,-156 178,-230 46,-31 61,-81 105,-110l141 -93c22,-15 44,-52 65,-63 27,-14 70,41 84,-37 10,-60 48,-99 89,-141 34,-34 53,15 82,15 46,0 131,-115 172,-144 40,-29 88,-25 135,-60 32,-24 90,-110 2,-110 0,53 54,70 -33,104 -70,27 -146,45 -221,52 -32,0 -66,-2 -97,-6 -20,-3 -32,-6 -51,-2 -29,33 -37,71 -80,92 -7,13 -50,40 -65,39 -28,14 -69,14 -92,37 -21,21 -51,54 -75,70 -21,14 -125,133 -135,96 -4,-15 -5,-72 -23,-68l-1 1c0,2 0,1 -2,2 -6,41 -32,58 -47,93 -21,52 -56,50 -107,37 -103,-26 -168,-10 -179,109 0,52 -55,102 -69,146 -16,48 -23,97 -43,143 -6,13 -32,12 -33,15 -1,0 -2,1 -3,1 -5,19 12,41 12,61 -2,1 -7,7 -10,3 -51,0 -27,-18 -27,29 0,26 -30,34 -49,47 -52,33 -128,77 -191,77 -27,0 -109,6 -128,-13 -2,-7 -1,-15 0,-22 5,-8 -12,-54 -1,-59 3,-22 36,-10 36,-47 -22,-14 -29,-114 -50,-120 0,-40 -99,-33 -124,-33l-1 -1c0,-4 2,-4 3,-6 59,0 130,-41 172,-83 49,-49 51,-112 89,-157 17,-20 77,-32 80,-57 4,-1 31,-57 -53,-2 -16,10 -37,1 -47,16 -12,17 -69,80 -71,90 -33,9 -52,78 -90,90 -41,14 -59,-9 -82,-36 -12,-13 -57,-16 -57,-31 -3,-2 -16,-28 -18,-32 -3,0 -4,-1 -6,-2 0,-1 -23,-12 -26,-16l-22 -30c-10,-13 -15,-51 -10,-68 14,-50 58,-89 86,-136 36,-72 -49,-197 -13,-269 9,-17 71,1 91,-9 4,-19 27,-59 47,-37 21,24 31,57 59,48 0,-19 -12,-31 -15,-48 -1,-4 18,-50 21,-51 0,-33 -40,-66 -24,-91 14,-21 78,-43 69,-75 -3,-12 -26,-58 -6,-60 3,5 89,15 92,26 26,0 56,-2 56,-31 -4,-1 -8,-2 -12,-3l0 0 -2 -30c1,-10 6,-23 6,-32 31,-6 19,5 43,16 13,6 25,14 40,6 11,-5 57,-35 29,-45 -9,-3 -19,-4 -27,-7 -7,-3 -19,-12 -26,-14 -5,-28 -4,-51 9,-80 21,-48 74,-47 78,5 1,17 8,43 12,60 2,9 -1,21 -1,30 0,13 8,16 10,25 14,0 28,-32 32,-45 3,-11 7,-21 9,-33 0,-2 26,-54 35,-27 26,0 50,-8 77,-8l1188 0 60 -517 -2 -600c26,-69 9,-103 87,-142 20,-10 147,-41 147,4 29,17 20,140 26,175 6,31 11,179 50,188 7,18 49,9 56,-7l64 -154c31,-75 86,-183 182,-143 23,10 47,75 56,98 19,49 45,88 95,111 80,58 257,-49 304,-115 152,-34 245,78 395,97 100,13 163,-42 244,-86 113,-62 142,-53 267,-46 117,18 249,-18 360,5l174 35c63,12 112,-33 168,-38 3,-2 3,-2 7,-3 50,-39 147,-53 207,-45 56,55 133,148 201,186l250 228c12,4 29,12 42,12 60,48 220,-2 297,16 87,22 220,4 309,-4 201,-17 492,64 580,-179 14,-35 37,-98 59,-127 2,-26 52,-132 76,-143 69,-111 193,-12 269,-69 44,-4 128,-55 172,-73 78,-32 179,-87 265,-87 43,0 92,11 133,-1 41,-12 99,-60 135,-63 41,0 104,-38 139,-59 38,-23 68,-20 110,-20 59,0 141,-58 192,-88 50,-29 196,-52 249,-26 40,20 9,160 -31,165 -1,5 -43,20 -50,34 -24,47 -3,163 55,182 0,5 3,21 -5,23 0,2 0,1 -2,2 -3,11 -37,15 -41,30 -3,1 -5,9 -5,12 -10,3 20,13 27,13 70,0 -2,63 -21,86 -62,74 88,93 118,101 80,14 154,70 233,70 146,0 383,38 514,-31 94,-50 171,-74 270,-93 0,-2 3,-4 4,-5 0,-25 -2,-35 -7,-58 -16,-5 -86,-41 -96,-52 -43,-48 3,-62 45,-90 74,-13 112,-35 166,-85 30,-27 87,-41 127,-50 35,-8 50,-63 69,-63 50,0 97,41 146,41 58,0 85,-38 127,-68 0,-119 110,-62 172,-115 119,-103 -39,-167 -146,-151 -78,12 -124,-13 -196,-23 -80,-11 -24,-55 -44,-109 13,-45 13,-149 2,-196 -8,-34 -32,-74 -32,-108l-1 -105c0,-48 -14,-73 7,-122 26,-60 73,-74 108,-118 44,-7 95,-29 131,-55 66,-8 118,-46 191,-46 142,0 210,78 329,130 40,17 74,44 114,58 30,10 98,26 117,57l0 0 75 98c-16,39 -29,75 -55,108 -24,29 -111,150 -40,172 37,12 92,-70 220,-23 73,27 -25,105 22,153 38,38 -66,66 -25,124 34,47 -100,180 47,176 45,-1 104,77 105,124 1,21 5,25 -2,50 -83,122 -82,66 -184,124 -29,16 -95,45 -68,86 62,95 -94,51 -52,172 15,43 84,48 62,103 -40,100 86,102 111,157 14,31 21,38 -12,73 -59,60 -210,-64 -243,71 -11,44 53,35 90,49 12,5 221,63 152,110 -40,27 -84,63 -82,117 0,15 77,38 14,100 -39,39 -63,78 -63,133 -64,114 -8,70 50,98 5,2 24,15 25,19l0 0c-56,32 -68,34 -62,92 6,58 4,100 -62,121 -27,9 -37,-35 -102,17 -49,40 -149,-43 -187,-26 -72,32 -61,45 -152,72 -120,35 -166,-7 -257,128 -15,22 -38,117 -35,145 1,14 -54,93 -64,112 -49,93 -15,56 21,150 8,20 -2,126 -2,152 -14,72 2,69 -7,116 -6,32 -106,67 -53,194 37,91 56,61 100,127 54,80 97,-37 132,-34 33,3 47,-51 51,-75 3,-19 18,-92 31,-100 38,-23 83,-81 77,-126 -13,-102 -3,-62 80,-107 18,-10 95,-34 98,11 2,24 5,30 5,61 -1,49 68,173 110,197 49,28 200,59 254,47 49,-11 148,-45 184,-15 79,66 59,93 83,119 31,33 117,-49 102,21 -9,41 -19,152 23,175 52,28 167,4 127,67 -23,36 -80,115 -45,153 43,47 -61,314 213,-9 53,-62 -44,215 66,176 6,-2 8,-1 14,-1l0 0c49,70 81,94 128,152 28,35 -15,71 77,66 43,-2 -18,73 -29,84 -102,102 36,90 94,144 53,50 183,85 123,161 -15,19 -43,82 14,82 121,0 70,89 105,123 87,84 -67,45 -28,163 8,24 39,97 68,97 60,-5 35,-1 73,-16 38,-15 -13,111 65,87 77,-24 149,54 105,127 -47,77 -7,31 -87,69 -6,3 -51,37 -56,42 -63,63 -48,-27 -101,-81 -50,-49 -40,-27 -100,-25 -42,1 -64,-55 -176,-4 -87,40 -177,-89 -234,-58 -28,15 -109,5 -170,24 -21,7 -33,5 -55,5 -27,0 -81,2 -112,10 -26,8 -142,-17 -169,-33 -14,-8 -85,-36 -103,-35 -18,1 -91,-55 -137,-55l-91 -28 0 0c0,0 -83,63 -85,65 -30,29 -123,63 -149,34 -18,-21 -72,11 -80,-24 -12,-58 -81,-114 -136,-103 -84,17 -57,-3 -102,-19 -43,-15 -55,-7 -93,-6 -93,4 -227,120 -320,67 -42,-24 -29,-28 -99,-60 -42,8 -57,11 -100,11 -80,0 -50,-2 -122,21 -158,50 -145,87 -333,87 -92,0 -79,-5 -161,-21 -87,-18 -206,-100 -280,-73 -56,20 -102,42 -156,65 -47,21 -190,36 -238,22 -43,-13 -100,-10 -142,4 -93,32 -112,44 -170,126l-81 137 0 0zm-7023 -2449c-13,-5 -30,-11 -43,-12 -20,-2 -32,-7 -46,10 0,4 0,7 0,11 7,8 10,15 21,20 13,6 34,3 49,4 5,0 12,2 17,0 6,-2 10,-15 11,-20l-9 -13zm75 55c-11,3 -25,2 -37,2 -16,1 -44,6 -57,15 -24,16 -23,32 -21,59 8,10 11,13 26,13 15,0 34,-14 45,-25 12,-12 29,-23 39,-37l5 -27zm-203 512c5,-12 24,-40 24,-52 10,-6 25,-23 31,-34 8,-15 20,-47 6,-60 -9,-9 -23,-15 -36,-16 -22,-1 -27,6 -44,15 -3,9 -22,22 -28,33 -10,19 -10,40 -9,61 1,10 2,21 4,31 4,18 14,20 26,29l26 -7zm-633 -178c0,-58 -94,-14 -125,-43 -22,-20 -18,-22 -49,-16 -28,5 -34,-13 -58,-16 -37,-5 -66,57 -82,81 -34,49 -15,113 38,140 17,9 138,63 147,54 0,-22 -22,-51 -3,-70 34,0 72,63 104,30 28,-28 26,-83 38,-120l-10 -39z"/>
  
  
  
  
  
  
  
  
  
  
  
  
  
  
  
  
 </g>
</svg>