<svg xmlns="http://www.w3.org/2000/svg" xmlns:xlink="http://www.w3.org/1999/xlink" xml:space="preserve" width="297mm" height="210mm" version="1.1" style="shape-rendering:geometricPrecision; text-rendering:geometricPrecision; image-rendering:optimizeQuality; fill-rule:evenodd; clip-rule:evenodd" viewBox="0 0 29700 21000">
 <defs>
  <style type="text/css">
   <![CDATA[
    .str1 {stroke:white;stroke-width:50;stroke-opacity:0.501961}
    .str3 {stroke:white;stroke-width:50}
    .str4 {stroke:#434242;stroke-width:50}
    .str0 {stroke:white;stroke-width:50}
    .str2 {stroke:white;stroke-width:50}
    .str5 {stroke:#2B2A29;stroke-width:7.62}
    .str6 {stroke:white;stroke-width:7.62}
    .fil6 {fill:none}
    .fil1 {fill:#171729}
    .fil0 {fill:#171729}
    .fil8 {fill:#D9DADA}
    .fil5 {fill:#171729;fill-rule:nonzero}
    .fil4 {fill:#D9DADA;fill-rule:nonzero}
    .fil7 {fill:#434242;fill-rule:nonzero}
    .fil3 {fill:black;fill-rule:nonzero}
    .fil2 {fill:#171729;fill-rule:nonzero;fill-opacity:0.501961}
   ]]>
  </style>
 </defs>
 <g id="Plan_x0020_1">
  <metadata id="CorelCorpID_0Corel-Layer"/>
  
  
  
  
  <path class="fil0 str0" d="M8305 16907c-30,47 -44,49 -27,108 7,24 29,61 32,86 3,22 24,52 12,84 -16,42 -31,31 -55,65 -10,15 -37,41 -41,58l12 42 0 0c-10,2 -73,65 -82,76 -18,22 -65,29 -85,11 -57,-48 -128,-4 -162,-66 -46,-84 -111,-44 -135,-120 -15,-47 -44,-46 -53,-94 -6,-31 -4,-30 -19,-57 -22,-39 -67,-49 -67,-84 0,-38 -2,-22 -8,-51 -3,-13 -20,-42 -14,-48 18,-18 46,-10 82,-48 22,-23 30,-14 48,-19 51,-14 49,-28 78,-71 2,-3 4,-6 7,-10 24,-31 86,-120 126,-65 22,31 53,10 55,33 2,28 25,14 13,42 -32,78 36,30 66,38 10,3 17,-1 20,0 0,-1 14,-16 16,-20 20,-38 28,3 59,20 19,10 -46,34 -54,38 -28,12 46,24 47,24 30,8 71,-13 81,-3 21,20 10,15 49,30l0 0z"/>
  
  
  <path class="fil1 str0" d="M9285 13818c30,3 61,9 93,13 76,9 71,78 131,105 30,13 71,7 101,46 29,39 74,6 124,69 32,40 92,33 136,25 40,-7 68,-19 107,-25 38,-6 79,-43 99,-75 45,-72 41,72 137,-24 25,-25 37,-71 91,-61 45,8 51,95 128,17 5,-5 13,-13 20,-16 55,-43 43,-30 105,-35 35,-3 62,-2 96,-3 39,-2 61,-37 72,-69 9,-25 70,-24 84,-88 4,-18 38,-6 47,-51 4,-20 -17,-58 25,-93 33,-28 29,-26 38,-73 10,-55 -8,-48 19,-94 26,-43 3,-59 62,-90 10,-5 25,-10 36,-11l87 -7 0 0c0,-4 4,-49 5,-51 23,-60 2,-47 -1,-71 -4,-30 7,-13 -10,-64 0,-5 -9,-29 -11,-34 -25,-71 30,-88 10,-95 -67,-26 -84,-32 -122,-95 -32,-51 -48,-63 -93,-100 -64,-52 -96,-109 -106,-191 -12,-97 -43,-175 -61,-268 7,-29 12,-62 20,-90 22,-80 -72,-79 -71,-162 1,-90 46,-73 15,-159 -14,-38 28,-95 20,-136 -14,-80 0,-111 -44,-191 2,-10 2,-21 4,-32 6,-31 1,-49 10,-77 12,-38 43,-64 5,-82 -81,-40 -78,-44 -128,-115 -30,-42 -122,-78 -141,-107 -26,-37 -35,-41 -70,-64 -39,-26 -102,-24 -122,-48 -10,-12 -29,-125 -25,-143 7,-33 -16,-73 -29,-104 -1,-12 -18,-43 -19,-65 -2,-60 -35,-75 -41,-114 -4,-27 -12,-53 -15,-75 -3,-22 -26,-68 -44,-79 -27,-16 -3,-60 3,-83 8,-31 -38,-28 -56,-24 -74,15 -95,19 -170,19 -28,0 -54,33 -69,55 -70,105 -73,-6 -124,-8 -33,-1 -28,-8 -58,21l3 3c-2,-2 -4,-3 -5,-6 -20,-37 -64,-44 -101,-53 -46,-10 -58,-56 -47,-98 12,-46 -14,-82 -48,-112 -29,-26 -24,-28 -53,-60 -2,-2 -21,-34 -27,-42 -32,-43 -27,-39 -47,-86 -33,-78 18,-119 -42,-173 -30,-27 -75,-25 -82,-69 -11,-64 -2,-56 -37,-114 -16,-27 -33,-54 -57,-76 -15,-14 -42,-88 -40,-109 6,-66 38,-55 17,-131 -2,-4 -8,-18 -9,-20 -19,-59 -49,-49 -84,-74 -30,-21 -74,-37 -82,-76 -11,-53 -11,-61 -49,-106l0 0 -88 6c-32,0 -63,1 -95,1 -42,0 -118,35 -134,29 -38,-15 -87,31 -107,56 -61,21 -82,25 -126,-22 -16,-18 -69,-53 -91,-60 -51,-17 -45,-52 -66,-63 -53,-28 -70,27 -111,33 -60,10 -51,35 -80,65 -22,23 -58,70 -78,87 -26,21 -66,86 -102,51 -37,-36 -72,-13 -85,-48 -23,-62 2,-66 -78,-70 -66,-4 -69,-10 -140,19l-1 3c-3,7 -6,28 -9,37 -9,38 -39,70 -17,114 9,17 26,80 25,97 -1,15 38,81 48,93 28,31 56,73 58,116 3,41 9,66 9,109 0,24 14,83 32,101 26,27 -28,41 -35,82 -4,23 -10,30 -18,49 -11,29 -51,47 -44,83 14,72 -8,42 -8,93 0,48 8,34 27,55 23,25 -36,29 -50,29 -37,0 -84,28 -108,10 -30,-24 -3,-31 -60,-24l6 -1c-25,47 -31,63 -36,113 -3,27 -1,56 -6,81 -5,26 -4,31 -14,58 -7,19 3,77 -6,116 -14,59 -18,57 -15,122 2,38 33,126 50,163 6,13 8,40 8,54 5,38 6,64 45,72 22,5 48,25 83,31 32,6 54,29 54,62 0,40 -5,61 31,91 64,52 38,66 58,134 7,24 22,24 29,73 7,47 46,47 86,69 15,8 79,26 79,32 -1,19 -52,123 -62,161 -1,73 -15,75 26,133 5,6 34,52 34,59 1,32 3,37 14,66 5,14 -3,50 -3,66l0 0c9,51 5,54 4,101 -1,34 40,37 1,112 -11,22 -19,48 1,65 62,53 -18,189 115,143 43,-15 97,0 120,40 4,6 37,28 52,50 28,41 5,34 -6,86 -11,54 56,29 56,113 44,93 4,75 7,138 1,38 53,20 32,95 -6,22 30,54 63,43 62,-20 35,18 95,13 68,-5 34,30 71,31 4,0 3,0 6,-1 31,3 71,4 102,11 20,4 73,2 58,41 -21,53 19,74 -6,120 -10,19 -77,14 -76,46 1,18 65,35 48,122 -4,20 1,30 11,32l0 0c32,7 119,-56 148,-48 39,10 20,11 68,-3 101,-30 79,57 107,73 42,37 18,29 24,75 6,51 25,27 64,50 11,7 16,4 27,14 15,13 29,18 39,41 12,28 52,43 78,63 42,32 65,34 104,80 32,39 90,55 109,103 7,18 24,36 42,43l0 0z"/>
  <path class="fil1 str0" d="M5988 12947l30 -43c40,-6 37,-9 59,13 20,20 28,27 43,51 15,23 67,5 86,-6 9,-5 72,-26 82,-26 24,0 76,-10 94,-28 15,-15 46,-83 53,-102 6,-19 -61,-36 -42,-68 19,-30 -2,-62 -18,-88 -12,-19 -68,-84 -52,-107l23 -31 0 0 -37 -58c-2,-3 -3,-6 -5,-9 -16,-32 -49,-79 -60,-106 -17,-41 -40,-81 -40,-127 0,-59 -44,-162 -73,-213 -41,-71 -65,-133 -83,-213 -1,-3 -2,-4 -4,-7 -8,-10 -36,-54 -41,-65 -30,-63 -147,-97 -165,-161 -11,-37 -33,-60 -52,-88 -21,-33 -40,-63 -64,-94 -17,-22 -58,-81 -65,-105 -8,-28 -22,-52 -34,-78 -20,-40 -10,-45 -41,-97l0 0c-21,5 -31,51 -36,69 -4,14 -25,63 -32,74 -14,22 -23,69 -33,78 -17,17 -42,-11 -49,-23 -16,-27 -53,-37 -52,-68 0,-17 -10,-54 -26,-60 -27,-11 -54,-31 -79,-42l-2 -2c-22,-20 -43,-40 -64,-58 -24,-21 -150,-157 -159,-184 -38,-119 -98,-52 -126,-67 -30,-15 11,-66 -38,-87 -40,-17 -40,-35 -71,-51 -34,-17 -30,-1 -55,-29 -51,-60 -116,-14 -172,-36 -38,-15 -59,-51 -69,-89 -4,-4 -9,-13 -14,-16 -70,-38 -72,28 -101,-53 -8,-22 0,-53 -6,-57 -38,-28 -93,-30 -109,-43 -7,-6 -55,-60 -60,-69 -26,-45 -72,-25 -111,-42 -37,-16 -82,-17 -108,19 -22,31 -28,54 -66,70 -7,3 -58,-13 -61,-14l-113 -26 0 0c11,34 19,45 26,84 12,48 21,48 37,86 5,13 96,71 45,78 -40,5 -50,-62 -74,-41 -31,26 -73,52 -113,59 -11,2 -44,10 -18,20 50,19 46,124 82,167 36,42 54,111 64,164 11,60 -9,88 28,151 21,36 40,74 59,112l4 7c23,67 22,80 64,136 35,47 -2,130 55,195 61,70 2,111 60,167 23,22 58,108 76,119 42,25 147,-12 117,49 -16,33 -18,53 0,86 28,44 23,52 61,78 55,38 15,75 76,136 52,52 39,45 61,114 14,43 25,123 58,151 34,28 67,40 60,89 -16,112 44,73 67,156 2,7 3,10 6,16 -1,46 0,76 25,113 14,21 6,43 42,53 88,26 24,32 74,105 46,68 24,137 -17,202 -37,58 -67,13 -58,122 6,63 4,80 64,111 36,19 56,17 99,44 -3,48 2,169 31,213 25,38 83,21 118,16 57,-8 289,-79 308,-78 42,1 -18,111 64,48 46,-35 139,-61 185,-95 22,-16 -10,-13 -22,-62 -3,-12 -18,-51 1,-56 52,-12 40,-24 75,-38 40,-15 24,61 113,13 18,-10 -2,-26 -11,-46 -19,-44 -15,-23 -26,-75 -3,-14 -10,-24 -10,-38 -16,-32 -14,-42 -31,-70 -15,-25 -26,-111 26,-91 29,12 37,1 66,-9 29,-10 30,-24 70,-30 39,-6 42,-68 48,-101 0,-1 6,-110 19,-86 0,0 10,32 14,40 13,27 29,58 49,80l0 0z"/>
  <path class="fil1 str0" d="M7723 11929c9,51 5,54 4,101 -1,34 40,37 1,112 -11,22 -19,48 1,65 62,53 -18,189 115,143 43,-15 97,0 120,40 4,6 37,28 52,50 28,41 5,34 -6,86 -11,54 56,29 56,113 44,93 4,75 7,138 1,38 53,20 32,95 -6,22 30,54 63,43 62,-20 35,18 95,13 68,-5 34,30 71,31 4,0 3,0 6,-1 31,3 71,4 102,11 20,4 73,2 58,41 -21,53 19,74 -6,120 -10,19 -77,14 -76,46 1,18 65,35 48,122 -4,20 1,30 11,32l0 0c0,17 -2,44 7,59 33,61 -5,41 -13,66 -10,31 39,54 63,59 38,9 60,37 90,44 53,13 55,24 72,72 20,58 -2,57 -13,95 -9,33 -19,21 -43,38 -11,8 -71,28 -72,29 -19,20 24,25 -58,62 -12,10 -29,22 -41,30 -19,13 -41,40 -40,65 1,51 7,100 34,145 25,42 -16,39 -42,31 -35,-11 -72,-9 -103,-27 -86,-52 -98,26 -143,0 -35,-20 -60,9 -96,13 -43,4 -39,-5 -90,8 -52,13 -49,-4 -83,-27 -50,-35 -76,-15 -139,-64 -27,-21 -54,31 -85,48 -31,16 -40,16 -70,38 -35,26 -73,28 -112,43 -45,18 -56,17 -106,26l-108 -11 0 0c1,-20 4,-35 -13,-42 -63,-24 -32,-58 -109,-18 -28,15 -51,45 -74,48 -114,18 -35,-53 -45,-103 -7,-33 54,-78 65,-100 10,-20 -19,-47 -33,-58 -26,-20 -35,-39 -54,-54 -43,-36 -6,-71 -68,-16 -30,25 -80,91 -112,95 -36,4 -55,12 -43,-28 15,-53 -6,-57 16,-113 16,-42 -33,-6 -42,7 -2,2 -26,75 -27,79 -2,22 -27,19 -43,15 -28,-8 -5,-81 -25,-94 -37,-25 -127,102 -130,-9 -1,-43 -29,-26 -29,-74 0,-80 5,-89 -76,-57 -22,9 -51,8 -64,20 -28,25 -41,48 -71,75 -10,9 -40,27 -32,1 25,-79 66,-74 82,-109 8,-17 -54,-56 -69,-80 -24,-38 -48,-60 -68,-101l-3 -4c-27,-35 -40,-85 -76,-109 -84,-58 -17,-76 -73,-152 -74,-101 -12,-89 -48,-154 -14,-25 -6,-60 -30,-87l0 0 30 -43c40,-6 37,-9 59,13 20,20 28,27 43,51 15,23 67,5 86,-6 9,-5 72,-26 82,-26 24,0 76,-10 94,-28 15,-15 46,-83 53,-102 6,-19 -61,-36 -42,-68 19,-30 -2,-62 -18,-88 -12,-19 -68,-84 -52,-107l23 -31 0 0c43,46 33,43 88,75 24,14 44,25 72,32 19,5 40,80 93,28 15,-14 49,-24 64,0 33,49 79,44 112,86 13,17 17,20 27,40 5,10 58,72 68,79 23,16 52,2 91,39 20,19 70,25 97,31l73 14c36,-53 -1,-34 6,-68 3,-16 86,-33 65,-81 -16,-36 -18,-33 -38,-63 -4,-5 -15,-52 -24,-70 -15,-27 -2,-126 1,-156 1,-5 0,-11 0,-16 17,-57 0,-46 8,-91 6,-32 20,-33 10,-77 -11,-51 2,-79 -4,-127 -5,-40 -21,-57 4,-102 17,-30 8,-108 46,-97 55,17 39,-45 112,-33 62,10 49,42 112,-18 58,-55 63,-12 132,-55 32,-20 34,-1 61,1l101 44 0 0z"/>
  <path class="fil1 str0" d="M5583 11090c31,52 21,57 41,97 13,26 26,50 34,78 7,24 48,83 65,105 24,31 43,61 64,94 18,28 41,51 52,88 19,65 136,98 165,161 6,12 33,55 41,65 2,3 3,4 4,7 17,80 42,142 83,213 29,51 73,154 73,213 0,46 22,86 40,127 11,27 45,74 60,106 2,3 3,6 5,9l37 58 0 0c43,46 33,43 88,75 24,14 44,25 72,32 19,5 40,80 93,28 15,-14 49,-24 64,0 33,49 79,44 112,86 13,17 17,20 27,40 5,10 58,72 68,79 23,16 52,2 91,39 20,19 70,25 97,31l73 14c36,-53 -1,-34 6,-68 3,-16 86,-33 65,-81 -16,-36 -18,-33 -38,-63 -4,-5 -15,-52 -24,-70 -15,-27 -2,-126 1,-156 1,-5 0,-11 0,-16 17,-57 0,-46 8,-91 6,-32 20,-33 10,-77 -11,-51 2,-79 -4,-127 -5,-40 -21,-57 4,-102 17,-30 8,-108 46,-97 55,17 39,-45 112,-33 62,10 49,42 112,-18 58,-55 63,-12 132,-55 32,-20 34,-1 61,1l101 44 0 0c0,-16 8,-52 3,-66 -11,-29 -12,-34 -14,-66 0,-7 -30,-52 -34,-59 -41,-58 -27,-60 -26,-133 10,-38 61,-142 62,-161 0,-6 -64,-24 -79,-32 -40,-22 -80,-22 -86,-69 -7,-49 -22,-49 -29,-73 -19,-68 6,-82 -58,-134 -36,-30 -31,-51 -31,-91 0,-33 -22,-56 -54,-62 -35,-7 -61,-27 -83,-31 -39,-8 -40,-34 -45,-72 0,-15 -2,-41 -8,-54 -16,-36 -47,-124 -50,-163 -4,-65 0,-63 15,-122 9,-39 -1,-97 6,-116 10,-27 9,-32 14,-58 5,-25 4,-54 6,-81 5,-51 11,-66 36,-113l-6 1 -52 -46c-22,-11 -32,-15 -50,-33 -32,-34 -80,-46 -125,-38 -68,11 -87,35 -148,51 -40,10 -72,-1 -102,25 -52,45 -29,94 -74,120 -51,29 -40,24 -43,77 -3,41 -16,55 -52,75 -26,7 -71,31 -95,47 -33,21 -79,27 -87,66 -7,35 -31,44 -63,28 -59,-30 -25,26 -56,52 -50,42 -84,-37 -92,25 -10,82 -82,-1 -118,63 -17,30 -41,32 -62,6 -50,-61 -72,9 -108,38 -30,24 -18,29 -68,34 -42,-19 -27,-33 -43,-54 -37,-48 -89,28 -106,30 -20,2 -31,14 -49,26 -39,28 -42,68 -92,68 -31,0 -21,52 -12,70 10,20 14,44 20,59 3,7 3,39 3,47 -2,45 15,19 -4,82l0 0z"/>
  <path class="fil1 str0" d="M9227 16959l68 -63c60,-63 120,-82 189,-127 32,-21 47,-49 47,-86 0,-44 -19,-22 16,-67 29,-37 -46,-117 38,-135 34,-7 108,-36 124,-68 19,-38 34,-67 80,-69 40,-2 75,-18 109,-25 20,-4 33,18 48,33 45,44 40,17 86,-1 25,-10 73,12 63,-37 -12,-59 88,-44 108,-101 24,-68 -42,-41 53,-134l5 -5c37,-36 29,-18 66,-28 17,-4 47,-53 58,-68l28 -43 0 0c41,-32 26,-24 51,-52 38,-43 24,-99 99,-114 17,-4 79,-7 87,-11 41,-21 26,-46 48,-77 16,-22 29,-50 49,-69 27,-35 63,-81 107,-94 44,-13 78,-77 92,-80 19,-5 25,11 73,-14 42,-22 49,-115 99,-85 10,6 26,47 49,68 17,15 18,23 43,38 36,21 61,21 100,42 49,26 41,37 67,79 20,32 52,139 58,178 4,26 -24,36 -41,52 -16,15 -53,34 -73,46 -38,30 -39,39 -28,81 4,13 18,43 23,60 9,33 19,52 36,81 18,32 -23,70 38,114 46,34 33,111 100,75 77,-41 80,50 118,93 33,37 16,55 24,99 8,42 -1,87 -2,129l0 5c4,14 15,78 33,87 35,18 54,2 101,29 54,31 29,-36 56,-49 16,-7 73,-22 90,-16 14,5 38,-7 19,34 -7,15 -30,99 -21,110 10,13 79,-24 102,-24 49,0 146,4 186,-21 59,-36 74,-94 133,-116 44,-17 28,-16 76,-5 56,13 150,13 183,66 21,35 60,13 83,86 7,23 14,36 36,47l49 52 0 0c-4,10 -6,20 -6,28 4,136 51,89 77,90 62,3 -9,23 64,78 36,27 -16,47 65,87 90,45 -2,137 23,199 27,64 20,40 87,70 29,13 -13,56 100,71 39,5 -6,72 2,92 1,1 23,34 24,38 27,70 -12,33 14,108 18,51 -22,59 -66,38 -62,-29 4,130 -91,101 -133,-40 -133,32 -58,49 145,31 21,187 145,182 34,-1 55,17 76,18 93,4 74,-22 129,-31 29,-5 36,26 28,50 -27,77 37,56 -9,154 -32,69 -2,75 -15,119 -12,43 -84,13 -123,25 -57,18 -39,7 -81,50 -21,21 -107,58 -134,64 -28,6 -42,16 -69,28 -89,37 -82,45 -145,100 -31,28 -55,68 -89,89 -14,9 -20,21 -43,34 -57,32 -96,37 -161,45 -45,6 -94,22 -135,25 -26,1 -89,-20 -112,-9 -5,2 -53,19 -57,23 -12,11 -61,59 -68,71 -19,31 -24,57 -19,82 1,6 3,12 5,18l0 0c6,17 15,34 26,53 24,41 0,56 7,86l0 0c-20,-3 -78,-12 -96,-29 -22,-21 -42,-36 -65,-55 -57,-49 -28,-84 -81,-126 -49,-39 -42,-73 -65,-125 -9,-20 -13,-72 -43,-41 -33,33 -30,61 -56,98 -29,41 -25,40 -18,84 4,24 -28,41 -55,31 -82,-28 -92,11 -153,25 -66,16 -88,54 -136,-5 -21,-26 -48,-11 -48,-23 1,-16 62,-75 73,-67 19,13 41,-43 44,-55 11,-41 9,-18 25,-45 12,-20 25,-23 34,-35 23,-29 0,-50 -13,-71 -7,-11 -11,-31 -16,-31 -2,0 -60,72 -70,82 -54,51 -45,66 -121,113 -7,5 -18,12 -25,16 -22,14 -41,44 -52,47 -29,10 -6,-64 -3,-73 16,-45 -66,-21 -82,-58 -12,-27 -25,-27 -54,-30 -57,-5 -78,16 -90,-45 -14,-74 -52,-32 -114,-43 -49,-9 -76,65 -117,24 -27,-28 -50,-20 -74,-49 -26,-33 -20,-22 -56,-30 -84,-18 -62,11 -73,-74 -4,-34 -85,-12 -103,-5 -52,20 -61,22 -113,9 -35,-9 -37,-5 -65,9 -18,9 -41,33 -42,33 -6,2 -17,-52 -18,-57 -1,-37 -5,-75 -7,-111 -3,-73 3,-78 -25,-150l-5 -5c-26,-26 -69,-40 -102,-55 -108,-47 -262,-12 -284,-158 -3,-21 -33,-49 6,-57 28,-6 52,-20 65,-46 21,-41 17,-29 50,-43 66,-28 47,-45 76,-101 16,-33 32,-107 33,-142 2,-69 13,-47 -6,-122 -5,-14 -10,-31 -15,-43 -28,-67 21,-83 -2,-120 -63,-100 31,-64 -79,-137 -29,-19 -26,-43 -50,-50 -19,-6 -53,-48 -60,-67 -18,-45 -57,-7 -82,-39 -18,-23 -21,-44 -44,-74 -8,-3 -12,-5 -19,-9 -58,-31 -76,-42 -146,-36 -80,7 -94,-51 -110,-49 -36,4 -19,75 -59,65 -33,-8 -42,11 -57,5 -45,-16 -18,-44 -55,-81l0 0z"/>
  <path class="fil1 str0" d="M8476 13327c32,7 119,-56 148,-48 39,10 20,11 68,-3 101,-30 79,57 107,73 42,37 18,29 24,75 6,51 25,27 64,50 11,7 16,4 27,14 15,13 29,18 39,41 12,28 52,43 78,63 42,32 65,34 104,80 32,39 90,55 109,103 7,18 24,36 42,43l0 0c-29,45 -53,69 -82,110 -9,13 -39,62 -38,78 4,67 69,111 51,138 -19,28 -29,27 -42,67 -10,30 -14,101 22,118 23,11 37,26 62,39 17,9 18,12 30,26 14,53 41,143 -18,179 -15,9 -23,25 -51,42 -38,22 -51,50 -51,94 0,37 19,45 -25,56 -38,10 -62,-7 -46,31 27,66 92,-1 147,-1 35,0 51,11 90,-7 16,-7 50,-20 58,2 28,81 13,45 -47,84 -19,12 -24,18 -46,29 -17,9 -41,34 -25,56 1,2 2,3 3,5 25,26 31,39 51,60 17,19 52,-15 57,-39 9,-44 13,-34 53,-39 30,-4 13,31 72,20 11,-2 57,-8 61,6 5,16 14,86 8,100 -17,44 -93,59 -84,85 4,12 74,10 89,72 8,35 31,38 63,34 20,-3 54,2 74,4 82,16 66,24 121,69 19,16 42,38 56,58 9,13 51,52 69,52 39,0 46,-57 87,-47 6,2 31,28 53,38 29,13 52,29 84,43 99,41 -32,160 42,178 22,5 113,36 131,47 77,51 -39,107 22,177 16,19 25,32 25,58l0 0 -28 43c-11,15 -41,64 -58,68 -37,9 -29,-8 -66,28l-5 5c-94,93 -28,65 -53,134 -20,57 -120,42 -108,101 10,48 -38,27 -63,37 -46,18 -41,45 -86,1 -15,-15 -28,-37 -48,-33 -34,7 -69,23 -109,25 -46,2 -61,31 -80,69 -17,32 -90,61 -124,68 -84,18 -9,98 -38,135 -35,45 -16,23 -16,67 0,38 -15,65 -47,86 -69,45 -129,63 -189,127l-68 63 0 0c-51,-51 24,-101 -55,-121 -37,-10 28,-53 34,-78 2,-11 -18,-90 -22,-106 -11,-42 6,-51 -35,-53 -88,-4 -61,-41 -90,-42 -88,-2 -51,-28 -104,-59 -12,-7 -46,32 -57,42 -32,29 -39,-11 -36,-32 8,-51 -25,-39 -13,-63 29,-60 41,-52 18,-127 -21,-17 -34,-20 -35,-48 -4,-82 -67,-36 -88,-63 -17,-21 -11,-27 -34,-53 -22,-24 -1,-87 -25,-92 -35,-7 -69,44 -114,53 -65,14 -99,133 -159,46 -42,-61 -100,-35 -114,-77 -16,-47 -6,-41 -38,-87 -34,-49 -28,-105 -34,-114 -18,-31 -65,13 -78,22 -27,18 -32,24 -56,46 -64,59 -62,-21 -108,94l0 0c-5,-2 -10,-4 -16,-5 -62,-14 -70,-21 -92,-83 -25,-20 -37,-41 -57,-62 -57,-60 -55,-51 -60,-133 -3,-52 -96,-77 -118,-107 -20,-27 -45,-21 -77,-19 -47,3 -102,21 -129,-22 -41,-65 -43,-40 -93,-73 -23,-15 -56,-23 -74,-45 -34,-41 -81,-97 -73,-153 12,-83 0,-8 -45,-91 1,-20 -4,-33 -14,-49 -24,-41 -3,-58 27,-87 46,-46 -5,-46 -2,-81 4,-59 51,-51 38,-87 -15,-45 24,-70 38,-110 18,-52 66,-89 -17,-83 -87,6 -68,-32 -110,-42 -27,-7 -20,-74 -13,-95 33,-100 26,-25 -1,-114 -9,-12 -3,-44 2,-57 19,-54 -3,-36 -9,-58 -9,-31 42,-27 52,-60 13,-43 31,-39 62,-58 29,-19 76,-63 78,-99l0 0 108 11c49,-9 60,-8 106,-26 39,-15 77,-17 112,-43 30,-23 39,-23 70,-38 31,-16 59,-68 85,-48 63,49 89,29 139,64 34,24 31,41 83,27 52,-13 48,-5 90,-8 36,-3 61,-33 96,-13 45,26 57,-52 143,0 31,19 69,17 103,27 27,8 67,11 42,-31 -26,-44 -33,-94 -34,-145 -1,-25 21,-52 40,-65 13,-9 29,-21 41,-30 82,-37 40,-42 58,-62 0,0 61,-21 72,-29 24,-18 34,-5 43,-38 11,-38 34,-37 13,-95 -17,-49 -18,-59 -72,-72 -29,-7 -52,-35 -90,-44 -25,-6 -73,-28 -63,-59 8,-25 46,-5 13,-66 -8,-15 -7,-42 -7,-59l0 0z"/>
  <path class="fil1 str0" d="M12991 11143c44,63 42,29 98,48 55,18 45,58 72,105 45,77 25,57 97,111 53,40 40,90 67,140 37,67 -11,103 -18,169 -4,40 -6,72 15,108 14,24 7,19 28,43 9,10 38,52 41,63l2 5c32,77 23,54 26,136 2,40 13,82 13,127 0,38 -17,152 25,166 35,12 114,44 135,72 28,36 39,56 41,103 2,70 21,76 63,122 20,22 27,68 47,100 34,27 31,30 55,55 49,49 76,49 140,55 110,12 69,50 107,101 28,37 82,29 122,33 42,5 51,5 94,15 46,10 84,-17 117,-43 25,-19 110,-57 141,-57 56,0 52,1 108,-15 122,-35 104,68 211,95 58,22 74,26 126,56 42,25 132,32 83,92 -37,45 -66,102 -18,151 22,22 47,31 70,52 40,37 89,55 128,86 48,38 103,-1 149,-21 26,-11 104,-66 119,-17 34,113 230,31 245,101 2,12 1,36 -1,47 1,30 -2,49 0,77 3,38 54,61 81,80 37,26 69,36 104,60 2,2 13,16 15,18l0 0c22,5 59,5 79,-8 71,-46 37,9 123,-25 49,-19 27,-18 86,-9 7,1 15,4 22,5 38,55 20,43 69,46 40,3 12,70 49,87 26,12 3,80 38,112 24,22 91,-20 109,-37 15,-14 52,-52 56,-14 4,30 23,48 49,59 20,8 58,35 64,56 9,33 44,60 57,93 21,32 26,58 44,89 24,40 74,18 111,23 15,2 149,-1 165,-2 59,-6 67,2 111,-45 31,-32 49,-76 92,-103 85,-55 39,-20 121,-22 40,-1 85,-5 114,26 46,49 134,13 146,97 5,36 31,16 39,81 9,68 47,-16 82,-22 81,-14 88,48 173,48 5,0 11,0 16,0 54,-6 51,6 97,10 92,8 122,5 211,-12 56,-11 75,-8 131,-33 19,-9 100,-39 91,10 -8,42 -11,116 19,149 53,59 24,37 48,98 4,10 34,44 46,67 4,8 18,40 23,46 70,80 57,36 130,74 14,7 26,53 56,77 48,39 48,32 107,49 50,15 51,-74 101,-59 39,12 38,7 75,33 17,12 40,10 64,22 45,22 120,-34 150,-36l0 0c28,-18 46,-18 79,-24 38,-6 73,12 97,-23 20,-30 -40,-132 -60,-160 -52,-72 -53,-53 -30,-151l-2 -9c-18,-53 -62,-87 -113,-105 -74,-27 -43,-46 -79,-86 -45,-51 -11,-120 -64,-122 -71,-3 -77,-3 -98,-78 -8,-27 -11,-81 -26,-99 -10,-13 -74,-36 -102,-68 -48,-56 -68,-90 -75,-165l0 0c-8,-8 -48,-87 -56,-103 -12,-26 -12,-58 -38,-57 -79,3 -47,54 -99,90 -43,30 -62,47 -112,18 -40,-23 -99,-60 -146,-64 -75,-6 -69,-77 -106,-93 -22,-10 -28,-40 -23,-62 17,-70 -55,-34 -37,-99 9,-35 -18,-71 -39,-96 -19,-23 -18,-30 -16,-58 3,-50 33,1 17,-102 24,-69 102,-182 152,-238 37,-42 75,-72 14,-103 -203,-104 4,-212 -235,-212 -75,0 -39,-62 -88,-114 -56,-58 13,-69 29,-133 16,-62 13,-32 35,-76 30,-57 135,-9 133,-63 -2,-58 40,36 54,21 29,-34 -27,-40 93,-123 27,-10 52,-18 61,-49 18,-62 114,-15 126,-90 18,-110 98,-74 76,-161 -7,-27 -91,-99 -116,-119 -56,-45 -34,-79 -65,-102 -38,-27 -49,-86 -47,-128 6,-128 -120,-29 -175,-39 -119,-23 -76,-80 -95,-157 -28,-112 -99,-107 -96,-245 2,-72 -55,-97 -72,-133 -30,-61 -11,-46 -65,-126 -9,-23 -19,-38 -15,-64 11,-66 25,-119 85,-154 46,-27 113,-67 111,-130 -3,-124 58,-123 18,-252 -5,-17 20,-136 28,-144 28,-30 50,-115 76,-162 20,-36 47,-72 17,-101 -60,-60 43,-99 42,-118 -2,-44 -7,-74 -4,-121 -14,-40 -26,-49 -54,-74 -52,-47 -153,47 -179,-90 -11,-59 -41,-150 -84,-193 -81,-81 -40,-94 -73,-141 -42,-58 -51,-62 -53,-101 -1,-14 0,-32 0,-58 0,-134 -170,-92 -273,-160 -26,-17 -25,-48 -40,-60 -112,-83 -51,-70 -89,-129 -57,-89 -92,-8 -33,-154 2,-77 -29,-106 -99,-128 -52,-16 -76,2 -116,-15 -90,-40 -57,-145 -145,-215 -76,-61 -54,-100 -110,-164 -38,-43 -77,-42 -86,-64l0 0c-11,11 -38,48 -38,63 -1,60 12,17 -9,95l-2 3c-42,57 -30,91 -107,126 -67,30 -41,65 -89,83 -74,27 -26,115 -8,164 16,43 -16,76 -3,102 25,53 25,53 27,115 8,29 18,62 40,84 16,17 8,66 53,57 60,-12 104,-33 153,-68 56,-40 75,11 93,58 14,38 59,102 91,128 30,25 50,71 46,110 -5,48 -9,90 -11,138 -1,32 -6,50 -11,82 -41,7 -57,29 -90,44 -76,33 -65,-6 -115,-4 -67,3 -65,27 -118,-27 -50,-51 -73,7 -99,-40 -14,-25 -33,46 -39,60 -23,51 -23,88 -42,137 -8,21 -16,84 -13,105 3,18 -2,31 -1,45 1,34 -4,112 6,139 4,11 -1,21 -10,30 -47,48 54,48 75,78 21,30 37,64 23,101 -14,35 5,50 -7,65 -2,2 -51,8 -58,9 -48,9 -55,-5 -78,-5 -48,1 -32,1 -70,-15 -28,-12 -37,-38 -53,-54 -27,-28 -23,-30 -67,-40l-2 -1c-1,0 -79,-12 -80,-12 -60,3 -65,51 -90,78 -48,52 -75,65 -143,67 -40,1 -144,-55 -144,11 0,29 -23,44 -45,33 -31,-16 -74,-18 -97,-30 -52,-26 -101,-31 -159,-20 -50,10 -49,12 -100,12 -73,0 -85,-19 -142,42 -7,19 -24,35 -37,50 -18,20 -47,45 -37,72 26,63 29,68 19,135 -5,31 8,79 -19,89 -53,20 -85,33 -142,44 -11,2 -85,-21 -96,-25 -92,-42 -96,49 -180,47 -57,-1 -26,-1 -53,48 -29,52 23,52 23,102 0,30 3,26 -3,54 -13,53 -79,172 -136,185 -26,6 -50,12 -76,21 -27,14 -74,20 -80,48 -3,11 -9,95 -7,105 10,54 -86,11 -97,-4 -24,-32 -73,-42 -100,-66 -17,-15 -119,-24 -143,-23 -47,1 -97,-52 -117,-2 -17,44 -12,83 -33,135 -14,33 -81,28 -113,28 -53,0 -62,24 -102,-6 -11,-8 -12,-13 -20,-22 -36,-38 -49,-44 -80,-91 -25,-37 -49,-67 -78,-102l0 0 -91 21c-58,6 -27,50 -42,75 -28,46 -16,75 -88,84 -49,7 -62,-8 -88,-8 -111,2 -79,77 -162,45 -30,-12 -25,-30 -45,-10 -21,20 -66,24 -60,51 10,40 -14,41 -16,72 -4,78 42,45 5,130l0 0z"/>
  <path class="fil1 str0" d="M12991 11143c38,-85 -8,-51 -5,-130 2,-31 26,-31 16,-72 -7,-27 39,-31 60,-51 20,-19 16,-1 45,10 82,32 51,-43 162,-45 25,0 38,15 88,8 72,-10 60,-38 88,-84 15,-24 -16,-69 42,-75l91 -21 0 0c-4,-14 -11,-28 -24,-35 -16,-9 -23,-26 -30,-32 -21,-19 -39,-80 -32,-107 5,-19 -18,-80 -21,-107 -4,-30 -12,-50 -17,-80 4,-21 4,-33 3,-54 -1,-42 53,-96 85,-121 76,-61 -6,-38 -36,-64 -28,-25 -41,-24 -74,-38 -25,-11 -84,-17 -113,-18 -39,-2 -90,-42 -112,-73 -26,-37 -59,-108 -94,-136 -112,-87 -18,-61 1,-135 17,-64 47,-95 94,-142 6,-8 11,-12 17,-22 34,-49 -32,-79 -68,-98 -44,-23 -23,-67 7,-87 33,-23 29,-54 7,-83 -33,-44 -73,-74 -95,-129 -11,-27 -11,-65 -28,-83 -31,-33 -28,-69 -37,-79 -31,-34 -44,-39 -72,-82 -50,-47 -74,-40 -133,-50 -126,-21 -88,-52 -151,-76 -62,-24 -64,-28 -89,-93 -14,-35 -60,-80 -87,-112 -31,-36 -104,-68 -149,-81 -38,-10 -51,-60 -86,-71 -58,-17 -45,-46 -80,-68 -47,-28 -29,1 -83,-49 -32,-18 4,-50 -41,-95 -41,-41 -23,-40 -44,-72 -34,-52 -113,90 -138,107 -16,12 -29,4 -42,-2 -63,-29 -40,-39 -68,-79 -13,-19 -72,-46 -95,-57 -33,-16 -70,-40 -85,14 -11,41 -37,51 -53,78 -6,10 4,67 -34,66 -46,-1 -89,7 -135,12 -95,10 -32,-101 -128,-116 -52,-8 -138,-36 -182,-67 -32,-23 -92,-78 -104,-116 -12,-40 -23,-51 -14,-99 0,-40 -6,-131 -18,-171 -9,-30 -11,-30 -22,-56 -14,-33 -53,-64 -62,-85 -29,-63 -31,-76 -80,-124 -5,-5 -109,-71 -115,-73 -54,-21 -63,-78 -98,-101 -63,-39 -51,-7 -103,-78l-3 -1c-69,-45 -58,-33 -133,-55 -62,-18 -77,-32 -124,-71 -41,-35 -34,-53 -91,-72 -32,-11 -44,-15 -74,-30 -62,-29 -52,-66 -130,-26 -32,17 -131,59 -165,66 -59,13 -110,40 -165,1l0 0 -86 87c-37,29 -71,70 -71,120 0,77 -20,51 -35,111 -7,27 48,21 68,26 15,4 53,13 54,31 1,26 2,38 -9,64 -18,43 32,88 -75,119 -12,4 -51,20 -56,31 -2,43 -9,77 -28,115 -22,43 -17,101 -30,142 -2,7 23,62 23,90 0,17 34,33 49,52 24,33 39,100 23,138 -16,38 -58,49 -95,47 -7,0 -74,30 -101,33 -30,4 -74,38 -69,73 1,8 2,15 3,23 5,70 -6,49 -32,107 -23,52 -31,146 -40,204 -2,17 -29,122 -39,128 -7,4 -56,4 -74,8 -50,10 -91,-32 -93,65 0,22 -7,49 -4,72 2,9 1,94 1,109l-31 68 0 0c38,45 38,53 49,106 8,39 52,55 82,76 35,25 66,15 84,74 1,3 7,16 9,20 21,76 -11,65 -17,131 -2,21 25,96 40,109 24,21 41,49 57,76 35,58 26,51 37,114 8,44 52,42 82,69 61,54 9,95 42,173 20,46 15,42 47,86 6,8 24,40 27,42 29,32 24,34 53,60 33,30 60,66 48,112 -11,42 1,87 47,98 37,8 81,16 101,53 1,2 3,4 5,6l-3 -3c30,-28 25,-22 58,-21 51,2 54,114 124,8 15,-22 41,-55 69,-55 75,0 96,-4 170,-19 18,-4 64,-6 56,24 -6,23 -30,67 -3,83 18,11 41,57 44,79 3,22 12,49 15,75 5,39 38,54 41,114 1,22 18,53 19,65 13,31 36,70 29,104 -4,19 16,132 25,143 20,24 83,22 122,48 36,23 45,27 70,64 20,29 112,65 141,107 50,71 47,76 128,115 38,19 7,44 -5,82 -9,28 -4,45 -10,77 -2,11 -2,22 -4,32 44,81 29,112 44,191 7,40 -34,98 -20,136 31,86 -14,69 -15,159 -1,83 93,82 71,162 -8,28 -13,61 -20,90 18,93 49,170 61,268 10,82 42,139 106,191 45,36 61,48 93,100 39,63 55,69 122,95 20,8 -35,25 -10,95 2,6 10,29 11,34 17,51 5,34 10,64 4,24 25,10 1,71 -1,2 -5,46 -5,51l0 0c55,12 64,3 106,36 62,49 18,48 112,53 52,3 40,27 105,-2 44,-20 74,-29 122,-21 50,9 118,-42 139,1 2,5 18,10 27,8 21,-6 55,-12 73,-22 43,-24 64,-28 100,-69 23,-27 38,-46 54,-79 11,-22 35,-75 66,-63 32,13 74,-18 94,-40 25,-27 70,-44 98,-11 22,26 56,31 87,36 30,-3 80,-5 82,-46 0,-3 -17,-32 -20,-50 -11,-72 -20,-35 -1,-115 18,-77 -15,-157 101,-176 50,-8 48,-7 98,-28 59,-25 75,-30 87,-93 6,-32 25,-53 45,-76 12,-13 65,-56 54,-80 -6,-14 15,-61 4,-89 -7,-19 -6,-95 -20,-132 -16,-42 -43,-41 -69,-70 -20,-22 -27,-19 -38,-56 -6,-21 -34,-51 -52,-63 -25,-16 -77,-73 -95,-98 -21,-29 -19,-49 -37,-81 -17,-31 -22,-52 -23,-88 32,-68 37,-60 89,-103 51,-42 -24,-87 -39,-134 -22,-69 1,-60 39,-115 20,-29 13,-69 38,-85 48,-30 14,-103 100,-101 39,1 41,-8 90,-1 69,11 84,-36 151,-56 5,-2 9,-3 15,-4l91 -21 0 0z"/>
  <path class="fil1 str0" d="M9285 13818c-29,45 -53,69 -82,110 -9,13 -39,62 -38,78 4,67 69,111 51,138 -19,28 -29,27 -42,67 -10,30 -14,101 22,118 23,11 37,26 62,39 17,9 18,12 30,26 14,53 41,143 -18,179 -15,9 -23,25 -51,42 -38,22 -51,50 -51,94 0,37 19,45 -25,56 -38,10 -62,-7 -46,31 27,66 92,-1 147,-1 35,0 51,11 90,-7 16,-7 50,-20 58,2 28,81 13,45 -47,84 -19,12 -24,18 -46,29 -17,9 -41,34 -25,56 1,2 2,3 3,5 25,26 31,39 51,60 17,19 52,-15 57,-39 9,-44 13,-34 53,-39 30,-4 13,31 72,20 11,-2 57,-8 61,6 5,16 14,86 8,100 -17,44 -93,59 -84,85 4,12 74,10 89,72 8,35 31,38 63,34 20,-3 54,2 74,4 82,16 66,24 121,69 19,16 42,38 56,58 9,13 51,52 69,52 39,0 46,-57 87,-47 6,2 31,28 53,38 29,13 52,29 84,43 99,41 -32,160 42,178 22,5 113,36 131,47 77,51 -39,107 22,177 16,19 25,32 25,58l0 0c41,-32 26,-24 51,-52 38,-43 24,-99 99,-114 17,-4 79,-7 87,-11 41,-21 26,-46 48,-77 16,-22 29,-50 49,-69 27,-35 63,-81 107,-94 44,-13 78,-77 92,-80 19,-5 25,11 73,-14 42,-22 49,-115 99,-85 10,6 26,47 49,68 17,15 18,23 43,38 36,21 61,21 100,42 49,26 41,37 67,79 20,32 52,139 58,178 4,26 -24,36 -41,52 -16,15 -53,34 -73,46 -38,30 -39,39 -28,81 4,13 18,43 23,60 9,33 19,52 36,81 18,32 -23,70 38,114 46,34 33,111 100,75 77,-41 80,50 118,93 33,37 16,55 24,99 8,42 -1,87 -2,129l0 5c4,14 15,78 33,87 35,18 54,2 101,29 54,31 29,-36 56,-49 16,-7 73,-22 90,-16 14,5 38,-7 19,34 -7,15 -30,99 -21,110 10,13 79,-24 102,-24 49,0 146,4 186,-21 59,-36 74,-94 133,-116 44,-17 28,-16 76,-5 56,13 150,13 183,66 21,35 60,13 83,86 7,23 14,36 36,47l49 52 0 0c10,-28 31,-59 46,-66 62,-29 70,-113 102,-161 33,-49 38,-18 72,-101 7,-17 45,-34 78,-45 -22,-27 -88,-94 -96,-123 -15,-54 61,-44 62,-101 1,-30 13,-114 56,-108 24,4 22,51 30,75 24,76 29,38 83,52 16,4 71,49 91,12 5,-9 -13,-35 -18,-48 -16,-39 -18,-67 -17,-108 1,-45 44,-52 52,-122 4,-36 6,-44 15,-78 4,-15 -1,-27 -16,-32l-19 -4c-51,7 -36,13 -75,28 -15,6 -130,14 -138,-12 -16,-47 22,-55 -29,-66 -29,-7 -37,-92 -31,-115 9,-38 18,-39 27,-67 10,-32 48,-103 89,-71 19,15 38,4 71,33 25,22 49,24 78,55 19,20 69,36 96,35 8,0 85,10 38,-18 -34,-20 -51,-28 -69,-67 -10,-22 36,-55 25,-94 -8,-28 16,-73 15,-84 -1,-29 -8,-40 -34,-55 -23,-13 -43,-10 -71,-36 -22,-20 -24,-44 -26,-74 -3,-55 65,-43 95,-24 11,7 78,20 62,-12 -10,-21 -27,-41 -27,-64 -1,-2 -17,-58 -26,-92 -6,-21 12,19 48,-13 24,-21 32,-26 48,-55 10,-19 85,-35 103,-97 9,-31 11,-11 8,-48 -2,-31 10,-83 41,-95 25,-10 105,-56 110,-83 8,-51 -11,-32 34,-69 34,-28 17,-85 61,-109 37,-20 35,61 139,-11 15,-10 64,-37 79,-42 17,-16 76,-79 104,-70 64,20 38,91 106,65 66,-26 65,9 114,49 74,61 73,-40 110,-81 20,-22 27,-30 52,-47 34,-23 133,-75 172,-60 49,18 61,35 121,4 80,-41 100,-58 169,-115 28,-24 83,-59 117,-73 53,-70 44,-66 132,-62 15,1 43,21 70,22 25,1 26,36 94,-3 38,-22 34,-89 104,-56 54,26 79,3 123,-30 30,-22 32,-42 61,-58 64,-36 34,-104 121,-73 35,13 91,12 93,-37 2,-35 19,-77 61,-68l0 0c-2,-2 -13,-17 -15,-18 -35,-25 -67,-35 -104,-60 -27,-19 -78,-42 -81,-80 -2,-29 1,-47 0,-77 2,-12 4,-36 1,-47 -15,-70 -210,12 -245,-101 -15,-49 -93,5 -119,17 -46,20 -102,59 -149,21 -39,-31 -88,-50 -128,-86 -23,-21 -49,-30 -70,-52 -48,-49 -19,-106 18,-151 49,-60 -40,-67 -83,-92 -52,-30 -68,-34 -126,-56 -107,-26 -89,-130 -211,-95 -57,16 -53,15 -108,15 -31,0 -117,37 -141,57 -33,26 -72,53 -117,43 -43,-10 -52,-10 -94,-15 -40,-4 -94,4 -122,-33 -39,-51 3,-89 -107,-101 -65,-7 -92,-7 -140,-55 -25,-25 -22,-28 -55,-55 -20,-32 -27,-78 -47,-100 -42,-46 -61,-52 -63,-122 -2,-48 -13,-67 -41,-103 -22,-28 -100,-61 -135,-72 -42,-14 -25,-128 -25,-166 0,-45 -12,-87 -13,-127 -3,-83 5,-60 -26,-136l-2 -5c-4,-11 -33,-53 -41,-63 -21,-24 -14,-19 -28,-43 -21,-36 -20,-68 -15,-108 7,-66 54,-102 18,-169 -28,-51 -14,-101 -67,-140 -72,-54 -52,-34 -97,-111 -28,-47 -17,-87 -72,-105 -56,-19 -54,15 -98,-48l0 0 -91 21c-5,1 -9,3 -15,4 -67,20 -82,67 -151,56 -49,-8 -51,1 -90,1 -87,-1 -52,71 -100,101 -25,16 -19,56 -38,85 -38,55 -60,47 -39,115 15,47 90,92 39,134 -52,43 -56,35 -89,103 2,36 6,56 23,88 18,32 16,53 37,81 18,25 70,81 95,98 18,12 45,42 52,63 11,37 19,33 38,56 26,29 53,28 69,70 14,37 12,113 20,132 11,28 -9,75 -4,89 10,25 -42,68 -54,80 -21,23 -40,44 -45,76 -11,63 -27,68 -87,93 -49,21 -47,19 -98,28 -116,19 -83,99 -101,176 -19,81 -11,43 1,115 3,18 20,47 20,50 -2,41 -51,43 -82,46 -31,-6 -65,-11 -87,-36 -28,-33 -73,-16 -98,11 -20,21 -62,53 -94,40 -30,-13 -55,41 -66,63 -16,33 -30,52 -54,79 -35,41 -57,45 -100,69 -18,10 -53,17 -73,22 -8,2 -24,-3 -27,-8 -21,-44 -89,7 -139,-1 -48,-8 -77,2 -122,21 -65,29 -53,5 -105,2 -94,-5 -50,-4 -112,-53 -42,-33 -50,-24 -106,-36l0 0 -87 7c-12,1 -26,6 -36,11 -59,31 -36,46 -62,90 -27,45 -8,39 -19,94 -9,47 -6,45 -38,73 -42,36 -21,73 -25,93 -9,45 -43,32 -47,51 -15,64 -76,63 -84,88 -11,32 -33,68 -72,69 -34,1 -61,0 -96,3 -62,5 -50,-7 -105,35 -7,3 -14,11 -20,16 -77,78 -83,-9 -128,-17 -54,-9 -67,37 -91,61 -95,96 -91,-48 -137,24 -20,31 -61,69 -99,75 -38,6 -66,18 -107,25 -44,8 -104,15 -136,-25 -50,-63 -95,-31 -124,-69 -29,-39 -71,-33 -101,-46 -60,-26 -54,-95 -131,-105 -31,-4 -63,-10 -93,-13l0 0z"/>
  <path class="fil1 str0" d="M3645 7018l116 -13c47,14 55,13 77,52 22,38 70,24 109,90 16,27 15,39 42,64 18,17 19,63 67,98 16,12 28,44 20,66 -11,28 -22,63 6,83 26,19 7,53 1,80 -5,22 -9,49 -11,72 15,34 19,60 34,93 3,6 23,20 33,36 28,43 101,66 148,42 23,-12 80,-42 105,-30 31,15 14,5 40,28 16,15 68,18 97,32 38,18 101,31 91,86 -3,17 -8,87 8,98 8,6 31,15 47,25 11,7 25,14 38,15 32,-12 37,-21 54,-27 18,-7 44,-2 59,10 25,21 56,27 86,9 25,-16 -3,-66 2,-97 7,-44 21,-25 21,-100 0,-44 -8,-78 -40,-110 -39,-38 -34,-43 -45,-95 -18,-80 -35,-146 -5,-227l2 -8c43,-60 16,-62 28,-117 4,-17 40,-34 56,-49 34,-33 66,-43 98,-89 8,-11 61,-74 69,-81 26,-23 49,-55 85,-50 35,5 103,-22 111,9 10,35 13,90 47,106 42,20 75,20 92,71 7,20 23,40 31,66 10,33 9,36 17,68 11,48 43,5 98,34 24,13 52,27 73,44 58,45 74,2 131,19 59,17 61,126 138,173 63,44 94,75 170,97 54,15 42,53 65,93 18,31 47,23 80,26 72,8 51,5 86,63 17,29 58,45 89,34 70,-26 65,-18 101,34 12,17 24,1 54,48 25,40 76,1 132,15 37,9 73,16 109,31 54,23 73,17 127,18 43,1 98,18 121,57 8,14 12,21 22,34 71,77 58,70 157,103 62,21 52,25 94,67 27,27 77,-1 117,1 28,1 66,-16 74,-47 9,-39 31,-66 72,-72 26,-4 55,5 64,31 9,25 42,42 70,29 47,-22 80,-64 119,-77 82,-26 93,-160 97,-230 1,-8 4,-20 7,-28 9,-46 -6,-26 -12,-41 -5,-13 74,-59 35,-106 -18,-21 -23,-62 -13,-89 6,-15 11,-35 17,-51 7,-51 -6,-38 -22,-73 -13,-29 58,-43 20,-122 -30,-61 -2,-74 -62,-136 -10,-10 -62,-74 -49,-83 9,-7 32,2 63,-11 37,-16 58,-21 69,-63 1,-5 4,-12 8,-15 21,-52 13,-38 15,-84 1,-13 7,-79 20,-83 45,-15 102,-81 126,-122 31,-54 24,-80 88,-109 13,-6 53,-49 70,-62 20,-15 45,-34 68,-46l43 -46 0 0 0 -2c13,-49 -29,-86 -26,-140 4,-56 16,-80 50,-122 48,-59 3,-62 -4,-106 -9,-59 -14,-39 -43,-37 -30,2 -45,6 -72,17 -65,26 -74,26 -117,-31 -18,-24 -2,-42 -20,-37 -26,8 -53,22 -82,32 -12,3 -30,0 -41,-5 -58,-28 18,-63 -64,-70 -31,-3 -46,-15 -72,-11 -62,9 -40,-28 -83,-45 -38,-14 -142,84 -190,87 -49,2 -53,-13 -91,-33 -66,-35 7,-113 -97,-102 -80,8 -22,-46 -96,-64 -59,-15 -30,-61 -96,-33 -131,56 -79,-36 -95,-70 -13,-29 6,-62 19,-88 10,-20 -74,-8 -85,-3 -72,34 -39,-48 -53,-69 -18,-27 -6,-48 -31,-66 -42,-30 2,-49 -24,-57 -38,-12 -41,-5 -84,-25 -31,-13 -71,-29 -96,-52 -33,-31 -103,-35 -147,-35 -28,0 -43,-32 -53,-54 -13,-28 -82,10 -109,19 -54,16 -104,44 -160,51 -9,1 -82,-14 -91,-18 -34,-18 -41,-55 -33,-90 11,-46 -98,-81 -88,-113 13,-44 20,1 28,-81l-1 -6c-12,-69 -31,-60 -76,-97 -22,-18 -47,-27 -64,-44 -26,-26 -53,-142 -66,-183 -9,-30 -27,-143 -28,-177 -1,-41 -15,-51 -30,-83 -28,-59 -32,-96 24,-135 34,-24 64,-55 94,-75 31,-21 61,-64 100,-67 37,-3 72,-12 93,-48 22,-38 79,70 91,85 14,19 23,58 36,67 18,13 14,14 24,23 27,24 14,67 11,96 -3,28 15,26 39,34 15,5 52,2 68,1 46,-3 60,-4 106,-23l9 -3c55,-28 116,-31 169,-60 5,-3 70,-36 70,-36 25,-7 27,-8 53,-18 71,-28 40,-20 76,-69 42,-56 59,-17 85,-44 21,-21 47,-41 79,-33 43,10 46,8 88,-1 75,-17 53,-37 99,20 16,19 53,11 74,4 46,-15 62,-25 92,-68 12,-11 20,-26 29,-40 22,-34 18,-74 49,-95 35,-24 44,-79 53,-118 12,-54 -2,-48 -1,-81 2,-67 69,-37 82,-84 12,-41 81,-42 112,-28 51,24 86,-21 104,-64 11,-27 35,-52 56,-71 10,-16 12,-27 16,-45 9,-45 -8,-55 -14,-86 -10,-58 -11,-62 -54,-107 -21,-22 -28,-56 -4,-78 24,-22 51,-73 19,-99 -59,-46 -42,-58 -75,-94 -25,-27 -9,-61 -22,-73 -20,-19 -19,-20 -39,-47 -19,-43 -20,-63 -32,-105 -13,-43 -12,-104 -19,-147 -9,-53 -3,-84 4,-135 10,-71 56,-106 56,-178 0,-66 -26,-48 -14,-124l14 -98 0 0c-27,27 -155,1 -199,16 -31,11 -58,23 -89,34 -53,19 -92,-7 -133,25 -37,28 -81,48 -129,48 -30,0 -79,-25 -98,-48 -22,-28 -64,-50 -54,-93 11,-50 -64,-66 -66,-69 -38,-48 43,-72 -44,-60 -23,1 -42,1 -65,1 -51,0 -101,-17 -144,20 -42,36 -56,22 -102,42 -49,22 -59,12 -103,18 -82,11 -100,82 -166,72 -31,-5 -25,-9 -64,-9 -56,0 -107,-13 -160,-12 -29,0 -98,-24 -112,-21 -13,3 -55,34 -66,43 -39,34 -67,64 -110,97 -21,22 -46,49 -69,67 -56,43 -94,30 -130,103 -17,34 -58,60 -96,59 -42,-1 -90,77 -124,98 -61,38 -41,78 -43,139 -2,44 -39,81 -33,101 22,74 52,57 -1,133 -31,31 -24,28 -43,62 -47,82 -99,65 -121,92 -55,71 -122,14 -194,44 -83,33 -106,-32 -156,8 -54,42 -107,79 -178,66 -38,-7 -75,-5 -111,-5 -26,0 -82,-10 -85,29 -3,29 4,22 -5,64 -2,9 -4,15 -4,24 -1,22 -9,63 -15,85 -16,54 -70,59 -92,82 -17,18 -23,22 -39,38 -26,25 -64,37 -80,61 -21,31 -40,48 -76,58 -44,12 -65,78 -88,104 -38,42 -70,34 -96,62 -23,25 -63,56 -95,66 -32,10 -37,16 -65,40 -55,40 -58,66 -124,90 -31,11 -17,8 -46,9 -33,1 -50,-47 -62,-57 -15,-13 -32,-45 -40,-53 -4,-4 -43,-63 -47,-71 -9,-15 -80,-35 -101,-43 -73,-29 -134,-86 -217,-93 -36,-3 -66,-17 -90,13 -24,31 -39,58 -68,87 -11,11 -31,32 -34,47 -13,64 -44,77 -103,102 2,3 33,61 34,73 2,30 19,67 46,80 62,29 28,48 75,72 16,8 64,38 74,52 33,42 56,42 80,70 25,28 7,51 44,62 23,7 67,32 72,58 2,13 4,42 7,51 19,165 35,60 71,169 15,47 32,54 66,89 57,60 73,79 54,165 -16,72 -97,127 -105,203 -3,26 -5,69 -12,92 7,86 -21,117 -22,186 -1,66 48,-24 86,-17 27,5 6,78 53,72 64,-8 77,-22 61,38 -9,36 10,34 -45,30 -39,-3 -7,80 -26,85 -13,3 -12,51 -18,64 -12,11 -26,35 -45,79 -21,49 -53,-16 -106,40 -65,69 17,100 -60,137 -81,38 84,109 -92,216 -50,30 -34,19 -66,68 -16,25 -27,53 -40,80l0 0c13,22 30,54 50,71 6,5 26,36 38,48 27,27 37,39 69,64 23,19 52,48 76,64 28,19 28,51 62,53 68,4 10,77 74,120 36,25 42,47 43,88 6,52 -1,58 31,93 20,23 72,66 72,97l0 0z"/>
  <path class="fil1 str0" d="M3772 10284l113 26c2,1 53,17 61,14 38,-16 44,-39 66,-70 26,-36 72,-35 108,-19 39,17 84,-4 111,42 5,9 53,63 60,69 16,13 72,15 109,43 6,4 -2,35 6,57 29,81 31,15 101,53 5,3 11,12 14,16 11,38 31,74 69,89 56,22 121,-23 172,36 25,29 21,13 55,29 32,15 32,34 71,51 49,21 9,71 38,87 27,14 87,-52 126,67 9,28 134,164 159,184 21,18 42,38 64,58l2 2c25,11 52,31 79,42 16,6 26,43 26,60 -1,31 36,41 52,68 7,12 32,40 49,23 9,-9 19,-56 33,-78 7,-11 28,-60 32,-74 5,-18 15,-64 36,-69l0 0c19,-63 2,-37 4,-82 0,-9 0,-40 -3,-47 -6,-15 -10,-39 -20,-59 -9,-18 -19,-70 12,-70 50,0 54,-40 92,-68 17,-13 29,-24 49,-26 17,-2 68,-78 106,-30 16,21 1,35 43,54 50,-5 38,-10 68,-34 36,-29 58,-98 108,-38 21,26 45,25 62,-6 36,-64 108,18 118,-63 8,-62 42,17 92,-25 31,-26 -3,-82 56,-52 32,16 56,7 63,-28 8,-39 55,-45 87,-66 24,-15 69,-40 95,-47 36,-19 49,-33 52,-75 4,-53 -7,-48 43,-77 45,-26 22,-75 74,-120 30,-26 62,-14 102,-25 61,-16 80,-40 148,-51 45,-7 93,5 125,38 17,18 28,22 50,33l52 46 0 0c57,-7 29,1 60,24 24,18 70,-10 108,-10 14,0 72,-4 50,-29 -19,-21 -27,-8 -27,-55 0,-51 22,-21 8,-93 -7,-36 33,-55 44,-83 7,-19 14,-26 18,-49 7,-41 61,-55 35,-82 -17,-18 -32,-77 -32,-101 0,-43 -6,-68 -9,-109 -3,-43 -31,-85 -58,-116 -10,-12 -49,-78 -48,-93 1,-17 -17,-80 -25,-97 -22,-43 8,-76 17,-114 2,-10 6,-30 9,-37l1 -3c71,-29 74,-22 140,-19 80,4 55,8 78,70 13,35 48,12 85,48 36,36 76,-29 102,-51 21,-17 56,-64 78,-87 29,-30 20,-55 80,-65 41,-7 58,-61 111,-33 21,11 15,46 66,63 22,7 75,43 91,60 43,48 65,44 126,22 20,-25 68,-71 107,-56 16,6 92,-29 134,-29 32,0 63,-1 95,-1l88 -6 0 0 31 -68c0,-16 0,-100 -1,-109 -4,-23 3,-50 4,-72 2,-98 44,-55 93,-65 19,-4 68,-4 74,-8 10,-6 36,-111 39,-128 8,-58 16,-152 40,-204 26,-58 37,-37 32,-107 0,-9 -1,-15 -3,-23 -5,-34 39,-69 69,-73 27,-3 93,-33 101,-33 37,2 79,-10 95,-47 16,-38 1,-106 -23,-138 -14,-19 -49,-35 -49,-52 0,-28 -25,-83 -23,-90 13,-41 8,-99 30,-142 19,-38 26,-72 28,-115 5,-11 44,-27 56,-31 106,-32 57,-76 75,-119 11,-26 10,-37 9,-64 -1,-18 -39,-27 -54,-31 -20,-5 -75,1 -68,-26 15,-61 35,-35 35,-111 0,-50 33,-90 71,-120l86 -87 0 0c-21,-15 -26,-55 -23,-78 13,-85 -75,-28 -89,-90 -16,-70 -78,-13 -115,2 -49,20 -97,46 -145,70 -38,19 -38,26 -88,39 -34,11 -100,43 -131,39 -35,-4 -77,-10 -86,-48 -4,-18 -18,-67 -19,-81 -4,-53 -91,44 -112,49 -59,13 -45,-60 -45,-90 0,-27 -18,-77 -37,-96 -32,-31 -9,-59 -8,-84 1,-16 18,-45 3,-44 -40,2 -84,1 -124,8 -31,5 -56,8 -88,7l0 0 -43 46c-23,11 -47,30 -68,46 -17,13 -57,57 -70,62 -64,29 -57,54 -88,109 -23,41 -81,107 -126,122 -13,4 -20,71 -20,83 -2,45 5,32 -15,84 -4,3 -7,10 -8,15 -11,42 -32,47 -69,63 -31,13 -53,5 -63,11 -13,10 40,73 49,83 60,61 32,74 62,136 38,78 -33,93 -20,122 16,35 29,22 22,73 -5,16 -11,36 -17,51 -10,27 -4,68 13,89 39,47 -41,93 -35,106 6,15 21,-5 12,41 -3,8 -6,20 -7,28 -4,70 -15,204 -97,230 -40,12 -72,54 -119,77 -28,13 -61,-4 -70,-29 -10,-26 -38,-35 -64,-31 -42,6 -63,33 -72,72 -7,32 -45,49 -74,47 -40,-2 -90,26 -117,-1 -42,-41 -32,-46 -94,-67 -99,-33 -86,-27 -157,-103 -10,-13 -14,-20 -22,-34 -23,-39 -78,-56 -121,-57 -54,-1 -73,5 -127,-18 -36,-15 -72,-22 -109,-31 -56,-14 -107,24 -132,-15 -30,-47 -42,-31 -54,-48 -36,-53 -31,-60 -101,-34 -31,11 -72,-5 -89,-34 -34,-57 -13,-55 -86,-63 -34,-4 -63,4 -80,-26 -23,-40 -11,-78 -65,-93 -77,-22 -108,-53 -170,-97 -76,-47 -79,-156 -138,-173 -58,-17 -74,26 -131,-19 -21,-17 -49,-31 -73,-44 -56,-29 -87,14 -98,-34 -7,-32 -6,-35 -17,-68 -8,-26 -24,-46 -31,-66 -17,-51 -50,-51 -92,-71 -34,-16 -37,-71 -47,-106 -9,-31 -76,-4 -111,-9 -35,-5 -58,27 -85,50 -9,7 -62,70 -69,81 -32,46 -64,57 -98,89 -16,15 -52,32 -56,49 -12,54 15,57 -28,117l-2 8c-30,81 -13,147 5,227 11,52 7,56 45,95 32,32 40,66 40,110 0,75 -15,56 -21,100 -5,31 23,81 -2,97 -30,18 -61,12 -86,-9 -15,-13 -41,-17 -59,-10 -17,7 -22,16 -54,27 -14,-1 -27,-8 -38,-15 -15,-10 -38,-19 -47,-25 -16,-11 -11,-82 -8,-98 11,-56 -53,-69 -91,-86 -29,-14 -81,-17 -97,-32 -25,-23 -9,-14 -40,-28 -25,-12 -81,19 -105,30 -47,23 -119,1 -148,-42 -10,-16 -31,-30 -33,-36 -15,-32 -18,-59 -34,-93 2,-23 6,-50 11,-72 5,-27 25,-61 -1,-80 -29,-20 -17,-55 -6,-83 8,-21 -4,-54 -20,-66 -48,-36 -49,-81 -67,-98 -27,-25 -26,-37 -42,-64 -39,-67 -87,-52 -109,-90 -23,-39 -31,-38 -77,-52l-116 13 0 0c-14,0 -15,-10 -47,-6 -39,6 -59,-13 -104,0 -70,21 -89,-34 -157,-7 -45,18 -50,23 -88,52 -60,47 -27,174 -94,180 -19,2 -47,6 -57,24 -18,37 -72,11 -85,51 -15,46 51,72 -74,109 -55,16 -59,51 -78,98 -36,69 -27,64 -79,120 -38,42 -67,45 -116,67 -44,20 -116,21 -160,40 -7,3 -25,7 -33,7 -95,23 -94,38 -171,77 -57,29 -109,14 -168,57 -40,29 -100,41 -119,84 -9,20 32,20 52,27 60,20 6,35 -8,93 -6,25 30,0 4,82 -47,151 69,52 116,39 31,-8 57,-18 57,20 0,43 -14,44 15,73 35,36 -31,79 7,97 47,23 -3,62 -4,101 -22,82 -44,101 -120,130 -32,12 -64,40 -72,74 -13,50 -28,54 -54,90 -34,47 -74,31 -103,96 -11,25 -27,91 15,95 16,2 41,-20 76,-20 28,0 14,-5 47,2 82,18 112,-65 187,-24 35,19 24,6 48,42 11,16 60,19 85,27 40,13 88,45 101,86 2,6 2,8 4,14 15,43 37,63 82,68 52,6 91,-55 118,-16 20,29 44,46 71,67 34,26 49,51 91,79 34,23 38,27 68,54 31,28 65,48 98,79 15,15 43,39 65,39 24,0 42,-4 65,0l51 -3c18,12 33,27 57,45 64,46 111,112 191,110 20,0 32,6 44,12 14,62 44,138 84,188 58,73 61,138 108,210 24,37 52,105 71,146 15,33 28,50 40,87l0 0z"/>
  <path class="fil1 str0" d="M7819 2190l-14 98c-11,76 14,58 14,124 0,71 -46,106 -56,178 -7,51 -13,82 -4,135 8,43 6,104 19,147 12,42 13,62 32,105 20,27 19,28 39,47 13,12 -3,45 22,73 32,35 16,47 75,94 32,25 4,76 -19,99 -24,22 -17,57 4,78 43,46 44,49 54,107 5,31 23,41 14,86 -4,18 -6,29 -16,45 -21,18 -45,44 -56,71 -18,43 -53,88 -104,64 -32,-15 -101,-14 -112,28 -13,47 -80,16 -82,84 -1,33 13,27 1,81 -9,39 -18,94 -53,118 -31,21 -27,61 -49,95 -9,14 -18,29 -29,40 -29,43 -46,53 -92,68 -21,7 -58,15 -74,-4 -46,-57 -25,-37 -99,-20 -42,10 -46,11 -88,1 -33,-8 -58,12 -79,33 -26,27 -44,-12 -85,44 -36,49 -5,41 -76,69 -25,10 -28,10 -53,18 0,0 -65,34 -70,36 -53,29 -114,33 -169,60l-9 3c-46,20 -60,20 -106,23 -17,1 -54,4 -68,-1 -23,-8 -42,-6 -39,-34 3,-29 16,-72 -11,-96 -9,-8 -6,-10 -24,-23 -14,-10 -22,-48 -36,-67 -12,-16 -69,-123 -91,-85 -20,35 -56,44 -93,48 -38,3 -69,46 -100,67 -30,21 -60,52 -94,75 -56,39 -52,77 -24,135 15,32 29,42 30,83 1,34 19,147 28,177 13,41 40,157 66,183 17,17 42,26 64,44 45,37 64,28 76,97l1 6c-7,82 -15,38 -28,81 -9,32 99,67 88,113 -8,35 -1,72 33,90 9,5 82,20 91,18 57,-7 106,-35 160,-51 27,-8 96,-47 109,-19 11,23 25,54 53,54 44,0 114,5 147,35 25,23 65,39 96,52 43,21 46,13 84,25 26,8 -18,27 24,57 24,18 13,39 31,66 14,21 -19,103 53,69 12,-5 95,-17 85,3 -13,26 -32,59 -19,88 16,34 -36,126 95,70 66,-28 37,18 96,33 74,18 16,72 96,64 104,-11 31,67 97,102 39,20 42,35 91,33 48,-2 152,-101 190,-87 44,16 21,54 83,45 25,-4 41,8 72,11 81,7 6,42 64,70 11,5 29,8 41,5 28,-10 56,-24 82,-32 18,-6 2,13 20,37 43,56 52,56 117,31 27,-11 42,-15 72,-17 29,-2 34,-22 43,37 7,44 51,48 4,106 -34,42 -46,66 -50,122 -4,54 38,91 26,140l0 2 0 0c32,1 57,-2 88,-7 40,-7 84,-6 124,-8 14,-1 -2,29 -3,44 -1,25 -25,53 8,84 19,19 37,69 37,96 0,31 -14,104 45,90 21,-5 108,-102 112,-49 1,14 15,63 19,81 9,38 51,44 86,48 31,4 97,-28 131,-39 50,-13 50,-20 88,-39 48,-24 96,-49 145,-70 37,-15 99,-72 115,-2 14,62 102,5 89,90 -4,23 2,63 23,78l0 0c55,39 106,12 165,-1 34,-7 133,-50 165,-66 77,-41 67,-4 130,26 30,14 42,19 74,30 57,19 50,37 91,72 47,40 62,53 124,71 75,22 64,10 133,55l3 1c52,71 40,39 103,78 36,22 45,79 98,101 6,2 110,69 115,73 48,48 51,62 80,124 9,20 48,51 62,85 11,26 13,26 22,56 12,40 18,131 18,171 -9,48 2,59 14,99 12,39 71,93 104,116 44,31 129,59 182,67 97,15 34,126 128,116 46,-5 90,-13 135,-12 38,1 28,-56 34,-66 16,-27 42,-37 53,-78 15,-54 52,-30 85,-14 23,11 82,38 95,57 28,40 5,49 68,79 13,6 25,14 42,2 25,-18 104,-160 138,-107 21,32 3,31 44,72 45,45 9,77 41,95 54,50 36,20 83,49 35,21 22,51 80,68 35,10 48,60 86,71 46,12 119,44 149,81 27,32 73,76 87,112 26,65 27,69 89,93 62,24 25,55 151,76 59,10 83,4 133,50 28,42 42,48 72,82 9,10 6,46 37,79 17,18 17,55 28,83 22,55 62,85 95,129 22,29 27,61 -7,83 -30,21 -51,64 -7,87 37,19 102,50 68,98 -7,9 -11,14 -17,22 -47,47 -77,78 -94,142 -19,74 -114,49 -1,135 35,27 68,99 94,136 22,31 73,71 112,73 29,2 88,8 113,18 32,14 45,13 74,38 30,26 112,3 36,64 -31,25 -85,79 -85,121 0,22 1,33 -3,54 4,30 13,50 17,80 3,26 27,87 21,107 -8,27 11,88 32,107 7,6 14,23 30,32 13,8 21,21 24,35l0 0c29,35 53,65 78,102 31,47 44,53 80,91 8,9 9,14 20,22 40,29 50,6 102,6 32,0 99,5 113,-28 21,-52 16,-91 33,-135 20,-50 70,3 117,2 24,-1 126,8 143,23 28,24 77,34 100,66 11,15 107,58 97,4 -2,-10 5,-94 7,-105 7,-28 53,-34 80,-48 26,-10 49,-15 76,-21 57,-13 123,-132 136,-185 7,-28 3,-25 3,-54 0,-50 -52,-50 -23,-102 27,-49 -4,-49 53,-48 83,1 88,-89 180,-47 11,5 85,27 96,25 57,-11 89,-24 142,-44 27,-10 14,-58 19,-89 10,-67 7,-72 -19,-135 -11,-27 19,-52 37,-72 13,-15 30,-31 37,-50 57,-60 69,-42 142,-42 51,0 50,-2 100,-12 57,-11 107,-6 159,20 24,12 66,14 97,30 22,11 45,-3 45,-33 0,-66 104,-10 144,-11 68,-2 95,-15 143,-67 25,-27 30,-74 90,-78 1,0 80,12 80,12l2 1c44,10 40,12 67,40 15,16 25,42 53,54 38,16 22,17 70,15 22,-1 29,14 78,5 7,-1 56,-7 58,-9 12,-15 -7,-30 7,-65 14,-36 -2,-71 -23,-101 -21,-30 -121,-30 -75,-78 9,-9 14,-18 10,-30 -11,-27 -5,-105 -6,-139 -1,-14 4,-26 1,-45 -4,-22 5,-84 13,-105 19,-48 19,-86 42,-137 7,-15 25,-86 39,-60 26,47 49,-11 99,40 52,53 51,30 118,27 49,-2 39,37 115,4 33,-14 49,-37 90,-44 5,-32 10,-51 11,-82 2,-48 7,-90 11,-138 4,-40 -15,-85 -46,-110 -31,-26 -77,-90 -91,-128 -18,-46 -37,-98 -93,-58 -49,35 -93,56 -153,68 -45,9 -37,-40 -53,-57 -21,-22 -32,-54 -40,-84 -2,-63 -2,-62 -27,-115 -12,-26 19,-59 3,-102 -18,-49 -66,-137 8,-164 48,-18 21,-53 89,-83 77,-34 65,-69 107,-126l2 -3c21,-78 8,-35 9,-95 0,-15 26,-51 38,-63l0 0c-4,-10 -2,-24 9,-48 19,-43 27,-102 40,-151 8,-29 -2,-78 -27,-89 -64,-27 -28,34 -108,-84 14,-79 38,-81 45,-105 25,-81 -96,-48 -116,-72 -100,-116 23,-123 23,-202 0,-40 23,-223 7,-241 -30,-35 -13,-88 -52,-95 -60,-10 -10,-63 -38,-121 -16,-33 -102,-80 -104,-118 -7,-97 -86,-134 -157,-189l0 0 -2 3c-30,37 -63,73 -92,109 -34,42 -76,28 -64,88 7,34 -41,82 -70,96 -45,21 7,62 -31,85 -53,31 -112,3 -101,83 4,25 -15,36 -37,34 -37,-5 -73,-38 -107,-52 -4,-7 -6,-13 -11,-20 -11,-18 -38,-39 -56,-49 -45,-24 8,-103 8,-130 0,-68 -5,-47 39,-100 13,-15 38,-77 42,-97 15,-66 -13,-77 12,-135 27,-62 11,-54 19,-106 10,-67 64,-95 120,-120 8,-6 16,-12 23,-20 27,-30 80,-60 120,-68 72,-14 36,-67 92,-77 54,-10 27,-32 44,-56 38,-51 84,-25 96,-39 17,-22 -26,-55 -43,-63 -37,-19 -64,-52 -81,-89 -14,-29 -13,-27 -22,-58 -23,-76 -7,-188 13,-264 9,-46 7,-102 20,-146 8,-28 12,-87 9,-115 -3,-22 3,-87 -1,-98 -6,-15 -104,11 -119,15 -54,13 -40,10 -93,8 -73,-2 -104,-3 -160,51 -13,10 -41,70 -44,87 0,0 14,62 16,71 13,86 -108,85 -167,108 -66,26 -56,-16 -80,1 -20,14 -60,112 -70,140 -14,38 -81,45 -117,48 -44,4 -28,6 -64,15 -72,19 -63,39 -129,-1 -58,-36 -18,-62 -50,-76 -68,-29 -92,-2 -121,-9 -42,-10 -28,18 -41,56 -6,19 -5,55 -7,62 -12,35 -27,44 -63,61 -5,1 -9,1 -14,1 -53,1 -61,-17 -91,-54 -19,2 -27,8 -41,23 -44,49 -65,32 -45,110 10,40 -2,70 -45,79 -51,10 -71,-10 -109,-17 -110,-19 -70,-85 -88,-89 -5,-1 -63,29 -70,34 -33,22 -50,129 -99,100 -53,-32 -69,0 -110,-60 -25,-36 -72,-58 -86,-82 -37,-65 -21,-57 -95,-78 -70,-20 -98,-8 -96,-94 -7,-15 -39,-50 -52,-62 -42,-37 -84,-30 -69,-90 8,-33 6,-42 11,-71 4,-20 37,-77 49,-97 34,-54 -35,-25 -3,-100 35,-84 7,-82 -1,-158 -3,-27 -67,-38 -89,-37 -29,2 -70,5 -85,-29 -16,-34 -53,-6 -62,-64 -7,-47 8,-18 -15,-81 0,-6 -2,-18 -3,-24 -22,-166 -64,-103 -151,-190 -88,-88 -87,62 -138,-18 -20,-32 -48,-58 -84,-73 -32,-13 -89,-52 -115,-75 -27,-25 -12,-83 8,-105 44,-47 -9,-72 79,-101 32,-11 60,-58 31,-80 -56,-41 -52,-52 -124,-76 -26,-51 -28,-46 -59,-86 -31,-39 -28,-73 -67,-95 -50,-29 -66,-48 -105,-88 -26,-26 -26,-47 -64,-34 -91,30 -54,-47 -79,-61 -26,-14 -114,3 -123,-28 -7,-22 -17,-1 -22,11 -27,67 -10,78 -60,148 -13,11 -40,20 -56,26 -75,28 -50,34 -101,64 -28,17 -98,20 -134,22 -71,5 -99,63 -137,115 -47,65 -98,60 -141,101 -31,30 -113,134 -151,140 -73,11 -75,64 -146,16 -46,-31 -35,-13 -68,17 -31,29 -48,81 -70,94 -35,21 -41,11 -71,5 -68,-13 -40,-29 -77,-58 -24,-19 -13,-47 -23,-47 -3,0 -53,34 -55,35l-4 0c-67,5 -69,-33 -118,-53 -39,-16 -87,75 -95,104 -15,57 -83,20 -53,123 14,47 -23,64 -26,106 -4,50 -70,55 -110,63 -41,8 -72,37 -84,-7 -15,-52 -55,-77 -64,-115 -10,-40 6,-60 -29,-77 -7,-3 -110,-23 -117,-23 -58,2 -14,-79 -75,-82 -33,-2 -54,-33 -72,-16 -82,74 -67,36 -103,-16 -25,-36 -38,14 -37,-66l0 -5c-8,-43 -45,-63 -77,-86 -38,-27 -37,-17 -73,-30 -70,-24 -62,-22 -96,-82 -12,-20 -10,-58 -20,-57 -45,3 -69,111 -148,90 -12,-3 3,-80 5,-91 10,-56 -11,-93 -5,-131 7,-43 -50,-64 -60,-99 -12,-43 36,-83 -12,-93 -43,-9 -75,-12 -117,-24 -48,-14 -65,59 -109,65 -51,7 -81,-11 -119,-43 -14,-9 -24,-16 -38,-26 -36,-25 -61,-26 -87,-45 -63,-45 -91,-49 -161,-4 -43,28 -113,-8 -147,-39 -72,-67 -128,3 -161,-67 -28,-57 -52,-29 -85,-78 -15,-23 -40,-41 -67,-48 -71,-20 -49,-97 -74,-158 -23,-58 -31,-47 -51,-122 -1,-8 -7,-21 -11,-29 -36,-82 32,-81 -42,-119 -28,-14 -17,-38 -26,-68 -5,-16 -12,-65 -21,-71 -13,-9 -86,23 -98,30 -46,28 -99,39 -104,-31 -5,-81 -28,-45 -40,-80 -16,-49 -56,-25 -81,-63 -21,-30 -35,-49 -44,-85 -11,-45 -62,-78 -38,-120 25,-44 44,-5 35,-68l-1 -5c-10,-33 27,-70 54,-84 34,-17 4,-61 -4,-94 -4,-18 36,-91 44,-114 7,-19 24,-43 26,-51 3,-12 -93,-22 -100,40 -5,45 -55,-17 -67,-28 -13,-11 -18,-18 -28,-29 -44,-45 -24,-47 -89,-34 -41,8 -46,8 -83,34l0 0c-1,11 9,31 16,39 21,22 19,67 4,93 -43,73 -14,119 -84,187 -13,12 -24,30 -33,40 -21,22 -28,49 -38,59l0 0z"/>
  
  
  
  
  
  
  
  
  
  
  
  
  
  
  
  
  
  
  
  
  
  
  <g id="_2422060432672">
   
   
   
   
   
   
   
   
   
   
   
   
   
   
  </g>
  <g id="_2422060427520">
   
   
   
   
   
   
   
   
  </g>
 </g>
</svg>