<svg xmlns="http://www.w3.org/2000/svg" xmlns:xlink="http://www.w3.org/1999/xlink" xml:space="preserve" width="210mm" height="297mm" version="1.1" style="shape-rendering:geometricPrecision; text-rendering:geometricPrecision; image-rendering:optimizeQuality; fill-rule:evenodd; clip-rule:evenodd" viewBox="0 0 21000 29700">
 <defs>
  <style type="text/css">
   <![CDATA[
    .str1 {stroke:black;stroke-width:10;stroke-opacity:0.501961}
    .str3 {stroke:black;stroke-width:50}
    .str5 {stroke:#434242;stroke-width:10}
    .str0 {stroke:black;stroke-width:10}
    .str2 {stroke:black;stroke-width:10}
    .str6 {stroke:#2B2A29;stroke-width:7.62}
    .str4 {stroke:black;stroke-width:7.62}
    .fil6 {fill:none}
    .fil1 {fill:#FEFEFE}
    .fil0 {fill:#FEFEFE}
    .fil8 {fill:#D9DADA}
    .fil5 {fill:#FEFEFE;fill-rule:nonzero}
    .fil4 {fill:#D9DADA;fill-rule:nonzero}
    .fil7 {fill:#434242;fill-rule:nonzero}
    .fil3 {fill:black;fill-rule:nonzero}
    .fil2 {fill:#FEFEFE;fill-rule:nonzero;fill-opacity:0.501961}
   ]]>
  </style>
 </defs>
 <g id="Plan_x0020_1">
  <metadata id="CorelCorpID_0Corel-Layer"/>
  
  
  
  
  <path class="fil0 str0" d="M17570 17153c-22,41 -26,66 -48,104 -16,29 -94,62 -128,26 -31,-31 -61,-36 -97,-10 -39,28 -68,13 -116,32 -98,41 -194,53 -145,186 12,32 14,88 0,118 -28,105 -21,105 -120,148 -45,19 -217,52 -252,8 -59,-74 -16,-80 -120,-128 -32,-15 -111,-66 -124,-97 -13,-33 -8,-93 -21,-138 -11,-41 -3,-75 -25,-113 -19,-33 2,-23 -45,-49 -25,-14 -25,-57 -105,-79l-12 -4c-61,-23 -49,-11 -103,-11 -48,0 -86,10 -111,-37 -10,-20 -30,-42 -53,-42 -80,-3 -158,-148 -184,-74 -18,51 62,114 -17,137 -17,5 -39,-17 -77,-20 -134,-10 -174,119 -265,63 -51,-32 -67,-23 -128,-11 -8,1 -20,6 -27,5 -49,9 -54,15 -93,27 -36,11 -71,2 -56,-46 20,-61 -66,-119 -108,-149 -36,-26 -53,-83 -74,-121 -14,-26 -53,-113 -22,-133 53,-35 91,-32 113,-112 15,-54 37,-100 90,-125 18,-8 42,-43 66,-60 25,-18 51,-55 88,-25 21,17 91,58 115,57 30,0 94,-33 51,-71 -24,-21 -62,-55 -61,-89 -30,-39 -42,-64 -21,-111 13,-28 62,-44 92,-75 22,-23 101,-109 84,-142 -29,-57 -68,-78 -36,-144 23,-47 22,-81 -13,-120 -53,-59 -31,-99 6,-160l5 -9c0,-82 -20,-158 -19,-235 2,-134 76,-63 149,-134 27,-26 68,-12 115,-63 42,-45 49,-16 103,-1 74,20 135,31 153,-60 21,-108 78,-67 129,-136 90,-123 79,-35 137,-9 54,24 75,5 136,57 44,38 123,-41 136,48 9,66 -78,144 84,75l26 -11c49,-55 68,-26 118,-77 48,-49 -27,-143 61,-186 25,-12 107,8 134,10l0 0 -53 139c15,46 32,93 47,138 14,45 7,85 -30,115 -23,18 -73,79 -72,110 1,42 15,62 41,95 10,13 79,51 96,59 24,10 25,51 51,72 0,0 50,53 52,56 65,64 48,26 96,108 25,42 68,66 110,86 37,17 33,4 57,45 17,28 78,39 110,34 79,-12 73,73 92,124 12,32 -1,101 -16,131 -7,14 -12,29 -19,44 -27,37 -18,30 -33,56 -14,25 -83,78 -105,114 -10,16 -34,35 -48,64 -25,50 -43,115 -41,171 2,70 31,139 70,197 14,21 21,35 38,57 26,36 44,62 83,88 21,14 30,29 43,48 24,33 33,44 44,85 3,11 23,75 23,80l0 0z"/>
  
  
  <path class="fil0 str0" d="M14839 3039c-4,103 15,69 -28,160 -32,68 26,119 -4,194 -10,26 -27,128 -26,155l0 0c-9,-5 -22,-2 -41,21 -46,55 -61,55 -129,36 -33,-9 -7,-27 -76,-26 -33,0 -104,-30 -128,-52 -53,-47 -125,-24 -126,-114 0,-21 -7,-38 -7,-66 0,-41 -17,-78 -50,-102 -53,-38 -102,-96 -102,-164l0 -4c34,-54 21,-32 62,-49 54,-22 38,1 91,-46 32,-28 40,-67 79,-102 18,-17 37,-20 59,-31 47,-4 38,-24 91,9 26,16 82,69 106,92 76,78 80,-87 169,51 18,28 41,44 60,35l0 0z"/>
  <path class="fil1 str0" d="M14399 8284c-25,54 -20,73 -37,123 -13,36 -27,78 -62,98 -12,7 -28,27 -53,38 -43,19 -49,9 -92,8 -34,-1 -57,-25 -79,-44 -28,-25 -32,13 -35,34 -9,98 -42,87 -50,119 -9,34 47,66 33,132 -7,32 11,109 33,131 75,27 92,38 78,114 -8,43 -29,43 -29,108 0,114 -107,41 -50,256 4,17 -3,68 -7,85 -6,51 -4,81 -19,132 -13,47 32,72 59,102 31,35 61,7 42,87 -8,34 4,95 -65,92 -37,-2 -46,-12 -83,13 -73,50 -88,-34 -173,35 -19,15 -41,57 -68,79 -26,22 -61,52 -89,70 -11,7 -29,23 -39,32 -34,38 -53,41 -94,61 -24,12 -67,-9 -104,-9 -67,0 -119,62 -204,76 -17,3 -91,14 -46,37 44,23 79,74 86,123 13,91 -148,95 -120,202 11,42 10,109 -22,143 -19,20 -21,27 -36,46l-50 97 0 0 -70 -41c-37,-9 -35,-63 -32,-92 9,-92 -62,-69 -123,-77 -43,-6 -72,18 -87,58 -21,54 -71,58 -85,4 -14,-55 -71,-25 -101,-2 -97,75 -109,25 -166,43 -34,11 -80,26 -102,-14 -21,-38 -50,-127 -78,-154 -60,-56 94,-114 -41,-133 -42,-6 -56,-20 -91,-25 -39,-5 -51,-18 -71,-22 -29,-5 -56,-30 -79,-18 -63,32 -30,146 -39,206 -5,29 -78,56 -102,38 -41,-32 -45,-40 -58,-99 5,-25 0,-92 -14,-115 -38,-63 -102,-49 -128,-141 -17,-60 -59,-90 -116,-107 -47,-14 -61,-96 -78,-127 -12,-22 -24,-81 -23,-105 1,-22 -18,-73 -32,-87 -27,-27 -23,-17 -54,-57 -9,-10 -14,-23 -28,-34 -51,-42 -59,-52 -33,-124 13,-35 65,-103 65,-123 0,-32 25,-97 53,-113 36,-21 36,-88 66,-128 49,-65 -3,-124 44,-183 46,-59 15,-136 -7,-199l16 -94 0 0c45,-20 59,-63 108,-64 42,0 134,-66 71,-122 -21,-19 -43,-57 -63,-78 -48,-59 -47,-57 -128,-57 -35,0 -117,7 -110,-48 7,-47 -60,-73 -78,-115l-9 -21c10,-13 28,-30 58,-62 66,-70 -8,-134 87,-257 30,-40 23,-39 40,-76 33,-74 -22,-90 64,-137 24,-13 35,-40 3,-57 -29,-15 -41,-60 -18,-91 32,-43 27,-14 8,-48 -11,-20 22,-110 37,-128 23,-27 40,-42 56,-73 16,-31 39,-3 71,-94l2 -6c-3,-38 -14,-38 -29,-64 -8,-14 -40,-45 -55,-52 -19,-8 -48,-25 -64,-37 -47,-37 -43,-21 -30,-81 2,-9 -20,-61 -22,-90 -2,-24 -13,-76 6,-97 6,-6 63,64 74,72 45,32 91,64 136,95 69,47 40,74 149,96 43,9 91,-43 141,43 21,36 65,51 105,35 23,-10 18,-1 50,-19 25,-14 23,14 86,-35 44,-34 24,-32 2,-91 -12,-33 -66,-112 -8,-120 54,-8 21,82 88,115 31,15 9,57 92,45 63,-10 71,33 73,-59 2,-103 74,-79 69,-135 -1,-7 -47,-81 -56,-107 -28,-76 -69,-86 44,-132 21,-8 125,-56 133,-18 16,77 50,75 64,128 16,60 -67,100 -17,207 18,39 61,31 94,48 1,23 5,129 30,144 14,8 18,20 44,28l0 0 -83 95c-8,14 -53,91 -67,106 -22,25 -79,121 -60,153 11,19 -10,106 73,93 39,-6 101,20 144,20 48,0 7,35 -4,64 -18,45 -30,135 -34,184 -1,6 -23,79 -4,83 18,4 48,-11 75,16 12,12 -4,85 -4,110 0,73 -11,152 -11,227 0,28 23,24 51,28 102,15 144,22 216,101 17,19 31,34 49,53 30,32 45,68 75,101 11,12 38,63 58,42 43,-45 185,-75 201,-97 21,-29 -2,-70 -4,-108 -8,-139 33,-58 128,-126 45,-32 -33,-70 52,-126 24,-16 78,-12 100,-56 14,-27 39,-58 66,-71 92,-3 50,26 73,39 12,7 44,-8 65,57 15,46 17,127 87,99 25,-10 74,-3 100,4 38,10 92,-21 148,-19 22,0 58,-5 83,-5l0 0z"/>
  <path class="fil1 str0" d="M14399 8284c-25,54 -20,73 -37,123 -13,36 -27,78 -62,98 -12,7 -28,27 -53,38 -43,19 -49,9 -92,8 -34,-1 -57,-25 -79,-44 -28,-25 -32,13 -35,34 -9,98 -42,87 -50,119 -9,34 47,66 33,132 -7,32 11,109 33,131 75,27 92,38 78,114 -8,43 -29,43 -29,108 0,114 -107,41 -50,256 4,17 -3,68 -7,85 -6,51 -4,81 -19,132 -13,47 32,72 59,102 31,35 61,7 42,87 -8,34 4,95 -65,92 -37,-2 -46,-12 -83,13 -73,50 -88,-34 -173,35 -19,15 -41,57 -68,79 -26,22 -61,52 -89,70 -11,7 -29,23 -39,32 -34,38 -53,41 -94,61 -24,12 -67,-9 -104,-9 -67,0 -119,62 -204,76 -17,3 -91,14 -46,37 44,23 79,74 86,123 13,91 -148,95 -120,202 11,42 10,109 -22,143 -19,20 -21,27 -36,46l-50 97 -7 -4c26,41 47,67 65,113 25,64 57,91 68,173 2,17 19,72 44,57 23,-13 123,-26 162,-40 41,-15 71,-10 125,-36 49,-23 96,-58 151,-26 29,17 102,20 130,-6 39,-35 25,-58 55,-78 33,-22 56,0 86,11 62,45 74,30 139,8 57,-19 72,-20 118,12 60,43 37,82 144,82 45,0 47,13 90,29 4,2 11,4 14,6l0 0c84,-62 50,-31 136,-28 52,2 65,-95 112,-65 15,9 31,13 54,28 44,29 103,37 147,2 32,-26 66,-49 92,-81 32,-39 50,-12 97,-12 59,0 51,43 98,79 64,48 56,-12 130,-15 16,0 43,33 81,43 79,22 83,102 170,51 44,-26 110,20 130,58 23,42 126,26 172,26 14,0 29,-3 43,-4 73,-17 52,0 105,12 68,16 102,52 186,52 83,0 113,4 199,-14 14,-3 97,-37 100,-37l0 0c-23,-15 -46,-27 -51,-46 -19,-75 -7,-143 23,-212 18,-41 -32,-84 -60,-95 -81,-32 -67,-115 -80,-145 -84,-196 163,-219 -36,-299 -94,-38 -12,-122 34,-168 103,-103 -28,-76 44,-153 60,-64 8,-136 24,-158 86,-120 171,15 145,-196 -9,-70 3,-51 -32,-140 -23,-59 -27,-109 -13,-168 33,-136 -63,-76 -37,-166 42,-141 266,-115 195,-225 -31,-48 10,-100 41,-107 24,-47 27,-70 27,-121 0,-48 17,-101 54,-133 68,-59 67,-103 48,-185 -10,-46 -84,-114 -15,-162 16,-11 27,-8 53,-33 32,-31 54,-64 89,-96 13,-12 23,-24 31,-35l0 0c-1,0 -86,-24 -86,-24 -38,-12 -75,-13 -108,-28 -29,-13 -44,-89 -49,-115 -16,-12 -27,-33 -46,-42 -50,-23 -110,-27 -162,-6 -38,15 -50,-29 -46,-54 9,-60 -19,-43 -45,-68 -34,-33 -59,60 -66,78 -14,34 -33,46 -42,67 -17,37 -56,75 -99,73 -55,-2 -74,25 -134,26 -63,2 -93,-40 -154,-20 -51,17 -38,4 -78,7 -28,2 -26,-1 -51,-3 -91,-6 -8,-114 -102,-80 -29,10 -56,3 -71,21 -14,16 -38,56 -46,76 -8,19 -39,53 -54,64 -64,50 -40,37 -121,77 -42,3 -118,17 -159,5 -54,-16 -75,14 -112,3 -59,-16 -95,-48 -160,-44 -70,4 -70,15 -100,75 -28,55 -69,27 -74,-12 -6,-53 -25,-49 -31,-71 -12,-39 -74,-5 -106,-28 -28,-20 -21,-23 -50,-39 -18,-10 -54,18 -71,26 -45,23 -71,41 -120,62l0 0z"/>
  <path class="fil1 str0" d="M15200 14982c67,91 40,130 89,207 15,24 153,63 180,66l0 0c26,-38 80,-13 135,-65 27,-26 68,-12 115,-63 42,-45 49,-16 103,-1 74,20 135,31 153,-60 21,-108 78,-67 129,-136 90,-123 79,-35 137,-9 54,24 75,5 136,57 44,38 123,-41 136,48 9,66 -78,144 84,75l26 -11c49,-55 68,-26 118,-77 48,-49 -27,-143 61,-186 25,-12 107,8 134,10l0 0c19,-22 24,-150 17,-182 -24,-103 -58,-105 -142,-147 -36,-18 -24,-152 -17,-183 17,-74 34,-96 34,-173 0,-37 -140,-189 -177,-205 -53,-24 -4,-88 -37,-123 -97,-103 32,-244 -87,-287 -46,-17 -62,-60 -40,-106 30,-62 29,-64 44,-145 1,-5 0,-9 0,-14 0,-159 -90,-188 -79,-247l0 0c-37,0 -95,29 -131,35 -77,12 -80,-33 -117,-57 -88,-57 -106,30 -160,-24 -47,-47 -56,-41 -118,-26 -49,12 -60,-7 -81,-42 -40,-64 -23,-40 -35,-109 -4,-20 0,-32 0,-52 0,-22 -53,-13 -67,-10 -58,13 -102,10 -159,6 -133,-9 -115,44 -170,56 -19,4 -90,-35 -102,-40 -23,0 -31,0 -55,-1 -108,-6 -123,83 -169,106 -64,31 -78,-13 -114,-35 -40,-24 -53,-28 -98,-38 -61,-14 -146,-26 -185,-79 -47,-63 -77,-112 -101,-188 -19,-62 -9,-55 -14,-110 -6,-63 -128,-2 -168,-17 -24,-9 -72,26 -93,37 -23,13 -53,45 -66,52 -70,34 -96,30 -163,-1 -46,-21 -17,-25 -88,-38l0 0c-125,33 -55,11 -139,4 -54,-4 -95,-106 -173,-106 -103,0 -110,-19 -231,10 -44,10 -153,-30 -118,98 20,74 -22,137 -3,200 8,25 6,93 -26,108 -32,15 -48,-6 -72,-30 -96,-96 -38,-37 -140,-50 -10,-1 -34,-40 -124,-37 -181,5 -96,-43 -50,133 33,125 -34,85 81,192 145,135 -95,202 -97,361l-3 13 -32 198 0 0c101,89 119,82 244,30 39,-16 67,-29 105,-49 21,-11 44,-12 44,16 0,29 29,80 41,111 26,66 74,74 137,89 40,9 120,2 169,10 47,8 86,4 134,17 83,23 5,93 73,152 51,44 27,109 85,153 25,19 53,127 79,152 89,83 290,104 349,103 10,0 88,12 96,20 20,20 -5,29 37,72 44,46 -14,132 167,130 39,-1 111,2 131,42 17,36 -2,111 -2,158 0,64 -45,167 -32,208 61,53 94,48 169,45 54,-2 98,-35 156,-47 34,-7 58,-20 96,-9 30,9 37,-4 52,33l0 0z"/>
  <path class="fil1 str0" d="M14409 11204c-13,49 -38,86 -59,131 -17,38 -55,79 -64,125 -16,80 21,91 -37,187 -19,31 -68,36 -102,39 -20,2 -160,66 -199,78 -74,22 -121,22 -121,111 0,24 0,36 -3,60 -4,93 -33,97 -65,177 -9,23 -9,113 1,134 28,61 39,84 107,96 28,5 79,20 100,38 23,21 32,38 32,71l0 0c71,13 42,17 88,38 67,31 93,35 163,1 13,-6 43,-39 66,-52 21,-12 69,-46 93,-37 40,15 162,-46 168,17 5,55 -6,48 14,110 24,76 55,124 101,188 39,53 124,64 185,79 45,10 58,15 98,38 36,21 50,66 114,35 46,-23 61,-112 169,-106 24,1 32,1 55,1 12,5 83,44 102,40 55,-12 37,-64 170,-56 57,4 101,6 159,-6 14,-3 68,-12 67,10 0,20 -4,32 0,52 13,69 -5,45 35,109 21,34 33,54 81,42 62,-15 71,-21 118,26 54,54 71,-34 160,24 37,24 40,69 117,57 36,-6 94,-35 131,-35l0 0c39,-211 135,-115 7,-327 -52,-87 31,-159 -19,-224 -47,-61 20,-150 67,-164 28,-8 67,-163 44,-188 -86,-96 -140,-14 -169,-124 -14,-54 28,-107 64,-144 52,-52 121,-160 48,-225 -60,-52 -53,-103 -13,-172 4,-6 7,-13 11,-19 46,-82 8,-114 -30,-139l0 0c-3,0 -86,34 -100,37 -86,18 -116,14 -199,14 -84,0 -117,-37 -186,-52 -53,-12 -32,-29 -105,-12 -14,1 -29,4 -43,4 -46,-1 -149,16 -172,-26 -20,-38 -86,-83 -130,-58 -88,51 -91,-30 -170,-51 -38,-10 -65,-44 -81,-43 -75,2 -66,63 -130,15 -48,-36 -39,-79 -98,-79 -47,0 -65,-27 -97,12 -26,32 -60,55 -92,81 -43,35 -103,28 -147,-2 -23,-15 -39,-19 -54,-28 -47,-30 -60,67 -112,65 -86,-3 -52,-33 -136,28l0 0z"/>
  <path class="fil1 str0" d="M11935 13585c-50,29 -37,45 -68,76 -21,21 -113,70 -142,72 -61,5 -94,-5 -114,69 -10,39 30,64 22,112 -2,14 -1,28 -5,49 -4,22 -6,44 -11,66l-101 145 0 0c-18,-7 -33,-16 -49,-25 -22,-13 -97,-99 -103,-119 -12,-40 16,-79 3,-144 -11,-58 -14,-66 -67,-76 -17,-3 -121,11 -141,15 -75,17 -88,11 -165,44l-5 0c-97,5 -110,1 -198,-14 -95,-16 -76,100 -144,114 -67,15 -97,-34 -106,-92 -7,-51 -50,-54 -41,-124 9,-72 -61,-22 -136,-40 -48,-12 -125,0 -148,-46 -29,-56 -57,39 -60,61 -6,41 -18,122 -18,162 0,100 5,77 33,164 30,94 -76,107 -134,57 -41,-35 -71,-27 -98,-42 -29,-16 -63,3 -79,-20 -17,-24 -12,-13 -32,-29 -43,-33 -65,-8 -97,34 -12,13 -20,29 -22,46 -9,69 -38,151 -94,195 -71,54 -95,65 -119,155 -16,60 -19,118 -63,162 -39,38 -173,66 -210,27 -35,-37 -28,-20 -56,-39 -40,-27 -96,40 -111,71 -17,37 -75,72 -116,63 -32,-7 -53,-12 -89,-16 -49,13 -243,13 -297,-3 -49,-15 -79,-38 -88,-90 -10,-59 -41,-97 -92,-126 -46,-27 -64,-68 -66,-120 -1,-22 -22,-53 -37,-66 -30,-28 -7,-103 -134,-103 -37,0 -96,23 -115,14 -28,-13 -95,7 -114,34 -29,41 -53,44 -102,58l-125 -6 0 0c16,-16 15,-27 6,-49 -14,-36 -19,-128 -33,-147 -39,-51 -85,-66 -148,-68 -45,-2 -121,8 -163,-6 -48,-16 -114,11 -99,-45 6,-22 4,-78 8,-102 14,-42 3,-78 -30,-107 -65,-55 -204,-36 -237,-78 -42,-54 -17,-146 -30,-219 -8,-46 -2,-91 25,-131 59,-89 -125,-24 -142,-91 -5,-20 33,-77 45,-102 14,-30 10,-73 26,-88 6,-6 73,-25 84,-28 62,-14 63,-50 67,-112l2 -12c14,-56 -19,-104 -51,-147 -51,-69 57,-206 37,-253 -8,-18 -90,-4 -110,-2 -94,9 -115,33 -150,115 -15,35 -34,105 -86,79 -5,-3 -67,-54 -69,-59 -7,-12 -3,-185 -3,-214 0,-25 36,-113 -14,-120 -104,-16 -115,93 -164,94 -40,0 -61,9 -73,21l0 0 -98 -119c15,-58 8,-34 38,-64 17,-18 24,15 62,-58 10,-20 48,-62 73,-40 16,14 130,43 147,39 33,-9 103,-15 139,-15 69,0 153,-15 211,-54 31,-22 36,-89 12,-122 -33,-43 -56,-82 -48,-138 7,-45 -13,-80 50,-107 27,-12 77,-35 97,-53 40,-68 19,-58 36,-112 7,-21 55,-46 76,-47 10,0 28,29 82,18 48,-10 33,44 86,25 33,-12 79,-8 93,31 28,82 111,-42 155,3 47,48 25,37 54,87 14,23 63,104 78,118 90,80 185,-16 250,24 66,41 20,93 56,123 21,18 55,-6 63,-33 20,-64 -9,-74 52,-133 60,-59 -15,-123 37,-212 42,-57 80,-87 145,-111 61,-22 206,-7 259,-38 55,-32 65,-28 105,-83 57,-79 111,-40 76,-172 -29,-112 78,-45 130,-112 43,-54 55,-126 116,-185 35,-34 63,-31 113,-35 39,-3 98,-5 130,19 70,53 101,-23 160,-41 41,-72 44,-121 75,-194 33,-76 34,78 85,96 78,27 66,-90 105,-74 62,25 131,-32 144,-95 16,-81 85,-94 144,-39 16,15 48,31 69,35l0 0c4,53 10,106 7,159 -10,133 -101,141 -103,223 -1,46 77,33 108,50 28,15 40,-1 94,35 66,44 132,8 167,48 14,16 -45,137 -50,158 -8,33 -14,86 31,93 35,5 61,57 72,85 27,66 52,40 107,6 94,-58 71,-48 177,-60 90,-11 41,35 67,85 11,47 12,126 76,123 33,-2 101,22 122,51 27,37 38,47 76,10 16,-15 35,-54 61,-76 51,-44 53,-74 124,-40 26,12 83,20 113,37 81,45 96,54 94,146 -1,79 58,94 -32,176 -60,54 -105,82 -46,152 46,55 112,58 56,139 -18,25 -26,61 -32,90 -4,122 19,126 74,221 45,76 49,97 69,181 16,66 74,119 140,133 49,10 181,40 217,70 64,53 64,122 70,201 1,15 3,55 2,70 11,72 10,75 47,134 8,13 2,46 21,82 39,77 7,73 -25,141 -19,41 -11,56 -11,100l0 0z"/>
  <path class="fil1 str0" d="M11935 13585c53,12 68,11 117,15 45,3 151,36 190,60 45,27 89,11 135,-4 41,-14 75,-8 107,20 23,20 73,8 118,38 16,11 108,31 129,28 43,-7 64,-30 84,-68 10,-19 1,-39 26,-81 13,-23 12,-27 32,-47l0 0c101,89 119,82 244,30 39,-16 67,-29 105,-49 21,-11 44,-12 44,16 0,29 29,80 41,111 26,66 74,74 137,89 40,9 120,2 169,10 47,8 86,4 134,17 83,23 5,93 73,152 51,44 27,109 85,153 25,19 53,127 79,152 89,83 290,104 349,103 10,0 88,12 96,20 20,20 -5,29 37,72 44,46 -14,132 167,130 39,-1 111,2 131,42 17,36 -2,111 -2,158 0,64 -45,167 -32,208 61,53 94,48 169,45 54,-2 98,-35 156,-47 34,-7 58,-20 96,-9 30,9 37,-4 52,33l0 0c-15,16 -52,79 -63,98 -24,43 -15,67 -61,97 -47,30 -56,61 -85,79 -91,58 -72,103 -182,60 -52,-20 -38,-105 -141,-30 -27,20 -77,36 -46,62 12,10 88,87 94,98 9,17 -3,64 -14,81 -18,27 -43,47 -66,77 -6,16 -28,47 -39,61 -13,18 -66,96 -93,72 -56,-48 -28,-88 -79,-139 -37,-37 -119,26 -157,41 -48,19 -68,-40 -91,-60 -30,-25 -18,-13 -33,-50 -30,-71 0,-82 -72,-79 -176,8 -122,-129 -192,-187 -25,-20 -44,-65 -54,-95 -4,-12 -86,44 -92,50 -28,28 22,74 40,93 29,31 14,24 21,52 14,53 -72,57 -104,72 -76,36 -146,9 -146,114 0,21 -10,67 -9,75 1,40 -5,86 -49,101 -33,12 -42,12 -81,28l-11 1c-125,22 -90,-19 -183,-26 -92,-7 -74,14 -141,45 -46,21 -78,-4 -108,-6 -54,-2 -115,1 -166,20 -51,19 -66,22 -116,35 -42,11 -58,8 -81,43 -24,37 -38,136 -66,186 -16,28 -27,37 -54,60l0 0c-15,-12 -17,-22 -37,-33 -61,-35 -60,-35 -86,-99 -15,-37 8,-92 30,-121 65,-87 64,-25 62,-163 0,-4 2,-21 3,-24 8,-35 -2,-57 -31,-78 -54,-39 -33,-66 -68,-94 -31,-25 -56,-32 -82,-52 -34,-25 -44,-23 -68,-59 -30,-44 -36,-89 -95,-101 -51,-10 -86,8 -124,10 -52,3 -29,-4 -100,10l0 0c0,-18 5,-33 5,-46 1,-28 18,-100 10,-121 -19,-45 -14,-70 -19,-114 -3,-31 -12,-26 -15,-86l0 -4c0,-89 -5,-107 22,-192 15,-46 -96,-15 -132,-21 -72,-12 -105,6 -145,-66 -19,-34 -3,-102 4,-143 8,-46 -32,-46 -69,-71 -116,-79 -61,-162 -31,-271l0 0 101 -145c5,-22 7,-43 11,-66 4,-22 3,-35 5,-49 8,-48 -32,-73 -22,-112 20,-73 53,-64 114,-69 30,-2 121,-51 142,-72 31,-31 18,-47 68,-76l0 0z"/>
  <path class="fil1 str0" d="M13018 10899c26,41 47,67 65,113 25,64 57,91 68,173 2,17 19,72 44,57 23,-13 123,-26 162,-40 41,-15 71,-10 125,-36 49,-23 96,-58 151,-26 29,17 102,20 130,-6 39,-35 25,-58 55,-78 33,-22 56,0 86,11 62,45 74,30 139,8 57,-19 72,-20 118,12 60,43 37,82 144,82 45,0 47,13 90,29 4,2 11,4 14,6l0 0c-13,49 -38,86 -59,131 -17,38 -55,79 -64,125 -16,80 21,91 -37,187 -19,31 -68,36 -102,39 -20,2 -160,66 -199,78 -74,22 -121,22 -121,111 0,24 0,36 -3,60 -4,93 -33,97 -65,177 -9,23 -9,113 1,134 28,61 39,84 107,96 28,5 79,20 100,38 23,21 32,38 32,71l0 0c-125,33 -55,11 -139,4 -54,-4 -95,-106 -173,-106 -103,0 -110,-19 -231,10 -44,10 -153,-30 -118,98 20,74 -22,137 -3,200 8,25 6,93 -26,108 -32,15 -48,-6 -72,-30 -96,-96 -38,-37 -140,-50 -10,-1 -34,-40 -124,-37 -181,5 -96,-43 -50,133 33,125 -34,85 81,192 145,135 -95,202 -97,361l-3 13 -32 198 0 0c-20,20 -19,24 -32,47 -24,42 -16,62 -26,81 -20,38 -41,61 -84,68 -20,3 -112,-17 -129,-28 -45,-31 -95,-18 -118,-38 -32,-28 -66,-34 -107,-20 -46,15 -90,31 -135,4 -38,-23 -144,-57 -190,-60 -48,-3 -64,-3 -117,-15l0 0c0,-44 -9,-58 11,-100 32,-68 64,-63 25,-141 -18,-36 -12,-69 -21,-82 -37,-59 -36,-62 -47,-134 0,-15 -1,-54 -2,-70 -6,-79 -7,-148 -70,-201 -36,-30 -168,-60 -217,-70 -67,-13 -124,-67 -140,-133 -21,-84 -25,-105 -69,-181 -56,-95 -78,-99 -74,-221 7,-29 15,-65 32,-90 56,-81 -9,-84 -56,-139 -59,-70 -13,-98 46,-152 91,-82 31,-97 32,-176 1,-92 -13,-101 -94,-146 -30,-17 -88,-25 -113,-37 -71,-34 -74,-3 -124,40 -26,22 -45,61 -61,76 -39,37 -49,27 -76,-10 -21,-29 -89,-52 -122,-51 -65,3 -65,-76 -76,-123 -26,-50 23,-96 -67,-85 -106,13 -84,2 -177,60 -55,34 -80,60 -107,-6 -12,-28 -38,-80 -72,-85 -45,-7 -39,-60 -31,-93 5,-21 64,-142 50,-158 -35,-39 -101,-4 -167,-48 -55,-36 -66,-20 -94,-35 -31,-17 -109,-4 -108,-50 2,-82 93,-90 103,-223 4,-53 -2,-106 -7,-159l0 0 27 -113c0,-19 -2,-32 -7,-50 -24,-83 -65,-63 -53,-153 12,-85 40,-83 -14,-147 -48,-57 -3,-114 -4,-146 -2,-56 6,-42 -23,-91 -37,-61 -64,-57 -27,-120 17,-28 25,-38 30,-72l3 -134 0 0c15,4 31,6 47,6 52,-8 47,-2 84,-4 70,-4 92,-55 162,-53 46,1 111,-106 146,-71 32,32 78,40 107,0 33,-46 66,-80 108,-119 11,-11 23,-32 44,-51 74,-65 57,-108 109,-167 14,-16 40,-24 58,-7 20,19 41,24 60,44 47,48 75,-34 97,-64 18,-24 61,-62 92,-61 36,0 33,-7 77,0 87,13 105,-77 162,-104 52,-55 44,-25 103,-51l0 0 -16 94c22,63 53,140 7,199 -46,59 5,118 -44,183 -30,40 -30,108 -66,128 -27,16 -53,81 -53,113 0,20 -53,88 -65,123 -26,72 -18,82 33,124 14,11 18,24 28,34 31,40 27,30 54,57 14,14 33,65 32,87 -1,24 11,83 23,105 17,31 31,113 78,127 58,18 99,48 116,107 27,92 90,77 128,141 14,23 18,90 14,115 13,59 17,67 58,99 24,18 97,-9 102,-38 9,-60 -24,-174 39,-206 23,-11 50,13 79,18 20,3 32,16 71,22 35,5 50,19 91,25 135,19 -19,77 41,133 29,27 57,116 78,154 22,40 68,24 102,14 57,-18 69,33 166,-43 30,-23 87,-53 101,2 13,54 64,50 85,-4 15,-39 44,-64 87,-58 61,9 132,-14 123,77 -3,29 -5,82 32,92l70 41 -7 -4z"/>
  <path class="fil1 str0" d="M12379 18073c-48,13 -27,7 -64,-4 -34,-9 -119,-11 -122,39 -1,21 39,34 37,102 -1,59 48,78 -11,130 -43,38 -33,91 -46,141 -1,4 -1,6 -2,10 11,87 7,57 -15,123 -7,21 23,92 13,140 -7,34 -9,75 -25,108 -28,55 -49,112 -114,131 -18,5 -82,54 -87,73 -11,42 6,105 6,140l0 0c-6,-2 -14,1 -30,14 -38,29 -41,29 -81,48 -36,18 9,53 34,60 61,17 22,37 61,71 2,2 95,36 105,39 68,17 42,75 98,102 35,16 52,58 16,88 -51,43 -50,52 -126,57 -21,1 -66,-10 -64,20 5,49 66,68 102,86 91,45 53,60 86,92 30,30 47,36 50,89 -6,10 -13,20 -18,30 -26,55 -12,62 -60,124 -26,34 -69,113 -119,75 -76,-58 -122,4 -137,-125 -6,-52 -8,-88 -61,-99 -63,-13 -13,-47 -61,-54 -119,-17 -180,96 -254,95 -65,-1 -113,-5 -167,-45 -47,-36 -69,26 -66,68 3,47 62,73 102,82 30,7 75,-1 48,31 -42,51 -101,38 -142,50 -169,47 -46,131 -65,225 -7,33 -25,35 -6,53 19,18 59,75 65,101 6,31 -10,50 -8,95 -6,33 -11,63 -16,93 -10,61 -79,126 -21,166 10,7 89,30 110,38 56,21 44,38 36,83 -8,50 -54,119 -14,156 37,34 72,78 111,106 68,50 31,117 -31,118 -64,1 -123,36 -160,88 -60,84 -90,12 -134,-31 -34,-33 -26,-38 -78,-64 -33,-12 -67,-42 -83,-73 -17,-31 7,-112 -86,-111 -64,1 -37,-30 -72,-34 -88,-12 -157,109 -233,89 -60,-16 -95,34 -162,25 -33,-4 -23,-18 -88,-18 -55,0 -155,31 -173,-52 -17,-78 18,-79 -14,-175 -16,-48 19,-93 29,-139 8,-33 11,-66 -32,-60 -30,5 -64,4 -93,-7 -29,-12 -68,-15 -90,-25 -32,-15 -37,-32 -42,-65 5,-5 26,-70 40,-79 47,-31 80,-16 102,33 10,23 45,29 61,22 73,-32 40,-129 29,-185l1 -5c26,-90 162,-140 4,-140 -33,0 -52,4 -81,5 -28,1 1,-67 8,-77 40,-55 66,-30 110,-32 34,-1 60,-89 -44,-97 -55,-4 -34,-73 33,-84 66,-11 41,-64 115,-39 69,23 73,-50 62,-96 -9,-39 49,-42 67,-52 19,-10 27,-59 29,-79 8,-89 -23,-83 -83,-31 -12,11 -53,31 -49,43 11,40 -5,35 -21,67 -28,57 -26,18 -53,29 -50,21 -15,15 -64,8 -66,-9 11,-119 4,-138 -19,-45 -66,-47 -109,-53 -33,-10 -43,-8 -75,-13 -23,-3 -68,-30 -63,-59 8,-47 65,-91 109,-103 151,-43 79,-79 129,-96 69,-24 97,11 114,-72 17,-84 54,-67 75,-90 86,-93 58,-61 173,-59 28,0 40,-6 62,-8 53,-5 54,120 51,150 -8,78 118,4 120,-24 1,-11 -55,-126 -63,-135 -24,-30 7,-96 -15,-130 -19,-29 -49,-51 -85,-56 -64,-8 -58,-28 -36,-91 3,-13 4,-25 1,-38 -11,-49 -133,-30 -180,-79 -55,-57 -48,-140 -25,-209 18,-54 60,-76 0,-92 -93,-25 -72,-31 -144,-69 -50,-26 -57,-51 -84,-92 -25,-38 -37,-74 -80,-89 -66,-23 -43,-44 -57,-87 -18,-52 -112,-35 -122,-60 -16,-39 -10,-55 -25,-100 -13,-31 -27,-65 -59,-81 -51,-27 -70,-11 -96,-63 -5,-10 -14,-17 -25,-22l0 0 3 -82c19,-49 21,-88 20,-139 0,-9 34,-61 38,-66l0 0c74,-2 132,3 207,-6 45,-6 100,0 150,-8 32,-5 157,-27 181,-6 50,44 5,54 51,104 52,58 -11,133 49,168 24,14 26,12 55,4 56,-13 55,-9 99,-15 35,-4 122,-28 148,-53 39,-37 43,-61 74,-98 55,-65 54,-58 86,-141 15,-38 71,-49 106,-48 48,1 71,-40 121,-61 97,-42 43,-37 73,29 8,17 15,5 23,49 4,18 15,77 29,86 44,27 75,-34 105,-55 16,-11 84,1 86,-36 1,-19 51,-128 62,-129 0,0 33,13 37,14 75,22 109,15 99,100 -6,55 58,63 98,64 26,1 51,2 77,6 33,6 53,-4 81,-4l0 0c-7,21 -50,159 -24,175 30,19 74,18 74,67 0,45 -3,112 49,130 87,30 80,96 179,91 19,-1 39,-19 51,-22 8,-37 27,-74 18,-106 -8,-29 67,-86 78,-76 25,21 20,28 66,11 42,-16 76,-29 72,32 -4,52 11,71 -12,130 -3,7 -7,22 -7,29l0 0z"/>
  <path class="fil1 str0" d="M9677 17935l3 -82c19,-49 21,-88 20,-139 0,-9 34,-61 38,-66l0 0 -2 -50c0,-1 0,-6 0,-7 10,-80 17,-36 -8,-130 -6,-15 -11,-29 -21,-42 -49,-62 -85,-127 -148,-176 -80,-62 -128,-37 -206,-61 -31,-9 -66,-10 -94,-16 -31,-7 -22,-55 -15,-77 37,-125 -5,-101 88,-209 42,-49 40,-76 63,-125 21,-45 -11,-79 32,-96 50,-20 131,-59 170,-95 45,-42 57,-36 114,-47 12,-2 158,11 175,15 31,6 105,2 111,4 44,12 127,-30 161,-53 52,-43 74,-56 136,-82 47,-20 49,-39 94,-61 53,-26 69,0 87,-11 32,-18 36,-60 113,-96 25,-12 67,-48 78,-50 25,-5 86,37 108,51 52,32 30,-90 24,-108 -30,-87 24,-8 53,0 47,12 19,-10 57,32 39,42 25,120 52,124 45,7 27,-109 29,-131 3,-38 -30,-85 -19,-95 19,-18 45,-4 62,5 14,7 94,36 107,37 59,5 76,70 98,58 60,-30 35,-73 54,-77 44,-9 63,16 86,20 67,12 3,-71 68,-93 78,-27 87,-22 108,-108 8,-14 19,-41 21,-57 4,-38 26,-71 58,-92 37,-24 75,-74 95,-113 20,-38 15,-74 23,-109 17,-75 63,-58 76,-102 15,-54 21,-67 56,-114l0 0c0,-18 5,-33 5,-46 1,-28 18,-100 10,-121 -19,-45 -14,-70 -19,-114 -3,-31 -12,-26 -15,-86l0 -4c0,-89 -5,-107 22,-192 15,-46 -96,-15 -132,-21 -72,-12 -105,6 -145,-66 -19,-34 -3,-102 4,-143 8,-46 -32,-46 -69,-71 -116,-79 -61,-162 -31,-271l0 0c-18,-7 -33,-16 -49,-25 -22,-13 -97,-99 -103,-119 -12,-40 16,-79 3,-144 -11,-58 -14,-66 -67,-76 -17,-3 -121,11 -141,15 -75,17 -88,11 -165,44l-5 0c-97,5 -110,1 -198,-14 -95,-16 -76,100 -144,114 -67,15 -97,-34 -106,-92 -7,-51 -50,-54 -41,-124 9,-72 -61,-22 -136,-40 -48,-12 -125,0 -148,-46 -29,-56 -57,39 -60,61 -6,41 -18,122 -18,162 0,100 5,77 33,164 30,94 -76,107 -134,57 -41,-35 -71,-27 -98,-42 -29,-16 -63,3 -79,-20 -17,-24 -12,-13 -32,-29 -43,-33 -65,-8 -97,34 -12,13 -20,29 -22,46 -9,69 -38,151 -94,195 -71,54 -95,65 -119,155 -16,60 -19,118 -63,162 -39,38 -173,66 -210,27 -35,-37 -28,-20 -56,-39 -40,-27 -96,40 -111,71 -17,37 -75,72 -116,63 -32,-7 -53,-12 -89,-16 -49,13 -243,13 -297,-3 -49,-15 -79,-38 -88,-90 -10,-59 -41,-97 -92,-126 -46,-27 -64,-68 -66,-120 -1,-22 -22,-53 -37,-66 -30,-28 -7,-103 -134,-103 -37,0 -96,23 -115,14 -28,-13 -95,7 -114,34 -29,41 -53,44 -102,58l-125 -6 0 0c-69,67 -51,49 -80,135 -27,80 -69,64 -137,84 -23,7 -92,16 -106,22 41,84 21,80 97,133 60,41 69,115 67,182 -4,122 -26,138 64,234 50,53 70,72 40,152 -10,28 -22,56 -33,83 -8,36 -31,105 -9,138 37,55 67,60 69,134 2,57 51,85 65,130 35,114 39,150 41,271 1,50 4,103 9,153 2,24 4,48 7,72 21,128 57,64 71,115 10,36 -34,101 56,138 58,24 39,27 84,56 30,19 89,11 150,52 67,45 62,102 93,172 32,72 -10,110 67,177 56,49 114,32 179,121 44,60 80,133 140,178 34,13 161,49 175,85 15,37 52,87 94,92 78,9 47,49 140,76 41,12 69,21 87,62 12,27 -34,88 -52,106 -53,54 -45,219 75,173 42,-16 108,-51 150,-33 61,27 35,73 145,90 67,10 95,31 171,30 22,0 53,2 76,13l0 0z"/>
  <path class="fil1 str0" d="M9739 17648c74,-2 132,3 207,-6 45,-6 100,0 150,-8 32,-5 157,-27 181,-6 50,44 5,54 51,104 52,58 -11,133 49,168 24,14 26,12 55,4 56,-13 55,-9 99,-15 35,-4 122,-28 148,-53 39,-37 43,-61 74,-98 55,-65 54,-58 86,-141 15,-38 71,-49 106,-48 48,1 71,-40 121,-61 97,-42 43,-37 73,29 8,17 15,5 23,49 4,18 15,77 29,86 44,27 75,-34 105,-55 16,-11 84,1 86,-36 1,-19 51,-128 62,-129 0,0 33,13 37,14 75,22 109,15 99,100 -6,55 58,63 98,64 26,1 51,2 77,6 33,6 53,-4 81,-4l0 0c5,-38 10,-49 1,-83 -7,-28 -16,-47 -24,-74 -8,-30 35,-89 34,-151 0,-31 3,-102 53,-82 28,11 63,42 104,35 42,-8 37,-42 47,-80 8,-32 9,-48 20,-83 14,-47 12,-89 39,-134 27,-67 23,-58 17,-118 -6,-59 -37,-62 -38,-92 -1,-15 65,-41 62,-134 -1,-20 22,-146 61,-101 38,43 143,68 198,78 60,11 45,94 54,144 8,45 -8,114 31,156 21,22 57,-55 76,-75 43,-46 39,-60 46,-123 9,-71 -18,-51 50,-94 63,-40 74,-50 74,-121 0,-55 -99,-54 -53,-197 26,-79 -27,-80 -86,-88 -34,-4 -117,15 -130,-22l-1 -3 11 -57 0 0c-15,-12 -17,-22 -37,-33 -61,-35 -60,-35 -86,-99 -15,-37 8,-92 30,-121 65,-87 64,-25 62,-163 0,-4 2,-21 3,-24 8,-35 -2,-57 -31,-78 -54,-39 -33,-66 -68,-94 -31,-25 -56,-32 -82,-52 -34,-25 -44,-23 -68,-59 -30,-44 -36,-89 -95,-101 -51,-10 -86,8 -124,10 -52,3 -29,-4 -100,10l0 0c-35,47 -41,61 -56,114 -12,45 -59,27 -76,102 -8,35 -2,71 -23,109 -21,39 -58,89 -95,113 -32,21 -54,54 -58,92 -2,16 -13,43 -21,57 -21,86 -30,81 -108,108 -65,22 -1,106 -68,93 -23,-4 -42,-29 -86,-20 -19,4 5,47 -54,77 -22,11 -39,-54 -98,-58 -13,-1 -93,-30 -107,-37 -17,-8 -43,-22 -62,-5 -11,10 22,57 19,95 -2,22 16,138 -29,131 -27,-4 -13,-82 -52,-124 -38,-42 -10,-19 -57,-32 -30,-8 -83,-87 -53,0 6,17 28,140 -24,108 -22,-14 -83,-56 -108,-51 -11,3 -53,39 -78,50 -77,35 -81,77 -113,96 -19,11 -34,-14 -87,11 -46,22 -47,41 -94,61 -61,26 -83,39 -136,82 -34,23 -117,65 -161,53 -7,-2 -81,2 -111,-4 -16,-3 -163,-17 -175,-15 -56,12 -69,5 -114,47 -39,37 -120,76 -170,95 -43,17 -11,51 -32,96 -23,49 -21,77 -63,125 -93,108 -51,84 -88,209 -7,22 -15,70 15,77 28,7 62,7 94,16 78,24 126,-1 206,61 64,49 99,114 148,176 10,13 15,27 21,42 25,94 17,50 8,130 0,0 0,6 0,7l2 50 0 0z"/>
  <path class="fil1 str0" d="M11836 17612c5,-38 10,-49 1,-83 -7,-28 -16,-47 -24,-74 -8,-30 35,-89 34,-151 0,-31 3,-102 53,-82 28,11 63,42 104,35 42,-8 37,-42 47,-80 8,-32 9,-48 20,-83 14,-47 12,-89 39,-134 27,-67 23,-58 17,-118 -6,-59 -37,-62 -38,-92 -1,-15 65,-41 62,-134 -1,-20 22,-146 61,-101 38,43 143,68 198,78 60,11 45,94 54,144 8,45 -8,114 31,156 21,22 57,-55 76,-75 43,-46 39,-60 46,-123 9,-71 -18,-51 50,-94 63,-40 74,-50 74,-121 0,-55 -99,-54 -53,-197 26,-79 -27,-80 -86,-88 -34,-4 -117,15 -130,-22l-1 -3 11 -57 0 0c28,-22 38,-31 54,-60 28,-50 42,-149 66,-186 23,-35 38,-32 81,-43 50,-13 66,-16 116,-35 51,-19 112,-22 166,-20 30,1 62,26 108,6 68,-31 49,-52 141,-45 93,7 57,49 183,26l11 -1c39,-16 49,-16 81,-28 43,-15 50,-62 49,-101 0,-7 9,-54 9,-75 0,-105 70,-78 146,-114 33,-16 118,-19 104,-72 -7,-28 7,-21 -21,-52 -18,-19 -67,-66 -40,-93 6,-6 88,-62 92,-50 10,31 29,75 54,95 70,57 16,194 192,187 72,-3 43,7 72,79 15,37 3,24 33,50 23,19 43,78 91,60 38,-15 120,-78 157,-41 51,51 22,91 79,139 28,23 80,-55 93,-72 11,-14 32,-45 39,-61 23,-30 48,-50 66,-77 11,-16 23,-64 14,-81 -6,-10 -82,-88 -94,-98 -32,-26 19,-42 46,-62 103,-74 89,10 141,30 110,43 90,-2 182,-60 29,-19 39,-49 85,-79 45,-29 37,-53 61,-97 10,-19 48,-82 63,-98l0 0c67,91 40,130 89,207 15,24 153,63 180,66l0 0c-9,13 -14,34 -15,69 -1,77 19,154 19,235l-5 9c-36,61 -59,101 -6,160 35,39 36,73 13,120 -32,67 7,87 36,144 17,33 -62,119 -84,142 -30,31 -79,47 -92,75 -21,46 -9,72 21,111 -2,33 37,68 61,89 43,38 -21,70 -51,71 -24,0 -94,-41 -115,-57 -37,-30 -63,6 -88,25 -24,18 -48,52 -66,60 -53,24 -75,70 -90,125 -22,80 -60,77 -113,112 -31,20 8,107 22,133 21,38 38,95 74,121 41,30 127,88 108,149 -8,24 -3,38 8,45l0 0c-92,24 -131,37 -220,39 -35,1 -79,-16 -107,-8 -44,13 -70,40 -87,81 -16,37 -52,103 -95,113 -96,21 -111,-23 -145,-23 -12,0 -75,26 -84,32 -44,26 -101,-8 -128,-43 -25,-33 -52,-70 -85,-95 -24,-19 -35,24 -36,39 -3,57 -1,79 -12,140 -3,3 -7,9 -9,12 -30,49 -59,32 -115,52 -40,14 -58,69 -56,106 2,35 -27,90 -61,102 -35,12 -70,26 -105,40l0 0c-16,-9 -96,-74 -105,-89 -27,-44 -48,-8 -54,25 -11,62 -65,108 -66,160 0,7 2,99 3,102 14,48 -40,65 -45,99 -6,36 -63,73 -97,79 -36,7 -57,5 -98,14 -43,12 -83,-4 -125,-10 -39,-5 -70,-22 -95,-53 -28,-34 -29,-27 -41,-70 -6,-21 -4,-61 -30,-53 -67,21 -83,30 -143,64 -42,24 -23,13 -43,48 -28,50 -51,70 -109,66 -38,-3 -61,-10 -97,-14 -54,-7 -46,-14 -89,-26 -43,-12 -47,-3 -45,32 2,27 26,44 43,63 30,33 45,32 20,66 -17,23 -73,14 -87,4 -32,-21 -69,-34 -92,-67 -9,-13 11,-134 13,-148l0 0c0,-8 4,-22 7,-29 23,-59 8,-79 12,-130 5,-61 -29,-48 -72,-32 -45,17 -41,10 -66,-11 -11,-9 -86,48 -78,76 9,32 -11,69 -18,106 -12,3 -31,21 -51,22 -99,5 -92,-61 -179,-91 -52,-18 -49,-85 -49,-130 0,-49 -44,-48 -74,-67 -26,-16 17,-153 24,-175l0 0z"/>
  <path class="fil1 str0" d="M16655 19067c48,11 87,21 110,66 9,18 -30,64 -49,71 -32,12 -46,18 -82,7 -48,-14 -27,71 -52,100 -43,48 -51,56 -79,115 -9,19 -78,83 -42,99 23,10 29,67 26,90 -16,58 -22,59 -40,108 -7,19 0,71 -12,104 -10,27 -7,47 -30,72 -26,29 -29,23 -69,35 -32,10 -104,18 -46,59 107,74 -4,99 7,201 5,45 15,94 -33,115 -13,6 -62,61 -87,73 -21,10 -68,49 -37,71 19,14 33,33 55,48 65,44 67,106 179,93 36,-4 74,-14 108,4 76,45 60,61 89,81 9,6 19,23 41,32 24,10 30,21 65,16 58,-9 67,-30 104,28 25,40 32,45 67,78 37,34 60,78 88,119 35,53 112,87 153,127 26,25 28,44 69,68 42,25 79,-10 103,-44 14,-21 45,-54 73,-41 58,27 54,28 102,70 12,25 41,72 45,101 5,37 33,45 54,66l0 0c-17,27 -10,59 -32,87 -26,33 -130,38 -152,57 -22,19 4,41 -59,85l0 0 -38 -16c-81,-35 -99,-14 -142,64 -14,25 -70,93 -103,69 -36,-27 4,-64 -90,-105 -50,-22 -38,-50 -55,-86 -9,-19 -68,18 -70,20 -21,32 -37,66 -39,104 -4,69 -77,50 -81,22 -9,-58 52,-73 68,-101 19,-33 -27,-26 -43,-24 -38,4 -70,-11 -97,5 -90,54 48,139 -65,153 -38,5 -101,32 -126,15 -67,-45 -100,1 -134,-23 -21,-15 -27,-36 -67,-61 -76,-47 -22,-73 -138,-84 -89,-8 -77,-94 -128,18 -12,27 -29,49 -39,70 -11,25 -51,71 -36,89 30,36 71,45 113,56 58,15 28,44 73,54 81,17 67,-29 125,68 0,8 0,18 2,26 8,35 18,77 -6,111 -28,39 -115,32 -147,15 -87,-46 -79,-144 -191,-51 -38,32 -57,21 -69,30 -54,42 -114,155 -114,225 0,23 -28,228 -35,240 -36,53 -83,-3 -104,-10 -37,-13 -46,-27 -82,-45 -43,-21 -99,9 -133,35 -68,52 -86,-19 -86,-74 0,-91 -37,-111 -38,-128 -5,-57 129,-6 114,-61 -19,-71 -63,-75 -124,-97 -12,-5 -13,-58 -14,-67 2,-12 11,-41 16,-53 20,-48 19,-75 34,-115 32,-92 35,-113 44,-208 6,-59 46,-95 37,-149 -32,-189 29,-78 73,-99 53,-26 36,-98 40,-143 7,-80 1,-140 -7,-219 17,-50 105,-89 90,-128 -14,-35 -62,-49 -94,-60 -54,-18 -36,-142 -30,-186 11,-76 8,-111 8,-185 0,-91 11,-181 26,-270 15,-87 14,-117 44,-207l6 -24c29,-115 71,-211 105,-320 41,-133 73,-137 -65,-184 -48,-16 -139,-63 -179,-95 -14,-11 -58,-81 -67,-100 -18,-35 -69,-90 -64,-125 8,-54 61,-36 -45,-61 -56,-13 -123,3 -98,-63 6,-16 -55,-16 -103,-14l0 0 -5 -101 0 0c21,-33 35,-54 57,-84 22,-30 30,-50 47,-82 8,-15 56,63 121,17 21,-15 75,-58 67,-87 -6,-21 -49,-166 -14,-165 27,1 70,-16 75,-48 6,-32 24,-86 65,-64 26,14 103,10 116,-20 21,-51 50,-42 95,-53 7,-2 89,17 104,18 21,2 45,20 85,19 21,-1 13,39 17,62 6,41 7,59 19,100 4,14 31,243 30,257 -1,31 34,82 67,83 45,2 79,-13 119,0 42,13 9,48 19,100 1,7 4,24 10,29 35,43 48,53 84,14 45,-48 54,-34 107,-17 47,15 72,36 125,24 22,-5 56,-9 78,-3 57,15 64,44 114,62 33,12 95,32 129,32l0 0z"/>
  <path class="fil1 str0" d="M14924 18973l-5 -101 0 0 -91 -18c-19,-8 -44,-10 -60,-20 -27,-16 -80,-40 -112,-45 -104,-15 -109,130 -179,126 -14,-1 -68,-51 -74,-60 -38,-55 -83,-62 -133,-95 -55,-37 -39,-35 -108,-56 -54,-17 -44,-10 -99,-13 -63,-3 -130,13 -124,-73 3,-45 1,-92 9,-136l0 -3c2,-17 13,-92 13,-108 0,-20 -96,-15 -117,-19 -26,-5 -14,-59 -10,-77 18,-72 1,-124 6,-192 3,-44 16,-97 5,-141 -16,-64 -47,-109 -86,-162l0 0c-16,-9 -96,-74 -105,-89 -27,-44 -48,-8 -54,25 -11,62 -65,108 -66,160 0,7 2,99 3,102 14,48 -40,65 -45,99 -6,36 -63,73 -97,79 -36,7 -57,5 -98,14 -43,12 -83,-4 -125,-10 -39,-5 -70,-22 -95,-53 -28,-34 -29,-27 -41,-70 -6,-21 -4,-61 -30,-53 -67,21 -83,30 -143,64 -42,24 -23,13 -43,48 -28,50 -51,70 -109,66 -38,-3 -61,-10 -97,-14 -54,-7 -46,-14 -89,-26 -43,-12 -47,-3 -45,32 2,27 26,44 43,63 30,33 45,32 20,66 -17,23 -73,14 -87,4 -32,-21 -69,-34 -92,-67 -9,-13 11,-134 13,-148l0 0c-48,13 -27,7 -64,-4 -34,-9 -119,-11 -122,39 -1,21 39,34 37,102 -1,59 48,78 -11,130 -43,38 -33,91 -46,141 -1,4 -1,6 -2,10 11,87 7,57 -15,123 -7,21 23,92 13,140 -7,34 -9,75 -25,108 -28,55 -49,112 -114,131 -18,5 -82,54 -87,73 -11,42 6,105 6,140l0 0c13,4 14,35 76,41 54,5 63,29 110,36 43,6 59,48 66,85 3,18 28,58 46,63 47,12 20,13 44,43 24,30 100,-22 138,-18 16,2 116,1 129,-2 34,-8 42,-8 76,-22 48,-20 79,4 131,-7 25,-5 107,-33 86,22 -24,64 57,44 81,94 20,43 63,34 46,131 -13,73 -73,22 -105,-4 -24,-19 -56,15 -78,32 -35,27 -64,50 -26,94 26,29 100,5 142,92 28,58 47,13 67,52 14,29 -8,50 -41,47 -73,-8 -115,-19 -172,36 -36,35 -18,60 32,57 15,-1 116,-8 123,-10 85,9 49,22 78,55 35,40 214,-86 202,14 -9,79 33,71 45,147 10,64 -65,118 -37,180 18,39 3,111 75,67 15,-10 27,-36 57,-53 48,-27 20,-23 77,-38 57,-15 86,-123 174,-122 29,0 177,-24 204,-33 77,-27 161,-47 87,-136 -49,-59 -31,-128 -30,-198 0,-23 8,-118 16,-134 24,-50 98,9 149,-71 31,-48 53,-81 92,-123 11,-12 25,-28 35,-42 91,-55 67,-11 149,-31 79,-19 58,-81 151,-113 32,-11 142,-42 156,-69 24,-47 -51,-70 19,-137 52,-49 -37,-138 90,-172 142,-38 68,-100 161,-87 6,1 27,0 51,-1l0 0z"/>
  <path class="fil1 str0" d="M17004 18676c36,31 70,78 103,10 13,-26 7,-45 48,-22 29,16 93,-3 67,82 -23,74 5,32 52,93 11,13 82,71 97,71 49,0 74,-48 92,20 6,25 24,37 47,43 32,8 94,34 123,50 35,19 73,-6 97,-31 34,-35 81,-33 113,2 17,18 136,21 77,66 -43,34 -74,63 -46,121l1 3c3,16 25,132 63,123 92,-24 99,77 184,23 53,-34 107,66 140,-14 29,-69 121,-24 143,-45 15,-13 22,-16 41,-16l68 75 0 0c32,-2 81,1 121,-32 45,-37 59,-61 49,-122 -9,-53 -79,-11 -125,-12 -78,-2 -94,11 -94,-91 0,-64 21,-39 71,-18 39,16 64,39 114,17 35,-15 11,-44 -4,-70 -11,-19 -24,-22 -33,-33 -62,-65 -61,-35 38,-84 45,-22 74,-111 -22,-96 -31,5 -133,4 -161,-13 -35,-21 -42,-42 -45,-82 -16,-113 -32,-78 30,-179 22,-36 14,-66 11,-106 -3,-43 -48,-87 -86,-103 -12,-5 -39,-36 -49,-46 11,-71 20,-38 63,-75 32,-28 77,-84 78,-127 1,-66 2,-64 -55,-104 -37,-26 -67,-18 -67,-78 0,-49 -7,-74 -41,-110 -11,-12 -71,-26 -83,-67 -2,-7 -15,-39 -26,-39 -21,0 -47,25 -72,-20 -24,-42 -4,-108 -42,-118 -30,-8 -84,55 -128,-34 -9,-19 -36,-23 -59,-39 -6,-4 -11,-7 -16,-12 -16,-9 -51,-30 -67,-44 -7,-6 -28,-6 -35,-25 -7,-19 -11,-3 -21,-50 -6,-26 -33,-45 -46,-79 -12,-33 -81,-14 -113,-54 -8,-9 -19,-28 -27,-34l0 0c-22,41 -26,66 -48,104 -16,29 -94,62 -128,26 -31,-31 -61,-36 -97,-10 -39,28 -68,13 -116,32 -98,41 -194,53 -145,186 12,32 14,88 0,118 -28,105 -21,105 -120,148 -38,16 -168,43 -228,23l0 0 -87 66c-19,26 -30,33 -48,56 -31,41 -14,103 -24,154 -7,36 -8,120 1,157 9,35 6,80 27,118 49,91 32,107 138,151 34,14 76,32 114,35 29,2 134,39 153,59 11,11 17,28 23,42l17 59 0 0z"/>
  <path class="fil1 str0" d="M16655 19067c64,-56 102,-64 111,-154 4,-42 14,-69 44,-99 24,-24 64,-37 91,-61 14,-13 40,-24 53,-41 12,-16 40,-28 50,-36l0 0c36,31 70,78 103,10 13,-26 7,-45 48,-22 29,16 93,-3 67,82 -23,74 5,32 52,93 11,13 82,71 97,71 49,0 74,-48 92,20 6,25 24,37 47,43 32,8 94,34 123,50 35,19 73,-6 97,-31 34,-35 81,-33 113,2 17,18 136,21 77,66 -43,34 -74,63 -46,121l1 3c3,16 25,132 63,123 92,-24 99,77 184,23 53,-34 107,66 140,-14 29,-69 121,-24 143,-45 15,-13 22,-16 41,-16l68 75 0 0c-14,1 -24,3 -30,9 -31,32 40,71 -3,112 -61,59 -6,43 5,78 13,43 -8,53 -46,75 0,34 -11,66 -34,87 -33,31 -63,101 -30,138 30,33 33,92 19,134 -34,99 -34,128 73,155 58,15 151,44 132,123 -7,30 -51,74 -3,101 22,12 45,54 15,82 -25,23 -59,86 -18,108 74,39 82,136 38,198 -10,14 -17,27 -22,41l-101 22c-76,2 -64,-44 -93,-54 -50,-18 -61,63 -60,95 1,37 3,30 -1,70 -9,90 -19,56 -39,123 -10,34 -44,51 -77,58 -58,11 -101,6 -135,-46 -21,-32 -56,-41 -71,2 -17,48 -53,53 -68,72 -16,19 65,117 -20,123 -34,3 -87,-9 -130,-8 -34,1 -78,15 -105,11 -40,-5 -28,1 -64,7 -71,11 -100,30 -114,52l0 0c-21,-21 -49,-29 -54,-66 -4,-29 -33,-76 -45,-101 -48,-42 -43,-44 -102,-70 -28,-13 -58,20 -73,41 -24,35 -60,69 -103,44 -41,-24 -43,-43 -69,-68 -40,-40 -117,-73 -153,-127 -27,-41 -51,-86 -88,-119 -35,-32 -42,-38 -67,-78 -36,-58 -45,-38 -104,-28 -35,6 -41,-6 -65,-16 -23,-9 -32,-25 -41,-32 -29,-20 -13,-36 -89,-81 -33,-19 -71,-9 -108,-4 -113,14 -114,-48 -179,-93 -22,-15 -36,-34 -55,-48 -31,-22 16,-61 37,-71 25,-12 74,-68 87,-73 47,-20 38,-70 33,-115 -12,-102 99,-127 -7,-201 -58,-41 14,-49 46,-59 40,-12 43,-6 69,-35 23,-26 20,-45 30,-72 12,-33 5,-85 12,-104 18,-49 24,-50 40,-108 3,-23 -4,-81 -26,-90 -36,-16 33,-80 42,-99 27,-59 36,-67 79,-115 26,-29 5,-114 52,-100 36,11 50,5 82,-7 19,-7 58,-53 49,-71 -23,-45 -62,-55 -110,-66l0 0z"/>
  <path class="fil1 str0" d="M13761 17780c35,-14 70,-28 105,-40 34,-12 63,-67 61,-102 -2,-37 16,-92 56,-106 56,-20 86,-2 115,-52 2,-4 6,-9 9,-12 11,-61 8,-83 12,-140 1,-16 12,-59 36,-39 32,26 60,63 85,95 27,35 84,70 128,43 10,-6 73,-32 84,-32 34,0 50,45 145,23 42,-9 79,-76 95,-113 18,-41 43,-68 87,-81 28,-8 72,8 107,8 89,-2 128,-15 220,-39l0 0c11,7 29,7 48,1 39,-12 44,-19 93,-27 7,0 20,-4 27,-5 61,-12 77,-20 128,11 91,56 131,-73 265,-63 38,3 60,25 77,20 79,-22 -1,-86 17,-137 26,-74 104,71 184,74 23,1 43,23 53,42 24,47 62,37 111,37 54,0 43,-12 103,11l12 4c80,22 80,65 105,79 47,26 26,16 45,49 22,38 13,72 25,113 13,46 7,106 21,138 13,31 92,82 124,97 104,48 62,54 120,128 5,7 14,12 24,15l0 0 -87 66c-19,26 -30,33 -48,56 -31,41 -14,103 -24,154 -7,36 -8,120 1,157 9,35 6,80 27,118 49,91 32,107 138,151 34,14 76,32 114,35 29,2 134,39 153,59 11,11 17,28 23,42l17 59 0 0c-10,8 -38,21 -50,36 -13,16 -39,28 -53,41 -27,24 -67,37 -91,61 -30,30 -39,57 -44,99 -9,90 -47,98 -111,154l0 0c-34,0 -96,-20 -129,-32 -50,-18 -57,-47 -114,-62 -22,-6 -56,-2 -78,3 -53,13 -78,-9 -125,-24 -54,-17 -63,-31 -107,17 -36,39 -49,28 -84,-14 -6,-5 -8,-22 -10,-29 -9,-52 23,-87 -19,-100 -40,-12 -74,2 -119,0 -33,-1 -68,-52 -67,-83 1,-14 -26,-243 -30,-257 -12,-41 -13,-60 -19,-100 -3,-23 5,-63 -17,-62 -40,1 -64,-17 -85,-19 -15,-1 -96,-20 -104,-18 -45,11 -74,2 -95,53 -13,30 -90,34 -116,20 -41,-22 -59,32 -65,64 -6,32 -49,49 -75,48 -35,-1 8,143 14,165 8,29 -47,72 -67,87 -65,46 -114,-31 -121,-17 -17,32 -25,52 -47,82 -22,30 -36,51 -57,84l0 0 -91 -18c-19,-8 -44,-10 -60,-20 -27,-16 -80,-40 -112,-45 -104,-15 -109,130 -179,126 -14,-1 -68,-51 -74,-60 -38,-55 -83,-62 -133,-95 -55,-37 -39,-35 -108,-56 -54,-17 -44,-10 -99,-13 -63,-3 -130,13 -124,-73 3,-45 1,-92 9,-136l0 -3c2,-17 13,-92 13,-108 0,-20 -96,-15 -117,-19 -26,-5 -14,-59 -10,-77 18,-72 1,-124 6,-192 3,-44 16,-97 5,-141 -16,-64 -47,-109 -86,-162l0 0z"/>
  <path class="fil1 str0" d="M6458 10613l-21 142c5,63 5,58 -31,96 -64,67 -60,49 -51,145 6,62 -12,122 9,167 25,53 56,201 10,247 -68,68 -85,48 -169,80 -81,30 -102,21 -156,102 -42,62 28,171 84,204 19,12 34,30 66,47 64,33 50,102 8,122 -90,95 -63,38 -108,77 -56,47 19,99 19,173 0,50 -34,87 -34,169 0,73 79,146 91,192l0 0c-11,11 -15,29 -25,46 -53,91 -90,55 -158,37 -30,-8 -72,-55 -82,-80 -11,-27 -32,-50 -51,-73 -28,-34 -15,-20 -29,-55 -13,-33 -86,89 -86,90 -14,12 -31,40 -50,58 -90,87 -197,-17 -251,83 -49,90 -95,32 -167,8 -57,-19 -77,-63 -77,-122 1,-108 -42,-79 -58,-130 -13,-40 -1,-38 -23,-72 -34,-54 -114,-9 -172,-28 -32,-10 -84,24 -104,48 -75,87 -79,16 -144,-9 -21,-8 -37,-23 -46,-27 -34,-14 -82,-54 -96,-90 -9,-25 40,-115 52,-133 16,-55 -40,-101 -86,-120 -56,-23 -48,-80 -64,-134 -24,-83 -129,-76 -171,-130 -41,-51 -90,-47 -148,-54 -71,-8 -58,-17 -89,-66 -27,-42 -176,9 -213,24l-12 4c-83,44 -51,96 -106,155 -92,98 -90,78 -210,78 -44,0 -153,19 -182,-26 -27,-42 -44,-30 -66,-47 -50,-38 -123,35 -179,20 -31,-9 -78,-9 -92,-14 -54,-20 -70,93 -82,124 -15,40 -14,105 -53,120 -17,7 -92,-1 -113,-5 -35,-7 -53,-1 -86,-12 -22,-7 -24,-136 -24,-162 -2,-95 -48,-82 -81,-164 -3,-6 -12,-17 -16,-22 -42,-52 -24,-49 -41,-95 -30,-85 -18,-87 -112,-117 -25,-8 -68,-17 -79,-38 -24,-45 6,-135 -11,-200 -9,-37 102,-36 125,-44 75,-26 84,38 139,6 26,-15 49,-167 84,-201 56,-54 33,-110 75,-129 24,-11 41,-80 46,-99 -93,-33 -119,-107 -256,-159l-12 -119c-1,-15 -4,-34 -4,-48 2,-147 -20,-184 62,-325 48,-82 11,-151 45,-236 23,-58 39,-97 54,-160 8,-50 6,-99 13,-140 8,-44 6,-81 11,-121 15,-139 -7,-65 -81,-130 -41,-37 -53,47 -80,73 -75,70 -117,-62 -268,50 -20,15 -116,14 -143,11 -30,-4 -107,1 -126,-14 -47,-38 -43,-145 -40,-196 7,-86 39,-168 66,-249 10,-30 60,-69 89,-80 33,-12 67,-40 109,-52 61,-18 200,-77 172,-161 -4,-12 -8,-126 -14,-155 -10,-46 -7,-42 -43,-68 -64,-46 -125,-40 -165,-66 -24,-15 6,-44 17,-68 12,-24 24,-37 35,-67 6,-15 23,-73 45,-83l0 0c4,-2 9,-2 13,0 30,16 76,30 104,48 34,22 93,30 141,64 37,26 56,13 107,60 56,52 213,99 265,12 9,-16 36,-68 44,-86 39,-20 50,-36 83,-60 30,-22 67,-56 98,-77 39,-27 59,-61 110,-83 64,-26 53,-18 116,-26 49,-6 93,10 151,-10 96,-33 84,-11 164,-81 25,-21 74,-62 104,-72 71,-25 56,31 91,50 20,25 23,33 36,56 9,16 96,73 114,79 68,24 113,-2 184,-12 113,-16 63,57 92,110 19,36 58,-9 99,-20 38,-10 36,-7 59,27 12,17 43,111 46,133 7,47 41,99 90,112 30,8 88,29 102,58 4,8 8,15 10,23 26,34 28,36 53,62 42,45 50,92 119,107 53,12 103,6 135,-44 47,-73 85,-41 152,-31 55,8 61,-82 75,-99 38,-48 55,-33 88,-100 6,-13 43,-70 58,-35 30,67 67,41 64,146 -2,74 -20,112 -63,170 -19,26 -57,81 -18,105 23,14 119,58 112,88 -10,43 -73,39 -38,152 25,81 125,-38 143,45 16,74 32,94 99,133 49,29 64,19 66,-39 3,-101 -60,-147 24,-242 9,-11 37,-43 49,-47 17,-9 110,-68 131,-32 35,59 55,33 34,118 -11,43 -15,66 1,107 27,67 67,67 82,135 19,79 91,67 79,171 -1,9 -2,22 -3,30 -3,66 -13,119 -86,77 -18,-10 -90,-39 -93,-1 -3,37 9,53 -15,93 -21,35 -63,57 -24,99 14,15 65,117 82,129 -57,29 -81,40 -145,91 -17,14 -29,12 -49,19 -14,5 -30,12 -46,21 49,98 36,40 64,67 15,15 -5,108 29,161 34,52 115,13 151,77 24,43 120,51 84,119 -16,31 -30,101 -5,133 19,26 23,54 23,86 5,46 1,68 4,105 2,22 45,2 60,0 90,-9 79,29 165,-42 19,-15 48,-33 72,-33 22,0 55,-3 76,-9l0 0z"/>
  <path class="fil1 str0" d="M6173 12574c7,-8 18,-12 34,-12 27,0 118,-14 135,-31 27,-27 12,-70 38,-95l0 0 -98 -119c15,-58 8,-34 38,-64 17,-18 24,15 62,-58 10,-20 48,-62 73,-40 16,14 130,43 147,39 33,-9 103,-15 139,-15 69,0 153,-15 211,-54 31,-22 36,-89 12,-122 -33,-43 -56,-82 -48,-138 7,-45 -13,-80 50,-107 27,-12 77,-35 97,-53 40,-68 19,-58 36,-112 7,-21 55,-46 76,-47 10,0 28,29 82,18 48,-10 33,44 86,25 33,-12 79,-8 93,31 28,82 111,-42 155,3 47,48 25,37 54,87 14,23 63,104 78,118 90,80 185,-16 250,24 66,41 20,93 56,123 21,18 55,-6 63,-33 20,-64 -9,-74 52,-133 60,-59 -15,-123 37,-212 42,-57 80,-87 145,-111 61,-22 206,-7 259,-38 55,-32 65,-28 105,-83 57,-79 111,-40 76,-172 -29,-112 78,-45 130,-112 43,-54 55,-126 116,-185 35,-34 63,-31 113,-35 39,-3 98,-5 130,19 70,53 101,-23 160,-41 41,-72 44,-121 75,-194 33,-76 34,78 85,96 78,27 66,-90 105,-74 62,25 131,-32 144,-95 16,-81 85,-94 144,-39 16,15 48,31 69,35l0 0 27 -113c0,-19 -2,-32 -7,-50 -24,-83 -65,-63 -53,-153 12,-85 40,-83 -14,-147 -48,-57 -3,-114 -4,-146 -2,-56 6,-42 -23,-91 -37,-61 -64,-57 -27,-120 17,-28 25,-38 30,-72l3 -134 0 0c-26,-6 -52,-16 -76,-26 -47,-20 -59,-55 -92,-76 -87,-57 -125,19 -179,0 -91,-31 -80,-115 -126,-146 -60,-40 -27,-71 -92,-107 -115,-63 9,-199 -133,-155 -56,17 -121,35 -175,1 -32,-21 -52,-19 -74,-33 -20,-13 -55,21 -68,36 -43,46 -39,41 -98,32 -36,-5 -81,-49 -110,-35 -48,23 -44,95 -52,135 -14,72 -40,132 -50,203 -6,46 -45,23 -59,1 -37,-57 -54,-33 -73,-52 -44,-43 0,-52 -87,-70 -29,6 -64,11 -92,19 -121,33 -68,53 -82,100 -15,49 -47,86 -102,78 -102,-14 -66,-18 -168,15 -44,14 -65,-65 -74,-98 -35,-117 -68,-48 -121,-77 -62,-34 -83,26 -119,35 -22,6 -61,-49 -76,-67 -29,-35 -66,-45 -86,-68 -39,-47 -124,-41 -150,-100 -25,-59 -53,33 -58,53 -17,74 -52,103 -122,126 -9,3 -104,37 -105,37 -29,1 -42,37 -42,62 0,35 6,72 -1,106 -13,0 -26,5 -46,20 -74,59 -87,232 -245,263 -14,27 -6,93 1,115 9,28 80,106 4,96 -5,-1 -64,-30 -73,-35 -68,-41 -47,49 -57,78 -16,45 -16,63 -47,104l-1 4c-26,32 -43,82 -86,96 -38,12 -84,38 -57,85 12,20 66,61 92,100 32,48 65,22 29,69 -32,42 -25,54 -42,84 -17,29 -14,55 -44,64l0 0 -21 142c5,63 5,58 -31,96 -64,67 -60,49 -51,145 6,62 -12,122 9,167 25,53 56,201 10,247 -68,68 -85,48 -169,80 -81,30 -102,21 -156,102 -42,62 28,171 84,204 19,12 34,30 66,47 64,33 50,102 8,122 -90,95 -63,38 -108,77 -56,47 19,99 19,173 0,50 -34,87 -34,169 0,73 79,146 91,192l0 0z"/>
  <path class="fil1 str0" d="M16312 6743c53,39 41,35 94,49 6,1 37,17 52,22 13,4 80,27 88,35 13,13 2,40 10,62 14,37 83,38 105,70 7,9 50,31 38,70 -4,13 -9,59 -3,73 17,45 -48,76 15,136 48,46 -38,55 12,156 0,1 2,6 3,8 19,34 50,68 83,88 24,14 49,-15 84,-8 27,6 42,8 60,32 18,25 112,23 139,17 28,-6 96,-3 122,9 10,5 54,21 66,26l0 0c41,-59 162,-36 193,-60 91,-71 56,-43 158,-82 152,-59 185,-231 260,-283 177,-122 106,-224 146,-284 63,-94 109,-16 213,-132 74,-82 111,-196 185,-270 55,-55 107,-89 148,-162 47,-83 61,-76 88,-182 7,-29 46,-72 69,-89 37,-28 80,-78 103,-95 54,-41 103,-106 68,-178 -35,-71 -13,-141 38,-198 62,-70 -2,-115 -48,-167l0 0 -16 4c-26,2 -52,19 -67,17 -56,-8 -90,-63 -114,-107 -32,-59 -59,-63 -93,-103 -32,-38 -19,-91 -33,-125 -14,-35 -33,-26 -63,-14 -14,41 -72,259 -141,238 -53,-16 -88,-17 -143,-10 -32,4 -103,52 -121,15 -17,-35 51,-136 68,-177 9,-20 56,-113 58,-119 19,-85 -68,22 -74,27 -61,50 -65,56 -114,121 -17,11 -74,64 -85,66 -56,9 -56,-78 -79,-108 -17,-23 -117,-64 -147,-65 -66,-3 -41,-29 -81,-55 -82,-53 -135,-26 -181,-12l0 0 -123 124c-16,18 -28,32 -41,52 -15,23 -37,50 -49,70 -32,55 -58,85 -32,146 17,41 -6,89 -47,107 -44,20 -93,63 -142,89 -64,34 -48,-11 -102,24 -26,17 -119,104 -139,131 -28,37 -53,50 -77,82 -18,23 -8,79 -48,100 -35,18 -23,3 -70,34 -36,43 -137,131 -120,194 20,77 -43,80 -34,114 16,62 90,77 145,77 31,0 10,49 1,64 -45,81 -52,38 -74,29 -17,-7 -103,-56 -116,-51 -24,8 -37,-3 -75,9 -56,18 -100,65 -126,73 -41,13 -74,55 -71,98 3,54 50,67 82,90 56,39 53,23 94,88l0 0z"/>
  <path class="fil1 str0" d="M12826 7219l-83 95c-8,14 -53,91 -67,106 -22,25 -79,121 -60,153 11,19 -10,106 73,93 39,-6 101,20 144,20 48,0 7,35 -4,64 -18,45 -30,135 -34,184 -1,6 -23,79 -4,83 18,4 48,-11 75,16 12,12 -4,85 -4,110 0,73 -11,152 -11,227 0,28 23,24 51,28 102,15 144,22 216,101 17,19 31,34 49,53 30,32 45,68 75,101 11,12 38,63 58,42 43,-45 185,-75 201,-97 21,-29 -2,-70 -4,-108 -8,-139 33,-58 128,-126 45,-32 -33,-70 52,-126 24,-16 78,-12 100,-56 14,-27 39,-58 66,-71 92,-3 50,26 73,39 12,7 44,-8 65,57 15,46 17,127 87,99 25,-10 74,-3 100,4 38,10 92,-21 148,-19 22,0 58,-5 83,-5l0 0c49,-20 76,-39 120,-62 18,-9 53,-36 71,-26 30,16 22,19 50,39 32,23 94,-10 106,28 7,22 25,17 31,71 5,39 46,68 74,12 30,-60 31,-71 100,-75 64,-4 101,28 160,44 37,10 58,-19 112,-3 40,12 116,-2 159,-5 82,-39 58,-26 121,-77 15,-11 46,-46 54,-64 8,-20 32,-60 46,-76 15,-18 42,-10 71,-21 94,-34 11,75 102,80 25,2 24,5 51,3 40,-3 27,9 78,-7 62,-20 91,22 154,20 60,-2 79,-28 134,-26 43,1 82,-37 99,-73 10,-21 28,-33 42,-67 7,-18 32,-110 66,-78 26,25 55,8 45,68 -4,25 8,69 46,54 52,-21 112,-17 162,6 19,9 30,30 46,42 5,25 20,102 49,115 33,15 70,15 108,28 0,0 85,24 86,24l0 0c24,-33 36,-66 64,-104 15,-20 31,-43 42,-66 2,-44 27,-71 59,-97 54,-43 80,-8 138,-105 2,-4 22,-98 24,-102 5,-5 -3,-105 -5,-117 -6,-35 0,-59 12,-76l0 0c-12,-5 -55,-22 -66,-26 -27,-12 -95,-15 -122,-9 -27,6 -121,8 -139,-17 -17,-25 -33,-26 -60,-32 -34,-8 -60,22 -84,8 -33,-21 -64,-55 -83,-88 -1,-2 -2,-7 -3,-8 -50,-101 36,-110 -12,-156 -63,-61 3,-91 -15,-136 -5,-14 -1,-60 3,-73 12,-39 -32,-60 -38,-70 -23,-32 -91,-34 -105,-70 -8,-22 3,-49 -10,-62 -8,-8 -75,-31 -88,-35 -16,-5 -47,-21 -52,-22 -53,-14 -41,-10 -94,-49l0 0c-21,4 -27,68 -39,84 -42,54 -86,-13 -116,-26 -53,-25 -42,83 -47,114 -11,62 -5,59 -6,122 -6,0 -12,0 -17,0 -76,1 -161,-27 -194,-102 -24,-54 -115,-86 -163,-109 -18,-13 -58,-37 -81,-39 -56,-5 -75,15 -117,42 -31,20 -86,12 -107,-13 -103,-122 31,-186 5,-207 -12,-9 -119,-26 -160,-48 -54,-28 -65,37 -110,53 -26,10 -56,-86 -61,-106 -16,-77 -37,-50 -79,-92 -53,-53 -64,-31 -84,-105 -8,-29 -30,-49 -60,-52 -37,-3 -22,4 -78,-8 -30,25 -52,13 -69,69 -7,22 -7,105 -14,128 -7,23 -110,66 -132,70 -78,17 -125,76 -190,97 -18,6 -107,9 -128,6 -45,-7 -146,31 -180,21 -52,-15 -63,10 -95,38 -54,47 -59,97 -128,150l-144 66 0 0c-4,20 -12,38 -27,63 -13,7 -19,17 -28,24 -74,56 -129,123 -199,181 -21,17 -42,43 -57,55 -29,24 -79,73 -101,103 -27,37 -58,60 -102,72 -30,9 -50,1 -71,4 -49,5 -19,7 -61,-9 -75,-30 -12,-137 -117,-144 -53,-3 -81,-10 -131,-25l0 0z"/>
  <path class="fil1 str0" d="M15301 4579l174 -73c50,-57 72,-84 97,-155 31,-88 61,-95 118,-158 25,-28 70,-85 85,-118 14,-31 69,-76 92,-125 10,-19 60,-136 80,-73 24,77 34,72 86,127 70,74 55,56 104,142 64,112 118,3 249,50 17,6 45,28 63,31l0 0c20,-19 44,-35 58,-43 52,-31 113,-129 133,-186 17,-46 14,-120 18,-166 -8,-31 -19,-69 -30,-98 -44,-111 0,-201 -28,-272 -16,-42 -110,-82 -151,-101 -67,-31 -82,-82 -127,-94 -76,-20 -113,-57 -175,-92 -53,-30 -84,-32 -145,-18 -25,1 -100,54 -144,20 -65,-49 16,-137 -53,-193 -67,-55 20,-86 10,-125 -9,-36 -27,-4 -27,-80 0,-75 -114,-60 -149,-84 -50,-35 -94,-53 -154,-68 -52,-22 -58,-76 -43,-124 11,-37 7,-67 -10,-102 -28,-58 -37,-57 -87,-88 -21,-13 -58,-26 -66,-43 -21,-47 -53,-70 -68,-99 -15,-30 -62,14 -73,30 -9,12 -94,89 -106,93 -67,27 -147,-110 -193,-150 -29,-25 -41,-73 -53,-85 -39,-37 -37,-30 -60,-78 -9,-18 -72,33 -77,39 -15,17 -84,75 -102,85 -22,12 -41,37 -49,42l0 0c-25,15 18,66 26,81 25,47 63,64 81,118 2,6 48,61 49,62 26,19 41,44 60,72 69,60 88,26 133,57 37,25 25,128 52,173 25,42 43,51 25,108 -6,20 -23,36 -30,71 -9,39 -15,79 -30,116 -7,17 -16,28 -25,32 -4,103 15,69 -28,160 -32,68 26,119 -4,194 -10,26 -27,128 -26,155l0 0c16,10 20,48 28,51 47,23 17,51 52,54 55,5 75,-9 113,-47 45,-45 38,18 56,40 11,13 8,9 19,24 29,42 17,74 25,88 9,14 -4,34 4,39 51,32 63,7 105,67 10,23 78,61 91,116 8,33 36,64 6,95 -21,22 -51,79 -31,105 40,53 -4,124 -3,162 3,94 -92,34 -115,58 -35,37 83,59 114,89 25,24 46,56 56,90l0 0z"/>
  <path class="fil1 str0" d="M13720 6896l144 -66c69,-53 74,-103 128,-150 32,-28 43,-53 95,-38 34,10 135,-28 180,-21 20,3 109,-1 128,-6 65,-21 112,-79 190,-97 22,-5 125,-48 132,-70 7,-23 8,-106 14,-128 17,-56 39,-44 69,-69 56,12 41,5 78,8 31,3 52,23 60,52 20,74 31,52 84,105 42,42 63,15 79,92 4,20 34,116 61,106 45,-16 56,-81 110,-53 41,21 148,38 160,48 26,21 -108,85 -5,207 21,25 76,33 107,13 42,-27 61,-47 117,-42 22,2 62,26 81,39 48,23 139,55 163,109 33,75 118,104 194,102 6,0 12,0 17,0 0,-63 -6,-60 6,-122 6,-31 -5,-139 47,-114 29,14 74,81 116,26 13,-16 18,-80 39,-84l0 0c-41,-65 -39,-48 -94,-88 -32,-23 -79,-36 -82,-90 -2,-43 30,-85 71,-98 25,-8 70,-55 126,-73 39,-13 51,-1 75,-9 13,-4 99,44 116,51 22,9 29,52 74,-29 8,-15 30,-64 -1,-64 -56,0 -129,-14 -145,-77 -9,-35 54,-37 34,-114 -17,-63 84,-151 120,-194 46,-31 35,-15 70,-34 40,-21 30,-76 48,-100 24,-32 49,-45 77,-82 20,-27 113,-114 139,-131 54,-35 38,10 102,-24 49,-26 98,-69 142,-89 41,-18 64,-66 47,-107 -26,-61 0,-91 32,-146 12,-20 34,-47 49,-70 13,-20 25,-34 41,-52l123 -124 0 0c-35,11 -67,15 -104,-30 -64,-77 -119,-23 -134,-65 -15,-41 -10,-22 -28,-47 -36,-52 -96,-33 -148,-20 -98,26 -74,-19 -115,-7 -69,20 -95,-47 -93,-104 0,-7 -9,-32 -11,-39 -12,-35 -20,-73 -34,-104 -12,-26 -85,-79 -109,-86 -46,-13 -116,-60 -163,-71 -39,-9 -68,-25 -96,-53 -30,-29 -20,-48 -28,-72 -7,-23 13,-50 37,-73l0 0c-18,-4 -46,-25 -63,-31 -131,-47 -185,62 -249,-50 -49,-86 -34,-68 -104,-142 -52,-56 -63,-50 -86,-127 -19,-63 -70,53 -80,73 -24,49 -78,94 -92,125 -15,33 -60,90 -85,118 -57,63 -87,70 -118,158 -25,71 -47,98 -97,155l-174 73 0 0c3,9 5,19 6,28 9,72 13,90 -61,131l-4 3c-134,99 -12,104 -14,162 -3,63 -36,100 -74,143 -39,45 37,107 73,126 48,25 48,43 54,100 13,127 126,63 67,142 -11,15 -104,81 -126,97 -19,14 -55,66 -76,39 -53,-68 14,-135 -45,-190 -18,-17 -32,-73 -61,-95 -61,-47 -121,-80 -130,-165 -8,-78 -130,178 -232,126 -32,-16 -74,-27 -98,-49 -68,-62 -23,-87 -105,-71 -26,5 -78,36 -91,31 -30,-12 -23,3 -39,14 -17,11 -29,25 -42,37 -17,16 31,71 34,106 3,24 -3,23 -4,38 -1,16 -16,63 -16,66 4,36 14,41 31,69 29,49 40,74 7,123 -6,8 -91,93 -95,97 -53,37 -167,130 -229,139 -38,5 -90,36 -111,68 -89,138 -135,83 -204,170 -36,46 -19,64 -89,73 -83,10 -103,-28 -179,20 -77,49 -122,-17 -118,69 3,55 -10,65 -13,106 -2,28 -2,21 41,24 49,-12 101,-34 135,-74 85,-101 27,59 142,128 75,45 -8,59 20,101 22,33 79,38 118,54 49,20 19,66 25,117 11,81 -87,76 -77,41 4,-14 -1,-24 -2,-34 -1,-32 -59,-110 -84,-111 -73,-3 -15,78 -14,107 3,42 -5,25 19,53 18,20 22,21 40,36 25,21 48,28 46,65 -1,22 -2,38 -5,54l0 0z"/>
  
  
  
  
  
  
  
  
  
  
  
  
  
  
  
  
  
  
  
  
  
  
  <g id="_2421601339088">
   
   
   
   
   
   
   
   
  </g>
  <g id="_2421601333904">
   
   
   
   
   
   
   
   
   
   
   
   
   
   
  </g>
 </g>
</svg>