<svg xmlns="http://www.w3.org/2000/svg" xmlns:xlink="http://www.w3.org/1999/xlink" xml:space="preserve" width="297mm" height="210mm" version="1.1" style="shape-rendering:geometricPrecision; text-rendering:geometricPrecision; image-rendering:optimizeQuality; fill-rule:evenodd; clip-rule:evenodd" viewBox="0 0 29700 21000">
 <defs>
  <style type="text/css">
   <![CDATA[
    .str1 {stroke:white;stroke-width:50;stroke-opacity:0.501961}
    .str3 {stroke:white;stroke-width:50}
    .str5 {stroke:#434242;stroke-width:50}
    .str0 {stroke:white;stroke-width:50}
    .str2 {stroke:white;stroke-width:50}
    .str6 {stroke:#2B2A29;stroke-width:7.62}
    .str4 {stroke:white;stroke-width:7.62}
    .fil6 {fill:none}
    .fil1 {fill:#171729}
    .fil0 {fill:#171729}
    .fil8 {fill:#D9DADA}
    .fil5 {fill:#171729;fill-rule:nonzero}
    .fil4 {fill:#D9DADA;fill-rule:nonzero}
    .fil7 {fill:#434242;fill-rule:nonzero}
    .fil3 {fill:black;fill-rule:nonzero}
    .fil2 {fill:#171729;fill-rule:nonzero;fill-opacity:0.501961}
   ]]>
  </style>
 </defs>
 <g id="Plan_x0020_1">
  <metadata id="CorelCorpID_0Corel-Layer"/>
  
  
  
  
  
  
  
  <path class="fil1 str0" d="M11483 6226l-40 107c23,107 42,104 126,154 66,39 180,-48 180,7 0,41 -24,103 35,110 21,2 50,46 70,66 65,65 -79,88 -46,178 33,91 -23,79 -23,194 0,93 178,-6 174,90 -1,33 31,61 70,49 24,-7 84,32 134,37 43,4 91,71 185,4 30,-22 44,-19 81,-53 18,-16 70,-55 92,-47 58,20 27,12 73,42 7,4 109,-13 156,24 64,50 68,-19 114,59 50,84 89,-45 163,-19 117,41 45,74 87,115l9 5c71,93 36,35 98,18 37,-10 97,106 136,65 19,-20 87,-100 115,-55 40,64 148,-45 207,28 47,57 -63,181 64,113 93,-49 88,-2 124,-5l-3 2 6 -5c47,-37 111,-43 119,-99 5,-33 -16,-126 -42,-150 -32,-30 -49,-65 -71,-99 -43,-69 -25,-94 -5,-176 36,-149 -70,-151 -26,-246 29,-63 12,-47 -8,-83 -20,-35 -42,-64 -8,-102 76,-86 95,-64 126,-198 3,-15 4,-30 6,-45 20,-124 -16,-129 -113,-180 -66,-35 -110,-12 -139,-46 -36,-42 -40,-109 -66,-127 -76,-50 27,-193 -74,-189 -47,2 -44,-90 -39,-116 37,-172 84,-107 93,-127 16,-37 44,-42 70,-59 66,-45 55,-12 90,6 112,54 -1,-88 18,-134 18,-45 -163,-181 -28,-168 65,6 93,12 154,-30 44,-32 40,-17 71,-13 79,10 71,8 68,-80l73 -64 0 0c-6,-10 -13,-21 -22,-31 -37,-43 -40,-89 -72,-121 -54,-54 -108,-53 -178,-64 -28,-5 -45,-19 -69,-19 -102,-2 -100,58 -152,64 -79,9 -99,-34 -160,-57 -43,-16 -41,-34 -66,-51 -43,-29 -59,-21 -76,29 -17,51 -32,135 -87,161 -69,33 -42,70 -42,125 0,48 -32,75 -11,116 25,49 -17,110 -45,147 -15,11 -25,29 -34,44 -18,29 -93,49 -124,50 -65,3 -68,55 -21,91 61,47 5,144 36,169 15,13 32,48 42,66 11,18 22,67 22,87 1,40 -4,118 -52,132 -59,18 -37,17 -101,15 -27,-1 -57,-9 -84,-17 -70,-20 -79,-28 -139,-72 -12,-9 -24,-10 -39,-10 -35,1 -60,-1 -84,28 -26,31 -28,70 -23,108 2,21 16,58 3,71 -33,33 -64,6 -80,5 -48,-1 -36,72 -36,98 0,48 -79,89 -120,59 -64,-47 -41,-77 -86,-120 -47,-45 -152,31 -200,52 -43,19 -79,45 -124,21 -40,-21 -44,1 -81,-4 -30,-5 -46,-11 -60,-36 -9,-15 -29,-32 -45,-23 -40,22 14,76 -26,100 -21,13 -138,24 -167,25 -21,1 -37,-1 -55,-2l0 0z"/>
  <path class="fil1 str0" d="M9759 10346c115,36 58,27 100,104 29,53 70,-13 141,12 22,8 49,11 71,-2l67 -69 0 0c-10,-37 -51,-44 -53,-57 -11,-52 88,-78 79,-99 -39,-93 -88,-78 -45,-194 14,-38 -8,-51 -35,-74 -61,-49 70,-157 94,-182l1 -7c13,-161 -89,-72 -96,-189 -6,-105 -41,-66 -50,-125 -16,-105 74,-138 74,-199 0,-66 -3,-70 10,-141 19,-94 -142,-106 -86,-151 79,-64 173,80 217,47 46,-34 49,55 92,91 31,26 156,-73 214,16 38,59 95,74 161,64 60,-9 157,-80 167,-143 14,-84 36,-52 92,-75 61,-26 73,-132 46,-174 -29,-45 -5,-48 1,-97 6,-45 -11,-15 -13,-93 -23,-24 -32,-28 -62,-40 -50,-21 -135,-93 -158,-101 -147,-46 -53,-160 -111,-257 -17,-29 -41,-139 -46,-175 -7,-62 -99,-138 -53,-198 52,-68 88,-74 167,-59 31,6 205,-2 235,-6 102,-14 204,46 245,42 83,-9 87,42 116,-25 34,-77 -21,-171 50,-271 56,-79 1,-68 3,-112 1,-40 8,-42 35,-63 25,-19 87,4 110,17 77,41 127,-54 121,-65 -5,-9 -141,-39 -157,-40 -86,-6 -93,-3 -155,-56 -38,-32 -28,-16 -53,-27 -49,-22 -192,10 -213,-17 -48,-61 -211,15 -275,9 -16,-1 -113,-58 -127,-69 -42,-31 -57,-5 -59,42 -4,82 -115,78 -167,52 -76,-37 -22,40 -113,-66l-22 -137 0 0c-48,-20 -39,-60 -36,-101 4,-57 42,-130 12,-183 -18,-32 -106,89 -134,106 -79,48 -48,-87 -197,15 -43,29 -42,37 -97,62 -52,37 -113,116 -183,110 -68,-5 -39,-38 -127,-12 -48,14 -75,-19 -86,-63 -15,-61 -9,-41 -49,-87 -36,-40 -35,-92 -50,-137 -22,-65 -2,-107 -5,-169 -2,-46 -63,24 -91,19 -26,-5 -31,-56 -67,-11 -21,26 -28,11 -43,1 -10,-7 -25,-94 -27,-105 -11,-36 -1,-79 6,-115 3,-13 4,-41 5,-45 10,-44 -56,-50 -85,-46 -18,3 -86,-3 -89,-2 -29,10 -9,63 -109,101 -53,20 -42,13 -102,22 -29,29 -32,32 -55,66 -20,29 -28,81 -65,82 -64,2 -49,-9 -97,37 -32,30 -38,21 -63,37 -56,36 -100,145 -108,210 -4,33 -6,49 -28,78 -26,33 -88,12 -118,-3 -39,-20 -98,-23 -142,-18 -71,7 -60,17 -128,-19 -29,-15 -56,32 -60,53 -8,35 8,28 -9,85 -33,20 -51,12 -81,17 -40,7 -55,-19 -83,18 -31,42 -15,77 -15,118 0,39 -37,155 -63,180 -40,40 -26,60 -44,91 -20,34 -19,34 -64,33l0 0 -19 89c-71,94 -41,23 -117,57 -30,14 -78,124 -15,129 25,2 28,53 43,84 49,101 10,90 146,90 83,0 155,-49 113,53 -9,22 8,65 35,81 57,36 5,104 124,128 111,22 113,89 30,154 -18,14 -37,126 -37,147 37,105 20,53 51,112 27,50 -114,151 -58,184 32,19 -17,108 6,165 20,51 70,30 120,82 9,9 12,11 20,22l0 0c105,-53 81,-29 173,-20 79,8 68,-75 152,-75 60,0 141,11 147,-68 4,-46 95,-31 116,-90 27,-76 87,-51 160,-51 25,0 13,41 41,84 8,12 14,45 37,79 31,45 5,180 106,183 59,1 131,-104 187,20 29,64 134,4 204,77 36,37 78,24 123,20 46,-2 147,-24 118,55 -26,71 45,68 83,132 30,52 25,23 11,88 -8,39 49,83 -2,119 -54,38 7,59 29,108 39,88 10,58 12,145 3,98 -77,78 -131,136 -125,134 63,91 54,280 -4,79 127,49 154,133l0 0z"/>
  <path class="fil1 str0" d="M12966 9139c-13,163 -33,72 -116,155 -115,115 -6,234 -101,254 -48,10 -151,98 -58,152 58,34 -23,165 73,220 50,29 249,-237 194,-23 -6,24 -54,73 -44,121 13,65 -92,73 -99,79 -29,26 -40,84 -17,117 34,49 -7,110 -5,163 -35,90 -27,79 -22,154 7,102 79,89 75,234 -2,60 48,145 115,67 24,-27 38,-37 61,-71 29,-41 7,4 80,4 99,0 142,3 213,-72 40,-42 85,-33 131,-115 18,-34 54,-31 55,30 2,122 89,54 148,175 9,18 -8,68 19,134 35,88 -50,134 65,149 37,5 131,36 81,85 -25,25 -42,96 -9,122 37,29 0,89 51,94 24,3 115,56 131,81 13,19 45,57 56,85l0 0c-46,12 -40,44 -50,80 -21,70 -38,118 -44,193l0 0 -95 27c-27,-9 -41,-32 -55,-55 -98,-158 -175,-48 -253,-91 -128,-70 -269,101 -405,21 -80,-47 -214,-71 -288,-119 -68,-44 -193,-176 -248,-201 -89,-40 -72,-130 -163,-144 -123,-19 -104,-47 -134,-143 -4,-12 -73,-7 -81,42 -15,88 -57,48 -73,-1 -37,-115 -114,53 -155,35 -45,-20 -139,-9 -196,-22 -50,-12 -101,35 -165,15 -86,-26 -24,-47 -153,-41 -45,0 -67,-2 -108,-22 -66,-31 -114,-19 -176,-71 -70,-58 -185,-6 -181,-126 1,-33 -31,-70 -57,-80 -51,-22 -99,-101 -73,-151 43,-80 55,-47 88,-170l0 0c35,-51 39,-55 60,-102 4,-10 52,-40 61,-13 18,56 95,72 146,71 44,-1 26,72 173,-9 104,-57 68,97 220,97 152,0 60,156 184,95 45,-23 134,34 158,-13 15,-29 -88,-154 -11,-247 65,-78 28,-117 63,-161 38,-48 80,-149 -3,-176 -86,-28 -116,-112 -3,-141 52,-13 41,-66 84,-91 53,-30 15,-17 71,-14 35,2 77,-55 98,-80 70,-63 55,-42 124,-59 48,-12 84,14 131,-58 35,-52 -10,-90 16,-128 67,-99 14,-134 138,-220 77,-53 38,-273 200,-158 21,15 53,24 76,34l0 0z"/>
  <path class="fil1 str0" d="M11483 6226c-15,-1 -32,-2 -53,0 -12,2 -23,1 -35,-1 -32,-7 -79,-8 -108,8 -70,38 -56,61 -69,123 -9,43 -57,58 -94,50 -36,-8 -32,5 -54,35 -55,77 -68,40 -125,64 -46,20 -101,35 -152,31 -25,-2 -65,-4 -89,8 -44,23 -4,54 14,77 15,19 28,49 26,73 -3,63 -83,82 -129,112 -30,19 -50,25 -77,41 -42,24 -46,21 -80,57 -45,47 -20,46 -94,78 -15,-1 -33,13 -46,8l0 0 22 137c91,106 37,28 113,66 53,26 164,30 167,-52 2,-47 17,-73 59,-42 14,11 112,67 127,69 63,6 227,-70 275,-9 22,27 164,-5 213,17 25,11 15,-5 53,27 62,53 69,49 155,56 17,1 153,31 157,40 6,11 -44,106 -121,65 -23,-12 -86,-36 -110,-17 -28,22 -34,24 -35,63 -1,44 54,33 -3,112 -71,100 -16,195 -50,271 -29,67 -33,16 -116,25 -41,4 -143,-56 -245,-42 -30,4 -204,12 -235,6 -79,-15 -115,-10 -167,59 -46,60 46,136 53,198 4,37 28,146 46,175 57,97 -36,211 111,257 23,7 108,80 158,101 30,13 39,17 62,40 2,78 19,47 13,93 -6,50 -29,52 -1,97 27,43 15,149 -46,174 -56,24 -78,-9 -92,75 -11,62 -107,134 -167,143 -67,9 -124,-5 -161,-64 -58,-90 -183,10 -214,-16 -43,-36 -46,-126 -92,-91 -44,33 -138,-111 -217,-47 -55,45 105,57 86,151 -14,70 -10,74 -10,141 0,61 -90,94 -74,199 9,58 44,20 50,125 7,118 108,28 96,189l-1 7c-24,25 -155,133 -94,182 27,22 49,36 35,74 -43,116 6,101 45,194 9,21 -90,47 -79,99 3,13 44,20 53,57l0 0c155,-38 22,10 107,135 26,38 87,0 141,20 54,19 140,27 201,50 72,26 52,-59 113,-111 18,-15 117,-125 128,-57 2,15 83,33 113,59 2,2 37,24 37,24l0 0c35,-51 39,-55 60,-102 4,-10 52,-40 61,-13 18,56 95,72 146,71 44,-1 26,72 173,-9 104,-57 68,97 220,97 152,0 60,156 184,95 45,-23 134,34 158,-13 15,-29 -88,-154 -11,-247 65,-78 28,-117 63,-161 38,-48 80,-149 -3,-176 -86,-28 -116,-112 -3,-141 52,-13 41,-66 84,-91 53,-30 15,-17 71,-14 35,2 77,-55 98,-80 70,-63 55,-42 124,-59 48,-12 84,14 131,-58 35,-52 -10,-90 16,-128 67,-99 14,-134 138,-220 77,-53 38,-273 200,-158 21,15 53,24 76,34l0 0c70,-74 53,-44 74,-102 4,-11 101,-50 101,-31 0,67 -54,68 9,128 50,48 9,183 98,126 43,-27 65,-108 140,-71 97,47 111,-35 121,89 1,10 23,36 31,44 69,69 93,24 93,148 0,134 8,74 86,170 23,29 82,35 117,9 37,-28 57,1 86,-89 13,-40 36,-74 70,-98 74,-54 48,-139 53,-229 4,-77 17,-91 94,-79 21,3 59,10 80,10l0 0c0,-13 27,-68 34,-82 22,-41 -38,-91 -67,-105 -58,-28 -32,25 -90,-58 -1,-9 -2,-12 -2,-21 2,-116 -109,-39 -115,-40 -89,-16 14,-146 13,-165 -2,-64 -99,-26 -148,-108 -15,-26 -106,-28 -129,-24 -82,14 -58,-41 -89,-58 -45,-25 -50,-43 -78,-60 -43,-27 -77,-34 -126,-44 -71,-16 -109,12 -160,-18 -50,-30 -68,-63 -76,-119 -7,-48 -18,-53 -67,-73 -70,-29 -65,-92 -18,-138 15,-15 33,-25 49,-42 134,-148 158,-31 260,-133 21,-21 87,-31 112,-30 68,2 17,43 93,-26 33,-30 63,-17 90,-18 37,-1 88,18 93,18 75,-9 75,9 75,-60 0,-41 23,-76 15,-92 -38,-72 -82,26 -21,-146l3 -2c-35,3 -31,-45 -124,5 -127,68 -17,-56 -64,-113 -60,-73 -168,35 -207,-28 -28,-45 -96,35 -115,55 -40,41 -100,-75 -136,-65 -62,17 -27,74 -98,-18l-9 -5c-42,-42 30,-75 -87,-115 -74,-26 -113,104 -163,19 -46,-78 -50,-9 -114,-59 -47,-37 -149,-20 -156,-24 -45,-30 -15,-21 -73,-42 -22,-8 -74,31 -92,47 -38,34 -51,31 -81,53 -94,67 -142,0 -185,-4 -50,-4 -110,-44 -134,-37 -39,12 -71,-16 -70,-49 4,-96 -174,2 -174,-90 0,-115 56,-103 23,-194 -33,-90 111,-113 46,-178 -20,-20 -49,-64 -70,-66 -59,-7 -35,-69 -35,-110 0,-54 -114,33 -180,-7 -84,-50 -104,-47 -126,-154l40 -107 0 0z"/>
  <path class="fil1 str0" d="M15151 9474c-2,192 3,89 77,163 40,40 -45,94 79,124 103,25 24,87 50,151 9,21 0,43 26,87 52,87 45,86 45,187 0,72 -32,119 61,154 66,25 120,-4 197,28 89,36 244,-68 330,8 82,72 252,-42 318,35 26,31 4,73 9,119 6,56 42,31 104,45 97,22 30,1 94,51 28,22 60,39 93,50l208 70 0 0c83,8 165,12 252,-10 67,-17 124,-38 175,-86 118,-112 182,-81 315,-115 119,-30 182,-83 306,-75 137,9 99,102 304,54 77,-18 91,-19 162,-57 -10,-10 -31,-19 -35,-40 -23,-119 80,-182 82,-218 2,-42 16,-149 24,-184 -12,-14 -81,-87 -74,-111 19,-64 9,-42 -11,-103 -4,-13 -5,-26 -2,-36l0 0c-1,-2 -35,-56 -35,-57 -17,-52 -158,-130 -207,-130 -47,0 -85,-24 -83,-74 2,-93 -92,-100 -157,-133 -45,-22 -94,-29 -120,-42 -58,-30 -55,-47 -134,-84 -9,-6 -39,-20 -51,-25 -44,-20 -153,-104 -181,-146 -114,-169 -216,-106 -378,-144 -150,-35 -112,-28 -222,-126l0 0 -74 -15c-52,-16 -111,-37 -163,-55 -72,-25 -45,-16 -86,-60 -25,-26 -110,31 -148,-53 -22,-49 -104,-11 -124,39 -35,87 -58,39 -83,68 -49,56 50,122 53,131 7,21 -59,112 -71,154 -24,86 -119,154 -114,246 6,134 -88,2 -171,30 -93,32 -73,12 -133,-51 -51,-53 -300,-29 -351,4 -40,26 -105,23 -119,50 -16,30 -30,152 -37,183l0 0z"/>
  <path class="fil1 str0" d="M12966 9139c70,-74 53,-44 74,-102 4,-11 101,-50 101,-31 0,67 -54,68 9,128 50,48 9,183 98,126 43,-27 65,-108 140,-71 97,47 111,-35 121,89 1,10 23,36 31,44 69,69 93,24 93,148 0,134 8,74 86,170 23,29 82,35 117,9 37,-28 57,1 86,-89 13,-40 36,-74 70,-98 74,-54 48,-139 53,-229 4,-77 17,-91 94,-79 21,3 59,10 80,10l0 0c29,69 12,74 51,73 72,-3 16,233 183,163 180,-76 89,-25 236,-22 45,1 121,-65 220,-28 9,3 45,13 47,23 29,7 -38,136 86,101 4,-1 19,-3 24,-4l84 5 0 0c-2,192 3,89 77,163 40,40 -45,94 79,124 103,25 24,87 50,151 9,21 0,43 26,87 52,87 45,86 45,187 0,72 -32,119 61,154 66,25 120,-4 197,28 89,36 244,-68 330,8 82,72 252,-42 318,35 26,31 4,73 9,119 6,56 42,31 104,45 97,22 30,1 94,51 28,22 60,39 93,50l208 70 0 0c-14,10 -123,86 -136,100 -49,52 -22,96 -91,126 -27,12 -67,7 -77,31 -19,44 -36,52 -83,58 -31,4 -47,34 -58,62 -21,56 -6,40 -43,95 -24,36 -58,56 -52,100 11,86 44,43 -18,140 -3,3 -4,6 -5,10 -10,33 -7,74 29,87 55,20 -5,67 -32,82 -26,14 5,28 -48,63 -27,17 -23,23 -36,33 -58,45 -66,-22 -111,17 -45,39 -31,62 -39,110 -9,59 -66,37 -91,7 -59,-70 -76,-33 -103,-52 -23,-17 -56,23 -67,40 -28,48 -56,62 -81,4 -15,-34 -9,-39 -31,-77 -5,-55 58,-44 58,-95 0,-54 -36,-17 -57,1 -36,31 -43,65 -74,32 -31,-33 -106,-30 -150,-68 -28,-24 -81,-35 -117,-38 -34,-3 -34,-55 -29,-79 15,-79 37,-88 -14,-151 -37,-47 0,-42 12,-86 6,-22 -11,-41 2,-92 27,-101 -85,-45 -127,-86 -41,-40 -102,11 -167,-10 -40,-13 -76,-3 -110,-14 -1,0 -62,-39 -64,-40 -36,-30 -60,-3 -82,31 -47,75 -112,64 -59,165 19,37 29,94 48,127 21,36 16,28 31,67 12,34 40,40 34,53 -22,46 -104,41 -145,46 -39,11 -80,21 -120,24 -31,2 -74,10 -102,10 -82,1 -68,3 -148,27 -81,25 -79,-10 -139,-30 -22,-7 -90,-40 -109,-35l0 0c-12,-27 -44,-65 -56,-85 -17,-25 -107,-78 -131,-81 -52,-5 -14,-65 -51,-94 -33,-25 -16,-97 9,-122 50,-49 -44,-81 -81,-85 -115,-15 -30,-61 -65,-149 -26,-66 -10,-116 -19,-134 -60,-121 -146,-53 -148,-175 -1,-60 -37,-63 -55,-30 -45,83 -91,73 -131,115 -71,75 -114,72 -213,72 -73,0 -51,-45 -80,-4 -24,34 -37,43 -61,71 -67,78 -117,-7 -115,-67 4,-145 -68,-132 -75,-234 -5,-75 -13,-64 22,-154 -2,-53 39,-114 5,-163 -23,-33 -12,-91 17,-117 7,-6 113,-14 99,-79 -10,-48 38,-97 44,-121 55,-214 -144,52 -194,23 -96,-55 -15,-186 -73,-220 -93,-54 10,-142 58,-152 95,-20 -14,-138 101,-254 83,-83 103,8 116,-155l0 0z"/>
  <path class="fil1 str0" d="M14140 4988l-73 64c2,87 10,89 -68,80 -30,-4 -26,-18 -71,13 -61,43 -89,37 -154,30 -135,-13 47,123 28,168 -19,46 93,188 -18,134 -36,-17 -25,-50 -90,-6 -26,18 -54,22 -70,59 -8,20 -56,-45 -93,127 -6,26 -8,118 39,116 101,-4 -2,139 74,189 26,17 30,84 66,127 29,34 73,11 139,46 97,51 132,56 113,180 -2,15 -3,30 -6,45 -31,134 -50,112 -126,198 -34,38 -11,67 8,102 20,35 37,20 8,83 -43,95 62,96 26,246 -20,82 -38,108 5,176 22,34 39,70 71,99 26,24 46,117 42,150 -8,56 -72,62 -119,99l-6 5 0 0c-61,172 -17,73 21,146 8,15 -15,51 -15,92 0,69 0,51 -75,60 -5,1 -56,-19 -93,-18 -27,1 -57,-12 -90,18 -76,69 -25,28 -93,26 -25,-1 -92,10 -112,30 -102,102 -126,-15 -260,133 -15,17 -33,27 -49,42 -46,46 -52,109 18,138 50,21 61,26 67,73 8,56 26,89 76,119 51,30 88,3 160,18 49,11 83,17 126,44 28,18 33,35 78,60 31,17 7,72 89,58 23,-4 114,-2 129,24 49,82 146,45 148,108 1,19 -102,149 -13,165 6,1 117,-76 115,40 0,10 1,12 2,21 58,82 32,30 90,58 30,14 90,64 67,105 -7,13 -34,68 -34,82l0 0c29,69 12,74 51,73 72,-3 16,233 183,163 180,-76 89,-25 236,-22 45,1 121,-65 220,-28 9,3 45,13 47,23 29,7 -38,136 86,101 4,-1 19,-3 24,-4l84 5 0 0c7,-31 21,-153 37,-183 14,-26 78,-23 119,-50 51,-33 301,-57 351,-4 60,63 40,83 133,51 83,-29 177,103 171,-30 -4,-92 90,-160 114,-246 12,-42 78,-133 71,-154 -3,-9 -102,-75 -53,-131 25,-29 48,20 83,-68 20,-51 102,-88 124,-39 38,84 123,27 148,53 41,43 13,34 86,60 52,18 111,39 163,55l74 15 0 0c0,-41 7,-91 47,-113 49,-28 52,-41 118,-41 101,0 107,-87 151,-119 44,-32 115,-272 140,-337l0 0 -19 -43c-14,-2 -14,-34 -86,-29 -35,3 -114,-25 -123,-21 -51,21 -73,24 -122,37 -45,12 -37,-68 -30,-92 22,-75 52,-86 72,-178l2 -7c24,-84 31,-127 31,-211 0,-55 -27,-125 -29,-168 -6,-131 -143,-72 -143,-227 0,-65 -57,-52 -57,-84 0,-40 21,0 2,-95l-43 -58 0 0c-11,8 -66,-33 -77,-42 -61,-50 -85,12 -119,-77 0,-12 -4,-53 -8,-65 -30,-100 -79,-120 -177,-133 -88,-12 -39,-88 -112,-79 -54,7 -52,8 -105,1 -68,-9 -105,-2 -137,-67 -19,-38 -79,-28 -64,-57 28,-53 59,-44 93,-121 28,-63 40,-60 35,-135 -2,-5 -5,-20 -6,-27 -5,-38 -10,-55 5,-91 26,-64 -12,-51 6,-126 10,-42 116,-125 48,-114 -57,9 -131,7 -183,23 -116,35 -109,-36 -145,-44 -115,-25 -77,-63 -106,-79 -19,-10 -83,104 -89,114 -41,6 -85,16 -105,11 -37,-10 -71,0 -123,-28 -111,-62 -93,-88 -153,-196 -24,-42 -17,-61 -37,-81 8,-65 53,-70 64,-135 6,-35 -8,-40 4,-80 1,-25 -7,-75 -12,-100 -9,-41 -90,-133 -99,-161 -28,-88 -97,-69 -170,-58 -65,11 -70,27 -143,5 14,-22 33,-48 59,-79 16,-19 25,-50 33,-85 -5,-1 -30,-5 -35,-5 -62,1 -46,3 -93,29 -59,33 -105,114 -163,120 -60,6 -62,41 -122,56 -45,11 -63,25 -111,21 -32,-2 -33,-2 -70,-14 -7,-7 -19,-16 -28,-21 -44,-28 -28,-28 -56,-55 -21,-19 -31,-38 -43,-57l0 0z"/>
  <path class="fil1 str0" d="M9667 13939c-14,75 -43,184 67,182 44,-1 108,18 139,48 11,11 20,36 48,64 89,89 1,86 -33,150 -69,130 9,145 9,275 0,59 -5,85 10,142 15,55 93,151 -28,192 -23,8 -45,25 -45,50l9 35 0 0c-42,10 -60,27 -94,44 -111,56 -96,-48 -179,-29 -45,11 -96,94 -119,135 -50,88 -160,28 -196,-31 -48,-78 -58,75 -53,108 16,98 -23,99 -73,30 -52,-71 -101,-2 -94,44 13,86 -26,93 -41,43 -30,-102 -34,-60 -53,-82 -4,-5 -1,-136 -2,-158 -4,-92 -119,-17 -122,-50 -7,-72 55,-64 -48,-92 -30,3 -54,7 -85,7 -151,0 18,156 -86,159 -95,3 -63,69 -131,104 -80,41 -220,14 -351,79 -90,45 -85,9 -144,7 -97,-4 -48,-72 -88,-126 -50,-68 -87,-66 -159,-22 -19,12 -48,13 -39,-5 44,-92 127,-104 130,-115 14,-68 -29,-74 -78,-90 -120,-39 -91,-67 -128,-88 -39,-23 -55,-44 -81,-80 -54,-74 -133,-23 -172,40 -19,30 -76,70 -76,78 5,117 -159,148 -187,179 -56,61 -62,53 -138,53 -67,0 -151,51 -175,31 -43,-37 12,-21 -85,-76l-95 -28 0 0c11,-12 18,-28 20,-46 10,-76 25,-74 59,-131 20,-35 40,-61 66,-92 51,-60 27,-98 50,-147 20,-43 40,-19 74,-30 22,-7 72,-14 86,-26 35,-31 14,-27 65,-59 10,-51 -8,-132 8,-163 21,-39 76,-142 41,-183 -61,-72 -27,-35 -54,-108 -11,-29 -27,-46 -42,-60 -8,1 -39,15 -47,17 -30,5 -72,-2 -101,-12 -36,-13 -19,-36 -82,-16 -45,29 -90,85 -146,83 -53,-1 -44,-51 -59,-89 -16,-41 -6,-68 -53,-19 -39,41 -54,86 -114,41 -54,-41 -69,-6 -92,-25 -28,-24 -6,-44 -55,-79 -16,-11 -41,-60 -49,-79 -11,-26 -13,-44 -21,-63 -13,-32 -53,13 -61,28 -24,41 -25,74 -28,118 -3,34 5,53 3,82 -3,53 -8,56 -49,56 -21,0 -70,13 -81,4 -12,-9 -8,-93 -8,-109 1,-35 -47,-66 -46,-116 1,-63 -31,-63 -33,-109 -3,-68 14,-42 -14,-109 -15,-36 -6,-96 4,-133 6,-23 -21,-46 -41,-52 -48,-14 -58,-29 -97,-61 -60,-43 -47,-24 -111,-36 -68,-13 -78,-1 -99,-76 -23,-80 -90,-65 -102,-156 -9,-62 16,-87 52,-129 44,-51 92,-108 79,-180 -9,-51 -10,-60 -12,-112 -1,-32 -13,-34 -11,-73 5,-12 13,-46 14,-58 5,-45 19,-65 31,-104 18,-57 -29,-84 23,-183 6,-12 10,-26 11,-40l0 0 151 -48c150,-76 55,-15 155,15 44,13 65,-25 107,6 46,34 154,48 192,-2 41,-53 134,-53 220,-151 55,-62 -12,-134 17,-205 7,-16 -10,-54 -10,-83 0,-43 -21,-111 24,-120 40,-8 48,-66 53,-96 26,-142 273,-7 264,-180 -2,-40 89,-99 29,-228 -10,-21 -41,-108 -33,-130 8,-20 45,-50 64,-61 14,-36 33,-80 75,-94 10,-3 84,27 198,-31l0 0c121,80 105,67 236,77 18,1 108,39 108,70 0,62 -43,217 -27,259 21,56 -7,74 51,143 40,47 -23,122 -52,171 -4,8 -4,8 -10,15 -45,52 -156,146 -101,223 28,39 6,82 86,77 38,-2 112,-13 92,43 -22,63 -8,111 5,170 30,134 81,-46 94,-61 27,-30 106,-77 109,-5 4,99 94,96 148,154 18,19 44,31 63,61 28,44 119,50 159,77 67,46 205,69 279,35 112,-51 125,80 266,-49 54,-50 41,-19 105,-11 80,10 56,22 152,6 72,-12 61,30 65,92 5,63 -47,167 99,98 107,-50 59,-34 138,-99 6,-5 9,-7 16,-11 130,-59 113,-5 197,-23 56,-12 95,-55 137,-90l4 -4 0 0c54,110 27,57 -33,151 -58,91 16,122 -2,160 -14,32 19,69 43,86 36,26 236,182 115,213 -33,9 -104,60 -85,98 76,153 -13,50 -115,104 -59,31 -32,68 -42,135 -1,9 -4,24 -4,33 86,245 -90,144 -93,227 -1,45 63,-2 75,145 6,72 102,39 128,109 7,19 0,24 12,51 9,19 98,-13 129,62 5,12 30,48 30,48l0 0z"/>
  <path class="fil1 str0" d="M9759 10346c115,36 58,27 100,104 29,53 70,-13 141,12 22,8 49,11 71,-2l67 -69 0 0c155,-38 22,10 107,135 26,38 87,0 141,20 54,19 140,27 201,50 72,26 52,-59 113,-111 18,-15 117,-125 128,-57 2,15 83,33 113,59 2,2 37,24 37,24l0 0c-33,123 -45,90 -88,170 -26,49 22,129 73,151 26,11 58,47 57,80 -4,120 111,68 181,126 62,52 110,40 176,71 41,20 63,22 108,22 129,-5 67,15 153,41 64,20 115,-27 165,-15 57,13 151,2 196,22 41,18 118,-151 155,-35 15,49 58,89 73,1 8,-50 77,-54 81,-42 30,97 11,124 134,143 91,14 74,104 163,144 55,25 180,157 248,201 74,48 208,72 288,119 136,80 277,-91 405,-21 78,43 155,-67 253,91 15,23 28,46 55,55l95 -27 0 0c7,1 14,4 21,7 45,20 113,38 134,89 44,105 -88,52 -96,205 -2,32 71,65 -12,132 -35,29 -97,134 -129,174 -56,69 -108,113 -104,205 2,43 80,61 80,92 0,60 -10,98 62,108 32,4 76,67 79,106 1,15 22,91 25,123 3,39 27,97 63,128l0 0c-8,4 -34,29 -42,35 -79,67 -77,39 -161,97 -9,8 -15,10 -24,17 -21,15 -140,158 -148,180 -34,92 -8,144 42,218 46,70 -71,168 24,223 81,47 93,69 104,162 4,31 48,105 68,116 47,28 50,175 24,217 -43,73 -1,95 -47,132 -29,23 -97,-46 -108,-64 -39,-59 -225,-77 -277,-124 -29,-27 -26,-19 -53,-37 -76,-52 -72,-50 -161,-65 -69,-11 -149,27 -200,12 -87,-24 -130,43 -195,85 -198,128 -121,-101 -196,-33 -53,47 -28,39 -117,97l0 0c-4,-4 -6,-7 -12,-10 -22,-11 -120,-75 -109,-105 14,-38 67,-52 104,-89 58,-58 77,-41 116,-79 49,-47 -8,-208 63,-152 63,49 76,44 144,-11 4,-6 8,-14 12,-19 57,-90 -20,-94 -68,-131 -65,-51 4,-125 13,-156 21,-72 -112,-47 -145,-36 -120,41 -34,-39 4,-62 45,-28 123,-91 72,-147 -61,-67 -136,-41 -180,-58 -70,-26 -64,-22 -138,-22 -33,0 -139,10 -157,1 -71,-37 -63,-40 -159,-36 -24,-10 -32,-19 -48,-38 -94,-108 -49,-85 -73,-194 -13,-58 -193,-4 -240,-4 -54,0 -40,-126 -142,-82 -88,38 -55,11 -111,-29 -122,-88 -89,63 -125,108 -52,65 -70,-54 -81,-91 -14,-49 -112,-56 -154,-57 -66,-1 -142,40 -180,19 -88,-49 30,-138 -29,-175 -24,-15 -39,-47 -37,-73 5,-76 -95,-83 -147,-94 -63,-13 -138,19 -167,-24 -28,-41 -101,53 -110,71 -36,68 -26,57 -86,75 -99,31 -97,7 -167,121 -4,9 -6,11 -12,19 -77,90 -140,121 -78,248 31,63 -15,78 1,141 19,72 5,48 -2,106 -10,79 -124,44 -132,153 -7,98 -173,91 -170,165 7,171 -61,137 -68,159 -24,68 -65,62 -139,82l0 0c0,-1 -25,-36 -30,-48 -31,-75 -120,-43 -129,-62 -12,-27 -5,-32 -12,-51 -26,-70 -123,-37 -128,-109 -12,-147 -77,-100 -75,-145 3,-83 178,18 93,-227 0,-8 2,-24 4,-33 10,-67 -16,-103 42,-135 102,-54 191,48 115,-104 -19,-38 52,-89 85,-98 121,-32 -80,-187 -115,-213 -24,-17 -57,-54 -43,-86 17,-39 -57,-70 2,-160 60,-94 87,-41 33,-151l0 0 -17 -85c-12,-16 -28,-65 -33,-85 -15,-62 -61,-68 -58,-100 4,-44 14,-44 16,-117 0,-81 9,-176 68,-236 73,-73 61,-79 115,-155 32,-45 76,-172 4,-202 -78,-33 -88,38 -145,-69l0 0c2,-1 200,-89 175,-124 -7,-10 -27,-83 -19,-104 41,-109 28,-69 38,-181 8,-85 -15,-113 -64,-178 -46,-62 -25,-112 4,-176 14,-32 39,-6 81,-37 13,-9 50,-40 52,-55l34 -69 0 0z"/>
  <path class="fil1 str0" d="M9458 11270c57,107 66,36 145,69 72,30 29,157 -4,202 -53,75 -42,82 -115,155 -59,59 -68,155 -68,236 -1,73 -12,73 -16,117 -3,32 43,38 58,100 5,20 20,69 33,85l17 85 0 0 -4 4c-41,35 -80,78 -137,90 -84,18 -67,-36 -197,23 -7,3 -10,6 -16,11 -79,65 -32,49 -138,99 -146,69 -94,-35 -99,-98 -5,-62 7,-104 -65,-92 -95,16 -71,4 -152,-6 -64,-8 -51,-39 -105,11 -141,130 -154,-2 -266,49 -74,34 -212,10 -279,-35 -41,-28 -132,-33 -159,-77 -19,-30 -45,-42 -63,-61 -55,-58 -144,-54 -148,-154 -3,-71 -82,-25 -109,5 -13,15 -64,195 -94,61 -13,-59 -28,-107 -5,-170 20,-56 -54,-45 -92,-43 -80,5 -58,-38 -86,-77 -54,-76 57,-170 101,-223 6,-7 6,-7 10,-15 29,-49 91,-124 52,-171 -59,-69 -31,-87 -51,-143 -16,-42 27,-197 27,-259 0,-32 -90,-69 -108,-70 -131,-10 -115,3 -236,-77l0 0c10,-72 5,-58 3,-110 -1,-44 99,-46 135,-22 16,11 132,17 145,8 77,-58 23,-96 82,-111 85,-21 -41,-152 144,-176 73,-10 62,-20 118,25 42,34 -6,65 53,143 34,45 2,73 74,99 40,15 19,112 91,101 109,-16 17,-288 153,-249 75,22 130,-70 196,37 24,39 -12,81 28,128 34,41 28,177 177,92 58,-34 93,10 149,-106 18,-38 108,-79 95,-8 -43,231 61,154 98,240 2,4 4,8 7,11 2,17 14,191 73,141 47,-40 95,-61 138,-7 34,42 31,140 103,98 79,-47 92,46 202,-89 16,-19 38,-132 103,-96 29,16 7,71 -7,89 -32,41 -42,71 -9,117 3,4 15,13 19,14l0 0z"/>
  <path class="fil1 str0" d="M5345 9950c-1,113 -21,95 -89,165 -56,58 -68,75 -88,149 -21,76 40,74 80,107 14,12 57,24 92,55 30,26 115,50 115,95 8,90 5,119 -57,181 -18,18 -150,54 -157,65l0 0c-69,-5 -67,20 -118,41 -18,7 -114,2 -150,10 -53,13 -52,87 -41,128 8,31 7,36 11,66 2,21 38,80 -5,78 -1,0 -93,-34 -100,-37 -59,-26 -107,-8 -154,-24 -39,-13 -26,-16 -73,-17 -58,-2 -194,-45 -233,-40 -59,8 -87,-57 -120,-65 -46,-12 -40,-8 -70,-41 -24,-26 -16,-27 -57,-45 -6,-31 -15,-61 -23,-96 -1,-4 -9,-62 -9,-62 -37,-128 -218,-75 -74,-273 73,-100 -10,-138 -14,-233 -2,-53 -43,-119 -77,-160 -78,-92 -4,-182 -107,-204 -114,-25 -103,54 -154,-78 -28,-73 -118,-59 -187,-71 -50,-8 -199,10 -228,-27 -74,-91 66,-133 20,-167 -108,-79 -167,74 -167,-183 0,-91 -57,-122 -79,-188 -43,-127 1,-159 -62,-278 -42,-80 -112,-69 -165,-103 -35,-23 -111,-43 -131,-55 -45,-27 -65,-42 -80,-94 -44,-148 -167,-33 -171,-114 -3,-57 -67,-40 -109,-41 -43,-1 -100,24 -128,5 -14,-10 -26,-17 -37,-26l0 0c12,-8 13,-16 40,-60 12,-16 36,-61 43,-79 16,-45 27,-69 48,-112 32,-64 49,-119 60,-190 6,-40 7,-89 14,-125 13,-72 5,-74 60,-131l4 -5c29,-40 62,-82 67,-133 7,-72 1,-85 -29,-148 -20,-41 -49,-40 -55,-87 -8,-60 107,-125 158,-131 71,-9 68,-64 105,-93 50,-38 26,-38 45,-96 -4,-10 -7,-16 -11,-26 -31,-68 -103,-113 -172,-135 -63,-20 -50,-66 -57,-116 -5,-34 -4,-49 -38,-54 -43,-7 -31,-105 -25,-134 13,-68 23,-73 19,-147 64,-24 125,-38 188,-67 49,-22 242,-90 320,-102l0 0c9,-1 17,-2 23,-2 32,1 91,-12 129,-1 46,13 54,0 106,36 83,56 222,54 316,40 10,-1 103,7 110,6 108,-22 95,-11 189,-4 92,6 102,55 212,-3 47,-25 244,-70 301,-72 76,-3 157,-36 242,-42 40,-3 79,-9 119,-15l0 0 -97 169c-36,91 -21,94 -40,168 -20,79 -2,108 -2,189 0,132 -17,164 -102,263 -49,58 -56,155 -15,220 51,81 -82,151 30,315 11,16 34,85 56,121 65,110 49,87 141,176 16,15 42,53 60,73 19,34 67,106 95,137 66,75 105,92 205,99 42,3 70,60 78,94 13,55 102,162 34,185 -62,21 -43,-16 -88,44 -3,4 -99,11 -121,17 -83,21 -92,15 -159,68 -48,38 -35,34 -94,60 -93,41 -14,143 -110,190 -33,16 -104,132 -93,169 21,73 -55,174 -19,194 45,26 66,49 128,46 75,-3 29,-94 117,-156 56,-39 82,134 121,172 41,40 24,40 85,74 71,39 56,92 56,164 0,114 -12,207 128,214 86,4 66,181 98,217 17,19 8,92 100,107 18,3 64,15 80,15l0 0z"/>
  <path class="fil1 str0" d="M7542 7414l-19 89c-71,94 -41,23 -117,57 -30,14 -78,124 -15,129 25,2 28,53 43,84 49,101 10,90 146,90 83,0 155,-49 113,53 -9,22 8,65 35,81 57,36 5,104 124,128 111,22 113,89 30,154 -18,14 -37,126 -37,147 37,105 20,53 51,112 27,50 -114,151 -58,184 32,19 -17,108 6,165 20,51 70,30 120,82 9,9 12,11 20,22l0 0 -23 47c-2,11 -14,34 -13,45 14,221 -163,140 -192,159 -83,55 -77,107 -114,141 -110,100 -123,7 -168,-30 -33,-27 -19,-206 -66,-222 -56,-19 -72,-20 -121,15 -19,13 -95,37 -112,30 -27,-11 -72,66 -120,63 -9,-1 -109,-50 -110,-51l-6 -2c-20,-8 -83,-45 -88,-44 -76,24 -11,183 -84,208 -19,6 -117,2 -126,-1 -100,-39 -107,70 -186,90 -82,21 -32,-108 -63,-130 -33,-23 -71,-9 -99,17 -39,37 -110,13 -140,-18 -50,-52 -27,-39 -105,-59 -17,-4 -131,-77 -129,-18 2,53 -11,100 -27,150 -24,74 -145,108 -193,169 -22,28 -159,138 -161,156 -8,102 -64,89 -75,126 26,40 -107,117 -118,124l0 0c-15,0 -62,-12 -80,-15 -92,-16 -83,-89 -100,-107 -32,-36 -12,-213 -98,-217 -140,-6 -128,-100 -128,-214 0,-72 16,-125 -56,-164 -61,-33 -43,-33 -85,-74 -40,-38 -65,-211 -121,-172 -88,62 -42,153 -117,156 -63,3 -84,-21 -128,-46 -35,-20 41,-121 19,-194 -11,-37 60,-153 93,-169 96,-46 17,-149 110,-190 59,-26 46,-22 94,-60 67,-53 76,-47 159,-68 22,-6 117,-13 121,-17 45,-60 26,-23 88,-44 67,-23 -21,-130 -34,-185 -8,-34 -36,-92 -78,-94 -100,-7 -139,-25 -205,-99 -28,-31 -76,-102 -95,-137 -18,-20 -44,-58 -60,-73 -92,-89 -76,-66 -141,-176 -21,-36 -45,-105 -56,-121 -112,-164 22,-235 -30,-315 -41,-65 -34,-163 15,-220 84,-99 102,-131 102,-263 0,-80 -18,-110 2,-189 18,-73 4,-77 40,-168l97 -169 0 0c29,-4 59,-8 89,-10 113,-6 189,-35 268,-116 41,-42 138,-240 161,-300 18,-45 39,-91 61,-138l189 156c12,27 20,30 33,52 16,28 21,46 34,76 23,52 55,109 75,161 30,75 69,71 69,170 0,27 -3,67 1,91l0 5c15,56 24,43 45,83 17,33 66,92 104,53 7,-7 20,-28 31,-40 32,-34 15,-17 50,-39 50,-31 -5,-91 14,-148 9,-28 41,-42 69,-43 27,-1 -20,95 19,124 10,8 19,37 57,32 34,-5 63,-23 52,-62 -8,-28 -32,-80 -27,-103 5,-26 26,-28 43,-58 26,-44 65,-20 80,18 21,53 59,68 93,15 13,-19 38,-46 57,-18 10,15 56,61 73,68 76,32 88,-91 117,-119 34,-33 79,-29 106,10 48,69 76,172 119,246 19,32 36,75 -7,94 -58,26 -118,59 -125,132 -4,42 22,52 54,70 23,14 66,19 95,45 28,25 31,46 39,82 -14,58 -6,63 14,113 6,15 29,37 45,42 53,15 29,47 104,34 43,-7 72,5 95,41 23,35 127,49 141,123 7,39 25,124 77,117 37,-5 117,-32 127,24 14,75 31,83 97,42 18,-11 76,-36 80,2 1,6 -27,47 -33,64 -12,34 -10,45 -17,78l0 0z"/>
  <path class="fil1 str0" d="M9458 11270c2,-1 200,-89 175,-124 -7,-10 -27,-83 -19,-104 41,-109 28,-69 38,-181 8,-85 -15,-113 -64,-178 -46,-62 -25,-112 4,-176 14,-32 39,-6 81,-37 13,-9 50,-40 52,-55l34 -69 0 0c-28,-84 -158,-54 -154,-133 9,-189 -179,-146 -54,-280 54,-58 134,-38 131,-136 -2,-87 27,-57 -12,-145 -22,-49 -83,-71 -29,-108 51,-36 -6,-80 2,-119 14,-66 19,-36 -11,-88 -38,-64 -109,-62 -83,-132 29,-78 -73,-57 -118,-55 -45,4 -88,18 -123,-20 -70,-73 -175,-13 -204,-77 -56,-124 -128,-18 -187,-20 -101,-3 -75,-138 -106,-183 -24,-34 -29,-67 -37,-79 -29,-43 -16,-84 -41,-84 -72,0 -133,-24 -160,51 -21,59 -113,44 -116,90 -6,80 -87,68 -147,68 -84,0 -73,83 -152,75 -92,-9 -67,-33 -173,20l0 0 -23 47c-2,11 -14,34 -13,45 14,221 -163,140 -192,159 -83,55 -77,107 -114,141 -110,100 -123,7 -168,-30 -33,-27 -19,-206 -66,-222 -56,-19 -72,-20 -121,15 -19,13 -95,37 -112,30 -27,-11 -72,66 -120,63 -9,-1 -109,-50 -110,-51l-6 -2c-20,-8 -83,-45 -88,-44 -76,24 -11,183 -84,208 -19,6 -117,2 -126,-1 -100,-39 -107,70 -186,90 -82,21 -32,-108 -63,-130 -33,-23 -71,-9 -99,17 -39,37 -110,13 -140,-18 -50,-52 -27,-39 -105,-59 -17,-4 -131,-77 -129,-18 2,53 -11,100 -27,150 -24,74 -145,108 -193,169 -22,28 -159,138 -161,156 -8,102 -64,89 -75,126 26,40 -107,117 -118,124l0 0c-1,113 -21,95 -89,165 -56,58 -68,75 -88,149 -21,76 40,74 80,107 14,12 57,24 92,55 30,26 115,50 115,95 8,90 5,119 -57,181 -18,18 -150,54 -157,65l0 0c41,93 36,74 111,128 29,21 17,97 22,132 6,48 4,146 -8,192 -12,48 -26,104 -26,153 -28,45 -21,56 -67,90 -44,33 -60,68 -113,97 -37,20 -42,45 -46,85 -9,78 88,180 34,264 -16,25 -15,25 -35,48 -24,28 -30,66 -30,101 24,63 87,127 159,122 29,-2 60,-50 70,-73 20,-51 35,-28 77,-34 33,-5 72,-5 79,34 9,56 46,100 89,134 20,17 28,42 26,68l0 0 151 -48c150,-76 55,-15 155,15 44,13 65,-25 107,6 46,34 154,48 192,-2 41,-53 134,-53 220,-151 55,-62 -12,-134 17,-205 7,-16 -10,-54 -10,-83 0,-43 -21,-111 24,-120 40,-8 48,-66 53,-96 26,-142 273,-7 264,-180 -2,-40 89,-99 29,-228 -10,-21 -41,-108 -33,-130 8,-20 45,-50 64,-61 14,-36 33,-80 75,-94 10,-3 84,27 198,-31l0 0c10,-72 5,-58 3,-110 -1,-44 99,-46 135,-22 16,11 132,17 145,8 77,-58 23,-96 82,-111 85,-21 -41,-152 144,-176 73,-10 62,-20 118,25 42,34 -6,65 53,143 34,45 2,73 74,99 40,15 19,112 91,101 109,-16 17,-288 153,-249 75,22 130,-70 196,37 24,39 -12,81 28,128 34,41 28,177 177,92 58,-34 93,10 149,-106 18,-38 108,-79 95,-8 -43,231 61,154 98,240 2,4 4,8 7,11 2,17 14,191 73,141 47,-40 95,-61 138,-7 34,42 31,140 103,98 79,-47 92,46 202,-89 16,-19 38,-132 103,-96 29,16 7,71 -7,89 -32,41 -42,71 -9,117 3,4 15,13 19,14l0 0z"/>
  <path class="fil1 str0" d="M10255 16162c27,-4 52,-5 71,-26 9,-10 2,-30 9,-53 18,-53 6,-56 -23,-98 -23,-33 -32,-100 -2,-128 119,-102 64,-102 95,-157 21,-35 54,-9 59,-125 3,-73 44,-186 82,-247 24,-39 -10,-171 46,-252 23,-32 61,-258 108,-218 56,47 146,88 195,9 16,-27 111,-34 144,-49 106,-49 64,-124 234,-181 34,-11 68,-30 104,-21 34,8 51,-21 116,-1 48,15 57,-5 85,44 29,52 82,-37 162,86 33,52 123,12 205,117 69,89 35,135 182,146 57,4 70,-4 126,-18l67 -14 0 0c138,-54 83,-25 168,-104 41,-38 159,16 220,-4 107,-35 77,-83 163,-118 23,-9 73,66 111,77 105,30 215,102 182,226 -13,48 -1,93 39,122 40,30 74,95 -10,95 -100,0 -71,89 -56,148l2 4c76,60 38,55 68,90 73,86 151,-25 221,-31 37,-3 12,-16 79,-9 43,4 187,-18 229,-34 21,-8 182,-33 197,-21 59,44 -7,104 6,161 21,95 -12,37 50,121 25,35 35,100 10,136 -33,46 -38,109 42,78 40,-15 115,-16 115,44 0,90 49,110 -58,188 -38,28 -35,21 -73,41 -32,18 -27,55 21,65 159,32 63,170 134,221 48,35 140,135 196,143l0 0c5,18 4,34 10,60 28,114 62,115 156,161 46,23 119,17 139,66 11,27 20,45 27,56 -3,10 -19,48 -19,58 0,24 18,65 26,93 14,47 -17,106 -58,130 -26,15 -44,31 -69,48 7,128 79,44 109,69 33,27 -49,70 -44,84 11,33 87,28 82,46 -23,83 -109,99 -146,156 -30,48 -57,105 -101,143 -41,36 -8,76 22,107 69,68 185,95 198,207 -6,29 -34,80 -46,109 -20,48 -16,46 -47,92 -113,164 16,67 -25,209 -4,15 -81,137 -94,156 -31,47 -57,96 -90,141 -8,15 -9,17 -14,34 -12,40 -55,89 -96,102 -165,53 -82,237 -165,220 -44,-9 -56,-11 -102,-15 -41,-3 -83,-1 -124,-1 -66,0 -92,30 -148,-11 -70,-51 -170,3 -216,-42 -60,-60 -67,-86 -27,-160 20,-37 49,-65 70,-107 19,-39 -36,-122 22,-158 34,-21 160,3 198,-39 20,-21 6,-42 -12,-59 -4,-3 -37,-17 -44,-19 -46,-15 5,-54 -14,-72 -40,-40 -195,77 -224,110 -34,40 -124,96 -171,117 -81,36 -113,20 -183,36 -64,15 -51,38 -78,-14 -49,-93 -13,-51 -95,-109 -14,-10 -7,-46 -36,-50 -21,-2 -114,46 -134,56 -9,2 -19,5 -28,8 -52,18 -93,16 -136,-22 -39,-34 -107,-43 -157,-44 -78,-2 -55,-45 -126,-69 -86,-29 -111,-22 -192,-79 -36,-26 -73,-47 -111,-70 -25,-16 -64,-49 -86,-57 -37,-14 -48,-34 -89,-48 -49,-17 -197,10 -247,26 -19,7 -39,30 -43,49 -6,25 -8,104 -47,102 -37,-1 -66,-2 -103,6 -99,23 -104,42 -169,109 -34,34 -53,67 -82,104 -47,59 -106,185 -133,256 -7,18 -20,82 -42,79 -22,-3 -4,-19 -45,-7 -46,14 -54,-91 -58,-121 -10,-72 -42,-53 -87,-83 -26,-18 -53,-33 -72,-59 -33,-47 -62,106 -100,27 -18,-37 -54,-85 -100,-81 -80,7 -82,23 -136,-44l-5 -6c-37,-37 -3,-48 -72,-92 -45,-29 -111,-15 -150,-36 -74,-38 -150,15 -204,65 -42,39 -76,82 -135,86 -38,2 -4,-88 22,-99 48,-20 44,-27 81,-53 44,-32 95,-109 100,-163 4,-40 17,-63 17,-102 0,-41 30,-74 64,-94 24,-14 44,-60 49,-85 11,-58 15,-65 43,-118 5,-28 24,-92 37,-118 40,-85 -15,-69 -14,-133 1,-66 112,-67 142,-83 67,-36 52,-51 77,-110 19,-45 -94,-38 -108,-43 -64,-23 -6,-92 -29,-125 -37,-52 -41,-43 -41,-119 2,-33 12,-77 20,-109 23,-91 -81,-121 -86,-197 -3,-48 -75,-64 -20,-153 19,-31 33,-35 46,-53 26,-37 18,-54 -3,-61l0 0 27 -76c17,-61 -10,-59 -13,-101 -5,-73 -11,-54 -48,-106 -15,-21 -4,-78 3,-100l30 -62 0 0z"/>
  <path class="fil1 str0" d="M10256 16608l27 -76c17,-61 -10,-59 -13,-101 -5,-73 -11,-54 -48,-106 -15,-21 -4,-78 3,-100l30 -62 0 0c-12,-14 -15,-49 -13,-65 7,-86 -81,-88 -79,-125 3,-69 52,-52 -13,-123l-2 -9c-21,-50 5,-101 25,-148 33,-78 -50,-66 -76,-114 -13,-25 34,-158 44,-194 22,-76 47,-84 -8,-141 -54,-57 -142,-66 -177,-90 -58,-41 -2,-23 -109,-75l0 0c-42,10 -60,27 -94,44 -111,56 -96,-48 -179,-29 -45,11 -96,94 -119,135 -50,88 -160,28 -196,-31 -48,-78 -58,75 -53,108 16,98 -23,99 -73,30 -52,-71 -101,-2 -94,44 13,86 -26,93 -41,43 -30,-102 -34,-60 -53,-82 -4,-5 -1,-136 -2,-158 -4,-92 -119,-17 -122,-50 -7,-72 55,-64 -48,-92 -30,3 -54,7 -85,7 -151,0 18,156 -86,159 -95,3 -63,69 -131,104 -80,41 -220,14 -351,79 -90,45 -85,9 -144,7 -97,-4 -48,-72 -88,-126 -50,-68 -87,-66 -159,-22 -19,12 -48,13 -39,-5 44,-92 127,-104 130,-115 14,-68 -29,-74 -78,-90 -120,-39 -91,-67 -128,-88 -39,-23 -55,-44 -81,-80 -54,-74 -133,-23 -172,40 -19,30 -76,70 -76,78 5,117 -159,148 -187,179 -56,61 -62,53 -138,53 -67,0 -151,51 -175,31 -43,-37 12,-21 -85,-76l-95 -28 0 0c-14,15 -35,23 -62,17 -27,-6 -6,-23 -39,10 -37,38 -78,21 -115,69 -23,29 -29,26 -42,65 -43,94 4,157 0,248 -2,47 -30,101 -79,111 -67,14 -59,26 -112,61 -25,16 -35,15 -64,39 -50,42 -81,37 -143,45 -27,4 -54,2 -81,2 -73,5 -83,25 -165,22 -45,-2 -95,28 -115,68 -12,23 -51,89 -67,103 -38,32 -110,40 -146,69 -58,46 -67,76 -97,142 -13,28 -4,45 -1,74l-6 73 0 0c40,21 121,77 160,83 70,12 99,36 157,66 47,24 28,78 136,105 31,8 78,7 114,16 82,20 57,40 55,112 -2,78 11,144 65,203 4,4 8,8 11,13 8,26 24,56 44,76 50,49 124,86 195,90 53,3 77,8 132,4 41,-4 94,11 111,51 25,57 71,84 122,115 64,38 166,-1 241,-2 99,-1 115,-35 237,-15 45,8 134,26 165,-18 30,-43 4,-67 63,-106 63,-36 82,-28 144,-41 117,-24 17,-110 72,-138 18,-10 27,14 68,-13 66,-44 146,-35 221,-47 134,-22 361,-78 487,-25 70,30 196,54 271,53 50,-21 59,-11 106,-15 54,-5 90,-15 109,-71 20,-58 57,-33 107,-48 31,-10 137,-49 164,-29 67,50 -5,85 114,51 67,-19 55,11 145,-30 36,-17 48,-14 69,20 25,40 22,108 96,82 61,-21 61,-6 96,-70 27,-49 62,-21 94,-42 42,-27 52,-65 102,-33 30,19 85,-27 117,-40 48,-20 89,-51 144,-65l4 -1c63,-53 107,-46 182,-51 22,-1 47,-2 64,3l0 0z"/>
  <path class="fil1 str0" d="M9845 15077c108,52 51,34 109,75 35,25 123,34 177,90 55,57 31,66 8,141 -11,36 -58,169 -44,194 26,49 110,37 76,114 -20,47 -46,98 -25,148l2 9c65,71 16,54 13,123 -2,37 87,39 79,125 -1,16 1,50 13,65l0 0c27,-4 52,-5 71,-26 9,-10 2,-30 9,-53 18,-53 6,-56 -23,-98 -23,-33 -32,-100 -2,-128 119,-102 64,-102 95,-157 21,-35 54,-9 59,-125 3,-73 44,-186 82,-247 24,-39 -10,-171 46,-252 23,-32 61,-258 108,-218 56,47 146,88 195,9 16,-27 111,-34 144,-49 106,-49 64,-124 234,-181 34,-11 68,-30 104,-21 34,8 51,-21 116,-1 48,15 57,-5 85,44 29,52 82,-37 162,86 33,52 123,12 205,117 69,89 35,135 182,146 57,4 70,-4 126,-18l67 -14 0 0c0,-33 4,-108 25,-134 13,-16 24,-72 24,-87 -3,-61 61,-47 71,-100 5,-26 27,-29 27,-30 11,-4 66,39 104,46 55,10 92,-54 113,-95 26,-50 -50,-104 -79,-132l0 0c-4,-4 -6,-7 -12,-10 -22,-11 -120,-75 -109,-105 14,-38 67,-52 104,-89 58,-58 77,-41 116,-79 49,-47 -8,-208 63,-152 63,49 76,44 144,-11 4,-6 8,-14 12,-19 57,-90 -20,-94 -68,-131 -65,-51 4,-125 13,-156 21,-72 -112,-47 -145,-36 -120,41 -34,-39 4,-62 45,-28 123,-91 72,-147 -61,-67 -136,-41 -180,-58 -70,-26 -64,-22 -138,-22 -33,0 -139,10 -157,1 -71,-37 -63,-40 -159,-36 -24,-10 -32,-19 -48,-38 -94,-108 -49,-85 -73,-194 -13,-58 -193,-4 -240,-4 -54,0 -40,-126 -142,-82 -88,38 -55,11 -111,-29 -122,-88 -89,63 -125,108 -52,65 -70,-54 -81,-91 -14,-49 -112,-56 -154,-57 -66,-1 -142,40 -180,19 -88,-49 30,-138 -29,-175 -24,-15 -39,-47 -37,-73 5,-76 -95,-83 -147,-94 -63,-13 -138,19 -167,-24 -28,-41 -101,53 -110,71 -36,68 -26,57 -86,75 -99,31 -97,7 -167,121 -4,9 -6,11 -12,19 -77,90 -140,121 -78,248 31,63 -15,78 1,141 19,72 5,48 -2,106 -10,79 -124,44 -132,153 -7,98 -173,91 -170,165 7,171 -61,137 -68,159 -24,68 -65,62 -139,82l0 0c-14,75 -43,184 67,182 44,-1 108,18 139,48 11,11 20,36 48,64 89,89 1,86 -33,150 -69,130 9,145 9,275 0,59 -5,85 10,142 15,55 93,151 -28,192 -23,8 -45,25 -45,50l9 35 0 0z"/>
  <path class="fil1 str0" d="M15715 14008l-9 107c-110,57 -89,-18 -186,79 -30,30 -61,128 -49,169 28,95 -74,147 60,205 51,22 -50,118 -17,180 11,21 -31,120 -21,156 1,4 1,10 1,14 -96,25 -62,2 -86,-13 -15,-10 -19,39 -81,39 -73,0 -123,97 -64,139 21,15 97,62 84,88 -99,200 20,109 -11,298 -10,62 -19,155 -25,219 -7,79 -68,142 -105,216 -56,111 -159,146 -247,237 -34,35 -56,70 -88,111l0 0c5,4 10,9 17,13 40,28 114,103 136,147 6,12 32,69 35,79 11,39 21,67 61,83 71,11 104,21 178,22 98,1 204,14 272,91 35,40 64,52 109,78 34,19 87,8 128,13 33,4 76,6 100,32 37,41 56,53 85,105 13,23 20,39 37,59 10,21 66,139 80,154 30,32 71,36 112,67 44,33 76,44 114,86 55,61 115,109 180,159 47,36 113,114 159,29 19,-34 41,-59 79,-67 61,-13 108,-111 165,-80 20,11 19,43 65,73 52,34 30,60 64,96 71,18 57,34 143,38 140,6 71,79 190,95 60,8 126,28 176,64 35,25 77,29 113,46 6,51 19,109 49,106 50,-4 96,76 123,77 1,0 96,26 115,29l0 0c92,16 75,47 192,14 23,-7 42,-5 59,0 11,-108 13,-32 100,-61 65,-21 7,-37 18,-107 5,-33 27,-53 60,-53 28,0 67,-7 93,-17 34,-13 46,4 81,6 45,3 73,-1 119,8 67,13 46,-28 47,-86 0,-30 -1,-60 -14,-88 -22,-49 -34,-40 -75,-70 -42,-30 -84,-31 -122,-69 -58,-58 -27,-29 -46,-100 9,-66 19,-102 48,-162 31,-63 43,-173 -50,-186 -20,-3 -40,-15 -68,-18 -32,-3 -54,-9 -88,-10 -44,-2 -126,-14 -159,-45 -31,-30 -38,-118 -61,-163 -9,-18 -9,-28 -9,-47 -4,-40 -2,-60 37,-75 51,-20 164,49 198,-16 17,-33 -19,-63 -24,-91 -10,-60 -19,-111 -20,-172 -1,-45 -60,-69 -88,-96 -44,-43 1,-105 -137,-109 -62,-2 -94,-30 -171,-20 -18,3 -51,13 -71,17 -59,12 -82,17 -140,-10 -11,-5 -17,-12 -25,-20 -27,-32 -30,-31 -51,-65 -14,-23 -40,-46 -40,-80 0,-47 12,-168 0,-205 -24,-72 -47,-76 -103,-120 -25,-20 -48,-25 -77,-48 -22,-18 -63,-35 -78,-49 -66,-31 -49,-51 -96,-90 -38,-32 -75,-43 -125,-34 -62,11 -94,87 -120,50 -3,-4 -101,-108 -107,-113 -25,-21 -51,-43 -74,-65 -21,-21 -35,-37 -58,-58 -36,-32 -65,-66 -106,-95 -58,-42 -42,-104 -28,-164 10,-43 26,-63 32,-110 3,-18 7,-36 12,-54 2,-35 -2,-70 21,-98 38,-45 33,-97 69,-143 57,-74 22,-65 -36,-103 -24,-16 -63,-55 -26,-79 38,-24 33,-21 66,-51 13,-12 68,-63 82,-63 21,1 38,48 111,-3 42,-29 48,53 117,1 19,-14 35,-42 41,-65 2,-6 4,-10 7,-16 28,-58 32,-16 38,-79 6,-60 16,-86 -37,-25 -41,47 -112,105 -124,1 -9,-83 -72,-43 -124,-43 -32,0 -81,-10 -110,3 -38,17 -64,1 -94,-19 -32,-21 -74,-12 -102,12 -33,26 -42,31 -83,30l-2 0c-50,-27 -35,-21 -70,-49 -30,-24 -86,-14 -117,3 -64,36 -100,34 -154,-12 -23,-19 -47,-34 -72,-54 -59,-49 -100,-7 -167,11 -27,7 -75,34 -94,36 -26,6 -37,10 -48,12l0 0z"/>
  <path class="fil1 str0" d="M12604 14446c28,27 104,82 79,132 -21,41 -58,105 -113,95 -38,-7 -93,-50 -104,-46 0,1 -22,4 -27,30 -10,52 -73,39 -71,100 1,14 -11,71 -24,87 -21,26 -25,101 -25,134l0 0c138,-54 83,-25 168,-104 41,-38 159,16 220,-4 107,-35 77,-83 163,-118 23,-9 73,66 111,77 105,30 215,102 182,226 -13,48 -1,93 39,122 40,30 74,95 -10,95 -100,0 -71,89 -56,148l2 4c76,60 38,55 68,90 73,86 151,-25 221,-31 37,-3 12,-16 79,-9 43,4 187,-18 229,-34 21,-8 182,-33 197,-21 59,44 -7,104 6,161 21,95 -12,37 50,121 25,35 35,100 10,136 -33,46 -38,109 42,78 40,-15 115,-16 115,44 0,90 49,110 -58,188 -38,28 -35,21 -73,41 -32,18 -27,55 21,65 159,32 63,170 134,221 48,35 140,135 196,143l0 0c43,-18 42,-22 67,-57 25,-35 2,-56 67,-82 44,-18 74,7 124,-52 28,-33 32,9 64,-74 9,-22 8,-42 24,-68 17,-28 60,-103 101,-79 23,14 34,31 52,47l0 0c32,-41 54,-76 88,-111 88,-91 191,-126 247,-237 37,-74 99,-137 105,-216 5,-64 15,-157 25,-219 31,-190 -88,-98 11,-298 13,-26 -63,-73 -84,-88 -59,-42 -8,-139 64,-139 62,0 66,-49 81,-39 24,15 -10,37 86,13 0,-4 1,-10 -1,-14 -10,-35 32,-135 21,-156 -33,-62 68,-158 17,-180 -134,-59 -32,-110 -60,-205 -12,-41 19,-139 49,-169 97,-97 76,-22 186,-79l9 -107 0 0c-12,3 -23,4 -49,6 -55,5 -57,5 -99,-37 -36,-36 -67,-3 -120,-51 -19,-17 -11,-28 -41,-53 -54,-43 -115,-39 -130,-122 -5,-30 -45,-91 -57,-134 -10,-37 -50,-58 -88,-58 -70,-1 -94,-42 -152,-50 -15,-2 -109,-26 -119,-32 -53,-33 -17,-61 -24,-124 -4,-32 -7,-69 -31,-92 -50,-19 -105,-30 -158,-24 -34,4 -54,-19 -92,-28 -46,-10 -22,-10 -69,-4 -33,5 -28,-36 -107,-3 -68,29 -170,3 -224,28 -4,-8 -9,-17 -16,-29 -6,-10 -16,-5 -28,-7 -15,-2 -29,-9 -41,-20l0 0c-8,4 -34,29 -42,35 -79,67 -77,39 -161,97 -9,8 -15,10 -24,17 -21,15 -140,158 -148,180 -34,92 -8,144 42,218 46,70 -71,168 24,223 81,47 93,69 104,162 4,31 48,105 68,116 47,28 50,175 24,217 -43,73 -1,95 -47,132 -29,23 -97,-46 -108,-64 -39,-59 -225,-77 -277,-124 -29,-27 -26,-19 -53,-37 -76,-52 -72,-50 -161,-65 -69,-11 -149,27 -200,12 -87,-24 -130,43 -195,85 -198,128 -121,-101 -196,-33 -53,47 -28,39 -117,97l0 0z"/>
  <path class="fil1 str0" d="M19134 8357c69,-150 29,-38 117,-137 38,-43 107,-96 148,-26 65,111 151,105 253,153 67,31 49,144 101,218 70,100 61,109 184,157 79,32 166,58 251,69 57,7 127,-20 172,-14l0 0c-12,-34 2,-78 32,-89 33,-11 93,18 126,29 4,0 13,3 17,5 43,20 86,34 132,40 21,3 81,-15 103,-25 46,-22 67,12 49,50 -16,33 -99,78 -42,105 50,24 89,10 137,-6 46,-15 65,-70 103,-34 52,50 55,54 128,53 26,0 55,23 75,40 38,33 37,29 81,42 33,11 85,-15 83,-47 -2,-29 -20,-37 -44,-48 -13,-13 -11,-37 1,-51 42,-49 122,3 161,-1 23,-3 116,-76 123,-98 19,-61 -3,-82 -36,-127 -38,-52 -43,-78 7,-123 26,-23 4,-38 -22,-43 -45,-8 21,-29 -10,-87 -21,-39 28,-46 52,-42 44,7 42,18 96,10 5,0 8,0 13,4 62,41 32,92 108,123 42,17 101,-31 109,-67 11,-50 45,-43 45,-106 0,-49 30,-27 62,-35 96,-26 -21,-103 -49,-130 -34,-33 -27,-55 20,-39 83,27 90,-16 131,-15 41,1 66,1 104,19 24,11 45,34 66,29 32,-7 11,-7 44,1 45,10 94,85 126,14 33,-73 42,-90 42,-170 -16,-7 -39,-9 -60,-18 -72,-29 -101,-106 -187,-121 -100,-17 -17,-49 -25,-87 -4,-22 -16,-53 20,-54l0 0c-21,-21 -21,-49 -47,-62 -39,-20 -88,-24 -113,-35 -43,-18 -106,20 -157,-8 -26,-14 -19,-115 -19,-146 0,-74 16,-89 4,-173 -5,-17 -6,-47 -9,-65 -24,-139 -75,-290 -64,-431 12,-151 -26,-305 21,-451 59,-184 -246,40 -304,-87 -37,-81 -145,-3 -212,13 -113,26 -191,39 -301,84l0 0 -43 28 -6 0c-61,-5 -63,-12 -69,-57 -10,-66 -12,-50 -41,-104 -10,-19 -94,-140 -106,-155 -63,-70 -53,-98 -135,-156 -34,-24 -75,-15 -108,-40 -60,-48 -163,113 -249,49 -82,-61 -122,22 -190,-57 -30,-35 -129,-69 -172,-71 -81,-4 -109,-42 -157,-48 -42,-6 -118,-33 -152,-48l-161 -24 0 0c-2,19 -5,38 3,63 14,46 -32,69 -69,69 -22,0 -78,-31 -102,-42 -36,-16 -43,-55 -63,-29 -27,33 -22,36 -61,7 -51,-37 -32,-82 -95,-75 -83,9 -55,-25 -83,-43 -41,-26 -79,111 -88,134 -23,62 -76,72 -73,128 3,48 5,56 -16,100 -8,16 5,64 6,85 1,34 24,27 -24,50l0 0 21 140c9,106 1,57 -5,124 -5,67 -62,49 -14,137 25,46 -46,65 -63,130 -14,52 -13,126 56,130 22,1 195,5 154,60 -42,56 -59,120 -18,181 23,34 -9,94 50,99 45,3 82,35 78,83 -7,93 -27,158 108,156 36,-1 135,3 144,49 9,50 -1,163 53,190 3,1 114,32 119,40 25,35 -59,120 -34,181 4,11 2,123 -74,66 -19,-14 -50,-37 -73,-37 -86,0 -64,50 -146,18 -35,-13 -43,48 -31,79 23,59 -70,59 -83,108 -12,45 14,56 -73,73 -41,8 -66,87 14,123 70,32 -38,141 118,149l5 0 0 0z"/>
  <path class="fil1 str0" d="M17228 8193c-25,65 -96,305 -140,337 -43,32 -49,119 -151,119 -67,0 -69,13 -118,41 -39,22 -47,72 -47,113l0 0c110,99 72,91 222,126 162,38 263,-24 378,144 28,41 137,126 181,146 11,5 41,19 51,25 78,36 76,54 134,84 26,13 75,20 120,42 65,32 159,40 157,133 -1,50 37,74 83,74 49,0 191,78 207,130 0,1 33,55 35,57l0 0c6,-20 25,-23 52,29 20,39 45,44 84,25 45,-21 104,-104 132,-111 20,-5 67,17 79,38 9,16 35,78 60,48 15,-17 -16,-81 -15,-91l-6 -27c-22,-44 -1,-125 45,-146 48,-23 35,-28 89,-14 27,122 79,248 214,110 31,-32 148,-37 182,11 45,64 210,110 290,168 34,24 80,47 112,75 39,-15 140,15 172,34 48,29 71,43 122,10 43,-28 45,-54 59,-98l6 -9c24,-37 24,-61 -21,-78 -33,-13 -45,-18 -77,-35 -33,-17 -86,-68 -39,-100 80,-55 103,37 169,38 53,0 68,-20 114,18 49,40 93,-35 113,-27 37,14 32,51 25,83 -20,91 45,85 76,45 34,-43 54,-76 25,-128 -29,-53 5,-70 2,-89 -4,-24 -31,-20 -31,-108 0,-45 21,-80 61,-40 21,20 39,107 60,116 35,14 58,-22 78,-46 37,-43 32,-63 37,-118l-2 -14c-11,-71 -21,-117 -9,-190 9,-53 -44,-73 -85,-88 -91,-33 0,-150 -75,-164 -62,-12 -17,-51 -62,-89 -8,-7 -14,-16 -17,-25l0 0c-45,-6 -115,21 -172,14 -85,-11 -172,-37 -251,-69 -123,-49 -114,-58 -184,-157 -52,-74 -35,-187 -101,-218 -102,-47 -188,-42 -253,-153 -41,-70 -110,-17 -148,26 -88,99 -48,-13 -117,137l0 0c7,67 2,118 -5,183 -4,41 -66,119 -103,132 -84,29 -93,20 -162,-34 -24,-19 -1,-42 -40,-27 -30,11 -113,-65 -164,-24 0,0 -89,36 -97,39 -41,16 -70,11 -93,-27 -14,-23 -74,-44 -110,-84 -78,-87 -48,107 -152,46 -125,-73 -8,-126 -152,-171 -50,-16 -75,-17 -126,-11 -61,8 -87,-19 -80,-80 4,-34 32,-17 29,-79 -1,-26 55,-88 -15,-124 -38,-20 -40,45 -57,69 -26,37 -89,77 -135,60 -20,-8 -107,-1 -138,-1 -103,-66 -66,-33 -157,-22 -57,7 -56,-29 -142,-10 -5,1 -3,1 -8,1l0 0z"/>
  <path class="fil1 str0" d="M16683 7018l43 58c19,95 -2,54 -2,95 0,32 57,19 57,84 0,156 137,96 143,227 2,43 29,113 29,168 0,84 -6,127 -31,211l-2 7c-20,92 -50,103 -72,178 -7,24 -15,104 30,92 49,-13 71,-17 122,-37 10,-4 89,24 123,21 72,-5 72,26 86,29l19 43 0 0c4,0 3,1 8,-1 86,-19 85,17 142,10 90,-11 54,-44 157,22 31,0 118,-7 138,1 46,18 110,-22 135,-60 17,-24 20,-89 57,-69 70,37 14,98 15,124 3,62 -25,45 -29,79 -7,60 18,87 80,80 51,-6 76,-5 126,11 144,45 27,98 152,171 104,61 74,-132 152,-46 36,40 96,61 110,84 22,38 52,43 93,27 8,-3 97,-39 97,-39 50,-41 133,36 164,24 39,-14 15,8 40,27 69,54 77,63 162,34 38,-13 99,-92 103,-132 7,-65 12,-116 5,-183l0 0 -5 0c-156,-7 -48,-117 -118,-149 -80,-36 -54,-115 -14,-123 87,-17 61,-28 73,-73 13,-49 106,-49 83,-108 -12,-31 -3,-92 31,-79 81,32 60,-18 146,-18 23,0 54,23 73,37 76,57 79,-56 74,-66 -25,-61 59,-146 34,-181 -5,-7 -116,-39 -119,-40 -54,-27 -44,-139 -53,-190 -8,-46 -108,-49 -144,-49 -135,3 -115,-63 -108,-156 3,-47 -34,-79 -78,-83 -59,-5 -27,-65 -50,-99 -41,-61 -24,-124 18,-181 40,-54 -133,-58 -154,-60 -69,-4 -69,-79 -56,-130 17,-64 88,-83 63,-130 -47,-88 9,-70 14,-137 5,-67 14,-18 5,-124l-21 -140 0 0c-5,-6 -20,-12 -27,-15 -35,-16 -39,-32 -63,-45 -46,-25 -15,-55 -89,-43 -55,9 -56,94 -133,21 -23,-22 -23,-18 -44,-32 -57,-40 -84,39 -115,12 -30,-26 -6,-76 -6,-120 0,-100 -43,-60 -110,-85 -54,-20 -79,-29 -141,-28l-5 4c-29,21 -37,80 -41,114 -5,38 -32,58 -69,61 -58,5 -131,8 -184,33 -47,22 -66,40 -122,37 -78,-3 -92,-51 -141,-90 -37,-29 -69,-60 -100,-96 -19,-22 -58,38 -69,52 -16,21 -37,32 -47,51 -14,29 -22,45 -39,73 -28,48 -81,42 -99,61 -37,39 -10,46 -40,78 -39,42 -123,21 -142,51 -21,33 4,22 -38,74 -6,6 -15,16 -21,22 -14,18 -23,91 -22,116 0,29 -14,56 -34,78 -46,50 -38,42 -25,97 6,26 15,31 22,52 25,72 -57,91 -104,120 -57,35 30,162 -36,209 -27,19 -44,60 -62,74l0 0z"/>
  <path class="fil1 str0" d="M21605 4826c88,-14 103,-13 126,-84 9,-28 60,-69 88,-50 66,44 75,40 147,57 10,2 129,56 131,59 30,36 -76,16 -82,66 -3,23 87,12 119,31 47,28 72,21 130,69 62,50 114,-16 201,86 31,36 98,52 135,17 33,-32 65,-50 101,-91 21,-24 80,-21 73,52 -9,96 102,-27 147,82 27,65 1,106 114,82 14,-3 49,-12 61,-12 50,15 31,18 61,31 13,5 27,15 40,-4 2,-3 5,-70 11,-86l0 0c-21,-8 -40,-26 -57,-58 -31,-60 -95,-55 -63,-95 68,-85 111,18 152,5 68,-21 56,-120 104,-140 34,-14 29,-87 20,-115 -32,-93 70,8 70,-116 0,-37 -7,-50 2,-90 21,-28 37,-55 58,-84 27,-36 104,-102 143,-125 74,-44 98,-71 107,-160 7,-73 -8,-198 -48,-261 -44,-69 -57,-97 -139,-120 -62,-18 -55,-16 -109,-50 -24,-24 -36,-34 -54,-63 -22,-33 -105,-114 -141,-131 -42,-20 -78,-56 -124,-78 -62,-30 -73,-21 -131,-37 -53,-15 -50,-95 -49,-139 1,-72 22,-79 -33,-129 -34,-30 -29,-108 -24,-148 11,-97 -25,-131 -37,-214 -7,-50 -5,-136 8,-185 8,-29 11,-54 17,-82 12,-55 -20,-49 -70,-43 -54,7 -85,0 -135,4 -14,1 -38,-4 -60,-10l0 0c-18,-5 -35,-12 -46,-18 -29,-15 -34,-19 -46,-51 -37,-21 -21,-27 -40,-56 -26,-39 -13,-37 -21,-74 -13,-59 -30,-56 -86,-56 -62,0 -122,-7 -183,-11 -47,-3 -56,-10 -102,-18 -15,0 -44,0 -58,-7 -13,-7 -31,-50 -37,-66 -34,-82 -73,-32 -134,-22 -53,9 -68,81 -63,127 5,48 -36,106 -79,77 -42,-29 -99,-21 -117,-47 -23,-32 -56,6 -58,30 -3,44 1,89 9,133 3,17 -10,51 -19,64 -25,36 -87,90 -77,139 3,15 16,116 13,125 -3,12 -7,21 -13,28l0 0 64 109c33,95 38,157 -16,243 -18,29 -103,80 -21,95 19,3 88,64 90,96 4,84 66,135 62,184 -1,18 -53,168 -69,182 -22,20 -17,29 -57,43 -35,12 -148,64 -130,113 11,29 80,42 50,123 -35,96 -33,43 -30,157 0,9 -2,17 -2,28 4,100 -6,62 -9,119 -1,25 32,17 9,86 -9,27 -1,89 26,112 75,64 8,150 71,229 23,28 38,61 72,89 15,13 29,44 37,52l0 0z"/>
  <path class="fil1 str0" d="M21605 4826c-31,37 -42,63 -85,43 -41,-18 -46,-31 -103,-1 -50,27 -13,53 -81,95 -57,36 -15,43 -5,85 11,48 36,105 50,158 9,35 38,57 35,110 0,10 14,150 17,159 21,71 0,114 -62,151 -35,21 -103,85 -32,107 10,3 65,45 43,66 -70,66 75,152 5,193 -52,30 -29,27 -95,32 -41,3 -42,79 -101,82 -34,1 -53,-63 -121,60 -8,15 14,47 11,89 0,3 0,14 0,18l2 42 0 0c110,-45 188,-58 301,-84 67,-16 175,-94 212,-13 57,127 363,-96 304,87 -47,147 -9,300 -21,451 -11,141 40,292 64,431 3,17 5,48 9,65 11,84 -4,99 -4,173 0,30 -6,132 19,146 51,28 114,-10 157,8 25,10 73,15 113,35 26,13 26,42 47,62l0 0c74,-2 52,45 152,-28 42,-31 41,-66 84,-81 65,-23 70,-54 84,-117 11,-47 35,-31 60,-28 48,7 69,-60 90,-82 65,-68 86,-78 72,-178 5,-6 6,-8 9,-15 33,-64 72,-100 111,-158 49,-72 38,-43 40,-118 1,-57 62,-86 -9,-100 -66,-13 -8,-72 10,-101 20,-32 -19,-88 35,-102 53,-14 54,-37 51,-90 -3,-53 -24,-55 17,-106 20,-25 -54,-45 -68,-47 -47,-7 -48,-69 -31,-101 51,-99 0,-77 -5,-107 -8,-52 61,-58 -21,-130 -15,-13 -69,-39 -56,-55 37,-42 88,-9 126,11 40,21 67,3 89,44 17,31 12,23 33,49 18,22 36,27 65,16 49,-18 58,-8 104,-1 40,6 77,-62 89,-89l1 -7c23,-91 107,-19 93,-137 -7,-57 -118,-25 -131,-50 -16,-32 76,-47 90,-52 30,-10 39,-53 35,-78 -7,-39 -8,-79 2,-118 12,-49 -1,-67 -50,-91 -23,-11 -52,-41 -29,-64 40,-40 20,-5 45,-73 -4,-20 1,-59 4,-78 8,-42 -19,-38 -55,-46 -56,-12 -37,-45 -86,-42 -51,4 -93,14 -128,1l0 0c-5,16 -8,83 -11,86 -13,20 -27,10 -40,4 -30,-12 -11,-16 -61,-31 -12,0 -47,9 -61,12 -112,23 -87,-18 -114,-82 -45,-110 -157,14 -147,-82 7,-73 -51,-76 -73,-52 -36,41 -68,59 -101,91 -37,35 -104,19 -135,-17 -87,-102 -139,-35 -201,-86 -58,-47 -83,-41 -130,-69 -32,-19 -122,-8 -119,-31 6,-50 113,-30 82,-66 -2,-3 -121,-57 -131,-59 -72,-17 -81,-13 -147,-57 -28,-19 -78,22 -88,50 -23,71 -38,70 -126,84l0 0z"/>
  <path class="fil1 str0" d="M19495 5633l161 24c34,15 110,42 152,48 48,6 75,44 157,48 43,2 142,35 172,71 68,80 108,-4 190,57 87,64 189,-97 249,-49 33,26 74,16 108,40 82,58 72,86 135,156 13,14 96,136 106,155 29,54 31,38 41,104 7,45 9,52 69,57l6 0 43 -28 0 0 -2 -42c0,-4 0,-15 0,-18 4,-43 -19,-74 -11,-89 69,-123 88,-59 121,-60 60,-3 60,-78 101,-82 65,-5 43,-2 95,-32 70,-41 -75,-127 -5,-193 23,-21 -32,-63 -43,-66 -71,-23 -3,-87 32,-107 62,-37 83,-80 62,-151 -3,-9 -18,-149 -17,-159 2,-53 -26,-75 -35,-110 -14,-53 -39,-110 -50,-158 -9,-41 -52,-49 5,-85 67,-42 30,-68 81,-95 57,-30 62,-18 103,1 43,19 55,-7 85,-43l0 0c-9,-8 -22,-40 -37,-52 -34,-29 -49,-61 -72,-89 -63,-79 4,-165 -71,-229 -27,-23 -35,-85 -26,-112 23,-69 -10,-61 -9,-86 2,-57 13,-19 9,-119 0,-11 2,-20 2,-28 -3,-114 -5,-61 30,-157 30,-82 -39,-95 -50,-123 -18,-49 95,-101 130,-113 40,-14 35,-23 57,-43 16,-14 67,-165 69,-182 4,-49 -58,-100 -62,-184 -2,-33 -71,-93 -90,-96 -82,-15 3,-66 21,-95 54,-86 49,-147 16,-243l-64 -109 0 0c-18,23 -49,9 -89,2l-13 -3c-59,-15 -74,-50 -128,-81 -51,-30 -103,-58 -164,-58 -68,0 -52,86 -143,58 -42,-13 -64,-24 -107,-32 -34,-6 -46,45 -50,70 -10,62 -35,103 -44,165 -5,32 -24,96 -23,121 2,73 -58,137 -60,187 -1,29 -12,52 -17,77 -8,42 -46,40 -80,29 -19,-6 -67,-37 -84,-50 -22,-17 -35,-16 -51,-26 -49,-29 -27,29 -58,69 -22,29 -25,27 -66,30 -30,12 -107,64 -127,90 -24,32 -38,25 -57,38 -63,43 -55,120 -75,142 -50,57 -68,50 -68,132 0,26 -10,105 -6,120 4,16 7,66 3,81 -7,34 -10,55 -9,90 2,47 14,66 7,120 -7,11 -19,49 -19,64 0,16 20,58 28,72 26,46 10,26 16,65 5,30 -28,83 -45,108 -35,54 -159,85 -181,147 -18,49 -30,48 -63,77 -18,16 -53,18 -58,31 -20,54 17,67 31,101 21,50 9,39 -18,96 -19,64 5,58 10,94 7,63 -60,77 -53,131 6,48 -26,71 -12,117 9,30 7,30 7,61 1,27 -32,86 -46,111 -27,50 -57,86 -54,150l1 4c7,29 5,49 2,69l0 0z"/>
  
  
  
  
  
  
  
  
  
  
  
  
  
  
  
  
  
  
  
  
  
  
  <g id="_2422040196544">
   
   
   
   
   
   
   
   
  </g>
  <g id="_2422040243296">
   
   
   
   
   
   
   
   
   
   
   
   
   
   
  </g>
 </g>
</svg>