<svg xmlns="http://www.w3.org/2000/svg" xmlns:xlink="http://www.w3.org/1999/xlink" xml:space="preserve" width="210mm" height="297mm" version="1.1" style="shape-rendering:geometricPrecision; text-rendering:geometricPrecision; image-rendering:optimizeQuality; fill-rule:evenodd; clip-rule:evenodd" viewBox="0 0 21000 29700">
 <defs>
  <style type="text/css">
   <![CDATA[
    .str1 {stroke:black;stroke-width:10;stroke-opacity:0.501961}
    .str3 {stroke:black;stroke-width:50}
    .str5 {stroke:#434242;stroke-width:10}
    .str2 {stroke:#3F3E3F;stroke-width:10}
    .str0 {stroke:black;stroke-width:10}
    .str6 {stroke:#2B2A29;stroke-width:7.62}
    .str4 {stroke:black;stroke-width:7.62}
    .fil6 {fill:none}
    .fil0 {fill:#FEFEFE}
    .fil8 {fill:#D9DADA}
    .fil4 {fill:#FEFEFE;fill-rule:nonzero}
    .fil3 {fill:#D9DADA;fill-rule:nonzero}
    .fil7 {fill:#434242;fill-rule:nonzero}
    .fil5 {fill:#2B2A29;fill-rule:nonzero}
    .fil2 {fill:black;fill-rule:nonzero}
    .fil1 {fill:#FEFEFE;fill-rule:nonzero;fill-opacity:0.501961}
   ]]>
  </style>
 </defs>
 <g id="Plan_x0020_1">
  <metadata id="CorelCorpID_0Corel-Layer"/>
  <rect class="fil0" x="1000" y="1000" width="18486" height="27700"/>
  
  
  
  
  <path class="fil0 str0" d="M9643 28688l-2434 0c-79,-124 -98,-305 -184,-415 -5,-41 -113,-343 -148,-387 -4,-28 -30,-83 -50,-105 -8,-64 -153,-168 -205,-205 -43,-64 -128,-115 -179,-189l-102 -148 -286 -270c-62,-59 -9,-123 -26,-174 -92,0 -130,-19 -188,-91l-155 -191c-287,-48 -232,-515 -434,-695 -6,-6 -37,-71 -26,-74 0,-10 40,-33 50,-36 13,-51 11,-23 2,-48 -51,0 -65,-1 -102,-19 -6,-44 -43,-111 -57,-160 0,-156 -93,-481 -236,-571 -28,-114 -544,-1287 -558,-1296 -2,-16 -6,-32 -10,-49l0 0 141 -5c27,-2 62,-24 79,-44 35,-42 104,-30 151,-30 50,0 83,-7 130,-19 24,-6 43,-27 63,-7 93,93 -95,94 -85,167 24,17 62,14 80,35 19,21 -35,106 45,74 60,-24 83,-19 136,4 6,24 -8,22 -11,42 -32,20 -103,88 -61,124 22,18 35,54 62,64 17,6 86,1 89,-21 29,-21 4,-124 55,-141 26,-9 86,89 112,92 25,5 169,11 156,37 -20,40 -108,34 -100,100 23,200 105,34 191,62 96,32 48,58 52,125 2,33 62,91 97,82 57,-14 155,-182 204,-152 37,23 187,95 187,132 -70,35 -179,10 -217,97 -44,101 238,190 266,275 11,35 24,108 69,117 94,19 -3,-231 255,-167 48,48 -16,189 -88,192 -76,3 -122,-15 -137,76 -8,47 -14,112 24,149 36,36 69,38 110,64 35,23 34,151 42,193 10,58 80,111 86,161 48,40 47,8 104,-4 70,-14 59,5 110,33 93,97 143,239 209,357 70,127 90,145 238,172 89,16 122,44 160,125 30,65 66,75 131,51 68,-25 93,115 181,117 43,1 234,-50 244,31 17,12 45,188 45,211 0,80 97,233 167,271 85,46 193,27 284,58 182,63 304,73 479,-14 66,-33 238,-136 305,-136 0,108 -103,400 1,480 51,39 94,10 149,10 67,0 60,111 135,42 73,-68 92,17 92,86 25,74 78,93 150,76 66,-15 88,-39 113,26 35,91 105,238 220,238 64,0 385,-99 343,38 -45,147 -75,247 111,247l0 0c37,145 -38,159 -166,146 -89,-9 -115,91 -175,138 -50,40 -109,-18 -161,35 -71,71 -93,130 -168,14 -83,-128 -83,-23 -163,17 -21,10 -90,35 -43,66 21,14 51,21 49,53 -3,43 -66,57 -82,88 -10,19 -16,32 6,47 14,9 44,18 61,18 22,22 14,75 18,105l0 0z"/>
  <path class="fil0 str0" d="M5185 16107c64,-11 124,-50 192,-17 41,20 53,49 86,76 40,33 143,8 194,8 56,0 107,-5 160,8 11,44 -9,49 -31,88 -15,11 -45,40 -33,60 58,7 125,-14 120,54 -5,66 65,51 79,0 33,-125 155,16 174,80 27,92 -96,48 -100,132 -3,55 124,-14 162,24 35,35 165,153 167,198 2,38 -30,77 10,109 30,24 83,30 119,37 17,133 -20,75 -99,140 -39,31 328,303 393,254 21,-16 33,-41 56,-56 8,-5 60,-38 66,-18 13,7 14,57 11,72 -20,88 75,184 148,217l0 0c35,-9 74,21 110,8 33,-11 245,-76 218,-138 -40,-20 -67,-53 -50,-98 53,-33 83,-101 83,-162 0,-34 -2,-70 5,-103 11,-48 47,-48 70,-85 3,-16 1,-65 13,-74 13,-9 23,-11 38,-14 64,-15 73,-137 139,-137 33,42 6,114 38,156 48,64 84,-39 89,-74 6,-38 -6,-81 14,-116 22,-37 89,-70 126,-94 63,-41 91,-123 125,-186 19,-56 -10,-156 -7,-218 1,-23 5,-45 8,-66l0 0c5,-32 11,-64 6,-100 -59,-34 -117,-28 -184,-36 -4,-5 -10,-12 -14,-17 -4,-46 54,-120 37,-165 3,-7 1,-16 0,-23 -45,15 -181,142 -207,61 -24,-75 55,-135 55,-211 -40,-34 -72,-34 -123,-53 -38,-14 -77,-34 -77,-81 0,-63 119,-100 119,-134 -74,-50 4,-99 60,-109 41,-7 140,15 114,-45 0,-77 -144,-45 -187,-54 -69,-16 -101,-96 -83,-160 19,-24 58,-40 89,-40 25,0 45,19 68,17l7 -4 0 0c-11,-39 0,-79 -17,-119 -19,-20 -33,-44 -59,-57 -62,-44 -86,-107 -176,-107 -41,0 -122,51 -154,78 -92,78 -162,-236 -172,-286 -21,-104 -68,-144 -137,-214 -4,0 -7,1 -11,2 -10,79 -54,168 -68,251 -11,65 -164,140 -188,37 -15,-65 -51,-128 -75,-192l0 0c-47,-3 -103,-8 -150,-1 -26,4 -97,10 -97,-30 -16,-19 -17,-57 -25,-80 -13,-41 -30,-71 -62,-100 -37,-34 -27,-107 -51,-147 -85,0 -181,122 -254,156 -43,20 -63,21 -110,21 -45,0 -101,37 -142,18 -46,-22 -120,-126 -161,-159 -23,-19 -70,-49 -86,-70 -59,0 -81,121 -98,161 -30,72 -41,161 -137,175 -15,2 -37,0 -49,11 -24,22 -7,37 -18,61l0 0c16,8 50,9 60,19l4 0c40,40 26,59 4,112 -28,67 -26,197 4,263 23,52 63,93 63,153 0,37 -100,57 -126,70 -77,39 22,127 11,186 -6,31 -17,56 -26,86 -15,44 12,70 18,109 19,24 82,100 58,131 -13,18 -43,31 -62,42 -22,13 -23,44 -37,54 -4,46 -41,96 -87,107 -95,25 2,101 11,160 5,31 -6,63 0,94 6,34 23,60 30,92l0 0z"/>
  <path class="fil0 str0" d="M8078 16172c-4,21 -7,43 -8,66 -2,63 26,163 7,218 -34,63 -62,145 -125,186 -37,24 -105,57 -126,94 -20,35 -8,78 -14,116 -5,35 -41,138 -89,74 -32,-43 -5,-115 -38,-156 -66,0 -75,122 -139,137 -15,4 -25,5 -38,14 -12,9 -10,58 -13,74 -23,36 -60,37 -70,85 -7,32 -5,69 -5,103 0,61 -31,129 -83,162 -17,45 10,78 50,98 27,63 -185,127 -218,138 -36,12 -75,-17 -110,-8l0 0c-54,58 -123,121 -138,203 -6,31 27,86 29,124 1,33 -16,72 -55,73 -59,2 -78,-71 -148,-54 -45,11 -128,173 -149,210 -6,11 56,142 68,144 88,15 192,-27 276,-6 0,173 112,224 282,172 57,-18 102,-51 157,-72 74,-28 139,91 232,-2 63,-63 291,-69 373,-36 70,28 -62,190 8,270 41,37 79,76 126,106 23,52 22,108 13,166 -11,72 -5,77 39,129 73,85 72,324 179,442 1,5 3,10 5,14l0 0c47,0 275,18 299,-23 68,-31 31,-111 60,-152 36,-13 76,3 116,-12 43,-15 67,-81 97,-115l0 0c3,-43 -5,-117 31,-148 41,-35 87,-65 126,-101 24,-22 47,-40 36,-75 -11,-36 -55,-53 -88,-60 -22,-31 -35,-24 -32,-70 2,-30 27,-56 30,-86 13,-40 10,-112 17,-156 7,-47 -9,-89 -48,-113 -81,-50 -75,-180 17,-222 17,-58 91,-56 91,-143 0,-31 -51,-115 -26,-140 96,-96 224,-69 209,-247 35,-88 -8,-104 80,-178 43,-36 101,-99 73,-159 -38,-80 -56,-266 49,-298 99,-30 143,22 232,30 134,12 157,186 275,164 60,-12 122,-58 170,-94 89,-67 65,-68 186,-68 111,0 168,12 236,-76l142 -185c6,-2 9,-6 14,-12 49,-24 88,-6 128,-43 30,-28 32,-76 55,-110l0 0c-99,-33 -388,-111 -423,-182 -35,-72 -33,-98 -95,-156 -63,-59 -224,-200 -307,-197 -36,1 -80,52 -114,35 -109,-55 -189,-83 -212,81 -47,24 -109,-47 -129,-84 -6,-11 -10,-20 -13,-29 -62,-72 -183,-111 -276,-111 -33,0 -66,-11 -100,-11 -31,0 -59,97 -64,127 -22,112 79,181 93,289 11,80 -46,80 -89,140 -31,42 -20,74 -20,123 31,87 -95,125 -167,118 -34,-3 -64,-23 -97,-32 -69,-21 -143,-1 -213,-35 -96,-45 -125,-165 -198,-234 -34,-32 -74,-55 -110,-86 -26,-23 -58,-26 -83,-45l-230 -102 0 0z"/>
  <path class="fil0 str0" d="M8758 14204c-4,-9 -6,-18 -14,-24 -25,-102 -148,-168 -180,-272 -18,-60 -27,-121 -42,-181 -13,-74 -56,-204 -43,-271 27,-17 53,-55 80,-73 9,-66 -66,-170 -117,-210 -44,-35 -42,-109 -86,-135 -82,-49 -163,-14 -163,-142 0,-53 15,-71 66,-84 58,-15 73,-27 123,-64 58,-58 39,-186 68,-265 34,-17 155,-123 111,-167 -25,-25 -56,-33 -64,-70 -5,-22 4,-84 -8,-99 0,-51 -54,-77 -36,-148 53,-38 100,-119 161,-141 60,-21 47,105 52,131 15,74 180,209 253,227 33,8 117,10 120,-42 3,-40 -49,-27 -74,-30 -46,-4 -99,-88 -70,-127 67,-90 194,-14 247,-131 50,-112 -84,-135 -154,-154 -29,-7 -58,-36 -87,-48 -45,-19 -89,-2 -136,-2 -165,0 -340,-193 -450,-300l0 0c6,-37 11,-72 -20,-97 -24,-19 -39,14 -57,-29 -16,-35 -63,14 -92,16 -26,2 -93,-7 -113,-23 0,-15 101,-85 119,-91 47,-14 89,4 138,-7 115,-26 197,-40 311,-10 67,18 48,46 61,107 17,80 113,191 200,121 67,-54 37,-232 37,-315 0,-71 -3,-146 8,-215 34,-8 334,-39 341,-10 73,44 -17,180 -30,228 -22,84 -8,150 79,183 140,54 225,86 312,-60 32,-54 256,-194 274,-68 71,51 72,106 188,106l0 0c32,23 65,26 93,56 45,48 115,-49 170,-54 60,-6 26,76 26,118 3,3 13,10 14,13 46,7 61,1 100,-24 100,-63 82,-36 147,35 107,116 -20,106 -20,233 0,66 33,94 82,128 49,34 24,112 35,162 13,101 151,93 226,100 88,9 96,18 125,98 31,85 129,196 228,185 50,-6 103,-23 151,-23 89,0 127,67 75,149 -22,9 -46,13 -67,21 -3,8 0,15 2,21 96,55 121,156 257,117 122,-35 105,92 182,148 64,46 73,45 145,23l0 0c5,3 16,9 19,14l5 2c22,38 33,29 33,80 -132,152 -350,29 -480,150 -67,63 -115,158 -226,140 -52,-9 -76,-3 -110,37 -38,45 -84,51 -141,62 -97,35 -205,146 -291,196 -98,56 -221,81 -332,99 -239,40 -319,88 -441,300 -49,85 -151,274 -274,224 -18,-29 -50,-84 -56,-117 -16,-16 -27,-20 -48,-27 -55,0 -107,10 -153,41 -30,20 -43,56 -80,74l-87 -5c-36,-2 -55,36 -81,55 -97,180 -365,205 -543,152l0 0z"/>
  <path class="fil0 str0" d="M11738 14888c-94,-28 44,-130 -4,-196 -16,-22 -185,102 -207,124 -65,65 114,134 150,155 8,53 -11,131 -79,141 -39,5 -149,-61 -149,-12 12,8 65,86 74,104 18,36 -1,52 6,85 8,38 111,81 142,113 26,28 28,79 55,100 61,49 -119,59 -147,68 -77,25 -133,111 -167,179 -5,46 -53,57 -68,95 -30,79 24,93 -64,152 -27,18 -14,56 -37,76 -20,18 -43,46 -58,67 4,14 14,28 25,38 0,64 6,75 -33,136 -67,102 -185,155 -249,249l0 0c-99,-33 -388,-111 -423,-182 -35,-72 -33,-98 -95,-156 -63,-59 -224,-200 -307,-197 -36,1 -80,52 -114,35 -109,-55 -189,-83 -212,81 -47,24 -109,-47 -129,-84 -6,-11 -10,-20 -13,-29 -62,-72 -183,-111 -276,-111 -33,0 -66,-11 -100,-11 -31,0 -59,97 -64,127 -22,112 79,181 93,289 11,80 -46,80 -89,140 -31,42 -20,74 -20,123 31,87 -95,125 -167,118 -34,-3 -64,-23 -97,-32 -69,-21 -143,-1 -213,-35 -96,-45 -125,-165 -198,-234 -34,-32 -74,-55 -110,-86 -26,-23 -58,-26 -83,-45l-230 -102 0 0c5,-32 11,-64 6,-100 -59,-34 -117,-28 -184,-36 -4,-5 -10,-12 -14,-17 -4,-46 54,-120 37,-165 3,-7 1,-16 0,-23 -45,15 -181,142 -207,61 -24,-75 55,-135 55,-211 -40,-34 -72,-34 -123,-53 -38,-14 -77,-34 -77,-81 0,-63 119,-100 119,-134 -74,-50 4,-99 60,-109 41,-7 140,15 114,-45 0,-77 -144,-45 -187,-54 -69,-16 -101,-96 -83,-160 19,-24 58,-40 89,-40 25,0 45,19 68,17l7 -4 0 0c39,5 64,32 110,32 26,0 57,-18 66,-42 11,-28 -17,-77 -12,-111 3,-19 14,-30 26,-44 15,-17 28,-39 45,-55 37,-27 174,-107 231,-121 108,-26 314,-49 255,-210 -17,-46 -82,-113 6,-142 75,-24 147,-51 218,-84l55 -39 0 0c178,54 447,29 543,-152 26,-19 45,-57 81,-55l87 5c37,-18 50,-54 80,-74 45,-30 98,-41 153,-41 21,8 32,12 48,27 6,33 38,88 56,117 123,49 225,-140 274,-224 122,-212 202,-260 441,-300 111,-19 234,-43 332,-99 86,-49 193,-160 291,-196 57,-11 103,-17 141,-62 33,-40 58,-46 110,-37 111,19 159,-77 226,-140 130,-122 348,2 480,-150 0,-51 -12,-42 -33,-80l-5 -2c-3,-6 -14,-11 -19,-14l0 0c46,-75 98,-157 86,-247 -14,-103 62,-163 129,-227 46,-44 84,-99 130,-141 169,-156 325,-389 482,-566l0 0c60,2 161,13 176,69 24,91 14,223 64,300 42,64 -7,80 -4,142 1,18 241,284 142,284 -85,-136 -208,-83 -331,-58 -37,51 -28,216 -30,283 -2,78 25,234 -24,295 -35,0 -376,-150 -256,30 51,77 79,122 151,183 48,40 126,125 126,190 21,55 30,258 83,270 38,8 212,-37 212,8 0,27 1,99 31,109 88,27 106,-8 83,98 -17,81 118,34 155,70 0,44 -113,35 -136,60 -64,69 73,170 95,223 45,108 -75,125 -75,224 -13,55 -54,89 -91,129 -16,18 -19,109 -26,140 -7,31 -208,232 -251,232 0,-283 -311,-1 -350,-41 -40,-41 -32,-106 -106,-130 -72,-23 -104,32 -167,43 -94,16 -298,-361 -442,-246 -60,47 22,208 -15,284 -26,52 -137,122 -147,152l0 0z"/>
  <path class="fil0 str0" d="M2291 12595l160 0c290,59 335,497 562,525 103,13 218,-63 317,-51 114,13 219,245 377,150 86,-52 63,-43 160,-43 75,0 114,-57 175,-64l0 0c30,-64 -49,-265 8,-308 25,-19 44,3 67,7 42,58 181,29 209,-29 13,-28 0,-64 -10,-92 -20,-60 -18,-73 6,-131 42,-14 141,-31 153,-78 8,-34 -37,-164 -24,-177 87,0 155,51 226,-37 47,-58 64,-27 129,-11 51,12 94,24 144,0 30,-14 32,-55 55,-62 43,-14 86,18 137,-14 29,-19 72,-86 97,-94 1,-5 27,-16 31,-19 24,0 41,-4 57,13l6 140c2,53 -4,92 58,92 110,0 33,-207 154,-199 69,5 132,13 191,48 26,16 61,46 94,33 43,-16 76,-69 80,-113 5,-55 59,-19 88,-16 30,35 38,51 61,92 16,29 50,56 83,45 34,-10 89,-149 97,-185l0 0c0,-42 -30,-61 -33,-85 -14,-10 -44,-111 -13,-111 38,0 109,78 128,67 44,-27 2,-208 -5,-248 -12,-72 30,-128 79,-177 42,0 38,100 88,97 60,-5 57,-117 82,-135 3,-23 103,-17 125,-32 52,-37 54,-11 67,44 16,69 -57,182 2,224 45,32 93,-59 100,-91 15,-62 -35,-197 -6,-235l0 0 -67 -204c-5,-58 25,-81 37,-130 9,-35 -10,-65 -15,-98 -16,-96 137,-70 -1,-190 -49,-43 -32,-85 20,-111 77,-39 38,-112 -16,-150 -2,-16 9,-118 -8,-118 -6,8 -179,45 -199,45 -63,0 -93,-69 -129,-104 -76,0 -151,80 -219,80 -15,-20 -18,-119 -15,-149 0,-119 83,-214 -99,-220 -182,-6 -82,-86 -88,-220 -2,-49 -189,-66 -230,-69 -17,-2 -131,-5 -137,-17 -23,-6 32,-132 17,-162 -59,-15 -139,0 -195,-24 -92,-39 -123,23 -197,23 -42,0 -17,-90 -17,-113 0,-99 24,-102 68,-175 37,-21 170,-95 105,-147 -49,0 -195,4 -218,-45 -38,-82 -143,-56 -151,-153 -4,-46 -50,-112 -2,-148 66,-50 201,-54 280,-38 110,22 270,113 323,-26 61,-160 -36,-226 155,-317 93,-45 155,45 238,45 67,0 109,-114 101,-168 0,-86 -52,-193 45,-234 89,-38 256,45 316,-31 38,-49 9,-109 36,-156 22,-5 47,-5 69,-12l0 0c0,-61 8,-124 18,-184 8,-48 48,-110 42,-155 -82,-47 -238,-50 -296,-98 0,-52 8,-100 2,-153l10 -150 0 0c-61,-4 -131,-37 -186,-11 -95,45 86,166 52,257 -24,56 -97,28 -143,43 -100,33 -98,194 -224,162 -111,-28 13,-183 -60,-155 -73,28 -167,-17 -186,-93 -16,-66 -120,-22 -120,-73 0,-39 -1,-117 -21,-148 -20,-30 -62,51 -97,62 -168,56 -128,-11 -206,-95 -39,-42 -78,94 -131,94 -109,0 -78,-145 -189,-45 -70,63 109,148 157,190 0,95 -211,57 -260,149 -53,101 83,351 64,370 -76,76 -118,-2 -186,-25 -37,-13 -191,47 -234,61 -88,38 -187,35 -278,85l-203 111c-6,49 -12,97 -43,138 -17,23 -99,77 -99,98 43,38 70,74 58,93 -44,68 -92,63 -160,84 -72,22 -109,141 -217,107 -97,-30 6,-143 -41,-148 -15,-2 -28,0 -38,4 -18,-114 -3,-129 -112,-115 -51,7 -156,6 -175,-60 -93,-34 -40,72 -124,143 -44,37 -128,70 -160,107 -23,27 -84,237 -144,210 -84,-37 81,-215 -109,-164 -47,21 -45,61 -65,102 12,37 -7,126 -61,113 -23,-5 -20,-52 -20,-70 0,-29 -9,-41 -15,-64 -11,-7 -27,-26 -37,-36 -13,-13 -69,-65 -87,-42 -15,20 17,77 26,95 18,36 9,96 0,132 -11,42 -30,66 -30,115 18,18 45,-10 55,-24 19,-26 32,-44 55,-67 3,1 20,3 25,6 0,25 -14,90 -6,110 30,73 178,-53 135,72 -20,58 -58,133 18,152 37,9 66,5 66,55 0,56 -85,87 -107,137 -14,32 -22,48 -12,82 12,42 49,72 58,111 3,45 -19,87 -11,132 24,133 112,-95 211,-20 50,38 100,115 150,144 51,29 112,-17 160,2 60,24 124,78 126,146 3,87 -56,122 -72,190 -73,62 114,267 -29,308 -39,11 -122,-62 -188,-51 -67,11 -103,73 -148,118 -49,36 -240,190 -52,154 120,-23 203,-130 329,-47 5,37 -28,97 -57,124 -25,24 -36,92 -38,127 -5,74 -107,196 -173,229 -70,35 -33,70 -11,123 11,25 39,120 -4,131 -30,8 -43,-66 -56,-84 -42,-57 -58,-105 -97,-31 -15,28 -89,98 -77,125 71,20 237,-10 137,103 -16,3 -43,-5 -56,5 -6,23 31,63 37,91 17,75 -24,122 -100,113 -62,-7 -120,-8 -129,68 -83,83 -80,-74 -159,-37 -33,16 -21,63 -51,80 -13,7 -79,55 -88,18 -16,-16 -6,-84 -18,-109 -57,-37 -82,5 -111,58 -32,60 -67,59 -128,64 -116,11 -60,153 -106,214 -37,49 -145,-19 -178,14 0,83 94,76 132,123l0 0c19,10 34,18 56,18 24,0 24,-13 36,-26 0,-36 16,-76 27,-110 26,-76 92,-48 131,-1 13,15 26,43 42,55 23,17 60,14 87,14 22,3 56,2 72,21 66,22 31,217 15,262 -14,17 -23,47 -31,67 -25,65 82,121 89,195l0 0z"/>
  <path class="fil0 str0" d="M6851 11336c-29,38 21,173 6,235 -7,32 -56,123 -100,91 -59,-43 14,-155 -2,-224 -13,-55 -14,-81 -67,-44 -22,16 -122,10 -125,32 -25,18 -22,130 -82,135 -50,4 -46,-97 -88,-97 -49,49 -91,105 -79,177 7,40 49,221 5,248 -19,11 -90,-67 -128,-67 -31,0 -1,101 13,111 3,24 33,42 33,85l0 0c97,-5 175,51 195,142 19,87 84,79 148,36 57,-39 49,-80 131,-57 53,15 78,-31 119,-49 65,-29 120,-3 179,-57 20,-19 130,-86 156,-60 0,49 3,88 -6,141 -15,93 -7,97 92,97 18,2 90,-12 93,7 67,34 -131,235 -141,265 -16,52 -7,111 -24,165 -18,60 -85,54 -132,66 -16,66 13,194 13,270 0,75 13,178 -1,249 -17,9 -41,6 -61,6 -24,1 -107,-5 -122,10 -15,15 -8,188 -27,233 -21,48 -116,131 -168,136 -59,82 22,225 -13,325 -18,52 -45,104 -17,155 28,50 6,98 32,149 46,51 39,67 21,124 -4,14 -5,28 -5,43l0 0c24,64 60,127 75,192 24,103 177,28 188,-37 14,-83 58,-172 68,-251 4,-2 6,-2 11,-2 69,69 117,110 137,214 10,51 79,364 172,286 32,-27 113,-78 154,-78 90,0 114,63 176,107 26,13 40,36 59,57 17,40 6,80 17,119l0 0c39,5 64,32 110,32 26,0 57,-18 66,-42 11,-28 -17,-77 -12,-111 3,-19 14,-30 26,-44 15,-17 28,-39 45,-55 37,-27 174,-107 231,-121 108,-26 314,-49 255,-210 -17,-46 -82,-113 6,-142 75,-24 147,-51 218,-84l55 -39 0 0c-4,-9 -6,-18 -14,-24 -25,-102 -148,-168 -180,-272 -18,-60 -27,-121 -42,-181 -13,-74 -56,-204 -43,-271 27,-17 53,-55 80,-73 9,-66 -66,-170 -117,-210 -44,-35 -42,-109 -86,-135 -82,-49 -163,-14 -163,-142 0,-53 15,-71 66,-84 58,-15 73,-27 123,-64 58,-58 39,-186 68,-265 34,-17 155,-123 111,-167 -25,-25 -56,-33 -64,-70 -5,-22 4,-84 -8,-99 0,-51 -54,-77 -36,-148 53,-38 100,-119 161,-141 60,-21 47,105 52,131 15,74 180,209 253,227 33,8 117,10 120,-42 3,-40 -49,-27 -74,-30 -46,-4 -99,-88 -70,-127 67,-90 194,-14 247,-131 50,-112 -84,-135 -154,-154 -29,-7 -58,-36 -87,-48 -45,-19 -89,-2 -136,-2 -165,0 -340,-193 -450,-300l0 0c-31,9 -57,1 -87,5 -30,4 -46,17 -66,39 -3,31 -25,64 -39,91 -21,11 -28,17 -55,17 -27,0 -89,-3 -113,-14 -65,-5 -129,-35 -194,-39 -67,-4 -128,14 -192,14 -121,0 -222,9 -340,-20 -38,-10 -54,15 -86,29 -73,30 -104,-120 -104,-168 -18,-6 -55,-24 -76,-24 -15,20 5,45 -31,60 -23,9 -56,-30 -80,-35l0 0z"/>
  <path class="fil0 str0" d="M6237 12018c-8,36 -63,175 -97,185 -33,10 -68,-17 -83,-45 -23,-41 -31,-57 -61,-92 -29,-4 -83,-40 -88,16 -4,45 -37,97 -80,113 -33,13 -68,-18 -94,-33 -58,-35 -122,-43 -191,-48 -121,-8 -44,199 -154,199 -63,0 -56,-39 -58,-92l-6 -140c-17,-17 -33,-13 -57,-13 -4,3 -30,14 -31,19 -25,8 -67,76 -97,94 -51,32 -94,1 -137,14 -23,7 -25,48 -55,62 -51,24 -93,12 -144,0 -65,-16 -82,-47 -129,11 -71,88 -139,37 -226,37 -13,13 32,142 24,177 -11,47 -111,63 -153,78 -24,58 -26,71 -6,131 9,28 23,64 10,92 -27,58 -167,87 -209,29 -23,-4 -42,-26 -67,-7 -57,43 22,243 -8,308l-7 1c59,4 160,-7 219,22 24,12 30,38 50,53 26,18 106,2 113,27 16,56 -15,92 35,142 34,34 136,66 141,119 17,12 37,45 58,62 35,28 45,54 70,87 0,79 -53,115 -105,164 -54,50 -36,67 -52,132 -19,75 -189,142 -189,217 0,16 62,84 75,98 28,31 88,44 126,55 19,34 -8,59 -8,97l106 119c47,0 57,-32 98,-45 82,-27 171,-13 255,-7 97,7 145,-8 237,-26l0 0c11,-24 -6,-39 18,-61 12,-11 34,-8 49,-11 96,-15 107,-104 137,-175 17,-40 39,-161 98,-161 16,22 63,52 86,70 41,33 115,137 161,159 41,19 97,-18 142,-18 47,0 67,-1 110,-21 73,-35 169,-156 254,-156 24,40 14,113 51,147 32,30 49,59 62,100 8,23 10,61 25,80 0,39 70,34 97,30 47,-7 104,-2 150,1l0 0c0,-15 1,-29 5,-43 17,-57 25,-73 -21,-124 -26,-51 -5,-100 -32,-149 -29,-51 -2,-103 17,-155 35,-100 -45,-242 13,-325 52,-5 147,-88 168,-136 20,-44 12,-218 27,-233 14,-14 97,-9 122,-10 20,0 44,3 61,-6 14,-71 1,-174 1,-249 0,-75 -29,-204 -13,-270 47,-12 114,-6 132,-66 16,-54 8,-113 24,-165 9,-30 208,-231 141,-265 -3,-19 -75,-5 -93,-7 -99,0 -107,-4 -92,-97 9,-53 6,-92 6,-141 -26,-26 -136,41 -156,60 -58,55 -114,28 -179,57 -41,18 -66,64 -119,49 -82,-23 -74,19 -131,57 -63,43 -129,51 -148,-36 -20,-91 -98,-147 -195,-142l0 0z"/>
  <path class="fil0 str0" d="M6657 7798c-22,6 -47,7 -69,12 -27,47 3,108 -36,156 -60,76 -227,-7 -316,31 -97,41 -45,148 -45,234 7,54 -34,168 -101,168 -83,0 -145,-90 -238,-45 -191,92 -94,157 -155,317 -53,140 -213,48 -323,26 -79,-16 -214,-12 -280,38 -47,36 -1,102 2,148 8,97 113,70 151,153 23,49 169,45 218,45 65,52 -68,126 -105,147 -44,73 -68,77 -68,175 0,23 -26,113 17,113 73,0 105,-61 197,-23 56,24 137,9 195,24 15,30 -40,157 -17,162 6,11 120,15 137,17 41,4 228,20 230,69 6,133 -94,214 88,220 181,6 99,101 99,220 -3,30 1,129 15,149 68,0 143,-80 219,-80 35,35 65,104 129,104 20,0 193,-37 199,-45 17,0 6,102 8,118 54,38 93,112 16,150 -53,26 -70,68 -20,111 138,120 -14,93 1,190 5,33 24,63 15,98 -12,49 -42,73 -37,130l67 204 0 0c24,5 57,44 80,35 36,-15 16,-39 31,-60 21,0 58,18 76,24 0,48 31,199 104,168 32,-13 48,-38 86,-29 118,29 218,20 340,20 64,0 125,-19 192,-14 65,4 129,34 194,39 24,11 86,14 113,14 27,0 34,-6 55,-17 15,-27 36,-59 39,-91 19,-22 35,-36 66,-39 30,-4 56,5 87,-5l0 0c6,-37 11,-72 -20,-97 -24,-19 -39,14 -57,-29 -16,-35 -63,14 -92,16 -26,2 -93,-7 -113,-23 0,-15 101,-85 119,-91 47,-14 89,4 138,-7 115,-26 197,-40 311,-10 67,18 48,46 61,107 17,80 113,191 200,121 67,-54 37,-232 37,-315 0,-71 -3,-146 8,-215 34,-8 334,-39 341,-10 73,44 -17,180 -30,228 -22,84 -8,150 79,183 140,54 225,86 312,-60 32,-54 256,-194 274,-68 71,51 72,106 188,106l0 0c0,-44 -21,-73 1,-117 35,0 56,33 97,31 28,-1 62,-17 68,-47 11,-59 -76,-73 -95,-124 -18,-47 -11,-144 -11,-193 6,-22 6,-127 -11,-146 -35,-38 -117,-22 -156,-51 -5,-4 -12,-15 -2,-19 30,-12 78,-12 111,-12 19,0 144,7 137,5 0,-35 -96,-96 -123,-110 -68,-35 -110,79 -175,50 -41,-18 -9,-74 -31,-104 -43,-59 -56,-82 -35,-158l0 0c-49,-47 -197,-70 -263,-70 -41,0 -92,9 -132,0 -130,-31 -93,-63 -195,-105 -46,-19 -100,-47 -100,-105 0,-79 -10,-145 -66,-208 -150,-150 -394,-94 -567,-181 -43,-69 -163,-113 -237,-100 -60,10 -123,41 -184,27 -41,-41 -58,-63 -108,-98 -147,-101 -291,-202 -441,-301 -77,-68 -185,-47 -241,38 -90,138 -118,1 -122,-88 -10,-294 -370,345 -418,45 -11,-66 41,-80 49,-125 76,-55 -1,-124 38,-173 46,-58 143,-50 138,-152 -3,-58 -61,-31 -73,-63 -13,-37 39,-111 8,-144 -69,-76 -68,-60 -68,-164 5,-3 10,-37 11,-43 0,-20 -39,-44 -46,-68 -6,-20 31,-39 45,-45 51,-24 98,-46 144,-75 8,-28 23,-35 5,-68 -15,-27 -33,-43 -52,-67 -43,-51 -81,-82 -150,-91 -45,-6 -119,-15 -162,-4l0 0z"/>
  <path class="fil0 str0" d="M4007 22343l152 5c74,15 174,-4 231,-57 16,-15 14,-62 31,-87 28,-41 52,-52 99,-38 8,13 70,54 87,55 93,5 47,-142 110,-159 20,-5 58,46 69,60 28,35 65,64 111,73 60,0 143,-11 193,18 1,6 8,19 12,23 0,37 41,79 79,69 53,-14 76,-64 120,-90 31,-17 69,-54 97,-76 86,-71 204,-95 298,-154l0 0c-75,-123 -161,-252 -243,-386 -26,-42 -35,-81 -88,-94 -57,-14 -66,-46 -108,-73 -16,-66 -69,-109 -18,-179 43,-59 148,-17 182,-99 14,-36 16,-36 20,-61 10,-58 34,-129 25,-186 -6,-37 -18,-43 -45,-67l0 0c-150,-41 -273,-291 -356,-412 -36,-52 -4,-94 8,-146 24,-99 -58,-171 -48,-304 2,-30 -26,-37 -26,-64 0,-103 -4,-83 -80,-159 -80,-80 -312,-242 -312,-359 0,-105 -6,-190 -126,-222 -64,-17 -80,-15 -139,-49 -3,-22 -34,-61 -54,-70 -85,-35 -128,-98 -231,-98 -58,0 -178,47 -224,13 -32,-24 -41,-64 -64,-95 -38,-49 -76,-108 -126,-146l0 0c-57,58 -15,121 -101,173 -41,25 -77,3 -118,-1 -7,-5 -31,-2 -38,-1l-66 40 0 0c28,50 62,101 75,118 69,84 122,226 122,334 16,60 -2,120 7,181 9,56 9,430 55,439 4,9 33,16 43,17 71,-6 186,2 250,31 36,16 131,62 150,88 -53,43 -160,8 -215,-10 -57,-19 -133,-31 -195,-31 0,62 43,130 43,193 0,52 27,105 38,153 18,77 46,188 26,265 -23,88 161,57 193,88 -26,20 -45,38 -69,53 -61,38 -105,119 -93,190 12,70 28,140 17,211 -36,231 145,556 145,788 37,46 72,176 97,296l0 0z"/>
  <path class="fil0 str0" d="M2291 12595l160 0c290,59 335,497 562,525 103,13 218,-63 317,-51 114,13 219,245 377,150 86,-52 63,-43 160,-43 75,0 114,-57 175,-64l-7 1c59,4 160,-7 219,22 24,12 30,38 50,53 26,18 106,2 113,27 16,56 -15,92 35,142 34,34 136,66 141,119 17,12 37,45 58,62 35,28 45,54 70,87 0,79 -53,115 -105,164 -54,50 -36,67 -52,132 -19,75 -189,142 -189,217 0,16 62,84 75,98 28,31 88,44 126,55 19,34 -8,59 -8,97l106 119c47,0 57,-32 98,-45 82,-27 171,-13 255,-7 97,7 145,-8 237,-26l0 0c16,8 50,9 60,19l4 0c40,40 26,59 4,112 -28,67 -26,197 4,263 23,52 63,93 63,153 0,37 -100,57 -126,70 -77,39 22,127 11,186 -6,31 -17,56 -26,86 -15,44 12,70 18,109 19,24 82,100 58,131 -13,18 -43,31 -62,42 -22,13 -23,44 -37,54 -4,46 -41,96 -87,107 -95,25 2,101 11,160 5,31 -6,63 0,94 6,34 23,60 30,92l0 0c-74,95 -98,166 -91,291 3,62 12,118 30,177 17,56 53,89 -11,125 -9,63 -119,43 -159,38 -37,-74 2,-195 -19,-282 -21,-7 -154,59 -157,69 -16,45 8,76 -67,76 -80,0 -117,-14 -130,72 -10,68 95,97 82,149 -53,13 -163,4 -175,69 -17,91 154,53 194,123 -5,68 64,29 76,72 8,29 -17,74 -17,105 0,38 97,117 125,141 33,28 44,91 -23,72 -120,-35 -122,3 -200,82 -64,64 82,95 82,172 -50,36 -98,191 -182,80 -44,-58 -51,11 -68,32 -22,28 -54,0 -81,-6 -58,-14 -99,49 -147,39 -39,-8 -117,-95 -167,-116 -81,-34 -117,-37 -205,-37 -31,41 -18,143 10,185 0,31 25,85 43,111 16,23 61,65 32,94 -32,6 -76,-23 -106,-33 -55,-19 -289,-99 -334,-27 -92,38 61,157 79,174 42,42 22,92 19,147 -2,36 1,71 -6,106 -13,66 51,59 56,104 34,25 -33,80 -39,103 -12,40 8,73 10,113l0 0c-57,58 -15,121 -101,173 -41,25 -77,3 -118,-1 -7,-5 -31,-2 -38,-1l-66 40 0 0c-24,-41 -44,-81 -46,-97 -106,-61 -156,-285 -200,-394 -67,-167 -112,-311 -150,-485 -22,-101 -82,-200 -72,-306 -21,-114 -30,-206 -93,-308 -50,-80 -82,-167 -95,-260 -23,-158 -121,-286 -150,-430 -22,-106 145,99 157,148l7 0c36,-84 -4,-146 -43,-229 -25,-53 -99,-201 -141,-98 -14,35 -46,162 -100,88 -42,-57 -47,-146 -74,-211 -83,-146 161,-50 224,-113 0,-4 -1,-8 -1,-12 -54,-54 -197,-8 -263,-19 -41,-7 -11,-235 -27,-291 -20,-66 -111,-88 -123,-147 -4,-23 19,-64 -21,-74 -39,-10 -85,27 -118,47 -171,101 -133,-56 -213,-136 -36,-36 -144,-76 -138,-131 43,-43 142,-83 91,-146 -50,-61 -131,-66 -167,-141 -17,-37 -15,-75 -45,-105 -4,-4 -9,-8 -14,-11l0 0 72 -93c8,-4 27,-20 36,-21 16,-23 98,20 129,11 45,-13 44,-68 72,-101 86,-102 105,72 192,39 62,-23 72,-101 128,-101 143,0 24,-104 57,-171 18,-36 68,-52 89,-91 32,-57 -5,-105 -5,-166 -1,-124 -4,-176 30,-292 48,-24 102,-129 82,-183 -19,-52 -70,-68 -111,-99 -45,-34 -154,-139 -88,-198 64,-57 184,-3 260,-47 9,-66 -19,-133 -8,-198 4,-52 -9,-91 -50,-124 -88,-71 -126,-81 -126,-204 0,-106 -61,-194 -46,-301 32,-36 66,-95 79,-142l0 0z"/>
  <path class="fil0 str0" d="M3641 18728c-1,-40 -21,-73 -10,-113 7,-23 74,-78 39,-103 -6,-44 -69,-37 -56,-104 7,-35 4,-71 6,-106 3,-54 23,-104 -19,-147 -18,-18 -171,-136 -79,-174 45,-72 279,8 334,27 30,11 74,40 106,33 29,-29 -16,-72 -32,-94 -18,-26 -43,-80 -43,-111 -28,-42 -41,-144 -10,-185 88,0 124,3 205,37 50,21 128,108 167,116 48,10 89,-53 147,-39 27,6 59,34 81,6 17,-21 24,-90 68,-32 85,111 132,-44 182,-80 0,-77 -146,-108 -82,-172 79,-79 81,-118 200,-82 67,20 56,-44 23,-72 -28,-24 -125,-103 -125,-141 0,-31 25,-76 17,-105 -12,-42 -82,-4 -76,-72 -40,-70 -211,-32 -194,-123 12,-65 123,-56 175,-69 13,-52 -93,-81 -82,-149 13,-85 50,-72 130,-72 75,0 50,-31 67,-76 4,-10 136,-76 157,-69 22,87 -18,208 19,282 40,5 149,25 159,-38 64,-36 28,-69 11,-125 -18,-59 -26,-115 -30,-177 -7,-125 16,-196 91,-291l0 0c64,-11 124,-50 192,-17 41,20 53,49 86,76 40,33 143,8 194,8 56,0 107,-5 160,8 11,44 -9,49 -31,88 -15,11 -45,40 -33,60 58,7 125,-14 120,54 -5,66 65,51 79,0 33,-125 155,16 174,80 27,92 -96,48 -100,132 -3,55 124,-14 162,24 35,35 165,153 167,198 2,38 -30,77 10,109 30,24 83,30 119,37 17,133 -20,75 -99,140 -39,31 328,303 393,254 21,-16 33,-41 56,-56 8,-5 60,-38 66,-18 13,7 14,57 11,72 -20,88 75,184 148,217l0 0c-54,58 -123,121 -138,203 -6,31 27,86 29,124 1,33 -16,72 -55,73 -59,2 -78,-71 -148,-54 -45,11 -128,173 -149,210 -6,11 56,142 68,144 88,15 192,-27 276,-6 0,173 112,224 282,172 57,-18 102,-51 157,-72 74,-28 139,91 232,-2 63,-63 291,-69 373,-36 70,28 -62,190 8,270 41,37 79,76 126,106 23,52 22,108 13,166 -11,72 -5,77 39,129 73,85 72,324 179,442 1,5 3,10 5,14l0 0c-5,2 -16,6 -20,8 -48,0 -96,5 -144,-4 -83,-14 -81,29 -131,74 -48,43 -459,104 -542,91 -104,-17 -12,130 -74,180 -44,35 -125,29 -160,-17 -38,-51 -2,-156 -24,-178 -66,0 -134,105 -192,137 -101,57 -98,-61 -170,-64 -51,-2 -84,50 -136,29 -94,0 -108,88 -168,127 -80,52 -124,3 -192,13 0,2 -1,2 -2,4 0,78 93,121 93,185 0,76 -92,126 -142,173 -66,61 -71,81 -158,58 -91,-23 -116,41 -194,68 -63,0 -91,17 -137,-32 -24,-26 -63,-48 -82,-74 -28,0 -17,115 -13,137 13,73 46,75 -24,134 -113,94 -228,96 -304,239 -14,26 -2,78 -19,94l0 0c-150,-41 -273,-291 -356,-412 -36,-52 -4,-94 8,-146 24,-99 -58,-171 -48,-304 2,-30 -26,-37 -26,-64 0,-103 -4,-83 -80,-159 -80,-80 -312,-242 -312,-359 0,-105 -6,-190 -126,-222 -64,-17 -80,-15 -139,-49 -3,-22 -34,-61 -54,-70 -85,-35 -128,-98 -231,-98 -58,0 -178,47 -224,13 -32,-24 -41,-64 -64,-95 -38,-49 -76,-108 -126,-146l0 0z"/>
  <path class="fil0 str0" d="M14111 20801c20,-50 52,-67 52,-124 -35,-35 -65,-35 -52,-94 4,-21 41,-79 27,-98 -24,-33 -125,-70 -97,-124 13,-25 40,-50 46,-76 11,-45 8,-91 13,-137 0,-151 194,-149 290,-151l0 0c-6,-26 -1,-65 10,-76 54,-54 61,-72 57,-150 -2,-58 -43,-111 -13,-171 5,-10 46,-66 31,-76 -50,-35 -217,94 -161,-7 12,-22 51,-81 49,-103 -5,-67 -196,21 -243,-43 -78,-107 -150,191 -207,13 -61,-191 -115,25 -237,13 -65,-35 -48,-143 -79,-205 -52,-107 -90,65 -101,94 -15,39 -81,8 -87,-31 -9,-55 -1,-121 -14,-173 -61,-9 -117,27 -137,84 -20,56 108,72 48,124 -32,27 -95,-1 -123,21 -75,60 44,92 89,99 107,16 -30,113 10,166 23,31 63,52 55,99 -9,53 -98,11 -136,13 -33,1 -52,43 -89,21 -21,-12 -39,-55 -63,-56 -64,-4 -75,166 -125,166 -80,0 -91,-147 -106,-191 -133,0 -64,155 -128,184 -42,19 -87,-202 -82,-235 6,-42 -16,-143 4,-156 32,-22 56,-49 83,-76 73,-73 23,-175 136,-214 69,-24 34,-55 24,-97 -43,-21 -241,-97 -207,-147 12,-29 68,-65 37,-95 -27,-27 -72,-41 -105,-61 -27,-16 -219,-111 -157,-137 45,-19 111,-33 151,-60 69,-45 6,-107 -50,-124 -13,-4 -22,-9 -29,-14l0 0 -72 34c-84,46 -6,135 -126,128 -73,-4 -101,85 -117,147 -32,8 -172,18 -172,58 56,32 104,107 42,153 -16,12 -105,74 -100,88 49,148 -1,75 -107,106 -38,11 -66,40 -106,50l-119 31c0,50 148,172 161,236 44,77 36,159 -27,222 -24,24 -67,41 -101,41 -56,0 -50,-66 -67,-109 -31,-82 -91,84 -116,122 -31,48 41,205 -18,245 -3,20 -38,32 -56,32 -29,0 -35,-79 -42,-103 -9,-34 -98,-125 -129,-101 -52,39 -141,30 -181,70 0,31 43,59 19,97 -19,30 -47,83 -82,99 -11,35 -42,63 -73,82 -26,16 -73,2 -89,14 0,44 -48,145 -75,180 -36,45 -106,27 -157,45 -48,17 -76,43 -131,31 -62,-13 -118,-11 -181,-11 -62,0 -101,26 -141,74l0 0 38 105 0 0c36,15 55,37 98,43 38,5 57,17 86,36 0,30 -14,55 -14,88 0,30 21,45 29,70 11,35 6,63 30,94 20,26 63,44 63,79 -20,33 -56,57 -69,95 -28,79 -53,150 -112,211 -46,48 -212,30 -212,49 55,39 80,326 80,396 -18,103 81,8 27,116 -8,15 -41,64 -8,70 28,5 73,-27 100,-12 89,49 115,230 241,242 96,9 41,75 41,158 0,40 95,73 125,98 42,34 70,-13 113,-13 36,0 72,21 116,21 63,0 131,0 192,-13 67,-14 52,-3 111,12 0,53 -98,94 -98,168 -13,74 57,87 95,121 14,0 31,6 45,7l0 0c36,-32 56,-54 74,-97 7,-17 37,-100 51,-100 0,20 82,107 104,111 66,12 130,-8 197,-8 39,0 193,136 234,167 58,44 36,131 91,154 31,13 97,42 104,78 6,32 -12,59 -12,90 0,42 82,58 102,101 24,51 4,114 22,167 17,56 116,169 170,190 46,18 99,33 149,33 46,0 92,-12 133,-12 14,18 -5,54 15,75 16,16 55,-7 77,-7 24,0 24,9 36,25 18,25 64,0 88,11 23,10 34,31 52,44l0 0c72,-17 150,-36 213,-73 43,-25 39,-59 30,-103 -15,-68 -10,-126 -7,-195 1,-20 11,-64 -6,-79 -19,-17 -68,-4 -87,-25 -32,-4 -36,-47 -27,-72 28,-57 100,-61 147,-87 15,-25 40,-71 26,-101 -12,-27 -45,-35 -62,-57 -45,-60 27,-82 11,-147 -5,-20 -37,-64 -54,-75 -15,-10 -104,55 -116,70 -15,2 -16,8 -29,-5 0,-86 64,-115 -42,-178 -73,-43 -40,-162 -37,-227 3,-65 33,-101 83,-138 64,-70 103,-57 126,-162 2,-11 7,-24 13,-38l0 0c19,-41 53,-82 95,-46 139,120 93,-184 104,-226 59,-15 160,-27 170,-105 5,-40 -11,-186 67,-129 169,125 219,-74 377,-97 36,-51 70,-99 66,-167 0,-44 1,-57 36,-85 17,-14 50,-47 50,-69 0,-68 -101,-88 -101,-160 20,-20 66,-12 93,-35 31,-26 34,-76 37,-113l0 0z"/>
  <path class="fil0 str0" d="M10132 20459l38 105 0 0c-10,19 -31,52 -31,74 -13,17 -19,23 -36,36 -80,0 -103,-148 -178,-39 -26,37 -71,134 -128,84 -33,-29 -87,-50 -124,-20 -50,40 -1,146 -108,128 -57,-10 -157,-37 -197,17 -96,109 16,302 -212,294 -54,-2 -59,15 -94,48 -30,28 -80,-72 -118,-47 -31,0 -42,36 -58,55 -3,28 -41,62 -46,98 -5,36 18,67 30,99 10,7 23,27 31,37 5,39 25,88 -6,129 0,32 35,63 35,110 -55,64 -198,-25 -278,-25 -74,0 -297,-24 -346,29 -44,47 -89,51 -125,-13 -46,-23 -104,-29 -157,-29 -14,11 -32,108 -32,129 -70,106 -165,42 -256,134l-13 241c-4,81 -46,147 -46,238 -9,45 26,99 48,135 23,38 8,49 8,85 -33,41 -67,4 -104,-13 -52,-25 -97,-29 -155,-27 -126,3 -212,73 -255,186 -16,41 -5,112 -33,146 -58,69 -86,131 -182,158l0 0c-3,-4 -4,-6 -8,-10 -1,-9 -17,-48 -23,-55 0,-100 -46,-168 -50,-265 0,-72 4,-120 -46,-171 -43,-43 -17,-111 -29,-167 -9,-46 -58,-70 -95,-94 -49,-31 -150,-49 -185,-84 -24,-24 -42,-35 -77,-35 -45,0 -48,10 -76,-27 0,-80 25,-160 -64,-191 -59,-21 -215,-44 -260,13 -31,39 -41,106 -57,153 -21,19 -63,37 -91,42 -22,4 -47,3 -69,4 -46,2 -96,24 -124,-26 -12,-21 -26,-46 -33,-67 -9,-25 -2,-47 -19,-72l0 0c-75,-123 -161,-252 -243,-386 -26,-42 -35,-81 -88,-94 -57,-14 -66,-46 -108,-73 -16,-66 -69,-109 -18,-179 43,-59 148,-17 182,-99 14,-36 16,-36 20,-61 10,-58 34,-129 25,-186 -6,-37 -18,-43 -45,-67l0 0c17,-16 5,-68 19,-94 76,-143 191,-144 304,-239 70,-59 37,-61 24,-134 -4,-22 -15,-137 13,-137 19,26 58,48 82,74 46,49 74,32 137,32 78,-27 104,-91 194,-68 87,22 93,3 158,-58 50,-47 142,-97 142,-173 0,-64 -93,-107 -93,-185 2,-2 2,-2 2,-4 68,-10 112,39 192,-13 60,-39 74,-127 168,-127 52,21 85,-31 136,-29 73,4 69,121 170,64 58,-33 126,-137 192,-137 22,22 -14,127 24,178 34,46 116,52 160,17 62,-50 -30,-197 74,-180 83,13 495,-48 542,-91 50,-45 48,-88 131,-74 49,8 96,4 144,4 5,-3 16,-6 20,-8l0 0c47,0 275,18 299,-23 68,-31 31,-111 60,-152 36,-13 76,3 116,-12 43,-15 67,-81 97,-115l0 0c78,14 156,28 222,78 67,51 41,105 54,175 40,40 62,48 120,54 45,4 53,40 74,68 0,85 -34,179 18,248 38,50 121,41 175,57 95,29 179,222 241,298 0,59 -12,138 46,174 48,30 121,13 176,13 31,24 33,70 33,107 5,6 6,13 11,19l35 10 0 0z"/>
  <path class="fil0 str0" d="M12495 18395c-38,-31 5,-86 -7,-136 -2,0 -2,-1 -4,-1 -8,-23 -119,-20 -141,-23 -57,-7 -49,-50 -49,-100 48,-12 131,16 148,-53 20,-82 62,-69 116,-18 43,41 65,51 120,23 41,-21 72,-123 91,-16 16,90 19,227 18,326l-1 100c0,132 130,37 198,92 95,78 148,-43 210,80 25,51 41,110 112,95 102,-20 135,-40 243,-23 72,12 94,-54 155,-66 62,-12 41,100 97,72 53,-27 51,-113 123,-67 62,40 22,82 50,131 31,4 68,1 60,38 -6,25 -45,60 -31,80 50,68 89,10 89,111 -61,43 -96,87 -23,125 50,27 138,-22 159,30 26,65 81,-2 118,-17 69,-27 -17,-64 -41,-86 -95,-90 -19,-81 48,-143 91,-85 -161,-109 -200,-129 -39,-19 56,-109 33,-135 -29,-32 -169,15 -174,-45 -8,-96 86,-116 130,-181 14,-38 132,-145 106,-174 -45,-51 -165,71 -226,50 -15,-61 49,-90 101,-90 91,0 13,-100 -5,-140 -7,-16 14,-26 19,-18 46,0 107,31 153,42 50,12 115,-1 170,7 61,9 75,40 125,60 78,30 100,-40 85,-101 -20,-81 -103,-117 -99,-211 4,-86 154,-152 15,-238 -59,-37 -98,28 -145,14 -10,-41 3,-92 -45,-112 -67,-28 -59,-63 -99,-116 -69,-92 -143,142 -143,197 0,72 62,89 108,128 11,9 45,210 36,234 -70,184 -166,-93 -179,-148 -24,-101 -90,-210 -206,-199 -37,4 -72,1 -95,-31 -57,-79 55,-150 -87,-172 -15,10 -53,5 -74,16l-100 53c-89,47 -114,-7 -188,-45 -123,-64 -226,215 -236,304 -8,71 10,192 -100,162 -90,-24 -125,-171 -249,-136 -111,32 -111,11 -216,-2 -281,-36 -53,-124 -88,-269 -42,0 -147,8 -160,-47 -21,-88 -64,35 -88,-76 0,-38 -23,-64 1,-103 24,-38 65,-62 88,-101 50,-83 176,37 176,-61 0,-37 -42,-85 -15,-106 30,-25 147,-98 116,-140 -42,-57 -182,-89 -247,-64 -44,17 -101,94 -137,94 -27,-108 -74,-200 -157,-284 -28,-28 -91,-5 -132,-16 -63,-16 -59,-111 -50,-158 -13,-46 -70,-87 -73,-134 -2,-47 34,-90 36,-140 4,-112 110,-178 114,-289 3,-68 -38,-129 -38,-187 88,-44 168,-25 218,-137 19,-42 -10,-50 -12,-86 -2,-52 28,-50 48,-90 35,-79 101,-410 -18,-425l-194 -24c-70,-9 -150,-64 -216,-64l0 0c-94,-28 44,-130 -4,-196 -16,-22 -185,102 -207,124 -65,65 114,134 150,155 8,53 -11,131 -79,141 -39,5 -149,-61 -149,-12 12,8 65,86 74,104 18,36 -1,52 6,85 8,38 111,81 142,113 26,28 28,79 55,100 61,49 -119,59 -147,68 -77,25 -133,111 -167,179 -5,46 -53,57 -68,95 -30,79 24,93 -64,152 -27,18 -14,56 -37,76 -20,18 -43,46 -58,67 4,14 14,28 25,38 0,64 6,75 -33,136 -67,102 -185,155 -249,249l0 0c-23,34 -25,82 -55,110 -39,37 -79,19 -128,43 -6,6 -8,10 -14,12l-142 185c-68,89 -125,76 -236,76 -121,0 -97,1 -186,68 -49,37 -110,83 -170,94 -118,23 -141,-152 -275,-164 -90,-8 -134,-60 -232,-30 -105,32 -87,218 -49,298 28,60 -30,123 -73,159 -88,74 -45,90 -80,178 16,178 -112,151 -209,247 -25,25 26,108 26,140 0,87 -74,85 -91,143 -91,42 -98,172 -17,222 39,24 55,66 48,113 -7,44 -3,116 -17,156 -3,30 -28,56 -30,86 -3,46 10,39 32,70 33,7 77,23 88,60 11,36 -12,53 -36,75 -39,36 -85,66 -126,101 -36,31 -28,105 -31,148l0 0c78,14 156,28 222,78 67,51 41,105 54,175 40,40 62,48 120,54 45,4 53,40 74,68 0,85 -34,179 18,248 38,50 121,41 175,57 95,29 179,222 241,298 0,59 -12,138 46,174 48,30 121,13 176,13 31,24 33,70 33,107 5,6 6,13 11,19l35 10 0 0c39,-48 79,-74 141,-74 63,0 119,-2 181,11 55,12 83,-14 131,-31 52,-18 122,0 157,-45 28,-35 75,-136 75,-180 16,-12 63,2 89,-14 31,-19 62,-47 73,-82 35,-16 63,-69 82,-99 24,-38 -19,-66 -19,-97 40,-40 129,-31 181,-70 31,-23 119,68 129,101 6,23 12,103 42,103 18,0 53,-12 56,-32 59,-39 -13,-197 18,-245 24,-38 84,-204 116,-122 16,43 11,109 67,109 34,0 77,-16 101,-41 63,-63 72,-145 27,-222 -13,-64 -161,-186 -161,-236l119 -31c41,-11 68,-39 106,-50 106,-31 157,42 107,-106 -5,-15 84,-76 100,-88 62,-46 15,-121 -42,-153 0,-40 140,-51 172,-58 15,-62 44,-151 117,-147 120,6 42,-83 126,-128l72 -34 0 0z"/>
  <path class="fil0 str0" d="M9153 26719l199 -181c19,-7 21,-28 36,-36 12,-97 -9,-167 -33,-264 -19,-76 -38,-136 -88,-195 -69,-81 -143,-138 -204,-227 -73,-106 -58,-147 -200,-147 -90,16 -56,-97 -64,-149 -7,-47 -98,-28 -98,-73 0,-125 14,-130 -116,-173 -109,-36 -182,-99 -272,-164 0,-66 13,-147 88,-177 112,-45 132,-120 141,-229 11,-57 75,-80 89,-140 6,-23 -4,-55 5,-76 18,-45 86,-82 124,-107l17 -14 0 0c-25,-60 -112,-67 -142,-7 -19,11 -23,22 -46,31 -124,47 -58,-133 -56,-186 3,-68 -55,-112 -49,-184 38,-49 88,-86 133,-131 0,-35 -55,-63 -81,-82 -37,-28 -71,-65 -86,-110 -29,-90 161,-121 118,-234 -20,-52 -95,-71 -139,-94 -29,-15 -52,-33 -85,-42l-110 17c-42,38 -8,119 0,162 12,61 -33,85 -46,136 -115,82 81,185 46,294 -43,135 -249,34 -291,-50 -130,-52 -120,136 -217,132 -101,-4 -109,-127 -219,-127 -67,0 -116,30 -178,36l0 0 -4 156c-7,75 53,84 69,144 9,34 6,105 -2,140 -22,93 -107,172 -198,199 -54,17 -107,-83 -149,-27 -69,90 -100,130 -204,86 -77,-32 -190,265 -228,68 -9,-46 13,-103 6,-156 -63,-36 -92,-78 -154,4l-5 68 -1 -1c48,48 -16,189 -88,192 -76,3 -122,-15 -137,76 -8,47 -14,112 24,149 36,36 69,38 110,64 35,23 34,151 42,193 10,58 80,111 86,161 48,40 47,8 104,-4 70,-14 59,5 110,33 93,97 143,239 209,357 70,127 90,145 238,172 89,16 122,44 160,125 30,65 66,75 131,51 68,-25 93,115 181,117 43,1 234,-50 244,31 17,12 45,188 45,211 0,80 97,233 167,271 85,46 193,27 284,58 182,63 304,73 479,-14 66,-33 238,-136 305,-136l0 0z"/>
  <path class="fil0 str0" d="M6463 24610l5 -68c62,-81 90,-40 154,-4 8,53 -15,110 -6,156 38,197 151,-100 228,-68 104,44 135,4 204,-86 42,-56 95,44 149,27 90,-28 176,-106 198,-199 8,-34 11,-105 2,-140 -16,-61 -76,-69 -69,-144l4 -156 0 0c-33,-25 -118,-42 -111,-93 40,-24 126,-7 151,-44 59,-86 -6,-132 -54,-198 -32,-44 -70,-73 -75,-131 -4,-49 -8,-65 5,-113 12,-48 57,-134 5,-177 -60,-49 -146,26 -219,-7 -21,-24 -33,-58 -33,-90l3 -39 0 0c-3,-4 -4,-6 -8,-10 -1,-9 -17,-48 -23,-55 0,-100 -46,-168 -50,-265 0,-72 4,-120 -46,-171 -43,-43 -17,-111 -29,-167 -9,-46 -58,-70 -95,-94 -49,-31 -150,-49 -185,-84 -24,-24 -42,-35 -77,-35 -45,0 -48,10 -76,-27 0,-80 25,-160 -64,-191 -59,-21 -215,-44 -260,13 -31,39 -41,106 -57,153 -21,19 -63,37 -91,42 -22,4 -47,3 -69,4 -46,2 -96,24 -124,-26 -12,-21 -26,-46 -33,-67 -9,-25 -2,-47 -19,-72l0 0c-94,59 -212,83 -298,154 -28,23 -66,59 -97,76 -45,25 -68,76 -120,90 -38,10 -79,-32 -79,-69 -4,-4 -11,-16 -12,-23 -50,-29 -134,-18 -193,-18 -46,-9 -83,-37 -111,-73 -11,-14 -49,-65 -69,-60 -62,17 -17,164 -110,159 -17,-1 -79,-41 -87,-55 -47,-13 -71,-3 -99,38 -17,25 -15,72 -31,87 -57,53 -157,72 -231,57l-152 -5 0 0c17,81 30,156 36,198 50,341 121,584 250,895 -3,39 11,86 21,130l0 0 141 -5c27,-2 62,-24 79,-44 35,-42 104,-30 151,-30 50,0 83,-7 130,-19 24,-6 43,-27 63,-7 93,93 -95,94 -85,167 24,17 62,14 80,35 19,21 -35,106 45,74 60,-24 83,-19 136,4 6,24 -8,22 -11,42 -32,20 -103,88 -61,124 22,18 35,54 62,64 17,6 86,1 89,-21 29,-21 4,-124 55,-141 26,-9 86,89 112,92 25,5 169,11 156,37 -20,40 -108,34 -100,100 23,200 105,34 191,62 96,32 48,58 52,125 2,33 62,91 97,82 57,-14 155,-182 204,-152 37,23 187,95 187,132 -70,35 -179,10 -217,97 -44,101 238,190 266,275 11,35 24,108 69,117 94,19 -3,-231 255,-167l1 1z"/>
  <path class="fil0 str0" d="M8777 24368c-25,-60 -112,-67 -142,-7 -19,11 -23,22 -46,31 -124,47 -58,-133 -56,-186 3,-68 -55,-112 -49,-184 38,-49 88,-86 133,-131 0,-35 -55,-63 -81,-82 -37,-28 -71,-65 -86,-110 -29,-90 161,-121 118,-234 -20,-52 -95,-71 -139,-94 -29,-15 -52,-33 -85,-42l-110 17c-42,38 -8,119 0,162 12,61 -33,85 -46,136 -115,82 81,185 46,294 -43,135 -249,34 -291,-50 -130,-52 -120,136 -217,132 -101,-4 -109,-127 -219,-127 -67,0 -116,30 -178,36l0 0c-33,-25 -118,-42 -111,-93 40,-24 126,-7 151,-44 59,-86 -6,-132 -54,-198 -32,-44 -70,-73 -75,-131 -4,-49 -8,-65 5,-113 12,-48 57,-134 5,-177 -60,-49 -146,26 -219,-7 -21,-24 -33,-58 -33,-90l3 -39 0 0c96,-27 124,-88 182,-158 28,-34 18,-105 33,-146 43,-113 129,-183 255,-186 58,-2 103,3 155,27 37,17 71,54 104,13 0,-36 14,-47 -8,-85 -21,-36 -57,-90 -48,-135 0,-91 42,-156 46,-238l13 -241c91,-91 186,-28 256,-134 0,-21 18,-118 32,-129 53,0 111,5 157,29 36,65 82,61 125,13 48,-52 272,-29 346,-29 80,0 223,90 278,25 0,-47 -35,-77 -35,-110 30,-41 11,-90 6,-129 -8,-10 -21,-30 -31,-37 -12,-32 -35,-64 -30,-99 6,-36 43,-70 46,-98 17,-19 27,-55 58,-55 38,-26 88,74 118,47 35,-33 40,-50 94,-48 228,9 116,-185 212,-294 40,-53 140,-27 197,-17 107,19 59,-87 108,-128 37,-30 91,-9 124,20 57,50 102,-46 128,-84 75,-108 98,39 178,39 16,-12 22,-19 36,-36 0,-22 21,-55 31,-74l0 0c36,15 55,37 98,43 38,5 57,17 86,36 0,30 -14,55 -14,88 0,30 21,45 29,70 11,35 6,63 30,94 20,26 63,44 63,79 -20,33 -56,57 -69,95 -28,79 -53,150 -112,211 -46,48 -212,30 -212,49 55,39 80,326 80,396 -18,103 81,8 27,116 -8,15 -41,64 -8,70 28,5 73,-27 100,-12 89,49 115,230 241,242 96,9 41,75 41,158 0,40 95,73 125,98 42,34 70,-13 113,-13 36,0 72,21 116,21 63,0 131,0 192,-13 67,-14 52,-3 111,12 0,53 -98,94 -98,168 -13,74 57,87 95,121 14,0 31,6 45,7l0 0c20,70 -4,149 -64,193 -28,20 -51,48 -79,68 -27,20 -46,46 -68,64 0,53 -14,106 -46,149 -31,40 -41,93 -83,128 -76,18 -157,24 -207,87 -62,78 -23,105 -43,186l-122 16c-42,5 14,-122 -49,-155 -42,-22 -123,-31 -123,-86 0,-32 4,-67 -31,-74 -25,-5 -58,-35 -81,-35 -1,0 -38,112 -61,134 -36,34 -79,45 -128,45 -11,17 -90,40 -108,47 0,84 43,98 79,161 27,49 -24,96 -26,144 -4,89 109,92 104,175l-13 196 0 0 -46 -11c-47,-15 -120,-7 -167,7 -19,6 -38,5 -57,10 -56,-14 -118,-21 -172,-36 -58,31 -91,110 -113,167 -12,31 9,133 2,140 -63,63 -216,-133 -254,-33 -22,57 18,148 -42,191 -10,71 -133,-11 -154,-32 -58,-58 -117,-94 -197,-122 -40,-14 -84,-39 -122,-58l0 0z"/>
  <path class="fil0 str0" d="M10241 27643c-39,-174 37,-180 201,-253 91,-40 55,-152 104,-224 28,-43 149,6 191,-7 64,-20 108,-206 159,-266 31,-37 75,-103 129,-97 63,7 131,20 186,-29 63,-36 103,-49 179,-49 40,0 89,-15 126,-29 31,-11 74,-38 106,-38 32,25 63,83 92,115 62,68 72,44 156,18 64,-27 80,-101 155,-82 56,99 202,-45 187,-98 -15,-52 -158,-66 -197,-122 -24,-35 -20,-128 11,-159 34,-34 208,53 282,38 92,-19 170,-173 248,-173 54,54 164,70 204,127 129,16 -3,-201 49,-277 20,-29 118,11 157,-17 69,-49 2,-108 42,-155l58 -84 0 0c31,-39 64,-97 74,-146 28,-17 29,-77 82,-45 35,21 67,19 73,-29 86,-73 141,4 236,1l285 -8 0 0c6,22 3,44 7,66 79,53 103,85 213,107 34,7 88,21 123,12 37,-9 88,-30 123,-45l0 0c-14,-1 100,134 138,198 61,104 354,24 489,43 92,13 377,93 462,141 103,57 110,271 76,351 -33,79 -199,293 -243,360 -34,52 -44,81 -3,129 -81,22 -145,54 -233,66 -104,15 -254,-27 -338,36 -37,28 -57,93 -105,105 -39,10 -120,-20 -124,41 -6,111 60,177 5,301 -29,65 -69,96 -110,135 -30,-60 -149,-122 -215,-111 -122,20 -109,74 -229,2 -208,-91 -393,4 -599,56 -57,14 -149,3 -197,30 -55,31 9,120 2,165 -40,40 -76,24 -123,7 -63,-88 -234,-368 -358,-352 -66,8 -58,87 -88,128 -43,57 -111,-25 -154,-41 -172,-63 -418,634 -354,708 2,10 18,35 12,45 0,129 -365,63 -437,44 -132,0 -349,46 -471,-8 -78,-35 -175,-160 -207,-239 -19,-47 -55,-133 -85,-173 -65,-88 -160,-16 -231,10 -16,25 -67,78 -93,90l0 0c-185,0 -156,-100 -111,-247 20,-64 -40,-77 -116,-72l0 0z"/>
  <path class="fil0 str0" d="M13064 25782c-36,-3 -74,12 -107,-1 -60,-24 -115,18 -178,18 -78,0 -212,-46 -198,-143 6,-40 24,-70 -1,-110 -20,-31 -48,-39 -48,-80 29,-37 20,-61 20,-105 -13,-15 -49,-60 -68,-18 -19,43 -31,59 -75,86 -109,45 -140,-67 -83,-117 86,-76 62,-146 -11,-215 -156,-147 -448,83 -577,158 -89,52 -24,280 -85,261 -94,-29 -286,-196 -272,-302 10,-73 -134,-57 -185,-49 -86,14 -186,191 -260,125 -43,-38 -101,-55 -150,-84 -15,-105 144,-31 133,-140 -151,-152 -420,-177 -521,-389l-75 -158c-26,-55 -112,-140 -167,-165 -52,-83 -37,-121 -62,-210l0 0 -46 -11c-47,-15 -120,-7 -167,7 -19,6 -38,5 -57,10 -56,-14 -118,-21 -172,-36 -58,31 -91,110 -113,167 -12,31 9,133 2,140 -63,63 -216,-133 -254,-33 -22,57 18,148 -42,191 -10,71 -133,-11 -154,-32 -58,-58 -117,-94 -197,-122 -40,-14 -84,-39 -122,-58l0 0 -17 14c-38,25 -106,63 -124,107 -9,22 1,53 -5,76 -15,60 -79,82 -89,140 -9,109 -28,184 -141,229 -75,30 -88,111 -88,177 90,64 162,127 272,164 130,43 116,48 116,173 0,44 90,26 98,73 8,52 -26,166 64,149 142,0 127,41 200,147 61,89 135,146 204,227 50,58 69,118 88,195 24,96 46,167 33,264 -15,7 -16,28 -36,36l-199 181 0 0c0,108 -103,400 1,480 51,39 94,10 149,10 67,0 60,111 135,42 73,-68 92,17 92,86 25,74 78,93 150,76 66,-15 88,-39 113,26 35,91 105,238 220,238 34,0 141,-28 227,-34l0 0c-39,-174 37,-180 201,-253 91,-40 55,-152 104,-224 28,-43 149,6 191,-7 64,-20 108,-206 159,-266 31,-37 75,-103 129,-97 63,7 131,20 186,-29 63,-36 103,-49 179,-49 40,0 89,-15 126,-29 31,-11 74,-38 106,-38 32,25 63,83 92,115 62,68 72,44 156,18 64,-27 80,-101 155,-82 56,99 202,-45 187,-98 -15,-52 -158,-66 -197,-122 -24,-35 -20,-128 11,-159 34,-34 208,53 282,38 92,-19 170,-173 248,-173 54,54 164,70 204,127 129,16 -3,-201 49,-277 20,-29 118,11 157,-17 69,-49 2,-108 42,-155l58 -84 0 0z"/>
  <path class="fil0 str0" d="M13064 25782c31,-39 64,-97 74,-146 28,-17 29,-77 82,-45 35,21 67,19 73,-29 86,-73 141,4 236,1l285 -8 0 0c24,-39 39,-123 69,-148 6,-69 49,-144 -27,-192l-48 -30c-24,-15 -63,-11 -82,-35 -17,-21 -23,-66 -23,-93 -16,-48 1,-136 -42,-175 -39,-36 -174,-19 -182,-42 -11,-30 40,-66 31,-100 -39,-17 -114,60 -147,79 -49,28 -110,-40 -164,-20 -20,7 -72,63 -92,41 -21,-24 24,-87 30,-116 11,-55 -77,-105 -61,-141 14,-30 49,-40 49,-76 0,-110 -99,-151 -38,-248 20,-74 -7,-104 -70,-132 -53,-24 -73,-76 -75,-132 -1,-31 -11,-60 -14,-88 -63,-45 -57,-138 7,-181l0 0c-19,-13 -29,-34 -52,-44 -24,-11 -70,14 -88,-11 -12,-16 -11,-25 -36,-25 -22,0 -62,23 -77,7 -21,-21 -2,-57 -15,-75 -41,0 -88,12 -133,12 -50,0 -103,-16 -149,-33 -54,-21 -152,-134 -170,-190 -18,-53 2,-117 -22,-167 -20,-43 -102,-60 -102,-101 0,-31 18,-58 12,-90 -7,-35 -73,-64 -104,-78 -55,-23 -33,-110 -91,-154 -41,-31 -194,-167 -234,-167 -66,0 -131,20 -197,8 -22,-4 -104,-91 -104,-111 -14,0 -44,83 -51,100 -18,43 -38,65 -74,97l0 0c20,70 -4,149 -64,193 -28,20 -51,48 -79,68 -27,20 -46,46 -68,64 0,53 -14,106 -46,149 -31,40 -41,93 -83,128 -76,18 -157,24 -207,87 -62,78 -23,105 -43,186l-122 16c-42,5 14,-122 -49,-155 -42,-22 -123,-31 -123,-86 0,-32 4,-67 -31,-74 -25,-5 -58,-35 -81,-35 -1,0 -38,112 -61,134 -36,34 -79,45 -128,45 -11,17 -90,40 -108,47 0,84 43,98 79,161 27,49 -24,96 -26,144 -4,89 109,92 104,175l-13 196 0 0c25,89 10,127 62,210 55,25 141,110 167,165l75 158c101,212 369,237 521,389 10,108 -148,35 -133,140 49,28 107,45 150,84 74,66 173,-111 260,-125 51,-8 194,-24 185,49 -14,106 177,273 272,302 61,19 -5,-210 85,-261 129,-75 421,-305 577,-158 73,69 96,139 11,215 -57,50 -25,162 83,117 44,-27 56,-43 75,-86 19,-42 55,3 68,18 0,44 9,68 -20,105 0,41 28,49 48,80 25,39 7,70 1,110 -14,98 120,143 198,143 63,0 118,-42 178,-18 33,14 71,-2 107,1l0 0z"/>
  <path class="fil0 str0" d="M15032 24026l1 -105c13,-36 0,-78 -13,-111 -21,-53 -69,46 -107,57 -86,26 -52,-74 -52,-116 -11,-11 -65,8 -85,1 -18,-7 -11,-37 -31,-42 -18,-4 -68,23 -101,21 -42,-2 -60,6 -100,-2 -10,-41 -21,-52 -21,-103 0,-37 25,-215 -61,-172 -73,37 -109,11 -123,-60 -25,-128 -128,-115 -236,-147 -96,-28 -92,-152 -100,-236 -20,-56 -56,-129 -58,-186l0 0c-4,-93 155,-6 205,-87 72,-119 -18,-128 -18,-236 59,-20 103,-20 159,-66 30,-25 43,-40 48,-80 4,-37 -18,-51 -21,-75 -43,-17 -103,-125 -23,-138 73,-12 185,-68 185,-155 -3,-52 12,-158 66,-180 88,-36 64,85 86,107 36,0 66,-97 148,-67 43,16 97,-1 137,23 23,13 27,70 42,94 17,28 77,33 107,29 78,-12 62,-75 151,-4 41,33 111,24 162,31 40,5 170,92 172,134 2,33 -9,72 1,101 12,38 59,75 81,110 6,26 29,28 39,49 13,26 1,89 1,121 0,76 28,174 -1,246 -38,95 -112,90 -179,144 0,23 119,86 142,112 30,36 53,63 95,27 91,-77 154,220 175,261l0 0c-33,2 -204,59 -204,88 0,49 47,74 38,131 -9,60 10,174 -35,221 -33,34 -70,32 -95,64 -32,41 -16,102 -27,150 -34,34 -60,130 -126,92 -79,-46 -85,-38 -141,31 -56,70 -191,-190 -281,-80l0 0z"/>
  <path class="fil0 str0" d="M13118 22032l129 127c-1,30 43,101 61,128 111,161 386,-37 486,183 17,36 70,276 102,276l48 81 0 0c2,58 39,131 58,186 8,85 4,208 100,236 108,32 211,19 236,147 14,70 50,97 123,60 85,-44 61,135 61,172 0,51 11,62 21,103 40,8 58,0 100,2 33,2 83,-26 101,-21 20,5 13,35 31,42 19,7 74,-12 85,-1 0,42 -34,142 52,116 38,-12 86,-111 107,-57 13,33 26,75 13,111l-1 105 0 0c-60,73 -100,141 -104,235 -4,108 -82,194 -69,304 4,34 4,275 57,275 48,0 84,-85 124,-85 48,48 29,148 24,210 -9,172 -2,311 -156,411 -111,72 -141,273 -305,252 -95,-12 -129,108 -211,84 -29,-9 -78,-15 -112,-17l0 0c-35,15 -86,36 -123,45 -35,9 -89,-5 -123,-12 -110,-22 -134,-55 -213,-107 -4,-22 -1,-44 -7,-66l0 0c24,-39 39,-123 69,-148 6,-69 49,-144 -27,-192l-48 -30c-24,-15 -63,-11 -82,-35 -17,-21 -23,-66 -23,-93 -16,-48 1,-136 -42,-175 -39,-36 -174,-19 -182,-42 -11,-30 40,-66 31,-100 -39,-17 -114,60 -147,79 -49,28 -110,-40 -164,-20 -20,7 -72,63 -92,41 -21,-24 24,-87 30,-116 11,-55 -77,-105 -61,-141 14,-30 49,-40 49,-76 0,-110 -99,-151 -38,-248 20,-74 -7,-104 -70,-132 -53,-24 -73,-76 -75,-132 -1,-31 -11,-60 -14,-88 -63,-45 -57,-138 7,-181l0 0c72,-17 150,-36 213,-73 43,-25 39,-59 30,-103 -15,-68 -10,-126 -7,-195 1,-20 11,-64 -6,-79 -19,-17 -68,-4 -87,-25 -32,-4 -36,-47 -27,-72 28,-57 100,-61 147,-87 15,-25 40,-71 26,-101 -12,-27 -45,-35 -62,-57 -45,-60 27,-82 11,-147 -5,-20 -37,-64 -54,-75 -15,-10 -104,55 -116,70 -15,2 -16,8 -29,-5 0,-86 64,-115 -42,-178 -73,-43 -40,-162 -37,-227 3,-65 33,-101 83,-138 64,-70 103,-57 126,-162 2,-11 7,-24 13,-38l0 0z"/>
  <path class="fil0 str0" d="M15965 23318l-15 -91c40,-85 -28,-74 -12,-139 10,-41 86,-41 99,-103 9,-43 -12,-86 -12,-128 0,-20 26,-61 35,-80 18,-40 22,-125 50,-149 18,-16 39,-7 61,-6 40,2 79,-22 112,-42 9,-1 55,-5 55,-16 5,-1 7,-77 7,-90 -49,0 -202,106 -180,-44 7,-49 38,-20 76,-27 38,-8 156,-103 156,-141 0,-59 -40,-138 -15,-197 17,-40 31,-273 -20,-276 -35,-2 -244,130 -244,63 0,-21 18,-51 1,-68 -8,-8 -62,-17 -75,-17 -21,0 -77,101 -95,123 -24,29 -75,-10 -118,-53l0 0 121 -142c104,18 291,-6 392,-33 106,-29 346,52 403,-61 39,-94 103,-257 184,-321 71,-56 74,-173 74,-260 0,-170 204,-223 312,-325 77,-72 256,-123 261,-282l0 0c51,2 100,7 137,7l253 0 74 0c84,0 -15,142 -33,192 -5,57 -12,111 -4,168 15,95 -33,192 -33,291 5,41 50,70 48,106 -1,19 -143,112 -77,136 9,3 206,10 102,64 -55,29 -80,41 -25,95 58,58 182,-47 194,5 28,114 100,2 179,2 8,55 -16,69 50,95 60,24 86,190 155,112l136 -155c22,30 34,98 45,135 27,88 -81,100 -25,185 55,84 -83,104 -83,169 26,19 104,-11 80,61 -49,49 -119,69 -163,113 -42,42 32,104 19,158 -31,15 -72,1 -72,48 0,88 13,114 -82,129 -124,19 -167,124 -126,234 13,35 54,93 -8,93 -88,0 -68,21 -104,84 -19,22 -69,84 -24,103 24,10 118,10 123,45 19,12 26,36 50,49 56,30 52,63 49,121 -3,59 -35,85 -77,29l-44 -58c-10,-13 -38,-119 -55,-81 -5,10 -39,100 -62,55 -9,-18 -1,-73 -36,-73 -56,0 -87,22 -133,-27 -28,-30 -52,-70 -92,-84 -47,-16 -73,76 -111,103 -60,42 2,78 -11,125 -20,49 -27,105 -64,143 -32,3 -70,-10 -86,-42 -32,-14 -56,-76 -99,-43 -38,29 -39,77 -39,121 0,73 8,160 -19,227 -8,21 -37,47 -56,61l0 0c-125,32 -204,-25 -312,-73 -84,-38 -131,-69 -198,-131 -73,-68 -107,-192 -231,-192 -57,0 -51,23 -51,70 0,38 -43,78 -70,98 -6,51 77,62 51,113 -63,16 -66,24 -116,-26l-147 -148 -31 -61c-48,22 -49,128 -101,128 -72,-58 26,-181 -5,-234 -45,-12 -107,28 -153,36 -33,6 -64,16 -96,23l0 0z"/>
  <path class="fil0 str0" d="M15965 23318l-15 -91c40,-85 -28,-74 -12,-139 10,-41 86,-41 99,-103 9,-43 -12,-86 -12,-128 0,-20 26,-61 35,-80 18,-40 22,-125 50,-149 18,-16 39,-7 61,-6 40,2 79,-22 112,-42 9,-1 55,-5 55,-16 5,-1 7,-77 7,-90 -49,0 -202,106 -180,-44 7,-49 38,-20 76,-27 38,-8 156,-103 156,-141 0,-59 -40,-138 -15,-197 17,-40 31,-273 -20,-276 -35,-2 -244,130 -244,63 0,-21 18,-51 1,-68 -8,-8 -62,-17 -75,-17 -21,0 -77,101 -95,123 -24,29 -75,-10 -118,-53l0 0c-28,-28 -53,-59 -65,-73 -81,-101 -72,-95 -11,-208 96,-71 -78,-178 -128,-209 -145,-91 -277,236 -381,-79 -17,-51 -177,-23 -235,-56 -73,-42 6,-136 -39,-192 -34,0 -52,54 -104,61 -87,12 -75,-180 -159,-90 -153,166 -134,33 -280,-38l-317 -154 0 0c-3,37 -6,88 -37,113 -27,22 -73,15 -93,35 0,72 101,92 101,160 0,22 -33,56 -50,69 -34,28 -36,41 -36,85 4,68 -29,116 -66,167 -158,22 -208,221 -377,97 -78,-58 -62,89 -67,129 -10,78 -111,90 -170,105 -10,41 36,345 -104,226 -42,-36 -77,5 -95,46l0 0 129 127c-1,30 43,101 61,128 111,161 386,-37 486,183 17,36 70,276 102,276l48 81 0 0c-4,-93 155,-6 205,-87 72,-119 -18,-128 -18,-236 59,-20 103,-20 159,-66 30,-25 43,-40 48,-80 4,-37 -18,-51 -21,-75 -43,-17 -103,-125 -23,-138 73,-12 185,-68 185,-155 -3,-52 12,-158 66,-180 88,-36 64,85 86,107 36,0 66,-97 148,-67 43,16 97,-1 137,23 23,13 27,70 42,94 17,28 77,33 107,29 78,-12 62,-75 151,-4 41,33 111,24 162,31 40,5 170,92 172,134 2,33 -9,72 1,101 12,38 59,75 81,110 6,26 29,28 39,49 13,26 1,89 1,121 0,76 28,174 -1,246 -38,95 -112,90 -179,144 0,23 119,86 142,112 30,36 53,63 95,27 91,-77 154,220 175,261l0 0c21,-2 42,-5 62,-10l0 0z"/>
  <path class="fil0 str0" d="M15829 21839c-28,-28 -53,-59 -65,-73 -81,-101 -72,-95 -11,-208 96,-71 -78,-178 -128,-209 -145,-91 -277,236 -381,-79 -17,-51 -177,-23 -235,-56 -73,-42 6,-136 -39,-192 -34,0 -52,54 -104,61 -87,12 -75,-180 -159,-90 -153,166 -134,33 -280,-38l-317 -154 0 0c20,-50 52,-67 52,-124 -35,-35 -65,-35 -52,-94 4,-21 41,-79 27,-98 -24,-33 -125,-70 -97,-124 13,-25 40,-50 46,-76 11,-45 8,-91 13,-137 0,-151 194,-149 290,-151l0 0c3,12 8,21 16,23 77,19 160,-166 213,-100 12,15 22,59 37,64 95,33 -46,-189 77,-212 45,-9 3,112 81,86 61,-20 113,-32 144,-94 32,0 82,169 166,44 28,-42 -36,-65 -44,-97 -11,-43 98,-65 124,-76 169,-16 67,224 225,204 26,-60 -34,-186 -7,-263 17,-49 185,12 228,-42 34,-42 -5,-153 61,-153 52,0 158,-25 143,-99 -9,-45 -57,-61 -74,-98 -21,-44 -2,-201 64,-161 50,30 189,-18 216,48 48,118 139,152 206,20 38,-74 63,-143 167,-143 45,45 -46,249 -85,284 -78,70 -107,156 -57,255 130,26 122,-129 195,-198 64,-60 180,75 207,19 17,-4 28,-55 33,-68 47,-47 51,-25 91,4 12,134 80,25 138,42 59,17 49,87 36,134 -13,45 -37,85 -6,130 70,102 -32,131 -76,215 -38,73 53,111 106,144 32,20 64,91 6,98 -39,4 -164,-9 -172,26 -7,31 21,54 35,80 14,26 -4,63 14,86 31,0 40,-34 68,-42 84,-24 200,-63 200,54 -6,23 -4,27 1,47 81,20 174,-64 139,82 -14,60 -101,82 -76,150 26,72 96,31 125,-13 39,-59 130,-66 217,-63l0 0c-5,160 -184,210 -261,282 -108,102 -312,154 -312,325 0,87 -3,204 -74,260 -81,64 -145,228 -184,321 -56,113 -297,32 -403,61 -101,27 -289,51 -392,33l-121 142 0 0z"/>
  <path class="fil0 str0" d="M10311 10016l13 -8c12,-39 46,-112 80,-136 33,-23 84,-3 125,-33 51,-38 78,-85 150,-73 82,13 183,-59 244,-106 103,-72 263,-86 374,-124 107,-37 206,-112 298,-175 42,-29 109,-88 154,-106 30,-40 113,-31 156,-35 89,0 172,27 237,-50 50,-59 53,-140 99,-198 69,-88 338,60 369,-124 11,-63 -28,-172 73,-135 233,85 40,104 114,185 37,39 125,47 161,1 43,-55 83,25 114,56 71,71 121,84 220,88 63,3 143,109 151,166 96,69 192,62 284,111l168 15 0 0c-40,-56 -77,-112 -114,-168 -11,-16 -52,-88 -78,-135 41,-9 102,-3 128,-3 63,0 82,-32 133,-50 56,-20 181,128 222,-11 25,-29 32,-74 58,-97 31,-26 77,-23 114,-29 98,-15 -60,-157 -19,-183 45,-28 125,-37 179,-39 72,-3 12,-137 14,-180 2,-36 68,-52 80,-93 52,-178 -142,28 -210,-30 -81,-69 54,-98 88,-118 33,-20 132,-114 74,-153 -37,-24 -242,64 -149,-92 38,-76 53,-99 138,-110 87,-11 56,-79 33,-136 -30,-75 -164,-333 -94,-402 71,-71 119,-85 17,-171l0 0 -144 25 -1 -2c-7,-1 -12,-6 -18,2 -102,0 -212,-12 -309,-45 -18,-6 -57,-32 -74,-32 -65,0 -130,8 -195,4 -24,-97 -236,95 -267,122 -122,105 -284,-34 -369,21 -54,35 -107,61 -160,103 -90,72 -160,118 -291,107 -10,-2 -34,-16 -41,-21 -21,-16 -70,-14 -95,-21 -70,-20 -132,-53 -207,-53 -144,0 -152,150 -226,229 -32,34 -176,79 -217,79 -148,-31 -149,7 -288,64 -75,31 -115,52 -203,43 -140,-14 -245,-28 -386,-19 -161,11 -314,127 -465,143l0 0c54,5 102,11 125,24 7,50 -78,110 -69,135 10,30 150,-29 150,42 -56,40 -91,79 -160,106 -77,31 -75,92 -123,146 3,38 3,57 19,91 11,23 46,50 51,70 27,19 60,264 66,307 11,86 48,253 5,328 -30,8 -50,39 -92,45 -118,17 -220,-45 -269,87 20,119 -95,31 -129,86 -20,32 75,68 35,134 -24,38 -61,32 -52,90 5,31 20,53 10,87 -21,67 2,82 77,74 50,-6 86,-8 118,32 0,40 -24,70 -24,103 -2,2 -2,4 -4,6 0,51 21,92 21,140l0 0z"/>
  <path class="fil0 str0" d="M12870 11547c17,-25 30,-51 35,-80 104,-558 1510,-375 1853,-260 13,-39 -31,-113 -38,-159 -16,-106 -24,-153 -77,-249 -21,-38 41,-95 55,-132 23,-62 -74,-159 -44,-169 197,-70 85,-42 -19,-124 0,-62 -41,-206 5,-260 56,-65 142,-71 37,-155 -24,-19 -112,-80 -35,-92 59,-9 203,7 189,-81 -9,-55 17,-56 66,-42 50,15 82,52 132,31 8,-22 43,-127 32,-164 -27,-3 -55,-6 -82,-9 -145,-16 -195,-91 -305,-131 -142,-52 -283,42 -443,-10 -84,-27 -157,-78 -243,-107 -28,-10 -58,-15 -91,-18l0 0 -168 -15c-92,-49 -187,-42 -284,-111 -8,-57 -89,-163 -151,-166 -99,-4 -150,-18 -220,-88 -31,-31 -71,-111 -114,-56 -36,46 -124,38 -161,-1 -75,-81 118,-100 -114,-185 -101,-37 -62,71 -73,135 -32,184 -300,37 -369,124 -46,58 -49,139 -99,198 -65,77 -148,50 -237,50 -43,4 -126,-6 -156,35 -44,18 -112,77 -154,106 -92,64 -190,138 -298,175 -111,38 -271,53 -374,124 -61,47 -162,120 -244,106 -72,-12 -100,35 -150,73 -41,31 -92,10 -125,33 -34,24 -68,97 -80,136l-13 8 0 0c-28,-1 -57,-7 -86,-1 -33,7 -56,28 -86,38 -25,50 -45,136 -82,175 -28,30 -43,41 -86,39 -49,-2 -81,-30 -126,-42l0 0c-22,76 -9,99 35,158 22,30 -10,86 31,104 65,29 107,-85 175,-50 27,14 123,75 123,110 7,2 -118,-5 -137,-5 -33,0 -81,0 -111,12 -9,4 -3,15 2,19 39,29 121,14 156,51 17,18 17,124 11,146 0,50 -7,147 11,193 19,51 107,65 95,124 -6,30 -40,45 -68,47 -40,2 -61,-31 -97,-31 -22,44 -1,73 -1,117l0 0c32,23 65,26 93,56 45,48 115,-49 170,-54 60,-6 26,76 26,118 3,3 13,10 14,13 46,7 61,1 100,-24 100,-63 82,-36 147,35 107,116 -20,106 -20,233 0,66 33,94 82,128 49,34 24,112 35,162 13,101 151,93 226,100 88,9 96,18 125,98 31,85 129,196 228,185 50,-6 103,-23 151,-23 89,0 127,67 75,149 -22,9 -46,13 -67,21 -3,8 0,15 2,21 96,55 121,156 257,117 122,-35 105,92 182,148 64,46 73,45 145,23l0 0c46,-75 98,-157 86,-247 -14,-103 62,-163 129,-227 46,-44 84,-99 130,-141 169,-156 325,-389 482,-566l0 0z"/>
  <path class="fil0 str0" d="M10555 7884c54,5 102,11 125,24 7,50 -78,110 -69,135 10,30 150,-29 150,42 -56,40 -91,79 -160,106 -77,31 -75,92 -123,146 3,38 3,57 19,91 11,23 46,50 51,70 27,19 60,264 66,307 11,86 48,253 5,328 -30,8 -50,39 -92,45 -118,17 -220,-45 -269,87 20,119 -95,31 -129,86 -20,32 75,68 35,134 -24,38 -61,32 -52,90 5,31 20,53 10,87 -21,67 2,82 77,74 50,-6 86,-8 118,32 0,40 -24,70 -24,103 -2,2 -2,4 -4,6 0,51 21,92 21,140l0 0c-28,-1 -57,-7 -86,-1 -33,7 -56,28 -86,38 -25,50 -45,136 -82,175 -28,30 -43,41 -86,39 -49,-2 -81,-30 -126,-42l0 0c-49,-47 -197,-70 -263,-70 -41,0 -92,9 -132,0 -130,-31 -93,-63 -195,-105 -46,-19 -100,-47 -100,-105 0,-79 -10,-145 -66,-208 -150,-150 -394,-94 -567,-181 -43,-69 -163,-113 -237,-100 -60,10 -123,41 -184,27 -41,-41 -58,-63 -108,-98 -147,-101 -291,-202 -441,-301 -77,-68 -185,-47 -241,38 -90,138 -118,1 -122,-88 -10,-294 -370,345 -418,45 -11,-66 41,-80 49,-125 76,-55 -1,-124 38,-173 46,-58 143,-50 138,-152 -3,-58 -61,-31 -73,-63 -13,-37 39,-111 8,-144 -69,-76 -68,-60 -68,-164 5,-3 10,-37 11,-43 0,-20 -39,-44 -46,-68 -6,-20 31,-39 45,-45 51,-24 98,-46 144,-75 8,-28 23,-35 5,-68 -15,-27 -33,-43 -52,-67 -43,-51 -81,-82 -150,-91 -45,-6 -119,-15 -162,-4l0 0c0,-61 8,-124 18,-184 8,-48 48,-110 42,-155 -82,-47 -238,-50 -296,-98 0,-52 8,-100 2,-153l10 -150 0 0c32,2 61,-4 84,-30 40,-45 73,-118 143,-116 56,2 153,129 211,48 81,-114 163,36 174,121 80,40 91,-58 117,-103 59,-7 94,50 133,38 53,-16 15,-109 41,-140 86,-102 175,23 197,99 50,25 66,-15 94,44 22,46 85,16 106,-14 29,-41 4,-203 -7,-248 -199,-50 47,-114 51,-228 6,-144 -215,-133 -210,-304 43,-70 128,-160 150,-236 19,-65 -10,-152 -10,-220 -11,-11 -67,17 -94,1 -30,-18 -38,-63 -56,-92 -33,-54 -19,-115 -56,-169 -29,-42 -96,-54 -119,-98 -41,-79 52,-87 106,-104 93,-68 94,-238 161,-279 17,5 35,11 57,17 81,22 73,73 76,146 11,232 229,-95 317,136 37,96 151,142 198,19 72,-190 86,-100 179,0 39,43 82,-46 100,-72 46,-65 86,36 86,76 0,159 -64,284 155,236 131,-29 209,-126 358,-117 60,4 68,47 78,94l0 0 -1 77c55,34 71,48 104,93 -48,80 -29,151 73,131 56,-11 90,90 112,129 31,57 64,116 132,129 96,17 199,212 287,169 43,-21 58,-70 117,-45 93,39 130,-27 194,-79 48,-39 93,-33 93,38 0,88 177,97 95,162 -99,79 4,57 29,166 0,28 -15,61 10,75 40,-15 125,-138 148,-60 30,105 46,219 46,329 0,129 -192,136 -192,270 59,50 157,-9 222,25 26,14 107,102 107,132 -34,22 -69,18 -106,37 -47,24 -39,42 -57,84 -30,79 106,64 119,122 32,137 -292,-34 -329,-36 -89,-4 -202,107 -62,127 50,7 187,-6 187,76 0,63 -260,-27 -254,90 3,58 125,67 228,77l0 0z"/>
  <path class="fil0 str0" d="M11689 4235l11 115c52,111 94,-64 145,-88 82,-38 116,-16 132,64 40,196 73,-59 203,-5 44,18 113,72 154,78 69,10 129,2 198,2 1,2 1,2 2,2 0,141 65,141 149,41 28,-34 88,-60 99,-104 10,-38 -39,-57 -23,-113 70,-25 127,-8 197,-8 66,0 47,107 153,90 70,-12 167,-98 216,-98 12,35 76,141 101,172 95,118 348,32 489,109 60,33 111,95 175,112 37,10 77,-20 114,-21 44,-2 77,10 119,23 12,8 26,20 34,32 3,2 5,5 8,6 30,37 115,8 151,-4l0 0c0,-18 27,-56 33,-81 9,-38 30,-73 36,-112 15,-95 -35,-158 -53,-246 108,-3 241,-2 326,-75 51,-44 54,-105 -2,-141 -27,-17 -57,-25 -83,-43 -22,-14 -37,-34 -51,-55 -1,-42 11,-109 -5,-154 0,-88 140,-51 198,-68 85,-25 50,-150 82,-150 45,0 111,27 136,-25 35,-73 8,-109 74,-172 23,-21 78,-61 107,-94 -135,-45 9,-112 -74,-189 -51,-48 -167,-77 -234,-100 -41,-15 -21,-64 -55,-76 -42,-15 -125,22 -148,-14 -47,-75 105,-71 141,-94 46,-30 95,-68 150,-84 4,-9 6,-10 10,-23 16,-48 13,-70 -11,-110 -22,-37 -9,-68 5,-107 37,-108 -172,-40 -136,-162 11,-37 68,-106 48,-146 -52,-103 15,-74 72,-136 35,-38 -16,-65 -37,-82 -34,0 -69,10 -102,7l0 0c-58,-24 -64,-64 -131,-56 -23,37 -30,100 -58,129 -46,46 -192,4 -238,-27 -35,-24 -41,-29 -39,-72 5,-122 -46,-52 -125,-38 -50,8 -90,2 -135,-20 -80,-40 -77,-133 24,-109 26,6 91,-3 83,-39 -14,-65 23,-59 57,-109 20,-16 30,-59 13,-82 -56,0 -149,80 -143,-35 2,-41 38,-192 -44,-168 -74,21 -58,129 -156,124 -71,-3 -42,-111 -131,-31 -48,43 -306,97 -195,162 72,43 -58,73 -37,129 23,60 -25,66 -75,98 -62,39 -5,48 21,84 74,97 -34,74 -87,84 -37,7 -132,96 -137,135 -58,41 -64,106 -76,164 -7,34 -56,52 -56,82l30 81c41,112 -268,197 -268,-1 0,-28 11,-134 -51,-87 -42,31 -45,100 -104,109 -82,13 -56,-197 -160,-132 -76,47 -91,69 -189,69 -43,0 -89,31 -21,44 78,15 -53,96 11,110 27,6 57,-15 81,-4 10,4 -74,161 -80,187 -10,41 -22,100 48,78 70,-23 -77,101 -80,106 -56,104 6,139 13,240 8,56 28,113 16,169 -23,14 -43,14 -64,26 -48,28 -51,99 -120,99 -54,0 -127,-18 -161,33 -26,39 -65,70 -116,68 -82,-4 -108,-146 -211,-100 -90,40 -27,117 26,150 80,50 215,79 141,199 -91,147 -167,20 -259,86 -8,62 58,69 13,147 -112,96 -82,72 -74,211 1,20 -2,32 -7,37l0 0z"/>
  <path class="fil0 str0" d="M9253 5565l-1 77c55,34 71,48 104,93 -48,80 -29,151 73,131 56,-11 90,90 112,129 31,57 64,116 132,129 96,17 199,212 287,169 43,-21 58,-70 117,-45 93,39 130,-27 194,-79 48,-39 93,-33 93,38 0,88 177,97 95,162 -99,79 4,57 29,166 0,28 -15,61 10,75 40,-15 125,-138 148,-60 30,105 46,219 46,329 0,129 -192,136 -192,270 59,50 157,-9 222,25 26,14 107,102 107,132 -34,22 -69,18 -106,37 -47,24 -39,42 -57,84 -30,79 106,64 119,122 32,137 -292,-34 -329,-36 -89,-4 -202,107 -62,127 50,7 187,-6 187,76 0,63 -260,-27 -254,90 3,58 125,67 228,77l0 0c151,-16 304,-132 465,-143 141,-9 247,5 386,19 88,9 127,-12 203,-43 139,-57 140,-96 288,-64 41,0 185,-45 217,-79 74,-79 82,-229 226,-229 75,0 137,33 207,53 26,7 75,6 95,21 7,5 31,19 41,21 130,10 200,-36 291,-107 53,-42 106,-68 160,-103 86,-56 247,83 369,-21 31,-26 243,-218 267,-122 66,4 130,-4 195,-4 17,0 55,26 74,32 96,33 207,45 309,45 6,-8 11,-3 18,-2l1 2 144 -25 0 0c0,-44 88,-44 114,-86 38,-60 39,-108 57,-174 0,-84 -52,-143 -56,-226 -6,-116 -28,-109 -132,-109 -82,0 -130,-29 -192,-79 -51,-41 -62,-141 -92,-198 -29,-55 -23,-45 30,-74 60,-33 54,-55 13,-101 -50,-56 21,-45 80,-77 38,-20 142,-96 143,-147 5,-63 10,-296 38,-345 58,-99 150,186 228,25 35,-73 59,-144 43,-226 -5,-28 -64,-86 -7,-88 30,-1 119,16 141,4 66,-36 99,-2 150,-23 52,-21 52,-115 52,-164 15,4 64,47 79,4 10,-28 12,-89 57,-45 32,31 148,125 148,11 0,-81 -238,-202 -315,-197 -63,-55 -86,-113 -157,-50 -85,75 -96,-102 -151,-60 -39,29 -80,56 -119,4 -39,-52 -75,-75 -145,-75l0 0c-36,11 -121,41 -151,4 -3,-1 -5,-4 -8,-6 -9,-12 -22,-24 -34,-32 -42,-13 -75,-24 -119,-23 -37,1 -77,31 -114,21 -65,-17 -115,-80 -175,-112 -140,-76 -393,9 -489,-109 -25,-31 -90,-137 -101,-172 -49,0 -146,86 -216,98 -106,18 -86,-90 -153,-90 -70,0 -127,-16 -197,8 -16,57 32,75 23,113 -11,44 -71,70 -99,104 -84,100 -149,101 -149,-41 -2,-1 -1,0 -2,-2 -68,0 -129,8 -198,-2 -40,-6 -110,-59 -154,-78 -130,-54 -163,201 -203,5 -16,-80 -50,-103 -132,-64 -51,24 -93,199 -145,88l-11 -115 0 0c-40,34 -225,-266 -241,-296 -26,-51 -128,-124 -128,-18 0,65 -23,175 -104,165 -31,-43 0,-237 -68,-223 -124,26 -65,86 -112,156 -40,60 -117,-11 -139,44 -14,34 2,116 -7,160 -11,53 -95,29 -129,49 -39,22 -57,50 -100,72 -58,29 -44,119 -150,153 -61,20 -120,14 -182,25 -74,13 -36,161 5,197 45,40 234,105 67,149 -20,3 -100,1 -87,41 11,32 104,22 133,24 45,3 22,41 -5,54 -57,27 -131,33 -163,94 -60,114 136,45 163,80 10,13 -42,180 -37,221 48,35 128,5 169,36 47,35 -42,125 -64,150 -30,35 -63,93 -101,118 -24,16 -36,-93 -45,-112 -96,-186 -93,-4 -193,19 -72,16 -131,-81 -179,-123 -42,-36 -63,-102 -113,-48 -62,68 -120,9 -182,48 -28,17 35,123 27,171 -150,110 -74,-146 -168,-191 -37,-18 -143,-82 -157,-11 -14,72 -76,115 -146,126l0 0z"/>
  
  
  
  
  
  
  
  
  
  
  
  
  
  
  <g id="_2506152757776">
   
   
   
   
   
   
   
   
  </g>
  <g id="_2506152755568">
   
   
   
   
   
   
   
   
   
   
   
   
   
   
  </g>
 </g>
</svg>