<svg xmlns="http://www.w3.org/2000/svg" xmlns:xlink="http://www.w3.org/1999/xlink" xml:space="preserve" width="210mm" height="297mm" version="1.1" style="shape-rendering:geometricPrecision; text-rendering:geometricPrecision; image-rendering:optimizeQuality; fill-rule:evenodd; clip-rule:evenodd" viewBox="0 0 21000 29700">
 <defs>
  <style type="text/css">
   <![CDATA[
    .str1 {stroke:black;stroke-width:10;stroke-opacity:0.501961}
    .str3 {stroke:black;stroke-width:50}
    .str5 {stroke:#434242;stroke-width:10}
    .str0 {stroke:black;stroke-width:10}
    .str2 {stroke:black;stroke-width:10}
    .str6 {stroke:#2B2A29;stroke-width:7.62}
    .str4 {stroke:black;stroke-width:7.62}
    .fil6 {fill:none}
    .fil1 {fill:#FEFEFE}
    .fil0 {fill:#FEFEFE}
    .fil8 {fill:#D9DADA}
    .fil5 {fill:#FEFEFE;fill-rule:nonzero}
    .fil4 {fill:#D9DADA;fill-rule:nonzero}
    .fil7 {fill:#434242;fill-rule:nonzero}
    .fil3 {fill:black;fill-rule:nonzero}
    .fil2 {fill:#FEFEFE;fill-rule:nonzero;fill-opacity:0.501961}
   ]]>
  </style>
 </defs>
 <g id="Plan_x0020_1">
  <metadata id="CorelCorpID_0Corel-Layer"/>
  <rect class="fil0" x="1000" y="1000" width="17093" height="27700"/>
  
  
  <path class="fil0 str0" d="M6031 8010c-8,-19 -15,-30 -16,-50 -3,-37 2,-68 43,-79 22,-6 30,1 30,-31 0,-21 8,-45 -11,-58 -7,-5 -30,-34 -23,-45 6,-9 43,-39 48,-9 3,16 -2,29 3,49 2,10 2,68 0,79 -3,17 18,35 34,39 22,6 44,35 36,58 -11,31 -18,29 -48,24 -31,-5 -49,-30 -73,-7 -20,19 39,28 -11,44 -3,1 -7,-1 -10,-2l-1 -11zm13 52c10,8 23,33 37,61l0 0c8,-9 43,-9 43,-33 0,-33 -9,-25 -24,-38 -17,-15 1,-12 -32,-19l-23 29 0 0z"/>
  <path class="fil1 str0" d="M9675 17026l126 -52c16,-4 48,-12 65,-20 58,-24 86,10 140,-49 18,-19 35,-30 61,-22 18,6 98,14 116,10 23,-5 85,-14 85,22 0,35 10,72 38,93 21,16 34,76 102,34 22,-14 84,-40 111,-38 35,1 33,-19 26,-45 -12,-43 41,-90 72,-112 29,-21 82,-7 94,-61 8,-34 57,-76 90,-84 56,-14 139,-25 180,-70 10,-10 24,-15 26,-38 1,-12 28,-70 36,-78 31,-31 64,-42 89,-93 34,-71 81,-9 149,-47 90,-50 87,-14 182,-14 46,0 70,-1 118,7 40,7 67,16 110,22 77,10 41,17 127,5 88,-12 94,12 159,12 62,0 9,-41 79,-92 44,-32 57,12 81,30 43,33 0,52 109,72 60,11 59,32 88,41 48,24 53,30 102,13 49,-17 59,-16 101,-49 52,-41 26,95 132,74 45,-9 47,14 103,14 61,0 32,7 93,-9 53,-14 54,15 128,-25 98,-52 108,63 178,20 13,-8 91,-48 101,-48 50,0 82,-48 133,-42 9,1 24,17 46,23 21,6 54,32 72,31 45,-38 96,-29 123,-77l0 0c-31,-11 -42,-60 -69,-89 -30,-32 -31,-66 -15,-106 12,-31 11,-56 11,-81l0 0c-3,-2 -48,-16 -57,-21 -126,-79 -109,18 -209,31 -13,2 -73,-15 -90,-20 -35,-10 -132,63 -90,-79 6,-22 25,-50 12,-65 -13,-15 -124,-15 -156,-21 -73,-13 -66,-50 -155,-28 -43,11 -100,65 -129,29 -28,-34 -94,-63 -126,-93 -33,-30 -82,29 -108,5 -24,-21 -38,-8 -63,2 -58,24 -82,-25 -112,-63 -6,-8 -10,-15 -15,-23 -22,-33 -29,-59 -50,-87 -42,-57 -34,-108 -104,-147 -32,-18 -136,-11 -170,-26 -43,-19 -66,-25 -93,-67 -91,-144 -257,-135 -278,-164 -49,-67 -88,-44 -120,-68 -56,-43 -46,-87 -77,-129 -55,-75 -56,-16 -116,-125l-2 -10c-13,-66 -1,-72 -1,-129 0,-26 -39,-55 -60,-68 -22,-13 -56,-54 -62,-78 -17,-59 -44,-52 -19,-101 19,-37 61,-56 77,-86 11,-22 -7,-76 -16,-98 -18,-43 12,-105 56,-121 65,-23 3,-59 70,-72 64,-13 32,-80 23,-119 0,-13 -3,-25 -10,-36 -23,-41 2,-63 42,-74 54,-14 57,-51 63,-99 5,-44 30,-112 32,-142 4,-75 -15,-40 -60,-46 -29,-4 -110,-7 -137,0 -66,19 -78,-12 -144,-12 -25,0 -88,9 -106,-1 -41,-25 -38,-52 -49,-66 -23,-31 -69,-15 -97,1 -36,21 -37,42 -55,68 -35,51 -94,41 -145,28 -42,-11 -62,-4 -98,-7 -92,-8 -102,7 -183,-52 -6,-2 -9,-5 -16,-6 -37,-8 -46,-16 -82,-7 -48,12 -86,63 -103,66 -66,11 -55,-60 -83,-94 -66,-80 -75,-90 -178,-75 -27,4 -36,-20 -53,0 -33,38 21,41 45,99 14,33 -40,90 -62,100 -22,9 -53,51 -60,70 -9,24 -39,55 -49,75 -20,43 -97,78 -97,34 0,-29 -41,-35 -59,-30 -50,13 -22,-17 -77,-1 -40,12 -36,66 -64,36 -35,-37 -34,-27 -76,-45 -30,-13 -73,-30 -103,-36l-126 -11 0 0c-19,17 -56,56 -65,77 -17,37 -47,69 -91,65 -17,-1 -109,44 -116,53 -43,54 -100,3 -135,29 -19,14 -74,6 -98,3 -55,-6 -22,-12 -91,8l-55 33 0 0c38,77 68,171 104,249 53,116 120,235 168,351 21,52 51,108 73,161 43,103 80,210 138,307 28,47 33,72 76,115 32,31 54,71 75,109 26,84 49,151 83,232 19,45 31,91 52,137 30,66 57,144 82,212 26,72 43,143 72,217 25,63 48,153 69,220 6,18 8,34 12,52 28,82 63,171 82,255 9,38 27,88 37,127 11,42 20,79 30,121 8,33 17,63 27,92l0 0z"/>
  <path class="fil1 str0" d="M9145 13802l126 11c30,6 73,23 103,36 41,18 40,8 76,45 28,30 23,-25 64,-36 56,-16 27,15 77,1 18,-5 59,2 59,30 0,44 77,9 97,-34 9,-20 40,-51 49,-75 8,-19 39,-61 60,-70 22,-10 76,-66 62,-100 -24,-58 -78,-60 -45,-99 17,-20 26,3 53,0 103,-14 112,-4 178,75 28,34 17,105 83,94 17,-3 55,-54 103,-66 36,-9 45,-1 82,7 6,1 10,4 16,6 81,59 91,44 183,52 36,3 56,-3 98,7 51,13 110,23 145,-28 18,-26 19,-47 55,-68 28,-16 74,-32 97,-1 11,15 8,42 49,66 18,11 80,1 106,1 66,0 79,31 144,12 27,-8 108,-4 137,0 45,6 64,-29 60,46 -2,30 -27,98 -32,142 -5,48 -9,85 -63,99 -41,11 -65,33 -42,74 6,11 10,23 10,36 9,39 41,106 -23,119 -67,13 -5,49 -70,72 -44,16 -74,77 -56,121 9,22 26,76 16,98 -15,31 -58,49 -77,86 -25,50 2,42 19,101 7,23 40,64 62,78 21,13 60,42 60,68 0,57 -13,63 1,129l2 10c60,110 61,50 116,125 31,42 21,85 77,129 32,25 71,1 120,68 21,29 187,21 278,164 27,43 50,48 93,67 33,15 138,8 170,26 69,39 62,90 104,147 20,28 28,54 50,87 6,8 9,14 15,23 30,38 54,87 112,63 25,-10 39,-24 63,-2 26,24 75,-36 108,-5 32,29 99,59 126,93 30,36 86,-18 129,-29 89,-23 82,15 155,28 32,6 143,6 156,21 13,15 -6,43 -12,65 -42,142 55,69 90,79 17,5 77,22 90,20 100,-14 83,-111 209,-31 8,5 54,19 57,21l0 0c0,-30 1,-60 25,-99 49,-80 29,-123 -28,-190 -38,-45 -78,-25 -35,-106 30,-45 -20,-61 -47,-75 -38,-20 -18,-88 0,-118 31,-51 21,-43 41,-93 12,-30 14,-121 8,-154 -6,-34 10,-153 24,-184 20,-45 18,-85 33,-130 -1,-22 10,-64 -10,-82 -19,-17 -16,-66 -5,-87 26,-50 -10,-27 -22,-86 -8,-38 37,-143 -30,-140 -70,2 -64,-72 -55,-122 -1,-7 -5,-15 -8,-21 -15,-34 17,-60 43,-55 62,13 73,5 134,-10 34,-9 36,0 58,-1 39,-2 15,1 36,7 43,14 62,1 82,-37 14,-27 1,-99 -6,-129 -11,-50 24,-84 -7,-109 -69,-57 -20,-81 -17,-117 5,-61 94,-117 95,-135 4,-60 -9,-46 17,-118l3 -7c17,-45 58,-89 57,-124 -2,-62 40,-60 11,-132 -14,-33 -14,-74 -23,-100 -13,-36 -114,-21 -149,-21 -85,0 -73,-50 -108,-49 -49,2 -47,-66 -33,-94 16,-31 18,-69 -20,-85 -60,-27 -59,-44 -101,-86 -4,-59 6,-66 -68,-73 -71,-7 -142,-69 -211,-92 -71,-24 -97,27 -140,-10 -46,-40 -83,17 -135,-13 -59,-33 -116,-75 -184,-87 -23,-4 -40,-9 -61,-14 -53,-11 -98,-33 -130,-78 -23,-32 -93,-51 -58,-88 78,-82 30,-107 67,-186 30,-64 40,-40 67,-84 21,-35 25,-43 38,-84 13,-42 13,-63 45,-97 5,-6 15,-33 19,-42 12,-34 57,-64 87,-83 28,-18 76,-20 106,-4 35,19 146,51 187,53 61,3 89,-4 136,-43 44,-37 35,-69 52,-105 26,-53 -99,50 -104,55 -19,20 -39,15 -52,19 -22,7 -59,-21 -73,-37 -26,-31 -27,-39 -61,-71 -33,-30 -27,-78 -4,-111 21,-31 49,-82 7,-111 -62,-43 3,-95 -8,-122 -15,-37 39,-96 -42,-80 -33,6 -89,-20 -112,-43 -15,-15 -13,-14 -24,-28 -35,-41 -76,15 -92,-7 -24,-32 -13,-38 -55,-86 9,-10 19,-22 31,-38 16,-22 52,-42 83,-88 29,-43 93,32 60,-64 -6,-17 12,-49 50,-39 3,-29 25,-113 -2,-130 -53,-34 -62,-19 -105,-81 -17,-6 -49,-9 -67,-5 -104,22 -94,102 -173,140 -57,28 -185,120 -246,88 -38,-20 -37,-20 -79,-30 -105,-23 -97,-13 -195,-11 -76,1 -131,15 -205,24 -36,4 -100,22 -123,-7 -43,-55 -65,-32 -116,-44 -63,-15 -132,-30 -172,39 -32,56 -79,98 -125,24 -14,-23 -35,-36 -35,-37l0 0c-50,-7 -226,-79 -207,35 9,56 -46,60 -34,95 8,22 29,43 43,72 26,56 -24,79 -16,107 16,60 23,40 26,114 -33,38 -8,112 -96,124 -66,9 -62,88 -146,77 -56,-8 -72,11 -108,49 -61,67 -62,47 -98,137 -10,25 -7,56 -37,63 -18,4 -163,31 -170,36 -45,30 9,54 -70,101 -34,20 34,33 40,33 81,-2 72,-10 155,16 5,0 18,12 24,16 20,11 32,51 25,68 -15,35 10,41 20,51 19,21 92,4 120,12 39,11 97,-24 101,-4 6,32 13,26 7,66 -34,33 -17,26 -33,51 -26,40 -95,20 -130,7 -34,-13 -100,-17 -120,23 -24,47 -7,61 0,100 2,10 -2,66 -3,76 -6,36 33,73 57,97 22,22 37,81 23,107 -20,39 -54,27 -83,11 -30,-16 -87,-14 -97,-26 -47,-54 -114,-8 -149,-18 -39,-11 -82,52 -105,75 -30,31 -9,65 -25,74 -24,13 -27,32 -67,24 -86,-19 -69,-23 -133,-72 -10,-13 -28,-23 -41,-36 -21,-21 -49,-6 -65,12 -56,62 -73,-20 -94,-48 -34,-47 -54,41 -86,-24 -15,-29 -113,81 -119,106 -8,33 -33,55 -67,41 -50,-21 -21,28 -56,39 -12,4 -23,11 -27,12 -33,9 -34,26 -57,48 -21,20 -18,54 -53,38 -23,-11 -15,26 -23,44 -17,41 -15,31 -15,72 0,41 -49,54 -71,41 -30,-17 -80,-11 -108,6 -18,11 -57,-2 -70,-11 -55,-39 -72,-13 -103,39 0,4 -3,7 -6,10 -75,100 1,98 25,150 16,34 36,61 11,98 -22,32 -31,131 -7,165 29,41 -14,52 6,84 13,22 35,24 60,28 35,6 28,7 55,19 16,7 25,51 29,62l0 0z"/>
  <path class="fil1 str0" d="M9576 9548c2,-1 59,-14 66,-22 14,-18 68,-31 102,-62 25,-23 72,-23 58,-70 -9,-31 35,-83 58,-102 55,-45 -6,-60 118,-69 66,-5 59,-8 81,-58 14,-33 5,-57 56,-61 8,-1 18,13 29,16l0 0c-1,-34 54,-20 44,-51 -14,-43 -4,-104 -33,-135 -31,-32 -34,-38 -48,-81 -18,-55 26,-35 45,-33 47,3 87,-67 108,-97l6 -1c37,-17 44,-10 79,-16 76,-13 92,97 149,122 18,8 120,-47 134,-60 31,-29 47,-44 91,-28 81,29 54,2 108,-21 80,-34 113,-41 129,-135 16,-95 72,-67 125,-87 71,-26 54,-9 114,-16 48,-5 107,13 107,-46 0,-32 -15,-47 -27,-71 -13,-28 -29,-54 -49,-78l0 0c-7,-22 -94,-14 -97,-141 -1,-30 -14,-46 -15,-64 -4,-74 60,-98 81,-142 25,-52 -15,-62 -16,-76 -1,-33 -46,-47 -49,-89 -2,-37 -64,6 -74,15 -29,25 -52,27 -77,44 -71,46 -104,6 -136,14 -30,8 -48,18 -83,26 -47,11 -109,-45 -140,-74 -42,-40 -62,-73 -74,-132 -3,-19 -6,-23 -11,-40 -28,-103 -82,-42 -144,-134 -46,-68 -25,-43 -92,-27 -73,17 -222,53 -259,-40 -11,-27 -27,-47 -41,-71 -38,-64 -27,-100 -43,-163 -2,-7 -69,-108 -69,-108 -62,-6 -36,-22 -95,-29 -40,-5 -84,9 -123,13 -106,9 -70,51 -143,86 -64,30 -79,72 -99,98l-19 -283 -5 -500c-9,0 -46,17 -56,22 -83,41 -56,33 -145,33 -53,0 -74,23 -116,60 -19,15 -32,22 -51,41 -30,30 -120,80 -160,74 -41,-6 -104,1 -140,21 -97,53 -199,-74 -280,-61 -21,3 -51,4 -80,4l0 0c-16,22 -33,70 -29,96 4,26 8,19 14,37 8,23 27,91 25,114 -3,48 -5,54 -34,94 -6,8 -57,34 -70,41 -36,18 75,85 75,118 0,45 -22,52 -55,65 -48,20 -42,7 -78,8 -79,2 -75,11 -160,-9 -48,0 -67,-10 -110,-14 -61,-5 -42,2 -91,-26 -53,-31 -66,30 -145,-5 -25,-11 -29,-20 -43,-28 -20,-11 -71,60 -80,74 -23,36 -49,25 -50,37 -4,54 55,54 20,119 -14,25 -17,24 -36,38 -21,15 -48,38 -65,54l-5 1 61 55c32,46 23,39 10,77 -8,23 -19,44 -20,69 0,27 28,64 51,77 41,24 -23,75 52,71 6,0 95,53 103,65 24,32 77,80 108,110 20,19 35,61 77,70 42,8 30,13 79,6 77,-11 84,0 149,29 22,10 167,32 120,65 -21,15 -70,38 -70,66l0 5c37,96 0,68 -7,149 -4,53 6,28 -17,84 -21,53 34,95 50,142 11,31 32,95 69,100 34,4 109,36 135,60 24,24 90,19 92,86 2,74 64,128 123,161 25,14 75,40 96,54 36,28 22,19 42,40 9,9 121,36 146,60 13,13 88,58 108,58 90,0 127,-107 186,-97 9,1 16,34 29,50 33,43 33,26 36,84 2,38 15,95 58,105 14,3 28,9 47,13 31,6 92,43 104,73 11,27 50,33 77,63 7,8 17,17 25,25l0 0z"/>
  <path class="fil1 str0" d="M9576 9548c2,-1 59,-14 66,-22 14,-18 68,-31 102,-62 25,-23 72,-23 58,-70 -9,-31 35,-83 58,-102 55,-45 -6,-60 118,-69 66,-5 59,-8 81,-58 14,-33 5,-57 56,-61 8,-1 18,13 29,16l0 0c1,21 57,37 39,175 -4,33 -15,111 23,130 10,5 38,-25 63,-33 30,-10 21,-19 49,-3 33,19 111,-40 128,48 9,46 47,27 75,42 79,41 73,51 156,14 38,-17 89,-12 126,3 15,6 20,10 37,13 22,15 99,73 123,80 54,15 58,36 115,18 15,-5 69,-25 68,0 0,4 10,57 10,75 2,67 71,108 122,136 12,7 38,31 59,43 39,23 110,86 153,88 20,1 227,59 238,69 34,30 -53,96 53,83 8,-1 122,1 127,3 15,6 11,60 13,80 10,95 -33,66 -60,143 -1,4 -3,11 -4,16 5,63 2,35 16,80 14,47 -32,67 -70,74 -17,3 12,32 -29,71 -31,29 -44,38 -81,57 -45,23 -102,55 -145,82 -37,24 -104,72 -142,86 -43,16 -57,47 -46,90 18,75 -60,98 -44,128l0 0c-50,-7 -226,-79 -207,35 9,56 -46,60 -34,95 8,22 29,43 43,72 26,56 -24,79 -16,107 16,60 23,40 26,114 -33,38 -8,112 -96,124 -66,9 -62,88 -146,77 -56,-8 -72,11 -108,49 -61,67 -62,47 -98,137 -10,25 -7,56 -37,63 -18,4 -163,31 -170,36 -45,30 9,54 -70,101 -34,20 34,33 40,33 81,-2 72,-10 155,16 5,0 18,12 24,16 20,11 32,51 25,68 -15,35 10,41 20,51 19,21 92,4 120,12 39,11 97,-24 101,-4 6,32 13,26 7,66 -34,33 -17,26 -33,51 -26,40 -95,20 -130,7 -34,-13 -100,-17 -120,23 -24,47 -7,61 0,100 2,10 -2,66 -3,76 -6,36 33,73 57,97 22,22 37,81 23,107 -20,39 -54,27 -83,11 -30,-16 -87,-14 -97,-26 -47,-54 -114,-8 -149,-18 -39,-11 -82,52 -105,75 -30,31 -9,65 -25,74 -24,13 -27,32 -67,24 -86,-19 -69,-23 -133,-72 -10,-13 -28,-23 -41,-36 -21,-21 -49,-6 -65,12 -56,62 -73,-20 -94,-48 -34,-47 -54,41 -86,-24 -15,-29 -113,81 -119,106 -8,33 -33,55 -67,41 -50,-21 -21,28 -56,39 -12,4 -23,11 -27,12 -33,9 -34,26 -57,48 -21,20 -18,54 -53,38 -23,-11 -15,26 -23,44 -17,41 -15,31 -15,72 0,41 -49,54 -71,41 -30,-17 -80,-11 -108,6 -18,11 -57,-2 -70,-11 -55,-39 -72,-13 -103,39 0,4 -3,7 -6,10 -75,100 1,98 25,150 16,34 36,61 11,98 -22,32 -31,131 -7,165 29,41 -14,52 6,84 13,22 35,24 60,28 35,6 28,7 55,19 16,7 25,51 29,62l0 0c-19,17 -56,56 -65,77 -17,37 -47,69 -91,65 -17,-1 -109,44 -116,53 -43,54 -100,3 -135,29 -19,14 -74,6 -98,3 -55,-6 -22,-12 -91,8l-55 33 0 0c-4,-8 -8,-17 -13,-25 -8,-15 -47,-116 -53,-135 -10,-34 -17,-48 -31,-80 -15,-36 -42,-85 -54,-119 -14,-39 -34,-81 -47,-119 -18,-49 -45,-78 -62,-123 -21,-55 -35,-107 -63,-160l0 -6c-9,-94 -44,-219 -61,-316 -17,-94 -40,-194 -52,-287 -7,-48 -17,-93 -24,-140 -11,-76 -23,-117 -44,-189 -15,-54 -35,-98 -49,-150 -6,-24 -17,-63 -27,-86 -27,-65 -48,-162 -50,-232 -2,-65 -19,-116 -28,-175 -5,-34 -24,-71 -32,-101 -7,-26 -53,-131 -84,-198l1 -1c20,-6 113,-25 131,-25 43,1 73,-27 47,-69 -43,-71 7,-72 36,-111 17,-23 -7,-116 -1,-143 13,-57 2,-48 47,-95 20,-37 23,-36 52,-64 69,-65 64,-29 102,-58 15,-12 18,-98 82,-56 58,39 73,-55 158,-41 38,6 74,-47 89,-38 24,14 57,-17 62,-34 35,-113 109,-21 159,-3 65,24 87,26 135,-25 51,-54 71,-35 127,-41 23,-3 50,8 61,6 29,-7 49,-30 66,-54 30,-42 27,-25 58,-47 10,-7 66,-97 72,-106 5,-5 12,-12 16,-16 13,-14 80,-33 99,-28 25,7 85,-10 103,-34 15,-20 16,-51 7,-74 -18,-49 -49,-65 -99,-80 -60,-19 -14,-129 -20,-174 -4,-34 -6,-61 7,-94 5,-12 20,-46 19,-59 -4,-41 42,-67 78,-67 17,0 46,-52 48,-60 9,-59 28,0 64,-16 26,-11 46,-77 37,-93 -20,-36 -8,-41 11,-83l0 0z"/>
  <path class="fil1 str0" d="M9576 9548c-19,41 -31,47 -11,83 9,15 -12,81 -37,93 -36,15 -54,-44 -64,16 -1,8 -31,60 -48,60 -36,0 -82,26 -78,67 1,13 -14,47 -19,59 -13,34 -12,61 -7,94 6,44 -40,155 20,174 50,15 81,31 99,80 9,23 7,54 -7,74 -17,23 -77,40 -103,34 -20,-5 -87,15 -99,28 -5,5 -11,11 -16,16 -6,9 -62,99 -72,106 -31,22 -28,5 -58,47 -17,24 -37,47 -66,54 -12,3 -39,-8 -61,-6 -55,6 -75,-13 -127,41 -49,51 -71,49 -135,25 -50,-19 -123,-110 -159,3 -5,17 -38,47 -62,34 -15,-8 -51,45 -89,38 -85,-14 -100,80 -158,41 -63,-43 -66,44 -82,56 -38,30 -33,-7 -102,58 -29,27 -32,26 -52,64 -45,48 -34,38 -47,95 -6,27 18,120 1,143 -29,39 -78,40 -36,111 26,42 -4,70 -47,69 -18,0 -111,19 -131,25l-1 1c-10,-23 -19,-41 -24,-50 -20,-38 -16,-41 -61,-66 -6,-6 -11,-10 -17,-16 -75,-67 -32,-90 -66,-143 -62,-98 -64,-198 -102,-301 -11,-31 -26,-84 -38,-111 -16,-36 -37,-83 -47,-120 -12,-42 -59,-206 -76,-234 -25,-42 -34,-48 -60,-101 -3,-6 -5,-13 -6,-20 -11,-78 1,-72 -38,-146 -36,-69 -69,-157 -98,-231 -22,-56 -52,-104 -74,-156 -9,-21 -23,-45 -31,-64 -13,-30 -62,-71 -91,-84 -27,-12 -62,-54 -87,-70 -41,-27 -86,-62 -135,-34 -94,53 -54,-48 -115,-60 -24,-4 -27,-41 -26,-61 1,-52 -15,-92 -41,-138 -7,-20 -12,-38 -19,-58 -12,-36 -30,-73 -40,-104 -6,-21 -55,-148 -64,-165 -35,-65 -54,-171 -85,-240 -19,-42 -30,-83 -47,-123 -20,-48 -42,-122 -47,-174 -9,-31 -35,-84 -50,-114 -11,-21 -33,-78 -55,-123l0 0c8,-9 43,-9 43,-33l0 0 48 54c38,43 15,22 29,47 19,35 40,40 75,29 24,-7 76,-52 103,-55 20,-2 79,-21 38,-44 -9,-5 -27,-30 -23,-46 6,-21 3,-43 27,-61 63,-46 104,-84 175,-125 78,-44 134,-74 186,-150 17,-25 43,-41 66,-59 98,-51 86,-67 123,-162 17,-44 50,-13 68,-14 24,-1 119,-2 118,30 -3,84 35,20 94,48 41,20 87,-10 74,-24 -21,-24 -48,-81 -2,-85 14,-1 7,-3 25,-3 39,0 61,-7 101,2 5,1 5,0 10,-1l-5 1 61 55c32,46 23,39 10,77 -8,23 -19,44 -20,69 0,27 28,64 51,77 41,24 -23,75 52,71 6,0 95,53 103,65 24,32 77,80 108,110 20,19 35,61 77,70 42,8 30,13 79,6 77,-11 84,0 149,29 22,10 167,32 120,65 -21,15 -70,38 -70,66l0 5c37,96 0,68 -7,149 -4,53 6,28 -17,84 -21,53 34,95 50,142 11,31 32,95 69,100 34,4 109,36 135,60 24,24 90,19 92,86 2,74 64,128 123,161 25,14 75,40 96,54 36,28 22,19 42,40 9,9 121,36 146,60 13,13 88,58 108,58 90,0 127,-107 186,-97 9,1 16,34 29,50 33,43 33,26 36,84 2,38 15,95 58,105 14,3 28,9 47,13 31,6 92,43 104,73 11,27 50,33 77,63 7,8 17,17 25,25l0 0z"/>
  <path class="fil1 str0" d="M12642 25230l114 -62c40,-26 34,-16 73,-9 35,6 36,36 107,14 43,-13 33,-51 102,-53 29,-1 30,15 75,-8 60,-30 51,-40 124,-62 32,-9 64,-52 60,-82 0,0 -16,-32 -20,-48 -15,-66 -39,-38 -5,-118 10,-23 23,-74 45,-26 28,64 140,-38 173,37 14,32 64,35 98,53 91,48 44,116 76,146 14,14 36,2 49,19 36,48 111,2 166,20 7,2 12,3 20,5 62,20 77,18 102,71 6,12 -9,38 31,64 23,15 -12,73 57,91 46,12 73,17 122,10 51,-8 89,46 130,-40 13,-26 51,-94 85,-59 21,21 87,46 118,63 23,13 118,11 88,-24 -38,-45 -54,-87 -43,-145 6,-32 -5,-30 25,-58 24,-23 6,-54 32,-90 33,-48 16,-31 60,-71 46,-42 56,-57 121,-34 52,18 92,29 142,56 27,15 85,30 121,46 33,15 58,21 88,43 25,18 62,41 88,59 79,56 192,88 266,145l144 108 0 0c8,-12 22,20 56,17 71,-6 58,-79 73,-109 29,-56 54,-15 65,-82 10,-57 -2,-50 45,-64 16,-5 52,-109 62,-131 16,-37 11,-58 18,-90 9,-47 3,-103 14,-150 -3,-38 -52,-51 -82,-53 -61,-6 -9,-102 -35,-127 -44,-43 -88,20 -102,-70 -9,-58 -55,-73 -108,-59 -54,14 -53,-49 -52,-85 1,-29 0,-40 -4,-69 -9,-61 -12,-57 -46,-104 -20,-27 -50,-40 -50,-71 1,-52 -12,-53 -53,-76 -17,-10 -30,-51 -36,-70 -7,-24 -13,-22 -21,-34 -27,-40 -7,-66 18,-105 10,-50 10,-36 36,-71 22,-29 83,-19 116,-13 88,15 55,-88 89,-130 7,-9 14,-19 19,-30l0 0c-8,-2 -49,-11 -56,-13 -22,-6 -35,-4 -51,-8 -51,-13 -114,-8 -159,-28 -55,-25 -64,-57 -119,-63 -34,-4 -167,-38 -196,-52 -63,-30 -98,-42 -167,-59 -65,-16 -52,-72 -106,-81 -57,-9 -33,26 -110,-15 -42,-8 -52,-20 -83,-29 -46,-14 -45,-16 -86,-35 -37,-17 -40,-26 -70,-47 -21,-14 -88,-23 -116,-27 -68,-10 -46,-2 -110,-28 -36,-14 -41,-22 -71,-40 -29,-17 -53,-69 -66,-64 -41,15 -33,98 -53,141 -18,39 49,83 78,97 36,17 86,-1 75,23 -16,35 -56,36 -88,36 -18,0 -41,3 -54,3 -37,-1 -62,15 -88,-8 -60,-55 -93,7 -145,-14 -25,-10 -53,-51 -59,-22 -15,80 -119,66 -126,92 -10,40 -27,56 -39,88 -10,26 -63,44 -83,39 -42,-10 -60,-25 -105,-39 -1,-2 -55,-57 -62,-65 -13,-13 -62,-23 -76,-21 -40,5 -50,10 -82,33 -1,1 -82,78 -84,80 -22,25 -89,58 -120,51 -41,-10 -109,11 -146,0 -27,-8 -91,-29 -116,-30 -167,-7 -63,-57 -107,-88 -44,-30 3,-63 -61,-85 -43,-15 -120,0 -139,-15 -39,-31 -51,-42 -81,-86l0 0 -93 31c-22,3 -58,9 -80,2 -52,-15 -119,35 -150,73 -14,17 -65,35 -87,29 -45,-13 -38,-9 -60,-47 -31,-53 -23,-104 -122,-74 -37,11 -38,-11 -48,-7 -40,16 -40,-3 -77,34 -22,22 -23,23 -58,29l-142 29 0 0c7,14 14,28 20,42 32,71 71,140 98,213 11,30 117,242 133,261 25,30 46,86 46,126 0,95 9,93 28,181 3,16 7,30 12,45 23,63 25,83 41,142 10,35 32,55 34,91 4,92 6,116 55,193 33,52 19,94 93,125 77,32 115,7 183,42 24,12 67,81 103,107 52,38 82,95 126,144 8,9 23,26 29,37 26,43 52,85 78,128 20,34 41,65 74,88 9,7 20,17 30,30l0 0z"/>
  <path class="fil1 str0" d="M12642 25230c22,28 44,65 53,87 3,7 87,139 94,147 39,47 78,94 114,143 39,54 74,89 111,150 26,42 70,82 100,125 31,45 62,79 100,118 17,17 41,48 53,68 33,77 86,123 132,193 28,42 125,163 159,198 22,22 39,46 63,70 48,47 78,102 131,148 66,58 94,113 151,174 35,37 58,86 94,129 42,50 67,81 114,127 23,23 57,67 75,94 44,75 89,110 139,174 32,41 -12,112 93,187 46,33 91,59 136,92 49,36 81,61 127,101 28,24 62,37 95,70 39,38 83,59 125,93 32,26 62,47 95,75 25,21 52,43 80,63l0 0c68,-75 125,-71 154,-113 15,-21 -21,-71 33,-70 85,2 36,1 97,-25 32,-14 97,34 127,0 40,-45 -21,-52 21,-110 36,-50 11,-86 -52,-70 -61,16 -50,-22 -23,-55 32,-39 -32,-56 -13,-81 52,-67 74,13 130,-61 24,-32 12,-36 49,-74 26,-59 45,-44 70,-98 26,-58 -7,-76 45,-127 24,-23 102,15 112,-12 13,-34 -33,-83 -54,-104 -9,-10 -44,-102 -49,-120 -6,-22 -32,-57 -48,-72 -42,-40 105,-62 127,-78 24,-18 47,12 63,31 21,27 23,22 41,40 17,17 64,-29 93,-36 32,-8 62,-36 67,-70 7,-49 20,-65 39,-106 30,-67 60,-61 17,-135 -9,-24 -21,-59 -27,-84 -13,-63 -67,-116 -118,-153 -63,-46 -15,-91 -98,-164 -69,-60 -57,-54 -101,-129 -11,-19 -24,-42 -43,-54 -100,-64 -16,-69 -43,-131 -37,-87 8,-89 -81,-167 -30,-53 -56,-22 -59,-125 -2,-58 -62,-45 -46,-65 23,-30 54,-17 82,-5 59,27 80,-61 83,-103 2,-21 3,-32 6,-36l0 0 -144 -108c-74,-57 -187,-89 -266,-145 -26,-19 -63,-41 -88,-59 -30,-22 -55,-29 -88,-43 -36,-16 -94,-31 -121,-46 -50,-27 -90,-38 -142,-56 -66,-23 -75,-8 -121,34 -44,40 -27,23 -60,71 -25,37 -7,68 -32,90 -30,28 -19,26 -25,58 -11,58 5,101 43,145 30,35 -65,37 -88,24 -31,-17 -97,-42 -118,-63 -35,-35 -73,33 -85,59 -42,86 -79,32 -130,40 -49,7 -76,2 -122,-10 -69,-19 -34,-76 -57,-91 -40,-27 -26,-53 -31,-64 -25,-54 -41,-51 -102,-71 -7,-3 -13,-3 -20,-5 -55,-18 -130,28 -166,-20 -13,-18 -35,-6 -49,-19 -32,-30 15,-98 -76,-146 -34,-18 -84,-21 -98,-53 -33,-76 -145,27 -173,-37 -21,-49 -35,3 -45,26 -34,80 -10,52 5,118 4,17 20,48 20,48 4,31 -28,73 -60,82 -73,22 -64,32 -124,62 -46,23 -47,7 -75,8 -68,2 -58,39 -102,53 -71,22 -72,-8 -107,-14 -39,-7 -33,-16 -73,9l-114 62 0 0z"/>
  <path class="fil1 str0" d="M11695 21590c75,-43 36,-33 79,-66 34,-27 32,-7 77,-24 25,-9 28,-7 53,-24 8,-6 83,-2 94,1 35,9 47,-31 100,1 11,7 88,38 77,-5 -12,-46 -26,-81 12,-114 55,-47 -2,-110 102,-106 23,1 42,-13 53,-33 8,-14 43,-44 58,-30 50,49 45,-64 82,-79 74,-31 53,-3 121,8 62,9 111,-14 159,49 26,34 35,75 83,75l6 0c24,-14 49,-27 75,-37 0,0 33,-21 43,-26 57,-29 48,-20 95,7 23,13 -15,60 22,67 56,12 55,149 117,88 37,-37 55,-39 106,-33 37,5 36,37 77,-9 48,-55 116,-25 163,13 32,27 92,-19 130,-17 18,1 29,-3 48,8 25,14 87,11 125,46 8,8 18,11 33,26 54,54 151,33 165,84 6,21 21,63 51,44 0,0 56,-59 64,-67l3 -4 62 -39 0 0c0,-44 11,-50 11,-79 0,-21 16,-44 33,-52 59,-26 33,-64 120,-83 28,-6 53,-35 45,-62 -28,-97 -91,-82 -114,-159 -13,-41 -48,55 -51,65 -8,29 -38,37 -57,22 -31,-25 -62,-44 -100,-62 -5,-4 -22,-15 -28,-18 -44,-24 -47,-36 -79,-62 -17,-14 -48,-83 -59,-108 -13,-33 -45,-16 -57,-20 -40,-13 -21,-87 -23,-92 -8,-20 8,-68 -5,-97 -11,-23 -11,-62 10,-77 25,-17 23,-65 17,-93 -7,-28 -8,-64 -8,-93 1,-40 -3,-68 34,-92 86,-56 101,78 134,55 17,-12 19,-57 15,-71 -21,-78 22,-72 22,-89 -1,-19 -15,-36 -25,-58 -21,-19 -54,-46 -77,-64 -40,-30 -37,-49 -56,-86 -25,-51 -22,-143 -40,-171 -40,-64 -102,-59 -166,-80 -18,-6 -72,-67 -81,-85 -15,-29 -43,-62 -61,-88 -12,-18 -50,-49 -58,-61 -17,-25 -42,-43 -56,-62 -23,-32 -36,-35 -60,-58 -30,-29 -68,-51 -102,-74 -69,-47 -60,-40 -144,-72 -55,0 -61,-3 -112,22 -18,9 -20,7 -34,12 -20,8 -50,1 -65,-13 -37,-32 -78,-53 -119,-79 -28,-17 -72,-37 -103,-48 -26,-9 -37,-24 -44,-27 -51,-21 -32,-48 -90,-29 -37,12 -45,14 -82,21 -27,5 -74,-12 -94,-29 -25,-21 1,-8 -51,-38l0 0c-5,0 -10,0 -16,0 -17,0 -44,-13 -51,-4 -16,22 -6,72 -56,60 -42,-10 -31,-6 -74,-6 -22,0 -45,14 -51,12 -26,-11 -31,65 -37,73 -41,63 -32,28 -50,32 -37,9 -65,-4 -60,39 4,34 -7,29 -15,45 -13,29 -18,22 -35,29 -34,14 -52,-39 -57,-63 -12,-64 -91,-64 -110,-84 -40,-42 -20,-151 -107,-125 -41,12 -32,-5 -69,2 -61,11 -64,47 -132,23 -26,-9 -91,11 -104,30 -28,41 -33,30 -60,51 -30,24 -38,13 -60,19 -11,3 -91,3 -100,0 -66,-20 -44,7 -117,-43l-70 -42 0 0c12,43 20,89 -7,127 -35,50 -35,189 -25,246 10,55 12,74 38,124 26,49 17,96 11,149 -5,23 -31,172 28,160 32,-6 94,-20 108,24 3,10 -16,68 -18,90 -7,69 -45,204 29,248 55,33 84,77 76,142 -4,34 -10,79 -16,113 3,108 -3,136 -27,209l0 0 72 52c64,3 44,8 103,-8 15,-4 46,-3 71,-11 75,-25 48,45 54,60 19,50 81,8 62,95 -8,35 23,127 73,127 72,0 43,33 92,45 32,8 46,33 36,65 -6,18 -11,37 -14,57 -28,50 -12,39 -26,69 -14,30 -61,95 -45,128 16,32 70,30 60,129 -5,46 -24,105 21,141l0 0z"/>
  <path class="fil1 str0" d="M11695 21590c3,45 -8,100 29,134 23,21 24,85 -9,99 -19,8 -79,68 -94,85 -14,17 -111,65 -82,114 15,26 100,28 125,22 32,-8 61,7 94,-13 7,-4 29,-4 44,-17 12,-10 64,-26 82,-25 34,2 56,-54 60,-82 1,-8 45,-29 53,-33 27,-15 63,-8 85,12 34,33 41,0 95,15 39,11 70,23 106,42 48,25 157,-43 159,30 0,9 -23,58 -13,69 31,36 22,38 38,59 22,29 39,18 36,78 -4,75 36,66 100,69 46,2 28,67 5,86 -3,2 -41,45 -43,49 -28,53 -22,29 -20,92 1,40 -86,96 -75,130 13,40 26,8 22,84 -4,86 71,23 150,121 17,21 24,29 38,54 29,57 42,69 -31,83 -66,13 28,79 -68,101 -17,4 -30,21 -63,13 -54,-13 -61,34 -104,47 -2,1 -38,25 -40,27l0 0c30,43 42,54 81,86 19,15 96,1 139,15 64,22 18,55 61,85 44,31 -60,81 107,88 25,1 90,22 116,30 36,11 104,-10 146,0 31,7 97,-25 120,-51 2,-2 83,-79 84,-80 33,-24 43,-28 82,-33 14,-2 63,8 76,21 7,7 61,63 62,65 45,14 63,28 105,39 20,5 73,-13 83,-39 13,-32 29,-49 39,-88 7,-27 111,-12 126,-92 5,-28 33,12 59,22 53,22 85,-41 145,14 26,23 51,7 88,8 13,0 37,-3 54,-3 32,0 72,-1 88,-36 11,-24 -39,-6 -75,-23 -29,-14 -97,-58 -78,-97 20,-42 11,-125 53,-141 13,-5 37,47 66,64 30,18 35,26 71,40 65,26 42,18 110,28 28,4 95,13 116,27 30,20 33,29 70,47 40,19 39,22 86,35 31,9 41,21 83,29 77,41 53,6 110,15 54,9 41,65 106,81 68,17 103,29 167,59 29,14 162,48 196,52 56,6 65,38 119,63 45,21 108,15 159,28 15,4 29,2 51,8 6,2 47,11 56,13l0 0c15,-29 25,-65 24,-93 -1,-64 31,-52 67,-99 44,-57 13,-52 82,-86 69,-35 83,-37 121,-106 63,-115 66,-84 54,-225 -2,-7 -1,-4 -1,-10 -1,-64 -72,-54 -68,-69 12,-37 60,-37 73,-50 59,-60 87,-98 58,-182 -19,-54 -1,-80 25,-127 20,-36 7,-62 14,-89 6,-27 11,-37 16,-49l0 0c-2,-1 -96,-33 -108,-38 -28,-12 -75,-34 -107,-23 -31,10 -51,0 -60,-33 -15,-51 -50,-55 -57,-78 -28,-85 48,-111 32,-148 -11,-25 4,-83 19,-104 16,-22 23,-97 33,-122 8,-21 37,-94 31,-114 -10,-30 -20,-37 -31,-70 -26,-33 -50,-40 -66,-78 -18,-41 -43,-42 -48,-50 -32,-54 37,-76 -6,-115 -33,-30 -65,-65 -108,-77 -39,-11 -87,-16 -116,-47 -17,-18 -70,-29 -89,-25 -31,7 -145,0 -183,0 -53,0 -87,-7 -141,-12 -50,-2 -146,23 -195,39 -56,18 -60,30 -88,77 -23,38 -14,130 16,160 31,31 -57,44 -68,44 -55,-1 -122,4 -174,23 -30,11 -53,-26 -68,-48 -25,-35 -78,-54 -119,-57 -45,-3 -63,1 -105,4 -55,4 -88,-17 -132,-47l0 0 -62 39 -3 4c-9,8 -64,67 -64,67 -30,19 -45,-22 -51,-44 -14,-51 -111,-30 -165,-84 -15,-15 -24,-18 -33,-26 -37,-34 -100,-32 -125,-46 -19,-11 -30,-7 -48,-8 -38,-2 -98,44 -130,17 -47,-39 -114,-68 -163,-13 -41,46 -40,14 -77,9 -51,-6 -69,-4 -106,33 -62,61 -60,-76 -117,-88 -37,-8 1,-55 -22,-67 -47,-27 -38,-36 -95,-7 -10,5 -43,26 -43,26 -26,10 -51,23 -75,37l-6 0c-48,0 -57,-42 -83,-75 -48,-63 -97,-40 -159,-49 -68,-10 -47,-38 -121,-8 -37,15 -32,128 -82,79 -15,-15 -50,15 -58,30 -11,20 -30,34 -53,33 -104,-4 -47,59 -102,106 -38,33 -24,68 -12,114 11,43 -66,11 -77,5 -53,-32 -64,8 -100,-1 -10,-3 -85,-7 -94,-1 -24,17 -28,15 -53,24 -44,16 -42,-3 -77,24 -43,34 -4,24 -79,66l0 0z"/>
  <path class="fil1 str0" d="M14226 21394c43,30 76,51 132,47 42,-3 59,-7 105,-4 41,3 94,21 119,57 15,21 39,59 68,48 51,-19 119,-25 174,-23 11,0 99,-13 68,-44 -30,-30 -39,-122 -16,-160 28,-47 32,-59 88,-77 50,-16 145,-41 195,-39 54,5 88,12 141,12 38,0 152,7 183,0 19,-4 72,7 89,25 29,31 77,36 116,47 43,12 75,48 108,77 43,39 -26,61 6,115 5,8 30,9 48,50 17,38 40,46 66,78 12,34 22,40 31,70 6,19 -22,93 -31,114 -10,25 -17,101 -33,122 -15,21 -29,80 -19,104 16,37 -60,63 -32,148 8,23 43,27 57,78 9,33 30,43 60,33 32,-10 79,12 107,23 11,5 106,36 108,38l0 0c4,-11 7,-24 9,-54 0,-31 -20,-56 -20,-72 0,-45 24,-43 45,-55 55,-33 58,-37 74,-101 7,-27 -17,-95 24,-82 48,15 38,23 85,12 23,-5 45,-86 54,-108 39,-94 24,-102 30,-192 2,-36 35,-85 26,-109 -24,-62 -37,-57 12,-120 10,-35 29,-67 48,-98 16,-26 36,-46 50,-66 27,-40 45,-37 88,-22 124,44 86,-72 114,-109 17,-22 31,-83 24,-108 -14,-46 98,-105 36,-136 -53,-27 -20,-44 -34,-48 -15,-5 -61,33 -104,33 -15,0 -58,-53 -62,-61 -24,-56 -43,-50 -43,-123 -1,-17 -7,-22 -18,-34 -108,-108 -12,-92 -9,-142 4,-76 68,-101 12,-101 -30,0 -40,-8 -44,-8 -61,-1 -86,199 -149,87 -38,-67 -17,-101 -98,-67 -26,11 -41,13 -65,23 -55,24 -148,145 -219,94 -119,-86 -140,19 -195,-74 -26,-44 -33,-35 -64,-62 -46,-41 -12,-90 -114,-77 -34,4 -91,20 -121,0 -26,-18 -55,-18 -42,-54 19,-52 34,-78 45,-134 7,-34 0,-105 38,-127 14,-8 18,-15 29,-25 66,-63 53,-85 95,-153 3,-17 5,-28 3,-45 -8,-68 2,-82 30,-141 16,-32 69,-97 74,-119 11,-57 14,-69 42,-121 30,-56 -43,-86 -26,-107 29,-35 39,-8 80,-62 18,-24 23,-110 -5,-123 -45,-19 -60,9 -76,-62 -3,-36 -27,-96 21,-112 69,-24 16,-87 -40,-88 -65,-1 -35,-105 -16,-138 28,-49 -48,-50 25,-116 27,-24 22,-48 39,-77 5,-9 49,-111 51,-119 17,-67 40,-32 88,-58 54,-29 66,-57 92,-112 6,-15 5,-27 2,-42 -3,-15 -39,-56 -51,-68 -96,-101 16,-176 2,-228 -21,-75 -151,-141 -196,-213 -17,-28 -64,-63 -79,-83 -13,-17 -49,-43 -53,-49 -15,-20 -26,-84 -34,-106 21,-57 51,-73 107,-82 43,-7 84,-12 114,-45 30,-32 47,-35 88,-28 14,3 84,40 87,37 38,-33 39,-112 42,-158 1,-22 -5,-156 -10,-172 -4,-13 -1,-34 0,-45 2,-41 64,-111 73,-138 11,-32 61,-92 5,-108 -46,-14 -27,-13 -55,-35 -21,-15 -103,26 -113,15 -20,-23 -20,-79 -18,-104 -3,-37 -19,-132 -50,-157 -91,-75 -26,-134 -77,-191 -40,-46 -29,-131 -6,-183 31,-69 8,-74 -58,-74 -45,0 -92,-6 -134,-5 -43,1 -93,6 -134,-7 -21,-7 -61,34 -80,46 -34,21 -63,53 -91,71 -84,55 -158,117 -253,153 -42,16 -57,6 -83,12 -40,10 -34,2 -73,35 -17,13 -36,23 -51,39 -34,35 -35,39 -77,68 -52,36 -52,36 -19,80 11,15 10,29 2,44l0 0c9,6 40,35 44,45 3,7 25,66 25,66 17,28 -9,54 -33,56 -47,6 -94,11 -139,25 -27,8 -87,10 -100,31 -26,41 75,78 98,93 31,21 107,36 139,19 19,-10 19,-8 34,-15 27,-12 45,26 41,44 -13,48 -5,25 31,34 14,3 70,70 66,84 -10,32 -27,32 -51,35 -73,9 -91,7 -164,-12 -5,0 -6,0 -11,0 -42,4 -85,13 -128,10 -80,-5 -87,40 -154,67 -65,26 -71,-1 -104,12 -67,26 -100,-22 -130,-25 -64,-7 -59,-24 -101,-38 -48,-15 -45,-43 -90,-18 -22,12 -74,111 -87,138 -15,30 -30,51 -50,79 -6,11 -18,25 -27,34 -48,49 -67,70 -92,134 -21,54 -85,78 -101,149 -13,62 -23,36 -64,27 -4,-1 -120,-44 -127,-47 -43,-20 -65,48 -57,86 15,75 -1,52 -52,66 -48,13 -49,4 -90,7 -28,2 -63,-16 -65,21 -3,59 67,90 111,115 34,19 82,36 119,51 33,13 116,22 55,65 -37,26 -67,8 -98,-14 -30,-21 -42,-45 -79,-57 -62,-20 -38,-16 -102,-16 -30,0 -46,37 -49,63 -6,43 -42,70 -41,92 1,30 3,18 -4,59 -6,4 -9,8 -12,15 -40,92 -103,12 -147,39 -55,34 -32,26 -91,21 -61,-5 -26,77 -31,111 -5,40 0,20 5,48 7,34 -83,74 -102,120 -15,35 -21,24 -43,32 -46,18 -18,54 -1,77 31,45 -55,21 -70,13 -40,-20 -22,-14 -65,-25 -53,-13 -62,14 -83,8 -26,-7 -31,-6 -58,-6 -78,0 -81,115 -81,172 0,20 12,54 9,61 -3,7 -5,46 -6,58 -5,53 -6,63 -38,114l0 0c52,30 26,16 51,38 20,17 67,35 94,29 37,-7 45,-9 82,-21 59,-19 39,8 90,29 7,3 19,18 44,27 31,11 75,31 103,48 41,25 83,46 119,79 15,13 45,21 65,13 14,-6 16,-4 34,-12 51,-24 57,-22 112,-22 84,31 75,25 144,72 34,23 72,45 102,74 24,23 37,26 60,58 13,19 38,37 56,62 8,12 46,43 58,61 18,26 46,58 61,88 9,18 63,79 81,85 64,21 126,16 166,80 17,28 14,120 40,171 18,37 16,57 56,86 23,17 56,44 77,64 10,22 24,39 25,58 1,17 -43,11 -22,89 4,15 2,60 -15,71 -34,24 -49,-111 -134,-55 -37,24 -33,52 -34,92 -1,29 1,65 8,93 6,28 8,76 -17,93 -21,15 -21,54 -10,77 14,29 -3,77 5,97 2,6 -16,80 23,92 12,4 44,-13 57,20 10,25 41,94 59,108 32,26 36,39 79,62 5,3 22,14 28,18 37,17 68,37 100,62 19,16 49,8 57,-22 3,-10 38,-106 51,-65 24,77 86,62 114,159 8,26 -17,56 -45,62 -87,19 -61,57 -120,83 -17,8 -33,31 -33,52 0,30 -11,36 -11,79l0 0z"/>
  <path class="fil1 str0" d="M10830 19066c-57,-70 -16,-95 -42,-159 -10,-25 -27,-45 14,-27 28,13 35,111 72,138 11,8 10,39 -13,45l-30 4zm306 1576c-5,14 -10,30 -16,48 -14,41 -51,63 -77,95 -19,24 -86,-14 -104,-34 -32,-34 -68,-85 -71,-133 -3,-58 11,-85 -2,-142 -22,-94 -8,-95 43,-175 27,-43 10,-72 23,-118l1 -4c19,-36 112,-214 70,-246 -77,-59 -199,19 -148,-179 18,-71 29,-187 8,-258 -17,-59 -12,-79 -12,-138 -13,-66 1,-114 -11,-167 -11,-50 -125,-127 -131,-146 -16,-48 5,-96 -14,-146 -13,-34 -3,-37 -42,-65 -34,-24 -92,12 -79,72 16,75 36,116 43,198 6,60 6,71 32,125 8,17 68,320 14,243 -14,-20 -40,-139 -51,-176 -10,-34 -20,-64 -25,-99 -8,-57 -32,-87 -35,-144 -5,-80 -36,-99 -16,-182 14,-57 1,-102 -61,-112 -7,-1 -20,0 -34,-1l0 0c0,1 6,67 7,76 2,34 -1,42 -12,74l-17 57 0 0c5,9 10,18 16,27 15,20 20,48 29,69 -25,10 -20,10 -36,-10 -23,-30 -15,-41 -22,-56l0 0c-6,25 -34,69 -30,100 4,34 16,61 19,90 4,48 4,55 -28,95l-39 37 0 0c6,70 13,141 29,215 13,58 14,124 26,179 5,24 6,49 9,73 10,57 23,93 28,153 4,45 14,96 19,143 13,120 9,242 9,363 0,123 49,243 64,363 1,8 1,13 2,20 12,79 48,172 60,251 11,71 38,146 51,218 13,70 47,203 78,264 11,23 26,57 38,82 28,62 52,142 84,203 9,17 22,53 29,72 22,49 52,97 73,149 23,55 56,110 75,169 20,61 73,147 98,214 30,80 79,162 113,243 32,78 67,160 98,239 21,53 47,112 66,165l1 4c26,47 54,93 78,140l0 0 142 -29c34,-7 36,-7 58,-29 37,-37 37,-17 77,-34 10,-4 11,19 48,7 98,-31 91,21 122,74 22,38 15,34 60,47 22,6 72,-12 87,-29 32,-38 98,-88 150,-73 22,6 58,1 80,-2l93 -31 0 0c1,-2 38,-26 40,-27 43,-13 50,-60 104,-47 33,8 46,-9 63,-13 96,-23 2,-89 68,-101 72,-14 60,-26 31,-83 -13,-25 -21,-33 -38,-54 -79,-98 -155,-35 -150,-121 4,-76 -9,-44 -22,-84 -11,-34 76,-91 75,-130 -2,-62 -8,-38 20,-92 2,-4 40,-46 43,-49 22,-19 40,-84 -5,-86 -63,-3 -104,6 -100,-69 3,-61 -14,-49 -36,-78 -16,-21 -8,-23 -38,-59 -10,-11 14,-60 13,-69 -2,-73 -111,-5 -159,-30 -36,-19 -68,-31 -106,-42 -55,-15 -61,18 -95,-15 -21,-21 -58,-27 -85,-12 -8,4 -52,26 -53,33 -4,27 -25,84 -60,82 -18,-1 -69,15 -82,25 -15,13 -36,13 -44,17 -34,20 -62,5 -94,13 -25,6 -110,4 -125,-22 -29,-49 68,-97 82,-114 15,-17 75,-77 94,-85 33,-14 32,-78 9,-99 -37,-34 -26,-89 -29,-134l0 0c-45,-36 -26,-95 -21,-141 10,-98 -44,-97 -60,-129 -16,-33 31,-98 45,-128 14,-30 -2,-19 26,-69 2,-19 8,-38 14,-57 10,-32 -4,-57 -36,-65 -49,-12 -20,-45 -92,-45 -50,0 -81,-93 -73,-127 20,-88 -43,-46 -62,-95 -6,-15 22,-86 -54,-60 -25,8 -56,7 -71,11 -59,16 -39,11 -103,8l-72 -52 0 0z"/>
  <path class="fil1 str0" d="M10622 18731c-47,-32 -50,-43 -74,-89 -25,-47 5,-82 52,-51 23,15 15,46 61,66 30,13 6,81 -10,83l-29 -9zm-179 26c-18,-1 -37,-7 -42,-29 -7,-33 47,-40 14,-98 -16,-28 -9,9 -16,-41 -5,-33 -24,-51 -55,-27 -46,36 -34,16 -9,98 22,70 41,141 58,213 7,30 14,62 27,90l0 0 17 -57c11,-32 15,-40 12,-74 -1,-9 -7,-75 -7,-76l0 0zm-113 559l39 -37c31,-40 32,-47 28,-95 -2,-29 -14,-56 -19,-90 -4,-31 24,-75 30,-100l0 0c-5,-10 -17,-22 -50,-42 -16,-10 -36,-34 -36,-53 -2,-58 -52,-86 -54,-159 -2,-53 -33,-39 -17,-109 3,-12 6,-42 7,-55 -6,-28 -12,-69 -26,-94 -8,-14 -8,-71 -11,-96 -6,-42 2,-112 -50,-112 -6,0 -12,0 -18,0l-29 10c0,81 5,98 40,174 32,94 59,198 78,295 9,44 20,90 28,135 2,12 5,21 6,34 15,60 30,116 37,177 9,74 14,146 19,217l0 0zm-655 -2289c18,53 39,103 60,159 25,66 38,112 57,179 11,39 24,69 33,111 5,24 11,44 15,69 36,76 59,156 93,231 4,8 35,102 36,111 6,34 25,81 26,118 2,55 25,122 28,187 1,36 33,61 67,61 40,-40 60,-49 53,-107 -2,-20 -12,-39 -15,-66 -7,-66 1,-55 -23,-119 -12,-30 -7,-47 -30,-83 -20,-30 -28,-68 -32,-103 -2,-14 -41,-94 -48,-117 -5,-15 -10,-29 -15,-44 -31,-88 -30,-81 -37,-168 0,-1 -22,-157 10,-107 11,17 25,70 41,99 12,21 56,120 64,128 23,22 83,-38 75,80 -4,62 -25,77 16,137 42,62 -21,173 40,201 49,23 59,98 48,144 55,60 49,92 82,135 32,42 113,50 126,143 5,35 0,109 43,110 53,1 39,-2 93,10 38,9 125,9 150,40 41,50 53,104 89,150 25,32 32,80 57,115 9,46 34,82 48,131 4,16 10,32 15,49l0 0 70 42c74,51 52,24 117,43 9,3 89,3 100,0 23,-7 31,4 60,-19 27,-21 32,-11 60,-51 13,-19 78,-39 104,-30 68,24 71,-13 132,-23 37,-6 28,10 69,-2 87,-26 67,83 107,125 19,20 98,20 110,84 4,24 23,77 57,63 17,-7 22,0 35,-29 7,-16 19,-11 15,-45 -5,-42 23,-30 60,-39 17,-4 9,32 50,-32 6,-9 11,-84 37,-73 5,2 29,-12 51,-12 42,0 31,-4 74,6 50,12 40,-37 56,-60 6,-9 34,4 51,4 5,0 10,0 16,0l0 0c32,-50 33,-61 38,-114 1,-12 3,-51 6,-58 3,-7 -9,-41 -9,-61 0,-57 3,-172 81,-172 27,0 31,-1 58,6 21,6 30,-21 83,-8 44,11 26,5 65,25 15,8 101,31 70,-13 -16,-24 -45,-60 1,-77 22,-9 28,3 43,-32 20,-46 109,-87 102,-120 -6,-27 -11,-8 -5,-48 5,-34 -30,-116 31,-111 59,5 35,13 91,-21 44,-27 107,53 147,-39 3,-7 6,-11 12,-15 7,-41 5,-29 4,-59 -1,-22 35,-49 41,-92 4,-27 19,-63 49,-63 63,0 39,-4 102,16 37,12 49,35 79,57 31,22 62,40 98,14 61,-43 -23,-51 -55,-65 -36,-15 -85,-32 -119,-51 -44,-24 -114,-55 -111,-115 2,-37 37,-20 65,-21 40,-2 42,6 90,-7 52,-14 67,9 52,-66 -7,-38 14,-107 57,-86 8,4 123,46 127,47 41,9 51,35 64,-27 15,-71 79,-96 101,-149 25,-65 44,-85 92,-134 9,-9 21,-23 27,-34 20,-29 35,-49 50,-79 13,-27 66,-125 87,-138 45,-25 42,2 90,18 42,13 37,31 101,38 30,3 64,51 130,25 33,-13 39,15 104,-12 68,-28 75,-73 154,-67 44,3 86,-6 128,-10 5,0 6,0 11,0 73,18 91,21 164,12 25,-3 41,-4 51,-35 5,-15 -52,-81 -66,-84 -36,-9 -44,14 -31,-34 5,-17 -14,-55 -41,-44 -15,7 -15,5 -34,15 -32,17 -108,1 -139,-19 -23,-15 -123,-52 -98,-93 13,-21 73,-22 100,-31 45,-14 92,-20 139,-25 23,-3 49,-28 33,-56 0,0 -22,-59 -25,-66 -4,-10 -35,-39 -44,-45l0 0c-26,47 -130,89 -162,97 -37,9 -67,34 -91,41 -51,15 -136,122 -187,90 -19,-12 -72,-34 -94,-42 -27,-10 -50,-10 -71,-18 -82,-30 -69,31 -121,-4 -30,-20 -58,-6 -81,-6 -16,0 -33,-47 -34,-58 -7,-44 -65,-88 -94,-117 -4,-10 -46,-48 -54,-52 -35,-20 -51,-54 -44,-94 10,-53 -44,-26 -67,-10 -30,20 -50,24 -65,19l0 0c-27,47 -78,39 -123,77 -18,2 -51,-25 -72,-31 -23,-7 -37,-22 -46,-23 -51,-6 -83,42 -133,42 -11,0 -89,40 -101,48 -71,43 -80,-72 -178,-20 -74,40 -75,11 -128,25 -61,16 -32,9 -93,9 -56,0 -57,-23 -103,-14 -106,21 -79,-114 -132,-74 -42,33 -53,32 -101,49 -49,17 -54,11 -102,-13 -30,-9 -28,-30 -88,-41 -109,-20 -66,-38 -109,-72 -23,-18 -37,-62 -81,-30 -70,51 -17,92 -79,92 -64,0 -71,-24 -159,-12 -86,12 -50,5 -127,-5 -43,-5 -70,-15 -110,-22 -48,-9 -72,-7 -118,-7 -95,0 -91,-36 -182,14 -69,38 -115,-24 -149,47 -24,51 -57,61 -89,93 -8,8 -35,66 -36,78 -2,24 -17,28 -26,38 -41,45 -124,56 -180,70 -33,8 -82,50 -90,84 -12,54 -65,41 -94,61 -31,22 -84,69 -72,112 7,27 9,47 -26,45 -27,-1 -89,25 -111,38 -68,42 -81,-18 -102,-34 -29,-21 -38,-58 -38,-93 0,-35 -62,-26 -85,-22 -19,4 -98,-4 -116,-10 -26,-8 -43,2 -61,22 -54,60 -82,25 -140,49 -17,7 -49,15 -65,20l-126 52 0 0z"/>
  <path class="fil1 str0" d="M3937 5791l56 -42c90,27 63,13 84,-16 0,-1 -14,-49 -14,-56 0,-38 -9,-74 -9,-117 0,-27 4,-101 -2,-122 -22,-70 -10,-60 -53,-125 -12,-19 -45,-80 -15,-96 3,-2 62,4 87,-4 49,-14 74,-8 122,-46 55,-43 31,-51 73,-102 36,-44 44,-21 71,-27 21,-5 38,3 72,-12 26,-12 43,-13 69,-28 8,-5 22,-11 31,-15 38,-26 38,-15 69,-30 43,-21 38,-39 42,-87 2,-24 29,-80 53,-89 25,-9 87,-94 116,-68 28,25 104,49 140,39 24,-7 118,-52 137,-69 44,-39 32,8 87,-31 17,-12 20,-62 75,-59 10,1 13,15 42,16 24,1 95,2 117,4l0 0c-2,-31 34,-64 54,-81l5 -5c22,-39 13,-54 -17,-77 -52,-39 -30,-59 -51,-93 -50,-79 -57,-57 12,-138 42,-49 34,-124 -38,-135 -93,-15 -56,-49 -125,-58 -75,-10 -53,-43 -70,-64 -31,-36 -82,-87 -64,-141 15,-45 11,-61 14,-110 -2,-5 -1,-12 -1,-17 0,-36 -12,-80 38,-79 49,1 75,20 127,28 71,11 67,-28 106,-50 50,-28 43,-62 29,-115 -21,-78 16,-83 -79,-83 -67,0 -61,-47 -112,-24 -74,33 -71,34 -109,106 -21,40 -18,84 -71,94 -81,16 -85,-16 -109,-81 -22,-60 -22,-101 -93,-111 -124,-18 -92,-38 -121,-127 -12,-37 -91,4 -126,-27 -19,-16 -40,-116 -46,-144 -9,-43 -14,-40 -3,-93 46,18 173,-95 196,-86 22,9 5,-4 37,17 25,17 65,-3 110,-18 -1,-6 -43,-43 -44,-47 -31,-67 -129,-39 -132,-76 -4,-59 -63,-11 -95,-72 -8,-16 -43,-27 -54,-22 -40,21 -44,34 -65,68 -16,26 -62,120 -79,130 -37,19 -99,85 -139,54 -23,-18 -42,0 -59,-27 -18,-29 -9,-24 -39,-58 -1,-15 -22,-44 -18,-73 15,-119 -35,-26 -35,-128 0,-66 -120,-22 -153,-10 -96,34 -88,-36 -142,-76 -68,-50 69,-105 57,-172 -10,-56 -50,-28 -46,-70 3,-33 -78,-10 -93,-4 -29,11 -92,6 -110,-22 -43,-68 -60,-50 -98,-93 -26,-28 -62,-3 -70,31 -11,48 3,57 -20,110 -20,46 -90,40 -135,40 -45,0 -104,-46 -109,-92 -6,-61 81,-51 85,-80 3,-25 -9,-17 0,-67l0 -7c-2,-70 -33,-68 -91,-60 -52,7 -49,-2 -108,18 -34,12 -92,10 -71,-43 19,-50 -12,-20 -31,-42 -19,-21 -42,-50 -75,-44 -51,9 38,-92 47,-99 21,-16 66,-88 67,-111 1,-49 4,-45 -13,-90 -9,-23 -40,-11 -66,-11 -9,0 -25,39 -30,49 -17,34 -86,43 -113,34 -52,-16 -74,-31 -131,-31 -15,0 -59,21 -67,28 -22,20 -130,49 -162,60 -37,13 -34,1 -75,24l-162 83 0 0c4,10 11,28 16,38 14,60 22,71 53,118 19,28 48,110 56,144 19,78 57,150 96,220 37,67 63,150 87,222 17,52 69,111 91,176 9,74 38,157 73,223 32,59 46,154 78,223 20,43 47,83 71,126 39,70 22,86 45,142 16,39 64,54 89,122 16,44 41,93 63,138l4 7c19,69 51,132 90,192 28,43 49,22 87,55 16,14 44,68 53,89 29,62 55,144 82,210 21,51 53,127 69,177 19,64 59,133 93,191 18,49 36,105 60,152 16,33 28,81 45,116 5,11 57,163 59,174 24,104 84,246 130,342 18,37 43,107 64,140 12,18 20,34 29,53 17,38 34,72 52,105l0 0z"/>
  <path class="fil1 str0" d="M6031 8010c-8,-19 -15,-30 -16,-50 -3,-37 2,-68 43,-79 22,-6 30,1 30,-31 0,-21 8,-45 -11,-58 -7,-5 -30,-34 -23,-45 6,-9 43,-39 48,-9 3,16 -2,29 3,49 2,10 2,68 0,79 -3,17 18,35 34,39 22,6 44,35 36,58 -11,31 -18,29 -48,24 -31,-5 -49,-30 -73,-7 -20,19 39,28 -11,44 -3,1 -7,-1 -10,-2l-1 -11zm93 81l48 54c38,43 15,22 29,47 19,35 40,40 75,29 24,-7 76,-52 103,-55 20,-2 79,-21 38,-44 -9,-5 -27,-30 -23,-46 6,-21 3,-43 27,-61 63,-46 104,-84 175,-125 78,-44 134,-74 186,-150 17,-25 43,-41 66,-59 98,-51 86,-67 123,-162 17,-44 50,-13 68,-14 24,-1 119,-2 118,30 -3,84 35,20 94,48 41,20 87,-10 74,-24 -21,-24 -48,-81 -2,-85 14,-1 7,-3 25,-3 39,0 61,-7 101,2 5,1 5,0 10,-1l0 0c17,-17 44,-39 65,-54 18,-14 22,-13 36,-38 35,-65 -24,-64 -20,-119 1,-12 27,-1 50,-37 9,-15 60,-85 80,-74 14,8 18,17 43,28 79,35 92,-26 145,5 48,28 30,21 91,26 43,4 62,14 110,14 85,20 81,11 160,9 36,-1 30,13 78,-8 32,-14 55,-20 55,-65 0,-34 -111,-100 -75,-118 13,-7 64,-33 70,-41 29,-39 32,-46 34,-94 1,-23 -17,-92 -25,-114 -7,-18 -10,-11 -14,-37 -4,-27 13,-75 29,-96l0 0c-19,0 -37,0 -52,0 -51,0 -117,6 -159,-23 -64,-45 -105,-19 -135,-29 -49,-17 -64,-30 -98,-72 -10,-16 -25,-37 -37,-52 -21,-26 -80,-70 -114,-71 -26,-1 -45,-37 -47,-60 -10,-172 -51,-116 -76,-200 -8,-27 -42,-72 -48,-89 -12,-33 -39,-63 -30,-94 15,-53 19,-40 23,-107 -34,6 -68,11 -98,-3 -52,-23 -11,-17 -71,-24 -68,-8 -106,42 -127,42 -43,0 -92,27 -122,65 -27,-29 -92,-55 -75,-104 35,-102 -88,-40 -79,-107 10,-71 -21,-29 -71,-53 -17,-8 -79,19 -94,31 -58,47 -87,-3 -110,-52 -19,-40 -38,-85 -58,-124 -36,-70 -46,-110 -136,-110 -25,0 -95,-23 -108,-18 -76,29 -66,14 -131,-34 -49,-36 -61,-49 -96,-100 -20,-21 -29,-27 -50,-45 -30,-26 -116,-73 -121,-109 -7,-52 52,-50 -7,-109 -45,-45 -52,-111 -91,-156 -42,-48 -40,-96 -59,-118 -14,-17 -65,-48 -88,-65 -48,-35 -46,-102 -93,-93 -46,8 -76,21 -123,31 -20,4 -74,-6 -90,-16 -28,-17 -116,33 -118,16l0 0c-23,-2 -93,-3 -117,-4 -29,-1 -31,-15 -42,-16 -55,-3 -58,47 -75,59 -55,40 -44,-8 -87,31 -19,17 -113,62 -137,69 -36,11 -112,-14 -140,-39 -29,-25 -92,59 -116,68 -24,9 -51,64 -53,89 -4,48 1,65 -42,87 -31,15 -31,4 -69,30 -9,5 -23,11 -31,15 -26,15 -43,17 -69,28 -33,15 -51,7 -72,12 -28,7 -36,-17 -71,27 -41,51 -17,59 -73,102 -48,38 -73,31 -122,46 -25,7 -84,2 -87,4 -30,16 2,77 15,96 43,66 31,55 53,125 7,21 2,95 2,122 0,43 9,78 9,117 0,7 15,55 14,56 -21,29 6,43 -84,16l-56 42 0 0c15,29 31,57 48,88 29,54 52,120 84,174 20,35 29,67 42,103 16,42 19,141 83,112 28,-13 51,-18 79,-36 19,-12 79,-29 95,0 10,17 33,42 43,64 18,40 143,175 180,227 15,21 40,54 52,77 22,42 42,74 74,108 88,96 59,55 108,172 11,25 48,28 72,60 25,33 37,53 54,92 6,13 58,63 74,89 8,12 58,67 69,70 6,2 5,2 11,0 2,-1 57,-43 63,-39 14,9 148,136 154,145 13,18 66,51 87,89 33,60 85,111 133,158 43,42 11,104 83,146l4 3c80,52 62,23 128,53 40,18 52,97 113,133 37,22 44,78 103,115 25,16 46,46 71,68l0 0 23 -29c33,8 15,4 32,19 16,14 24,5 24,38l0 0z"/>
  
  
  
  
  
  
  
  
  
  
  
  
  
  
  
  
  
  
  
  
  
  
  <g id="_2506139612736">
   
   
   
   
   
   
   
   
  </g>
  <g id="_2506139609664">
   
   
   
   
   
   
   
   
   
   
   
   
   
   
  </g>
 </g>
</svg>