<svg xmlns="http://www.w3.org/2000/svg" xmlns:xlink="http://www.w3.org/1999/xlink" xml:space="preserve" width="210mm" height="297mm" version="1.1" style="shape-rendering:geometricPrecision; text-rendering:geometricPrecision; image-rendering:optimizeQuality; fill-rule:evenodd; clip-rule:evenodd" viewBox="0 0 21000 29700">
 <defs>
  <style type="text/css">
   <![CDATA[
    .str1 {stroke:black;stroke-width:10;stroke-opacity:0.501961}
    .str3 {stroke:black;stroke-width:50}
    .str5 {stroke:#434242;stroke-width:10}
    .str0 {stroke:black;stroke-width:10}
    .str2 {stroke:black;stroke-width:10}
    .str6 {stroke:#2B2A29;stroke-width:7.62}
    .str4 {stroke:black;stroke-width:7.62}
    .fil6 {fill:none}
    .fil1 {fill:#FEFEFE}
    .fil0 {fill:#FEFEFE}
    .fil8 {fill:#D9DADA}
    .fil5 {fill:#FEFEFE;fill-rule:nonzero}
    .fil4 {fill:#D9DADA;fill-rule:nonzero}
    .fil7 {fill:#434242;fill-rule:nonzero}
    .fil3 {fill:black;fill-rule:nonzero}
    .fil2 {fill:#FEFEFE;fill-rule:nonzero;fill-opacity:0.501961}
   ]]>
  </style>
 </defs>
 <g id="Plan_x0020_1">
  <metadata id="CorelCorpID_0Corel-Layer"/>
  
  
  
  
  <path class="fil1 str0" d="M10878 14948c31,-51 17,-44 33,-85 20,-50 75,-97 82,-150 6,-47 2,-63 -17,-105 -24,-53 39,-87 11,-168 -8,-24 -46,-74 -65,-92 -41,-37 -46,-230 -25,-276 1,-3 2,-5 3,-8 40,-67 47,-71 115,-91 11,-3 40,-1 57,-12l5 -3 50 -37 0 0c25,-35 48,-57 73,-89 10,-12 44,-104 30,-123 -54,-73 -56,-60 -18,-144 12,-26 55,-188 45,-205 -16,-28 -84,23 -109,-3 -18,-17 -44,-39 -50,-67 28,-56 45,-73 86,-114 40,-40 66,-95 108,-135 58,-57 83,-21 137,-121 34,-62 7,-87 -47,-112 -52,-24 -103,-59 -66,-120 19,-32 12,-69 20,-105 10,-44 22,-95 30,-139 -10,-39 6,-44 28,-74 27,-38 42,9 108,-52 40,-38 29,-28 59,-71 10,-15 16,-15 28,-35l0 0 -11 -54c-5,-11 -7,-32 -14,-45 -16,-33 -31,-66 -44,-99 -29,-72 -31,-178 -20,-254 7,-11 17,-147 18,-172 3,-77 6,-155 8,-232 2,-57 4,-124 3,-181 -1,-40 6,-97 4,-134 -6,-107 -12,-163 -90,-237 -31,-30 -12,-23 -63,-61 -2,-2 -3,-4 -5,-7 -25,-40 -108,-79 -152,-87 -98,-18 21,-144 52,-162 81,-47 71,-107 -13,-141 -82,-34 -10,-86 -64,-124 -43,-31 -25,-89 9,-103 27,-11 49,-34 73,-51l0 0c3,-5 6,-22 12,-23 17,-73 -43,-94 -14,-149 16,-31 29,-67 37,-102 3,-14 7,-76 -17,-63 -65,36 -36,179 -129,181 -95,2 -19,96 -76,133 -40,26 -92,-19 -116,-45 -3,-6 -3,-8 -8,-14 -44,-65 -92,-150 10,-193 124,-52 52,-105 97,-142 154,-127 -20,-143 21,-212 40,-68 83,12 125,-16 57,-38 -35,-122 -9,-164 25,-39 -1,-96 60,-137 38,-25 46,-14 86,-49 9,-12 29,-31 42,-38 51,-27 101,-58 150,-89 75,-46 78,-32 141,-102 50,-54 40,-31 87,-62 0,0 61,-60 65,-63 54,-59 100,-27 126,-70 31,-53 37,-62 78,-110 48,-56 99,-67 131,-133 42,-88 -12,-47 -68,-23 -57,25 -56,44 -124,65 -52,11 -52,-20 -107,-21 -34,-1 -94,90 -116,20 -18,-57 -64,36 -114,-1l0 0c-35,-26 -87,49 -102,73 -26,42 -16,63 -21,102 -6,47 -51,95 -66,153 -31,118 -134,22 -160,107 -14,46 -29,68 -55,107 -44,64 -32,60 -98,116l-5 4c-58,55 34,106 5,148 -29,41 -65,8 -88,-5 -79,-42 -139,-35 -149,67 -4,39 24,102 -31,128 -80,38 -23,114 -48,155 -42,67 -126,60 -186,80 -54,17 -67,112 -58,157 24,115 -69,150 -79,183 -15,47 9,33 -23,102l-1 4c-23,97 14,130 -61,219 -38,45 -87,75 -64,136 15,41 -13,64 -48,80 -75,35 -108,118 -85,196 13,46 24,103 22,150 -1,19 -47,91 -61,107 -15,17 -98,40 -116,46 -42,81 14,94 -17,153 -35,68 -37,56 -54,135 -4,21 23,99 34,119 24,45 80,88 58,151 -27,75 -6,40 -6,99 0,38 -18,54 -36,79 -27,39 14,18 -46,69l0 0c110,51 95,14 192,19 79,4 60,5 130,32 33,12 88,12 110,54 33,63 41,91 114,60 36,-15 37,-67 111,-78 34,-5 67,-32 79,-66 11,-33 118,-137 124,-71 3,32 8,30 2,70 -11,79 -12,111 47,167 3,3 3,3 7,5 47,-10 117,-23 148,28 13,21 -4,51 11,82 16,32 -38,143 102,121 31,-5 68,4 74,39 6,38 -59,183 -79,218 -8,15 -17,40 -26,57 20,94 9,137 -49,209 -20,24 -74,75 -109,67 -33,-8 -78,-13 -112,-25 -47,-17 -37,-6 -80,-37 -22,-15 -149,3 -192,-64 -22,-34 -30,-29 -48,-79 -9,-25 -30,-71 -63,-63 -58,15 -83,27 -147,24 -60,-2 -95,40 -142,68 -85,51 -105,107 -86,201 13,65 -30,92 28,165 36,45 24,94 -5,137 -20,29 -23,29 -22,72 1,38 26,74 64,84 60,17 42,10 86,56 57,60 142,-19 209,10 33,14 15,56 8,83 -1,100 -20,118 57,172 23,16 85,75 100,100 34,57 111,24 130,-22 11,-26 52,-117 73,-127 51,-25 26,105 26,131 2,130 -19,96 -48,198 -12,42 16,85 -7,143 -31,79 -23,166 -33,250 -1,9 -2,15 -2,24 5,36 14,55 15,88 1,55 -83,127 -31,195 24,32 68,88 42,128 -30,46 32,132 69,152l0 0z"/>
  <path class="fil1 str0" d="M12750 11587c-11,17 -18,30 -21,50 -14,105 -46,52 -80,120 -20,39 42,128 -52,113 -69,-11 -58,109 -147,62 -38,-20 -48,44 -54,68 -25,94 -64,64 -51,181 8,71 -39,73 -55,107 -12,25 50,126 7,136 -23,5 -12,-13 -65,6 -57,21 -94,-46 -83,-94 13,-57 -10,-58 -4,-90 8,-41 5,-83 -39,-103 -97,-43 -23,-87 -21,-145 5,-129 -138,56 -136,-17 1,-48 19,-85 19,-145 0,-123 83,-131 69,-217 -12,-68 -51,-93 45,-85 89,-52 72,-13 124,-27 21,-6 44,-34 30,-60 -14,-27 35,-75 -31,-61 -25,5 -104,-42 -79,-89 9,-17 47,-82 42,-96 -10,-29 -78,-57 -78,-142 0,-40 63,-105 82,-146 10,-21 32,-56 46,-76 57,-71 45,-107 83,-166 31,-47 25,39 21,56 -23,111 -77,185 -102,296 -8,36 -4,71 22,98 39,39 -8,113 6,160 6,20 37,139 37,150 14,31 44,62 82,48 44,-16 29,-67 13,-97 -18,-34 0,-67 13,-102 32,-83 51,9 70,53 30,66 61,-10 77,77 20,109 152,3 97,-88 -38,-63 16,-75 -14,-128 -50,-91 30,-74 8,-173 -8,-37 -4,-44 -4,-78 1,-3 24,-137 61,-99 40,41 -19,131 45,216 28,38 18,109 27,154 6,31 1,106 -2,139 8,55 9,40 -4,78 -14,41 15,45 5,79 -2,7 -4,36 -4,45l-7 34zm242 788c-67,-6 -40,-13 -91,-57 -77,-65 -5,-96 0,-136 7,-56 -30,-20 -2,-99 7,-20 5,-54 15,-81 5,-15 19,-55 20,-74 1,-12 24,-81 25,-111 0,-7 18,-106 -24,-60 -16,18 -8,36 -46,73 -20,19 -38,47 -38,74 0,33 -3,61 -30,84 -6,5 -2,73 -17,102 0,1 -36,114 -37,116 -3,42 -35,72 -74,84 -19,6 -62,2 -46,49 19,57 27,43 -21,90 -28,28 9,15 -18,73 -3,6 -9,18 -12,25 -7,15 -74,152 -83,60 -2,-21 -9,-45 -3,-66 0,0 12,-100 12,-102 1,-32 -1,-36 -3,-65 -7,-139 76,-122 112,-183 25,-43 30,-55 33,-105 2,-41 59,-40 80,-135 6,-29 23,-97 23,-126 5,-28 19,-78 40,-101 40,-45 54,-101 36,-159 -8,-27 20,-50 42,-59 45,-19 66,-37 89,-81 30,-58 9,-46 70,-90 31,-22 53,-15 98,-47 80,-57 5,132 -1,149 -25,72 -23,77 13,148 35,68 119,26 94,143 -19,84 26,74 14,142 -7,38 -7,103 4,140 1,2 1,5 1,8l0 0c-44,27 -40,41 -40,84 0,44 4,101 -47,117 -53,17 -39,51 -111,75 -26,9 -71,95 -78,102l0 0zm-1344 -3927c49,37 96,-56 114,1 22,70 82,-20 116,-20 55,1 55,32 107,21 69,-21 67,-39 124,-65 56,-25 110,-65 68,23 -31,66 -83,77 -131,133 -41,48 -47,57 -78,110 -26,43 -72,12 -126,70 -3,3 -64,63 -65,63 -47,31 -38,8 -87,62 -63,69 -67,56 -141,102 -50,30 -99,61 -150,89 -13,7 -33,26 -42,38 -40,35 -48,24 -86,49 -62,41 -36,98 -60,137 -27,42 66,126 9,164 -42,28 -85,-52 -125,16 -40,69 133,84 -21,212 -45,37 27,90 -97,142 -102,43 -55,128 -10,193 4,7 4,8 8,14 24,26 76,71 116,45 57,-37 -19,-131 76,-133 94,-2 64,-146 129,-181 25,-14 21,48 17,63 -8,34 -21,70 -37,102 -28,55 31,76 14,149 -6,1 -9,18 -12,23l0 0c62,-5 86,-16 72,52 -8,40 45,32 71,37 77,13 51,30 94,75 37,39 29,27 72,55 47,30 12,95 24,152 10,48 30,115 72,143 29,20 6,62 46,98 32,29 68,123 70,5 1,-51 -8,-94 -2,-149 5,-41 -7,-103 -1,-149 5,-34 5,-64 -28,-79 -17,-8 -125,-90 -88,-120 67,-56 61,-76 41,-157 -6,-25 -14,-74 29,-72 49,2 51,134 106,138 65,4 57,65 92,42 37,-24 24,-78 -3,-108 -27,-31 -124,-143 -108,-183 4,-10 73,-85 82,-74 12,14 9,81 80,80 114,-1 91,30 111,122 10,44 18,56 30,95 31,99 -52,118 -102,183 -65,85 -10,83 -15,168 -2,39 -10,159 62,91 25,-23 106,-218 149,-124 24,53 67,76 124,55 46,-17 56,-108 59,-151 7,-101 -51,-73 -31,-185 9,-48 28,-159 -34,-183 -52,-20 -57,-5 -105,-43 -51,-39 -40,-36 -24,-101 13,-55 9,-58 10,-110 0,-6 1,-12 1,-18 4,-14 34,-165 34,-177 0,-11 -2,-95 -21,-87 -49,20 -154,63 -200,20 -17,-16 38,-41 54,-55 42,-40 100,-54 134,-117 13,-24 22,-33 33,-61 33,-80 17,-78 3,-156 -16,-94 -58,-65 -126,-48 -67,17 -126,56 -194,71 -66,15 -63,15 -114,60 -19,16 -55,52 -76,63 -49,74 -36,43 -92,96 -45,42 -94,32 -77,6 49,-71 70,-68 74,-159 2,-51 27,-84 81,-72 44,10 106,-27 145,-49 39,-22 47,-33 96,-42 34,-6 82,-41 126,-51 36,-8 71,-45 109,-65 78,-42 28,-89 47,-121 41,-68 24,-38 23,-114 0,-7 1,-13 3,-20 6,-31 18,-60 20,-92 0,-8 12,-109 27,-95 0,0 21,87 25,97 13,31 64,126 100,131 41,5 63,6 104,-16 42,-22 107,-141 151,-94 61,64 129,-50 168,-80 31,-24 36,-8 77,-26 19,-9 139,-87 140,-59 0,2 -31,70 -35,90 -20,92 -11,103 -114,137 -39,13 -132,14 -147,24 -18,12 -31,72 -84,92 -60,23 -93,96 -160,76 -86,-25 -39,71 -120,102 -31,12 -67,47 -52,82 16,39 9,26 33,59l2 3c31,37 30,40 51,71 47,67 126,-62 197,-44 19,5 28,104 1,122 -93,63 -122,10 -160,30 -25,13 -1,21 -72,43 -91,27 100,50 111,65 11,14 -39,55 -53,73 -77,103 16,85 -36,162 -76,114 -7,95 22,179 21,61 44,66 107,40 117,-49 157,-128 302,-153 61,-11 156,-71 219,-39 37,19 -99,96 -115,102 -68,27 -82,59 -142,87 -25,12 -161,111 -176,127 -7,8 -9,11 -14,20 19,39 20,46 32,80 5,15 54,88 75,38 36,-89 29,-32 76,39 36,54 31,122 -30,156 -33,18 -90,-24 -108,-9 -12,11 -12,33 -43,49 -51,27 -24,109 -12,149 20,64 -72,171 69,173 136,2 205,-153 289,-235 20,-20 33,-20 58,-53 44,-57 29,-132 97,-164 25,-12 68,27 108,-45 27,-49 -19,-47 67,-122 113,-100 -14,-139 90,-279 5,-7 78,-91 79,-74 0,23 -39,154 -46,194 -11,59 -46,182 -21,232 16,32 64,64 63,114 -1,54 -38,133 -78,168 -32,28 -105,-3 -94,55 11,57 110,143 -28,173 -49,11 -78,8 -117,45 -36,34 -44,84 -59,127l-5 15 11 8c-21,21 -42,39 -23,69 11,17 64,33 36,72 -15,21 -41,39 -66,36 -55,-7 -8,66 -86,47 -53,-13 -48,8 -31,50 29,69 47,35 50,120 4,97 193,-18 158,73 -3,9 -9,31 -10,41 48,2 40,3 40,43 0,54 -28,43 15,96 30,38 -20,140 42,120 66,-22 10,-118 63,-158 58,-44 25,-51 66,-110 24,-34 43,-71 43,-114l0 -3c29,-57 15,-45 32,-86 8,-19 20,-27 22,-53 1,-19 83,-152 83,-84 0,99 -23,123 -52,210 -23,71 8,120 -39,213 -36,71 17,127 -26,200 -24,40 -39,68 -58,112l-4 8c-54,84 -43,89 0,168 37,67 -55,111 30,232 29,41 -3,93 -1,144 0,12 -7,40 -7,53l0 0c62,15 50,21 95,-6 69,-40 47,-8 107,-25 31,-9 62,-37 108,-37 42,0 16,29 7,60 -7,25 -74,77 -95,114 -40,71 -41,63 -102,112 -53,42 -108,70 -161,117 -16,14 -35,31 -53,44 -45,55 -32,65 -28,123 2,31 6,110 -32,122 -34,11 -89,-31 -114,-52 -26,-22 -74,-24 -97,7l0 0c18,38 34,70 71,91 32,18 42,70 51,102 19,74 88,67 130,135 50,81 145,52 223,53 30,0 70,-5 106,-5 34,0 195,-6 216,0 32,8 90,19 121,6l5 -1 50 -82 0 0 -49 -116c-1,-13 -4,-39 -7,-52 -11,-59 -12,-123 -24,-182 -10,-46 -11,-111 -19,-158 -7,-45 3,-154 3,-208 0,-169 -42,-153 -89,-289 -28,-81 -69,-184 -107,-260l0 -8c-6,-49 -19,-91 -25,-145 -11,-115 -42,-231 -48,-344 -2,-44 1,-91 1,-136 0,-19 1,-105 3,-119 6,-41 5,-97 11,-133 9,-52 21,-95 26,-148l2 -6c12,-63 16,-88 5,-151 -11,-63 -23,-70 7,-135 17,-36 34,-62 51,-100 24,-51 -19,-119 -49,-160 -28,-40 -26,-66 -37,-107 -6,-22 -4,-43 -7,-61 -8,-49 1,-191 8,-243l0 0 36 -111c5,-12 20,-57 24,-71 22,-87 47,-117 21,-211 -21,-76 -73,-154 -86,-223 -7,-41 -11,-66 -22,-106 -23,-83 -34,-129 -28,-217 6,-93 30,-75 12,-187 -6,-21 -8,-33 -19,-52 -25,-45 -101,-85 -144,-123 -68,-59 -127,-121 -110,-219 9,-51 -11,-103 -4,-141 12,-63 40,-125 50,-192 14,-92 15,-130 97,-190 47,-34 40,-6 78,-66 21,-27 49,-50 73,-74 34,-36 54,-56 94,-87 36,-27 71,-50 82,-100 7,-32 36,-67 67,-79 81,-31 40,-121 98,-151 52,-27 39,-78 114,-94 69,-16 33,15 121,-24l0 0 -4 -27c-16,-7 -33,-11 -50,-11 -29,0 -153,33 -184,43 -42,13 -89,12 -131,19 -57,10 -105,15 -159,40 -74,33 -80,25 -155,76 -71,14 -131,30 -205,42 -59,10 -116,3 -172,8 -36,3 -79,0 -111,3 -79,8 -226,-7 -290,-58 -37,-30 -87,-41 -130,-63 -31,-16 -179,-46 -221,-50 -121,-13 -186,-4 -288,61 -29,18 -63,55 -80,84 -14,25 -20,39 -37,68 -2,39 -9,77 -4,116 4,29 -2,63 1,84 7,46 0,82 -4,127 -6,68 -14,65 -36,121 -14,38 -19,125 -36,144 -32,33 -75,87 -80,135 -4,40 -72,70 -78,144 -2,25 -63,80 -78,96l-71 127 0 0z"/>
  <path class="fil1 str0" d="M11586 12213c72,56 40,47 86,99 24,27 101,14 101,-43 -1,-68 18,-92 86,-89 25,1 22,30 69,20 30,-6 48,8 26,38 -5,6 -42,69 -44,75 -22,63 1,29 12,56 5,12 -27,102 -1,132 4,4 30,-24 60,-23 84,3 32,59 115,53 84,-6 60,72 140,56 48,-10 63,46 63,81 1,39 22,67 65,53 51,-25 106,-57 164,-54 79,4 97,-18 162,-59 34,-21 58,-47 100,-64 30,-12 32,-23 75,-27 48,-5 87,-50 99,-95 5,-20 19,-32 31,-48l0 0c7,-6 52,-93 78,-102 72,-24 58,-59 111,-75 51,-16 47,-72 47,-117 0,-43 -4,-57 40,-84l0 0c76,39 59,33 63,115 1,17 25,75 37,86 3,3 7,8 11,12l57 11 0 0c62,15 50,21 95,-6 69,-40 47,-8 107,-25 31,-9 62,-37 108,-37 42,0 16,29 7,60 -7,25 -74,77 -95,114 -40,71 -41,63 -102,112 -53,42 -108,70 -161,117 -16,14 -35,31 -53,44 -45,55 -32,65 -28,123 2,31 6,110 -32,122 -34,11 -89,-31 -114,-52 -26,-22 -74,-24 -97,7l0 0c-34,120 33,141 30,247 0,23 8,89 17,111 10,27 -43,32 -47,88 -2,23 -3,18 -1,43 4,70 45,77 12,154 -9,20 -10,59 -16,79 -17,73 -10,94 43,145 33,32 40,30 75,55 19,14 16,88 21,111 2,10 16,104 10,109 -15,13 -47,-49 -65,-64 -38,-30 -67,-89 -125,-54 -27,17 -4,34 -54,57 -48,23 11,89 -115,45 -37,-13 -67,29 -11,79 72,65 99,59 96,172 -2,54 106,77 83,149 -8,24 -61,37 -82,29 -76,-30 -166,27 -197,2 -46,-37 -23,-105 -86,-133 -63,-28 -66,-130 -119,-105 -29,14 -43,121 -38,151 11,57 -11,133 -53,175 -17,17 -28,34 -42,50l0 0c-58,-18 -39,-15 -81,-37 -56,-30 -66,-34 -131,-48 -25,-6 -76,-34 -108,-44 -59,-17 -92,-33 -155,-46 -51,-10 -87,-59 -105,-105 -47,-113 -142,-114 -245,-143 -47,-13 -102,-18 -153,-30 -13,-3 -38,-8 -49,-12 -23,-6 -43,-15 -65,-23 -17,-7 -66,10 -98,-34 -21,-29 -55,-41 -89,-50l0 0c25,-35 48,-57 73,-89 10,-12 44,-104 30,-123 -54,-73 -56,-60 -18,-144 12,-26 55,-188 45,-205 -16,-28 -84,23 -109,-3 -18,-17 -44,-39 -50,-67 28,-56 45,-73 86,-114 40,-40 66,-95 108,-135 58,-57 83,-21 137,-121 34,-62 7,-87 -47,-112 -52,-24 -103,-59 -66,-120 19,-32 12,-69 20,-105 10,-44 22,-95 30,-139 -10,-39 6,-44 28,-74 27,-38 42,9 108,-52 40,-38 29,-28 59,-71 10,-15 16,-15 28,-35l0 0z"/>
  <path class="fil1 str0" d="M12750 11587c-11,17 -18,30 -21,50 -14,105 -46,52 -80,120 -20,39 42,128 -52,113 -69,-11 -58,109 -147,62 -38,-20 -48,44 -54,68 -25,94 -64,64 -51,181 8,71 -39,73 -55,107 -12,25 50,126 7,136 -23,5 -12,-13 -65,6 -57,21 -94,-46 -83,-94 13,-57 -10,-58 -4,-90 8,-41 5,-83 -39,-103 -97,-43 -23,-87 -21,-145 5,-129 -138,56 -136,-17 1,-48 19,-85 19,-145 0,-123 83,-131 69,-217 -12,-68 -51,-93 45,-85 89,-52 72,-13 124,-27 21,-6 44,-34 30,-60 -14,-27 35,-75 -31,-61 -25,5 -104,-42 -79,-89 9,-17 47,-82 42,-96 -10,-29 -78,-57 -78,-142 0,-40 63,-105 82,-146 10,-21 32,-56 46,-76 57,-71 45,-107 83,-166 31,-47 25,39 21,56 -23,111 -77,185 -102,296 -8,36 -4,71 22,98 39,39 -8,113 6,160 6,20 37,139 37,150 14,31 44,62 82,48 44,-16 29,-67 13,-97 -18,-34 0,-67 13,-102 32,-83 51,9 70,53 30,66 61,-10 77,77 20,109 152,3 97,-88 -38,-63 16,-75 -14,-128 -50,-91 30,-74 8,-173 -8,-37 -4,-44 -4,-78 1,-3 24,-137 61,-99 40,41 -19,131 45,216 28,38 18,109 27,154 6,31 1,106 -2,139 8,55 9,40 -4,78 -14,41 15,45 5,79 -2,7 -4,36 -4,45l-7 34zm-1472 -1519c-24,17 -46,40 -73,51 -34,14 -52,72 -9,103 53,39 -19,90 64,124 83,34 94,94 13,141 -31,18 -150,144 -52,162 44,8 127,47 152,87 1,2 3,5 5,7 51,38 32,31 63,61 78,75 84,131 90,237 2,37 -5,95 -4,134 1,57 -1,124 -3,181 -2,77 -5,155 -8,232 -1,25 -11,161 -18,172 -11,75 -8,182 20,254 13,33 28,67 44,99 7,13 9,34 14,45l11 54 0 0c72,56 40,47 86,99 24,27 101,14 101,-43 -1,-68 18,-92 86,-89 25,1 22,30 69,20 30,-6 48,8 26,38 -5,6 -42,69 -44,75 -22,63 1,29 12,56 5,12 -27,102 -1,132 4,4 30,-24 60,-23 84,3 32,59 115,53 84,-6 60,72 140,56 48,-10 63,46 63,81 1,39 22,67 65,53 51,-25 106,-57 164,-54 79,4 97,-18 162,-59 34,-21 58,-47 100,-64 30,-12 32,-23 75,-27 48,-5 87,-50 99,-95 5,-20 19,-32 31,-48l0 0c-67,-6 -40,-13 -91,-57 -77,-65 -5,-96 0,-136 7,-56 -30,-20 -2,-99 7,-20 5,-54 15,-81 5,-15 19,-55 20,-74 1,-12 24,-81 25,-111 0,-7 18,-106 -24,-60 -16,18 -8,36 -46,73 -20,19 -38,47 -38,74 0,33 -3,61 -30,84 -6,5 -2,73 -17,102 0,1 -36,114 -37,116 -3,42 -35,72 -74,84 -19,6 -62,2 -46,49 19,57 27,43 -21,90 -28,28 9,15 -18,73 -3,6 -9,18 -12,25 -7,15 -74,152 -83,60 -2,-21 -9,-45 -3,-66 0,0 12,-100 12,-102 1,-32 -1,-36 -3,-65 -7,-139 76,-122 112,-183 25,-43 30,-55 33,-105 2,-41 59,-40 80,-135 6,-29 23,-97 23,-126 5,-28 19,-78 40,-101 40,-45 54,-101 36,-159 -8,-27 20,-50 42,-59 45,-19 66,-37 89,-81 30,-58 9,-46 70,-90 31,-22 53,-15 98,-47 80,-57 5,132 -1,149 -25,72 -23,77 13,148 35,68 119,26 94,143 -19,84 26,74 14,142 -7,38 -7,103 4,140 1,2 1,5 1,8l0 0c76,39 59,33 63,115 1,17 25,75 37,86 3,3 7,8 11,12l57 11 0 0c0,-13 7,-41 7,-53 -2,-51 30,-103 1,-144 -85,-122 7,-165 -30,-232 -43,-79 -54,-84 0,-168l4 -8c19,-44 34,-71 58,-112 43,-73 -10,-129 26,-200 47,-93 16,-142 39,-213 28,-88 52,-112 52,-210 0,-69 -82,65 -83,84 -2,26 -14,35 -22,53 -17,41 -3,29 -32,86l0 3c0,43 -19,80 -43,114 -41,59 -8,66 -66,110 -53,40 2,137 -63,158 -62,21 -12,-82 -42,-120 -42,-54 -15,-42 -15,-96 0,-41 8,-41 -40,-43 2,-10 7,-32 10,-41 35,-91 -155,24 -158,-73 -3,-84 -21,-51 -50,-120 -18,-42 -22,-63 31,-50 78,19 31,-54 86,-47 26,3 51,-15 66,-36 28,-40 -25,-55 -36,-72 -19,-30 1,-48 23,-69l-11 -8 5 -15c15,-43 22,-93 59,-127 39,-37 68,-34 117,-45 138,-30 39,-116 28,-173 -11,-58 62,-27 94,-55 39,-34 77,-114 78,-168 1,-50 -47,-82 -63,-114 -25,-50 10,-172 21,-232 8,-40 47,-171 46,-194 0,-17 -73,67 -79,74 -105,139 23,179 -90,279 -85,75 -40,73 -67,122 -40,72 -83,33 -108,45 -68,32 -54,107 -97,164 -25,32 -38,33 -58,53 -84,83 -154,237 -289,235 -141,-2 -49,-109 -69,-173 -13,-39 -40,-122 12,-149 31,-16 31,-38 43,-49 17,-15 74,27 108,9 61,-34 66,-101 30,-156 -47,-71 -40,-128 -76,-39 -20,50 -69,-24 -75,-38 -13,-34 -13,-41 -32,-80 5,-9 7,-12 14,-20 15,-17 151,-115 176,-127 59,-28 73,-60 142,-87 16,-6 152,-83 115,-102 -63,-32 -158,28 -219,39 -144,25 -184,103 -302,153 -63,27 -86,21 -107,-40 -29,-84 -97,-65 -22,-179 51,-77 -42,-59 36,-162 14,-19 64,-59 53,-73 -11,-14 -202,-38 -111,-65 71,-21 46,-29 72,-43 38,-20 66,33 160,-30 27,-18 18,-117 -1,-122 -71,-18 -151,112 -197,44 -21,-31 -21,-34 -51,-71l-2 -3c-24,-32 -17,-20 -33,-59 -15,-35 21,-70 52,-82 81,-31 34,-127 120,-102 67,20 100,-54 160,-76 53,-20 66,-79 84,-92 15,-10 107,-11 147,-24 103,-33 95,-44 114,-137 4,-20 35,-88 35,-90 -2,-28 -122,50 -140,59 -41,19 -46,2 -77,26 -39,30 -107,144 -168,80 -44,-47 -109,72 -151,94 -40,21 -63,21 -104,16 -36,-4 -87,-100 -100,-131 -4,-10 -25,-97 -25,-97 -14,-14 -26,87 -27,95 -2,32 -14,60 -20,92 -2,7 -3,13 -3,20 1,77 19,46 -23,114 -19,32 31,79 -47,121 -37,20 -73,57 -109,65 -44,10 -93,45 -126,51 -49,9 -56,21 -96,42 -39,21 -101,58 -145,49 -54,-12 -79,21 -81,72 -4,91 -25,89 -74,159 -18,26 32,36 77,-6 56,-52 43,-22 92,-96 20,-10 57,-46 76,-63 52,-45 49,-45 114,-60 67,-15 126,-55 194,-71 69,-17 110,-46 126,48 13,78 30,76 -3,156 -12,28 -20,38 -33,61 -34,63 -92,77 -134,117 -16,14 -71,39 -54,55 45,44 151,1 200,-20 19,-8 21,76 21,87 0,12 -31,163 -34,177 -1,6 -1,12 -1,18 -1,52 3,55 -10,110 -16,65 -27,61 24,101 48,37 53,23 105,43 62,23 43,134 34,183 -20,112 38,84 31,185 -3,43 -13,133 -59,151 -56,21 -99,-3 -124,-55 -43,-94 -124,100 -149,124 -73,68 -65,-51 -62,-91 5,-85 -50,-83 15,-168 50,-65 132,-84 102,-183 -12,-39 -21,-51 -30,-95 -20,-92 3,-123 -111,-122 -72,1 -69,-66 -80,-80 -9,-12 -78,63 -82,74 -17,40 81,152 108,183 26,30 40,85 3,108 -35,22 -28,-38 -92,-42 -55,-4 -57,-136 -106,-138 -43,-2 -35,46 -29,72 19,81 26,102 -41,157 -37,31 71,113 88,120 33,15 33,44 28,79 -7,46 5,108 1,149 -6,55 2,98 2,149 -2,117 -38,24 -70,-5 -40,-36 -17,-78 -46,-98 -42,-29 -62,-95 -72,-143 -12,-57 22,-121 -24,-152 -43,-28 -36,-16 -72,-55 -43,-45 -17,-62 -94,-75 -27,-5 -80,4 -71,-37 14,-67 -10,-56 -72,-52l0 0z"/>
  <path class="fil1 str0" d="M9306 13383c89,-55 39,-50 89,-89 22,-17 112,-28 144,-35 64,-15 -14,-80 38,-117 46,-33 107,1 128,-98 5,-25 0,-67 7,-99l0 -5c-23,-52 -66,-123 -36,-180 54,-104 -4,-126 44,-197 63,-95 36,-189 90,-301 45,-93 -23,-139 -53,-218 -7,-68 -10,-52 -52,-87 -34,-29 -91,-138 -22,-118 19,6 42,-1 63,21 30,31 78,-13 125,-9 28,2 51,-1 83,3 14,2 31,12 45,17l0 0c110,51 95,14 192,19 79,4 60,5 130,32 33,12 88,12 110,54 33,63 41,91 114,60 36,-15 37,-67 111,-78 34,-5 67,-32 79,-66 11,-33 118,-137 124,-71 3,32 8,30 2,70 -11,79 -12,111 47,167 3,3 3,3 7,5 47,-10 117,-23 148,28 13,21 -4,51 11,82 16,32 -38,143 102,121 31,-5 68,4 74,39 6,38 -59,183 -79,218 -8,15 -17,40 -26,57 20,94 9,137 -49,209 -20,24 -74,75 -109,67 -33,-8 -78,-13 -112,-25 -47,-17 -37,-6 -80,-37 -22,-15 -149,3 -192,-64 -22,-34 -30,-29 -48,-79 -9,-25 -30,-71 -63,-63 -58,15 -83,27 -147,24 -60,-2 -95,40 -142,68 -85,51 -105,107 -86,201 13,65 -30,92 28,165 36,45 24,94 -5,137 -20,29 -23,29 -22,72 1,38 26,74 64,84 60,17 42,10 86,56 57,60 142,-19 209,10 33,14 15,56 8,83 -1,100 -20,118 57,172 23,16 85,75 100,100 34,57 111,24 130,-22 11,-26 52,-117 73,-127 51,-25 26,105 26,131 2,130 -19,96 -48,198 -12,42 16,85 -7,143 -31,79 -23,166 -33,250 -1,9 -2,15 -2,24 5,36 14,55 15,88 1,55 -83,127 -31,195 24,32 68,88 42,128 -30,46 32,132 69,152l0 0c-18,61 -31,61 -25,126 4,51 -15,123 -37,169 -25,53 -35,126 -40,184 -18,94 -41,85 -66,159 -19,54 22,66 1,134 -11,36 -28,34 -20,83 10,63 36,64 29,147 -10,109 14,211 65,308 31,60 57,121 72,188l2 7c11,57 11,83 38,131 13,22 69,118 71,137l22 50 0 0c0,0 -14,25 -15,26 -17,26 -30,70 -43,92 -15,24 -45,110 -89,75 -30,-24 7,-35 -65,-15l0 0 -11 -52c1,-5 3,-33 4,-40 8,-103 3,-146 -110,-125 -45,9 -88,50 -117,26 -87,-71 -8,-217 -55,-318 -56,-121 -22,-126 -28,-240 -3,-66 -14,-71 -68,-41 -30,17 -47,1 -61,13 -22,20 -85,61 -117,54 -75,-18 -79,-74 -90,-140 -6,-7 -4,-13 -18,-25 -40,-35 -62,-64 -104,-96 -18,-14 -85,-37 -57,-59 40,-31 79,-16 120,-4 45,14 143,4 135,-53 -7,-55 -13,-24 -3,-89 9,-63 -83,-39 -114,-26 -132,52 -83,-79 -95,-107 -17,-37 -106,15 -127,37 -108,114 -131,-45 -250,31 -96,61 -139,61 -200,-35 -28,-44 -72,-40 -97,-78 -39,-61 -24,-69 -93,-105 -50,-25 -64,-71 -73,-124 -6,-33 2,-133 -13,-152 -31,-38 -41,14 -48,-83 9,-13 20,-22 32,-33 51,-47 102,-28 125,-38 50,-21 51,-116 43,-161 -8,-42 -8,-44 -6,-85 2,-32 38,-79 17,-120 -51,-99 30,-118 2,-199 -12,-37 -13,-125 -12,-165 1,-58 -26,-75 -24,-135 1,-29 -1,-61 -5,-88 0,-8 -3,-23 -3,-28 4,-48 7,-147 21,-190 13,-39 10,-87 -13,-121 -32,-47 -49,-65 -20,-122 10,-19 9,-28 14,-38 4,-9 -24,-69 11,-138 14,-27 23,-46 35,-77l0 0z"/>
  <path class="fil1 str0" d="M12406 14494c-58,-18 -39,-15 -81,-37 -56,-30 -66,-34 -131,-48 -25,-6 -76,-34 -108,-44 -59,-17 -92,-33 -155,-46 -51,-10 -87,-59 -105,-105 -47,-113 -142,-114 -245,-143 -47,-13 -102,-18 -153,-30 -13,-3 -38,-8 -49,-12 -23,-6 -43,-15 -65,-23 -17,-7 -66,10 -98,-34 -21,-29 -55,-41 -89,-50l0 0 -50 37 -5 3c-17,11 -46,9 -57,12 -68,20 -75,24 -115,91 -1,3 -1,5 -3,8 -21,45 -16,238 25,276 20,18 57,67 65,92 28,81 -34,115 -11,168 19,42 23,59 17,105 -7,53 -63,99 -82,150 -16,41 -1,34 -33,85l0 0c-18,61 -31,61 -25,126 4,51 -15,123 -37,169 -25,53 -35,126 -40,184 -18,94 -41,85 -66,159 -19,54 22,66 1,134 -11,36 -28,34 -20,83 10,63 36,64 29,147 -10,109 14,211 65,308 31,60 57,121 72,188l2 7c11,57 11,83 38,131 13,22 69,118 71,137l22 50 0 0c41,58 64,72 36,139 -12,29 -14,80 -32,116 -8,17 -17,68 -16,86 -7,41 -14,71 -22,110 -15,72 54,33 51,146 -1,64 52,97 74,0 7,-29 11,-133 68,-115 16,5 83,84 89,102 5,13 36,99 50,97 36,-7 29,-93 26,-120 -3,-29 -26,-97 -42,-121 -13,-19 -66,-99 -72,-114 -6,-15 -21,-31 -33,-42 -26,-26 -34,-60 -28,-95 9,-54 -26,-145 -4,-173 25,-32 104,21 120,-30 10,-31 -37,-122 -41,-159 -3,-26 -7,-59 -17,-83 22,-43 23,-46 61,-61 49,-19 -1,-96 -29,-119 -67,-55 38,-58 -24,-128 -37,-41 36,-53 38,-109 3,-75 22,-125 99,-146 55,-16 49,-93 76,-132 26,-38 34,-87 43,-131 14,-70 69,-9 92,-121l2 -11c21,-41 28,-70 79,-65 30,3 120,-13 113,-46 -2,-11 -67,-50 -67,-91 0,-71 135,-25 138,-118 1,-59 -22,-44 24,-99 28,-34 -17,-88 13,-132 41,-60 -23,-62 30,-149 10,-16 74,-143 98,-118 22,22 -49,245 77,228 211,-28 109,36 92,108 -17,72 29,90 83,56 20,-12 44,-25 66,-18 57,19 101,2 157,-10l82 -55 0 0 -40 -54c-8,-11 -41,-80 -50,-98 -29,-55 -14,-75 -25,-110 -11,-34 -16,-97 -11,-131 15,-97 23,-56 -9,-157l0 0z"/>
  <path class="fil1 str0" d="M13071 12799c18,38 34,70 71,91 32,18 42,70 51,102 19,74 88,67 130,135 50,81 145,52 223,53 30,0 70,-5 106,-5 34,0 195,-6 216,0 32,8 90,19 121,6l5 -1 50 -82 0 0c37,16 93,40 124,67 41,35 98,35 147,34 31,-1 166,51 215,58 56,8 138,-52 187,37 26,48 79,124 140,123 38,-1 106,-11 136,6 73,39 50,59 88,95 46,64 35,45 100,66 62,20 31,94 105,126 58,25 180,24 179,96 -1,62 7,124 86,113 135,-20 73,71 221,16 33,-12 106,2 116,41 6,25 15,52 18,77 -7,62 -11,57 -57,83 -98,56 25,152 30,180 9,56 -14,85 26,143 10,15 94,93 96,99 6,16 13,17 17,42 11,74 76,148 113,210l0 0c18,65 13,46 16,100 5,96 0,69 -41,148 -27,52 -7,75 33,106 55,43 58,46 51,116 -5,46 -19,91 -37,134 -14,33 -26,71 -41,107 -8,18 -12,34 -18,52 -41,87 -41,60 -113,107 -25,16 -191,61 -187,81 5,26 -9,30 31,57 25,17 103,82 85,118 -21,40 -33,81 -55,125 -21,40 -27,60 -53,101 -46,70 -60,113 -95,187 -36,75 -80,85 -154,108 -36,11 -125,15 -169,38l0 0c-4,-2 -14,-32 -18,-34 -70,-47 -157,-96 -244,-94 -60,1 -118,-6 -176,-20 -54,-14 -108,-25 -161,-39 -75,-20 -116,-41 -184,-75 -43,-22 -61,-44 -94,-63 -62,-36 -126,-71 -183,-115 -40,-31 -70,-53 -105,-90 -34,-37 -88,-81 -120,-118 -45,-52 -60,-45 -98,-119l-8 -8c-66,-66 -60,-63 -140,-105 -38,-19 -68,-31 -107,-45 -57,-21 -65,-30 -115,-57 -55,-29 -108,-61 -161,-94 -79,-50 -174,-52 -257,-82 -49,-17 -125,-31 -163,-54 -34,-20 -67,-26 -96,-41 -46,-24 -68,-35 -117,-54 -64,-25 -123,-44 -184,-73 -50,-24 -62,-36 -109,-67l0 0 -40 -54c-8,-11 -41,-80 -50,-98 -29,-55 -14,-75 -25,-110 -11,-34 -16,-97 -11,-131 15,-97 23,-56 -9,-157l0 0c15,-17 26,-34 42,-50 41,-41 63,-117 53,-175 -6,-30 9,-137 38,-151 54,-25 56,77 119,105 63,27 39,96 86,133 32,25 122,-31 197,-2 21,8 75,-6 82,-29 23,-71 -85,-95 -83,-149 4,-112 -24,-107 -96,-172 -55,-50 -26,-92 11,-79 126,45 68,-22 115,-45 50,-24 26,-41 54,-57 57,-35 87,24 125,54 19,15 51,77 65,64 6,-5 -8,-99 -10,-109 -5,-24 -2,-98 -21,-111 -34,-24 -42,-23 -75,-55 -53,-51 -59,-72 -43,-145 7,-20 8,-59 16,-79 33,-77 -8,-83 -12,-154 -1,-25 0,-21 1,-43 4,-56 57,-61 47,-88 -9,-22 -17,-88 -17,-111 2,-106 -65,-127 -30,-247l0 0z"/>
  <path class="fil1 str0" d="M10779 16948c72,-20 35,-9 65,15 44,36 74,-51 89,-75 13,-21 26,-65 43,-92 0,-1 14,-26 15,-26l0 0c41,58 64,72 36,139 -12,29 -14,80 -32,116 -8,17 -17,68 -16,86 -7,41 -14,71 -22,110 -15,72 54,33 51,146 -1,64 52,97 74,0 7,-29 11,-133 68,-115 16,5 83,84 89,102 5,13 36,99 50,97 36,-7 29,-93 26,-120 -3,-29 -26,-97 -42,-121 -13,-19 -66,-99 -72,-114 -6,-15 -21,-31 -33,-42 -26,-26 -34,-60 -28,-95 9,-54 -26,-145 -4,-173 25,-32 104,21 120,-30 10,-31 -37,-122 -41,-159 -3,-26 -7,-59 -17,-83 22,-43 23,-46 61,-61 49,-19 -1,-96 -29,-119 -67,-55 38,-58 -24,-128 -37,-41 36,-53 38,-109 3,-75 22,-125 99,-146 55,-16 49,-93 76,-132 26,-38 34,-87 43,-131 14,-70 69,-9 92,-121l2 -11c21,-41 28,-70 79,-65 30,3 120,-13 113,-46 -2,-11 -67,-50 -67,-91 0,-71 135,-25 138,-118 1,-59 -22,-44 24,-99 28,-34 -17,-88 13,-132 41,-60 -23,-62 30,-149 10,-16 74,-143 98,-118 22,22 -49,245 77,228 211,-28 109,36 92,108 -17,72 29,90 83,56 20,-12 44,-25 66,-18 57,19 101,2 157,-10l82 -55 0 0c47,31 59,44 109,67 61,29 121,48 184,73 49,19 71,30 117,54 29,15 62,20 96,41 38,22 115,36 163,54 83,29 178,32 257,82 53,33 106,65 161,94 50,27 58,35 115,57 39,15 69,26 107,45 80,41 75,39 140,105l8 8c38,74 53,66 98,119 32,37 85,81 120,118 35,37 65,60 105,90 57,44 121,79 183,115 32,19 50,41 94,63 67,33 109,55 184,75 53,14 108,26 161,39 58,15 117,21 176,20 87,-1 174,47 244,94 4,3 14,33 18,34l0 0c-11,6 -19,12 -23,20 -7,13 0,34 -2,56 -2,17 -2,28 -2,46 31,190 27,183 -5,368 -8,47 -6,53 -28,101 -39,84 -64,182 -102,271 -17,39 -31,134 -77,143 -44,9 -96,25 -97,79 -1,25 -7,38 -7,69 0,12 -1,23 -3,35 -10,77 -30,139 -41,214 -3,21 -34,198 -38,207 -24,57 -50,102 -107,131 -30,15 -104,-20 -118,90 -13,104 -20,209 -45,312 -9,37 -9,68 -13,105 1,33 -3,114 5,145 5,21 3,319 -2,343 -12,59 -62,101 -84,173 -7,23 -34,100 -67,93 -24,-5 -78,-75 -96,-25 -8,22 31,48 42,73 16,37 43,116 24,156 -27,56 -47,79 -69,143 -5,16 -19,47 -27,62 -34,125 -128,155 -164,239 -11,26 -42,68 -52,98 -7,24 -24,55 -31,84 -19,76 -29,151 -48,224 -9,33 -16,70 -25,104 -22,83 -33,270 -165,236 -68,-17 -69,35 -75,85 -3,26 3,59 -1,80 -2,12 -24,146 -24,153 1,24 -33,143 -39,182 -12,77 -19,133 -23,210 -2,32 -31,159 -73,151 -19,-4 -62,-38 -88,11 -18,34 14,114 -31,133 -24,10 -24,-19 -69,-1 -17,6 -79,24 -95,16 -33,-16 -13,-39 -59,-42 -25,-1 -43,-37 -38,-64 12,-57 -34,-40 -55,-79 -16,-29 45,-39 18,-48 -42,-15 41,-72 -19,-119 -32,-26 -59,-33 -47,-76 17,-59 -36,-27 -49,-111 -6,-38 -53,-75 -91,-58 -13,6 -28,18 -41,21 -39,37 -38,37 -85,37 -54,0 -83,-144 -147,-58 -14,19 -145,57 -145,-45 0,-53 -20,-26 -51,-41 -31,-15 2,-63 -20,-107 -22,-44 -13,-77 -83,-92 -45,-9 -69,-1 -93,-55 -17,-39 -15,-47 -49,-78 -39,-35 -56,33 -102,17 -57,-19 -72,80 -125,14 -32,-40 -82,-48 -131,-48 -60,-1 -67,65 -104,35 -16,-13 -57,-29 -77,-28 -96,-10 -89,-36 -129,-110 -35,-64 -60,-66 -120,-96 -60,-30 -177,-64 -244,-56 -37,5 -52,-2 -94,16 -34,15 -60,13 -86,-12 -52,-49 -93,15 -113,59 -21,47 -28,7 -85,34 -40,19 -58,26 -97,50 -30,18 -50,31 -80,51 -36,18 -39,18 -76,16 -73,-4 -63,-35 -145,6 -40,20 -67,82 -120,54 -57,-30 -67,60 -105,12 -43,-56 -66,15 -132,-64 -31,-37 -20,-28 -36,-71 -10,-27 5,-65 -9,-90 -22,-39 -18,-18 -37,-44 -16,-21 -25,-37 -48,-56 -16,-14 -24,-31 -44,-47l-71 -64 -5 -5c-103,-89 -60,-137 -90,-186 -41,-69 -47,-40 -46,-133 0,-39 -12,-41 -29,-66 -39,-56 -85,-72 -136,-19 -30,31 -50,44 -71,1l0 0c3,-15 14,-59 8,-74 -13,-32 -20,-65 -22,-100 -4,-63 18,-104 41,-162 12,-15 43,-57 56,-68 75,-61 77,-100 90,-193 9,-63 8,-155 52,-200 79,-82 67,-139 105,-233 13,-31 25,-60 32,-94 10,-50 -26,-77 -41,-108 -17,-35 -19,-49 -15,-90 0,-75 15,-125 67,-177 19,-19 29,-19 54,-23 99,-18 106,-93 157,-109 56,-18 81,-78 84,-133 4,-79 16,-81 83,-107 26,-10 52,-55 69,-70 21,-18 33,-30 53,-49 32,-31 60,-70 89,-104 28,-33 21,-25 34,-67 33,-109 90,-56 113,-57 56,-2 68,-31 91,-78 6,-16 30,-69 25,-85 -24,-80 -101,-33 -117,-113 -6,-32 7,-124 13,-162 11,-66 30,-113 34,-183 2,-36 28,-94 38,-136 12,-52 16,-90 24,-141l0 0z"/>
  <path class="fil1 str0" d="M9306 13383c-12,30 -21,50 -35,77 -35,69 -8,128 -11,138 -4,11 -4,20 -14,38 -29,56 -12,75 20,122 23,34 25,82 13,121 -14,43 -17,142 -21,190 0,5 3,20 3,28 5,27 6,59 5,88 -2,60 25,77 24,135 -1,41 -1,129 12,165 27,81 -53,100 -2,199 21,41 -15,87 -17,120 -3,41 -2,43 6,85 8,45 8,140 -43,161 -23,9 -74,-10 -125,38 -12,11 -22,20 -32,33 6,97 17,45 48,83 15,19 7,119 13,152 10,53 24,98 73,124 69,35 54,43 93,105 24,38 69,34 97,78 61,96 104,96 200,35 119,-76 142,83 250,-31 21,-22 110,-74 127,-37 13,28 -37,159 95,107 31,-12 123,-37 114,26 -10,66 -4,34 3,89 7,56 -91,66 -135,53 -40,-12 -79,-27 -120,4 -28,22 38,45 57,59 42,32 64,61 104,96 13,11 11,18 18,25 11,66 15,122 90,140 31,7 95,-34 117,-54 13,-12 30,4 61,-13 54,-30 64,-25 68,41 6,114 -28,119 28,240 47,101 -32,247 55,318 30,24 72,-17 117,-26 113,-22 118,22 110,125 -1,7 -3,35 -4,40l11 52 0 0c-9,51 -12,89 -24,141 -10,42 -36,100 -38,136 -4,70 -23,117 -34,183 -6,37 -19,129 -13,162 16,80 93,33 117,113 5,16 -19,69 -25,85 -24,47 -35,76 -91,78 -24,1 -80,-52 -113,57 -13,42 -5,34 -34,67 -29,34 -56,73 -89,104 -20,19 -31,31 -53,49 -18,15 -44,60 -69,70 -67,26 -79,28 -83,107 -3,55 -28,115 -84,133 -51,16 -58,91 -157,109 -25,5 -35,5 -54,23 -53,53 -67,103 -67,177 -4,41 -2,54 15,90 15,32 51,59 41,108 -7,34 -20,62 -32,94 -38,94 -26,151 -105,233 -44,45 -43,137 -52,200 -13,93 -15,132 -90,193 -13,10 -44,53 -56,68 -23,59 -46,99 -41,162 2,35 9,67 22,100 6,15 -5,59 -8,74l0 0c-13,-28 -119,12 -140,21 -74,30 -214,-28 -277,-72 -49,-34 -101,-15 -157,-13l-4 0c-34,-1 -56,6 -82,31 -27,27 -72,42 -106,22 -38,-23 -57,20 -90,-9 -44,-40 -10,-77 -86,-68 -18,2 -90,0 -106,-4 -65,-17 -127,-43 -174,28 -40,60 -42,69 -44,136 -3,77 -32,87 -52,144 -11,31 -5,71 -8,83 -15,49 -70,-43 -133,111 -22,54 -65,25 -98,18 -45,-10 -114,-40 -122,-92 -11,-72 -27,-39 -49,-70 -16,-22 -11,-20 -33,-44 -31,-34 -61,29 -61,50 0,27 -10,42 -11,61 -2,58 -22,63 -65,106 -15,8 -40,22 -58,13 -69,-35 -87,19 -128,43 -26,15 -71,-20 -113,46 -32,51 -83,106 -150,81 -44,-16 -61,-20 -93,-58 -27,-33 -10,-82 -45,-41 -27,31 -59,-10 -83,-26 -78,-51 -111,-62 -154,-154 -1,-3 -53,-58 -61,-69 -64,-80 95,-189 -49,-256 -80,-37 -2,-144 -52,-166 -9,-4 -83,-11 -94,-10 -70,2 -71,-86 -90,-123 -18,-36 -22,-52 -34,-89 -27,-84 -59,-96 -48,-196 -4,-15 -8,-32 -10,-47 -8,-63 -46,-87 -59,-129 -21,-70 -98,-75 -116,-109 -59,-112 -127,-27 -195,-70 -78,-48 -62,-50 -158,-69 -39,-8 -92,12 -108,-18 -21,-42 -58,-17 -80,-57 -25,-45 6,-23 -50,-60 -17,35 -63,16 -48,51 26,59 86,21 108,58 8,13 -54,67 -105,35 -30,-19 -85,2 -102,33 -12,23 -2,143 16,164 25,29 13,20 24,42 9,19 6,61 -7,77 -18,23 -17,45 -41,64 -35,26 -37,28 -43,82l0 0c-1,10 -24,3 -32,-4 -48,-41 -18,-64 -105,-49 -51,9 -81,-25 -128,-6 -35,14 -37,29 -76,47 -27,12 -24,-12 -38,-14 -28,-5 -40,64 -56,80 -63,67 -60,-29 -93,68 -12,35 -66,77 -98,71 -18,-4 -41,43 -65,50 -54,15 -49,-43 -46,-74 3,-26 -6,-67 1,-84 15,-36 39,-149 38,-187 -1,-58 55,-151 15,-187 -53,-49 -91,-41 -147,-70 -57,-30 -131,-4 -178,-58 -34,-39 -58,71 -51,97 14,49 0,53 -2,99 -2,55 -15,55 -24,94 -11,51 -84,133 -136,105 -24,-13 -28,-12 -51,-21 -86,-34 -110,-24 -194,-37 -27,-4 -78,8 -101,22 -4,2 -7,5 -10,8 -10,-6 -37,-18 -45,-27 -34,-38 -7,-156 1,-204 9,-57 -44,-76 -89,-95 -11,-5 -19,-9 -27,-13l0 0 127 -295c14,-31 24,-57 38,-88 23,-50 45,-107 69,-154 29,-60 66,-141 90,-203 33,-85 51,-121 103,-197 33,-49 46,-108 66,-162 28,-74 54,-137 89,-209 12,-25 43,-97 57,-117 13,-18 75,-167 80,-191 7,-31 26,-76 34,-111 10,-41 36,-166 59,-193 32,-39 46,-33 75,-91 40,-77 56,-93 75,-184 3,-14 11,-41 12,-54 14,-61 26,-222 -25,-271 -21,-20 -86,-112 -96,-139 -28,-75 -45,-141 -80,-215 -28,-61 -17,-209 -26,-284 -8,-64 4,-111 4,-171 -2,-52 -5,-87 -21,-137 -15,-47 -54,-251 -53,-300 0,-19 -3,-49 -3,-72 0,-71 -2,-143 -1,-215 1,-41 -19,-105 -19,-151 1,-49 -1,-104 -1,-154l8 -45 0 0c64,-35 67,-43 102,-97 31,-47 87,-112 150,-79 27,14 -1,43 62,22 63,-21 107,44 168,-74 29,-55 -59,-30 -82,-86 -14,-33 -5,-52 20,-79 28,-32 72,-39 76,-104 1,-20 25,-66 42,-78 40,-28 34,-27 53,-62 13,-24 1,-142 84,-118 44,13 45,39 109,18 64,-20 111,-27 177,-29 93,-3 158,-17 233,-79 68,-56 165,-43 233,5 29,20 115,20 153,29 66,15 120,-15 162,-64 7,-8 35,-119 43,-141 34,-91 -11,-247 103,-283 46,-14 75,-19 117,-47 28,-38 32,-60 52,-99 13,-26 57,-100 94,-78 5,3 68,79 73,87 26,38 51,75 76,112 25,36 57,64 92,88 18,12 35,25 55,34 34,15 64,37 100,49 44,15 87,49 141,66 71,23 147,63 220,86 130,41 154,58 297,36 88,-14 111,-26 206,-19 52,4 179,-8 235,-14 52,-20 81,-46 135,-65 23,-8 74,-45 104,-60 53,-26 110,-59 163,-87 47,-24 88,-48 132,-76 106,-68 224,-45 344,-86 60,-21 121,-42 185,-44 22,-1 40,-1 62,-1l171 45z"/>
  <path class="fil1 str0" d="M3703 19156l127 -295c14,-31 24,-57 38,-88 23,-50 45,-107 69,-154 29,-60 66,-141 90,-203 33,-85 51,-121 103,-197 33,-49 46,-108 66,-162 28,-74 54,-137 89,-209 12,-25 43,-97 57,-117 13,-18 75,-167 80,-191 7,-31 26,-76 34,-111 10,-41 36,-166 59,-193 32,-39 46,-33 75,-91 40,-77 56,-93 75,-184 3,-14 11,-41 12,-54 14,-61 26,-222 -25,-271 -21,-20 -86,-112 -96,-139 -28,-75 -45,-141 -80,-215 -28,-61 -17,-209 -26,-284 -8,-64 4,-111 4,-171 -2,-52 -5,-87 -21,-137 -15,-47 -54,-251 -53,-300 0,-19 -3,-49 -3,-72 0,-71 -2,-143 -1,-215 1,-41 -19,-105 -19,-151 1,-49 -1,-104 -1,-154l8 -45 0 0 -67 -23c-27,-22 -51,-41 -53,-78 -6,-123 -94,-60 -129,-135 -34,-73 -151,25 -171,19 -64,-18 -29,-160 -20,-202 11,-72 28,-129 89,-168 86,-55 122,-42 87,-146 -15,-45 8,-93 52,-61 18,13 80,45 97,19 29,-42 -37,-97 -65,-120 -54,-44 -32,-80 22,-63 45,13 75,1 98,-41 28,-52 35,-86 18,-143 -33,-103 54,-116 -22,-183 -28,-25 -22,-30 -34,-75 0,-6 0,-9 3,-14 25,-46 103,-13 117,-40 55,-110 -73,-110 -69,-218 2,-40 -89,-69 -4,-160 9,-10 48,-73 15,-67 -66,11 -139,80 -120,-35 7,-44 59,-165 39,-192 -14,-19 -107,27 -174,-14 -49,-30 -115,-9 -171,-5 -52,4 -148,18 -196,10 -66,-10 -69,2 -140,-30l0 0c-49,35 -93,75 -125,122 -32,48 -35,64 -50,118 -29,105 -48,173 -53,285 -8,33 4,178 10,218 10,70 30,150 85,198 37,33 45,45 76,83 53,66 60,72 91,151 13,34 26,65 40,98 19,46 -33,94 -77,100 -54,7 -82,56 -116,38 -56,-29 -50,-53 -89,-91 -33,-33 -44,-57 -75,-95l-33 -138 0 0c-8,33 -82,-16 -106,49 -12,33 -71,120 -108,89 -64,-54 -18,-50 -106,-44 -56,4 -46,6 -102,-8 -32,-8 -35,22 -8,45 39,34 130,87 91,144 -21,31 -11,119 -64,130 -43,9 -17,-134 -86,-78 -38,31 -32,89 -44,132 -11,39 -42,61 -23,99 8,15 19,73 16,91 -13,83 -125,59 -137,124 -7,37 97,55 23,105 -18,12 -79,59 -55,83 60,63 95,157 121,239 12,37 34,96 -8,127 -19,14 -58,-27 -82,49 -4,11 -5,28 -3,40 6,41 13,98 -4,138 -32,72 -54,123 5,190 32,36 66,59 32,112 -37,58 -91,49 -149,38 -48,-9 -60,-93 -135,-50 -17,10 -23,20 -22,32l0 0c1,32 55,69 75,93 33,40 114,138 42,179 -73,43 0,99 -11,148 -7,32 -6,34 -20,65 -9,21 -6,59 -9,82 -5,38 -14,128 35,142 42,12 45,0 88,2 33,1 107,-3 115,43 6,38 -37,102 -47,140 -8,32 -35,79 -46,119 -15,55 -57,141 -92,188 -35,46 -51,79 -106,106 -36,18 -81,104 -59,141 26,43 73,63 15,117 -7,6 -31,36 -32,47 -9,89 0,78 15,156 14,77 48,94 98,146 24,24 34,32 18,63 -42,80 41,69 20,166 -7,32 -24,157 -52,172 -77,43 -115,-8 -158,56 -38,57 58,78 68,130 9,52 -33,78 -23,136 7,47 21,32 13,98 -2,13 1,22 -4,34 -14,38 -29,57 -70,47 -41,-11 -104,46 -94,95 13,65 19,143 -45,182 -17,10 -92,-7 -118,75 -11,35 -3,79 24,96 12,8 29,10 49,4 37,-12 109,-28 145,-10 62,31 42,76 114,79 91,3 90,69 140,70 95,3 96,11 163,65 48,39 150,49 209,32 48,-14 111,-37 144,-76 24,-28 70,-56 83,-4 22,88 23,137 107,191 30,19 51,52 58,87 3,15 10,29 11,44 3,89 4,55 -19,134 -13,46 4,41 30,62 22,18 7,32 -8,52 31,13 24,9 51,-6 22,-13 28,-19 47,-36 23,-20 43,-33 65,-55 25,-24 28,-24 55,-43 43,-30 73,-25 100,-84 2,-3 3,-6 5,-10 12,-38 16,-49 23,-85 13,-58 68,-162 143,-124 23,12 21,30 58,52l0 0z"/>
  <path class="fil1 str0" d="M4611 10860c-9,44 -13,95 -46,129 -8,8 -19,27 -33,40 -22,22 -58,119 -59,151 -1,86 -60,126 -60,209 0,84 -47,126 -112,170 -7,4 -26,19 -29,26 -26,39 -73,105 -126,107 -10,0 -58,-46 -89,-56 -61,-19 -101,-45 -124,44 -11,43 -27,98 -46,138 -30,65 -38,97 -84,156 -23,30 -68,65 -91,102 -43,71 -30,61 -35,137 -5,73 -55,67 -83,132 -17,39 -52,106 -47,148 1,5 0,6 0,11l14 86 0 0c70,32 74,19 140,30 48,8 145,-7 196,-10 57,-4 123,-25 171,5 67,41 160,-5 174,14 20,28 -32,149 -39,192 -19,116 55,46 120,35 33,-5 -6,58 -15,67 -86,91 5,119 4,160 -4,108 124,108 69,218 -14,27 -92,-6 -117,40 -3,5 -3,8 -3,14 12,45 6,50 34,75 76,67 -11,80 22,183 18,57 10,91 -18,143 -23,43 -53,55 -98,41 -55,-16 -77,19 -22,63 28,23 93,78 65,120 -18,26 -80,-6 -97,-19 -44,-33 -66,16 -52,61 34,104 -2,92 -87,146 -61,39 -78,96 -89,168 -9,42 -44,184 20,202 21,6 138,-92 171,-19 35,75 123,12 129,135 2,37 26,57 53,78l67 23 0 0c64,-35 67,-43 102,-97 31,-47 87,-112 150,-79 27,14 -1,43 62,22 63,-21 107,44 168,-74 29,-55 -59,-30 -82,-86 -14,-33 -5,-52 20,-79 28,-32 72,-39 76,-104 1,-20 25,-66 42,-78 40,-28 34,-27 53,-62 13,-24 1,-142 84,-118 44,13 45,39 109,18 64,-20 111,-27 177,-29 93,-3 158,-17 233,-79 68,-56 165,-43 233,5 29,20 115,20 153,29 66,15 120,-15 162,-64 7,-8 35,-119 43,-141 34,-91 -11,-247 103,-283 46,-14 75,-19 117,-47 28,-38 32,-60 52,-99 13,-26 57,-100 94,-78 5,3 68,79 73,87 26,38 51,75 76,112 25,36 57,64 92,88 18,12 35,25 55,34 34,15 64,37 100,49 44,15 87,49 141,66 71,23 147,63 220,86 130,41 154,58 297,36 88,-14 111,-26 206,-19 52,4 179,-8 235,-14 52,-20 81,-46 135,-65 23,-8 74,-45 104,-60 53,-26 110,-59 163,-87 47,-24 88,-48 132,-76 106,-68 224,-45 344,-86 60,-21 121,-42 185,-44 22,-1 40,-1 62,-1l0 0 -20 -228c-2,-16 -7,-42 -11,-57 -21,-84 -37,-178 -52,-264 -10,-63 -16,-103 -21,-167 -7,-80 -10,-158 -17,-238 -4,-50 -20,-84 -30,-129 -11,-48 -17,-32 -20,-96 -8,-30 -14,-69 -22,-97 -28,-98 -57,-171 -76,-275 -15,-81 -5,-243 -36,-308 -20,-43 -22,-39 19,-74l0 0 -21 -54c0,0 18,-40 33,-52 15,-11 34,-37 45,-49 32,-34 0,-93 -16,-124 -10,-50 -23,-71 -37,-116 -12,-37 -15,-36 -30,-67 -21,-45 -89,-109 -129,-139 -27,-19 -37,-35 -59,-56 -25,-25 -46,-55 -66,-75 -94,-87 -192,-144 -320,-164 -66,-11 -308,33 -377,55 -57,18 -108,38 -166,56 -34,10 -68,24 -98,33 -70,20 -122,45 -195,63 -39,15 -113,22 -155,30 -63,13 -121,21 -184,31 -101,17 -248,6 -352,-7 -109,-13 -207,-3 -314,0 -63,2 -126,10 -189,9 -95,-1 -188,5 -283,5 -48,0 -74,0 -124,-11 -110,0 -233,-18 -342,1 -65,12 -121,10 -184,16 -59,5 -114,-6 -168,-8 -105,-3 -200,-38 -299,7 -98,45 -87,69 -206,70l0 0z"/>
  <path class="fil1 str0" d="M3246 13676l33 138c30,37 41,61 75,95 39,39 33,63 89,91 34,17 63,-31 116,-38 43,-6 95,-53 77,-100 -14,-34 -26,-64 -40,-98 -31,-79 -38,-85 -91,-151 -30,-38 -38,-49 -76,-83 -55,-49 -75,-129 -85,-198 -6,-40 -17,-185 -10,-218 5,-112 24,-180 53,-285 15,-54 18,-70 50,-118 32,-47 76,-87 125,-122l0 0 -14 -86c0,-4 0,-6 0,-11 -6,-42 30,-109 47,-148 29,-65 79,-59 83,-132 5,-76 -8,-66 35,-137 23,-37 67,-72 91,-102 45,-59 54,-90 84,-156 19,-40 35,-95 46,-138 22,-89 63,-63 124,-44 30,9 79,56 89,56 53,-2 100,-68 126,-107 4,-6 23,-21 29,-26 65,-44 112,-86 112,-170 0,-83 58,-123 60,-209 0,-32 37,-129 59,-151 14,-13 25,-33 33,-40 33,-33 37,-85 46,-129l0 0 -228 -62 -115 -84 0 0c-36,12 -90,-42 -100,0 -7,29 81,87 34,114 -20,11 -91,-28 -80,25 6,29 86,49 22,74 -70,28 -36,85 -52,131 -16,46 39,37 56,89 7,22 -12,47 -24,64 -28,40 -39,49 -87,37 -53,-13 -49,80 -88,96 -50,21 -18,-83 -84,-56 -24,10 -35,45 -51,68 -9,13 -17,23 -28,35 -56,56 -59,-83 -109,-68 -66,19 -39,-169 -136,-124 -5,2 -60,12 -63,11 -82,-18 -53,-17 -64,-88 -6,-40 -86,-18 -99,40 -12,54 -2,74 -27,132 -1,3 -28,122 -32,137 -5,20 -21,67 -41,76 -31,15 -16,50 5,69 37,34 -2,58 -11,93 -11,43 -18,42 -8,88 7,30 -50,85 13,116 30,15 73,36 41,76 -32,40 -80,-13 -135,132 -22,60 -9,70 -19,120 0,2 0,4 -1,5 -23,27 -38,66 -71,78 -25,9 -51,-16 -77,-23 -19,23 -29,50 -7,77 32,41 60,60 88,106 10,17 12,16 18,38 18,60 13,56 19,106 6,46 32,68 75,41 20,-13 73,-26 76,9 5,69 -38,79 -45,114 -3,15 -35,129 -41,141 -42,81 -93,-13 -143,44 -19,22 32,52 47,85 29,63 46,62 5,123 -33,50 -25,16 -68,25 -45,10 -62,70 -6,83 41,10 55,24 60,67 1,13 -8,27 -16,37 -31,40 -67,77 -75,128 -4,27 20,85 52,84 63,-2 132,-5 180,41 19,18 86,14 73,67l0 0z"/>
  <path class="fil1 str0" d="M4269 10713l115 84 228 62 0 0c119,-1 109,-25 206,-70 99,-46 194,-10 299,-7 54,1 110,13 168,8 63,-6 119,-4 184,-16 109,-20 233,-1 342,-1 50,11 76,11 124,11 95,0 188,-6 283,-5 63,1 126,-7 189,-9 107,-3 205,-13 314,0 103,13 250,24 352,7 62,-10 121,-18 184,-31 42,-9 116,-15 155,-30 72,-18 125,-43 195,-63 30,-9 65,-23 98,-33 59,-18 109,-37 166,-56 69,-22 311,-65 377,-55 128,21 226,77 320,164 21,19 41,49 66,75 22,22 32,37 59,56 41,30 108,93 129,139 15,31 18,30 30,67 15,45 27,66 37,116 16,31 48,91 16,124 -11,12 -30,38 -45,49 -15,12 -33,51 -33,52l21 54 0 0c13,-6 39,-21 53,-24 97,-26 80,-18 160,-83 38,-31 54,-66 83,-99 33,-38 63,-68 114,-73 60,-6 73,7 110,-46 78,-110 -16,-180 38,-216 24,-15 14,-4 45,-34l3 -7c29,-63 100,-87 17,-149 -43,-32 -40,-97 -73,-148 -49,-78 -120,-125 -161,-218 -12,-26 -39,-63 -46,-80 -34,-82 112,-164 141,-229 26,-58 154,-154 216,-170 57,-14 113,-53 156,-91l13 -9c92,-56 102,-37 188,-122 28,-28 28,-126 28,-165 -1,-69 14,-174 8,-238 -5,-49 5,-109 3,-158 -2,-54 9,-106 15,-159 10,-99 27,-130 58,-220 5,-24 24,-70 36,-92 53,-101 119,-337 104,-451 -12,-90 -20,-184 -67,-262 -59,-99 -91,-80 -132,-212 1,-45 -24,-95 -16,-148 15,-96 115,-96 155,-153 40,-56 41,-112 96,-178 38,-46 55,-84 87,-128 36,-49 70,-138 104,-180 40,-49 34,-157 129,-156 38,1 77,-2 111,-20 82,-42 135,-60 183,-143 5,-12 48,-57 60,-68 27,-24 53,-61 75,-81 47,-43 68,-56 110,-107 23,-29 66,-54 89,-76 62,-61 85,-39 159,-48 44,-6 97,-3 140,-11 34,-6 24,-8 50,-15 71,-21 109,-70 164,-98 24,-12 46,-34 63,-43 26,-14 -24,-41 -35,-45 -55,-19 -67,-61 -99,-101 -21,-27 -33,-83 -44,-91 -56,-46 -69,-31 -101,-115 -17,-39 -44,-77 -80,-101 -51,-34 -202,-38 -245,-81 -51,-52 -59,-102 -14,-160 60,-78 93,-88 118,-186 18,-67 30,-57 55,-103 34,-64 41,-52 84,-95 36,-36 35,-56 34,-103 -1,-26 -38,-69 -57,-85 -23,-18 -61,-60 -79,-81 -4,-4 -45,-63 -52,-73 -43,-65 -126,-69 -197,-60 -55,7 -171,-20 -230,-33 -56,-12 -116,7 -166,-4 -145,-30 -106,-122 -145,-210 -29,-64 -69,-85 -105,-152l-126 -110 0 0c-16,23 -44,36 -60,55 -34,41 -81,71 -107,110 -23,34 -16,29 -36,73 -1,2 -3,3 -4,6 -28,58 5,81 -45,98 -36,12 7,61 -57,87 -49,21 -28,45 -78,64 -46,17 -44,17 -83,46 -57,41 -74,88 -140,124 -72,39 -68,31 -86,112 -6,27 -3,49 -7,71 -7,36 -70,89 -102,105 -45,22 -52,42 -78,59 -20,13 -48,83 -66,100 -44,42 -65,47 -124,47 -48,0 -55,-14 -75,-16 -30,-2 -34,-39 -45,61 -3,25 -19,59 -3,88 14,26 -29,47 -48,57 -45,24 21,73 -29,136 -31,39 -138,-7 -123,68 22,105 24,81 -30,172 -25,42 -49,38 -72,92 -5,12 -8,57 -9,72 -1,36 -61,134 -88,158 -24,22 -33,58 -15,86 12,18 21,46 -3,60 -36,23 -40,-7 -62,49 -23,57 -64,67 -71,111 -8,53 -26,43 -46,81 -19,35 -6,92 -45,118 -84,57 -39,86 -79,132 -55,64 -49,64 -31,140 9,39 -49,87 -84,90 -13,-11 -67,-41 -84,-41 -45,1 -33,-51 -20,-78 23,-45 -49,-41 -69,-92 -30,-79 -140,-66 -166,-220 -12,-73 -89,-69 -116,-103 -16,-20 -21,-18 -36,-29 -38,-30 -131,24 -164,46 -78,50 -127,-51 -199,-15 -39,20 -101,49 -138,8 -44,-49 -14,-103 9,-153 4,-9 9,-21 11,-30 13,-54 25,-70 7,-122 -13,-39 -87,-30 -124,-40 -31,-8 -95,24 -132,10 -52,-20 -42,-39 -63,-70 -40,-59 0,-132 -2,-191 -1,-41 3,-57 8,-95 1,-4 0,-7 -1,-8l0 0c-6,-8 -33,21 -37,27 -12,17 -53,59 -65,70l-3 3c-55,52 -66,68 -144,75 -83,8 -95,59 -146,90 -56,35 -66,45 -107,95 -26,32 -51,97 -84,109 -69,26 -85,20 -149,68 -24,18 -51,59 -60,88 -19,58 -32,59 -69,96 -19,19 -38,97 -32,117 25,78 -44,102 -55,153 -5,22 -23,45 -40,59 -50,42 -37,39 -75,90 -6,17 -12,35 -18,53 -18,52 -17,84 -65,123 -21,17 -25,23 -42,40 -31,30 -76,205 -76,250 0,35 6,48 9,77 5,44 -1,79 2,124 0,8 0,17 0,25 1,64 -57,58 -41,114 25,87 -25,61 -29,115 -3,46 3,59 -9,110 -18,78 -56,87 -63,111 -10,35 -33,70 -64,90 -96,62 -143,155 -196,253 -26,50 -29,40 -40,97 -17,91 7,88 -75,150 -19,15 -68,29 -92,14 -78,-48 -92,-8 -123,-25 -96,-51 -90,58 -103,69 -40,31 -58,21 -58,87 0,39 -51,38 -57,82 -5,43 14,40 -27,67 -45,31 -66,21 -38,78 18,36 -74,99 -36,148 52,67 85,-7 104,-17 34,-18 20,74 20,82 0,19 -11,52 -11,54 7,34 -18,88 -29,120l-7 87c30,2 65,12 74,33 2,4 22,113 22,119 0,13 -2,24 -8,37 -16,35 -11,23 -41,13 -24,-8 -75,-62 -81,-4 -3,28 82,81 2,103 -32,9 -10,1 -37,19 -34,23 -82,84 -10,66 62,-16 -10,56 -5,78 5,24 94,11 48,93 -11,20 32,62 -3,84 -21,13 -121,-34 -113,20 5,36 97,72 61,106 -39,37 -133,-47 -117,71 1,5 0,10 1,15 4,37 5,25 12,51 10,38 -79,21 -66,65 9,30 -44,6 -29,51 42,120 -32,34 -38,126 -5,69 -60,45 -72,105 -5,27 -16,40 -28,44l0 0z"/>
  <path class="fil1 str0" d="M14254 7118c-88,39 -52,8 -121,24 -74,17 -62,68 -114,94 -58,30 -17,120 -98,151 -31,12 -60,47 -67,79 -11,49 -46,73 -82,100 -41,31 -60,52 -94,87 -24,24 -52,47 -73,74 -37,60 -31,32 -78,66 -82,60 -83,98 -97,190 -10,67 -38,129 -50,192 -7,37 13,90 4,141 -17,97 42,159 110,219 43,38 119,78 144,123 11,20 13,32 19,52 18,111 -6,94 -12,187 -6,88 6,134 28,217 11,40 15,65 22,106 13,68 64,146 86,223 26,94 1,124 -21,211 -4,14 -18,60 -24,71l-36 111 0 0c60,0 98,3 158,-8 124,-23 252,-16 373,16 30,8 162,18 192,14 105,-13 185,-53 299,-61 196,-14 301,-53 509,-15 14,3 29,5 43,7 77,3 125,20 205,19 21,0 44,5 63,13 30,14 48,50 89,71 102,52 118,46 222,72 57,14 112,18 171,33 49,13 332,26 380,18 97,-18 196,-30 291,-57 28,-8 118,-36 142,-26 23,10 29,42 52,66 48,51 40,63 121,68l8 1c80,-9 123,2 201,-18 93,-24 162,0 243,42 67,35 112,7 188,36 128,49 115,30 248,30 71,0 136,9 194,52 57,42 206,96 277,106 47,7 78,16 129,16 68,0 70,1 125,25 49,22 49,32 88,67 26,23 33,52 49,79l0 0c21,2 47,10 49,-11 3,-39 36,-22 49,-26 43,-16 43,-35 49,-77 18,-19 39,-34 61,-49 43,-29 79,-33 77,-89 -3,-66 22,-87 24,-127 1,-12 5,-38 5,-43 1,-24 38,-107 58,-119 53,-34 8,-58 28,-84 12,-17 100,6 121,-43 27,-64 -72,-113 -81,-155 -13,-58 6,-47 -35,-94 -27,-31 -21,-17 -42,-59 -23,-45 7,-69 21,-105 27,-67 37,-45 33,-130 0,-51 36,-71 79,-89 30,-13 89,-81 111,-93 118,-68 32,-135 107,-194 54,-42 32,-64 50,-112 27,-69 46,-39 38,-124 -5,-60 32,-62 14,-150 -12,-62 13,-77 12,-110 -2,-61 -78,-20 -56,-70 19,-42 22,-42 38,-96 1,-9 9,-41 12,-51 22,-66 -75,-70 -50,-204 10,-50 9,-73 -30,-110 -31,-29 14,-105 23,-139 5,-19 9,-100 -4,-114 -42,-48 -112,2 -160,-64 -31,-42 -101,23 -127,-33 -26,-56 -74,-15 -74,-113 0,-38 -73,-30 -98,-41 -28,-12 -17,-20 -46,-11 -26,8 -28,97 -75,81 -6,-2 -69,-85 -80,-95 -33,-32 -28,-32 -79,-54 -8,-4 -20,-9 -26,-13 -37,-23 -44,-28 -86,-44 -93,-34 -122,41 -162,-16 -43,-61 -88,-108 -130,-170 -59,-88 -144,69 -189,20 -18,-20 -8,-30 -45,-64 -24,-22 -46,-24 -63,-38 -75,-58 -27,-112 -87,-182 -26,-30 -44,-24 -67,-33 -10,-4 13,-69 15,-74 3,-14 6,-32 9,-46 6,-34 39,-71 34,-89 -21,-76 47,-63 26,-159 -16,-70 64,-101 7,-177 -36,-47 9,-95 24,-146 29,-96 105,-202 127,-291 12,-50 13,-67 33,-118 16,-55 35,-57 51,-96 14,-33 45,-56 49,-82 9,-57 22,-48 48,-90 29,-49 0,-110 38,-121 63,-20 40,-15 59,-66 0,0 58,-36 34,-86 -23,-48 -16,-71 -16,-121 0,-30 -17,-105 -16,-113 7,-47 10,-34 9,-87 -1,-46 22,-51 52,-64 32,-15 42,-37 55,-69 22,-32 72,-36 104,-29 67,13 68,-4 104,-52 13,-18 36,-63 41,-69 17,-21 49,-125 41,-150 -10,-27 -16,-63 -22,-91 -3,-16 3,-71 16,-81 31,-25 46,-52 67,-88l0 0 -13 -8c-4,-1 -8,-3 -12,-3 -73,0 -135,59 -168,56 -52,-6 -81,-14 -121,-48 -38,-32 -17,-35 -81,-45l-9 -3c-84,-24 -165,-33 -243,-74 -63,-33 -78,-144 -180,-171 -86,-22 -40,-64 -79,-63 -72,1 -96,-135 -161,-163 -37,-16 -126,-15 -163,-14 3,-32 -2,-72 -12,-89 -26,-47 35,-78 43,-109 15,-57 -46,-48 -20,-110 14,-33 59,-38 34,-72 -20,-27 26,-95 43,-120 15,-22 22,-54 -12,-63 -93,-26 24,-128 0,-150 -25,-24 -23,-15 -29,-62 0,-2 -1,-5 -1,-7 -17,-62 -98,-20 -53,-114 21,-44 81,-36 48,-96 -16,-30 -2,-56 28,-64 50,-14 18,-39 27,-59 21,-48 66,0 76,-68 7,-45 24,-48 28,-60 17,-50 -21,-43 25,-121 1,-3 2,-5 4,-8 13,-26 24,-45 38,-73 20,-42 -12,-59 -46,-53 -25,4 -46,8 -61,-19 -29,-55 48,-77 46,-137 -1,-24 11,-62 33,-73 43,-24 -1,-46 1,-62 8,-59 83,-63 69,-113 -15,-53 40,-67 54,-95 42,-85 -136,-4 -157,-60 -6,-17 -32,-52 -54,-46 -45,12 -64,80 -77,115 -15,41 -5,79 -42,100 -21,12 -27,18 -39,25 -8,12 -30,67 -32,79 -7,40 -16,69 -55,90 -55,31 -73,111 -116,123 -49,13 -26,43 -40,63 -25,39 -46,33 -83,33 -53,0 -36,99 -78,121 -26,14 -61,18 -64,56 -3,46 24,33 -26,79 -33,23 -88,-6 -106,23 -12,20 -23,29 -31,30l0 0c-3,12 -15,66 -23,75 -87,105 -144,75 -193,222 -23,70 -31,214 -61,262 -26,41 -54,70 -81,116 -24,42 -61,121 -91,153 -34,36 -54,68 -84,105 -10,18 -19,36 -24,56 -12,52 -27,98 -40,148 -15,61 -45,103 -66,157 -48,121 4,235 -111,326 -32,26 -69,67 -79,108 -8,32 -46,142 -62,169 -30,51 -35,76 -82,120 -28,43 -73,85 -66,141 7,68 -11,62 -39,112 -4,7 -21,123 -25,142 -6,31 -3,46 -4,77 0,12 15,141 18,158 9,49 2,39 -9,79 -19,66 -75,91 -116,132 -87,87 -87,113 -119,225l-4 14c-23,73 -89,110 -127,186 -38,77 -67,161 -110,236 -44,76 -47,99 -114,164 -25,24 -48,68 -69,90 -30,32 -59,50 -91,85 -52,57 -148,135 -214,176 -46,29 -84,44 -133,68 -90,55 -80,54 -120,145 -19,43 -30,127 -49,152 -53,72 -146,65 -175,86 -83,59 -57,166 -135,203 -42,20 -46,25 -95,22l0 0z"/>
  <path class="fil1 str0" d="M13700 9836c-7,52 -16,195 -8,243 3,18 2,39 7,61 11,41 8,67 37,107 30,41 73,109 49,160 -17,38 -35,64 -51,100 -31,65 -19,72 -7,135 12,64 7,88 -5,151l-2 6c-6,52 -17,96 -26,148 -6,36 -5,92 -11,133 -2,14 -3,100 -3,119 0,45 -3,93 -1,136 6,113 36,229 48,344 5,54 19,96 25,145l0 8c38,76 79,179 107,260 47,136 89,120 89,289 0,54 -10,162 -3,208 7,46 9,111 19,158 12,59 13,123 24,182 2,13 6,39 7,52l49 116 0 0c37,16 93,40 124,67 41,35 98,35 147,34 31,-1 166,51 215,58 56,8 138,-52 187,37 26,48 79,124 140,123 38,-1 106,-11 136,6 73,39 50,59 88,95 46,64 35,45 100,66 62,20 31,94 105,126 58,25 180,24 179,96 -1,62 7,124 86,113 135,-20 73,71 221,16 33,-12 106,2 116,41 6,25 15,52 18,77 -7,62 -11,57 -57,83 -98,56 25,152 30,180 9,56 -14,85 26,143 10,15 94,93 96,99 6,16 13,17 17,42 11,74 76,148 113,210l0 0 273 -7 85 -287c5,-18 7,-34 12,-52 34,-132 98,-253 117,-389 5,-31 28,-87 34,-118 6,-32 19,-58 23,-80 8,-40 50,-71 92,-66 88,10 99,-48 154,-92 56,-44 38,-27 101,-44 5,-1 28,-14 35,-18 35,-17 66,-45 93,-58 46,-21 57,-52 86,-74 29,-23 98,-159 112,-194 23,-59 54,-71 96,-111 59,-56 107,-139 123,-219 16,-79 32,-151 52,-230 13,-52 21,-104 30,-156 5,-87 -3,-111 -48,-188 -27,-45 5,-107 51,-119 22,-6 75,-22 85,-43 26,-57 70,23 102,48 21,17 44,-19 45,-35 3,-47 20,-75 27,-113 8,-44 39,-21 47,5 10,28 21,54 17,85 -12,94 92,55 134,53 65,-3 84,-10 121,-67 12,-18 59,-215 58,-240 -1,-42 22,-107 55,-133 37,-30 104,-59 117,-109 15,-59 10,-88 -30,-135 -45,-53 -69,-82 -83,-153 5,-13 13,-40 19,-51 29,-52 44,-114 81,-158 21,-25 25,-100 15,-127 -18,-53 6,-92 23,-142 16,-48 -5,-99 -1,-129 2,-17 50,-59 62,-65 41,-23 36,-57 68,-75 77,-42 15,-90 48,-114 62,-44 34,-79 75,-105 5,-3 14,-4 23,-3l0 0c-16,-27 -23,-56 -49,-79 -38,-35 -39,-46 -88,-67 -55,-25 -58,-26 -125,-25 -51,1 -81,-9 -129,-16 -71,-10 -220,-64 -277,-106 -58,-43 -123,-52 -194,-52 -133,0 -120,18 -248,-30 -76,-29 -121,-1 -188,-36 -81,-42 -150,-66 -243,-42 -78,20 -121,9 -201,18l-8 -1c-81,-5 -73,-17 -121,-68 -23,-24 -29,-57 -52,-66 -24,-10 -114,18 -142,26 -95,27 -194,40 -291,57 -48,9 -331,-5 -380,-18 -59,-15 -114,-19 -171,-33 -104,-25 -120,-19 -222,-72 -41,-21 -59,-58 -89,-71 -19,-9 -42,-14 -63,-13 -80,1 -128,-16 -205,-19 -15,-3 -29,-5 -43,-7 -208,-39 -312,1 -509,15 -113,8 -194,48 -299,61 -31,4 -163,-6 -192,-14 -122,-32 -250,-39 -373,-16 -60,11 -98,8 -158,8l0 0z"/>
  <path class="fil1 str0" d="M9306 13383c89,-55 39,-50 89,-89 22,-17 112,-28 144,-35 64,-15 -14,-80 38,-117 46,-33 107,1 128,-98 5,-25 0,-67 7,-99l0 -5c-23,-52 -66,-123 -36,-180 54,-104 -4,-126 44,-197 63,-95 36,-189 90,-301 45,-93 -23,-139 -53,-218 -7,-68 -10,-52 -52,-87 -34,-29 -91,-138 -22,-118 19,6 42,-1 63,21 30,31 78,-13 125,-9 28,2 51,-1 83,3 14,2 31,12 45,17l0 0c60,-51 19,-30 46,-69 18,-25 36,-42 36,-79 0,-59 -20,-24 6,-99 22,-63 -34,-106 -58,-151 -11,-20 -38,-98 -34,-119 16,-79 18,-67 54,-135 31,-59 -25,-72 17,-153 18,-6 101,-29 116,-46 14,-16 60,-88 61,-107 1,-47 -9,-105 -22,-150 -23,-79 10,-161 85,-196 35,-16 63,-39 48,-80 -23,-61 26,-90 64,-136 75,-89 38,-122 61,-219l1 -4c32,-69 8,-55 23,-102 10,-33 103,-68 79,-183 -9,-46 3,-140 58,-157 61,-19 145,-12 186,-80 25,-41 -31,-116 48,-155 55,-26 27,-89 31,-128 11,-102 71,-109 149,-67 24,13 60,46 88,5 29,-41 -63,-93 -5,-148l5 -4c66,-56 54,-52 98,-116 27,-39 41,-61 55,-107 26,-85 129,11 160,-107 15,-59 60,-106 66,-153 5,-39 -5,-60 21,-102 15,-24 67,-99 102,-73l0 0 71 -127c15,-16 76,-72 78,-96 6,-74 74,-104 78,-144 5,-47 49,-101 80,-135 18,-19 22,-106 36,-144 21,-56 29,-53 36,-121 4,-45 11,-81 4,-127 -3,-22 2,-56 -1,-84 -5,-39 2,-77 4,-116 18,-29 23,-43 37,-68 17,-30 52,-66 80,-84 102,-65 167,-74 288,-61 41,4 190,34 221,50 42,22 92,33 130,63 64,51 211,65 290,58 32,-3 76,1 111,-3 56,-5 113,2 172,-8 74,-12 134,-28 205,-42 75,-50 81,-42 155,-76 54,-24 102,-30 159,-40 43,-7 89,-5 131,-19 31,-10 155,-43 184,-43 17,0 34,4 50,11l4 27 0 0c50,2 53,-3 95,-22 79,-37 52,-144 135,-203 30,-21 122,-14 175,-86 19,-25 30,-109 49,-152 40,-91 30,-90 120,-145 48,-24 87,-39 133,-68 65,-42 161,-120 214,-176 32,-35 61,-53 91,-85 21,-22 45,-66 69,-90 66,-65 69,-88 114,-164 44,-75 72,-159 110,-236 38,-76 104,-113 127,-186l4 -14c32,-112 32,-139 119,-225 41,-41 96,-66 116,-132 12,-40 18,-30 9,-79 -3,-17 -18,-147 -18,-158 0,-30 -2,-46 4,-77 3,-19 21,-135 25,-142 27,-50 46,-44 39,-112 -6,-56 39,-98 66,-141 47,-44 52,-69 82,-120 16,-27 54,-137 62,-169 10,-41 47,-83 79,-108 115,-91 63,-206 111,-326 21,-54 51,-96 66,-157 13,-50 27,-96 40,-148 5,-20 14,-38 24,-56 30,-38 50,-69 84,-105 30,-32 67,-111 91,-153 27,-47 55,-75 81,-116 30,-48 38,-191 61,-262 49,-147 105,-117 193,-222 8,-10 20,-63 23,-75l0 0c-24,5 -37,-44 -52,-53 -34,-19 -64,-8 -92,-8 -89,-1 -49,-68 -151,41 -38,41 -51,81 -102,102 -44,19 -48,116 -92,105 -52,-13 -75,8 -121,30 -40,19 -72,87 -77,130 -8,68 -8,79 -5,150l0 4c7,47 22,76 0,123 -29,61 -22,63 -5,118 14,46 -73,44 -100,38 -70,-17 -109,26 -164,35 -84,15 -90,12 -156,72 -50,45 -113,78 -168,124 -95,79 -130,32 -168,62 -59,47 -60,49 -133,44 -43,-3 -62,9 -96,35 -37,29 -101,93 -150,91 -41,-1 -45,-7 -75,-28 -23,-16 -48,-57 -49,-57 -24,-16 -17,-51 -30,-61 -37,-28 -81,8 -110,29l-11 3c-42,17 -54,17 -98,26 -74,15 -118,-19 -178,25 -112,82 -116,-36 -225,30 -80,49 -158,-15 -163,-95 -6,-90 -86,-69 -111,-124 -15,-33 -11,-26 -31,-54 -25,-35 -82,-25 -90,-63 -12,-55 21,-98 30,-149 11,-64 76,-124 -22,-86 -46,18 -130,11 -174,-11 -41,-20 -82,-43 -126,-10 -28,21 -46,103 -69,134 -15,20 -99,181 -105,204 -15,52 -105,1 -142,-4 -41,-5 -78,-9 -120,-15 -15,-5 -36,-4 -52,-7 -93,-15 -85,-8 -156,-63 -44,-34 -40,-64 -32,-119 18,-120 -35,-70 -68,-150 -16,-39 -80,-48 -113,-37 -53,17 -105,-24 -126,-69 -27,-55 -38,-35 -58,-62 -21,-28 -49,-34 -70,-48 -50,-34 -91,34 -106,-9 -12,-35 -5,-51 -54,-53 -28,-1 -58,-18 -73,-43 -14,-24 -40,-81 -70,-88 -48,-11 -90,-8 -120,36 -17,25 -15,69 8,91 34,34 21,37 36,57 27,37 4,48 -24,86 -38,52 -79,-49 -174,-25 -39,10 -63,26 -102,44 -2,2 -5,4 -8,5 -44,26 -51,103 -87,125 -50,31 -77,24 -131,16 -41,-6 -88,-26 -123,-49 -37,-24 -34,-17 -68,-31 -54,-21 -55,-12 -103,-20 -46,-8 -93,22 -131,-9 -76,-61 -68,-13 -147,-18 -34,-2 -51,-32 -86,-15 -7,3 -103,60 -107,63 -37,28 -143,54 -190,54 -49,0 -89,-14 -139,-19 -60,-5 -55,-8 -104,-38 -41,-25 -68,101 -124,83 -23,-7 -27,30 -25,45 5,48 -50,62 -85,76 -18,7 -97,6 -115,6 -13,4 -74,27 -78,28 -78,10 -25,-25 -112,21 -30,16 -67,16 -100,17 -43,1 -42,77 -48,97 -9,35 -14,82 -48,102 -36,22 -39,59 -26,97 22,66 -13,98 13,130 23,28 87,9 103,-9 58,-63 64,-22 95,-35 147,-64 112,-11 205,46 28,17 45,61 57,68 17,10 21,42 21,60 0,35 -15,60 -16,78 -3,34 -13,4 5,60 -34,18 -9,35 -13,58 -2,11 -6,20 -12,27l0 0 126 110c36,67 76,88 105,152 39,88 0,179 145,210 51,11 111,-9 166,4 59,13 174,40 230,33 71,-9 154,-5 197,60 6,10 48,69 52,73 18,21 56,62 79,81 19,16 56,59 57,85 1,47 1,67 -34,103 -44,44 -50,32 -84,95 -24,45 -37,35 -55,103 -26,97 -59,107 -118,186 -45,59 -37,109 14,160 43,43 194,48 245,81 36,24 63,62 80,101 31,84 44,69 101,115 10,8 22,65 44,91 32,40 44,82 99,101 11,4 61,31 35,45 -17,9 -39,31 -63,43 -55,28 -93,76 -164,98 -25,8 -15,9 -50,15 -43,8 -96,5 -140,11 -74,10 -98,-13 -159,48 -23,23 -66,48 -89,76 -41,52 -63,65 -110,107 -22,20 -48,57 -75,81 -12,11 -55,55 -60,68 -48,83 -101,101 -183,143 -34,17 -73,21 -111,20 -94,-2 -89,107 -129,156 -34,42 -68,131 -104,180 -32,44 -49,82 -87,128 -55,66 -56,122 -96,178 -40,57 -140,57 -155,153 -8,53 17,103 16,148 41,132 73,113 132,212 47,79 55,173 67,262 16,115 -51,350 -104,451 -12,22 -31,68 -36,92 -31,90 -49,121 -58,220 -5,53 -16,105 -15,159 2,49 -8,109 -3,158 6,64 -8,168 -8,238 0,38 0,137 -28,165 -86,85 -97,66 -188,122l-13 9c-44,38 -99,77 -156,91 -62,15 -189,112 -216,170 -30,65 -175,147 -141,229 7,16 34,53 46,80 41,93 111,140 161,218 33,51 29,116 73,148 84,62 13,86 -17,149l-3 7c-31,30 -22,19 -45,34 -54,35 41,105 -38,216 -38,53 -50,41 -110,46 -51,5 -81,35 -114,73 -29,33 -45,68 -83,99 -79,65 -63,57 -160,83 -13,4 -40,18 -53,24l0 0c-41,35 -39,32 -19,74 30,65 21,227 36,308 19,104 48,177 76,275 8,28 15,67 22,97 4,64 9,48 20,96 10,45 26,78 30,129 7,80 11,158 17,238 5,63 10,104 21,167 14,86 31,180 52,264 4,16 9,41 11,57l20 228 171 45z"/>
  
  
  
  
  
  
  
  
  
  
  
  
  
  
  
  
  
  
  
  
  
  
  
  
 </g>
</svg>