<svg xmlns="http://www.w3.org/2000/svg" xmlns:xlink="http://www.w3.org/1999/xlink" xml:space="preserve" width="210mm" height="297mm" version="1.1" style="shape-rendering:geometricPrecision; text-rendering:geometricPrecision; image-rendering:optimizeQuality; fill-rule:evenodd; clip-rule:evenodd" viewBox="0 0 21000 29700">
 <defs>
  <style type="text/css">
   <![CDATA[
    .str1 {stroke:black;stroke-width:10;stroke-opacity:0.501961}
    .str3 {stroke:black;stroke-width:50}
    .str5 {stroke:#434242;stroke-width:10}
    .str0 {stroke:black;stroke-width:10}
    .str2 {stroke:black;stroke-width:10}
    .str6 {stroke:#2B2A29;stroke-width:7.62}
    .str4 {stroke:black;stroke-width:7.62}
    .fil6 {fill:none}
    .fil0 {fill:#FEFEFE}
    .fil1 {fill:#FEFEFE}
    .fil8 {fill:#D9DADA}
    .fil5 {fill:#FEFEFE;fill-rule:nonzero}
    .fil4 {fill:#D9DADA;fill-rule:nonzero}
    .fil7 {fill:#434242;fill-rule:nonzero}
    .fil3 {fill:black;fill-rule:nonzero}
    .fil2 {fill:#FEFEFE;fill-rule:nonzero;fill-opacity:0.501961}
   ]]>
  </style>
 </defs>
 <g id="Plan_x0020_1">
  <metadata id="CorelCorpID_0Corel-Layer"/>
  <path class="fil0 str0" d="M8637 5830l-4 192c55,11 52,16 94,32 39,15 125,-16 129,69 3,72 -9,99 6,178 10,52 5,83 2,133 -2,44 0,82 -8,127 -5,30 -1,91 -6,114 12,45 4,107 12,157 7,44 8,103 23,145 13,34 12,76 -3,110 -12,28 25,94 14,141 -13,58 -37,98 -60,151 -21,48 -40,102 -20,154 8,22 37,21 54,75 13,41 31,119 3,160 -14,20 -93,68 -120,74 -42,9 -77,20 -32,56 92,73 2,207 87,271 72,55 70,63 121,132 13,18 31,39 39,60 13,87 15,145 17,233 3,106 103,106 65,187 -16,35 -53,127 -39,163 15,38 -28,55 20,118 26,35 11,26 50,56 36,28 71,91 73,138 1,33 9,69 9,105l0 4c11,94 -3,90 36,182 10,23 41,114 24,136 -50,65 -49,72 -24,144 16,46 -50,102 -1,209 25,56 14,164 -12,220 -22,46 -2,85 -2,137 22,65 30,146 33,215 3,83 1,162 -11,244 -14,93 3,167 2,258 -1,140 -13,143 35,282 8,23 7,46 12,63 2,69 4,125 12,193 9,75 20,173 34,246 14,70 -13,139 -78,173 -7,4 -8,5 -16,8l-50 19 0 0c-9,67 -11,88 -29,151 -10,37 -10,64 -12,101 -5,69 -52,159 10,214 17,15 81,97 85,120 5,23 5,21 5,45 15,101 36,172 63,268 5,17 4,68 -1,86 -6,24 -13,57 -19,81 -19,88 -17,111 3,199 32,140 173,97 90,220 -7,11 -17,27 -24,39 -21,48 -34,98 -37,150 -4,74 -39,148 -91,200 -38,38 -169,149 -189,181 -48,79 -36,126 -22,215 11,70 46,177 120,201 28,9 103,20 112,52 4,16 4,23 4,39 24,63 29,77 100,91 108,21 239,21 348,11 45,-4 239,0 273,23 60,41 25,115 79,191 58,81 80,92 168,137 22,11 81,46 100,61 41,33 64,50 115,67 62,21 86,88 -3,110 -21,5 -149,52 -130,83 15,26 56,63 84,74 8,3 15,6 23,9 80,68 74,88 104,180 8,26 40,69 45,101 9,66 -16,95 -23,161 -4,38 -11,40 -7,83 13,126 -113,215 4,331 32,32 56,70 54,117 -9,52 -11,82 21,120 22,25 30,112 38,125l0 0c57,-29 81,57 112,41 138,-72 44,56 148,65 100,9 42,22 65,66 21,39 4,83 20,92 44,24 14,10 35,31 49,47 33,115 86,99 36,-11 61,30 63,56 3,43 79,75 102,74 88,-3 191,12 271,-30 53,-28 70,76 117,34 89,-80 12,78 116,-27 39,-39 40,-65 77,-113 37,-48 87,-117 130,-143 127,-76 -8,-146 128,-182 65,-17 6,-152 76,-171 113,-30 30,-144 30,-168 0,-81 106,-55 106,-133 0,-52 -32,-114 -18,-131 27,-32 86,-6 84,-54 -4,-96 116,-83 158,-179 65,-149 -62,-78 -84,-90 -121,-61 63,-211 19,-248 -45,-38 -52,-113 -18,-149 87,-92 84,-52 84,-194 0,-57 -36,-138 21,-181 76,-59 -49,-146 -45,-255 3,-67 -50,-91 -43,-182 10,-127 -120,-79 -57,-244 30,-79 -59,-132 -16,-219 67,-136 -53,-21 4,-204 21,-68 32,-96 -31,-156 -33,-31 -93,-116 -26,-144 56,-23 118,-88 134,-94 109,-35 45,-33 143,-120 35,-31 46,-25 66,-52 51,-70 5,-236 -26,-311 -19,-45 -22,-114 -32,-154 -31,-122 33,-209 21,-236 -50,-121 43,-168 40,-238 -4,-113 -49,-34 11,-185 4,-11 0,-18 -1,-29 -12,-137 -34,-106 29,-220 39,-71 47,-58 84,-98 91,-101 60,-150 60,-263 0,-69 -15,-52 -36,-89 -33,-56 -24,-101 -11,-132 61,-31 119,-22 119,-105 0,-56 -3,-62 30,-112 1,-7 3,-33 3,-39 -5,-113 3,-88 -45,-189 -24,-51 -6,-151 21,-198 35,-61 -21,-58 -48,-93 -44,-57 2,-132 32,-183 29,-49 56,-93 84,-143 36,-64 61,-91 -6,-154 -17,-22 -63,-52 -82,-81 -23,-34 -20,-27 -46,-54 -28,-29 -52,-33 -64,-44 -30,-28 -38,-86 -23,-123 28,-68 19,-40 19,-113 0,-28 -16,-65 -35,-85 -52,-56 9,-79 -81,-178 -36,-40 -33,-85 -33,-135 0,-40 -4,-77 -4,-113 0,-47 -3,-66 25,-109 4,-7 13,-20 16,-27 16,-34 55,-97 55,-133 0,-43 -32,-117 -64,-147 -68,-65 -83,-109 -83,-201 0,-67 -10,-69 -20,-125 -6,-33 15,-103 7,-124 -6,-14 -9,-43 -3,-56 17,-37 -15,-142 -1,-169 26,-48 22,-57 22,-115l1 -12c1,-51 11,-81 15,-126 8,-77 19,-136 -2,-212 -11,-40 -49,-41 -77,-49 -36,-11 -69,0 -99,0 -62,-1 -113,-16 -119,-88 -8,-90 -75,-19 -78,-110 -1,-25 -36,-121 -53,-133 -55,-38 -13,-90 -31,-103 -75,-55 -61,-35 -91,-137 0,-4 0,-7 0,-11 0,-45 26,-64 16,-88 -15,-33 -3,-51 -7,-79 -6,-40 -1,-67 -14,-105 -26,-76 20,-84 19,-101 -3,-68 -66,-54 -40,-116 9,-22 31,-40 31,-58 0,-18 -13,-42 -27,-49 -44,-19 -43,-50 -40,-95l0 0c-10,0 -21,-2 -36,-7 -69,-25 -104,28 -125,28 -23,0 -87,-47 -145,15 -26,28 -2,56 -35,34 -20,-13 -92,49 -105,80 -9,22 -59,62 -75,83 -37,49 -49,71 -97,67 -51,-4 -57,21 -71,-68 -12,-79 -12,-62 42,-136 39,-53 -16,-66 34,-139 27,-39 -19,-54 -16,-120 2,-34 -94,-107 -124,-111 -31,-4 -23,-9 -65,-8 -48,1 -102,-6 -142,-32 -13,-9 -42,-13 -33,24 16,71 -3,186 -19,260 -6,28 -26,64 -56,64 -65,0 -74,22 -135,-9 -23,-12 -30,12 -120,-10 -56,-14 -100,-14 -148,12 -49,-20 -105,-102 -94,-151 12,-54 -25,-111 -69,-139 -33,-21 -50,-54 -73,-65 -35,-18 -128,110 -149,137 -19,24 -43,76 -55,89 -25,27 -47,52 -68,82 -43,64 -99,81 -174,89 1,-31 4,-56 0,-89 -5,-48 3,-94 -12,-145 -20,-63 -17,-55 -61,-104 -34,-39 -61,-110 -73,-160 -28,-114 -110,-29 -164,15 -67,55 -141,97 -218,29 -20,-18 -26,-15 -52,-41 -56,-56 -100,-7 -188,-45 -64,-28 -46,-25 -89,-76 -37,-43 -197,-96 -244,-76 -8,3 -8,5 -14,10 -88,75 -67,-1 -117,-5l0 0z"/>
  <path class="fil0 str0" d="M9159 12092c-9,67 -11,88 -29,151 -10,37 -10,64 -12,101 -5,69 -52,159 10,214 17,15 81,97 85,120 5,23 5,21 5,45 15,101 36,172 63,268 5,17 4,68 -1,86 -6,24 -13,57 -19,81 -19,88 -17,111 3,199 32,140 173,97 90,220 -7,11 -17,27 -24,39 -21,48 -34,98 -37,150 -4,74 -39,148 -91,200 -38,38 -169,149 -189,181 -48,79 -36,126 -22,215 11,70 46,177 120,201 28,9 103,20 112,52 4,16 4,23 4,39 24,63 29,77 100,91 108,21 239,21 348,11 45,-4 239,0 273,23 60,41 25,115 79,191 58,81 80,92 168,137 22,11 81,46 100,61 41,33 64,50 115,67 62,21 86,88 -3,110 -21,5 -149,52 -130,83 15,26 56,63 84,74 8,3 15,6 23,9 80,68 74,88 104,180 8,26 40,69 45,101 9,66 -16,95 -23,161 -4,38 -11,40 -7,83 13,126 -113,215 4,331 32,32 56,70 54,117 -9,52 -11,82 21,120 22,25 30,112 38,125l0 0c-22,11 -48,39 -82,95 -54,90 -154,-36 -185,-20 -100,53 -54,-62 -124,-90 -24,-10 -57,26 -43,70 48,155 -125,69 -86,174 19,50 62,52 33,151 -10,34 -18,58 -24,77l0 0c-52,-27 -256,-107 -289,-138 -77,-76 -75,-89 -177,-141 -75,-38 -127,-42 -203,-66 -115,-37 -77,-156 -87,-246 -4,-33 12,-109 -32,-108 -51,1 -101,4 -151,0 -43,-3 -109,-45 -150,-65 -64,-32 -117,-80 -176,-119 -50,-33 -105,-83 -152,-112l-12 -10c-41,-29 -94,-57 -111,-108 -11,-34 -14,-195 -8,-233 10,-55 12,-93 18,-147 16,-145 -184,-58 -195,-191 -3,-37 -20,-81 -21,-105 -3,-54 -26,-18 -67,-25 -50,-8 -93,12 -128,47 -58,58 -106,33 -156,60 -27,14 -119,70 -139,76 -91,27 -107,-1 -183,-31 -46,-19 -83,-91 -98,-134 -28,-28 -30,-93 -25,-131 36,-258 -95,-195 -134,-322 -35,-117 23,-120 -68,-118 -90,1 -115,195 -236,166 -87,-20 -85,7 -149,11 -115,7 -160,-96 -246,-47 -112,63 -65,-19 -196,-30 -56,-5 -121,-112 -178,-45 -16,19 -32,355 -32,399 0,58 -63,27 -114,27 -60,0 -30,-102 -100,-149 -76,-51 -69,-207 -99,-264 -27,-50 -21,-180 -34,-224 -11,-35 -22,-165 -26,-175 -18,-43 -7,-188 -7,-241 0,-96 -14,-170 -3,-266l2 17c75,-43 48,-23 112,5 26,11 50,17 77,31 24,12 70,4 89,-15 27,-27 17,-87 24,-126 7,-40 0,-129 30,-148 17,-11 110,14 128,31 34,32 25,57 92,53 84,-4 140,-7 205,53 34,31 28,26 68,50 32,19 56,26 88,47 46,29 58,76 102,108 25,18 24,19 54,32 71,-37 64,-44 113,-92 73,-70 52,-103 175,-130 22,-5 94,-31 94,-57 0,-30 -18,-39 -14,-92 2,-27 -25,-46 -23,-89 3,-54 -62,-51 -70,-131 -7,-66 17,-82 15,-119 0,-2 -1,-5 -1,-7 -49,-65 -106,-129 -36,-203 57,-61 58,-146 61,-222 2,-56 46,-123 45,-208 -1,-45 1,-59 -13,-105 -7,-23 -19,-50 -21,-73 16,-73 22,-73 -33,-84 -30,-6 -106,-50 -146,-62 -51,-15 -100,-66 -136,-104 -30,-32 -55,-20 -80,9 -26,29 -73,87 -111,42 -16,-19 2,-65 -5,-96 -22,-99 19,-148 25,-243 8,-145 96,-57 141,-188 8,-23 6,-41 17,-68 8,-20 11,-28 20,-47 -2,-53 -9,-43 -42,-67 -51,-38 -88,-49 -142,-79 -30,-17 -86,-70 -80,-109 12,-77 25,-91 -17,-162 -15,-25 18,-79 26,-110 12,-42 44,-106 98,-79 33,17 27,108 95,138 126,54 114,-22 213,-47 77,-19 51,33 109,95 71,77 76,67 162,109 37,18 51,45 94,66 47,23 63,36 104,62 129,79 103,19 187,-77 15,-17 80,-98 105,-60 64,96 131,158 253,150 126,-7 214,-33 295,86 9,13 15,28 17,43 29,85 56,128 114,193 85,94 82,120 218,134 27,3 81,-8 111,7 16,8 44,14 67,26 42,21 88,27 135,27l0 0z"/>
  <path class="fil0 str0" d="M3182 14595l147 15c46,23 30,19 57,38 18,13 53,7 69,-6 23,-19 16,-58 74,-85 20,-9 79,-41 87,-59 17,-35 -17,-91 68,-115 27,-8 48,4 73,-34 38,-58 54,-65 78,-137 27,-80 -2,-98 75,-161 29,-24 36,-69 34,-104 4,-40 -2,-84 -17,-122 -27,-68 -89,-53 -29,-150 19,-30 2,-33 -13,-67 -30,-66 -59,-78 -17,-151 9,-15 14,-75 37,-116 16,-29 54,-67 87,-35 5,4 107,79 107,79 55,21 44,-42 106,-51 28,-4 28,62 109,60 54,-1 77,0 130,11 66,13 153,2 205,61 71,81 125,-11 209,-39 48,-16 77,-13 118,-24 41,-10 45,-55 54,-90 6,-23 20,-201 68,-163 51,41 115,59 172,95 17,20 42,58 66,66 15,5 58,-34 90,-35 51,-1 55,19 87,49 24,22 31,48 78,50 67,4 124,-11 184,-43l5 -1 -3 1 -20 -61c12,-65 7,-182 -26,-242 -27,-49 -45,-196 -44,-253 1,-84 -21,-179 -20,-258 1,-61 -4,-110 -9,-171 0,-63 21,-79 37,-128 19,-60 35,-56 -3,-113 -38,-58 -22,-56 -22,-112 0,-50 -42,-51 -85,-51 -59,0 -72,-30 -72,-88 0,-26 -20,-89 -15,-101 31,-66 51,-40 79,-123 7,-21 19,-35 44,-29 73,19 72,-86 78,-134 2,-45 10,-55 -29,-91 -18,-17 -32,-31 -49,-48 -40,-40 -1,-112 51,-118 48,-6 37,-3 78,-23 84,-41 42,-117 69,-177 18,-40 31,-74 -7,-108 -50,-45 -26,-48 -100,-58 -109,-14 -88,-84 -129,-124 -24,-23 -48,-47 -71,-72 -56,-59 3,-116 30,-165l5 -7c28,-39 52,-81 74,-123 19,-36 51,-87 73,-124 36,-60 53,-116 83,-174 26,-51 -69,-81 -101,-83 -79,-3 -86,-80 -100,-145 -9,-41 -34,-91 -41,-125 -10,-49 -34,-130 -55,-175 -3,-14 -37,-42 -50,-50 -43,-30 18,-88 46,-105 39,-24 46,-96 39,-138 -9,-50 13,-82 6,-108 -5,-19 -54,-20 -64,-18 -66,13 -32,-57 -13,-86 18,-28 7,-64 26,-70 48,-16 78,46 166,8 21,-9 37,-57 41,-79 11,-53 84,-103 41,-157 -32,-41 -25,-64 -41,-99 -17,-36 -25,-47 -64,-72 -20,-75 -81,-207 -70,-277 14,-90 -15,-103 -15,-170 0,-59 59,-64 108,-66 15,-27 28,-14 56,-27 31,-15 46,-64 35,-91 -18,-46 -21,-56 -71,-82 -50,-5 -63,-28 -84,-68 -34,-65 -130,-49 -171,-75 -51,-33 -18,-115 1,-156 7,-15 4,-32 -4,-49l0 0c-9,-20 -24,-40 -36,-52 -23,-23 -19,-64 -4,-89 24,-40 -5,-107 25,-146 42,-54 41,-41 41,-107 0,-30 24,-90 -6,-111 -64,-45 -63,-13 -80,-114 -2,-50 9,-106 47,-142 125,-121 81,-71 41,-132 -21,-32 -70,11 -85,30 -33,41 -43,-58 -45,-73 -8,-87 -111,-44 -144,-98 -28,-46 -48,-73 -98,-95 -64,-28 7,-169 -73,-146 -43,12 -39,-10 -62,2 -50,25 -16,81 -37,121 -31,59 9,60 8,106 -1,56 14,78 -42,99 -21,8 -48,39 -58,36 -26,-8 -17,-71 -10,-89 12,-29 9,-76 -27,-78 -42,-2 -19,-47 -33,-50 -24,-5 -27,77 -30,89 -9,32 -4,90 -33,107 -39,23 -19,12 -49,45 -64,71 -67,-82 -73,-98 -27,-72 21,-94 15,-144 -10,-88 -21,-55 4,-143 29,-104 12,-84 -1,-182 2,-36 19,-63 9,-104 -11,-49 -7,-62 -1,-109 7,-53 52,-91 13,-130 -45,-45 25,-101 29,-134 7,-56 11,-70 -12,-122 -9,-19 -33,-40 -51,-52 -17,-11 -41,-47 -46,-67 -7,-31 -3,-30 -19,-67l-11 -66 0 0c-6,3 -12,7 -18,10 -85,44 -58,18 -103,7 -40,-10 -69,57 -84,82 -22,36 -100,76 -138,65 -59,-17 -92,-2 -109,64 -17,64 23,47 -31,110 -18,22 -22,23 -44,40 -31,24 -85,25 -118,0 -2,-2 -49,-30 -52,-31 -46,-21 -33,-28 -58,-58 -42,-50 -49,-43 -105,-64 -30,-11 -26,-108 -26,-132 0,-19 -1,-37 -1,-56 0,-65 -45,-108 -89,-151 -53,-51 -65,-48 -50,-135 8,-46 -9,-66 -2,-91 19,-73 2,-111 2,-176 0,-66 21,-115 16,-174 -3,-33 -8,-36 -6,-78l-1191 0 0 0c-54,125 32,74 32,198 0,111 46,70 123,106 49,23 -23,89 53,106 83,19 42,70 72,134 4,8 18,45 19,53 12,83 7,66 -7,144 -17,92 42,133 58,219 5,27 10,32 12,63 5,85 -39,78 -56,148 -16,65 -2,65 10,127 8,41 -20,79 1,166 3,14 2,57 0,71 -3,26 4,76 -1,101 -6,27 -6,63 -27,83 -12,12 -19,63 -19,80 1,49 -89,41 -45,130 50,100 -70,152 -7,245 42,62 -39,180 22,262 53,71 73,93 99,181 1,3 3,6 3,9 -3,73 -7,119 -55,176 -36,43 -38,45 -81,80 -50,41 7,74 -15,147 -26,84 -21,163 2,248 9,35 64,84 94,102 39,24 31,50 52,92 34,66 5,62 -27,107 -23,32 -24,29 -43,68 -16,33 -20,47 -25,79 -9,50 -35,79 2,134 12,19 69,70 30,95 -32,21 -24,23 -41,55 -50,26 -62,29 -115,13 -8,-2 -87,-39 -94,-45 -23,-20 -47,-79 -61,-6 -8,43 -78,117 -114,142 -57,38 -71,89 -21,140 42,42 32,98 44,151 13,55 23,115 -63,96 -35,-8 -63,-12 -96,3 -45,21 -69,12 -37,86 42,94 15,56 21,141 4,54 23,121 25,169l0 6c8,63 19,84 10,150 -8,61 5,120 13,180 5,40 -21,108 -32,151 -1,6 -7,19 -8,24l0 0c72,71 90,14 135,18 27,2 1,64 25,105 31,52 102,102 128,160 -24,55 -5,135 -20,175 -33,90 -58,98 -100,185 -30,61 -22,77 -54,133 -16,28 -5,43 13,62 9,9 21,36 16,51 -9,28 -43,110 -7,131 17,9 112,-37 129,27 13,49 28,33 -10,89 -21,30 -40,69 -18,104 21,33 -32,131 39,149 47,12 86,44 120,78 10,10 14,12 17,26 17,72 -1,64 -9,124 -11,80 61,76 61,174 0,49 -76,111 -56,174 10,30 91,-3 86,78 -3,40 -47,75 -8,131 46,66 44,65 40,148 -2,48 -9,53 7,106 3,11 10,38 12,48 4,20 12,39 23,56 11,17 -73,119 5,118 47,-1 71,44 60,86 -10,37 -4,48 -21,89 -30,76 35,31 35,123 0,37 -7,93 45,78 41,-12 89,-16 103,34 8,28 -30,94 14,174 17,32 87,14 74,112 -6,42 -6,67 -5,108 0,1 0,2 0,3 -9,30 -16,51 -15,81 0,0 -3,15 -1,19 45,130 25,92 134,103 30,3 64,29 64,58 0,83 -48,125 -24,183 34,83 -132,225 -65,291 35,35 71,18 129,111 40,63 -51,61 35,177 54,73 -30,132 66,257 7,9 11,17 15,26l0 0z"/>
  <path class="fil0 str0" d="M4466 5191l11 66c15,37 12,37 19,67 5,20 28,56 46,67 18,11 43,32 51,52 23,52 19,66 12,122 -4,33 -74,89 -29,134 39,39 -6,77 -13,130 -6,47 -10,60 1,109 10,42 -7,68 -9,104 13,99 30,78 1,182 -24,88 -14,56 -4,143 6,50 -41,72 -15,144 6,16 9,169 73,98 30,-33 11,-22 49,-45 29,-18 25,-75 33,-107 3,-12 6,-94 30,-89 14,3 -9,48 33,50 36,2 39,49 27,78 -7,18 -16,80 10,89 10,3 37,-27 58,-36 56,-22 41,-43 42,-99 1,-46 -39,-46 -8,-106 21,-39 -14,-96 37,-121 23,-11 18,10 62,-2 81,-23 9,118 73,146 50,22 70,49 98,95 33,54 135,11 144,98 1,15 11,115 45,73 16,-19 64,-62 85,-30 40,61 84,11 -41,132 -37,36 -49,92 -47,142 17,100 16,68 80,114 30,21 6,81 6,111 0,66 1,53 -41,107 -30,38 -1,106 -25,146 -15,24 -19,65 4,89 12,12 27,31 36,52l0 0 91 -54c72,5 38,9 80,17 25,5 84,24 104,4 22,-20 83,-71 112,-73 19,-1 23,-10 52,-3 41,10 92,-37 114,-67 18,-25 47,-52 79,-50 32,2 65,1 97,6 33,6 93,11 127,12 69,2 151,37 185,-46 11,-25 33,-82 69,-74 38,8 77,-25 88,-63 12,-42 33,-67 65,-97 54,-28 50,-37 94,-66 37,-24 76,-51 113,-74 26,-16 115,-47 147,-54 50,-11 139,-20 182,15 34,28 80,62 108,7 11,-22 17,-15 32,-30 39,-6 35,16 65,16 22,0 23,-33 20,-46 -9,-34 12,-100 31,-128 31,-46 30,-102 22,-156 0,-80 -12,-68 15,-150 25,-75 47,-94 78,-157 41,-82 -33,-179 13,-243 65,-90 103,-33 103,-130 0,-30 20,-95 43,-116 53,-50 1,-89 2,-143 1,-40 -6,-72 22,-98 48,-45 63,-19 63,-102 1,-6 3,-11 4,-16 7,-26 14,-35 20,-54 25,-77 77,-103 81,-202 2,-48 10,-97 12,-144 3,-57 11,-114 25,-170 40,-154 18,-101 -27,-228 -5,-14 -43,-54 -54,-54 -56,-2 -44,70 -87,90 -53,25 -66,-31 -82,-53 -49,-70 -76,12 -98,-101 0,-16 0,-30 -4,-47 -20,-90 53,-76 5,-140 -24,-32 28,-78 49,-99 57,-57 29,-33 53,-97 11,-29 -33,-110 -49,-120 -32,-19 -11,-59 -47,-70 -54,-17 -38,-33 -43,-74 -5,-38 63,-30 76,-52 25,-43 -10,-48 -40,-67 -59,-37 32,-46 51,-48 7,-4 27,-24 37,-32 89,-67 82,-79 106,-173 5,-19 24,-64 39,-75 35,-27 5,-79 5,-115 0,-60 57,-35 50,-89 -12,-105 -129,-44 -33,-135l65 -67 0 0c-49,20 -43,-5 -65,-29 -24,-27 -66,-28 -100,-22 -34,6 -47,28 -65,38 -69,37 -67,-59 -112,-13 -23,23 -27,31 -55,54 -33,27 -31,33 -54,59 -23,26 -39,89 -62,97 -7,3 -40,-8 -80,8 -84,33 -51,-95 -64,-119 -39,-70 36,-128 22,-145 -5,-6 -62,-36 -75,-43 -76,-42 -56,-66 -103,-98 -80,-54 -45,-71 -64,-105 -26,-45 -28,-39 -49,-98l-2 -8c-11,-38 -21,-63 -35,-99 -32,-84 -84,-163 -109,-249 -11,-37 -23,-70 -35,-106 -24,-72 -47,-139 -65,-213 -19,-76 -33,-125 -66,-198 -20,20 -37,42 -54,65 -26,35 -61,113 -68,156 -8,51 -34,99 -45,147 -8,34 -62,170 -79,202 -17,33 -26,68 -41,96 -32,62 -46,133 -74,191 -28,60 -37,111 -68,173 -2,4 -8,22 -9,26 -10,46 -24,69 -41,110 -32,76 -46,121 -67,200 -15,56 -30,128 -80,165 -52,39 -40,77 -58,123 -53,133 -71,114 -188,127 -49,5 -44,-6 -94,32l-3 2c-22,14 -32,38 -47,59 -44,62 -30,101 -122,102 -25,0 -41,-37 -47,-57 -14,-44 -77,-2 -108,7 -46,13 -37,73 -37,113 0,17 -10,85 -16,98 -13,31 -10,68 -18,93 -4,13 -18,61 -22,71 -10,24 -11,91 -3,115 26,89 -29,128 -29,207 0,57 -12,91 -30,144l-6 6c-99,79 -141,15 -239,28 -33,5 -118,-6 -147,-17 -54,-21 -103,7 -142,45 -24,24 -45,137 -65,169 -4,6 -26,110 -25,121 3,65 -42,120 -53,178 -12,68 -17,82 -43,143 -11,26 -6,70 -15,79 -18,17 -15,10 -38,39l0 0z"/>
  <path class="fil0 str0" d="M5782 13330c34,29 29,28 62,47 56,33 -44,106 12,126 63,23 92,54 78,121 -9,43 21,141 21,197 0,47 -21,76 -10,140 0,2 5,35 5,35l0 0c75,-43 48,-23 112,5 26,11 50,17 77,31 24,12 70,4 89,-15 27,-27 17,-87 24,-126 7,-40 0,-129 30,-148 17,-11 110,14 128,31 34,32 25,57 92,53 84,-4 140,-7 205,53 34,31 28,26 68,50 32,19 56,26 88,47 46,29 58,76 102,108 25,18 24,19 54,32 71,-37 64,-44 113,-92 73,-70 52,-103 175,-130 22,-5 94,-31 94,-57 0,-30 -18,-39 -14,-92 2,-27 -25,-46 -23,-89 3,-54 -62,-51 -70,-131 -7,-66 17,-82 15,-119 0,-2 -1,-5 -1,-7 -49,-65 -106,-129 -36,-203 57,-61 58,-146 61,-222 2,-56 46,-123 45,-208 -1,-45 1,-59 -13,-105 -7,-23 -19,-50 -21,-73 16,-73 22,-73 -33,-84 -30,-6 -106,-50 -146,-62 -51,-15 -100,-66 -136,-104 -30,-32 -55,-20 -80,9 -26,29 -73,87 -111,42 -16,-19 2,-65 -5,-96 -22,-99 19,-148 25,-243 8,-145 96,-57 141,-188 8,-23 6,-41 17,-68 8,-20 11,-28 20,-47 -2,-53 -9,-43 -42,-67 -51,-38 -88,-49 -142,-79 -30,-17 -86,-70 -80,-109 12,-77 25,-91 -17,-162 -15,-25 18,-79 26,-110 12,-42 44,-106 98,-79 33,17 27,108 95,138 126,54 114,-22 213,-47 77,-19 51,33 109,95 71,77 76,67 162,109 37,18 51,45 94,66 47,23 63,36 104,62 129,79 103,19 187,-77 15,-17 80,-98 105,-60 64,96 131,158 253,150 126,-7 214,-33 295,86 9,13 15,28 17,43 29,85 56,128 114,193 85,94 82,120 218,134 27,3 81,-8 111,7 16,8 44,14 67,26 42,21 88,27 135,27l0 0 50 -19c8,-3 9,-4 16,-8 65,-34 92,-103 78,-173 -15,-73 -26,-171 -34,-246 -8,-69 -9,-124 -12,-193 -5,-17 -4,-40 -12,-63 -49,-139 -37,-142 -35,-282 1,-91 -17,-165 -2,-258 13,-82 15,-161 11,-244 -3,-69 -11,-150 -33,-215 0,-52 -20,-91 2,-137 26,-56 37,-164 12,-220 -49,-108 17,-163 1,-209 -25,-72 -27,-79 24,-144 17,-22 -14,-113 -24,-136 -38,-91 -24,-88 -36,-182l0 -4c0,-36 -8,-72 -9,-105 -2,-47 -38,-110 -73,-138 -38,-30 -23,-21 -50,-56 -47,-63 -5,-80 -20,-118 -14,-36 23,-128 39,-163 38,-81 -62,-80 -65,-187 -3,-87 -5,-146 -17,-233 -9,-21 -26,-42 -39,-60 -51,-69 -49,-77 -121,-132 -85,-64 5,-198 -87,-271 -45,-36 -10,-47 32,-56 28,-6 106,-54 120,-74 28,-41 9,-119 -3,-160 -17,-54 -46,-53 -54,-75 -20,-53 -1,-106 20,-154 23,-53 46,-93 60,-151 11,-47 -26,-113 -14,-141 15,-34 15,-76 3,-110 -16,-42 -16,-101 -23,-145 -9,-50 0,-112 -12,-157 5,-23 1,-84 6,-114 8,-45 6,-83 8,-127 3,-50 8,-81 -2,-133 -15,-78 -2,-105 -6,-178 -4,-85 -90,-55 -129,-69 -42,-16 -39,-20 -94,-32l4 -192 0 0c24,-63 100,-157 117,-167 153,-90 72,-199 108,-238 77,-82 83,43 112,-155 3,-21 -7,-57 -11,-79 -11,-59 77,-76 -18,-136 -33,-21 -22,-63 4,-81 31,-21 59,6 121,-38 34,-24 37,-74 37,-113 0,-51 24,-58 13,-92 -10,-30 -22,-33 -22,-69 0,-26 12,-50 18,-75 -28,7 -53,-45 -53,-45 -60,-34 -68,-98 -97,-162 -6,-14 -14,-38 -10,-52 42,-141 174,-143 18,-210 -52,-22 56,-141 76,-155 78,-55 83,-78 141,-146 59,-70 60,-220 94,-290 43,-88 -70,-109 -136,-106 -76,4 -57,-236 -46,-274 18,-63 -5,-92 -5,-109 4,-92 100,-78 -16,-180 -44,-39 -63,-69 -7,-107l0 0c-5,-9 -36,-63 -47,-63 -35,2 -59,50 -72,77 -25,52 -73,121 -140,108 -57,-11 -32,-46 -105,-61 -70,-15 -82,46 -113,80 -37,41 -27,52 -95,20 -19,-20 -9,-80 -43,-81 -78,-1 -106,85 -145,101 -51,21 -66,8 -100,-24 -58,-55 -15,-62 -84,-94 -36,-17 -3,-70 -66,-57 -28,6 -48,83 -50,109 -4,35 -59,45 -86,56l0 0 -65 67c-96,90 21,30 33,135 6,54 -50,29 -50,89 0,36 31,88 -5,115 -15,11 -34,56 -39,75 -24,95 -17,106 -106,173 -10,8 -29,28 -37,32 -20,3 -110,12 -51,48 30,19 65,24 40,67 -13,22 -81,14 -76,52 5,41 -12,57 43,74 36,11 15,51 47,70 17,10 60,91 49,120 -24,63 4,39 -53,97 -22,22 -73,67 -49,99 48,64 -25,50 -5,140 4,16 4,30 4,47 22,113 48,31 98,101 16,22 29,79 82,53 43,-21 32,-92 87,-90 11,0 49,40 54,54 46,127 68,74 27,228 -15,55 -23,112 -25,170 -2,47 -10,96 -12,144 -4,99 -56,126 -81,202 -6,19 -13,28 -20,54 -1,6 -3,11 -4,16 0,83 -15,58 -63,102 -28,26 -21,58 -22,98 -1,54 51,93 -2,143 -22,21 -43,86 -43,116 0,97 -38,40 -103,130 -46,64 28,161 -13,243 -31,63 -53,82 -78,157 -27,82 -15,70 -15,150 8,54 8,110 -22,156 -19,28 -40,94 -31,128 3,13 3,46 -20,46 -30,0 -26,-22 -65,-16 -15,15 -20,8 -32,30 -29,55 -75,21 -108,-7 -43,-35 -131,-27 -182,-15 -32,7 -121,38 -147,54 -37,23 -76,50 -113,74 -43,29 -40,38 -94,66 -32,30 -53,55 -65,97 -11,38 -50,71 -88,63 -36,-8 -59,48 -69,74 -34,82 -116,48 -185,46 -34,-1 -94,-6 -127,-12 -32,-6 -65,-4 -97,-6 -31,-2 -61,25 -79,50 -22,31 -73,77 -114,67 -29,-7 -33,2 -52,3 -29,2 -91,52 -112,73 -21,20 -79,0 -104,-4 -42,-8 -8,-12 -80,-17l-91 54 0 0c8,17 11,35 4,49 -19,41 -52,123 -1,156 41,26 137,11 171,75 21,40 33,63 84,68 50,26 53,36 71,82 10,27 -4,76 -35,91 -28,13 -40,0 -56,27 -49,2 -108,7 -108,66 0,67 29,80 15,170 -11,70 49,202 70,277 38,25 46,36 64,72 17,35 9,58 41,99 43,55 -30,104 -41,157 -5,22 -20,70 -41,79 -89,38 -119,-23 -166,-8 -20,6 -8,42 -26,70 -19,29 -53,99 13,86 11,-2 59,-1 64,18 7,26 -15,58 -6,108 7,42 0,114 -39,138 -28,17 -89,75 -46,105 13,9 47,36 50,50 21,44 44,125 55,175 7,34 33,84 41,125 14,65 21,142 100,145 32,1 127,32 101,83 -30,58 -46,114 -83,174 -22,37 -54,88 -73,124 -23,42 -46,84 -74,123l-5 7c-27,49 -87,106 -30,165 23,24 47,48 71,72 41,40 19,110 129,124 75,10 50,13 100,58 37,34 25,68 7,108 -27,60 14,135 -69,177 -41,20 -30,18 -78,23 -52,6 -91,78 -51,118 17,17 31,32 49,48 39,36 31,46 29,91 -6,48 -5,153 -78,134 -25,-6 -37,8 -44,29 -27,83 -48,57 -79,123 -6,12 14,74 15,101 1,58 13,88 72,88 43,0 85,0 85,51 0,56 -16,53 22,112 37,57 22,53 3,113 -16,49 -37,65 -37,128 6,60 10,110 9,171 -1,79 21,174 20,258 -1,58 17,204 44,253 33,59 38,176 26,242l20 61 3 -1z"/>
  <path class="fil0 str0" d="M8286 21907c5,63 24,54 35,100 14,56 35,69 13,125 -10,28 2,71 -1,108 -2,29 -1,52 -7,83 -1,4 -8,120 -8,123 10,74 -15,79 -19,140 -5,77 34,87 79,126 24,20 12,56 20,87 10,39 -37,34 -65,80 -42,67 -1,88 -4,139 -6,93 -18,90 46,163 28,33 6,91 45,150 12,19 16,32 24,47 68,139 137,71 156,152 7,31 -39,87 -24,141 11,40 -40,101 -85,98 -27,-1 -45,20 -93,-5 -90,-47 -48,-57 -79,-151 -31,-94 -47,-148 -124,-52 -9,11 -31,31 -43,46 -46,53 -104,107 -152,159 -68,73 -80,69 -159,120 -51,33 -103,115 -131,168 -18,42 -45,82 -42,129 2,31 -48,95 -78,110 -44,22 -52,5 -84,-30 -64,-69 -9,-40 -100,-61 -27,-6 -13,-3 -39,-5 -61,-4 -57,-21 -93,-30 -22,-5 -57,26 -24,58 71,68 -15,165 6,196 24,36 26,40 61,69 40,33 53,96 36,144 -18,51 -26,104 -4,155 25,58 -36,100 -20,167 17,75 33,79 38,168 0,57 8,125 7,182 -1,55 13,134 13,194 1,59 9,141 13,202 5,68 22,146 22,216 1,80 23,152 25,228l0 18c-3,76 -10,148 -11,224 -1,40 43,215 53,269 12,60 -5,157 6,226 1,6 -13,59 -13,63l0 0c-92,-66 -141,-96 -190,-208 -63,-130 -181,-260 -311,-327 -66,-34 -163,-89 -231,-111 -60,-19 -56,-33 -100,-58 -56,-32 -76,-57 -122,-95 -43,-35 -84,-71 -127,-106 -36,-29 -75,-73 -112,-95 -47,-29 -134,-20 -165,23 -45,60 -54,118 -54,191 0,42 6,74 7,110 1,53 6,78 10,131 9,36 14,147 -2,182 -27,61 -59,14 -85,-17 -17,-19 -71,-42 -91,-32 -32,17 -8,137 -8,175 0,37 10,65 9,92 0,43 12,84 12,122 -1,65 -2,135 4,200 4,39 -3,69 0,104l-2 7c-24,65 -31,61 -78,102 -31,26 -84,36 -121,21 -53,-22 -75,-21 -126,18 -49,37 -70,88 -119,132 -46,41 -59,65 -97,106 -23,25 -36,34 -58,56 -66,62 -85,51 -162,88l0 0 -34 -209c-3,-10 -8,-53 -9,-65 -6,-98 -52,-197 -76,-293 -28,-110 -26,-235 -58,-353 -24,-89 -35,-140 -47,-231 -2,-54 -8,-94 -15,-146 -12,-87 -105,-195 -157,-266 -21,-29 2,-44 28,-45 63,-4 116,-18 177,-27 25,-4 97,20 119,32 37,19 64,-18 70,-51 10,-51 22,-108 30,-159 12,-77 51,-106 -29,-137 -39,-16 -63,-55 -73,-95 -7,-29 -5,-182 -5,-217 -7,-64 2,-77 -32,-137 -66,-118 27,-194 12,-297 -12,-82 12,-93 -45,-167 -64,-83 -16,-110 -38,-157 -14,-30 -17,-62 -10,-94 28,-122 27,-104 -7,-228 -9,-53 2,-94 -15,-152 -21,-69 -25,-130 -52,-197 -35,-88 -9,-171 -63,-256 -55,-85 -47,-75 -69,-171 -9,-41 -3,-103 -18,-134 -37,-73 -34,-87 -55,-168 0,-38 5,-62 11,-98 8,-51 39,-62 18,-107 -23,-51 -33,-63 -47,-120 -7,-27 -8,-57 -5,-85 11,-89 -11,-83 -25,-158 -11,-61 -6,-51 -2,-110 4,-63 -40,-126 -27,-174 24,-86 48,-32 38,-151 -17,-38 -31,-65 -45,-104 -37,-107 21,-103 -59,-186 -66,-68 -33,-89 -75,-140 -16,-19 -58,-46 -61,-58 -10,-38 48,-40 52,-80 8,-77 58,-40 71,-70 44,-97 -21,-121 13,-215 21,-57 -56,-81 -60,-122 -4,-42 26,-22 1,-96 -4,-18 -7,-41 -11,-60 -13,-65 30,-69 25,-90 -19,-76 -96,-19 -61,-165 17,-69 -54,-123 0,-158 71,-46 -25,-100 -38,-144 -15,-48 -44,-98 -47,-149 -7,-115 23,-61 -26,-185 5,-10 8,-19 12,-29 55,-159 -35,-118 -48,-187 -6,-33 -30,-48 -57,-57l0 0 26 -102c36,-24 45,-32 61,-67 13,-30 28,-61 68,-56 55,7 50,15 111,-10 40,-17 80,-28 109,13 35,49 72,25 111,116 20,46 61,43 91,129 23,63 84,-23 96,-64 11,-36 43,-115 94,-90 11,5 34,51 29,70 -19,58 -19,55 32,97 51,43 -1,67 35,104 32,32 7,75 1,118 11,88 -14,107 47,174 48,52 23,156 92,132 79,-28 21,67 83,99 46,24 77,26 77,84 0,86 130,24 145,151 3,26 0,146 -8,169 -20,57 -49,81 12,121 3,2 93,23 97,22 97,-4 114,-87 237,-56 54,14 122,-14 167,7 18,8 11,49 4,62 -8,47 -25,55 -31,97 -5,36 30,72 29,139 -1,43 19,81 65,81 88,0 77,60 119,114 102,131 176,173 317,257 44,26 61,49 66,103 2,18 -2,51 -8,68 0,66 -6,102 6,168 4,25 4,150 37,150 52,0 44,0 95,16 3,1 71,30 65,12 -30,-85 -17,-226 -15,-319 1,-65 46,-121 93,-161 35,-29 67,-33 86,-70 25,-39 45,-48 56,-87 7,-25 10,-121 10,-150 0,-40 -13,-90 -16,-135 -4,-73 -22,-88 5,-169 30,-90 -25,-169 72,-260 30,-29 34,-3 76,12 130,45 138,30 249,122 48,40 42,40 79,84 40,48 36,59 99,80 71,24 88,56 120,120 65,132 217,-11 277,144 35,89 -10,268 155,259 16,-1 32,-6 48,-11l74 -22 0 0z"/>
  <path class="fil0 str0" d="M8286 21907c5,63 24,54 35,100 14,56 35,69 13,125 -10,28 2,71 -1,108 -2,29 -1,52 -7,83 -1,4 -8,120 -8,123 10,74 -15,79 -19,140 -5,77 34,87 79,126 24,20 12,56 20,87 10,39 -37,34 -65,80 -42,67 -1,88 -4,139 -6,93 -18,90 46,163 28,33 6,91 45,150 12,19 16,32 24,47 68,139 137,71 156,152 7,31 -39,87 -24,141 11,40 -40,101 -85,98 -27,-1 -45,20 -93,-5 -90,-47 -48,-57 -79,-151 -31,-94 -47,-148 -124,-52 -9,11 -31,31 -43,46 -46,53 -104,107 -152,159 -68,73 -80,69 -159,120 -51,33 -103,115 -131,168 -18,42 -45,82 -42,129 2,31 -48,95 -78,110 -44,22 -52,5 -84,-30 -64,-69 -9,-40 -100,-61 -27,-6 -13,-3 -39,-5 -61,-4 -57,-21 -93,-30 -22,-5 -57,26 -24,58 71,68 -15,165 6,196 24,36 26,40 61,69 40,33 53,96 36,144 -18,51 -26,104 -4,155 25,58 -36,100 -20,167 17,75 33,79 38,168 0,57 8,125 7,182 -1,55 13,134 13,194 1,59 9,141 13,202 5,68 22,146 22,216 1,80 23,152 25,228l0 18c-3,76 -10,148 -11,224 -1,40 43,215 53,269 12,60 -5,157 6,226 1,6 -13,59 -13,63l0 0c47,34 51,45 107,71 69,32 23,275 82,288 53,12 80,13 93,69 24,106 82,21 124,105 4,9 18,180 20,199 1,59 7,91 38,138 34,49 -8,157 27,212 5,7 56,173 74,129 19,-47 23,-92 41,-142 13,-38 18,-105 32,-151 52,-170 1,-166 158,-290 78,-62 5,-86 -3,-104 -20,-46 65,-51 74,-57 17,-10 37,-28 46,-45 40,-43 63,-94 111,-126 38,-26 47,74 51,96 5,26 25,91 42,109 43,43 63,60 97,113 47,73 48,55 116,98 39,25 106,6 129,-33 32,-55 18,-90 25,-153 9,-75 -18,-164 -41,-235 -32,-98 -80,-80 -94,-222 -12,-123 83,-219 134,-327 18,-69 37,-115 51,-185 15,-73 80,-106 132,-42 85,105 45,102 188,115 35,3 103,-11 131,-10 0,-21 8,-47 21,-84 12,-33 18,-95 3,-129 -42,-93 -82,-57 -116,-147 -43,-116 -129,-123 -31,-250 47,-62 -6,-60 29,-109 30,-42 -42,-160 -56,-198 -7,-20 5,-43 1,-65 -6,-32 16,-62 46,-65 43,-4 157,2 180,-44 8,-16 12,-29 12,-40 11,-2 74,-19 84,-19 137,3 148,-14 275,53 51,27 53,-3 66,6 86,58 58,88 104,154 88,125 151,31 249,78 35,16 76,-59 111,-73 -4,-9 0,-89 0,-99 2,-87 -170,-136 -98,-257 50,-84 -127,-111 -90,-179 54,-100 135,6 181,-57 32,-43 89,-28 129,-3 77,50 81,-17 112,-31 64,-30 57,-30 116,-72 88,-64 -52,-188 -17,-294 52,-158 -59,-120 -49,-180 10,-62 44,-2 32,-137 -1,-15 -5,-20 -25,-29 -52,-24 20,-68 46,-73 57,-12 -34,-84 -55,-87 -98,-18 -1,-100 -19,-168 -16,-58 17,-132 -26,-168 -77,-65 46,-126 48,-141 6,-45 -69,-79 -69,-120 0,-59 57,-127 14,-174 -117,-129 45,-176 2,-207 -61,-44 -53,40 -99,-98l-19 -29c-7,-7 -12,-11 -19,-17 -33,-31 -5,-28 -53,-60 -26,-24 -122,-34 -159,-34 -99,0 -123,-48 -128,-140 -3,-61 -50,-42 1,-136 52,-96 -14,-101 -38,-162 -34,-86 -70,-67 -35,-176 27,-82 47,-75 -29,-87 -54,-8 -170,35 -147,-73 20,-91 43,-62 -12,-149 1,-20 2,-37 7,-56 23,-98 68,-115 133,-180 68,-67 49,-105 138,-159 49,-30 34,-113 17,-159 -20,-52 -1,-71 -19,-110 -29,-65 -52,-27 -64,-104 -7,-44 -40,-49 -64,-74 -30,-32 -34,-24 -66,-47 -64,-44 -82,-48 -53,-132 12,-28 16,-78 5,-108 -33,-91 -63,-25 -100,-133 -22,-63 -53,-54 -24,-122 12,-29 40,-46 40,-59 0,-10 -39,-97 -46,-109 -29,-53 -11,-70 -36,-124 -35,-74 67,-64 58,-158 -7,-82 -16,-37 14,-136 37,-64 44,-68 62,-138 23,-88 -105,-80 -47,-202 34,-71 -42,-86 -44,-153 -1,-30 0,-44 0,-57l0 0 -115 -24c-9,-33 -22,-64 -28,-97 -17,-85 -95,2 -147,-17 -10,-4 -75,4 -44,44 19,24 12,64 36,94 31,39 38,132 25,179 -15,56 36,166 -30,217 -41,32 -73,119 -117,119 -11,-43 -15,-59 -36,-101 -21,-43 -26,-65 -70,-82 -26,-9 7,-78 -67,-130 -19,-13 -40,5 -71,5 -110,0 -130,17 -143,126 -6,51 -20,50 -68,56 -23,3 -54,-1 -79,3 -73,11 -155,-63 -211,-100 -33,-22 -39,-34 -59,-65 -52,-49 -81,-94 -126,-144 -21,-24 -53,-33 -82,-43 -62,-21 -32,-47 -134,-43 -32,1 -115,-9 -104,53 10,64 68,22 98,77 17,30 -56,43 -77,68 -44,54 -65,122 -54,191 16,101 -8,160 -38,253 -19,59 13,48 59,76 67,40 99,34 138,112 -5,43 0,54 -3,89 -3,46 -33,99 -32,163 1,37 -2,47 15,83 43,94 -17,104 -4,194 7,45 75,129 91,190 14,52 87,142 87,145 5,67 -18,103 -8,172 10,73 0,65 -26,130 -16,39 -7,94 -24,152l-4 12c-19,64 -5,129 -62,177 -24,20 -23,36 -34,60l-17 38 0 0z"/>
  <path class="fil0 str0" d="M5782 13330c34,29 29,28 62,47 56,33 -44,106 12,126 63,23 92,54 78,121 -9,43 21,141 21,197 0,47 -21,76 -10,140 0,2 5,35 5,35l-2 -17c-11,96 3,170 3,266 0,52 -11,197 7,241 4,10 16,140 26,175 14,44 8,174 34,224 30,57 23,213 99,264 70,47 40,149 100,149 51,0 114,30 114,-27 0,-44 15,-380 32,-399 57,-67 122,40 178,45 131,11 84,93 196,30 86,-49 131,55 246,47 63,-4 61,-32 149,-11 121,28 146,-165 236,-166 91,-1 33,1 68,118 38,128 170,65 134,322 -5,38 -4,103 25,131 15,43 52,115 98,134 76,31 92,58 183,31 20,-6 112,-62 139,-76 50,-27 98,-2 156,-60 35,-35 79,-55 128,-47 41,7 64,-29 67,25 1,24 18,68 21,105 11,133 212,45 195,191 -6,54 -8,92 -18,147 -7,38 -3,199 8,233 17,51 69,79 111,108l12 10c47,29 102,79 152,112 59,39 111,87 176,119 41,20 108,62 150,65 50,4 100,1 151,0 43,-1 28,74 32,108 10,89 -27,208 87,246 76,25 128,28 203,66 102,52 100,65 177,141 33,32 237,112 289,138l0 0c-22,73 -12,61 32,182 18,50 157,5 127,87 -18,47 -56,56 -13,114 61,83 -107,47 8,231 28,45 -65,147 140,348 35,35 101,199 -63,95 -50,-32 -83,-12 -121,28 -42,44 24,96 5,129 -86,146 -71,81 -66,216 2,51 -129,97 -99,213 11,43 -22,114 -31,164 -17,91 -141,107 -93,133 66,35 56,121 -14,148 -42,17 -43,88 -90,124 15,48 18,61 18,79l0 0 -115 -24c-9,-33 -22,-64 -28,-97 -17,-85 -95,2 -147,-17 -10,-4 -75,4 -44,44 19,24 12,64 36,94 31,39 38,132 25,179 -15,56 36,166 -30,217 -41,32 -73,119 -117,119 -11,-43 -15,-59 -36,-101 -21,-43 -26,-65 -70,-82 -26,-9 7,-78 -67,-130 -19,-13 -40,5 -71,5 -110,0 -130,17 -143,126 -6,51 -20,50 -68,56 -23,3 -54,-1 -79,3 -73,11 -155,-63 -211,-100 -33,-22 -39,-34 -59,-65 -52,-49 -81,-94 -126,-144 -21,-24 -53,-33 -82,-43 -62,-21 -32,-47 -134,-43 -32,1 -115,-9 -104,53 10,64 68,22 98,77 17,30 -56,43 -77,68 -44,54 -65,122 -54,191 16,101 -8,160 -38,253 -19,59 13,48 59,76 67,40 99,34 138,112 -5,43 0,54 -3,89 -3,46 -33,99 -32,163 1,37 -2,47 15,83 43,94 -17,104 -4,194 7,45 75,129 91,190 14,52 87,142 87,145 5,67 -18,103 -8,172 10,73 0,65 -26,130 -16,39 -7,94 -24,152l-4 12c-19,64 -5,129 -62,177 -24,20 -23,36 -34,60l-17 38 0 0 -74 22c-15,5 -31,10 -48,11 -165,9 -120,-170 -155,-259 -60,-155 -212,-12 -277,-144 -31,-64 -49,-96 -120,-120 -62,-21 -59,-32 -99,-80 -37,-44 -31,-45 -79,-84 -111,-92 -120,-77 -249,-122 -42,-14 -46,-41 -76,-12 -96,91 -41,170 -72,260 -27,81 -10,95 -5,169 3,45 16,95 16,135 0,28 -3,125 -10,150 -11,39 -31,47 -56,87 -18,37 -51,40 -86,70 -47,40 -92,96 -93,161 -2,93 -15,234 15,319 6,17 -62,-11 -65,-12 -51,-16 -43,-16 -95,-16 -33,0 -33,-126 -37,-150 -11,-67 -5,-103 -6,-168 5,-18 10,-50 8,-68 -5,-54 -22,-77 -66,-103 -141,-84 -215,-126 -317,-257 -42,-54 -31,-114 -119,-114 -46,0 -66,-37 -65,-81 1,-67 -34,-103 -29,-139 6,-42 23,-51 31,-97 7,-14 14,-54 -4,-62 -45,-21 -113,8 -167,-7 -123,-32 -139,52 -237,56 -4,0 -94,-21 -97,-22 -61,-40 -33,-64 -12,-121 8,-22 11,-143 8,-169 -15,-127 -145,-65 -145,-151 0,-58 -30,-60 -77,-84 -62,-32 -4,-127 -83,-99 -69,24 -44,-80 -92,-132 -61,-66 -36,-86 -47,-174 6,-43 31,-86 -1,-118 -37,-37 16,-61 -35,-104 -51,-43 -51,-39 -32,-97 6,-18 -18,-64 -29,-70 -51,-25 -83,54 -94,90 -12,41 -74,127 -96,64 -31,-86 -71,-83 -91,-129 -40,-92 -76,-67 -111,-116 -29,-41 -69,-30 -109,-13 -60,26 -56,17 -111,10 -40,-5 -55,27 -68,56 -16,35 -24,43 -61,67l-26 102 0 0c-39,-13 -87,-17 -108,-51 -17,-28 -87,-57 -119,-63 -64,-13 -29,-69 -51,-114 -30,-60 -6,-70 -16,-105 -17,-62 18,-81 -31,-160 -31,-49 41,-127 0,-154 -16,-10 -48,-70 -57,-82 0,-104 -124,-114 -56,-213 16,-23 2,-97 -13,-119 -36,-53 25,-39 26,-53 4,-47 -34,-52 -1,-75 27,-20 9,-34 10,-61 2,-46 -73,-66 -51,-104 28,-49 53,-28 -12,-82 -29,12 -51,3 -27,-60 19,-50 -21,-163 -63,-83 -14,27 -113,32 -133,-14 -23,-53 -25,-43 -40,-105 -6,-26 -13,-6 -19,-75 -14,-152 -190,50 -190,-68 0,-162 -81,-66 -147,-103 -57,-32 -88,-44 -101,-42 -5,-12 -10,-35 -16,-46 -50,-79 30,-78 1,-151 -24,-60 22,-57 11,-96 -28,-101 -49,-118 21,-213 4,-19 18,-58 25,-77 32,-80 -26,-129 5,-195 27,-58 -28,-62 -31,-103 -5,-75 50,-80 33,-126 -41,-116 30,-94 33,-171 3,-73 57,-82 32,-164 -15,-49 -30,-58 -46,-125l2 -13c-1,-65 -39,-108 -96,-133 -43,-19 -27,-74 -78,-116 -96,-80 -66,-154 -12,-248 30,-53 45,-72 -15,-113 -67,-45 -67,-56 -44,-123 14,-41 -1,-40 6,-70 22,-92 48,-29 18,-163 -4,-9 -6,-18 -9,-27 -14,-50 -39,-56 -27,-111 14,-64 -68,-72 -67,-178 1,-78 11,-138 7,-217 -4,-72 -21,-101 -15,-181l534 0c-33,-59 10,-101 -53,-136 -91,-50 -54,-108 -76,-166l0 0 147 15c46,23 30,19 57,38 18,13 53,7 69,-6 23,-19 16,-58 74,-85 20,-9 79,-41 87,-59 17,-35 -17,-91 68,-115 27,-8 48,4 73,-34 38,-58 54,-65 78,-137 27,-80 -2,-98 75,-161 29,-24 36,-69 34,-104 4,-40 -2,-84 -17,-122 -27,-68 -89,-53 -29,-150 19,-30 2,-33 -13,-67 -30,-66 -59,-78 -17,-151 9,-15 14,-75 37,-116 16,-29 54,-67 87,-35 5,4 107,79 107,79 55,21 44,-42 106,-51 28,-4 28,62 109,60 54,-1 77,0 130,11 66,13 153,2 205,61 71,81 125,-11 209,-39 48,-16 77,-13 118,-24 41,-10 45,-55 54,-90 6,-23 20,-201 68,-163 51,41 115,59 172,95 17,20 42,58 66,66 15,5 58,-34 90,-35 51,-1 55,19 87,49 24,22 31,48 78,50 67,4 124,-11 184,-43l5 -1 0 0z"/>
  
  
  
  
  
  
  
  
  
  
  
  
  
  
  
  
  
  
  
  
  
  
  
  
  
 </g>
</svg>