<svg xmlns="http://www.w3.org/2000/svg" xmlns:xlink="http://www.w3.org/1999/xlink" xml:space="preserve" width="210mm" height="297mm" version="1.1" style="shape-rendering:geometricPrecision; text-rendering:geometricPrecision; image-rendering:optimizeQuality; fill-rule:evenodd; clip-rule:evenodd" viewBox="0 0 21000 29700">
 <defs>
  <style type="text/css">
   <![CDATA[
    .str1 {stroke:black;stroke-width:10;stroke-opacity:0.501961}
    .str3 {stroke:black;stroke-width:50}
    .str5 {stroke:#434242;stroke-width:10}
    .str0 {stroke:black;stroke-width:10}
    .str2 {stroke:black;stroke-width:10}
    .str6 {stroke:#2B2A29;stroke-width:7.62}
    .str4 {stroke:black;stroke-width:7.62}
    .fil5 {fill:none}
    .fil0 {fill:#FEFEFE}
    .fil7 {fill:#D9DADA}
    .fil4 {fill:#FEFEFE;fill-rule:nonzero}
    .fil3 {fill:#D9DADA;fill-rule:nonzero}
    .fil6 {fill:#434242;fill-rule:nonzero}
    .fil2 {fill:black;fill-rule:nonzero}
    .fil1 {fill:#FEFEFE;fill-rule:nonzero;fill-opacity:0.501961}
   ]]>
  </style>
 </defs>
 <g id="Plan_x0020_1">
  <metadata id="CorelCorpID_0Corel-Layer"/>
  
  
  
  
  <path class="fil0 str0" d="M16441 9139l-57 107c12,26 35,78 53,103 11,16 29,69 20,91 -13,32 -73,44 -95,94 -5,10 -53,53 -66,57 -29,10 -37,10 -64,17 -23,6 -45,30 -76,42 -44,18 -64,95 -81,135 -6,14 -8,19 -16,32 -18,92 -29,67 -75,134 -38,55 -1,98 -1,106 -1,10 3,21 -1,40 -6,28 -1,69 33,74 90,14 36,53 101,95 20,13 101,102 108,127 18,66 6,80 -9,147 -7,32 -20,67 -34,95 -20,35 -41,70 -70,98 -53,53 -101,73 -81,160 8,35 80,89 106,114 47,44 80,43 93,114 9,52 3,67 26,123 10,24 11,86 24,124 7,19 7,55 5,75 37,46 24,46 40,89 16,44 54,79 60,101 15,51 -121,95 -147,145 -26,51 0,65 -59,111 -3,3 -53,25 -69,36 -7,5 -31,16 -38,20l0 -1c-2,-6 -8,-13 -19,-21 -49,-38 -62,-31 -117,-83l-4 -1c-50,-13 -48,-38 -100,-37 -71,1 -54,-32 -63,-74 -2,-11 -50,-57 -60,-64 -35,-26 -40,-52 -81,-64 -42,-12 -69,37 -86,57 -16,19 -73,87 -50,112 31,34 -29,80 -53,98 -23,17 -135,-1 -147,37 -12,39 -31,55 -37,74 -9,30 -74,46 -101,39 -31,-8 -63,-1 -95,-1 -74,0 -47,46 -116,-28 -8,-3 -36,-11 -44,-13 -6,-1 -60,-31 -66,-35 -31,-22 -139,-13 -175,-7 -71,12 -104,-30 -161,-30 -59,0 -102,44 -161,19 -47,-20 -67,-72 -113,-96 -42,-22 -8,-21 -81,-45l0 0c3,-8 5,-28 -2,-34 -54,-51 -57,-21 -90,-49 -40,-35 5,-59 38,-77 5,-9 19,-27 23,-35 21,-44 52,-75 71,-115 35,-74 45,-88 45,-171 0,-8 -17,-94 -20,-104 -20,-69 8,-81 -12,-135 -24,-64 -16,-60 -26,-134 2,-7 2,-30 1,-38 -8,-66 23,-126 73,-168 27,-23 47,-96 53,-132 3,-21 14,-125 16,-132 26,-83 -9,-46 -61,-46 -33,0 -23,-88 -25,-113 -10,-94 -31,-97 -106,-149 -15,-1 -30,-13 -35,-27 -9,-25 -16,-27 -25,-42 -19,-32 -32,-26 -57,-36 -47,-19 -115,73 -159,52 -23,-11 -82,-61 -95,-83 -17,-29 -56,8 -67,26 -27,44 -37,54 -75,90 -33,30 -20,34 -31,45 -30,28 -103,41 -140,13 -34,-25 -60,-32 -90,-51 -14,-9 -38,-78 -56,-96 -40,-40 -50,-58 -72,-112l0 0 11 -113 -2 -8c-62,-127 -111,-51 -145,-154 -7,-21 -26,-50 -40,-67 -34,-43 -34,-60 -23,-113 19,-90 -60,-118 12,-172 57,-43 13,-57 65,-67 46,-9 38,1 68,1 15,0 36,-44 40,-57 22,-68 54,36 74,-21 19,-55 33,12 61,-67 20,-56 -8,-54 49,-109 3,-11 40,-35 50,-42 14,-10 37,-21 45,-27 30,-21 93,-32 105,-78 15,-58 76,-11 121,-15 26,-2 78,-60 90,-83 18,-33 70,-41 37,-94 -19,-31 5,-26 11,-35 2,-3 -8,-44 -1,-71 2,-8 31,-33 39,-40 8,-8 79,-60 49,-74 -32,-15 -9,5 -56,-37 -3,-15 2,-32 16,-40 70,-44 58,30 116,4 53,-24 51,-27 64,-81 18,-76 43,-15 63,-89 6,-23 -17,-53 13,-66 46,-21 21,-59 31,-72 38,-48 74,17 92,-25 14,-33 -12,-41 -5,-87 5,-30 32,-23 32,-57 0,-18 -10,-45 1,-53 21,-14 5,-26 26,-47 15,-15 41,-16 39,-38 -4,-32 -26,1 -1,-70l0 0c70,-46 45,-19 101,-32 34,-8 43,12 102,-19 27,-14 35,-23 69,-37 23,-10 34,-14 58,-7 35,11 70,14 107,16 35,2 30,67 60,99 22,24 5,49 54,72 52,24 88,86 127,103 28,12 56,22 82,37 46,27 37,28 64,68 4,7 88,89 99,99 38,44 21,59 48,91 33,40 21,39 75,67 67,36 102,52 129,127 11,31 39,54 73,44 27,-8 32,-5 61,-20 42,-21 91,-1 150,-22 11,-4 49,-14 59,-14 82,0 59,56 117,47 32,-5 54,-2 85,4l6 0 73 4 0 0c-20,50 -18,75 -68,102 -19,10 -41,65 -29,88 36,77 11,92 6,122 52,19 49,13 97,11 37,-2 75,-36 140,-29 20,2 3,13 50,3 48,-10 102,-7 150,-3 17,1 20,81 20,92 -2,29 32,100 25,125 -5,20 -1,35 -15,58 -17,28 1,58 -45,90 -11,7 -56,72 -55,84l0 0z"/>
  <path class="fil0 str0" d="M16441 9139l-57 107c12,26 35,78 53,103 11,16 29,69 20,91 -13,32 -73,44 -95,94 -5,10 -53,53 -66,57 -29,10 -37,10 -64,17 -23,6 -45,30 -76,42 -44,18 -64,95 -81,135 -6,14 -8,19 -16,32 -18,92 -29,67 -75,134 -38,55 -1,98 -1,106 -1,10 3,21 -1,40 -6,28 -1,69 33,74 90,14 36,53 101,95 20,13 101,102 108,127 18,66 6,80 -9,147 -7,32 -20,67 -34,95 -20,35 -41,70 -70,98 -53,53 -101,73 -81,160 8,35 80,89 106,114 47,44 80,43 93,114 9,52 3,67 26,123 10,24 11,86 24,124 7,19 7,55 5,75 37,46 24,46 40,89 16,44 54,79 60,101 15,51 -121,95 -147,145 -26,51 0,65 -59,111 -3,3 -53,25 -69,36 -7,5 -31,16 -38,20l0 -1c5,13 -5,24 -27,36 -74,40 -44,114 -61,129 -28,23 -72,65 -80,101 -12,57 -9,67 -43,113 -30,29 -68,55 -75,100 -2,13 -78,64 -57,114 3,8 -26,67 -31,86 -2,7 -4,12 -6,19 -34,63 -61,110 -63,183 -1,22 35,12 48,4 51,-30 54,-68 117,-104 29,-17 83,-40 116,-26 43,17 26,9 64,36 41,30 124,-18 164,-34 39,22 72,8 106,9 34,1 90,-27 113,-30 78,-10 95,35 111,102 1,15 -24,96 -29,117 -15,63 32,124 74,166 40,40 97,59 153,59 53,0 44,6 85,23 19,8 32,99 38,122 9,33 -14,104 22,116 85,28 168,-33 231,-84l95 8 0 0c3,-36 9,-77 35,-105 40,-44 34,-37 65,-92 0,-45 3,-135 21,-177 24,-56 -38,-134 22,-118 62,17 88,-5 143,-15 49,-9 95,-27 142,-37 50,-11 100,-30 140,-64 22,-18 39,-43 50,-52 47,-39 68,-100 112,-141 39,-37 80,-37 116,-71 27,-26 104,-47 103,-79 -1,-27 0,-64 28,-79 49,-26 34,-63 56,-73 56,-26 34,10 94,-54 39,-42 58,-71 91,-119 14,-21 23,-44 35,-63 19,-30 19,-30 34,-61 20,-40 29,-91 45,-127 22,-48 77,-220 110,-247 32,-26 63,-40 83,-78 13,-24 -23,-60 -42,-73 -26,-17 -35,-38 -54,-56 -16,-15 -17,-21 -28,-32 -27,-28 -26,-35 -59,-55 -22,-14 -73,19 -99,29 -31,12 -76,6 -91,-24 -35,-66 -14,-54 -95,-52 -51,1 -48,10 -92,-28 -58,-50 -51,-106 -62,-172l1 -5c7,-31 21,-91 41,-118 52,-68 56,-159 6,-229 -39,-55 -42,-98 -27,-161 10,-40 21,-44 34,-72 25,-56 42,-20 11,-69 -8,-13 -14,-31 -18,-40 -4,-7 21,-57 26,-64 20,-30 40,-130 61,-135 43,-9 47,-18 70,-60 5,-5 19,-17 19,-24 0,-29 -38,-41 -56,-50 -55,-27 -108,-70 -135,-125 -14,-27 -49,-55 -33,-79 33,-49 42,-83 65,-135 22,-52 -53,-44 -31,-99 15,-37 38,-173 38,-211 -1,-31 6,-50 10,-81 12,-81 34,-78 -17,-152 -3,-9 -4,-15 -7,-24 -6,-22 -1,-52 7,-74 21,-57 11,-128 17,-187 8,-76 -7,-99 -21,-114l0 0c-52,17 -147,80 -190,88 -48,9 -80,16 -127,29 -94,25 -80,14 -173,-4 -16,-6 -26,-5 -43,-3 -96,11 -107,65 -186,56 -41,-5 -75,39 -89,74 -22,55 -44,55 -63,89 -23,42 -24,37 -58,69 -35,33 -61,35 -91,59 -27,22 -98,108 -121,113 -23,6 -144,-45 -170,-57 -48,-23 -29,-11 -76,-18 -41,-6 -139,19 -167,-10 -34,-35 -71,-26 -105,-31l0 0z"/>
  <path class="fil0 str0" d="M3830 15151l115 74c12,30 65,142 87,163 26,24 25,49 69,49 61,0 72,56 110,54 39,-1 106,35 131,27 35,-11 39,-22 86,-24 62,-3 63,38 128,9 30,-14 59,-46 101,-54 31,-6 131,-79 164,-101 22,-25 98,-108 139,-105 21,2 99,-27 126,-34 54,-13 114,-91 132,23 5,29 21,52 26,87 6,33 -14,123 45,71 20,-18 55,-33 82,-22 26,11 88,57 92,86 3,24 35,108 75,83 17,-11 -13,-35 -13,-73 0,-34 0,-31 -6,-63 -4,-22 22,-67 13,-118 -3,-19 -11,-57 23,-51 37,7 6,62 60,89 13,7 59,34 66,43 38,50 56,34 112,54 36,13 45,5 76,32 3,2 2,2 6,3 77,27 64,42 105,61 38,18 89,-29 121,-46 91,-48 113,-50 208,-73 47,-12 89,-23 136,-36 44,-12 96,-11 145,-26 90,-29 148,23 208,81 4,4 8,7 13,10 44,65 61,64 90,142 3,8 47,81 53,85 0,0 23,30 32,38 3,3 24,23 28,27l0 0c-9,27 -15,50 -15,57 1,43 -5,43 19,86 50,91 41,76 58,182 16,103 47,91 116,137 33,22 26,3 55,46 17,25 13,14 28,45 4,9 59,98 67,107 21,28 23,27 46,50 24,25 11,118 11,151l0 0c-36,-15 -39,-10 -71,-19 -6,-2 -91,-5 -104,-5 -50,-1 -36,-10 -59,-14 -41,-8 -5,-21 -76,-3 -17,-6 -35,-6 -52,-7 -37,-2 -53,-24 -82,-16 -66,20 -63,78 -195,102 -73,13 -46,11 -118,7 -38,-2 -56,-17 -83,-17 -50,-1 -65,-47 -76,-49 -27,-5 -62,33 -72,54 -29,61 -46,22 -65,38 -53,47 -11,64 -30,76 -67,44 -98,7 -171,43 -55,27 -108,18 -166,40 -34,13 -29,8 -60,14 -40,8 -72,-40 -79,-14 -8,30 2,59 0,93 0,32 -20,49 -12,61 34,50 -25,63 -38,100 -6,18 -1,80 7,98 25,58 -14,83 59,70 70,-13 70,-32 119,-47 33,-10 61,-57 75,-34 18,30 84,36 103,62 11,15 24,22 26,25 23,34 8,41 15,71 17,9 18,15 22,18 14,7 -1,81 -3,84 -18,35 8,40 1,56 -17,39 -27,9 -13,76 -9,0 -21,4 -46,15 -19,8 -28,40 -50,54 -72,47 -20,21 -45,82 -22,55 -41,47 -67,78 -27,32 -11,49 -10,70 2,46 -41,51 -69,60 -55,19 -21,38 -4,62 10,14 -31,19 -38,19 -61,-1 -39,27 -42,38 -7,25 -29,4 -55,23 -53,38 -108,75 -162,113 -52,38 -32,110 -46,166 -17,69 -76,66 -126,98 -19,12 -70,77 -84,97 -12,18 3,22 -32,64 -29,35 -101,24 -124,-3 -29,-33 -109,-28 -90,32 24,75 -16,94 -10,115 21,73 -51,48 -32,94 26,62 -12,88 -74,70 -11,-3 -15,40 -36,22 -18,-14 -27,15 -26,25 2,48 12,57 13,114 0,22 -25,40 -40,48 -64,34 -20,55 -18,77 2,39 -72,18 -50,72 13,32 -37,93 -53,122 -16,32 -75,57 -60,93 6,15 63,51 -19,76 -28,8 -48,20 -42,54 11,61 -46,42 -45,66 2,36 -38,44 -41,78 -3,42 -49,65 -43,79 17,40 15,47 -19,81 -15,15 -40,74 -43,94 -8,46 -49,8 -60,56 -3,11 35,57 -13,107 -7,7 -11,13 -14,18 -10,1 -38,-7 -48,4 -30,33 -23,-78 -75,-45 -48,31 -33,-23 -18,-39 48,-51 -23,-52 -34,-85 -7,-21 -7,-34 -2,-43 -20,-10 -68,-20 -90,-30 -47,-23 -50,-17 -71,-73 -18,-17 -44,-39 -45,-64 -3,-62 -63,-63 -106,-93 -39,-27 -114,-10 -151,15 -47,32 -37,3 -66,-1 -41,-6 -31,-6 -71,0 -38,6 -38,28 -66,15 -45,-21 -39,7 -58,2 -32,-7 -21,-50 -22,-71 0,-13 13,-133 17,-144 27,-72 -18,-28 -54,-49 -34,-20 -46,-21 -78,-35 -44,-18 -74,37 -100,30 -35,-9 -46,8 -69,-20 -6,-7 -4,-102 -2,-115 4,-29 1,-73 4,-101 5,-54 6,-62 -7,-120l0 0 -97 -102c-3,-5 -6,-9 -9,-14 -24,-36 -37,-44 -37,-83 -1,-72 51,-106 -32,-123 -46,-10 6,-48 1,-97 -3,-30 27,-71 39,-95 12,-24 47,-50 75,-43 21,5 37,-10 38,-27 1,-20 28,-96 36,-119 12,-32 4,-66 5,-94 1,-19 -33,-75 -46,-89 -34,-35 -39,-39 -72,-85 -11,-58 0,-51 20,-92 2,-3 8,-45 -2,-50 -60,-29 24,-109 -46,-156 -13,-9 -34,-9 -46,-35 -24,-53 -68,11 -109,-86 -15,-35 -54,-37 -86,-27 -27,9 -22,34 -63,14 -15,-7 -61,-20 -78,-21 -20,-1 -6,-4 -33,-1 -18,2 -86,-28 -91,-40 -10,-21 5,-26 -5,-42 -37,-60 -33,-31 -79,-64 -15,-10 -47,-66 -41,-83 14,-38 41,-59 24,-103 -8,-21 -31,-10 -30,-49 1,-22 -18,-62 -45,-65 -27,-2 -36,-34 -57,-46 -16,-10 -9,-4 -22,-10 -25,-12 -43,0 -55,-46 -22,-78 -82,-65 -82,-146 0,-44 -12,-28 -24,-72 -4,-16 -4,-24 -13,-37 -61,-81 -36,-33 -126,-67 -39,-14 -44,-6 -51,-45 -2,-11 -65,-46 -53,-79 5,-13 64,12 91,-48 18,-38 8,-44 60,-58 33,-9 61,-4 89,14 25,16 74,22 73,-25 0,-30 12,-40 31,-57 15,-13 23,-24 42,-28 44,-10 30,-73 74,-96 55,-29 49,-83 84,-129 2,-3 12,-8 16,-10 104,-51 87,-42 119,-139 22,-67 56,-8 65,-78 8,-62 110,11 108,-92 -1,-35 50,-80 85,-71 92,24 27,-25 88,-51 59,-25 64,-58 108,2 4,6 27,26 26,6 -2,-32 47,-88 93,-77 56,13 54,-55 101,-39 29,10 57,0 70,-28 19,-40 63,-60 104,-68 44,-9 43,-54 61,-70 33,-28 45,-57 67,-95 4,-6 5,-10 10,-15 41,-41 42,-46 29,-98 -5,-23 18,-102 61,-82 31,14 95,-5 102,-50 9,-54 14,-32 62,-46 14,-4 23,-9 29,-15l0 0z"/>
  <path class="fil0 str0" d="M7013 15720c-9,27 -15,50 -15,57 1,43 -5,43 19,86 50,91 41,76 58,182 16,103 47,91 116,137 33,22 26,3 55,46 17,25 13,14 28,45 4,9 59,98 67,107 21,28 23,27 46,50 24,25 11,118 11,151l0 0c33,14 85,27 115,47 38,25 108,50 134,-5 13,-28 28,-6 64,-51 19,-23 25,-33 39,-58 18,-31 50,-32 81,-26 18,4 38,-1 64,4 30,6 79,18 105,8 10,-4 48,-34 39,-45 -17,-21 -13,-1 -23,-41 -8,-34 -4,-32 -24,-62 -22,-34 7,-94 31,-79 3,2 48,-9 66,-9 100,0 29,33 83,64 39,23 6,71 65,63 65,-9 29,48 55,55 18,5 32,-54 84,-30 52,24 33,52 86,90 75,55 63,91 91,114 38,33 71,-56 127,-21 43,27 40,24 70,72l2 3c31,42 60,78 45,132 -4,14 -64,40 -56,60 35,7 19,15 60,20 29,4 67,21 93,32 7,3 176,35 191,38 16,3 33,11 57,14 55,8 88,39 104,-47 7,-37 -33,-11 34,-102 41,-56 33,-31 49,-101 5,-20 34,-101 61,-54 11,19 -11,88 60,87 49,0 75,-70 124,-70 39,0 25,2 58,8 8,1 55,1 63,1l0 0c4,-5 28,-82 30,-91 12,-54 -12,-64 -14,-96 -4,-75 41,-52 22,-118 -8,-29 7,-48 17,-70 19,-42 60,-20 95,-125 13,-37 -6,-29 20,-79 3,-13 8,-29 12,-44 17,-74 -3,-78 -32,-143 -16,-37 17,-90 37,-122 39,-63 28,-91 28,-161 0,-65 5,-41 19,-94 14,-53 -43,-58 -48,-82 -8,-41 45,-103 64,-139 11,-10 20,-31 31,-41 28,-28 39,-38 63,-70 28,-38 8,-89 8,-125 0,-33 8,-45 13,-72 4,-19 36,-80 49,-94 25,-28 26,-58 38,-81 16,-29 25,-92 36,-103 34,-33 21,-31 45,-65 30,-41 16,-37 67,-72l0 0c10,-2 12,-60 12,-69 0,-36 15,-76 16,-96 0,-13 43,-77 49,-82 17,-12 31,-49 42,-66 4,-6 36,-55 37,-56 28,-61 -12,-46 55,-105 0,-3 -1,-3 -3,-5 -9,-11 -4,-51 -47,-53 -60,-3 -42,-26 -61,-28 -66,-7 -66,3 -108,48 -23,25 -54,-30 -63,-48 -20,-39 -71,-124 -103,-153 -27,-25 -45,-57 -69,-85 -60,-71 -29,-80 -29,-157 0,-23 -56,-18 -73,-16 -62,6 -61,-29 -80,-85 0,-12 42,-65 52,-78 23,-28 93,-100 91,-134 -1,-26 2,-34 4,-57 8,-79 2,-137 41,-214 20,-14 40,-55 66,-54 66,2 50,-68 92,-58 70,18 142,-10 213,-20 35,-5 92,-55 117,-81 48,-48 44,-9 87,-94 18,-35 -22,-128 -36,-165 -14,-35 -14,-54 -23,-86 -10,-33 -1,-72 29,-90 32,-18 19,-94 32,-114 19,-30 11,-15 24,-46 8,-20 6,-71 3,-91l-2 -85 0 0c-19,5 -56,-2 -75,-3 -41,-1 -80,-12 -122,-12 -35,0 -67,12 -98,17 -46,8 -92,31 -138,28 -41,-3 -65,5 -103,1 -30,-3 -43,-13 -66,-32 -29,-23 -41,-49 -60,-66 -40,-37 -52,-50 -106,-77 -1,8 -42,54 -40,89 2,31 -27,77 -51,97 -49,40 -43,33 -81,89 -50,75 -34,53 -120,76 -46,12 -130,81 -150,120 -19,37 -71,-20 -99,-33 -39,-17 -65,-48 -92,-61 -67,-33 -48,-94 -119,-65 -28,11 -153,34 -175,24 -46,-20 -98,-21 -117,34 -18,54 -42,61 -70,101 -5,6 -40,44 -40,44 -8,47 -1,41 -58,70 -32,19 -67,16 -98,45 -54,50 -51,32 -109,55 -57,22 -51,19 -89,63 -9,11 -58,40 -73,49 -50,29 -96,41 -154,44 -75,4 -122,-10 -181,49 -34,34 -53,59 -94,92l-119 43 0 0c-43,70 -12,44 -74,91 -7,6 -20,20 -34,35l0 0 32 89c36,30 32,25 62,43 12,7 24,-13 59,-13 25,0 -31,35 32,66 43,21 46,3 46,61 0,23 2,13 5,21 27,33 22,31 59,35 13,1 56,-8 37,19 0,1 -12,36 -17,43 -15,24 -27,95 -6,118 16,18 -17,89 -22,115 -10,48 -8,87 18,129 22,35 9,53 19,95 1,3 2,9 2,12 5,31 25,122 16,153 -6,21 0,87 -8,113 0,0 -4,34 -4,35 -65,-8 -97,-3 -139,49 -15,19 -17,43 -36,72 -16,24 -47,87 -35,115 9,20 -17,37 39,93 32,32 16,52 30,94 14,42 56,35 49,110 0,5 -12,37 -15,42 -36,73 -20,75 -90,122 -30,20 -53,25 -90,52 -22,16 -96,38 -124,37 -36,-1 -79,49 -120,45 -36,-3 -111,40 -173,23 -39,-11 -46,26 -72,42 -23,14 -4,17 -19,48 -21,43 -51,21 -38,89 9,48 107,101 50,139 -2,1 -71,64 -73,66 -36,47 -65,105 -85,161l-4 8c-3,10 -19,54 -31,92l0 0z"/>
  <path class="fil0 str0" d="M3830 15151l115 74c12,30 65,142 87,163 26,24 25,49 69,49 61,0 72,56 110,54 39,-1 106,35 131,27 35,-11 39,-22 86,-24 62,-3 63,38 128,9 30,-14 59,-46 101,-54 31,-6 131,-79 164,-101 22,-25 98,-108 139,-105 21,2 99,-27 126,-34 54,-13 114,-91 132,23 5,29 21,52 26,87 6,33 -14,123 45,71 20,-18 55,-33 82,-22 26,11 88,57 92,86 3,24 35,108 75,83 17,-11 -13,-35 -13,-73 0,-34 0,-31 -6,-63 -4,-22 22,-67 13,-118 -3,-19 -11,-57 23,-51 37,7 6,62 60,89 13,7 59,34 66,43 38,50 56,34 112,54 36,13 45,5 76,32 3,2 2,2 6,3 77,27 64,42 105,61 38,18 89,-29 121,-46 91,-48 113,-50 208,-73 47,-12 89,-23 136,-36 44,-12 96,-11 145,-26 90,-29 148,23 208,81 4,4 8,7 13,10 44,65 61,64 90,142 3,8 47,81 53,85 0,0 23,30 32,38 3,3 24,23 28,27l0 0c12,-38 28,-82 31,-92l4 -8c20,-56 49,-114 85,-161 2,-3 71,-65 73,-66 57,-38 -41,-91 -50,-139 -13,-68 17,-46 38,-89 15,-31 -5,-34 19,-48 26,-15 33,-52 72,-42 62,17 137,-26 173,-23 41,4 83,-46 120,-45 28,1 102,-21 124,-37 37,-27 60,-32 90,-52 70,-47 54,-50 90,-122 2,-5 14,-37 15,-42 6,-75 -35,-68 -49,-110 -14,-42 1,-62 -30,-94 -55,-55 -30,-72 -39,-93 -12,-28 19,-91 35,-115 19,-28 21,-53 36,-72 41,-51 74,-57 139,-49 0,-2 4,-35 4,-35 8,-26 2,-92 8,-113 9,-31 -11,-122 -16,-153 0,-3 -1,-9 -2,-12 -10,-42 3,-60 -19,-95 -26,-42 -28,-81 -18,-129 5,-26 38,-97 22,-115 -21,-23 -9,-93 6,-118 5,-8 16,-43 17,-43 19,-27 -24,-17 -37,-19 -37,-4 -33,-1 -59,-35 -3,-9 -5,2 -5,-21 0,-58 -4,-41 -46,-61 -62,-30 -7,-66 -32,-66 -35,0 -47,20 -59,13 -31,-19 -26,-13 -62,-43l-32 -89 0 0c-13,14 -27,28 -36,33 -22,11 -25,24 -62,36 -66,21 -78,35 -151,44 -53,6 -57,19 -70,69 -8,30 2,50 -37,49 -33,-1 -31,47 -97,28 -31,-9 -60,4 -60,41 0,31 -22,68 -58,59 -40,-10 -60,109 -73,130 -41,66 -45,-45 -108,92 -21,46 -20,57 -74,80 -38,16 -47,-34 -84,-53 -35,-18 -60,-41 -85,-70 -21,-26 -75,-31 -106,-35 -78,8 -81,-2 -116,63 -14,25 -34,59 -61,69 -44,17 -26,55 -53,94 -26,38 -25,99 -68,114 -50,18 -44,77 -67,109 -22,28 -19,32 -31,49 -10,14 -81,60 -87,26 -6,-35 -14,-34 -25,-62 -15,-37 -6,-35 -14,-66 -6,-24 6,-36 -24,-52 -42,-22 -18,-59 -28,-93 -17,-54 -37,-13 -8,-65 13,-23 -22,-7 -32,-53 -4,-20 32,-38 9,-48 -4,-2 -24,-27 -8,-35 10,-5 67,-48 44,-58 -41,-18 -3,-62 1,-91 4,-27 29,-18 28,-80 0,-12 12,-40 19,-49 -4,-14 -7,-29 -16,-40 -15,-18 -3,-49 27,-47 21,2 19,-23 34,-48 16,-28 -2,-28 9,-64 10,-32 19,-126 -10,-149 -22,-17 -32,-57 -26,-83 6,-25 5,-55 -7,-77 -13,-25 -18,-79 -15,-107 2,-17 -4,-34 -4,-51 -38,-62 -35,-35 -56,-64 -18,-26 -20,-93 -33,-124 -1,-2 -11,-30 -13,-31 -16,-1 -32,-7 -37,-7 -64,10 -26,65 -32,96 -9,42 -33,94 -78,108 -20,7 -32,15 -38,25 -88,32 -102,7 -168,98 -38,52 -64,70 -120,97 -17,8 -112,14 -132,5 -20,-9 -45,-28 -62,-3 -5,8 0,32 -5,51 -18,68 -13,140 -28,208 -10,43 -7,140 -4,185 1,15 -4,54 -5,71 -7,64 4,75 20,129 11,41 44,106 44,151 -15,0 -21,6 -48,5 -43,-2 -49,112 -115,55 -24,-20 -53,20 -62,39 -31,63 115,30 -8,82 -11,4 -21,5 -28,14 -76,81 -129,-38 -129,35 0,69 -49,16 -64,14 -61,-9 -37,36 -54,55 -26,27 -25,-30 -46,-12 -45,38 -89,86 -89,148 0,46 -52,10 -67,25 -34,31 33,86 29,106 -8,43 -83,-5 -60,23 34,42 -20,56 -52,73 -53,28 24,65 -16,67 -57,3 -45,-54 -127,-7 -17,10 -40,55 -47,73 -31,72 -61,26 -74,29 -28,7 -43,21 -43,50 0,24 -15,40 -38,38 -36,-2 -76,65 -98,87 -13,13 -18,12 -25,31 -26,71 -77,40 -78,88 -1,58 -43,21 -70,33 -63,27 10,75 -24,132 -36,59 33,45 7,117 -9,24 -6,42 -20,56l0 0z"/>
  <path class="fil0 str0" d="M14377 14594c8,38 18,37 19,69 1,42 -28,25 2,98 11,28 3,56 25,102 8,17 1,94 69,63 21,-10 10,-23 6,-46 -7,-42 -38,-26 0,-87 15,-23 -4,-61 37,-116 17,-23 24,-25 26,-57 0,-6 27,-56 35,-60 19,-11 40,-63 45,-67 27,-22 34,-18 58,-52 11,-15 22,-21 36,-44 26,-42 74,-39 116,-24 27,9 136,15 168,15 27,1 134,27 153,50 31,39 13,23 62,43 37,15 68,7 92,39 12,16 31,27 38,36 25,41 23,39 38,75 7,18 53,64 69,80 34,35 83,14 94,84 12,73 115,107 115,177 0,42 2,37 9,75 1,6 4,109 3,117 -8,57 -18,128 -35,181 -2,6 -4,14 -6,20 -8,38 -11,66 -24,102 -7,19 -17,99 -18,122 -1,32 -7,59 -7,96 0,46 13,98 21,144 13,70 50,50 18,144 -27,81 30,82 86,103 54,20 56,54 86,101 0,0 57,83 57,84l0 0c50,-20 83,-24 132,-44 27,-11 49,-18 77,-31 59,-27 46,-16 97,-59 46,-39 78,-59 86,-124 7,-52 -5,-110 2,-167 17,-132 34,-217 122,-323 62,-75 98,-105 180,-160l18 -12c71,-43 98,-84 159,-137 38,-33 56,-54 100,-79 54,-30 63,-55 62,-115 0,-29 32,-71 59,-80 70,-26 69,-121 180,-72 31,14 55,2 64,-31 7,-26 54,-57 82,-47 28,9 71,-13 55,-48 -14,-32 55,-48 57,-128 1,-21 5,-36 5,-62 1,-33 11,-81 11,-118l0 -11c6,-46 11,-83 18,-128 11,-74 20,-99 -37,-155 -5,-5 -11,-16 -14,-23l-31 -32c-14,-26 -27,-62 -40,-90 -33,-76 -29,-107 -39,-183 -7,-50 11,-188 6,-212 -10,-44 -94,-85 -125,-153 -24,-54 -24,-71 -19,-128l0 0 -95 -8c-63,50 -146,111 -231,84 -36,-12 -14,-83 -22,-116 -6,-23 -19,-114 -38,-122 -41,-18 -32,-23 -85,-23 -55,0 -113,-19 -153,-59 -42,-42 -90,-103 -74,-166 5,-21 29,-102 29,-117 -15,-67 -33,-112 -111,-102 -23,3 -79,31 -113,30 -33,-1 -67,13 -106,-9 -41,16 -124,64 -164,34 -38,-27 -21,-19 -64,-36 -34,-13 -87,9 -116,26 -62,37 -66,75 -117,104 -13,8 -48,18 -48,-4 2,-73 29,-120 63,-183 2,-7 4,-11 6,-19 5,-19 34,-78 31,-86 -21,-50 55,-101 57,-114 7,-44 45,-70 75,-100 33,-47 31,-57 43,-113 8,-36 52,-78 80,-101 17,-14 -13,-88 61,-129 31,-17 39,-33 8,-57 -49,-38 -62,-31 -117,-83l-4 -1c-50,-13 -48,-38 -100,-37 -71,1 -54,-32 -63,-74 -2,-11 -50,-57 -60,-64 -35,-26 -40,-52 -81,-64 -42,-12 -69,37 -86,57 -16,19 -73,87 -50,112 31,34 -29,80 -53,98 -23,17 -135,-1 -147,37 -12,39 -31,55 -37,74 -9,30 -74,46 -101,39 -31,-8 -63,-1 -95,-1 -74,0 -47,46 -116,-28 -8,-3 -36,-11 -44,-13 -6,-1 -60,-31 -66,-35 -31,-22 -139,-13 -175,-7 -71,12 -104,-30 -161,-30 -59,0 -102,44 -161,19 -47,-20 -67,-72 -113,-96 -42,-22 -8,-21 -81,-45l0 0c-81,46 -45,42 -83,106 -7,12 -50,36 -62,76 -15,48 -46,90 -79,127 -8,9 -27,37 -37,50 -37,46 -21,77 -87,127 -26,20 -56,67 -64,99 0,1 -4,13 -5,15 -15,27 -45,69 -65,94 -21,26 -55,81 -69,111 -13,28 -33,38 -48,81 -3,10 -36,72 -44,80 -17,17 -68,87 -82,109 -12,20 -32,45 -46,67 -20,33 -91,138 -117,159 -19,15 -85,103 -103,129 -10,14 -35,29 -52,53 -5,7 -16,20 -20,27 46,50 42,55 103,76 41,14 107,-2 124,31 15,28 29,36 40,76 7,25 46,82 63,104 27,34 21,95 40,142 13,32 55,110 8,130 -24,10 -37,62 -42,85 23,41 32,69 79,85 55,18 146,-30 200,-16 6,2 89,10 101,11 40,4 132,30 162,59 15,15 81,67 98,75 94,42 147,36 213,128 30,42 31,46 43,95 11,48 50,82 56,142 2,21 7,57 7,77l0 0z"/>
  <path class="fil0 str0" d="M10292 14605c-51,35 -37,31 -67,72 -25,34 -11,32 -45,65 -12,11 -20,74 -36,103 -12,23 -13,53 -38,81 -13,15 -45,75 -49,94 -5,27 -13,39 -13,72 0,35 21,87 -8,125 -23,31 -34,42 -63,70 -11,11 -20,31 -31,41 -19,36 -71,98 -64,139 5,24 62,28 48,82 -14,53 -19,29 -19,94 0,70 11,98 -28,161 -20,32 -53,85 -37,122 28,64 48,68 32,143 -3,14 -9,31 -12,44 -26,51 -8,42 -20,79 -35,105 -76,83 -95,125 -10,22 -26,41 -17,70 19,66 -26,43 -22,118 2,32 26,42 14,96 -2,9 -26,86 -30,91l0 0c-4,9 -10,19 -11,28 -5,65 -31,137 -53,200 36,12 71,26 95,57 11,15 19,11 39,44 33,53 45,77 63,138 10,33 89,60 121,72 27,10 94,-28 131,-23 25,3 40,-5 69,2 79,18 62,-74 170,-44 52,15 80,9 127,-18 35,-21 34,-57 75,-43 38,13 110,-21 151,-7 34,12 37,29 92,29 46,0 97,-1 142,0 45,-18 55,-13 89,-25 28,-10 18,-9 50,-15 27,-5 83,-23 105,-39 25,-19 37,-20 66,-47 5,-5 81,-58 85,-60 72,-29 70,-56 116,-79 25,-12 65,-21 94,-22 27,-1 89,-26 124,-22 110,13 73,-43 84,-69 14,-31 21,-46 32,-79 21,-62 32,-124 13,-188 -5,-18 1,-81 10,-96 42,-88 30,-67 106,-109 62,-35 89,-5 150,-88 44,-60 88,-51 113,-85 31,-41 36,-63 98,-70 42,-5 144,20 180,43 34,-45 18,-15 78,-47 71,-39 20,-50 67,-95 21,-20 41,-40 58,-63 38,-50 11,-66 89,-95 102,-38 80,-69 148,-134 28,-27 56,-57 75,-92 8,-15 15,-30 19,-47 13,-51 58,-38 60,-106 2,-71 62,-138 131,-151 38,-7 46,73 130,56 44,-9 56,15 16,47 -34,27 -81,62 -79,111 1,26 55,51 13,73 -75,38 -32,40 -24,55 28,54 -44,54 -53,120 -1,11 8,-4 -4,32 -14,42 1,32 37,33 18,0 20,-4 49,-2 36,3 43,-13 53,27 2,10 4,3 12,10 -12,13 -73,50 -91,55 -35,9 -48,53 -47,86 1,62 14,87 -46,127 -31,21 -15,49 -18,75 -6,57 -62,10 -69,90 -4,46 -4,70 -24,117 -3,8 -15,14 -22,18 -52,35 -27,68 25,66 63,-3 -46,74 5,87 81,21 -46,90 -22,115 37,40 53,0 48,66 -3,40 -39,48 -50,67 -12,20 17,44 27,47 29,8 -33,37 -44,49 -22,24 -11,86 10,98 44,25 -1,58 -3,84l500 388 487 172 156 -5 0 0c12,-46 16,-105 71,-105 48,0 132,-8 177,-21 55,-16 75,-11 130,-45 56,-36 61,-24 115,-76 16,-16 26,-20 43,-40 18,-21 111,-126 134,-80 19,39 21,112 53,133 8,6 48,-9 70,-9 94,0 88,18 148,-61 17,-22 53,-53 82,-53 53,0 106,-48 123,-96 35,-102 25,-107 108,-189 33,-32 64,-81 59,-128 -4,-37 -10,-73 8,-106 52,-47 50,-61 86,-109 35,-47 96,-78 154,-85 38,-5 52,-8 92,-10 27,-1 69,-9 99,-12 57,-4 102,-6 158,-24 10,-3 20,-5 32,-8 -1,-9 -5,-18 -11,-29 -23,-39 -53,-70 -85,-101 -7,-7 -43,-52 -44,-52 -17,-11 -25,-26 -33,-34 -4,-4 -8,-8 -12,-12l0 0c-1,-2 -57,-84 -57,-84 -29,-47 -31,-81 -86,-101 -55,-21 -113,-22 -86,-103 32,-94 -5,-74 -18,-144 -8,-45 -21,-98 -21,-144 0,-36 5,-63 7,-96 1,-23 11,-102 18,-122 13,-35 16,-64 24,-102 1,-6 4,-14 6,-20 17,-53 26,-124 35,-181 1,-8 -2,-111 -3,-117 -7,-38 -9,-33 -9,-75 0,-70 -104,-104 -115,-177 -11,-70 -61,-49 -94,-84 -16,-16 -61,-62 -69,-80 -15,-36 -14,-34 -38,-75 -7,-9 -26,-20 -38,-36 -24,-33 -56,-24 -92,-39 -49,-20 -30,-4 -62,-43 -19,-23 -126,-49 -153,-50 -32,-1 -141,-6 -168,-15 -42,-15 -89,-18 -116,24 -14,23 -25,29 -36,44 -24,34 -31,30 -58,52 -5,4 -26,57 -45,67 -8,4 -34,53 -35,60 -2,31 -9,34 -26,57 -41,55 -23,93 -37,116 -39,61 -7,46 0,87 4,23 15,37 -6,46 -68,31 -61,-46 -69,-63 -22,-46 -14,-74 -25,-102 -29,-73 0,-56 -2,-98 -1,-32 -11,-31 -19,-69l0 0c-16,0 -129,-10 -147,-13 -29,-6 -174,-72 -200,-92 -24,-19 -40,-21 -59,-34 -40,-27 -24,-18 -70,-30 -101,-25 -113,36 -162,53 -35,12 -127,11 -159,-6 -39,-21 -97,-33 -120,-70 -17,-28 -72,46 -77,62 -9,27 -38,53 -48,72 -11,22 -36,53 -49,74 -29,45 -69,62 -97,100 -12,16 -49,40 -62,54 -16,17 -72,66 -94,68 -35,2 -35,3 -70,-19 -28,-22 -40,-26 -51,-62 -18,-62 -109,-55 -160,-47 -113,18 -42,-90 -43,-131 -1,-40 22,-96 21,-116 -2,-82 36,-90 49,-132 16,-52 -1,-42 31,-105 24,-47 16,-56 29,-111 -2,-12 -14,-76 -21,-83 -26,-26 -31,-48 -69,-61 -34,-11 -43,-25 -79,-29 -57,-7 -49,70 -86,70 -47,0 -62,-77 -130,-98 -7,-2 -125,-51 -128,-53 -21,-13 -72,-8 -94,1 -134,56 -68,-47 -98,-67 -44,-29 7,-63 -7,-75 -14,-11 -129,7 -141,8 -28,-14 -59,-10 -88,0 -80,28 -79,-25 -108,-25 -22,0 -119,66 -156,79 -92,30 -149,49 -233,101 -81,50 -141,20 -195,61 -58,45 -98,88 -168,27 -38,-33 -56,-35 -60,23 -2,29 -29,98 -46,122 -11,14 -42,91 -45,108 -7,38 -18,36 -27,61 -15,42 -26,25 -35,90 0,3 0,6 0,8 0,21 -9,63 0,79 18,33 21,45 34,77 17,40 -26,84 -56,106 -40,29 -131,51 -179,48 -39,-3 -16,-15 -71,-9 -11,1 -81,11 -86,7 -21,-17 -39,-10 -65,-12 -53,-4 -70,-35 -109,-67l0 0z"/>
  <path class="fil0 str0" d="M14367 7667c-24,71 -2,38 1,70 3,22 -23,23 -39,38 -21,21 -5,33 -26,47 -11,8 -1,35 -1,53 0,34 -27,27 -32,57 -7,46 19,54 5,87 -18,41 -55,-23 -92,25 -10,13 15,51 -31,72 -30,13 -7,44 -13,66 -20,74 -45,13 -63,89 -13,54 -11,56 -64,81 -58,26 -46,-48 -116,-4 -13,8 -19,25 -16,40 46,43 24,22 56,37 30,14 -40,66 -49,74 -8,7 -37,32 -39,40 -7,28 3,68 1,71 -6,10 -30,5 -11,35 33,53 -20,61 -37,94 -12,23 -64,81 -90,83 -45,4 -106,-43 -121,15 -12,47 -75,57 -105,78 -8,6 -31,17 -45,27 -10,7 -47,31 -50,42 -58,55 -30,53 -49,109 -28,79 -42,13 -61,67 -20,57 -52,-47 -74,21 -4,13 -25,57 -40,57 -29,0 -22,-10 -68,-1 -52,10 -8,24 -65,67 -72,54 7,82 -12,172 -11,54 -11,71 23,113 13,17 33,46 40,67 33,102 82,27 145,154l2 8 -11 113 0 0c-23,2 -95,37 -116,49 -29,18 -65,26 -92,40 -27,14 -47,18 -71,29 -34,15 -80,-4 -91,-37 -15,-45 -5,-35 -36,-68 -34,-37 -124,-15 -166,-6 -31,7 -80,4 -101,8 -39,9 -43,-2 -70,-2 -40,0 -8,-64 0,-81l5 -6c40,-62 49,-29 102,-64 52,-34 38,-57 -17,-68 -69,-14 -45,-86 -80,-105 -48,-25 -27,-43 -38,-88 -7,-32 1,-103 -37,-117 -30,-12 -20,-11 -41,-23 -44,-27 -32,-42 -48,-90 -8,-23 5,-90 -23,-67 -37,31 -52,68 -60,113 -14,82 -93,108 -91,131 1,11 -11,90 -11,90 5,17 3,16 -1,31 -19,71 -63,91 -75,120 -4,9 -6,77 -3,86 12,30 -17,62 -22,79 -17,52 -54,81 -70,118 -14,30 -37,76 -73,84 -25,6 -133,-10 -156,-21 -32,-15 -36,-11 -68,-12 -102,-3 -141,69 -222,113 -59,32 -44,36 -117,48l0 3c0,-2 -1,-4 -1,-6 -11,-58 61,-112 65,-159 2,-29 3,-58 8,-86 2,-38 10,-35 16,-59 10,-47 -27,-49 -63,-43 -37,6 -113,-21 -130,-57 -12,-25 -35,-43 -61,-52 -35,-12 -111,4 -142,22 -27,16 -21,-18 -17,-32 10,-39 49,-51 61,-81 9,-23 43,-66 58,-91 22,-36 22,-59 35,-84 20,-37 11,-145 4,-186 -6,-33 -11,-67 -14,-100 1,-6 9,-64 9,-69 0,-37 -59,-90 -24,-131 24,-28 38,-103 57,-145 17,-38 27,-19 31,-76l-5 1c-37,9 -36,-3 -57,19 -38,40 -111,-16 -62,-65 47,-47 21,-99 35,-147 29,-100 -13,-110 -30,-195 -13,-13 -43,-35 -60,-51 -62,-58 -132,-73 -143,-160 -12,-95 -53,-3 -110,19 -19,7 -43,72 -49,93 -11,42 -71,61 -82,28 -6,-17 7,-93 13,-112 8,-27 -22,-106 -41,-123 -20,-19 -37,-34 -57,-54 -20,-21 -11,-50 -12,-67 -2,-47 57,-121 85,-159 20,-27 29,-36 57,-63l110 -195 0 0c24,-33 52,-45 56,-80 1,-8 -39,-80 6,-114 18,-13 65,50 44,-19 -13,-43 83,-55 105,-34 39,39 82,-102 87,-113 70,-154 30,-29 122,-83 44,-26 99,-93 98,-147 -1,-35 30,-78 72,-78 54,0 81,-12 109,-53 50,-74 13,-14 18,-71 3,-36 102,-42 56,-107 -21,-29 69,-26 26,-129 -21,-50 54,-80 37,-119 -11,-26 17,-60 -2,-108 -13,-36 -8,-20 -22,-49 -20,-40 -4,-70 -21,-93 -16,-21 44,-81 -35,-127 52,-41 41,-28 91,-43 31,-10 64,-16 98,-27 43,-14 87,-31 122,-60 23,-19 37,-23 63,-50 28,-28 42,-42 67,-73 21,-26 62,0 87,2 38,2 56,7 20,-32 -27,-30 4,-57 -19,-86 -87,-115 14,-23 8,-120 -1,-23 -18,-19 18,-41 39,-24 93,-32 135,-54 14,-7 52,-17 69,-11 57,19 38,23 97,-3l5 -2c37,-25 71,-57 109,-84 14,-10 14,-30 9,-43 -8,-22 5,-48 21,-12 8,18 60,41 57,-20 -3,-59 41,-52 40,-119 -1,-24 17,-50 45,-41 26,8 95,-66 158,-61 26,2 23,39 83,26 21,-4 106,-26 58,26 -26,27 1,41 1,62 0,14 -4,88 15,90 22,2 13,23 59,9 18,-6 -4,-17 0,-26 17,-36 -14,-34 44,-69 41,-24 7,-66 65,-62 26,2 31,31 74,33 17,1 33,13 53,-12 16,-20 -23,-32 -21,-48 3,-22 38,-17 20,-101 -6,-29 47,11 60,-29 2,-6 0,-26 -17,-26 -15,0 -59,-1 -63,-17 -12,-43 45,-60 27,-96 -14,-28 -11,-38 22,-54 20,-9 9,11 49,-4 66,-25 43,-21 56,34 4,16 36,53 52,57 17,4 40,39 44,58 7,38 -20,72 40,61 16,-3 24,-19 43,-15 23,5 54,-32 83,-45 48,-20 55,-26 109,-17 62,25 52,15 108,-4 28,-9 33,-13 64,-19 26,-5 94,-40 126,-47 22,-5 79,-25 92,-46 12,-21 122,-127 147,-142 13,-7 15,-17 36,-26 58,-26 104,-64 157,-97 22,-14 42,-33 59,-55l0 0 13 127c51,106 42,45 102,116 98,117 -9,97 -21,106 -51,39 43,80 8,149 -11,23 12,58 4,95 -5,21 2,72 -30,80 -33,8 -24,10 -62,1 -34,-8 -73,-20 -95,17l-1 3c-41,49 -72,111 -108,160 -23,31 -113,97 -121,114 -11,25 -88,54 -110,71 -15,12 -53,30 -68,45 -23,23 -100,36 -98,74 1,16 34,6 58,17 63,28 26,38 89,70 71,36 87,17 151,39 61,21 32,46 89,78 49,27 48,37 46,94 0,6 -2,13 -3,19 -2,56 -18,93 39,109 31,9 79,28 65,69 -19,57 14,67 -7,142 -12,42 -25,18 -25,92 0,27 0,55 -5,81 -5,26 -6,52 -35,59 -23,5 -81,73 -79,108 1,11 -13,40 -17,50 -22,29 -68,89 -95,113 -28,25 -29,-2 -62,31 -36,35 -19,59 -54,83 -35,24 -37,42 -26,75 13,40 30,48 43,91 13,42 12,29 9,76 -3,61 35,88 8,141 -10,20 -45,32 -30,69 5,13 7,20 7,34 10,30 18,79 49,97 12,7 38,43 38,62 0,33 32,14 56,50 12,19 -51,69 -6,80 14,4 31,25 42,35l0 0z"/>
  <path class="fil0 str0" d="M10656 12083l2 85c2,20 5,71 -3,91 -13,31 -5,17 -24,46 -13,20 0,96 -32,114 -31,17 -39,57 -29,90 9,32 9,51 23,86 14,37 54,131 36,165 -43,85 -39,46 -87,94 -25,25 -82,76 -117,81 -70,10 -143,38 -213,20 -42,-11 -26,59 -92,58 -26,-1 -46,40 -66,54 -39,77 -33,135 -41,214 -2,23 -5,30 -4,57 1,34 -68,106 -91,134 -10,12 -52,65 -52,78 20,55 18,90 80,85 17,-2 73,-7 73,16 0,77 -31,87 29,157 23,27 42,60 69,85 32,29 82,113 103,153 9,18 40,73 63,48 42,-46 42,-55 108,-48 19,2 1,25 61,28 43,2 37,42 47,53 2,2 2,2 3,5 -67,59 -27,43 -55,105 0,1 -33,49 -37,56 -11,18 -25,54 -42,66 -6,4 -49,68 -49,82 -1,20 -16,60 -16,96 0,9 -2,67 -12,69l0 0c38,32 56,63 109,67 26,2 44,-5 65,12 5,4 75,-5 86,-7 54,-6 32,6 71,9 48,3 139,-18 179,-48 30,-22 72,-66 56,-106 -13,-32 -16,-44 -34,-77 -8,-16 0,-58 0,-79 0,-3 0,-6 0,-8 10,-65 20,-48 35,-90 9,-25 20,-23 27,-61 3,-17 34,-93 45,-108 18,-24 44,-93 46,-122 4,-57 22,-56 60,-23 70,60 110,17 168,-27 54,-42 114,-11 195,-61 84,-51 141,-70 233,-101 37,-12 134,-79 156,-79 29,0 28,53 108,25 28,-10 60,-14 88,0 11,-1 127,-19 141,-8 15,12 -36,46 7,75 30,20 -36,123 98,67 22,-9 73,-14 94,-1 3,2 121,51 128,53 68,21 83,98 130,98 37,0 29,-77 86,-70 36,4 45,18 79,29 38,13 43,35 69,61 7,8 20,72 21,83 -13,56 -5,64 -29,111 -32,64 -15,53 -31,105 -12,41 -51,50 -49,132 1,19 -23,76 -21,116 1,41 -70,149 43,131 51,-8 141,-15 160,47 11,36 23,40 51,62 35,23 35,22 70,19 22,-2 78,-51 94,-68 13,-13 50,-37 62,-54 28,-37 68,-54 97,-100 13,-21 38,-52 49,-74 10,-19 38,-44 48,-72 6,-16 60,-90 77,-62 23,38 81,50 120,70 32,17 124,18 159,6 49,-17 62,-79 162,-53 46,12 30,3 70,30 19,13 34,15 59,34 26,20 171,86 200,92 18,4 131,14 147,13l0 0c0,-19 -5,-56 -7,-77 -6,-60 -45,-94 -56,-142 -12,-49 -13,-53 -43,-95 -66,-92 -120,-86 -213,-128 -17,-8 -83,-61 -98,-75 -30,-29 -122,-55 -162,-59 -12,-1 -95,-10 -101,-11 -54,-14 -146,34 -200,16 -47,-16 -56,-44 -79,-85 6,-23 18,-75 42,-85 47,-20 5,-98 -8,-130 -19,-47 -13,-108 -40,-142 -17,-21 -56,-79 -63,-104 -11,-40 -25,-48 -40,-76 -18,-34 -83,-17 -124,-31 -61,-21 -57,-26 -103,-76 4,-7 14,-20 20,-27 17,-24 42,-39 52,-53 18,-25 84,-113 103,-129 26,-21 97,-126 117,-159 14,-23 34,-48 46,-67 13,-22 65,-93 82,-109 8,-8 41,-70 44,-80 15,-43 35,-53 48,-81 14,-30 48,-84 69,-111 20,-25 50,-68 65,-94 1,-2 5,-14 5,-15 8,-32 38,-79 64,-99 66,-50 51,-81 87,-127 10,-13 29,-41 37,-50 33,-38 64,-79 79,-127 13,-40 55,-64 62,-76 37,-64 2,-59 83,-106l0 0c3,-8 5,-28 -2,-34 -54,-51 -57,-21 -90,-49 -40,-35 5,-59 38,-77 5,-9 19,-27 23,-35 21,-44 52,-75 71,-115 35,-74 45,-88 45,-171 0,-8 -17,-94 -20,-104 -20,-69 8,-81 -12,-135 -24,-64 -16,-60 -26,-134 2,-7 2,-30 1,-38 -8,-66 23,-126 73,-168 27,-23 47,-96 53,-132 3,-21 14,-125 16,-132 26,-83 -9,-46 -61,-46 -33,0 -23,-88 -25,-113 -10,-94 -31,-97 -106,-149 -15,-1 -30,-13 -35,-27 -9,-25 -16,-27 -25,-42 -19,-32 -32,-26 -57,-36 -47,-19 -115,73 -159,52 -23,-11 -82,-61 -95,-83 -17,-29 -56,8 -67,26 -27,44 -37,54 -75,90 -33,30 -20,34 -31,45 -30,28 -103,41 -140,13 -34,-25 -60,-32 -90,-51 -14,-9 -38,-78 -56,-96 -40,-40 -50,-58 -72,-112l0 0c-23,2 -95,37 -116,49 -29,18 -65,26 -92,40 -27,14 -47,18 -71,29 -34,15 -80,-4 -91,-37 -15,-45 -5,-35 -36,-68 -34,-37 -124,-15 -166,-6 -31,7 -80,4 -101,8 -39,9 -43,-2 -70,-2 -40,0 -8,-64 0,-81l5 -6c40,-62 49,-29 102,-64 52,-34 38,-57 -17,-68 -69,-14 -45,-86 -80,-105 -48,-25 -27,-43 -38,-88 -7,-32 1,-103 -37,-117 -30,-12 -20,-11 -41,-23 -44,-27 -32,-42 -48,-90 -8,-23 5,-90 -23,-67 -37,31 -52,68 -60,113 -14,82 -93,108 -91,131 1,11 -11,90 -11,90 5,17 3,16 -1,31 -19,71 -63,91 -75,120 -4,9 -6,77 -3,86 12,30 -17,62 -22,79 -17,52 -54,81 -70,118 -14,30 -37,76 -73,84 -25,6 -133,-10 -156,-21 -32,-15 -36,-11 -68,-12 -102,-3 -141,69 -222,113 -59,32 -44,36 -117,48l0 0 -129 24c-43,54 -32,26 -69,62 -38,38 -52,54 -107,61 -7,1 -41,6 -36,15 38,70 137,17 112,89 -27,78 -22,93 25,155 7,9 52,40 64,59 19,32 14,19 27,57 8,23 52,50 72,85 46,76 44,40 118,83 26,15 15,70 17,103 3,37 -2,72 -10,107 -10,44 -1,130 12,172 10,33 10,88 -1,120 -32,89 -35,90 -88,172 -4,5 -2,5 -6,10 -25,38 -28,60 -42,100 -9,26 -21,43 -29,71 -12,46 -45,99 -43,149 1,27 -3,159 -28,170 -40,17 -65,41 -115,55 -28,8 -60,25 -90,31 -58,10 -42,12 -68,-52 -16,-39 -17,-64 -53,-93 -33,-26 -49,-32 -89,-14 -33,15 -38,40 -69,57 0,0 -20,16 -21,17l-25 3 0 0z"/>
  <path class="fil0 str0" d="M7763 12963l119 -43c41,-32 60,-58 94,-92 58,-59 106,-45 181,-49 58,-3 103,-15 154,-44 15,-8 64,-38 73,-49 38,-44 32,-42 89,-63 58,-22 55,-4 109,-55 31,-29 66,-26 98,-45 57,-30 50,-23 58,-70 0,0 35,-38 40,-44 28,-40 52,-47 70,-101 19,-55 72,-54 117,-34 22,10 147,-13 175,-24 71,-28 53,33 119,65 27,13 54,44 92,61 28,13 80,69 99,33 20,-39 104,-108 150,-120 86,-23 69,-1 120,-76 37,-56 31,-49 81,-89 24,-19 53,-66 51,-97 -3,-34 38,-81 40,-89 54,27 65,40 106,77 19,17 30,43 60,66 23,18 36,29 66,32 38,4 62,-4 103,-1 46,3 91,-20 138,-28 31,-5 62,-17 98,-17 41,0 81,10 122,12 19,1 56,8 75,3l0 0 25 -3c1,-1 21,-17 21,-17 31,-17 36,-42 69,-57 40,-19 56,-13 89,14 36,28 37,54 53,93 26,63 10,62 68,52 31,-5 62,-22 90,-31 50,-15 74,-38 115,-55 25,-11 29,-143 28,-170 -2,-51 31,-104 43,-149 7,-28 20,-45 29,-71 14,-40 17,-62 42,-100 4,-5 3,-5 6,-10 53,-82 56,-83 88,-172 12,-32 12,-87 1,-120 -13,-42 -22,-128 -12,-172 8,-35 13,-71 10,-107 -3,-32 9,-88 -17,-103 -74,-43 -71,-7 -118,-83 -20,-35 -64,-62 -72,-85 -13,-38 -8,-26 -27,-57 -12,-20 -57,-50 -64,-59 -47,-62 -51,-77 -25,-155 25,-72 -75,-19 -112,-89 -5,-9 29,-14 36,-15 55,-6 69,-23 107,-61 37,-37 26,-9 69,-62l129 -24 0 3c0,-2 -1,-4 -1,-6 -11,-58 61,-112 65,-159 2,-29 3,-58 8,-86 2,-38 10,-35 16,-59 10,-47 -27,-49 -63,-43 -37,6 -113,-21 -130,-57 -12,-25 -35,-43 -61,-52 -35,-12 -111,4 -142,22 -27,16 -21,-18 -17,-32 10,-39 49,-51 61,-81 9,-23 43,-66 58,-91 22,-36 22,-59 35,-84 20,-37 11,-145 4,-186 -6,-33 -11,-67 -14,-100 1,-6 9,-64 9,-69 0,-37 -59,-90 -24,-131 24,-28 38,-103 57,-145 17,-38 27,-19 31,-76l-5 1c-37,9 -36,-3 -57,19 -38,40 -111,-16 -62,-65 47,-47 21,-99 35,-147 29,-100 -13,-110 -30,-195 -13,-13 -43,-35 -60,-51 -62,-58 -132,-73 -143,-160 -12,-95 -53,-3 -110,19 -19,7 -43,72 -49,93 -11,42 -71,61 -82,28 -6,-17 7,-93 13,-112 8,-27 -22,-106 -41,-123 -20,-19 -37,-34 -57,-54 -20,-21 -11,-50 -12,-67 -2,-47 57,-121 85,-159 20,-27 29,-36 57,-63l110 -195 0 0c-74,-22 -174,-68 -211,-140 -10,-19 -26,-64 -25,-85 2,-71 -8,-95 -32,-162 -27,-64 -44,-103 -23,-172 6,-22 -12,-85 -24,-99 -15,-18 10,-92 1,-116 -19,-51 34,-82 14,-115 -8,-13 -19,-37 -15,-53 7,-27 13,-71 14,-96 -3,1 -11,7 -14,9 -14,7 -48,31 -60,42 -28,23 -41,25 -50,55 -6,22 -90,71 -111,80 -21,9 -38,39 -32,63 12,43 -21,50 -33,71 -32,55 -35,44 -47,110 -7,36 -35,71 -58,97 -7,4 -13,10 -19,16 -49,57 -63,39 -111,62 -23,11 -84,76 -98,97 -20,29 -27,22 -51,49 -9,10 -29,105 -33,125 -21,108 -62,112 -157,152 -24,10 -60,70 -58,91 1,9 -41,125 -42,153 -2,35 -41,73 -24,85 18,12 20,39 14,58 -14,48 -19,5 -29,84 7,17 5,47 11,60 12,29 -6,64 8,84 23,32 15,35 25,61 5,13 5,59 5,74 0,37 -9,46 -11,68 -2,18 -8,23 -15,38 -8,18 -33,52 -20,65 20,20 10,16 7,40 -5,39 -50,65 -84,79 -12,5 -17,34 -17,43 1,29 5,31 28,39 49,18 51,-15 70,-17 25,-3 21,42 20,58 -2,27 -11,40 -32,55 -8,6 -71,14 -72,14 -6,3 -12,5 -18,8 -48,18 -56,-7 -124,32 -82,46 -52,3 -57,-15 -11,-38 -62,11 -84,18 -31,11 -68,47 -103,39 -61,-13 -40,48 -29,80 6,16 23,24 17,25 -49,11 -41,-7 -66,-3 -58,9 -28,-27 -69,20 -8,9 -22,66 -18,79 5,17 -24,49 -36,63 -14,17 -39,55 -50,74 -13,23 -37,48 -59,62 -45,29 -14,22 -29,52 -14,28 -32,17 -42,17 -31,1 -14,47 -27,79 -19,47 19,89 -23,118 -21,14 -10,35 -72,62 -33,15 -49,14 -82,36 -24,16 -39,28 -65,44 -10,12 -14,24 -19,38 -11,36 -40,118 -62,147 -13,17 -22,66 -24,88 -3,28 -15,53 -18,84 -2,18 -17,64 -17,71 -3,28 1,24 -7,58 -15,57 -43,50 -88,66 -63,22 -47,124 -98,137 -35,9 -78,119 -87,156 12,0 22,3 26,10 23,43 -32,78 -56,105 -27,30 -17,40 -3,75 4,11 25,15 34,20 19,11 -55,59 -30,83 29,27 -1,41 -7,40 -98,-13 -75,43 -30,42 45,-1 24,14 -1,25 -16,7 -1,44 5,57 12,24 -61,33 -52,62 2,8 42,30 53,32 51,13 4,70 -9,91 -51,78 -39,51 -18,128 11,43 -88,67 -88,103 0,50 29,80 56,116 -48,48 -33,34 -62,76 -23,34 -48,67 -73,99 -16,21 3,93 -35,101 -27,5 -61,37 -60,68 1,30 -9,9 4,47 14,40 1,84 -9,122 -30,100 -81,90 -88,120 -4,17 52,44 60,89 6,37 -12,72 -16,116 -4,39 -31,124 -9,156 19,28 76,45 107,103 14,25 -7,71 1,112 15,73 -24,136 75,163 29,8 33,63 29,87 -1,6 -1,11 -1,17l0 0z"/>
  <path class="fil0 str0" d="M16165 8396c-20,50 -18,75 -68,102 -19,10 -41,65 -29,88 36,77 11,92 6,122 52,19 49,13 97,11 37,-2 75,-36 140,-29 20,2 3,13 50,3 48,-10 102,-7 150,-3 17,1 20,81 20,92 -2,29 32,100 25,125 -5,20 -1,35 -15,58 -17,28 1,58 -45,90 -11,7 -56,72 -55,84 34,4 71,-5 105,31 28,30 126,5 167,10 47,6 28,-5 76,18 26,12 147,63 170,57 23,-5 94,-91 121,-113 29,-24 56,-26 91,-59 34,-32 35,-28 58,-69 19,-34 41,-34 63,-89 14,-35 48,-78 89,-74 79,9 90,-45 186,-56 17,-2 27,-3 43,3 94,18 79,30 173,4 47,-13 79,-20 127,-29 43,-8 138,-71 190,-88l0 0c-15,-16 -30,-24 -22,-75 11,-71 44,-85 70,-140 21,-44 11,-60 20,-87 9,-27 1,-39 0,-60 -5,-86 -66,-41 -87,-61 -17,-16 -82,-56 -82,-56 -16,-17 -59,-30 -80,-23 -26,8 -46,-2 -42,-33 4,-29 2,-23 -4,-57 20,-49 37,-57 51,-115 11,-44 -14,-95 -46,-126 -35,-33 -55,-56 -83,-95 -30,-41 -18,-83 -72,-82 -42,1 -41,-21 -84,-24 -19,-1 -50,72 -63,65 -33,-18 -19,-88 -10,-116 3,-9 30,-81 30,-82 6,-26 58,-46 51,-62 -13,-32 -8,-7 -2,-44 7,-41 29,-44 55,-63 26,-19 40,-10 35,-31 -17,-74 29,-83 85,-100 5,-5 40,-59 48,-70 8,-12 18,-42 14,-57 -11,-41 36,-48 61,-53 27,-6 46,-44 52,-69 5,-19 37,-81 28,-98 -26,-51 -13,-21 -19,-76 -2,-14 -36,-51 -41,-66 -10,-28 18,-46 30,-59 24,-25 60,-29 71,-41 39,-39 -3,-68 36,-80 22,-7 54,-7 76,-1 46,12 58,12 72,-33 4,-14 30,-85 30,-92 -3,-107 90,-105 90,-143 0,-16 -39,-79 -45,-90l-1 -10c-4,-24 -3,-41 -6,-60 -7,-45 2,-57 1,-93 -1,-52 17,-56 48,-83 48,-43 109,-45 116,-123 3,-35 37,-53 63,-77 49,-46 40,-38 107,-57 37,-10 73,-1 106,1 54,3 76,-36 107,-64 55,-50 86,-132 136,-192 46,-55 57,-70 88,-140l0 0c1,-6 -5,-14 -9,-17 -32,-34 -17,-158 -7,-199 5,-22 0,-49 -23,-59 -23,-10 -11,-46 -13,-78 -2,-19 -40,-59 -54,-68 -28,-16 -25,-19 -46,-38 -71,-62 -28,-31 -7,-96 8,-23 10,-28 21,-50 26,-56 30,-48 -13,-62 -26,-8 -1,-77 15,-85 37,-18 18,19 56,-35 17,-27 29,-33 42,-53 14,-20 33,-39 14,-63 -54,-65 73,-74 90,-113 13,-29 -73,-46 -93,-46 -24,-1 -38,-7 -50,-8 -54,-2 -56,-25 -80,-35 -104,-44 -8,-93 -47,-117 -76,-47 -62,-54 -92,-127 -36,-87 -8,-127 -16,-158 -15,-57 -18,-32 8,-94 6,-15 40,-61 20,-65 -32,-6 -50,-11 -84,-21 -47,-17 -29,-4 -74,-32 -15,-9 -20,-77 -12,-92 38,-69 56,-43 82,-78 31,-42 38,-28 75,-54 37,-26 54,-24 87,-62 44,-50 65,-11 98,-4 96,19 90,-90 73,-152 -16,-62 41,-86 20,-122 -33,-59 19,-102 3,-137 -35,-78 -129,-63 -166,-120 -36,-57 -30,-71 -41,-143 4,-12 4,-16 7,-29 14,-74 -13,-53 -35,-77 -33,-37 38,-81 46,-107 5,-16 -92,-64 -90,-130 2,-62 -62,-17 -74,-64 -25,-98 65,-85 50,-160 -9,-43 -30,-122 -22,-165 8,-47 6,-115 -3,-161l0 0c-35,6 -99,80 -126,100 -25,19 -63,65 -88,87 -25,21 -154,136 -167,153 -69,94 -51,46 -136,74 -24,8 -129,81 -145,101 -10,12 -67,40 -84,41 -47,3 -36,82 -43,101 -12,33 -11,45 -38,73 -61,47 -153,88 -223,122 -40,19 -49,11 -77,21 -42,15 -40,6 -81,32 -66,42 -53,68 -149,85 -39,7 -85,0 -117,14 -14,6 -116,104 -134,124 -40,44 -82,11 -116,31 -32,19 -32,3 -47,6 -38,7 -35,4 -70,4 -22,0 -18,69 -53,59 -61,-18 -40,-53 -77,-69 -42,-18 -28,-7 -67,-37 -43,-33 -29,-22 -42,-62 -13,-38 -10,-38 -45,-74 -17,-5 -26,-15 -35,-16 -33,-2 -56,-2 -83,20 -18,15 -118,58 -130,29 -12,-27 -6,-9 -21,-21 -9,-7 14,-46 -18,-53 -44,-10 -27,-61 -42,-54 -55,25 -31,80 -119,96 -57,11 -48,19 -92,39 -36,16 -83,57 -119,75 -65,32 -43,37 -83,71 -28,23 -53,45 -79,70 -22,21 -35,83 -49,108 -15,27 -23,86 -29,95 -44,64 -17,47 -87,105 -1,3 -7,38 -13,54 -16,43 -27,37 -44,62 -28,42 -37,3 -64,11 -44,12 -1,90 -84,135 -49,27 -31,21 -55,58 -17,26 -42,68 -32,100 3,9 42,26 6,45 -82,43 -25,61 -37,99 -20,60 -20,61 -84,88 0,11 -10,17 -38,18 -14,0 -41,-23 -59,5 -16,24 104,81 79,110 -3,3 -89,25 -81,64l0 0 102 26c64,58 29,45 32,75 2,24 91,19 65,77 -7,16 -77,65 -96,67 -40,6 -77,-2 -107,42 -33,49 77,-11 101,-5 39,11 -32,68 -31,111 1,56 27,32 32,103 4,62 45,7 101,72 22,26 43,17 49,69 12,33 11,40 25,66 7,13 16,120 9,139 -14,37 -29,55 -42,96 -10,33 -32,83 -74,77 -49,-8 -50,-11 -62,35 -5,18 -73,18 -95,-15 -45,-69 -136,-28 -136,-19 -1,23 84,72 83,108 -1,45 15,69 -36,87 -15,5 -48,21 -27,37 12,9 17,11 22,26 -16,43 -8,29 -15,57 -7,28 -59,61 -16,68 33,6 53,25 51,58 -1,14 0,75 4,88 13,44 -15,96 40,120 27,12 82,1 108,40 35,51 176,46 232,56 29,5 114,63 139,85 40,37 62,-9 87,23 36,47 45,-48 112,4 16,12 20,6 35,7 46,-13 37,-12 69,-27 39,-18 75,-12 58,36 -8,23 8,21 30,43 63,62 -61,67 -27,150 23,55 -39,37 -54,109 -4,19 37,78 43,117 3,21 1,70 22,72 25,2 42,21 50,44 11,30 -69,40 -32,91 16,21 18,37 18,64 -3,38 3,114 14,153 6,22 -19,58 -8,93 7,24 37,111 32,129 -8,33 -57,4 -17,95 12,26 -4,69 -4,101 0,37 -14,57 -12,84 2,32 59,10 56,79 -2,44 81,-7 64,117 -1,4 -1,6 -2,11 -31,36 -57,66 -30,111 24,40 -16,42 -24,76 -11,42 16,53 -12,79 -14,14 -38,60 -14,78 60,46 20,46 33,93 7,24 54,24 50,70 -6,60 45,27 59,75 7,24 -36,29 7,72 25,25 50,54 11,79 -13,8 -42,77 -33,99l0 0z"/>
  <path class="fil0 str0" d="M15122 4119l-100 27c-13,9 -23,12 -36,23 -45,38 -90,27 -77,93 7,37 -17,57 -50,70 -48,20 -21,37 -50,63 -53,47 -54,-47 -71,-48 -29,-2 -17,-1 -32,-20 -39,-49 -56,46 -62,58 -9,19 -21,39 -35,57l0 0 13 127c51,106 42,45 102,116 98,117 -9,97 -21,106 -51,39 43,80 8,149 -11,23 12,58 4,95 -5,21 2,72 -30,80 -33,8 -24,10 -62,1 -34,-8 -73,-20 -95,17l-1 3c-41,49 -72,111 -108,160 -23,31 -113,97 -121,114 -11,25 -88,54 -110,71 -15,12 -53,30 -68,45 -23,23 -100,36 -98,74 1,16 34,6 58,17 63,28 26,38 89,70 71,36 87,17 151,39 61,21 32,46 89,78 49,27 48,37 46,94 0,6 -2,13 -3,19 -2,56 -18,93 39,109 31,9 79,28 65,69 -19,57 14,67 -7,142 -12,42 -25,18 -25,92 0,27 0,55 -5,81 -5,26 -6,52 -35,59 -23,5 -81,73 -79,108 1,11 -13,40 -17,50 -22,29 -68,89 -95,113 -28,25 -29,-2 -62,31 -36,35 -19,59 -54,83 -35,24 -37,42 -26,75 13,40 30,48 43,91 13,42 12,29 9,76 -3,61 35,88 8,141 -10,20 -45,32 -30,69 5,13 7,20 7,34 10,30 18,79 49,97 12,7 38,43 38,62 0,33 32,14 56,50 12,19 -51,69 -6,80 14,4 31,25 42,35l0 0c70,-46 45,-19 101,-32 34,-8 43,12 102,-19 27,-14 35,-23 69,-37 23,-10 34,-14 58,-7 35,11 70,14 107,16 35,2 30,67 60,99 22,24 5,49 54,72 52,24 88,86 127,103 28,12 56,22 82,37 46,27 37,28 64,68 4,7 88,89 99,99 38,44 21,59 48,91 33,40 21,39 75,67 67,36 102,52 129,127 11,31 39,54 73,44 27,-8 32,-5 61,-20 42,-21 91,-1 150,-22 11,-4 49,-14 59,-14 82,0 59,56 117,47 32,-5 54,-2 85,4l6 0 73 4 0 0c-9,-22 20,-91 33,-99 39,-25 14,-54 -11,-79 -43,-43 0,-48 -7,-72 -14,-48 -65,-14 -59,-75 4,-46 -43,-46 -50,-70 -14,-47 27,-47 -33,-93 -25,-19 -1,-65 14,-78 27,-26 1,-37 12,-79 8,-33 48,-36 24,-76 -27,-45 -1,-75 30,-111 1,-4 2,-6 2,-11 17,-124 -67,-74 -64,-117 3,-69 -54,-47 -56,-79 -2,-28 12,-48 12,-84 0,-32 15,-74 4,-101 -41,-92 8,-63 17,-95 5,-18 -25,-105 -32,-129 -11,-35 14,-71 8,-93 -11,-39 -17,-115 -14,-153 0,-26 -2,-43 -18,-64 -38,-51 42,-61 32,-91 -8,-23 -25,-42 -50,-44 -22,-2 -19,-51 -22,-72 -6,-39 -47,-98 -43,-117 14,-73 76,-55 54,-109 -34,-84 90,-88 27,-150 -21,-21 -38,-20 -30,-43 18,-48 -19,-54 -58,-36 -32,15 -22,13 -69,27 -15,-1 -19,6 -35,-7 -67,-52 -76,43 -112,-4 -25,-33 -48,14 -87,-23 -24,-23 -110,-80 -139,-85 -56,-10 -197,-5 -232,-56 -26,-38 -81,-28 -108,-40 -54,-24 -26,-77 -40,-120 -4,-13 -5,-74 -4,-88 3,-34 -18,-52 -51,-58 -43,-8 9,-41 16,-68 7,-29 -1,-14 15,-57 -5,-15 -10,-17 -22,-26 -21,-16 12,-31 27,-37 51,-18 35,-43 36,-87 1,-36 -84,-85 -83,-108 0,-9 91,-50 136,19 22,34 90,33 95,15 12,-46 14,-42 62,-35 42,6 64,-43 74,-77 13,-41 28,-59 42,-96 7,-19 -2,-126 -9,-139 -14,-26 -13,-33 -25,-66 -6,-52 -27,-43 -49,-69 -55,-65 -96,-10 -101,-72 -5,-71 -30,-47 -32,-103 -1,-43 69,-101 31,-111 -24,-7 -134,54 -101,5 30,-44 67,-36 107,-42 19,-3 89,-52 96,-67 26,-58 -63,-52 -65,-77 -3,-30 33,-18 -32,-75l-102 -26 0 0z"/>
  
  
  
  
  
  
  
  
  
  
  
  
  
  
  
  
  
  
  
  
  
  
  <g id="_2506901682112">
   
   
   
   
   
   
   
   
  </g>
  <g id="_2506901677792">
   
   
   
   
   
   
   
   
   
   
   
   
   
   
  </g>
 </g>
</svg>