<svg xmlns="http://www.w3.org/2000/svg" xmlns:xlink="http://www.w3.org/1999/xlink" xml:space="preserve" width="297mm" height="210mm" version="1.1" style="shape-rendering:geometricPrecision; text-rendering:geometricPrecision; image-rendering:optimizeQuality; fill-rule:evenodd; clip-rule:evenodd" viewBox="0 0 29700 21000">
 <defs>
  <style type="text/css">
   <![CDATA[
    .str1 {stroke:white;stroke-width:50;stroke-opacity:0.501961}
    .str3 {stroke:white;stroke-width:50}
    .str5 {stroke:#434242;stroke-width:50}
    .str2 {stroke:#3F3E3F;stroke-width:50}
    .str0 {stroke:white;stroke-width:50}
    .str6 {stroke:#2B2A29;stroke-width:7.62}
    .str4 {stroke:white;stroke-width:7.62}
    .fil6 {fill:none}
    .fil0 {fill:#171729}
    .fil8 {fill:#D9DADA}
    .fil4 {fill:#171729;fill-rule:nonzero}
    .fil3 {fill:#D9DADA;fill-rule:nonzero}
    .fil7 {fill:#434242;fill-rule:nonzero}
    .fil5 {fill:#2B2A29;fill-rule:nonzero}
    .fil2 {fill:black;fill-rule:nonzero}
    .fil1 {fill:#171729;fill-rule:nonzero;fill-opacity:0.501961}
   ]]>
  </style>
 </defs>
 <g id="Plan_x0020_1">
  <metadata id="CorelCorpID_0Corel-Layer"/>
  <rect class="fil0" x="1000" y="1000" width="22538" height="19000"/>
  
  
  
  
  
  <path class="fil0 str0" d="M18975 11230l-128 9c-17,2 -30,-3 -46,-3 -8,-8 -23,-19 -31,-25 -4,-28 -5,-103 -16,-124 -11,-21 -108,-10 -133,-15 -82,-14 -48,-121 -113,-131 -78,-12 -170,-7 -249,-7l0 0c-8,-3 -38,-63 -47,-77 -27,-48 -12,-90 -26,-138 -8,-25 -32,-32 -46,-51 -20,-28 -26,-44 -26,-80 22,-7 77,-33 99,-36 12,-59 -78,-67 -116,-90 -74,-45 53,-76 -4,-116 -39,-27 -94,-40 -139,-56 -52,-18 -94,-52 -120,-101 -37,-17 -66,-64 -98,-80 -46,-22 -8,-76 -37,-105 -27,-27 -29,-33 -25,-73 5,-42 -39,-68 -52,-103 -25,-67 37,-72 65,-104 24,-27 29,-32 68,-38 22,0 54,-4 69,16 15,19 21,33 46,37 60,12 54,6 95,-28 22,-18 39,36 46,46 30,43 91,37 138,37 49,0 140,-22 182,0 85,44 108,5 188,-22l0 0 197 39c71,6 173,40 240,20 85,-25 174,76 275,76 80,0 122,-39 194,8 70,46 211,-62 306,-52 119,13 182,108 283,153 53,24 121,27 179,36l0 0c-33,22 -65,41 -92,57 -29,21 -142,49 -77,70 0,36 -147,73 -147,101 0,45 -264,136 -311,173l-172 132c-58,44 -70,119 -112,173l-173 238c-41,57 -131,164 -131,236l0 0z"/>
  <path class="fil0 str0" d="M15294 10160c52,25 103,26 154,-8 120,-80 43,82 150,56 143,-35 224,-180 392,-180 59,0 134,42 203,50 60,7 113,35 176,35 1,-2 0,-3 -1,-5 -60,-100 -4,-89 83,-134 28,-14 145,-411 250,-306 23,23 106,70 94,4 -26,-142 86,-106 172,-88 54,11 17,99 34,142 6,17 189,105 209,88 83,-71 162,152 162,210 -34,8 -58,-2 -91,-2 0,76 229,102 172,225 0,85 74,69 136,80 28,5 32,117 66,148 23,21 91,24 100,46 10,23 -55,105 -16,122 39,16 145,37 147,88l0 0 -84 1c-33,2 -68,13 -100,19 -30,6 -62,-2 -91,-7 -53,-9 -65,-77 -124,-29 -28,22 -72,108 -113,57 -28,-36 25,-120 -39,-108 -70,54 -87,92 -125,5 -36,-83 13,-63 13,-135 0,-43 -51,-30 -80,-28 -30,2 -137,0 -156,22 -58,66 -135,-59 -145,6 -6,40 -5,97 -22,133 -9,20 -80,-18 -103,-16 -63,3 -63,51 -105,-38 -11,-24 -134,6 -142,16 -23,26 35,72 51,85 19,30 35,155 5,175 -72,50 -124,-107 -148,-58 -18,37 -10,87 -26,118 -9,17 -41,41 -45,55 -5,20 29,49 19,61 -17,23 -20,53 -35,70 -34,40 -59,-39 -65,-54 -6,-14 -62,79 -75,90 -18,16 2,108 10,130 37,100 -81,7 -104,0 -24,-7 -211,126 -80,99 42,-9 57,-11 53,39 21,47 120,-3 105,72 -12,60 34,143 -15,186 -108,96 -286,-143 -408,-28l-190 179c-56,56 -114,140 -187,167 -86,32 -151,-21 -230,52 -127,118 -107,356 -303,379l0 0c26,-100 -21,-96 -82,-149 -44,-38 -59,-86 -82,-139 -22,-52 -150,-26 -196,-94 -19,-27 17,-75 -1,-104 -9,-15 -119,-27 -141,-36 -55,-18 -98,-2 -141,-48 -32,-34 -52,-91 -79,-131 -22,-32 -61,-45 -81,-75 -20,-29 -35,-58 -25,-95l0 0c127,-11 235,39 360,29 132,-10 197,-75 308,-118 63,-24 102,28 136,71 32,40 86,41 127,16 81,-50 124,3 203,-32 33,-14 60,-10 93,-15 40,-6 77,-38 109,-42 44,-22 114,-65 142,-104 2,0 3,-1 5,-1 49,83 149,105 219,21 97,-114 -35,-275 -134,-327 -40,-21 -112,-131 -89,-176 15,-28 56,-13 80,-16 37,-6 28,-46 46,-70 33,-4 37,-26 19,-48 -11,-51 -69,-24 -95,-57 -29,-36 -51,-6 -89,-16 -40,-11 39,-116 16,-150 -61,-90 -78,32 -157,32 -31,0 -27,25 -45,43 -16,16 -52,14 -73,26 -76,42 -136,145 -231,156 -105,13 -38,-119 -62,-182 -26,-67 -1,-84 18,-149 15,-53 95,-29 130,-17 46,15 42,-30 77,-32 47,-3 119,9 156,-28 28,-28 -1,-75 9,-105l41 -120 0 0z"/>
  <path class="fil0 str0" d="M18259 10935c-35,30 -92,52 -137,58 -41,6 -69,-25 -76,-63 -12,-68 -47,-43 -106,-51 -43,-6 -55,-114 -55,-151l0 0 -84 1c-33,2 -68,13 -100,19 -30,6 -62,-2 -91,-7 -53,-9 -65,-77 -124,-29 -28,22 -72,108 -113,57 -28,-36 25,-120 -39,-108 -70,54 -87,92 -125,5 -36,-83 13,-63 13,-135 0,-43 -51,-30 -80,-28 -30,2 -137,0 -156,22 -58,66 -135,-59 -145,6 -6,40 -5,97 -22,133 -9,20 -80,-18 -103,-16 -63,3 -63,51 -105,-38 -11,-24 -134,6 -142,16 -23,26 35,72 51,85 19,30 35,155 5,175 -72,50 -124,-107 -148,-58 -18,37 -10,87 -26,118 -9,17 -41,41 -45,55 -5,20 29,49 19,61 -17,23 -20,53 -35,70 -34,40 -59,-39 -65,-54 -6,-14 -62,79 -75,90 -18,16 2,108 10,130 37,100 -81,7 -104,0 -24,-7 -211,126 -80,99 42,-9 57,-11 53,39 21,47 120,-3 105,72 -12,60 34,143 -15,186 -108,96 -286,-143 -408,-28l-190 179c-56,56 -114,140 -187,167 -86,32 -151,-21 -230,52 -127,118 -107,356 -303,379l0 0 -5 198 3 54c10,38 14,89 6,128 -9,48 -31,66 -75,86 -77,35 -77,140 -12,190l37 43 0 0c82,-59 164,-114 232,-165 296,-226 635,-379 964,-553 177,-93 394,-222 586,-275 389,-152 797,-294 1212,-346l491 -162 396 -185 254 -74c34,-21 88,-44 102,-84 7,-20 11,-59 -16,-68l0 0 -128 9c-17,2 -30,-3 -46,-3 -8,-8 -23,-19 -31,-25 -4,-28 -5,-103 -16,-124 -11,-21 -108,-10 -133,-15 -82,-14 -48,-121 -113,-131 -78,-12 -170,-7 -249,-7l0 0z"/>
  <path class="fil0 str0" d="M15470 6916c127,54 169,241 334,233 49,-2 118,-95 144,-133 61,-88 90,15 164,15 80,10 76,-37 134,-61 16,-7 32,-5 48,-5 38,-2 65,-39 96,-43 27,-4 42,-2 68,-13 27,-11 85,-27 104,4 10,16 -7,52 -9,71l0 0c-53,6 -86,36 -94,87 -4,27 -34,64 -21,90 21,44 57,104 95,136 50,42 34,64 27,125 -7,54 57,166 106,185 70,26 150,28 220,48 78,23 42,116 177,116 46,0 78,15 121,20 18,2 56,-9 69,-2 21,106 -92,178 -78,276l99 16c35,14 143,3 156,37 22,61 93,51 136,85 27,22 56,26 41,69 -23,70 1,144 -19,210 -19,61 -186,63 -238,68 -75,7 -102,20 -111,93l0 0 -37 99c-38,25 -111,42 -155,20 -59,-29 -97,-26 -161,-14 -40,8 -62,4 -100,4 -47,0 -41,68 -58,99 -78,45 -85,31 -124,118 -32,73 -125,70 -179,123 -42,42 -28,66 -94,66 -37,0 -19,21 -43,34 -27,15 -68,-6 -99,4 -45,13 -82,48 -125,58 -108,27 -162,-79 -262,41 -53,64 -74,69 -155,67 -114,-4 -60,-27 -155,48 -40,7 -47,-14 -78,-22 -35,-9 -61,13 -91,9 -17,-2 -134,-53 -141,-61 -26,-32 -95,-8 -128,-1 -52,11 -140,-9 -173,-53 -39,-51 -72,-121 -92,-184 -27,-85 -96,-114 -182,-129l0 0 -6 -125 -25 -93c-9,-34 -18,-44 -2,-80 19,-41 93,-113 93,-158 16,0 108,209 117,235 24,-18 40,-117 59,-152 30,-55 123,-79 92,-160 -13,-35 -75,-67 -54,-108 38,-24 191,3 200,-39 -2,-2 -1,-5 -4,-5 -22,-39 -75,-77 -102,-120 -30,-47 23,-117 39,-162 48,-131 -131,-184 -49,-325 12,-22 41,-37 45,-60 -39,-115 -195,-191 -296,-254 -33,-21 42,-42 64,-57 53,-35 97,19 153,-11 38,-20 41,-204 68,-249l59 -99c9,-15 100,-27 111,-18 63,51 101,-27 122,-2 40,48 141,44 177,-10l0 0z"/>
  <path class="fil0 str0" d="M14607 8967c85,15 155,44 182,129 20,63 53,132 92,184 34,44 121,64 173,53 33,-7 102,-32 128,1 7,9 124,59 141,61 30,3 56,-18 91,-9 31,8 37,29 78,22 95,-74 41,-51 155,-48 81,3 102,-3 155,-67 100,-120 154,-14 262,-41 43,-11 80,-45 125,-58 32,-9 73,11 99,-4 24,-13 6,-34 43,-34 66,0 52,-24 94,-66 54,-54 146,-50 179,-123 39,-87 46,-72 124,-118 17,-31 11,-99 58,-99 38,0 61,4 100,-4 63,-13 102,-16 161,14 44,22 117,5 155,-20l37 -99 0 0c88,6 214,69 272,136 25,29 41,68 72,90 16,11 32,19 48,29 16,10 19,24 30,36 -1,23 6,73 26,87 5,3 79,-25 92,-32 23,-11 27,-53 54,-73 32,-24 46,-20 82,-28 28,-6 105,-79 128,-101 33,-33 60,-1 96,-3 27,-1 45,-31 72,-31 76,0 42,12 7,41 -12,9 -20,65 -20,82 23,14 75,-4 102,9 0,79 58,37 97,76 19,19 52,6 75,18 23,13 38,37 57,48l0 0 -18 35c-8,15 -4,40 -5,57 -2,21 -18,43 -31,59 -8,67 46,21 77,48 25,22 -38,63 -37,88 1,25 29,35 8,58 -23,27 -34,46 -11,77 39,53 81,50 36,128 -43,74 -17,123 -30,197l0 0c-80,27 -103,66 -188,22 -42,-22 -133,0 -182,0 -47,0 -108,7 -138,-37 -7,-10 -24,-64 -46,-46 -41,35 -35,40 -95,28 -24,-5 -31,-19 -46,-37 -15,-19 -47,-16 -69,-16 -38,6 -44,12 -68,38 -28,32 -90,37 -65,104 13,35 57,61 52,103 -4,40 -2,46 25,73 29,29 -9,83 37,105 32,15 61,63 98,80 26,49 68,82 120,101 44,16 100,28 139,56 56,40 -70,71 4,116 38,23 128,31 116,90 -21,3 -77,29 -99,36 0,37 6,52 26,80 14,20 38,26 46,51 15,48 -1,90 26,138 8,14 38,73 47,77l0 0c-35,30 -92,52 -137,58 -41,6 -69,-25 -76,-63 -12,-68 -47,-43 -106,-51 -43,-6 -55,-114 -55,-151l0 0c-2,-51 -108,-71 -147,-88 -40,-17 26,-99 16,-122 -10,-21 -78,-24 -100,-46 -34,-31 -38,-143 -66,-148 -62,-11 -136,6 -136,-80 58,-123 -172,-148 -172,-225 33,0 58,10 91,2 0,-58 -78,-281 -162,-210 -20,17 -203,-71 -209,-88 -17,-43 20,-130 -34,-142 -86,-18 -197,-55 -172,88 12,66 -71,20 -94,-4 -105,-105 -222,292 -250,306 -87,46 -143,34 -83,134 1,2 2,2 1,5 -63,0 -116,-28 -176,-35 -69,-8 -145,-50 -203,-50 -168,0 -250,145 -392,180 -107,26 -30,-135 -150,-56 -52,34 -102,34 -154,8l0 0c7,-18 22,-41 27,-58 7,-25 23,-39 33,-61 27,-64 89,-95 89,-173 -143,0 -236,29 -382,-8 -51,-13 -139,-50 -189,-38 -124,29 -170,49 -273,-37 -47,-40 -183,-103 -242,-117 -91,-38 -226,-92 -287,-169 -84,-105 -251,-58 -356,-98 -28,-10 -137,-116 -130,-143l0 0 47 -74c18,-24 42,-38 57,-64 9,-16 27,-31 42,-42 46,-35 72,5 118,19 30,10 61,12 92,6 38,-6 64,13 98,13 24,0 32,-16 49,-24 33,-8 66,-11 98,-23 24,-9 34,-25 62,-25 87,0 105,28 153,-61 17,-31 16,-60 44,-29 31,34 127,35 164,13l0 0z"/>
  <path class="fil0 str0" d="M9592 9725c-35,-3 -53,-6 -83,-27 -43,-30 -53,-82 -103,-108 -22,-12 -90,-44 -97,-69 -61,-58 -2,-88 -2,-145l0 0c60,-10 120,-76 182,-94 45,-13 88,-1 120,-41 45,-56 149,-124 162,-196 0,-109 -20,-131 48,-229 42,-60 78,-119 78,-195 0,-108 48,-279 172,-280l210 -1c88,0 103,-67 171,-93 21,-5 39,-17 59,-24 63,-20 122,-15 181,11 70,31 157,31 235,16 141,-3 204,-120 320,-173 122,-55 226,-113 365,-90l0 0c76,94 228,102 290,201 23,36 13,95 23,137 8,34 17,79 36,109 86,93 216,101 332,111 39,3 175,71 200,100 41,48 100,42 144,82l208 190c106,97 238,20 340,65 64,48 188,60 272,118l0 0c-27,40 -66,66 -94,105 -16,21 -42,80 -71,80 -28,0 -36,-29 -74,-16 -82,29 -132,159 -164,236 7,39 35,58 41,90 16,84 -140,98 -190,90 -36,-5 -48,-37 -75,-44 -17,-4 -37,29 -56,35 -42,12 -80,-20 -115,9 -25,22 -49,9 -77,19 -26,10 -22,25 -35,41 -23,29 -57,19 -82,40 -21,17 8,40 -7,68l-17 35 0 0c-45,0 -140,62 -121,-35 9,-48 -26,-87 -26,-131 0,-34 27,-59 -3,-91 -33,-35 -73,-65 -105,-99 -39,-41 49,-110 -5,-137 -32,-26 -146,-65 -148,-117l-6 -195c-4,-112 -153,-208 -243,-268 -30,-20 -142,70 -148,108 -18,118 -34,199 -166,240 -81,25 -113,-32 -174,-32 -27,0 -59,37 -92,42 -35,5 -86,2 -120,-10 -50,-11 -90,-44 -144,-34 -43,8 -86,52 -135,65 -60,16 -219,-31 -276,-54 -20,-8 -93,-83 -99,-40 -10,80 -53,73 -121,82 -103,14 -158,106 -202,188 -60,114 -123,175 16,256 71,41 -90,61 -103,72 -24,19 -13,62 -45,74 -8,3 -78,-40 -94,-45 -23,-6 -59,9 -80,16 -26,9 -58,13 -85,7 -15,-3 -29,-15 -44,-19 -28,-7 -51,-7 -80,-8l0 0z"/>
  <path class="fil0 str0" d="M13584 9259l-129 -160 0 0c-27,40 -66,66 -94,105 -16,21 -42,80 -71,80 -28,0 -36,-29 -74,-16 -82,29 -132,159 -164,236 7,39 35,58 41,90 16,84 -140,98 -190,90 -36,-5 -48,-37 -75,-44 -17,-4 -37,29 -56,35 -42,12 -80,-20 -115,9 -25,22 -49,9 -77,19 -26,10 -22,25 -35,41 -23,29 -57,19 -82,40 -21,17 8,40 -7,68l-17 35 0 0c-21,28 -94,84 -72,125 6,11 34,0 44,-1 36,-3 36,32 69,32 47,0 94,-25 109,36 11,46 5,84 -10,129 -23,53 -9,115 20,163 7,12 20,21 25,34 5,16 9,36 10,52 1,21 13,33 19,51l59 84 0 0c36,-17 22,-38 66,-46 178,-33 137,-155 212,-286 29,-51 14,-71 86,-71 115,0 140,162 206,154 70,-9 121,42 189,58 138,32 37,104 37,207 0,47 2,92 -16,134 -18,39 -48,98 -48,140 26,86 141,75 155,178 5,37 10,146 45,151 105,14 206,-55 217,89 4,57 27,163 -36,202 0,2 -2,5 -3,5l0 6c53,36 89,43 151,58l0 0c127,-11 235,39 360,29 132,-10 197,-75 308,-118 63,-24 102,28 136,71 32,40 86,41 127,16 81,-50 124,3 203,-32 33,-14 60,-10 93,-15 40,-6 77,-38 109,-42 44,-22 114,-65 142,-104 2,0 3,-1 5,-1 49,83 149,105 219,21 97,-114 -35,-275 -134,-327 -40,-21 -112,-131 -89,-176 15,-28 56,-13 80,-16 37,-6 28,-46 46,-70 33,-4 37,-26 19,-48 -11,-51 -69,-24 -95,-57 -29,-36 -51,-6 -89,-16 -40,-11 39,-116 16,-150 -61,-90 -78,32 -157,32 -31,0 -27,25 -45,43 -16,16 -52,14 -73,26 -76,42 -136,145 -231,156 -105,13 -38,-119 -62,-182 -26,-67 -1,-84 18,-149 15,-53 95,-29 130,-17 46,15 42,-30 77,-32 47,-3 119,9 156,-28 28,-28 -1,-75 9,-105l41 -120 0 0c7,-18 22,-41 27,-58 7,-25 23,-39 33,-61 27,-64 89,-95 89,-173 -143,0 -236,29 -382,-8 -51,-13 -139,-50 -189,-38 -124,29 -170,49 -273,-37 -47,-40 -183,-103 -242,-117 -91,-38 -226,-92 -287,-169 -84,-105 -251,-58 -356,-98 -28,-10 -137,-116 -130,-143l0 0z"/>
  <path class="fil0 str0" d="M14591 5359c-71,30 -129,-29 -204,0 -40,15 -147,38 -189,30 -5,-34 29,-81 13,-114 -20,-41 -55,-56 -63,-108 -11,-72 -68,-41 -131,-49 -26,-3 -53,-37 -77,-27 -32,13 -39,30 -81,20 -64,10 -153,56 -217,37 -52,-16 -86,3 -142,3 -135,0 -48,128 -162,152 -26,5 -76,43 -86,2l-46 -187c-5,-21 -66,-99 -79,-95 -21,6 -51,64 -88,26 -36,-38 -17,-213 -111,-173l-113 -7 0 0c-38,38 -1,52 21,78 53,60 -85,93 -119,93 -28,0 -57,-7 -85,-4 -40,5 -72,56 -120,70 -43,13 -195,-44 -179,20 9,34 -30,31 -38,52 -8,21 27,49 30,70 53,29 120,29 159,79 21,26 116,62 121,84 -70,17 -144,-2 -189,69 -45,72 -83,65 -53,157 16,49 34,96 -7,138 -23,23 -55,25 -23,58 25,25 70,86 19,111 -47,23 -48,54 -54,103 10,34 30,63 45,95 12,25 -11,58 12,71 50,30 112,-54 151,18 20,37 20,82 47,117 81,102 32,190 60,305 22,6 97,-62 139,-64 111,-4 95,-89 172,-132 33,-18 55,-20 85,-48 37,-34 39,-18 78,-15 9,5 13,7 16,16 14,45 40,47 72,79 16,22 57,6 57,41 0,33 -5,65 16,94 9,13 41,27 26,43 -15,16 -64,0 -81,-10 -47,-26 -50,27 -44,63 8,51 -51,52 -5,111 39,49 90,76 17,120l0 0 103 47c66,40 91,48 170,48 106,0 41,-27 0,-64 -3,-2 -25,-20 -20,-22 0,-15 90,-21 102,-21 51,0 96,-2 144,16 30,11 210,140 189,6 -15,-94 47,-6 64,27 30,57 34,-102 37,-114 26,-118 0,-117 -75,-193 -44,-44 -10,-63 13,-108 34,-34 31,-84 85,-93 43,-7 102,44 129,17 26,-26 35,-39 75,-28 39,10 18,-48 16,-67 -8,-66 -52,-70 -67,-128l-52 -208c-25,-102 86,-158 174,-131 95,29 86,-58 134,-65 26,-4 56,4 82,4 61,0 145,4 168,-66 36,-26 82,-80 104,-119 25,-45 31,-64 31,-115 0,-93 1,-180 -111,-186 -28,-2 -41,-20 -66,-27l0 0z"/>
  <path class="fil0 str0" d="M14591 5359c25,7 38,26 66,27 113,7 111,93 111,186 0,51 -6,70 -31,115 -22,39 -68,93 -104,119 -23,70 -107,66 -168,66 -26,0 -56,-8 -82,-4 -48,7 -39,94 -134,65 -88,-27 -200,29 -174,131l52 208c15,58 58,62 67,128 2,19 24,77 -16,67 -40,-10 -48,2 -75,28 -27,27 -86,-25 -129,-17 -54,9 -51,60 -85,93 -23,45 -57,64 -13,108 75,76 101,75 75,193 -3,12 -7,171 -37,114 -17,-33 -79,-120 -64,-27 21,133 -159,5 -189,-6 -48,-18 -93,-16 -144,-16 -12,0 -102,6 -102,21 -5,2 17,19 20,22 41,37 106,64 0,64 -79,0 -103,-8 -170,-48l-103 -47 0 0c-20,26 -30,45 -62,50 -27,4 -68,-36 -88,-22 -13,9 3,56 3,71 0,43 -23,48 -41,81 -5,10 -16,22 -13,35 4,16 19,36 21,50 22,21 73,85 73,122 -76,0 -111,-82 -182,-70 -71,11 -110,83 -191,67 -34,-7 -46,-41 -78,-39l-139 8c-108,6 -152,110 -249,142 -29,10 -136,39 -100,66 30,23 20,170 20,219 0,28 -112,33 -141,33 -73,0 -89,7 -160,30 -71,71 -154,115 -226,192l0 0c76,94 228,102 290,201 23,36 13,95 23,137 8,34 17,79 36,109 86,93 216,101 332,111 39,3 175,71 200,100 41,48 100,42 144,82l208 190c106,97 238,20 340,65 64,48 188,60 272,118l0 0 129 160 0 0 47 -74c18,-24 42,-38 57,-64 9,-16 27,-31 42,-42 46,-35 72,5 118,19 30,10 61,12 92,6 38,-6 64,13 98,13 24,0 32,-16 49,-24 33,-8 66,-11 98,-23 24,-9 34,-25 62,-25 87,0 105,28 153,-61 17,-31 16,-60 44,-29 31,34 127,35 164,13l0 0 -6 -125 -25 -93c-9,-34 -18,-44 -2,-80 19,-41 93,-113 93,-158 16,0 108,209 117,235 24,-18 40,-117 59,-152 30,-55 123,-79 92,-160 -13,-35 -75,-67 -54,-108 38,-24 191,3 200,-39 -2,-2 -1,-5 -4,-5 -22,-39 -75,-77 -102,-120 -30,-47 23,-117 39,-162 48,-131 -131,-184 -49,-325 12,-22 41,-37 45,-60 -39,-115 -195,-191 -296,-254 -33,-21 42,-42 64,-57 53,-35 97,19 153,-11 38,-20 41,-204 68,-249l59 -99c9,-15 100,-27 111,-18 63,51 101,-27 122,-2 40,48 141,44 177,-10l0 0c-40,-64 -66,-140 -108,-204 -54,-83 -224,-100 -312,-137 -32,-13 -29,-109 -12,-133 21,-29 56,-42 70,-77 20,-48 44,-8 78,-34 40,-30 29,-73 40,-115 0,-45 -14,-121 -42,-156 -39,-50 -106,-49 -143,-87 -19,-19 7,-33 -37,-55 -23,-11 18,-58 44,-58 68,0 134,26 141,-65 6,-69 18,-175 -57,-209 -7,-3 -48,-20 -47,-29 2,-13 33,-20 37,-42 9,-43 33,-94 -13,-111 -40,-25 -53,-85 -86,-118 -21,-21 -72,-62 -57,-99 7,-17 20,-41 15,-59 -12,-36 -85,-20 -113,-27 -71,-17 -88,40 -153,45l0 0c-4,16 -7,22 -7,39 0,33 -1,49 -25,72 -19,19 -39,34 -58,51l-35 50 0 0z"/>
  <path class="fil0 str0" d="M19664 8208l92 2c71,0 165,-6 217,49 67,72 154,-16 186,52 30,63 37,74 112,55 70,-18 142,-19 189,-80 75,-99 157,-91 266,-91l140 47 0 0c-20,-123 -71,-236 -130,-347 -11,-105 -101,-210 -149,-301 -45,-85 -82,-183 -115,-271 -17,-47 -81,-111 -78,-158 0,-54 -29,-105 -16,-164 12,-50 8,-114 36,-158 29,-46 52,-98 76,-151l0 0 -124 -48c4,3 -54,-11 -133,-4 -61,5 -44,91 -44,135 0,203 -223,4 -283,84 -62,84 -155,67 -127,207 7,36 -27,72 -11,101 42,76 14,89 -49,128 -19,12 -115,-79 -120,-103 -15,-64 -39,-71 -85,-109 -108,-88 -21,-142 -190,-164 -50,-6 -38,47 -54,80 -22,47 -93,-38 -155,-28 -100,15 -136,-140 -82,-186 21,-18 27,-120 5,-95 -48,52 -54,73 -129,30 16,-49 -61,-26 -88,-29 -19,-2 -42,-7 -56,-21 -15,-15 -17,-35 -37,-48l0 0c-31,25 -15,40 -15,76 0,69 -37,156 -114,168 -26,4 -69,-10 -91,0 -15,7 -19,27 -36,37 -45,25 -71,28 -33,71 23,26 54,38 73,69 34,53 106,153 88,221 -24,72 -66,109 -111,166l0 0c12,62 34,83 5,149 -19,42 0,80 2,127 1,20 8,42 5,63 -8,60 -23,52 50,52 84,0 95,93 109,151 21,84 133,26 182,5 46,-19 88,8 128,28 77,40 163,-27 233,-60 83,-40 138,13 207,-7 29,0 84,14 111,27 23,10 67,2 80,27 10,18 -2,39 2,57 7,29 41,27 58,40 2,2 4,104 2,117l0 0z"/>
  <path class="fil0 str0" d="M16554 6983c24,0 93,6 113,15 48,21 44,126 124,131 71,4 87,1 147,35 69,38 201,37 276,24 68,-12 37,-148 146,-148 39,-18 74,-52 119,-52 115,0 188,-95 296,-95l1 1c0,107 -103,220 -163,299 -51,67 35,162 93,184 60,23 59,120 99,11 21,-57 79,-59 120,-91 111,-89 125,42 246,42 106,0 154,15 247,46l74 50 0 0c46,-58 87,-95 111,-166 19,-68 -54,-168 -88,-221 -19,-30 -50,-42 -73,-69 -38,-43 -12,-46 33,-71 16,-9 21,-30 36,-37 22,-10 65,4 91,0 77,-12 114,-99 114,-168 0,-36 -16,-51 15,-76l0 0 16 -20c11,-3 25,-13 25,-26 0,-9 -8,-23 -14,-30 -5,-5 -4,-9 -3,-15 0,-18 -15,-23 -26,-35 -9,-10 -18,-15 -26,-27 -16,-24 -11,-53 1,-78l0 0c88,-127 -58,-169 -128,-231 -27,-24 -73,-56 -107,-67 -110,-34 -94,138 -154,188 -65,54 -69,33 -104,113 -8,17 -26,21 -29,44 -11,74 -90,127 -148,54 -33,-42 -23,-25 -74,-11 -40,11 -67,29 -82,-16 -3,-31 -31,-72 -47,-97 -18,-27 -41,-47 -24,-81 33,-65 65,-121 109,-180 31,-42 51,-89 80,-132 85,-85 -102,-189 -163,-220 -92,-46 -310,-105 -310,-229 0,-71 66,-109 99,-159 27,-43 42,-26 75,-50 39,-29 29,-66 53,-99 20,-20 2,-206 -16,-219 -71,-52 -165,9 -165,-98 0,-86 -41,-98 -120,-98 -57,0 -239,-27 -266,-80 -23,-44 -93,-70 -134,-95 -41,-25 -86,-75 -133,-83 -61,-11 -101,-8 -53,-76 0,-64 -49,-90 -49,-142 0,-60 -42,-100 -42,-158 0,-35 10,-91 -25,-112 -58,-36 -100,-46 -151,-97 -55,-55 -179,-3 -124,-108 2,-4 17,-26 9,-28 -1,-6 -49,5 -57,5 -24,0 -39,-20 -39,-43 0,-57 -7,-70 36,-110l40 -68 0 0c-9,-14 -19,-30 -32,-44 -47,-49 -153,-102 -220,-80 -84,27 -214,-8 -268,-79l-410 -123c-87,-26 -132,276 -226,244 -45,-15 -179,-102 -219,-92 -15,59 -107,359 -165,359l0 0 -40 87c-22,71 44,136 109,147 107,18 356,10 378,150 8,50 -13,74 -31,115 -18,41 -21,55 -21,102 0,47 -65,136 -98,165 -69,63 -75,35 -140,-5 -66,-41 -115,82 -188,77 -34,-2 -33,-75 -69,-78 -36,-2 -42,47 -50,70 -10,22 -4,59 -12,85 -7,25 -31,38 -35,64 -4,28 74,72 80,112 6,38 -56,47 -80,53 -75,18 7,59 -9,101 -21,54 -2,51 5,103l0 0c65,-5 83,-62 153,-45 28,7 102,-9 113,27 6,18 -7,43 -15,59 -16,36 35,77 57,99 33,33 46,93 86,118 45,18 22,69 13,111 -5,22 -36,29 -37,42 -1,9 40,26 47,29 76,35 63,140 57,209 -7,91 -73,65 -141,65 -26,0 -66,46 -44,58 43,22 17,36 37,55 38,38 104,37 143,87 28,35 42,112 42,156 -11,42 0,85 -40,115 -34,26 -58,-14 -78,34 -15,35 -50,48 -70,77 -17,24 -20,119 12,133 88,37 258,54 312,137 41,64 68,139 108,204l0 0c127,54 169,241 334,233 49,-2 118,-95 144,-133 61,-88 90,15 164,15 80,10 76,-37 134,-61 16,-7 32,-5 48,-5 38,-2 65,-39 96,-43 27,-4 42,-2 68,-13 27,-11 85,-27 104,4 10,16 -7,52 -9,71l0 0z"/>
  <path class="fil0 str0" d="M16554 6983c24,0 93,6 113,15 48,21 44,126 124,131 71,4 87,1 147,35 69,38 201,37 276,24 68,-12 37,-148 146,-148 39,-18 74,-52 119,-52 115,0 188,-95 296,-95l1 1c0,107 -103,220 -163,299 -51,67 35,162 93,184 60,23 59,120 99,11 21,-57 79,-59 120,-91 111,-89 125,42 246,42 106,0 154,15 247,46l74 50 0 0c12,62 34,83 5,149 -19,42 0,80 2,127 1,20 8,42 5,63 -8,60 -23,52 50,52 84,0 95,93 109,151 21,84 133,26 182,5 46,-19 88,8 128,28 77,40 163,-27 233,-60 83,-40 138,13 207,-7 29,0 84,14 111,27 23,10 67,2 80,27 10,18 -2,39 2,57 7,29 41,27 58,40 2,2 4,104 2,117l0 0c-17,62 -40,91 -108,94 -39,2 -58,0 -67,39 -5,23 -8,38 5,58 24,37 26,39 0,74 -24,32 -30,57 -70,82 -32,4 -96,30 -120,37l-111 30c-144,39 14,110 -79,157 -79,39 -88,12 -143,90 -34,47 -165,113 -214,53 -15,-19 -39,-84 -64,-68 -41,27 -49,67 -49,112 0,69 -56,63 -114,58l0 0c-19,-11 -34,-35 -57,-48 -23,-13 -56,1 -75,-18 -39,-39 -97,3 -97,-76 -27,-14 -79,5 -102,-9 0,-17 9,-73 20,-82 35,-29 68,-41 -7,-41 -27,0 -45,30 -72,31 -36,1 -63,-30 -96,3 -23,23 -100,95 -128,101 -36,8 -50,5 -82,28 -27,20 -31,62 -54,73 -13,7 -88,35 -92,32 -19,-14 -27,-64 -26,-87 -12,-12 -15,-26 -30,-36 -17,-10 -32,-18 -48,-29 -31,-22 -47,-61 -72,-90 -58,-67 -183,-130 -272,-136l0 0c9,-74 36,-86 111,-93 52,-5 219,-6 238,-68 20,-66 -4,-140 19,-210 15,-43 -14,-47 -41,-69 -43,-34 -114,-24 -136,-85 -13,-34 -121,-23 -156,-37l-99 -16c-14,-98 98,-170 78,-276 -13,-8 -52,4 -69,2 -43,-6 -75,-20 -121,-20 -135,0 -99,-93 -177,-116 -70,-20 -150,-22 -220,-48 -49,-18 -113,-130 -106,-185 7,-61 22,-84 -27,-125 -38,-32 -74,-92 -95,-136 -13,-27 17,-64 21,-90 8,-51 41,-81 94,-87l0 0z"/>
  <path class="fil0 str0" d="M6046 7239l112 79c35,44 43,33 43,95 0,27 -15,64 2,88 41,59 60,103 16,165 -13,18 39,59 32,97 -8,42 7,190 -8,213 -15,24 -44,19 -35,60 8,35 16,59 16,98 -7,26 2,50 -2,75 -6,40 -15,77 -15,118 0,65 64,96 31,158 -27,52 -40,89 15,133l0 0c43,-28 85,-5 129,-10 15,-24 32,-84 42,-113 52,-157 200,-256 307,-373 44,-44 107,-104 167,-123 66,-22 104,24 166,44 24,8 87,1 94,17 16,40 35,104 76,130 44,27 169,-14 216,-32 69,-17 146,1 211,-14 69,-16 111,-72 186,-92 107,-29 218,-232 297,-119 33,48 14,128 44,184 67,125 160,43 215,-45 33,-52 50,-13 112,-16 39,-1 150,-30 176,-54 16,-15 -2,-48 -20,-48 -115,-66 -78,-177 -78,-280 0,-44 -26,-29 -58,-44 -53,-24 -74,-19 -128,1 -36,14 -85,-92 -70,-118 14,-26 29,-56 48,-79 75,-87 158,-42 251,-42 18,73 110,135 177,79l0 0 27 -16c57,-36 62,-9 112,14 39,17 100,-67 148,-69 32,-1 50,-48 78,-61 35,-16 54,-56 88,-65 18,-5 41,-34 41,-51 71,-87 118,-81 223,-60 75,15 187,135 214,5 11,-54 93,-61 140,-88 14,-8 55,-60 67,-48 46,52 9,129 82,168 59,31 62,51 141,39 74,-11 63,-76 81,-127 19,-54 61,-94 79,-148l0 0 32 -149c38,-123 40,-179 -80,-245 -17,-9 -68,-41 -78,-57 -4,-6 17,-89 20,-101 29,-79 41,-179 -26,-242 -23,-22 -55,-32 -77,-54 -20,-20 -6,-58 -6,-87 28,-9 60,-1 91,-14 31,-12 23,-50 1,-65 -15,-13 -31,-10 -38,-33 -4,-14 -6,-29 -6,-44 0,-35 14,-71 27,-101 30,-69 -120,-80 -144,-139l0 0 -24 -85c-22,-33 -31,-84 -63,-108 -43,-32 -107,-30 -147,-64 -22,-19 -49,-50 -67,-73 -38,-55 -62,-112 -78,-176 -18,-69 -63,-75 -123,-95 -129,-43 -251,-180 -365,-48 -52,60 -94,148 -168,186l-66 48 0 0c11,32 2,138 -42,154 -49,18 -142,-43 -187,-64 -64,-30 -50,-33 -97,16 -25,26 -49,55 -69,86 -12,19 27,83 18,125 -13,61 -50,91 -76,143 -41,63 -58,69 -58,151 0,130 81,172 145,265 33,48 110,85 84,158 -61,167 -187,73 -318,44 -73,-16 -126,-42 -195,1 -52,32 -34,118 -51,165 -6,46 -14,115 -38,155 -19,31 -88,57 -88,59 33,109 -84,408 -205,439 -63,16 -254,37 -316,22 -85,-21 -163,-112 -199,-190 -18,-29 -42,-60 -50,-92 -39,0 -203,119 -233,152 -32,36 -177,1 -224,-21 -96,-44 -87,73 -153,73 -40,0 -66,-72 -138,-60 -87,14 -204,-80 -277,-62l-135 35c9,29 43,53 48,81 8,41 -3,98 -16,139 -6,18 -19,34 -34,48l0 0z"/>
  <path class="fil0 str0" d="M14591 5359c-71,30 -129,-29 -204,0 -40,15 -147,38 -189,30 -5,-34 29,-81 13,-114 -20,-41 -55,-56 -63,-108 -11,-72 -68,-41 -131,-49 -26,-3 -53,-37 -77,-27 -32,13 -39,30 -81,20 -64,10 -153,56 -217,37 -52,-16 -86,3 -142,3 -135,0 -48,128 -162,152 -26,5 -76,43 -86,2l-46 -187c-5,-21 -66,-99 -79,-95 -21,6 -51,64 -88,26 -36,-38 -17,-213 -111,-173l-113 -7 0 0c-57,-34 -132,-18 -193,-48 -35,-17 -25,-70 -26,-102 -3,-64 -112,-56 -123,-129 -7,-48 -1,-54 35,-82 25,-20 6,-48 -4,-71 -39,-24 -66,-101 -98,-135 -66,-71 -21,-68 35,-104 36,-23 24,-58 22,-93 -1,-15 37,-116 -2,-86 -16,12 -50,45 -68,40 -4,-21 7,-42 3,-64 -4,-21 -18,-46 -14,-69 11,-62 89,-85 46,-152 -15,-51 -45,-94 -59,-144 -13,-48 -12,-74 -12,-126 0,-76 -48,-254 -139,-244 -99,11 -127,46 -213,83 -93,40 -136,133 -219,186 -44,9 -90,-7 -131,6 -35,12 -52,52 -58,86 -16,77 -6,158 -13,236l0 0c-20,97 -29,172 -141,193 -103,0 -98,-69 -185,-93 -92,-26 -68,-95 -151,-6 -40,42 -49,55 -108,69 -58,13 -41,97 -49,144 -15,83 -127,17 -168,-14l-2 1c-9,35 -27,123 -70,122l-162 -5c-17,-1 8,-68 -17,-68 -183,0 -258,112 -409,147 -51,34 -24,101 -85,134 -40,22 -53,7 -95,51 -50,53 -174,250 -237,252 -60,2 -88,-79 -139,-105 -23,-12 -78,-12 -89,-32 -17,-33 -22,-72 -38,-104 -26,-50 -66,45 -80,60 -40,42 -71,-14 -91,-44l-34 -63 0 0c7,-2 14,-7 21,-15 23,-31 23,-69 37,-105 25,-63 16,-77 12,-139 -1,-16 -125,-128 -147,-141 -43,-21 -136,-59 -64,-101 47,-28 61,-91 26,-130 -11,-12 -33,-78 -26,-92 5,-10 166,-22 188,-27 34,-9 -68,-148 -78,-173 -21,-46 13,-63 42,-102l101 -139 54 -169c23,-72 42,-50 116,-63 163,-29 436,-98 523,-253 54,-96 95,-123 196,-126 110,-3 298,-75 386,-143 18,-41 60,-87 90,-121 33,-36 52,-86 84,-123 57,-67 116,-133 10,-177l-177 -75c-92,-39 -72,-72 -28,-140l0 0c21,-9 146,31 174,38 84,21 143,68 217,102 63,29 121,30 183,46l53 168c23,72 53,106 132,117 52,29 114,36 168,61 115,54 126,170 282,95 104,-50 145,15 247,2 81,-10 125,-44 214,-44 160,0 78,-179 162,-205 107,-33 202,-43 313,-43l417 6c175,3 403,-142 573,-40 89,53 87,120 178,20 75,-83 180,-138 284,-182l102 -63c117,-72 96,324 96,368 0,88 56,134 94,206 35,67 -24,155 -35,221 -91,106 -76,266 -141,380 -36,62 -92,101 -130,157 -12,17 -91,111 -106,118 0,62 -54,79 28,45 88,-36 179,-85 274,-42 151,68 480,150 538,326l0 0 -40 87c-22,71 44,136 109,147 107,18 356,10 378,150 8,50 -13,74 -31,115 -18,41 -21,55 -21,102 0,47 -65,136 -98,165 -69,63 -75,35 -140,-5 -66,-41 -115,82 -188,77 -34,-2 -33,-75 -69,-78 -36,-2 -42,47 -50,70 -10,22 -4,59 -12,85 -7,25 -31,38 -35,64 -4,28 74,72 80,112 6,38 -56,47 -80,53 -75,18 7,59 -9,101 -21,54 -2,51 5,103l0 0c-4,16 -7,22 -7,39 0,33 -1,49 -25,72 -19,19 -39,34 -58,51l-35 50 0 0z"/>
  <path class="fil0 str0" d="M10335 6966c-19,54 -61,94 -79,148 -18,52 -7,116 -81,127 -79,11 -82,-8 -141,-39 -73,-39 -36,-116 -82,-168 -11,-13 -53,40 -67,48 -46,26 -128,33 -140,88 -27,130 -139,9 -214,-5 -105,-21 -152,-27 -223,60 0,17 -23,47 -41,51 -34,9 -53,49 -88,65 -28,13 -46,60 -78,61 -48,2 -109,87 -148,69 -50,-22 -55,-50 -112,-14l-27 16 0 0c29,23 62,74 91,103 70,70 122,117 217,145 123,36 226,-5 349,-5 51,0 -22,76 -33,86 -44,38 -53,67 -73,122 39,121 -150,176 -105,241 22,32 43,51 43,90 0,20 -5,78 13,90 48,32 92,-70 118,57 6,29 -13,98 38,76 13,-5 66,-59 46,-9 -25,60 10,74 42,116 36,48 -4,86 -10,134 -10,33 -35,60 -63,80 -20,14 -45,24 -51,50 -9,35 -6,74 -36,99 -13,11 -23,26 -37,37 -10,7 -44,34 -48,47 -9,18 -2,54 -6,76 -4,21 -1,42 4,62 9,37 -1,79 -1,117 0,30 -7,58 -5,90l0 0c60,-10 120,-76 182,-94 45,-13 88,-1 120,-41 45,-56 149,-124 162,-196 0,-109 -20,-131 48,-229 42,-60 78,-119 78,-195 0,-108 48,-279 172,-280l210 -1c88,0 103,-67 171,-93 21,-5 39,-17 59,-24 63,-20 122,-15 181,11 70,31 157,31 235,16 141,-3 204,-120 320,-173 122,-55 226,-113 365,-90l0 0c-24,-80 -93,-133 -120,-214 -41,-126 -164,-51 -239,-136 -28,-32 -27,-86 -45,-122 -31,-62 -39,-23 -88,-59 -93,-71 -348,-1 -407,-91 -33,-50 -47,-127 -67,-185 -5,-43 -26,-82 -68,-99 -50,-20 -97,-49 -148,-67 -36,-13 -63,-34 -96,-48l0 0z"/>
  <path class="fil0 str0" d="M11583 3855l282 11c141,5 80,111 41,194 -20,43 1,98 -13,145 -14,49 -74,103 -74,154 -19,58 -34,121 -71,175 -35,50 -78,117 -100,175 -12,31 -40,83 -77,84 -78,26 -117,8 -189,-14 -52,-15 -159,-7 -216,-7 -53,0 -88,53 -142,55 -43,1 -121,-45 -146,-35 -49,19 -89,136 -141,31 -48,-97 -152,15 -195,75 -101,139 61,144 75,265 -26,98 76,179 12,273 -67,99 -216,94 -321,90 -52,-2 -157,-63 -188,0 -21,43 -37,71 -68,110l0 0c24,59 175,70 144,139 -14,31 -27,67 -27,101 0,15 2,30 6,44 7,23 23,20 38,33 22,15 30,53 -1,65 -31,13 -64,5 -91,14 0,28 -13,67 6,87 22,22 53,32 77,54 67,63 54,163 26,242 -3,12 -24,95 -20,101 9,15 61,47 78,57 120,66 118,122 80,245l-32 149 0 0c33,14 60,36 96,48 51,18 98,46 148,67 41,17 63,56 68,99 20,57 34,135 67,185 59,90 314,21 407,91 49,37 57,-3 88,59 18,36 17,90 45,122 75,85 198,10 239,136 26,81 96,134 120,214l0 0c72,-77 156,-121 226,-192 71,-24 86,-30 160,-30 28,0 141,-5 141,-33 0,-50 10,-196 -20,-219 -36,-27 71,-56 100,-66 97,-32 141,-135 249,-142l139 -8c32,-2 44,32 78,39 81,17 120,-55 191,-67 71,-11 107,70 182,70 0,-38 -51,-101 -73,-122 -2,-14 -17,-34 -21,-50 -3,-12 7,-24 13,-35 18,-34 41,-38 41,-81 0,-16 -15,-62 -3,-71 20,-14 61,26 88,22 32,-5 42,-24 62,-50l0 0c73,-44 21,-71 -17,-120 -46,-59 13,-60 5,-111 -6,-36 -3,-89 44,-63 17,10 66,26 81,10 15,-15 -16,-30 -26,-43 -21,-29 -16,-61 -16,-94 0,-35 -40,-19 -57,-41 -32,-32 -58,-34 -72,-79 -3,-9 -7,-10 -16,-16 -39,-3 -42,-19 -78,15 -30,28 -52,29 -85,48 -77,43 -61,128 -172,132 -42,2 -116,69 -139,64 -28,-115 20,-203 -60,-305 -28,-35 -27,-80 -47,-117 -40,-73 -101,12 -151,-18 -23,-14 0,-46 -12,-71 -15,-32 -35,-61 -45,-95 6,-49 7,-80 54,-103 51,-26 6,-86 -19,-111 -33,-33 -1,-34 23,-58 42,-42 24,-89 7,-138 -30,-93 8,-85 53,-157 44,-71 119,-51 189,-69 -5,-22 -101,-58 -121,-84 -39,-49 -105,-49 -159,-79 -3,-21 -38,-50 -30,-70 8,-21 47,-18 38,-52 -17,-64 135,-7 179,-20 48,-14 79,-65 120,-70 28,-4 56,4 85,4 34,0 172,-33 119,-93 -22,-25 -59,-40 -21,-78l0 0c-57,-34 -132,-18 -193,-48 -35,-17 -25,-70 -26,-102 -3,-64 -112,-56 -123,-129 -7,-48 -1,-54 35,-82 25,-20 6,-48 -4,-71 -39,-24 -66,-101 -98,-135 -66,-71 -21,-68 35,-104 36,-23 24,-58 22,-93 -1,-15 37,-116 -2,-86 -16,12 -50,45 -68,40 -4,-21 7,-42 3,-64 -4,-21 -18,-46 -14,-69 11,-62 89,-85 46,-152 -15,-51 -45,-94 -59,-144 -13,-48 -12,-74 -12,-126 0,-76 -48,-254 -139,-244 -99,11 -127,46 -213,83 -93,40 -136,133 -219,186 -44,9 -90,-7 -131,6 -35,12 -52,52 -58,86 -16,77 -6,158 -13,236l0 0z"/>
  <path class="fil0 str0" d="M8951 5220l66 -48c74,-38 115,-125 168,-186 114,-131 236,5 365,48 61,20 105,26 123,95 17,64 40,121 78,176 18,23 44,54 67,73 40,34 104,32 147,64 32,24 41,74 63,108l24 85 0 0c30,-39 46,-67 68,-110 31,-63 136,-2 188,0 105,5 254,10 321,-90 64,-95 -38,-175 -12,-273 -14,-121 -175,-126 -75,-265 43,-60 147,-172 195,-75 52,104 91,-12 141,-31 25,-10 103,36 146,35 55,-2 89,-55 142,-55 58,0 165,-8 216,7 72,21 110,40 189,14 37,-1 65,-53 77,-84 22,-57 66,-124 100,-175 37,-53 52,-117 71,-175 0,-52 59,-105 74,-154 14,-48 -7,-102 13,-145 39,-83 100,-188 -41,-194l-282 -11 0 0c-20,97 -29,172 -141,193 -103,0 -98,-69 -185,-93 -92,-26 -68,-95 -151,-6 -40,42 -49,55 -108,69 -58,13 -41,97 -49,144 -15,83 -127,17 -168,-14l-2 1c-9,35 -27,123 -70,122l-162 -5c-17,-1 8,-68 -17,-68 -183,0 -258,112 -409,147 -51,34 -24,101 -85,134 -40,22 -53,7 -95,51 -50,53 -174,250 -237,252 -60,2 -88,-79 -139,-105 -23,-12 -78,-12 -89,-32 -17,-33 -22,-72 -38,-104 -26,-50 -66,45 -80,60 -40,42 -71,-14 -91,-44l-34 -63 0 0c-13,4 -28,2 -46,9 -43,17 -68,78 -116,101 -46,23 -88,28 -134,40 -17,70 11,183 -27,248 -35,39 -204,197 -173,227 59,59 136,100 213,100l0 0z"/>
  <path class="fil0 str0" d="M20339 9478c0,-21 -7,-48 -18,-65 -14,-21 -20,-16 -20,7 0,20 -4,40 -4,60 0,28 5,56 -2,83 -6,22 -25,39 -31,62 14,-14 33,-30 45,-48 12,-17 16,-39 23,-58l7 -42zm719 -1239c-5,-3 -32,-22 -33,-25 -4,-1 -16,-13 -20,-16 -8,-7 -18,-7 -28,-5 -7,28 17,52 34,70 9,10 20,19 25,31 2,4 2,10 3,15 1,11 11,24 16,6 3,-11 3,-21 2,-32 0,-5 -3,-32 1,-33l1 -12zm-349 145c-27,0 -56,-7 -82,-13 -31,-7 -60,-1 -86,8 5,22 105,22 127,23 26,1 53,1 78,5 21,3 41,-2 59,-2 0,-10 -48,-18 -57,-19l-40 -3zm-1046 -176l92 2c71,0 165,-6 217,49 67,72 154,-16 186,52 30,63 37,74 112,55 70,-18 142,-19 189,-80 75,-99 157,-91 266,-91l140 47 0 0c6,38 10,76 10,116 0,38 -83,12 -104,10 -60,-7 -161,-23 -219,-11 -24,5 -160,72 -172,91 -36,72 -26,120 -26,199 21,-5 37,-149 51,-178 26,-53 89,-83 143,-53 65,36 206,26 283,23 31,-1 101,-17 127,-8 16,6 57,102 59,119 -8,25 -33,117 -57,125 57,19 122,-9 179,-27 19,-6 41,-14 12,4 -28,17 -57,45 -84,67 -63,51 -138,87 -204,137 -30,23 -83,54 -119,69 -51,22 -87,67 -132,94 -48,47 -119,72 -166,119 -76,76 -205,104 -228,216 -13,66 -1,36 -54,55 -27,10 -39,80 -52,109 -17,22 -28,34 -37,60 -10,31 -4,68 -5,101l-1 78c-3,1 -5,16 -7,20 -19,12 -71,35 -82,49 -18,24 13,49 14,76 4,108 37,51 105,68 53,13 55,3 92,-24 15,-11 49,-12 69,-21 61,-27 5,-184 5,-241 108,0 86,117 71,196 -13,69 -80,129 -149,175l0 0c-58,-9 -125,-12 -179,-36 -101,-45 -164,-140 -283,-153 -95,-10 -235,98 -306,52 -73,-48 -114,-8 -194,-8 -101,0 -189,-101 -275,-76 -67,20 -169,-14 -240,-20l-197 -39 0 0c14,-75 -13,-124 30,-197 46,-77 3,-75 -36,-128 -23,-31 -12,-50 11,-77 20,-24 -7,-34 -8,-58 -1,-25 62,-66 37,-88 -31,-27 -85,18 -77,-48 12,-16 29,-38 31,-59 1,-17 -3,-43 5,-57l18 -35 0 0c58,5 114,10 114,-58 0,-46 8,-85 49,-112 25,-16 48,49 64,68 49,60 180,-6 214,-53 56,-77 65,-50 143,-90 93,-47 -65,-118 79,-157l111 -30c24,-7 89,-33 120,-37 40,-25 46,-50 70,-82 26,-35 24,-37 0,-74 -13,-20 -11,-35 -5,-58 9,-40 27,-38 67,-39 68,-3 90,-32 108,-94l0 0z"/>
  <path class="fil0 str0" d="M9973 14784l35 -32c78,-19 80,-22 125,35 21,26 207,191 221,110 6,-37 4,-74 48,-86 27,-7 69,-1 92,14 42,26 1,92 99,53 39,-15 76,-54 104,-84 42,-45 -40,-80 -58,-119 -12,-25 3,-69 35,-67 25,2 51,42 68,59 153,31 69,-67 44,-140 -15,-44 69,-175 13,-193 -55,-17 -82,1 -70,-73 12,-77 7,-125 -48,-175 -58,-52 19,-102 31,-163 23,-42 34,-91 57,-132 15,-26 -26,-74 -5,-80 66,-20 66,-121 32,-167 -43,-59 -45,-39 -108,-42 -39,-2 -162,-74 -172,-114 -27,-113 49,-96 60,-178 17,-20 39,-71 33,-98 -7,-28 -17,-45 -28,-72 -7,-17 27,-48 40,-54 43,-19 32,-89 4,-115 -26,-25 -61,-44 -85,-72 -26,-31 -34,-85 -47,-123 -9,-26 13,-106 29,-127l0 0c16,-2 68,5 79,16 23,23 21,62 64,69 16,3 25,-13 39,-18 28,-11 48,3 83,-22 34,-24 58,-58 102,-66 11,-2 121,32 126,39 42,61 147,-49 170,41 33,130 48,107 182,107 42,-9 79,22 117,32l33 9 0 0c43,0 151,100 170,43 9,-26 52,-162 75,-162 0,35 76,77 105,79 28,1 160,15 158,27 -17,96 -66,223 -46,320 17,80 107,90 98,170 -4,36 -66,37 0,70 17,8 101,41 34,64 -21,0 -77,-10 -82,16 -5,23 12,48 3,69 -22,48 -91,51 -77,110 37,9 87,-2 125,-2 38,0 76,-23 104,-23 0,2 0,1 2,2 9,35 53,69 -16,69 -63,0 -22,53 -47,91 -18,28 -1,69 6,99 12,49 -49,67 -28,122 16,41 14,136 -36,151 -35,10 -63,8 -97,23 -38,48 59,60 44,97 -36,90 71,39 56,70 -20,40 -7,53 26,69 0,31 -110,44 -58,82 45,34 80,31 17,68 -24,14 19,49 -23,61 -45,13 -97,-27 -97,36 0,58 17,90 27,143 5,24 3,52 11,75 13,38 64,58 94,78l91 25 0 0c-2,28 4,62 4,73 0,68 27,210 -25,260 -33,31 -84,43 -110,81 -36,52 -60,43 -119,56 -21,5 -37,10 -50,27 0,57 38,105 32,155 -75,64 -90,135 -205,87 -60,-25 -156,-69 -221,-48 -54,18 -97,50 -148,69 -69,27 -238,-6 -315,-4l-422 15c-58,-12 -109,-24 -141,-79 -25,-43 -62,-26 -95,-55 -34,-30 -144,-117 -164,-148 -25,-39 13,-110 13,-155 0,-88 -193,-63 -122,-201 63,-122 -7,-94 -64,-175 -14,-20 -25,-45 -32,-71l0 0z"/>
  <path class="fil0 str0" d="M12440 9888c-21,28 -94,84 -72,125 6,11 34,0 44,-1 36,-3 36,32 69,32 47,0 94,-25 109,36 11,46 5,84 -10,129 -23,53 -9,115 20,163 7,12 20,21 25,34 5,16 9,36 10,52 1,21 13,33 19,51l59 84 0 0c-25,33 -84,-35 -100,48 -3,15 -2,54 -32,41 -24,-10 -29,-45 -48,-52 -7,-3 -83,49 -130,39 -67,-14 -116,-91 -127,-154 -1,-7 -64,-1 -75,0 -38,4 5,128 7,145 9,69 -78,169 -102,238 -32,91 59,106 59,187 -104,0 -240,8 -275,125 -7,26 -65,52 -44,80 28,38 94,-14 132,8 16,23 171,106 198,105 3,0 161,-29 131,8 -33,42 8,48 15,83 9,50 -46,99 -47,157l-5 163c-56,0 -118,-25 -171,-45 -45,-17 -90,-66 -137,-66 -103,0 -112,29 -131,-82 -15,-90 -76,9 -115,38 -93,71 -216,60 -325,80 -49,9 1,46 16,69 28,43 -43,48 -61,63 -19,15 -78,19 -70,58 3,17 20,55 -3,64 -20,8 -100,3 -90,39 6,23 54,65 72,83 25,50 0,92 5,141 6,49 116,-39 130,-36 0,30 -31,79 -15,109 17,31 62,36 73,61 43,104 55,105 169,105 0,45 -19,109 -59,133 -53,31 -54,67 -43,127l0 0 -33 -9c-38,-10 -75,-41 -117,-32 -134,0 -148,23 -182,-107 -23,-90 -128,20 -170,-41 -5,-8 -115,-41 -126,-39 -44,7 -69,42 -102,66 -35,25 -55,11 -83,22 -14,5 -23,21 -39,18 -43,-7 -41,-46 -64,-69 -11,-11 -64,-19 -79,-16l0 0c-3,-37 -37,-123 -69,-140 -27,-14 -116,47 -180,23 -47,-17 -60,-100 -86,-140 -67,-102 -197,-26 -266,19 -70,46 -70,155 -148,188 -60,25 -44,-118 -90,-135 -37,-14 -51,56 -71,80 -48,59 -119,20 -93,-53 32,-91 -7,-120 -59,-190 -5,-15 -21,-42 -33,-52 -11,-10 -23,-25 -30,-37 -14,-25 -29,-64 -5,-89 5,-5 14,-9 18,-15 21,-25 -21,-42 -26,-61 0,-27 -10,-71 -24,-94 -17,-29 -56,-21 -69,-49 -8,-17 -10,-41 -36,-40 -34,2 -75,62 -109,46 -38,-18 -12,-89 -6,-116 12,-63 53,-122 56,-185 3,-71 -123,-121 -178,-149l0 0 61 -103c31,-30 111,-18 116,-42 11,-52 -57,-75 -37,-123 22,-53 118,-220 176,-218 78,3 126,54 200,72 52,13 91,-13 138,-5 123,21 104,-146 164,-226 26,-35 94,-12 135,-40 29,-20 53,-93 53,-127l-1 -1c-51,-10 -91,-4 -137,-31 -95,-32 -104,7 -104,-101l0 -211c0,-139 -80,-248 -203,-313l11 -166c30,2 52,1 80,8 15,4 28,16 44,19 27,5 59,1 85,-7 21,-7 58,-23 80,-16 16,5 86,48 94,45 31,-12 21,-55 45,-74 14,-11 174,-31 103,-72 -139,-81 -77,-142 -16,-256 43,-82 99,-174 202,-188 69,-10 112,-3 121,-82 5,-43 79,32 99,40 57,22 216,69 276,54 49,-13 92,-57 135,-65 55,-10 94,23 144,34 34,12 84,15 120,10 33,-5 65,-42 92,-42 61,0 93,57 174,32 132,-41 148,-123 166,-240 6,-37 118,-128 148,-108 90,60 239,155 243,268l6 195c2,52 116,91 148,117 55,27 -33,96 5,137 32,34 72,63 105,99 30,32 3,58 3,91 0,43 36,83 26,131 -19,97 77,35 121,35l0 0z"/>
  <path class="fil0 str0" d="M11517 12757c-11,-60 -10,-96 43,-127 40,-23 59,-88 59,-133 -114,0 -125,-2 -169,-105 -11,-25 -56,-31 -73,-61 -16,-30 15,-79 15,-109 -14,-4 -125,85 -130,36 -6,-49 19,-91 -5,-141 -18,-18 -66,-60 -72,-83 -9,-36 71,-32 90,-39 23,-9 6,-47 3,-64 -8,-39 51,-43 70,-58 18,-15 90,-20 61,-63 -15,-23 -66,-59 -16,-69 109,-21 231,-10 325,-80 39,-29 99,-128 115,-38 19,111 28,82 131,82 47,0 92,49 137,66 53,20 115,45 171,45l5 -163c2,-58 56,-107 47,-157 -6,-35 -47,-42 -15,-83 29,-37 -128,-8 -131,-8 -27,1 -182,-82 -198,-105 -38,-22 -104,30 -132,-8 -21,-28 36,-55 44,-80 34,-117 171,-125 275,-125 0,-81 -91,-97 -59,-187 24,-68 111,-169 102,-238 -2,-18 -45,-141 -7,-145 11,-1 74,-7 75,0 11,63 59,139 127,154 47,10 123,-42 130,-39 19,7 24,42 48,52 30,13 29,-26 32,-41 16,-83 76,-15 100,-48l0 0c36,-17 22,-38 66,-46 178,-33 137,-155 212,-286 29,-51 14,-71 86,-71 115,0 140,162 206,154 70,-9 121,42 189,58 138,32 37,104 37,207 0,47 2,92 -16,134 -18,39 -48,98 -48,140 26,86 141,75 155,178 5,37 10,146 45,151 105,14 206,-55 217,89 4,57 27,163 -36,202 0,2 -2,5 -3,5l0 6c53,36 89,43 151,58l0 0c-10,37 5,66 25,95 20,30 60,43 81,75 27,40 47,97 79,131 43,46 87,29 141,48 21,9 131,20 141,36 18,29 -18,77 1,104 47,68 174,42 196,94 23,53 38,100 82,139 61,53 108,49 82,149l0 0 -5 198 3 54c10,38 14,89 6,128 -9,48 -31,66 -75,86 -77,35 -77,140 -12,190l37 43 0 0c-134,97 -267,205 -330,332 -18,94 -265,187 -342,255l-424 372c-62,72 -133,163 -184,243l-51 80c-51,80 -42,-45 -96,-25 -40,15 -110,-33 -139,-5l0 0 -101 -60c-85,0 -116,64 -168,126 -47,56 -74,65 -32,134 23,37 -34,63 -58,83 -47,38 -50,118 -120,52 -66,-62 -52,-60 -130,-31 -123,60 -139,100 -195,220 -33,70 -142,-35 -181,-56 -35,-19 -45,5 -47,35l0 0 -91 -25c-30,-20 -81,-40 -94,-78 -8,-23 -6,-50 -11,-75 -11,-53 -27,-85 -27,-143 0,-63 52,-22 97,-36 42,-12 -1,-47 23,-61 62,-37 27,-34 -17,-68 -51,-39 58,-51 58,-82 -32,-16 -45,-30 -26,-69 15,-31 -92,19 -56,-70 15,-37 -82,-49 -44,-97 34,-15 62,-13 97,-23 50,-15 51,-109 36,-151 -21,-55 40,-73 28,-122 -7,-29 -24,-70 -6,-99 24,-38 -16,-91 47,-91 69,0 24,-34 16,-69 -2,0 -1,0 -2,-2 -29,0 -66,23 -104,23 -38,0 -88,11 -125,2 -15,-58 54,-62 77,-110 10,-21 -7,-45 -3,-69 5,-26 61,-16 82,-16 68,-23 -17,-55 -34,-64 -66,-33 -4,-34 0,-70 10,-80 -81,-90 -98,-170 -20,-97 29,-224 46,-320 2,-11 -130,-25 -158,-27 -29,-1 -105,-44 -105,-79 -23,0 -66,136 -75,162 -19,57 -127,-43 -170,-43l0 0z"/>
  <path class="fil0 str0" d="M6876 14230c-30,19 -113,-40 -154,-27 -46,15 -63,61 -102,80 -34,16 -84,15 -121,26 -64,18 -103,19 -161,-14 -47,-27 -92,-79 -139,-100 -100,11 -101,106 -169,123 -79,20 -115,-88 -158,-132 -57,-57 -55,-24 -127,0 -27,9 -61,2 -89,5 -42,5 -68,32 -106,40 -34,7 -74,-5 -109,-11 -35,17 -60,56 -91,70 -34,15 -70,-16 -101,-22 -79,-16 -150,13 -225,13 -19,0 -83,-32 -87,-31 -59,17 -85,83 -157,83 -31,0 -37,41 -64,47 -39,8 -57,-21 -93,10 -30,26 -25,60 -47,91l-83 28 0 0c-2,-7 -3,-15 -4,-22 -5,-38 -23,-91 -22,-126 1,-31 37,-39 53,-57 37,-40 -15,-54 -15,-90l1 -136c1,-77 -61,-123 -41,-207 18,-67 25,-99 59,-160 44,-80 -56,-70 -111,-91 -171,-65 151,-254 99,-307 -151,0 -247,-77 -263,-228 -18,-47 8,-98 -66,-98 -25,0 -118,-45 -137,-63 -6,-6 10,-67 10,-82 0,-48 -19,-93 -19,-133 0,-28 77,-146 58,-165 -49,-49 -53,-162 -55,-231 0,-89 -18,-163 10,-250 28,-89 46,-98 -50,-121 -33,-8 -48,24 -68,52 -20,28 -110,83 -143,94 -48,17 -172,-20 -147,-82 18,-45 6,-65 6,-109 0,-31 66,-85 40,-104 -110,-82 29,-119 -112,-131 -21,-2 -48,-11 -68,-20 -24,-10 -72,-56 -74,-81 -30,-60 -75,-120 -64,-191 12,-76 44,-129 33,-211 -9,-67 168,-292 232,-292 44,0 197,92 221,128 28,44 39,94 66,137 33,52 67,-46 80,-69 45,-76 59,-21 113,20 67,101 187,41 267,133 151,173 151,-11 297,59 58,28 103,110 131,165 96,185 302,640 523,281 67,-109 81,-4 183,-35 55,-13 129,-159 193,-118 73,47 131,152 226,152 73,0 89,-21 89,58 0,75 -38,136 -47,209 0,33 14,52 39,78l0 0 -21 39c3,23 -13,104 -39,110 -38,8 -79,8 -116,16 -16,4 -16,136 -16,159 0,94 -38,115 -108,166 -22,16 -74,178 -74,207 35,12 138,-4 129,40 -15,77 20,67 80,92 43,18 162,92 153,147 -7,46 -3,65 24,102 19,27 37,82 57,101 49,58 114,56 167,98 50,39 35,206 48,271 10,48 72,-8 97,16 29,27 11,60 70,48 29,-5 64,-51 92,-35 56,33 89,46 155,53 17,2 -9,168 -23,193 -22,38 -122,126 -19,161 70,-16 164,134 197,175l0 0z"/>
  <path class="fil0 str0" d="M6046 7239l112 79c35,44 43,33 43,95 0,27 -15,64 2,88 41,59 60,103 16,165 -13,18 39,59 32,97 -8,42 7,190 -8,213 -15,24 -44,19 -35,60 8,35 16,59 16,98 -7,26 2,50 -2,75 -6,40 -15,77 -15,118 0,65 64,96 31,158 -27,52 -40,89 15,133l0 0c0,17 12,26 12,38 0,21 -22,38 -15,63 13,42 80,66 101,107 60,115 31,145 31,261 0,65 -75,73 -90,133 -9,35 6,81 -1,121 -6,36 -20,62 -20,100 0,24 4,53 -1,76 -8,37 -41,50 -41,92 0,34 47,64 38,90 -7,70 39,115 59,175 14,41 -23,77 28,85 62,10 139,63 181,-9 20,-35 101,-75 143,-75 0,29 -71,80 -85,111 -7,17 -22,39 -22,57 0,9 20,77 25,79 76,32 79,-147 93,-126 34,50 97,38 97,115 0,11 6,122 -38,73 -14,-16 -24,-61 -51,-53 -45,13 -46,29 -39,73 6,40 88,31 119,56 4,29 67,200 57,217 -18,28 -51,49 -76,71 -26,23 -60,100 -68,133l0 0c-24,34 -35,76 -46,116 -5,18 -17,34 -25,51 -32,50 -36,91 -91,125 -28,17 -100,44 -89,86 6,21 32,36 37,57 8,31 -18,37 -18,61 0,15 6,23 3,41l-2 67 0 0c0,-1 -137,-6 -167,-19 -85,-36 -63,29 -141,39 -59,8 -156,-34 -192,-81 -108,-94 -208,-66 -338,-79 -79,-7 -284,-37 -339,-92 -10,-81 -8,-282 -73,-336 -2,-19 2,-34 11,-51 19,-32 51,-49 67,-82 15,-32 36,-78 43,-113 18,-88 -67,-174 -42,-246 19,-55 64,-86 38,-141 -31,-66 -113,-148 -77,-225 32,-97 122,-226 110,-320 -53,-30 -97,-193 -124,-247 -48,-17 -113,-77 -138,-122 -44,-79 -2,-105 38,-165 114,-81 21,-277 -8,-379 -35,-122 -82,-306 -49,-430 8,-55 6,-308 93,-265 100,49 159,155 256,207 49,27 106,-27 109,-82 11,-196 205,-197 297,-355 45,-76 99,-187 150,-249 47,-58 -37,-80 -26,-126 8,-30 53,-55 86,-86l0 0z"/>
  <path class="fil0 str0" d="M6690 10679c7,-34 41,-110 68,-133 25,-22 58,-43 76,-71 11,-17 -52,-188 -57,-217 -31,-25 -113,-16 -119,-56 -6,-44 -5,-61 39,-73 27,-8 37,37 51,53 44,49 38,-62 38,-73 0,-77 -63,-66 -97,-115 -14,-21 -17,158 -93,126 -5,-2 -25,-69 -25,-79 0,-18 14,-40 22,-57 14,-31 85,-81 85,-111 -42,0 -123,40 -143,75 -42,72 -119,19 -181,9 -51,-8 -14,-44 -28,-85 -21,-60 -66,-104 -59,-175 9,-26 -38,-56 -38,-90 0,-42 33,-55 41,-92 5,-23 1,-52 1,-76 0,-38 14,-64 20,-100 7,-40 -8,-85 1,-121 15,-60 90,-68 90,-133 0,-116 29,-146 -31,-261 -21,-41 -88,-65 -101,-107 -8,-25 15,-42 15,-63 0,-12 -11,-22 -12,-38l0 0c43,-28 85,-5 129,-10 15,-24 32,-84 42,-113 52,-157 200,-256 307,-373 44,-44 107,-104 167,-123 66,-22 104,24 166,44 24,8 87,1 94,17 16,40 35,104 76,130 44,27 169,-14 216,-32 69,-17 146,1 211,-14 69,-16 111,-72 186,-92 107,-29 218,-232 297,-119 33,48 14,128 44,184 67,125 160,43 215,-45 33,-52 50,-13 112,-16 39,-1 150,-30 176,-54 16,-15 -2,-48 -20,-48 -115,-66 -78,-177 -78,-280 0,-44 -26,-29 -58,-44 -53,-24 -74,-19 -128,1 -36,14 -85,-92 -70,-118 14,-26 29,-56 48,-79 75,-87 158,-42 251,-42 18,73 110,135 177,79l0 0c29,23 62,74 91,103 70,70 122,117 217,145 123,36 226,-5 349,-5 51,0 -22,76 -33,86 -44,38 -53,67 -73,122 39,121 -150,176 -105,241 22,32 43,51 43,90 0,20 -5,78 13,90 48,32 92,-70 118,57 6,29 -13,98 38,76 13,-5 66,-59 46,-9 -25,60 10,74 42,116 36,48 -4,86 -10,134 -10,33 -35,60 -63,80 -20,14 -45,24 -51,50 -9,35 -6,74 -36,99 -13,11 -23,26 -37,37 -10,7 -44,34 -48,47 -9,18 -2,54 -6,76 -4,21 -1,42 4,62 9,37 -1,79 -1,117 0,30 -7,58 -5,90l0 0c0,57 -59,87 2,145 6,26 74,58 97,69 50,26 60,77 103,108 30,21 48,24 83,27l0 0 -11 166 0 0c-10,14 -48,62 -62,69 -29,14 -60,-8 -91,16 -65,49 -108,-61 -116,-110 -3,-18 -80,-52 -105,-55l-80 -9c-25,-3 -42,-35 -66,-35 -36,0 -50,39 -72,-7 -15,-31 -10,-69 -17,-102 -1,-6 -16,-40 -18,-33 -39,0 -88,124 -132,133 -106,22 -81,48 -128,137 -19,13 -33,92 -84,118 -65,32 -68,41 -85,111 -105,15 -128,23 -209,101 -82,78 -142,84 -185,201 -71,191 -268,209 -437,125 -53,-26 -103,3 -153,-7 -71,13 -122,74 -189,96 -62,20 -172,10 -227,-27 -45,-30 -49,-16 -90,16 -50,39 -24,85 -104,77l-239 -26 0 0z"/>
  <path class="fil0 str0" d="M6876 14230c46,52 98,54 166,60 88,9 160,-45 204,51 31,68 58,142 129,177 0,40 -52,216 77,167 40,-15 141,-178 159,-219 31,-71 83,43 98,-53 19,-121 102,33 159,5 36,-17 74,-47 89,-86 21,-56 71,-64 118,-96 22,-15 79,63 106,63 -11,33 -55,139 -90,145 -97,18 -153,15 -113,138 19,59 30,102 30,169 0,25 17,228 69,176 60,-59 3,-189 82,-231 73,-39 50,-56 50,-132 0,-93 20,-115 114,-111 31,1 167,78 162,103 -6,31 -15,76 -6,107l31 114 22 68 0 0c71,-13 154,17 205,59 23,19 166,123 177,111 30,-30 -10,-176 -6,-221 7,-76 -57,-297 56,-225 36,23 131,416 188,188 17,-67 140,-72 159,-193 9,-61 -3,-309 91,-269 70,30 155,148 163,224 68,99 107,211 158,318 40,84 105,151 150,232 23,41 21,101 80,84 11,-58 -9,-125 -5,-185 3,-29 19,-163 24,-190 1,-7 2,-4 3,1l0 0 35 -32c78,-19 80,-22 125,35 21,26 207,191 221,110 6,-37 4,-74 48,-86 27,-7 69,-1 92,14 42,26 1,92 99,53 39,-15 76,-54 104,-84 42,-45 -40,-80 -58,-119 -12,-25 3,-69 35,-67 25,2 51,42 68,59 153,31 69,-67 44,-140 -15,-44 69,-175 13,-193 -55,-17 -82,1 -70,-73 12,-77 7,-125 -48,-175 -58,-52 19,-102 31,-163 23,-42 34,-91 57,-132 15,-26 -26,-74 -5,-80 66,-20 66,-121 32,-167 -43,-59 -45,-39 -108,-42 -39,-2 -162,-74 -172,-114 -27,-113 49,-96 60,-178 17,-20 39,-71 33,-98 -7,-28 -17,-45 -28,-72 -7,-17 27,-48 40,-54 43,-19 32,-89 4,-115 -26,-25 -61,-44 -85,-72 -26,-31 -34,-85 -47,-123 -9,-26 13,-106 29,-127l0 0c-3,-37 -37,-123 -69,-140 -27,-14 -116,47 -180,23 -47,-17 -60,-100 -86,-140 -67,-102 -197,-26 -266,19 -70,46 -70,155 -148,188 -60,25 -44,-118 -90,-135 -37,-14 -51,56 -71,80 -48,59 -119,20 -93,-53 32,-91 -7,-120 -59,-190 -5,-15 -21,-42 -33,-52 -11,-10 -23,-25 -30,-37 -14,-25 -29,-64 -5,-89 5,-5 14,-9 18,-15 21,-25 -21,-42 -26,-61 0,-27 -10,-71 -24,-94 -17,-29 -56,-21 -69,-49 -8,-17 -10,-41 -36,-40 -34,2 -75,62 -109,46 -38,-18 -12,-89 -6,-116 12,-63 53,-122 56,-185 3,-71 -123,-121 -178,-149l0 0c-55,-1 -156,-70 -198,-15 -14,19 11,58 16,80 10,42 -59,62 -87,81 -91,63 -17,95 3,178 9,37 1,82 2,120 1,30 20,77 30,107 -14,81 173,29 80,106 -22,18 -15,116 -15,145 0,79 -70,202 -129,251 -26,22 -105,52 -117,78 -16,36 6,88 -6,125 -14,28 -6,94 -23,111 -23,23 -43,-106 -81,-45 -36,59 -190,27 -269,64 -66,31 -16,113 -43,191 -34,99 -72,102 -137,175 -25,28 -34,149 -82,106 -61,-55 -48,54 -61,78 -28,51 -198,-89 -184,-117 47,-94 -75,-51 -112,-92 -48,-53 -84,-223 -166,-243 -35,-9 -56,85 -64,108 -23,65 -49,88 -85,144 -10,16 -46,69 -61,76 -28,12 -55,7 -85,19 -10,36 -119,9 -141,66 -18,45 14,84 44,114 48,48 81,132 81,200 0,72 -68,151 -68,211l-59 63c-11,12 -29,27 -35,43 -8,21 -8,96 0,117 8,22 28,39 37,65 12,37 -39,71 -71,61 -80,-25 16,87 -57,100l0 0z"/>
  <path class="fil0 str0" d="M6022 12069c67,-27 82,-37 133,-76 37,-28 62,-76 102,-100 83,-48 268,31 195,-131 -34,-75 -32,-150 -21,-230 11,-80 70,-172 27,-249l0 0 2 -67c3,-19 -3,-26 -3,-41 0,-25 26,-30 18,-61 -5,-20 -32,-36 -37,-57 -11,-42 62,-69 89,-86 55,-34 60,-76 91,-125 8,-17 20,-33 25,-51 11,-40 22,-82 46,-116l0 0 239 26c80,9 54,-38 104,-77 41,-32 46,-46 90,-16 55,38 165,48 227,27 66,-22 118,-83 189,-96 51,10 101,-19 153,7 169,84 366,66 437,-125 43,-117 104,-123 185,-201 81,-78 104,-86 209,-101 17,-70 20,-79 85,-111 51,-26 65,-105 84,-118 47,-89 22,-116 128,-137 45,-9 93,-133 132,-133 2,-7 17,27 18,33 7,33 3,71 17,102 22,46 36,7 72,7 24,0 41,32 66,35l80 9c25,3 102,37 105,55 8,49 51,158 116,110 31,-23 62,-2 91,-16 14,-7 52,-55 62,-69l0 0c124,64 203,174 203,313l0 211c0,109 9,70 104,101 46,27 86,21 137,31l1 1c0,34 -24,107 -53,127 -41,29 -109,5 -135,40 -60,79 -41,247 -164,226 -47,-8 -86,17 -138,5 -73,-18 -122,-69 -200,-72 -58,-2 -154,165 -176,218 -20,49 48,71 37,123 -5,24 -85,12 -116,42l-61 103 0 0c-55,-1 -156,-70 -198,-15 -14,19 11,58 16,80 10,42 -59,62 -87,81 -91,63 -17,95 3,178 9,37 1,82 2,120 1,30 20,77 30,107 -14,81 173,29 80,106 -22,18 -15,116 -15,145 0,79 -70,202 -129,251 -26,22 -105,52 -117,78 -16,36 6,88 -6,125 -14,28 -6,94 -23,111 -23,23 -43,-106 -81,-45 -36,59 -190,27 -269,64 -66,31 -16,113 -43,191 -34,99 -72,102 -137,175 -25,28 -34,149 -82,106 -61,-55 -48,54 -61,78 -28,51 -198,-89 -184,-117 47,-94 -75,-51 -112,-92 -48,-53 -84,-223 -166,-243 -35,-9 -56,85 -64,108 -23,65 -49,88 -85,144 -10,16 -46,69 -61,76 -28,12 -55,7 -85,19 -10,36 -119,9 -141,66 -18,45 14,84 44,114 48,48 81,132 81,200 0,72 -68,151 -68,211l-59 63c-11,12 -29,27 -35,43 -8,21 -8,96 0,117 8,22 28,39 37,65 12,37 -39,71 -71,61 -80,-25 16,87 -57,100l0 0c-34,-41 -127,-192 -197,-175 -103,-35 -3,-123 19,-161 14,-24 40,-191 23,-193 -66,-7 -99,-20 -155,-53 -28,-16 -63,29 -92,35 -59,11 -41,-21 -70,-48 -25,-23 -87,33 -97,-16 -13,-66 1,-232 -48,-271 -53,-42 -118,-39 -167,-98 -19,-20 -38,-75 -57,-101 -27,-37 -31,-56 -24,-102 9,-55 -110,-129 -153,-147 -60,-26 -96,-15 -80,-92 9,-45 -94,-29 -129,-40 0,-29 51,-190 74,-207 70,-51 108,-73 108,-166 0,-23 -1,-155 16,-159 37,-8 78,-9 116,-16 27,-5 42,-87 39,-110l21 -39 0 0z"/>
  <path class="fil0 str0" d="M18703 6394c-12,25 -17,53 -1,78 8,12 16,16 26,27 11,12 26,17 26,35 -2,6 -2,10 3,15 6,7 14,21 14,30 0,13 -14,23 -25,26l-16 20 0 0c19,12 22,33 37,48 14,14 37,19 56,21 26,3 103,-19 88,29 75,43 81,22 129,-30 23,-25 16,77 -5,95 -53,46 -18,201 82,186 62,-10 133,75 155,28 15,-33 4,-87 54,-80 169,22 81,75 190,164 46,38 70,45 85,109 6,24 102,115 120,103 64,-39 91,-52 49,-128 -16,-29 18,-65 11,-101 -28,-140 64,-123 127,-207 60,-80 283,119 283,-84 0,-44 -17,-130 44,-135 80,-7 137,6 133,4l124 48 0 0c20,-43 40,-86 66,-128 35,-52 60,-129 109,-170 62,-107 202,-279 309,-342 41,-24 238,-168 238,-200 15,47 110,-55 123,-68 48,-48 46,-61 109,-91 164,-137 457,-128 662,-128 52,0 102,3 151,13 86,17 105,1 8,-20 -29,-7 -110,-60 -110,-94 46,15 96,17 141,32 31,10 88,26 121,7 53,-37 96,-93 155,-124l0 0 -25 -114c-5,-43 -29,-81 -30,-127 -2,-72 39,-120 13,-197l-53 -158c-11,-34 -242,-75 -287,-82 -116,-18 -284,-31 -351,-141 -21,-7 -68,-78 -80,-112 53,-11 146,-17 101,-110 -18,-38 -35,-93 -27,-124 12,-52 -84,-134 -99,-197 -81,-22 -197,-6 -250,70 -52,75 -172,68 -245,101 -17,8 -5,81 -1,140l0 0 75 62c30,9 53,9 76,32 13,13 47,23 64,27 0,28 -30,47 -32,79 -1,20 -18,183 -68,122 -38,-47 -68,-63 -123,-77 -14,-3 -35,-14 -48,-7 -27,13 127,114 53,124 -36,5 -60,-7 -82,28 -17,28 -2,63 -16,90 -9,24 -18,44 -47,40 -1,-2 0,-2 -3,-2 -15,-60 -46,-141 -124,-138 -20,1 42,166 26,218 -31,97 -39,10 -105,51 -28,18 -14,122 -30,162 -23,58 30,83 32,137 3,91 -212,55 -266,39 -60,-18 -100,-144 -161,-147 -41,-2 -13,103 -13,130 0,44 -196,-36 -247,-27l-237 39c-58,24 -90,33 -159,27 -49,-5 -156,152 -182,199 -10,18 -47,69 -68,70 -94,5 -15,-7 -76,54 -28,28 -72,46 -91,84 -50,96 -151,296 -241,354 -18,12 -60,33 -77,54 -15,19 -36,40 -57,53 -20,13 -41,6 -64,23 -16,12 -29,17 -39,37 -21,40 -46,92 -97,100l-110 31 0 0z"/>
  <path class="fil0 str0" d="M16457 3612c22,35 40,65 105,61 85,-5 104,-12 193,-60 16,-19 79,-59 118,-91 22,-18 49,3 49,37 0,27 -123,161 -151,184 -99,79 41,228 132,239l207 25c91,11 116,-82 188,-115 14,-10 226,-229 197,-237 -6,-40 -69,-75 -73,-123 -4,-51 31,-95 25,-139 -110,-63 -162,-147 -91,-265 24,-36 30,-77 59,-113 51,-63 119,-106 179,-160 87,-78 222,-84 222,-228 0,-51 -11,-101 -11,-154 0,-58 -73,-53 -112,-80 -33,-22 -31,-46 -69,-62 -69,-29 -258,-163 -204,-256 56,-97 211,-202 242,-309 7,-4 157,156 181,209 74,168 300,176 451,231 195,71 273,162 410,315 18,52 113,139 158,174 46,35 88,66 126,111 76,89 119,-42 169,-69 35,-19 133,115 162,129 48,19 185,48 208,101 18,43 67,104 105,130 90,61 200,105 305,134l0 0c-14,42 -14,87 -14,130 72,36 208,-62 271,-17 0,125 144,211 256,211 61,5 168,-9 221,27l172 120c39,27 72,41 106,75 31,31 46,100 42,143 0,113 -57,234 -37,337 11,60 237,188 280,140 10,-11 11,-39 9,-71l0 0 75 62c30,9 53,9 76,32 13,13 47,23 64,27 0,28 -30,47 -32,79 -1,20 -18,183 -68,122 -38,-47 -68,-63 -123,-77 -14,-3 -35,-14 -48,-7 -27,13 127,114 53,124 -36,5 -60,-7 -82,28 -17,28 -2,63 -16,90 -9,24 -18,44 -47,40 -1,-2 0,-2 -3,-2 -15,-60 -46,-141 -124,-138 -20,1 42,166 26,218 -31,97 -39,10 -105,51 -28,18 -14,122 -30,162 -23,58 30,83 32,137 3,91 -212,55 -266,39 -60,-18 -100,-144 -161,-147 -41,-2 -13,103 -13,130 0,44 -196,-36 -247,-27l-237 39c-58,24 -90,33 -159,27 -49,-5 -156,152 -182,199 -10,18 -47,69 -68,70 -94,5 -15,-7 -76,54 -28,28 -72,46 -91,84 -50,96 -151,296 -241,354 -18,12 -60,33 -77,54 -15,19 -36,40 -57,53 -20,13 -41,6 -64,23 -16,12 -29,17 -39,37 -21,40 -46,92 -97,100l-110 31 0 0c88,-127 -58,-169 -128,-231 -27,-24 -73,-56 -107,-67 -110,-34 -94,138 -154,188 -65,54 -69,33 -104,113 -8,17 -26,21 -29,44 -11,74 -90,127 -148,54 -33,-42 -23,-25 -74,-11 -40,11 -67,29 -82,-16 -3,-31 -31,-72 -47,-97 -18,-27 -41,-47 -24,-81 33,-65 65,-121 109,-180 31,-42 51,-89 80,-132 85,-85 -102,-189 -163,-220 -92,-46 -310,-105 -310,-229 0,-71 66,-109 99,-159 27,-43 42,-26 75,-50 39,-29 29,-66 53,-99 20,-20 2,-206 -16,-219 -71,-52 -165,9 -165,-98 0,-86 -41,-98 -120,-98 -57,0 -239,-27 -266,-80 -23,-44 -93,-70 -134,-95 -41,-25 -86,-75 -133,-83 -61,-11 -101,-8 -53,-76 0,-64 -49,-90 -49,-142 0,-60 -42,-100 -42,-158 0,-35 10,-91 -25,-112 -58,-36 -100,-46 -151,-97 -55,-55 -179,-3 -124,-108 2,-4 17,-26 9,-28 -1,-6 -49,5 -57,5 -24,0 -39,-20 -39,-43 0,-57 -7,-70 36,-110l40 -68 0 0z"/>
  <path class="fil0 str0" d="M4103 15825l86 38c47,38 61,37 61,103 0,33 -14,73 30,73 106,0 52,46 105,83 60,41 134,-62 183,-52 30,120 82,216 203,276 187,94 218,-68 349,-117 37,8 58,6 87,33 43,40 134,-35 134,32 0,48 -1,75 -44,101 -52,31 -149,41 -149,122 0,92 127,128 180,181l0 0c-15,68 -18,142 -50,202 -27,49 -64,93 -108,129 -41,34 -3,76 5,110 -4,53 -32,79 -64,118 -87,107 75,68 91,114 9,25 -192,217 -210,285 -15,59 -17,130 -5,190 19,98 22,57 94,92 3,37 -44,114 -52,161 -22,131 -84,174 -177,268 -116,116 -99,279 -300,143 -79,-54 -154,-125 -206,-206 -55,-85 -77,-94 -172,-80 -67,14 -35,89 -126,61 -156,-48 -92,34 -162,132 -22,31 -156,122 -193,133 -80,23 -98,23 -172,64 -62,34 -269,36 -295,82 -56,100 -102,124 -187,198 -72,53 -154,118 -177,-5 -8,-44 -34,-8 -56,7 -60,42 -84,29 -114,105 -28,70 -98,184 -184,134 -42,-24 -34,-47 -89,-23 -37,16 -113,18 -151,30 -34,10 -95,59 -126,20 -15,-19 -35,-56 -42,-79 -13,0 -36,16 -49,21 -23,9 -43,14 -67,20 -61,15 -175,40 -239,38l0 0c3,-23 16,-43 36,-71 44,-62 -19,-102 -2,-154 35,-106 83,8 142,-31 95,-62 40,-103 62,-175 15,-50 59,-95 68,-144 14,-79 -25,-238 36,-292 53,-47 104,-114 104,-190 0,-51 -50,-102 5,-143 95,-70 -11,-122 2,-186 6,-29 48,-85 35,-110 -16,-29 -30,-93 16,-111 19,-8 83,-38 91,-44 72,-52 103,-97 201,-113 51,-9 156,-48 175,-104 24,-68 241,-2 327,-24 0,-200 112,-340 245,-483 32,-19 101,-102 109,-140 15,-73 46,-54 92,-101 24,-24 35,-53 52,-80 33,-53 37,-29 95,-24 88,9 73,-94 66,-148 -12,-91 -32,-152 -10,-246 17,-71 43,-56 90,-92 74,-27 108,-39 190,-39 60,0 92,-47 127,-91l0 0z"/>
  <path class="fil0 str0" d="M4103 15825l86 38c47,38 61,37 61,103 0,33 -14,73 30,73 106,0 52,46 105,83 60,41 134,-62 183,-52 30,120 82,216 203,276 187,94 218,-68 349,-117 37,8 58,6 87,33 43,40 134,-35 134,32 0,48 -1,75 -44,101 -52,31 -149,41 -149,122 0,92 127,128 180,181l0 0c8,-36 20,-71 42,-101 17,-23 92,-119 113,-112 6,28 18,75 35,99 28,40 70,12 99,39 24,22 50,0 62,10 9,8 0,69 0,86 0,58 14,111 18,169 0,62 -45,79 0,138 42,55 90,37 145,37 20,0 207,155 96,186 -3,23 23,51 16,63 -14,23 -82,14 -59,48 52,79 -17,103 15,167 12,24 87,66 111,81 89,58 236,-359 345,-292 53,32 51,9 86,-35 90,-112 10,-224 105,-351 26,-35 123,50 192,28 95,0 68,68 70,149 2,74 123,80 177,66 69,-18 93,17 155,31 79,18 177,-24 256,-32 39,-4 255,-21 234,-103 -119,0 -90,13 -151,-82 -72,-112 68,-150 132,-230 44,-54 64,-59 46,-130 -54,-14 -126,-42 -156,-92 -44,-89 -65,-169 -93,-265 -9,-33 26,-29 47,-48 134,-116 221,-188 262,-372 8,-36 71,-40 98,-58 88,-61 209,37 317,-11 73,-33 97,-49 145,-112 25,-34 74,-151 109,-158 46,-10 96,5 145,-7 72,-18 116,-38 170,-89 10,-9 70,-52 57,-56l-141 -98c-87,-60 -35,-61 1,-133 25,-50 -59,-21 -77,-16 -61,16 -86,-8 -108,-63 -94,-118 -78,-82 19,-168 20,-18 44,-28 70,-33l0 0 -22 -68 -31 -114c-8,-31 1,-76 6,-107 5,-25 -131,-102 -162,-103 -94,-4 -114,19 -114,111 0,76 22,93 -50,132 -79,42 -22,172 -82,231 -52,52 -69,-152 -69,-176 0,-67 -11,-110 -30,-169 -40,-123 16,-120 113,-138 35,-6 79,-112 90,-145 -26,0 -84,-78 -106,-63 -47,32 -96,39 -118,96 -15,39 -52,69 -89,86 -56,27 -140,-126 -159,-5 -15,96 -66,-18 -98,53 -18,41 -119,204 -159,219 -129,49 -77,-127 -77,-167 -70,-35 -97,-110 -129,-177 -44,-96 -116,-43 -204,-51 -68,-7 -120,-8 -166,-60l0 0c-30,19 -113,-40 -154,-27 -46,15 -63,61 -102,80 -34,16 -84,15 -121,26 -64,18 -103,19 -161,-14 -47,-27 -92,-79 -139,-100 -100,11 -101,106 -169,123 -79,20 -115,-88 -158,-132 -57,-57 -55,-24 -127,0 -27,9 -61,2 -89,5 -42,5 -68,32 -106,40 -34,7 -74,-5 -109,-11 -35,17 -60,56 -91,70 -34,15 -70,-16 -101,-22 -79,-16 -150,13 -225,13 -19,0 -83,-32 -87,-31 -59,17 -85,83 -157,83 -31,0 -37,41 -64,47 -39,8 -57,-21 -93,10 -30,26 -25,60 -47,91l-83 28 0 0c7,34 19,67 34,98 7,50 55,130 91,166 22,23 61,58 78,84 15,24 -20,63 -22,88 -4,71 67,77 31,162 -8,20 3,110 -16,111 -34,2 -67,-37 -110,-31 -54,7 -71,63 -98,101 -45,65 -21,79 -13,146 -22,36 -17,89 -22,130 -7,58 -25,77 -67,118 -60,5 -76,-35 -128,17 -32,32 -75,51 -109,80 -15,12 -28,28 -41,45l0 0z"/>
  
  
  
  
  
  
  
  
  
  
  
  
  
  
  
  
 </g>
</svg>