<svg xmlns="http://www.w3.org/2000/svg" xmlns:xlink="http://www.w3.org/1999/xlink" xml:space="preserve" width="210mm" height="297mm" version="1.1" style="shape-rendering:geometricPrecision; text-rendering:geometricPrecision; image-rendering:optimizeQuality; fill-rule:evenodd; clip-rule:evenodd" viewBox="0 0 21000 29700">
 <defs>
  <style type="text/css">
   <![CDATA[
    .str2 {stroke:white;stroke-width:50;stroke-opacity:0.501961}
    .str4 {stroke:white;stroke-width:50}
    .str1 {stroke:#AE4A84;stroke-width:25}
    .str6 {stroke:#434242;stroke-width:50}
    .str0 {stroke:white;stroke-width:50}
    .str3 {stroke:white;stroke-width:50}
    .str7 {stroke:#2B2A29;stroke-width:7.62}
    .str5 {stroke:white;stroke-width:7.62}
    .fil7 {fill:none}
    .fil2 {fill:none;fill-rule:nonzero}
    .fil1 {fill:#171729}
    .fil0 {fill:#171729}
    .fil9 {fill:#D9DADA}
    .fil6 {fill:#171729;fill-rule:nonzero}
    .fil5 {fill:#D9DADA;fill-rule:nonzero}
    .fil8 {fill:#434242;fill-rule:nonzero}
    .fil4 {fill:black;fill-rule:nonzero}
    .fil3 {fill:#171729;fill-rule:nonzero;fill-opacity:0.501961}
   ]]>
  </style>
 </defs>
 <g id="Plan_x0020_1">
  <metadata id="CorelCorpID_0Corel-Layer"/>
  
  
  
  
  
  <path class="fil0 str0" d="M18493 13258l-32 63c-10,51 -19,66 13,103 7,8 45,85 45,99 0,44 -35,78 -60,108 -9,11 -44,109 -48,122l0 0c-5,0 -6,1 -10,4 -58,39 -97,155 -184,110 -75,-39 -115,0 -159,-90 -30,-60 -87,-32 -118,-66 -41,-44 -13,-75 -51,-111 -57,-55 -1,-122 -66,-142 -35,-10 -46,-48 -46,-81 1,-47 -17,-49 -19,-81 -1,-23 77,-50 98,-59 93,-42 85,-71 146,-132 18,-18 44,-25 57,-47 12,-19 44,-6 50,1 19,23 50,27 54,32 19,27 22,27 13,62 -7,28 7,53 31,40 53,-28 62,0 115,-56 15,-16 32,24 32,25 6,29 -23,25 -41,52 -28,42 39,56 50,51 28,-11 99,-6 128,-6l0 0z"/>
  <path class="fil1 str0" d="M15375 9675l7 77c58,37 28,17 75,22 12,1 11,23 19,37 9,15 -10,41 25,56 19,9 37,38 60,48 14,6 22,35 41,49 59,44 16,75 81,138 31,29 -6,78 -17,79l-38 29 0 0c-12,7 -33,27 -47,37 -78,56 -57,28 -121,11 -56,-15 -33,-16 -71,-34 -65,-31 -50,-69 -110,-83 -44,-10 -107,8 -127,-36 -23,-50 -55,14 -60,47 -10,70 -15,67 -41,134 -5,12 -13,23 -20,35 -29,50 -22,71 37,50 75,-28 45,62 25,82 -26,26 -117,27 -151,22 -75,-12 -20,98 -20,135 0,38 -29,51 -31,80 -1,20 59,76 27,95 -7,4 -115,25 -123,24 -25,-1 -67,25 -82,9 -38,-40 -7,-35 -79,-53 -16,-5 -29,-45 -36,-54 -49,-64 -76,26 -99,-55 -22,-80 -121,-47 -155,-104 -18,-31 -38,-62 -64,-88 -28,-27 -51,-112 -51,-149 0,-55 13,-54 -20,-94 -22,-27 -64,9 -81,26 -34,34 -80,18 -79,-17 1,-57 -33,-52 -58,-72 -57,-46 -82,-26 -82,-109 0,-39 13,-47 -45,-41 -28,28 -33,42 -69,64 -33,20 -55,-18 -62,-46 -5,-21 -57,-28 -73,-18 -67,45 -79,-5 -117,6 -63,18 -38,-44 -74,-65 -49,-29 -24,-51 -56,-55 -56,-7 -76,57 -99,-32 -15,-57 -58,-3 -74,1 -44,10 7,-30 -80,27l0 0c-8,-8 -15,-14 -24,-21 -36,-27 -5,-62 -66,-74 -45,-9 -83,31 -102,2 -31,-46 -21,-56 10,-96 35,-46 16,-39 24,-65 26,-91 50,-43 61,-58 16,-22 16,-36 35,-62 14,-19 106,-33 120,-51 29,-36 -39,-29 -58,-29 -64,0 -66,-73 -143,-71 -53,1 -59,6 -81,-41 -14,-29 -2,-77 -37,-75 -36,2 -60,-16 -82,24 -31,57 -41,63 -99,43 -26,-9 -22,-14 -36,-24 -51,-36 -23,-72 -106,-11l0 0c0,0 -19,-29 -19,-29 -13,-29 -13,-35 0,-68 46,-45 91,-18 110,-73 30,-89 51,-56 65,-84 25,-49 -23,-48 -11,-115 15,-78 -44,-50 -75,-146 -20,-60 -66,-21 -84,-62 -35,-80 -35,-53 -91,-94 -21,-16 -30,-30 -45,-42 -20,-15 -21,-20 -35,-34 -33,-32 -90,-64 -111,-103 -26,-50 -10,-72 -26,-111 -11,-27 -46,-49 -69,-70 -8,-7 -21,-16 -31,-24 -49,-43 -72,-53 -60,-124 10,-57 -58,-100 -91,-152 -7,-11 -30,-72 -33,-87 -4,-21 -4,-21 -10,-42 -18,-64 -62,-58 -49,-105 8,-28 -115,-4 -137,-52 -15,-32 -61,-6 -78,11 -54,57 -61,55 -119,20 -43,-26 -51,-9 -87,29l0 0c-5,-4 -51,-10 -66,-15 -44,-14 -45,-14 -63,-55 -29,-68 -6,-75 -11,-129 -3,-28 -33,-30 -55,-31 -24,-2 -80,6 -95,-15 -17,-23 -3,-16 -26,-42 -21,-24 -41,26 -46,43 -21,86 -69,-7 -138,-7 -56,0 -23,5 -72,-16 -69,-31 -20,-52 -111,-42l0 0 37 -91c6,-11 22,-51 23,-65 3,-48 35,-57 34,-95 -1,-30 16,-63 43,-79 30,-19 57,-41 83,-66 26,-26 41,-64 56,-81 30,-35 39,-55 59,-95 15,-31 18,-78 26,-102 8,-24 7,-51 8,-75 2,-48 -26,-61 -37,-85 -14,-31 61,9 86,8 54,-2 57,-28 71,-72 13,-40 -11,-78 4,-91 30,-25 25,27 49,-50l-2 -4c-13,-52 -27,-89 -80,-108 -33,-12 -10,-74 -29,-107 -21,-34 18,-59 50,-61 55,-3 63,-43 63,-90 0,-34 -22,-141 -51,-162 -71,-50 -17,-55 -68,-126 -31,-44 -56,-178 -73,-235 -5,-16 -6,-53 -9,-71 -16,-107 47,-111 65,-173 11,-36 -1,-31 22,-80 17,-37 35,-39 22,-77 -4,-11 -34,-46 -40,-51 -12,-8 -4,-73 -29,-108 -17,-25 -4,-41 19,-34 48,15 107,-48 126,-86 2,-4 40,-105 41,-108 18,-68 -7,-21 43,-91l70 -34 0 0c-2,37 -5,89 34,85 42,-5 57,-4 97,-26 43,-24 95,4 141,-10 35,-11 137,-21 155,21 18,44 13,34 63,40 121,16 95,89 178,147 60,43 30,43 102,30 72,-13 110,7 158,60l6 5c39,94 87,106 130,187 32,61 66,61 126,83 40,15 131,9 190,28 66,9 121,31 169,77 29,27 68,47 102,71 27,20 115,73 128,97 9,15 7,53 18,77 30,63 65,79 91,160 3,10 7,24 10,32 41,52 27,59 52,104 21,39 35,81 60,119 31,48 69,175 96,233 17,37 95,105 60,142 -19,21 -64,-41 -79,-47 -19,-9 -68,56 -141,58 -26,1 -28,18 -9,37 32,32 77,115 90,161 5,17 27,56 35,83 9,29 25,65 35,97 2,7 4,8 5,16 23,53 10,37 11,73 1,47 36,89 55,139 22,60 30,89 45,152 17,68 59,69 73,166 6,47 13,97 49,129 87,78 41,58 54,156 6,45 19,41 42,78 26,42 52,55 91,78 69,2 62,1 62,68 0,28 -1,56 17,79 24,30 40,54 69,82 24,23 84,140 110,178 72,105 74,128 111,249 17,54 68,39 51,83 -17,45 -10,86 33,110 39,22 38,42 59,79 11,40 25,122 45,156 36,61 58,32 80,60 16,21 -12,48 33,96 49,53 38,47 26,116 -5,29 -61,78 -71,104 -9,22 -51,50 -29,89 24,45 -7,157 69,176 113,28 101,32 94,148 -1,9 -1,15 -1,24 7,41 19,105 68,116 81,18 169,0 246,-29 13,-5 71,-10 98,-19 33,-11 37,-10 71,-27 60,-31 17,79 65,59 16,-6 33,-25 60,-32l0 0z"/>
  <path class="fil1 str0" d="M12579 9282c83,-61 55,-25 106,11 14,10 10,15 36,24 57,20 68,14 99,-43 22,-39 46,-22 82,-24 35,-2 23,46 37,75 22,47 29,43 81,41 77,-2 79,71 143,71 19,0 87,-7 58,29 -14,18 -106,32 -120,51 -19,26 -18,40 -35,62 -11,15 -35,-33 -61,58 -8,27 11,19 -24,65 -30,40 -41,50 -10,96 19,29 57,-11 102,-2 61,12 30,46 66,74 9,7 16,13 24,21l0 0 6 44c1,8 9,16 17,19 96,42 66,47 -17,76 -28,10 -75,54 -90,53 -50,-2 -40,-38 -48,-61 -11,-30 -8,-51 4,-81 12,-30 -8,-43 -35,-54 -23,-10 -60,-37 -71,-41 -84,-31 -45,125 -22,143 43,34 13,41 28,54 20,18 16,55 21,70 10,26 -19,31 -47,44 -10,6 -33,18 -43,22 -78,29 -43,-1 -116,60 -71,60 -114,32 -137,52 -33,29 -37,59 -41,102l0 0c-26,12 -35,30 -49,53 -23,38 -44,76 -19,120 35,61 -52,43 -84,48 -28,5 -106,4 -133,-2 -48,-10 -97,7 -143,-16 -40,-21 -95,-32 -95,-86 1,-88 -37,-98 -38,-120 -5,-64 38,-70 66,-99 38,-39 54,-32 74,-51 31,-28 19,-22 17,-41 -6,-52 -18,-33 -28,-49 -11,-19 -38,-47 -41,-52 -31,-57 -80,25 -104,39 -58,34 -78,-39 -51,-78 40,-58 44,-25 15,-116 -5,-14 -21,-52 -23,-61 -12,-60 16,-77 73,-75 21,1 43,13 51,13 64,2 -51,-132 -62,-145 -62,-73 100,-43 118,-51 39,-16 103,7 54,-63 -18,-26 -35,-73 -50,-95 -73,-102 75,-17 95,-18 25,-1 54,14 61,40 3,11 23,67 37,67 30,0 68,-44 91,-42 43,4 64,-97 65,-127 1,-24 46,-41 61,-41 43,1 44,-29 50,-66l0 0z"/>
  <path class="fil1 str0" d="M13509 11598c66,7 54,3 66,51 7,25 57,9 80,6 28,-4 79,-14 106,-3 10,4 49,8 72,19 80,38 153,12 237,16 66,3 81,23 156,19 62,-4 90,-8 150,10 24,7 79,-9 111,-2 72,15 32,56 97,61 41,4 125,-40 172,-54 3,-1 5,-2 8,-3 6,-5 38,-38 46,-38 11,0 37,20 70,12 68,-16 47,-43 104,-72 16,-8 27,24 40,35 22,18 28,20 59,10 20,-6 69,-38 78,-25 41,57 124,-85 194,-15 13,13 -2,36 5,53 9,23 -1,26 35,47 6,3 11,7 17,11l32 17 0 0c51,54 51,32 69,49 26,25 49,126 48,161 -1,37 8,84 16,120 14,63 -66,71 -29,144 6,11 6,30 6,42l5 222 0 0 -69 29c-34,13 -48,53 -34,86 11,24 34,31 46,79 19,75 -47,75 -75,98 -30,24 -118,42 -107,81 20,71 43,45 4,116 -14,11 -36,40 -48,54 -3,4 -45,53 -48,55 -20,19 29,62 44,69 22,10 80,-1 101,-13 52,-28 38,-7 59,36 17,34 41,39 47,57 10,29 -6,52 -25,71 -13,13 -89,67 -89,78 2,44 -4,49 -19,90 -14,39 38,55 48,64 45,42 42,-5 72,60 6,12 28,33 38,34 26,4 86,49 77,70 -16,38 -56,27 -82,51 -22,21 -65,39 -94,41 -52,3 -84,2 -137,10 -17,-4 -41,-4 -59,-6 -28,-3 -102,5 -115,2 -39,-10 -108,10 -149,18 -43,8 -95,41 -132,43 -37,3 -39,-17 -52,-34 -52,-68 -59,43 -70,71 -31,75 -73,9 -74,107 -2,2 -15,29 -16,31 -14,39 -75,67 -93,91 -33,45 -44,46 -61,104 -8,28 3,89 -20,119 -42,57 -36,46 -59,115 -12,36 5,41 0,57 -14,49 -20,45 -61,31 -52,-18 -22,-30 -96,-15l0 0c-5,-2 -11,-1 -17,-1 -113,0 -44,-84 -76,-114 -25,-24 -80,-4 -143,-70 -28,-29 -22,-32 -31,-72 -15,-71 -61,-48 -95,-56 -30,-7 -86,31 -106,52 -28,29 -84,68 -125,69 -71,2 -92,76 -128,113 -23,24 -73,71 -101,29 -3,-5 -28,-83 -31,-92 -14,-61 -42,-26 -39,-49 1,-7 44,-58 -6,-76 -49,-18 -74,-24 -128,-16l-6 0c-52,-1 -68,-7 -69,-61 -2,-63 -67,-53 -77,-84 -22,-69 169,-89 125,-159 -56,-88 -80,-60 -108,-90 -36,-37 -111,-40 -159,-35 -63,7 -70,-98 -101,-92 -56,11 -40,56 -37,93 5,56 -15,41 -34,42 -47,1 -36,49 -155,31 -47,-7 -68,-86 -95,-32 -31,62 23,78 29,102 13,52 16,14 47,67 26,44 108,55 50,89 -17,10 -60,-1 -81,-6 -11,-2 -76,-33 -85,-41 -22,-19 -41,27 -86,24 -41,-3 -44,13 -67,47 -11,17 -85,71 -103,82 -81,47 -43,31 -129,40 -52,5 -59,-4 -91,54l0 0 -112 29c-26,4 -87,3 -111,-10 -35,-18 -58,-15 -79,-25 -29,-14 -85,20 -110,35 -23,14 -43,33 -59,42 -38,23 -53,65 -89,82 -52,24 -50,11 -92,-4 -59,-21 -89,-33 -140,14 -37,34 -51,-20 -50,-40 3,-68 -69,-58 -94,-15 -11,19 -45,54 -64,28 -26,-35 -58,-38 -65,-45 -35,-36 30,-90 15,-100 -17,-12 -46,-14 -74,-28 -35,-18 -73,-14 -101,16 -16,17 -68,46 -91,42 -59,-8 -76,56 -120,58 -39,2 -40,-1 -86,12l0 0c-6,-8 -9,-14 -16,-22 -34,-42 -23,-34 -28,-97 0,-25 5,-70 13,-94 19,-58 -49,-64 -90,-64 -68,1 -39,-80 -59,-121 -30,-63 38,-124 21,-166 -15,-37 -59,-75 -49,-118 9,-38 2,-62 -3,-98 -10,-66 41,-63 58,-80 29,-29 40,-64 -11,-76 -15,-3 -26,-18 -22,-32 8,-25 6,-78 8,-102 0,-8 1,-12 2,-19 5,-37 33,-114 49,-150 20,-48 55,-208 2,-245 -52,-37 -84,-99 -88,-162 -2,-27 11,-60 25,-83 41,-68 61,-49 83,-70 56,-50 32,-57 57,-105 20,-38 12,-22 15,-76 -10,-49 -18,-48 -42,-82 -20,-29 -43,-39 -69,-56 -40,-27 17,-75 -28,-122 -29,-30 -55,-64 -57,-108 -3,-71 -48,-83 -19,-151 9,-21 19,-38 3,-61 -34,-51 -46,-37 -47,-111l-10 -1c81,18 43,-2 92,-18 17,-6 25,34 92,11 16,-6 82,-14 73,21 -5,19 2,51 29,37 52,-27 76,20 112,20 42,0 147,-24 173,17 27,42 51,-26 106,20 40,33 56,63 115,18 32,-25 91,-23 124,-2 107,67 84,-13 146,-32l3 -1c55,4 106,15 163,17 91,3 41,58 199,17 61,-16 126,-38 191,-38 84,0 178,-73 253,-102 21,-8 64,-3 94,-13 24,-8 41,-22 72,-30 47,-12 100,-35 144,-55 85,-21 108,-31 167,36 13,14 8,14 26,31 23,21 67,27 97,22 48,-9 87,-20 134,-34 44,-12 73,-9 115,0 69,14 118,-19 180,-39 53,-18 76,51 144,-13 30,-29 75,-52 116,-36 42,17 40,12 82,38 40,25 98,-23 135,-36l0 0z"/>
  <path class="fil1 str0" d="M15375 9675l7 77c58,37 28,17 75,22 12,1 11,23 19,37 9,15 -10,41 25,56 19,9 37,38 60,48 14,6 22,35 41,49 59,44 16,75 81,138 31,29 -6,78 -17,79l-38 29 0 0c20,40 44,107 86,130 58,31 83,82 104,143 7,21 29,57 39,86 21,59 81,154 133,191 42,30 123,105 143,152 2,5 4,9 7,14 40,66 24,40 6,110 -8,29 43,106 55,143 5,16 67,118 80,131 30,31 93,113 110,151 51,114 62,123 162,196 65,48 41,26 112,50 6,2 9,5 16,7 -29,48 -22,39 -36,80 -22,63 -77,-16 -153,55 -18,17 -106,0 -141,6 -147,25 -219,17 -365,-2 -79,-10 -226,58 -295,5 -42,-32 -30,-41 -88,-39 -31,1 -22,-55 -55,-74 -11,-6 -23,-31 -57,-14 -7,4 -36,18 -41,22l0 0c51,54 51,32 69,49 26,25 49,126 48,161 -1,37 8,84 16,120 14,63 -66,71 -29,144 6,11 6,30 6,42l5 222 0 0c61,1 25,6 45,30 10,11 30,-9 54,-3 13,3 26,-4 40,1 35,13 -4,43 56,25 30,-9 67,-6 91,15 42,37 38,41 49,92 12,57 74,23 127,48 52,24 15,37 3,83 -10,38 -5,65 32,85 23,12 107,-9 129,21 12,16 -1,40 5,72 23,98 34,56 49,85 6,11 -10,54 -5,82 5,29 37,142 57,157 32,24 66,8 107,51 37,39 89,-10 151,3 44,9 79,-20 123,-34 3,-1 19,-9 22,-11l0 0c22,-25 30,-37 57,-52 19,-10 35,-37 36,-60 4,-51 67,-41 77,-87 4,-21 21,-32 27,-71 4,-29 40,-32 26,-85 -6,-24 -7,-75 22,-87 45,-19 -9,-57 36,-102l3 -3c17,-47 1,-28 1,-69 0,-22 -7,-64 -3,-77 5,-19 34,-40 42,7 4,23 11,66 41,45 31,-21 85,5 88,-52 1,-36 -61,-54 1,-103 57,-45 -11,-78 124,-136 52,-22 65,-9 127,-49 37,-24 86,-75 131,-66 62,12 81,-56 138,-80 32,-13 35,-20 69,-15 44,7 122,-44 160,-55l0 0c-10,-21 -17,-44 -21,-67 -15,-77 -73,-55 -112,-110 -23,-32 -65,-34 -101,-28 -147,25 -125,-44 -184,-70 -55,-25 -79,-43 -127,-75 -56,-37 -78,-67 -77,-136 2,-141 -40,-67 -46,-157 -2,-33 -4,-30 -23,-57 -23,-35 35,-56 54,-94 16,-33 3,-83 -3,-116 14,-75 59,-91 72,-155 28,-140 -89,-74 -112,-110 -37,-58 -66,-17 -46,-100 18,-75 59,-88 -7,-128 -59,-35 16,-133 4,-146 -23,-25 -16,-50 16,-55 72,-13 30,-79 92,-108 27,-13 30,-20 49,-37 65,-58 18,-67 21,-109 3,-45 -56,-23 -77,-8 -48,33 -62,13 -91,34 -59,45 -57,40 -81,-22l1 -7c3,-53 5,-65 35,-108 33,-49 74,-68 21,-124 -26,-28 -50,-60 -69,-93 -27,-46 -92,29 -117,37 -51,16 -69,92 -108,93 -41,1 -20,-59 -20,-89 0,-50 43,-92 4,-84 -52,11 -53,51 -67,92 -24,67 -45,-8 -53,-32 -39,-108 -119,13 -140,6 -51,-17 -32,-122 -49,-144 -40,-52 -7,-126 -80,-86 -30,16 -44,6 -48,8 -75,48 -35,74 -76,109 -106,90 -84,-26 -38,-51 51,-27 43,-5 76,-64 -7,-29 -13,-30 -38,-44 -70,-39 -87,-63 -128,-131 -31,-53 -18,-87 -71,-138 -34,-32 -55,-72 -67,-118 -12,-43 -60,-116 -57,-154 5,-58 38,-55 0,-111 -25,-38 -51,-76 -81,-112 -22,-27 -23,-92 -38,-82 -32,20 -12,141 -27,184 -4,11 -53,41 -66,48 -42,22 -44,8 -73,9 -57,2 -97,-35 -79,56 15,78 36,46 26,144l0 6c-5,36 22,68 32,100 9,27 55,74 27,75 -31,1 -54,32 -67,14 -12,-16 -8,-13 -24,-30 -16,-17 -55,3 -77,12 -15,6 -51,10 -52,20 -8,60 83,113 5,150 -19,9 -129,69 -132,70l0 0z"/>
  <path class="fil1 str0" d="M15626 10211c20,40 44,107 86,130 58,31 83,82 104,143 7,21 29,57 39,86 21,59 81,154 133,191 42,30 123,105 143,152 2,5 4,9 7,14 40,66 24,40 6,110 -8,29 43,106 55,143 5,16 67,118 80,131 30,31 93,113 110,151 51,114 62,123 162,196 65,48 41,26 112,50 6,2 9,5 16,7 -29,48 -22,39 -36,80 -22,63 -77,-16 -153,55 -18,17 -106,0 -141,6 -147,25 -219,17 -365,-2 -79,-10 -226,58 -295,5 -42,-32 -30,-41 -88,-39 -31,1 -22,-55 -55,-74 -11,-6 -23,-31 -57,-14 -7,4 -36,18 -41,22l0 0 -32 -17c-6,-4 -11,-8 -17,-11 -36,-22 -26,-24 -35,-47 -7,-17 8,-40 -5,-53 -70,-70 -154,72 -194,15 -9,-13 -58,19 -78,25 -31,9 -37,8 -59,-10 -14,-11 -24,-43 -40,-35 -58,29 -36,57 -104,72 -34,8 -59,-12 -70,-12 -8,0 -40,33 -46,38 -3,1 -5,2 -8,3 -47,14 -131,57 -172,54 -65,-6 -25,-46 -97,-61 -32,-7 -87,9 -111,2 -60,-18 -88,-14 -150,-10 -74,5 -90,-15 -156,-19 -84,-4 -156,22 -237,-16 -23,-11 -62,-15 -72,-19 -27,-11 -77,-1 -106,3 -24,3 -74,20 -80,-6 -13,-49 0,-44 -66,-51l0 0c-12,-32 -24,-71 -40,-100 -14,-27 16,-98 -23,-151 -17,-23 -36,-23 -57,-53 -27,-38 -20,-57 -23,-104 -1,-19 -4,-38 -9,-57l-1 -3c-8,-95 -27,-40 -58,-82 -18,-25 42,-78 -19,-104 -32,-14 -66,-46 -65,-85 1,-24 -11,-86 -11,-118 0,-25 5,-105 -33,-52 -22,31 -47,46 -46,-5 1,-45 -34,-100 -83,-98 -75,2 -47,-74 -157,-79 -57,-3 -145,-56 -209,-64l-8 -1 -99 -47 0 0c4,-43 8,-73 41,-102 23,-21 66,7 137,-52 73,-61 39,-31 116,-60 10,-4 33,-16 43,-22 29,-13 57,-18 47,-44 -6,-15 -1,-53 -21,-70 -15,-13 15,-21 -28,-54 -23,-18 -61,-174 22,-143 12,4 49,31 71,41 27,12 47,25 35,54 -12,31 -15,51 -4,81 8,23 -2,59 48,61 15,1 62,-44 90,-53 82,-29 112,-34 17,-76 -7,-3 -16,-11 -17,-19l-6 -44 0 0c87,-57 35,-17 80,-27 17,-4 60,-58 74,-1 23,89 43,25 99,32 32,4 7,26 56,55 36,21 10,83 74,65 37,-11 49,39 117,-6 16,-11 69,-3 73,18 6,28 29,66 62,46 36,-21 41,-35 69,-64 58,-6 45,2 45,41 0,82 25,63 82,109 25,20 60,15 58,72 -1,35 45,51 79,17 17,-17 59,-54 81,-26 33,40 20,39 20,94 0,37 23,122 51,149 26,25 45,57 64,88 34,57 133,24 155,104 23,81 50,-8 99,55 7,10 20,50 36,54 71,18 41,13 79,53 15,16 57,-11 82,-9 7,0 115,-20 123,-24 33,-19 -28,-75 -27,-95 1,-29 31,-42 31,-80 0,-36 -55,-147 20,-135 34,6 125,5 151,-22 20,-20 50,-110 -25,-82 -59,22 -66,0 -37,-50 7,-12 15,-23 20,-35 26,-67 31,-64 41,-134 5,-33 37,-97 60,-47 20,44 83,26 127,36 60,13 45,51 110,83 37,18 15,19 71,34 64,17 43,45 121,-11 14,-10 34,-30 47,-37l0 0z"/>
  <path class="fil1 str0" d="M13509 11598c-12,-32 -24,-71 -40,-100 -14,-27 16,-98 -23,-151 -17,-23 -36,-23 -57,-53 -27,-38 -20,-57 -23,-104 -1,-19 -4,-38 -9,-57l-1 -3c-8,-95 -27,-40 -58,-82 -18,-25 42,-78 -19,-104 -32,-14 -66,-46 -65,-85 1,-24 -11,-86 -11,-118 0,-25 5,-105 -33,-52 -22,31 -47,46 -46,-5 1,-45 -34,-100 -83,-98 -75,2 -47,-74 -157,-79 -57,-3 -145,-56 -209,-64l-8 -1 -99 -47 0 0c-26,12 -35,30 -49,53 -23,38 -44,76 -19,120 35,61 -52,43 -84,48 -28,5 -106,4 -133,-2 -48,-10 -97,7 -143,-16 -40,-21 -95,-32 -95,-86 1,-88 -37,-98 -38,-120 -5,-64 38,-70 66,-99 38,-39 54,-32 74,-51 31,-28 19,-22 17,-41 -6,-52 -18,-33 -28,-49 -11,-19 -38,-47 -41,-52 -31,-57 -80,25 -104,39 -58,34 -78,-39 -51,-78 40,-58 44,-25 15,-116 -5,-14 -21,-52 -23,-61 -12,-60 16,-77 73,-75 21,1 43,13 51,13 64,2 -51,-132 -62,-145 -62,-73 100,-43 118,-51 39,-16 103,7 54,-63 -18,-26 -35,-73 -50,-95 -73,-102 75,-17 95,-18 25,-1 54,14 61,40 3,11 23,67 37,67 30,0 68,-44 91,-42 43,4 64,-97 65,-127 1,-24 46,-41 61,-41 43,1 44,-29 50,-66l0 0c0,0 -19,-29 -19,-29 -13,-29 -13,-35 0,-68 46,-45 91,-18 110,-73 30,-89 51,-56 65,-84 25,-49 -23,-48 -11,-115 15,-78 -44,-50 -75,-146 -20,-60 -66,-21 -84,-62 -35,-80 -35,-53 -91,-94 -21,-16 -30,-30 -45,-42 -20,-15 -21,-20 -35,-34 -33,-32 -90,-64 -111,-103 -26,-50 -10,-72 -26,-111 -11,-27 -46,-49 -69,-70 -8,-7 -21,-16 -31,-24 -49,-43 -72,-53 -60,-124 10,-57 -58,-100 -91,-152 -7,-11 -30,-72 -33,-87 -4,-21 -4,-21 -10,-42 -18,-64 -62,-58 -49,-105 8,-28 -115,-4 -137,-52 -15,-32 -61,-6 -78,11 -54,57 -61,55 -119,20 -43,-26 -51,-9 -87,29l0 0c-2,69 12,59 13,94 1,18 -35,27 -37,61 -4,56 59,75 40,133 -5,15 -58,22 -77,15 -34,-12 -49,-1 -43,34 6,31 -6,90 -48,94 -35,3 -45,59 -90,18 -15,-13 -71,-46 -91,-33 -17,12 39,44 13,113 -22,59 14,83 -69,29 -26,-17 -29,16 -50,18 -19,2 -35,27 -12,51 62,67 -52,121 -15,206 11,25 32,69 1,91 -32,24 -109,-46 -121,-73 -12,-27 -19,-32 -30,-62 -9,-24 -34,-25 -55,-41 -49,-36 -69,-37 -129,-39 -83,-2 -111,60 -40,119 20,16 45,50 46,77 5,99 44,57 46,120 2,38 -120,-14 -120,76 0,82 -66,85 -34,155 10,22 34,38 24,74 -19,70 -34,73 6,136 24,39 134,-52 154,-74 4,-5 41,-41 43,-23 8,63 57,37 60,82 1,26 -24,35 -44,40 -26,6 -156,58 -118,94 21,20 57,-17 87,-23 9,-2 62,-9 52,12 -25,51 -32,108 -44,163 -29,137 -75,46 -168,97 -9,5 -15,14 -19,23 -23,101 6,98 3,127 -3,25 -60,53 -5,89 31,20 90,-5 115,64 13,36 16,44 34,77 9,17 31,75 16,92 -38,43 -33,78 -57,102 -25,25 -57,-41 -112,12 -70,68 -63,10 -109,-53 -42,-58 -54,-2 -123,-2 -83,0 -60,68 -100,74 -20,3 -83,-74 -82,7 1,91 -101,-13 -132,27 -22,28 -26,34 -54,58 -16,13 -73,63 -86,66 -33,8 -53,-6 -80,43 -27,49 -39,43 -76,84l-9 10c-72,53 -64,82 -82,160 -6,25 -39,79 -70,78 -50,-2 -71,-2 -117,-30 -25,-16 -29,-45 -58,-73 -18,-17 -15,-28 -47,-51 -33,-25 -40,-49 -94,-49 -54,0 -38,74 -133,116 -46,20 -59,-26 -103,-16 -11,3 -88,4 -100,2 -42,-8 -85,-34 -120,16 -25,36 -27,49 -71,67 -37,15 -98,10 -146,28 -6,2 -7,3 -13,3l0 0c-4,11 -26,78 -18,90 19,31 46,-10 96,34 29,25 153,25 172,82 19,57 19,46 62,80 63,50 41,60 52,130 0,1 1,10 1,11l0 0c11,-5 40,-24 53,-20 1,0 34,33 41,37 32,19 53,4 82,39 32,38 0,42 71,70 39,15 75,43 74,88 -1,28 3,58 -5,88 -5,19 -6,114 39,71 44,-41 121,-47 177,-35 25,5 59,8 73,-17 16,-31 41,-53 75,-36 38,18 135,-25 127,79 -3,39 -11,45 24,69 39,28 28,23 75,40 65,38 57,35 104,79 25,23 102,51 137,52 6,0 14,2 20,3l-10 -1c81,18 43,-2 92,-18 17,-6 25,34 92,11 16,-6 82,-14 73,21 -5,19 2,51 29,37 52,-27 76,20 112,20 42,0 147,-24 173,17 27,42 51,-26 106,20 40,33 56,63 115,18 32,-25 91,-23 124,-2 107,67 84,-13 146,-32l3 -1c55,4 106,15 163,17 91,3 41,58 199,17 61,-16 126,-38 191,-38 84,0 178,-73 253,-102 21,-8 64,-3 94,-13 24,-8 41,-22 72,-30 47,-12 100,-35 144,-55 85,-21 108,-31 167,36 13,14 8,14 26,31 23,21 67,27 97,22 48,-9 87,-20 134,-34 44,-12 73,-9 115,0 69,14 118,-19 180,-39 53,-18 76,51 144,-13 30,-29 75,-52 116,-36 42,17 40,12 82,38 40,25 98,-23 135,-36l0 0z"/>
  <path class="fil1 str0" d="M16694 13293c22,-25 30,-37 57,-52 19,-10 35,-37 36,-60 4,-51 67,-41 77,-87 4,-21 21,-32 27,-71 4,-29 40,-32 26,-85 -6,-24 -7,-75 22,-87 45,-19 -9,-57 36,-102l3 -3c17,-47 1,-28 1,-69 0,-22 -7,-64 -3,-77 5,-19 34,-40 42,7 4,23 11,66 41,45 31,-21 85,5 88,-52 1,-36 -61,-54 1,-103 57,-45 -11,-78 124,-136 52,-22 65,-9 127,-49 37,-24 86,-75 131,-66 62,12 81,-56 138,-80 32,-13 35,-20 69,-15 44,7 122,-44 160,-55l0 0c11,23 25,43 45,59 29,24 36,42 57,73 20,41 24,54 58,79 16,11 26,25 51,27 2,0 17,5 20,5l0 0c14,81 41,200 124,237 105,46 34,134 120,144 39,5 51,6 79,30 17,15 78,8 79,82 1,56 -42,115 20,166 26,22 14,41 5,71 -3,9 -35,64 -40,69 -12,29 -27,81 -19,115l-1 3 0 0c-29,0 -101,-5 -128,6 -11,5 -78,-9 -50,-51 18,-27 47,-23 41,-52 0,-1 -18,-41 -32,-25 -53,56 -62,28 -115,56 -24,13 -38,-12 -31,-40 9,-35 6,-35 -13,-62 -3,-5 -34,-9 -54,-32 -6,-7 -37,-21 -50,-1 -14,22 -39,29 -57,47 -61,61 -53,90 -146,132 -21,9 -99,36 -98,59 1,33 19,34 19,81 -1,33 11,71 46,81 66,19 10,87 66,142 38,37 10,67 51,111 31,34 87,6 118,66 45,90 85,51 159,90 87,45 126,-71 184,-110 4,-3 5,-4 10,-4l0 0c15,29 35,74 43,108 8,37 59,42 80,20 5,-5 32,-21 50,-39 3,-3 100,-74 99,-45 -2,53 -11,77 -8,137 2,40 -14,118 46,96 23,-9 70,26 70,49 0,16 7,39 25,45 61,44 26,37 59,80 30,40 109,6 75,108 -8,24 -41,28 -37,104 2,42 -40,71 -37,109 1,17 68,69 14,133 -12,14 -39,15 -56,2 -15,-11 -81,-53 -65,-4 45,70 36,36 91,56 29,10 39,30 45,58 14,69 86,7 82,69 -2,25 13,64 5,98 -13,52 -20,80 -82,78 -22,-1 -44,-11 -71,10 -53,41 -12,49 23,95 15,20 7,50 -6,68 -20,26 -21,77 -27,108 -6,29 -62,36 -53,110 8,64 54,-11 113,13 27,11 -6,59 6,101 1,5 2,12 4,16 6,116 13,51 91,71 25,7 47,-5 44,30 -5,55 -20,71 -56,110 -15,17 -12,8 -28,33 -30,47 -28,35 -63,63 -30,24 -154,51 -122,-46 18,-55 29,-87 -16,-128 -42,-40 13,-97 -76,-130 -13,-5 -82,-42 -91,-53 -17,-21 -67,-115 -85,-113 -24,2 7,65 -53,104 -17,11 -43,22 -63,17 -42,-12 -63,66 -105,11 -23,-29 -102,24 -132,-52 -12,-31 51,-30 42,-73 -6,-28 -74,-9 -99,24 -35,46 -58,30 -114,34l0 0 -6 -14c-4,-31 -20,-71 20,-94 68,-41 -42,-108 26,-158 32,-23 36,-32 60,-55 64,-60 -12,-119 22,-164 40,-52 54,4 62,-96 0,-35 -25,-39 -46,-54 -42,-31 -66,-10 -87,-52 -5,-10 -55,-74 -61,-78 -24,-15 22,-68 60,-58 18,4 26,-9 19,-17 -24,-30 4,-49 22,-72 22,-28 54,-29 57,-75 3,-62 3,-51 28,-109 17,-40 36,-52 4,-85 -19,-20 -90,17 -109,30 -54,35 -44,36 -93,84l-2 4c-20,23 -24,32 -40,57 -12,19 -29,79 -50,44 -20,-33 2,-25 -39,-69 -42,-45 -129,89 -165,91 -42,3 -27,-49 -25,-73 8,-95 -84,-77 -109,-45 -39,50 -54,9 -48,-19 6,-30 3,-54 4,-82 2,-71 -23,-56 -59,-91 -18,-18 -5,-33 -31,-47 -21,-11 -73,19 -89,26l0 0c-1,-5 -1,-6 -3,-10 -16,-40 -17,-85 -48,-112 -34,-30 -53,-49 -99,-61 -62,-17 -18,-103 -137,-100 -47,1 -27,-83 -57,-101 -38,-23 -24,-9 -67,-51 -32,-37 6,-109 -24,-142 -10,-11 -79,-3 -92,1 -48,15 -38,-58 -40,-90 -3,-45 -44,-73 -16,-108 32,-41 12,-61 -22,-95l0 0z"/>
  <path class="fil1 str0" d="M14215 14538c10,86 2,41 -14,101 -9,32 53,70 67,92l0 0c11,1 57,10 73,9 18,-1 74,-33 84,-53 13,-26 30,18 42,30 15,15 42,87 75,66 26,-16 75,-124 113,-93 10,8 54,30 64,7 25,-59 33,-4 83,-32 22,-12 17,-4 39,-24 32,-29 53,-13 95,-53 21,-20 90,-63 119,-65 25,-2 35,19 46,41 5,12 -18,108 51,25 27,-32 8,-33 62,-37 56,-4 32,21 90,36 47,13 11,93 69,73 59,-20 103,-6 163,-6 11,4 57,12 57,30 0,40 -44,53 -3,109 29,40 24,182 33,193 8,11 29,19 38,44 16,42 61,74 70,120 6,31 34,51 65,25 39,-33 70,-33 109,-5 26,19 46,13 60,62 16,57 65,45 97,6 9,-11 46,-48 56,-25 17,38 38,4 62,23 12,10 -39,126 27,75 1,-1 133,-70 135,-71 46,-18 49,26 54,4 4,-15 -32,-114 60,-88 23,7 100,55 117,-2 6,-18 -2,-88 -12,-106 -25,-44 -32,-52 -9,-98 36,-71 -56,-72 15,-166 4,-6 4,-5 6,-12 6,-45 34,-289 66,-103 4,20 21,62 45,42 21,-17 -3,-100 66,-114 2,0 81,-32 84,-33 43,-20 84,-28 129,-39 64,-16 83,-81 115,-135 56,-95 27,-38 92,-72 43,-22 60,-85 130,-119l4 -1 -6 -37 0 0c-1,-5 -1,-6 -3,-10 -16,-40 -17,-85 -48,-112 -34,-30 -53,-49 -99,-61 -62,-17 -18,-103 -137,-100 -47,1 -27,-83 -57,-101 -38,-23 -24,-9 -67,-51 -32,-37 6,-109 -24,-142 -10,-11 -79,-3 -92,1 -48,15 -38,-58 -40,-90 -3,-45 -44,-73 -16,-108 32,-41 12,-61 -22,-95l0 0c-2,2 -18,10 -22,11 -44,14 -79,43 -123,34 -62,-13 -114,36 -151,-3 -41,-43 -75,-27 -107,-51 -20,-15 -52,-129 -57,-157 -5,-29 11,-71 5,-82 -15,-28 -26,14 -49,-85 -6,-31 7,-56 -5,-72 -22,-30 -106,-9 -129,-21 -37,-20 -42,-47 -32,-85 12,-47 49,-60 -3,-83 -53,-24 -115,9 -127,-48 -11,-51 -7,-55 -49,-92 -24,-21 -61,-25 -91,-15 -59,18 -21,-12 -56,-25 -13,-5 -27,2 -40,-1 -24,-6 -45,14 -54,3 -20,-24 15,-30 -45,-30l0 0 -69 29c-34,13 -48,53 -34,86 11,24 34,31 46,79 19,75 -47,75 -75,98 -30,24 -118,42 -107,81 20,71 43,45 4,116 -14,11 -36,40 -48,54 -3,4 -45,53 -48,55 -20,19 29,62 44,69 22,10 80,-1 101,-13 52,-28 38,-7 59,36 17,34 41,39 47,57 10,29 -6,52 -25,71 -13,13 -89,67 -89,78 2,44 -4,49 -19,90 -14,39 38,55 48,64 45,42 42,-5 72,60 6,12 28,33 38,34 26,4 86,49 77,70 -16,38 -56,27 -82,51 -22,21 -65,39 -94,41 -52,3 -84,2 -137,10 -17,-4 -41,-4 -59,-6 -28,-3 -102,5 -115,2 -39,-10 -108,10 -149,18 -43,8 -95,41 -132,43 -37,3 -39,-17 -52,-34 -52,-68 -59,43 -70,71 -31,75 -73,9 -74,107 -2,2 -15,29 -16,31 -14,39 -75,67 -93,91 -33,45 -44,46 -61,104 -8,28 3,89 -20,119 -42,57 -36,46 -59,115 -12,36 5,41 0,57 -14,49 -20,45 -61,31 -52,-18 -22,-30 -96,-15l0 0z"/>
  <path class="fil1 str0" d="M10229 16932c-130,82 -55,70 -52,114 2,35 -9,20 -21,53 -31,85 -58,59 -67,81 -1,2 7,77 17,83 34,23 -9,78 -44,81 -20,2 -55,64 -76,78 -26,19 -24,34 -70,51 -92,34 -70,-19 -119,-3 -30,10 -21,41 -111,41 -16,0 -100,1 -107,12 -29,45 19,73 31,124 5,20 1,65 2,90l0 4c2,21 -1,61 16,75 7,6 74,5 12,70 -25,26 -29,28 -48,64 -12,23 -29,28 -23,65 4,27 40,28 53,70 25,83 91,-4 155,2 26,2 -39,86 -48,94 -63,60 22,94 -23,130 -24,19 -26,96 -88,34 -18,-18 -51,-24 -55,11 -5,44 -21,67 -55,93 -30,22 -28,10 -61,-18 -34,-29 -66,1 -143,-77 -44,-44 -61,2 -94,35 -17,18 -32,44 -22,69 16,36 16,91 -16,121 -25,23 -34,68 -13,98 8,11 15,23 23,34 2,15 20,155 25,166 34,73 83,24 133,77 20,22 46,79 40,111 -24,119 -133,54 -172,123 -5,8 -4,57 2,63l0 0c6,0 11,3 17,8 14,14 70,20 97,53 4,5 -5,56 -5,72 0,36 4,166 40,182 49,23 42,39 60,85 14,38 62,55 63,134 1,43 24,136 -27,161 -60,30 -136,-115 -191,38 -20,55 -7,57 -4,116 22,21 30,28 52,42 30,20 -6,108 -23,116 -41,20 -73,-23 -69,33 2,37 -12,19 -54,38 -26,12 -91,3 -54,63 23,38 5,30 43,47 82,37 -26,141 51,213 43,40 131,-10 170,55 40,66 46,36 74,65 18,18 30,49 10,71 -29,31 -63,65 -22,101 10,9 15,14 22,26 25,71 31,46 22,109 -1,6 -7,93 12,78 27,-23 52,-14 88,-19 58,-9 81,18 127,-40 45,-58 35,-27 102,-40 13,-2 104,3 79,-34 -32,-46 86,-97 9,-174 -31,-31 -60,-24 -58,-66 0,-14 -81,-17 -43,-83 22,-38 -13,-68 36,-58 54,12 78,-27 106,-64 11,-14 13,-61 19,-85 1,-5 1,-7 1,-11 57,-68 50,-122 79,-155 30,-35 41,61 95,73 27,6 31,-23 15,-48 -13,-22 -40,-94 -35,-119 9,-43 4,-81 45,-99 26,-12 0,-24 62,-18 66,6 12,-44 46,-36 21,5 93,-6 71,-45 -34,-60 -5,-85 44,-120 37,-26 35,-26 44,-77 7,-43 8,-149 70,-148 38,0 75,-14 100,-43 4,-5 13,-13 18,-18 1,0 79,-11 82,-13 14,-9 41,-37 31,-57 -38,-75 2,-146 41,-92 26,36 80,44 112,84 10,13 37,26 53,49 33,46 81,4 125,111 12,29 44,59 65,20 30,-56 35,-48 101,-48 11,0 80,10 87,15 21,13 43,140 72,166 48,44 87,-39 172,-27 47,7 74,17 120,-7 24,-12 24,-46 32,-74 22,-79 39,-115 128,-100 77,13 84,-19 143,57 16,20 113,116 136,72 11,-22 16,-65 24,-90 24,-63 31,-50 28,-118 -3,-68 39,-158 108,-176 17,-5 31,-2 43,5l0 0c8,-19 17,-35 44,-40 55,-12 126,-48 129,-112 1,-36 -2,-78 -31,-102 -82,-67 -10,-70 -34,-150 -27,-89 31,-123 19,-149 -22,-48 -15,-41 -12,-91 2,-37 -6,-33 -27,-39 -45,-13 -56,10 -86,-33 -47,-70 -65,-33 -101,-41 -40,-9 -89,-13 -97,40 -13,84 -46,71 -102,97 -43,20 -71,2 -92,-37 -22,-42 -9,-34 -48,-84 -9,-10 -35,-21 -47,-29 -33,-21 -77,-34 -75,-77 3,-57 28,-105 28,-173 0,-37 14,-79 44,-102 43,-34 71,-93 112,-116 38,-21 94,-83 43,-117 -34,-22 -24,-23 -34,-50 -24,-63 -75,4 -102,-23 -17,-18 -42,32 -48,44 -27,47 -71,2 -64,-31 12,-56 -5,-49 -8,-74 -2,-18 3,-16 6,-32 15,-78 10,-90 -39,-161 -6,-29 -24,-45 -32,-69 -25,-71 32,-67 69,-79 35,-12 67,-40 67,-79 0,-33 -67,-57 -92,-65 -68,-21 -35,-112 -57,-128 -43,-31 -104,40 -180,11 -35,-14 -32,-21 -77,-33l0 0 -69 -11c-9,-4 -38,0 -49,0 -63,-2 -70,52 -108,22 -70,-57 -85,-6 -123,-3 -54,5 -92,-48 -118,-86 -42,-66 -31,-47 -52,-117 -6,-19 -60,-85 -74,-94 -44,-31 -42,-27 -94,-28 -54,-1 -107,25 -160,28 -68,3 -49,-14 -96,-26 -78,-20 -63,-64 -91,-87 -21,-17 -28,-10 -48,4 -27,19 -47,31 -76,53l0 0z"/>
  <path class="fil1 str0" d="M10436 14416c46,-13 48,-10 86,-12 44,-2 61,-66 120,-58 23,3 75,-26 91,-42 28,-30 66,-34 101,-16 28,14 57,16 74,28 15,11 -50,64 -15,100 7,7 39,9 65,45 20,26 53,-9 64,-28 26,-43 98,-52 94,15 -1,20 13,74 50,40 51,-47 81,-34 140,-14 42,15 40,28 92,4 36,-17 51,-59 89,-82 16,-10 36,-29 59,-42 25,-15 81,-50 110,-35 20,10 44,7 79,25 24,13 85,14 111,10l112 -29 0 0c33,38 32,33 5,71 -22,32 -40,40 -44,77 -2,20 -21,50 -44,56 -49,11 16,64 -1,77 -74,55 -61,93 -4,153 46,48 128,77 94,158 -11,27 -140,75 -121,121 5,11 8,21 12,32 38,51 30,37 67,69 34,29 -10,76 -17,122 -15,98 -135,24 -124,108 3,21 43,29 66,52 36,38 48,39 27,101 -18,55 53,91 38,160 -10,48 36,147 63,188 21,33 -9,57 -25,94 -4,9 -8,16 -12,25 -23,35 -24,38 -59,38 -28,1 -58,-10 -80,24 -19,29 37,39 37,111 0,64 -13,88 46,118 65,32 43,57 120,68 37,5 71,29 126,35 15,2 103,15 77,48 -39,48 -33,121 -90,150 -47,24 -61,48 -83,91 -23,44 -73,-8 -113,-1 -41,7 -57,2 -100,20 -23,10 -58,9 -98,27 -93,43 -131,98 -236,39 -105,-59 -64,35 -71,50 -17,35 -64,37 -92,72 -23,29 -16,36 -25,61 -2,31 -4,70 -10,100 -11,53 53,117 82,153 14,18 17,63 17,85l0 0 -69 -11c-9,-4 -38,0 -49,0 -63,-2 -70,52 -108,22 -70,-57 -85,-6 -123,-3 -54,5 -92,-48 -118,-86 -42,-66 -31,-47 -52,-117 -6,-19 -60,-85 -74,-94 -44,-31 -42,-27 -94,-28 -54,-1 -107,25 -160,28 -68,3 -49,-14 -96,-26 -78,-20 -63,-64 -91,-87 -21,-17 -28,-10 -48,4 -27,19 -47,31 -76,53l0 0c-1,-3 -6,-18 -8,-20 -38,-48 44,-75 19,-121 -10,-18 1,-74 8,-92 9,-22 7,-47 -20,-56 -59,-20 13,-128 -24,-132 -30,-4 -21,-33 -20,-67 0,-13 -1,-29 -1,-39 1,-48 -43,-50 -82,-55 -64,-7 0,-79 -42,-97 -75,-32 -137,27 -116,-64 14,-59 -29,-49 -28,-83 1,-53 61,-46 97,-53 57,-12 50,-65 12,-87 -58,-33 -42,-67 -42,-120 0,-33 40,-90 4,-99 -47,-12 -59,-4 -102,-27 -29,-16 -45,-151 -50,-178 0,-47 16,-81 -37,-101 -66,-25 -38,-55 -91,-79 -22,-10 -87,51 -93,-23 -5,-69 17,-56 -30,-110 -20,-23 37,-109 51,-121 48,-40 86,-121 110,-178l0 0c66,-40 83,-81 130,-137 33,-39 116,-144 145,-43 32,111 76,159 185,88 26,-17 78,-38 109,-53 61,-30 123,-57 160,-116 17,-26 31,-77 -3,-97 -4,-3 -44,-53 -46,-58 -8,-25 -9,-10 -9,-43l21 -54 0 0z"/>
  <path class="fil1 str0" d="M14215 14538c10,86 2,41 -14,101 -9,32 53,70 67,92l0 0c-16,29 -23,39 -27,71 -9,70 20,95 -44,159 -26,26 -89,49 -73,96 9,26 95,48 92,109 -2,41 44,86 0,117 -48,34 -45,21 -97,38 -45,14 -52,42 -75,79 -11,88 5,61 -58,111 -52,41 4,80 -29,107 -39,32 -46,120 -92,139 -25,10 -49,58 -68,73 -53,39 -127,-13 -127,5 0,14 24,32 24,86 0,60 4,60 41,105 8,10 104,34 121,36 59,6 214,-100 233,-8 17,82 60,109 138,130 47,13 130,-65 182,-62 45,2 40,82 116,46 40,-19 55,-21 97,-17 41,4 75,-43 76,2 0,8 0,10 1,18 -1,17 -7,67 25,61 18,-3 31,-33 48,4 8,17 69,36 92,49 28,16 55,18 40,67 -6,19 -19,46 -40,51 -35,8 -85,23 -96,62 -7,25 43,82 -10,110 -31,17 -13,80 -95,40 -32,-16 -68,3 -82,35 -25,61 -81,0 -103,10 -63,29 -39,93 -139,114 -40,8 -30,-27 -84,9 -33,22 -126,-21 -119,60 2,20 -8,33 -16,50 -22,59 -27,54 -53,98 -9,14 15,61 19,77 6,21 9,23 15,50 16,84 38,37 64,94 4,9 -16,21 -23,39 -7,21 32,28 55,60 19,26 -27,49 1,77 28,28 -11,100 41,74 23,-12 89,-10 88,35 -1,44 15,43 -13,92 -24,43 -42,85 -59,131 -3,9 -6,14 -11,23 0,42 12,107 -50,101 -18,-2 -123,-88 -157,-25 -12,23 14,31 -12,60 -19,21 -28,50 -32,78 -4,25 38,63 -16,92 -16,8 -54,34 -58,53 -12,63 23,32 -37,78 -14,10 -48,40 -52,56 -5,17 -14,79 -2,93 22,25 82,18 53,91 -19,48 26,116 -73,145 -32,9 -127,-53 -127,110 22,78 18,55 -7,122 -14,38 91,68 119,90 36,29 53,20 60,79 3,23 20,106 59,88 27,-12 33,-54 75,-16 46,42 16,20 71,46 63,30 -12,95 46,140 29,23 59,-6 87,-14 32,-9 45,-13 80,-20 46,-8 133,-72 159,-63 17,6 -22,82 0,124 10,19 -13,52 -22,71 -10,22 -19,46 -42,53 -13,4 -25,57 -27,70l0 0c-8,-1 -17,-1 -29,0 -46,34 -91,91 -103,148 -5,23 17,60 -43,70 -54,9 -45,54 -77,93 -23,29 -70,118 -108,112 -15,-2 -55,-57 -65,-71 -14,-19 -53,31 -60,41 -18,26 -53,58 -87,58 -33,-1 -67,20 -86,47 -35,50 -78,24 -128,14 -53,-11 -139,-2 -181,-28 -61,-37 -63,-40 -97,-107 -17,-33 -98,6 -119,21 -54,37 -49,-26 -94,-28 -43,-1 -5,-86 -88,-127 -80,-40 -79,-54 -105,-134 -9,-28 -13,-85 -18,-95 -49,-96 -147,32 -200,-9 -27,-21 -47,-15 -66,-28 -87,-61 -83,-64 -168,14 -45,41 -69,-12 -107,-32l0 0c8,-19 17,-35 44,-40 55,-12 126,-48 129,-112 1,-36 -2,-78 -31,-102 -82,-67 -10,-70 -34,-150 -27,-89 31,-123 19,-149 -22,-48 -15,-41 -12,-91 2,-37 -6,-33 -27,-39 -45,-13 -56,10 -86,-33 -47,-70 -65,-33 -101,-41 -40,-9 -89,-13 -97,40 -13,84 -46,71 -102,97 -43,20 -71,2 -92,-37 -22,-42 -9,-34 -48,-84 -9,-10 -35,-21 -47,-29 -33,-21 -77,-34 -75,-77 3,-57 28,-105 28,-173 0,-37 14,-79 44,-102 43,-34 71,-93 112,-116 38,-21 94,-83 43,-117 -34,-22 -24,-23 -34,-50 -24,-63 -75,4 -102,-23 -17,-18 -42,32 -48,44 -27,47 -71,2 -64,-31 12,-56 -5,-49 -8,-74 -2,-18 3,-16 6,-32 15,-78 10,-90 -39,-161 -6,-29 -24,-45 -32,-69 -25,-71 32,-67 69,-79 35,-12 67,-40 67,-79 0,-33 -67,-57 -92,-65 -68,-21 -35,-112 -57,-128 -43,-31 -104,40 -180,11 -35,-14 -32,-21 -77,-33l0 0c0,-22 -3,-67 -17,-85 -29,-37 -92,-101 -82,-153 6,-31 8,-70 10,-100 9,-24 2,-32 25,-61 28,-35 75,-37 92,-72 7,-15 -34,-109 71,-50 105,59 143,4 236,-39 40,-18 75,-18 98,-27 42,-18 59,-13 100,-20 40,-7 90,45 113,1 22,-43 36,-68 83,-91 57,-29 51,-102 90,-150 27,-33 -61,-46 -77,-48 -55,-6 -89,-30 -126,-35 -77,-11 -55,-36 -120,-68 -59,-29 -46,-54 -46,-118 0,-73 -56,-82 -37,-111 22,-34 52,-23 80,-24 36,-1 37,-3 59,-38 4,-9 8,-16 12,-25 16,-37 46,-61 25,-94 -27,-41 -73,-140 -63,-188 15,-69 -57,-105 -38,-160 21,-63 8,-64 -27,-101 -22,-24 -63,-32 -66,-52 -11,-84 109,-10 124,-108 7,-47 52,-93 17,-122 -38,-32 -30,-18 -67,-69 -4,-11 -7,-21 -12,-32 -20,-46 110,-94 121,-121 34,-81 -48,-110 -94,-158 -57,-60 -70,-99 4,-153 17,-12 -48,-65 1,-77 23,-5 42,-35 44,-56 3,-38 21,-46 44,-77 27,-38 28,-33 -5,-71l0 0c32,-58 39,-49 91,-54 86,-9 48,8 129,-40 18,-10 92,-65 103,-82 22,-34 26,-50 67,-47 45,3 63,-43 86,-24 8,7 74,38 85,41 21,5 64,16 81,6 58,-34 -24,-45 -50,-89 -31,-53 -34,-15 -47,-67 -6,-23 -60,-40 -29,-102 27,-54 48,25 95,32 119,18 108,-29 155,-31 19,-1 38,14 34,-42 -3,-36 -19,-82 37,-93 31,-6 37,99 101,92 48,-5 124,-2 159,35 29,30 53,2 108,90 44,70 -147,90 -125,159 10,32 75,22 77,84 1,54 17,60 69,61l6 0c54,-8 79,-2 128,16 49,18 7,69 6,76 -4,23 24,-11 39,49 2,9 27,87 31,92 28,43 78,-4 101,-29 36,-37 57,-111 128,-113 41,-1 97,-40 125,-69 20,-21 76,-59 106,-52 34,8 80,-15 95,56 8,39 3,42 31,72 63,66 118,46 143,70 32,30 -37,114 76,114 6,0 12,-1 17,1l0 0z"/>
  <path class="fil1 str0" d="M7654 13404c-13,47 -17,87 -35,134 -13,35 -13,95 -4,132 29,121 46,145 171,170 18,4 105,6 105,31 0,24 -12,42 -8,82 6,67 -14,75 -17,134 -2,33 -6,66 -12,98 -4,19 -5,62 -8,77 -7,94 43,133 41,167 -3,44 -55,86 -15,127 61,61 -8,147 128,152 29,1 89,36 89,76 0,68 -22,86 -4,163 17,71 -45,161 103,136 13,-2 27,-4 41,-4l96 -13 0 0c0,2 0,4 0,6 0,48 49,35 48,95 0,6 24,27 25,28 57,26 13,71 -31,51 -46,-22 -42,-7 -70,40 -37,62 5,71 12,92 9,29 -47,45 -2,67 39,19 78,1 91,29 20,42 39,102 36,148 -3,51 12,56 -29,103 -20,11 -61,13 -84,13 -56,0 -40,-6 -78,-25 -28,-14 -28,-20 -48,-34 -26,-18 -37,-35 -60,-52 -23,-17 -28,-42 -56,-27 -54,27 -99,-15 -125,54 -20,54 -131,38 -194,144 -10,17 -47,36 -59,31 -44,-15 -55,-61 -94,-83 -43,-24 -92,-9 -119,-24 -55,-30 -52,-8 -94,7 -28,10 -73,54 -93,31 -29,-32 -51,-52 -93,-72 -36,-18 -30,-23 -78,-34l3 1 -3 -1c-18,-15 -56,-24 -79,-29 -48,-11 -53,-4 -95,-5 -62,-1 -119,33 -147,33 -37,1 -40,-65 -35,-86 9,-35 -9,-99 -8,-133 2,-89 -45,-71 -86,-122 -40,-50 -73,-68 -2,-123l4 -5c38,-56 121,-52 128,-128 9,-89 -3,-69 -81,-58 -37,5 -79,-13 -101,-46 -44,-68 -118,-89 -189,-116 -70,-27 -19,-85 9,-123 35,-47 29,-50 51,-94 15,-30 -6,-62 -33,-77 -43,-24 -100,-56 -134,-91 -29,-30 -68,-24 -88,-68 -10,-23 -29,-41 -54,-47 -41,-10 -50,-32 -64,-73 -1,-13 -29,-60 -47,-66 -59,-21 -58,-38 -58,-102 0,-82 -86,-58 -116,-99 -40,-56 -50,-47 -113,-70 -38,-14 -77,-19 -112,-29 -31,-9 -134,-30 -165,-30 -75,0 -60,14 -140,-11l0 0 -4 -1c-52,-23 -128,3 -155,-31 -36,-45 -56,-60 -38,-122 13,-47 5,-68 9,-109 7,-59 -5,-97 -12,-157 0,-24 -3,-43 -11,-66 -13,-37 21,-64 54,-70 76,-13 84,-21 148,-58 26,-15 48,-37 66,-47 26,-15 72,-53 89,-77 38,-57 73,-47 99,-70 29,-26 50,-33 86,-46 22,-8 33,-7 47,-12 26,-9 54,-67 105,-59 33,5 79,-3 92,-39 26,-72 23,-34 51,-70 15,-19 48,-60 69,-21 31,59 41,87 119,68 6,-15 17,-46 33,-55 38,-21 67,-28 105,-3 33,23 95,5 113,9 49,11 106,-6 155,10 82,27 102,-25 157,57 32,47 40,30 75,36 54,10 62,-7 90,54 0,3 0,5 0,8 9,46 26,55 57,78 46,33 80,8 95,64 13,45 21,42 34,72 9,20 49,32 64,28 18,-5 81,-20 91,5 32,78 54,40 75,99 14,41 42,51 82,43 29,-5 62,-38 87,-13 56,56 79,59 155,45l0 0z"/>
  <path class="fil1 str0" d="M9743 14929c-24,56 -62,138 -110,178 -14,12 -71,99 -51,121 47,53 25,41 30,110 6,74 71,13 93,23 53,24 25,54 91,79 53,20 37,54 37,101 5,27 21,163 50,178 44,23 55,15 102,27 36,9 -4,66 -4,99 0,53 -16,87 42,120 38,22 45,75 -12,87 -35,7 -96,0 -97,53 0,35 42,24 28,83 -21,91 40,32 116,64 42,18 -22,89 42,97 38,4 82,7 82,55 0,11 1,27 1,39 -1,35 -10,64 20,67 37,4 -35,112 24,132 27,9 28,34 20,56 -7,18 -18,74 -8,92 25,47 -57,74 -19,121 2,2 7,17 8,20l0 0c-130,82 -55,70 -52,114 2,35 -9,20 -21,53 -31,85 -58,59 -67,81 -1,2 7,77 17,83 34,23 -9,78 -44,81 -20,2 -55,64 -76,78 -26,19 -24,34 -70,51 -92,34 -70,-19 -119,-3 -30,10 -21,41 -111,41 -16,0 -100,1 -107,12 -29,45 19,73 31,124 5,20 1,65 2,90l0 4c2,21 -1,61 16,75 7,6 74,5 12,70 -25,26 -29,28 -48,64 -12,23 -29,28 -23,65 4,27 40,28 53,70 25,83 91,-4 155,2 26,2 -39,86 -48,94 -63,60 22,94 -23,130 -24,19 -26,96 -88,34 -18,-18 -51,-24 -55,11 -5,44 -21,67 -55,93 -30,22 -28,10 -61,-18 -34,-29 -66,1 -143,-77 -44,-44 -61,2 -94,35 -17,18 -32,44 -22,69 16,36 16,91 -16,121 -25,23 -34,68 -13,98 8,11 15,23 23,34 2,15 20,155 25,166 34,73 83,24 133,77 20,22 46,79 40,111 -24,119 -133,54 -172,123 -5,8 -4,57 2,63l0 0c-19,-1 -38,20 -44,34 -24,57 -54,48 -68,65 -41,47 -12,99 -34,131 -22,33 13,52 14,80 1,18 12,45 10,51 -13,42 -70,38 -98,22 -34,-21 -45,-56 -54,-94l0 -15c0,-28 12,-61 -12,-73 -23,-11 -97,28 -127,38 -48,16 -79,-27 -73,-69 14,-101 80,-111 85,-120 22,-38 0,-51 -34,-60 -40,-11 -148,-60 -102,-115 16,-19 44,-36 66,-59 42,-43 44,-66 42,-124 -3,-70 -4,-90 -54,-144 -21,-23 -40,-57 -68,-30 -19,18 -35,34 -51,56 -44,63 -10,76 -35,137 -10,23 -92,32 -109,21 -91,-61 -96,-2 -153,57 -19,19 -56,34 -81,29 -41,-9 -115,13 -145,-22 -47,-56 -47,-79 -61,-151 -4,-22 -45,-31 -63,-33 -26,-4 -31,-4 -57,-10 -49,-11 -59,-29 -74,-74 -14,-43 -43,-106 -64,-145l-3 -10c-6,-31 -16,-44 -20,-63 -16,-75 -91,15 -113,35 -21,19 -37,16 -33,-11 21,-126 -26,-88 -45,-120 -17,-27 -45,-25 -69,-9 -82,52 -62,-2 -119,22 -55,24 -60,-15 -96,-40 -34,-23 -43,-49 -82,-58 -69,-15 2,-91 -71,-108 -110,-25 -136,47 -211,99 -47,32 -70,34 -124,34 -58,0 -106,90 -153,86 -40,-4 -17,-28 -91,-11l0 0c0,-57 -26,-95 -58,-140 -32,-44 -1,-81 35,-111 71,-61 3,-86 14,-134 7,-29 -42,-57 -58,-86 -54,-96 -6,-101 -14,-175 -5,-41 -24,-57 -57,-80 -17,-8 -51,-31 -59,-48 -39,-78 -20,-105 16,-178 37,-76 -39,-48 -81,-38 -55,14 -114,-37 -159,-64 -56,-34 -21,-80 0,-129 26,-60 5,-104 84,-127 35,-10 71,-13 107,-18 43,-6 40,-14 75,-25 11,-3 60,24 70,32 34,27 91,-8 118,-33 47,-45 73,-55 89,-120 9,-36 4,-64 -33,-81 -28,-13 -127,-53 -107,-93 16,-32 19,-11 45,-77l3 -6c8,-29 33,-90 24,-119 -36,-110 41,-107 45,-146 6,-61 9,-75 66,-107 35,-19 35,-28 19,-56 -18,-34 -114,-89 -93,-130 7,-13 54,-38 64,-45 21,-9 50,-32 75,-25 47,13 97,-6 131,-40 45,-45 -3,-58 -29,-75 -24,-16 -77,-24 -95,-33 -58,-29 -149,-33 -218,-52 -26,-7 -44,-4 -53,-6 6,-23 43,-37 56,-49 15,-14 36,-19 38,-20 13,-9 90,27 101,35 23,16 106,58 132,65 43,12 46,52 113,52 28,0 53,-45 57,-64 4,-21 68,-156 81,-176 22,-35 34,-66 52,-104l-3 -1c49,11 43,17 78,34 41,20 64,41 93,72 21,23 65,-21 93,-31 42,-15 39,-37 94,-7 27,15 76,-1 119,24 39,22 50,68 94,83 13,4 49,-14 59,-31 64,-106 174,-90 194,-144 26,-69 71,-27 125,-54 29,-14 33,11 56,27 23,17 34,34 60,52 21,14 21,20 48,34 38,19 22,25 78,25 23,0 64,-2 84,-13 41,-47 26,-53 29,-103 3,-46 -17,-107 -36,-148 -13,-29 -53,-10 -91,-29 -46,-22 11,-39 2,-67 -7,-22 -48,-30 -12,-92 28,-47 24,-62 70,-40 43,21 88,-24 31,-51 -1,-1 -25,-21 -25,-28 2,-59 -48,-47 -48,-95 0,-2 0,-4 0,-6l0 0c42,-14 60,-21 100,-29 55,-11 64,-88 92,-124 24,-30 39,-67 49,-104 9,-33 31,-35 57,-21 100,55 92,20 177,24 20,1 62,-18 62,-46 0,-55 -12,-106 -27,-158 -8,-28 13,-78 35,-99 93,-90 84,-31 164,-43 50,-8 39,38 54,77 11,27 16,37 24,66 14,53 80,66 60,171 -8,44 -34,111 0,144l4 4c82,18 53,-2 106,-35 48,-30 106,33 134,24 30,-9 36,-10 62,-33 22,-19 68,-41 94,-21 26,20 97,-12 156,50 5,5 15,14 19,17l0 0z"/>
  <path class="fil1 str0" d="M8976 11138c11,-5 40,-24 53,-20 1,0 34,33 41,37 32,19 53,4 82,39 32,38 0,42 71,70 39,15 75,43 74,88 -1,28 3,58 -5,88 -5,19 -6,114 39,71 44,-41 121,-47 177,-35 25,5 59,8 73,-17 16,-31 41,-53 75,-36 38,18 135,-25 127,79 -3,39 -11,45 24,69 39,28 28,23 75,40 65,38 57,35 104,79 25,23 102,51 137,52 6,0 14,2 20,3l0 0c1,75 12,60 47,111 15,23 5,40 -3,61 -29,68 16,80 19,151 2,44 28,78 57,108 44,47 -12,95 28,122 26,18 49,27 69,56 24,35 32,33 42,82 -2,54 5,38 -15,76 -25,48 -1,55 -57,105 -23,21 -43,2 -83,70 -14,23 -27,55 -25,83 4,63 37,126 88,162 52,37 18,197 -2,245 -16,36 -44,113 -49,150 -1,8 -2,11 -2,19 -1,24 1,77 -8,102 -4,14 7,29 22,32 51,12 40,47 11,76 -17,17 -68,14 -58,80 5,36 12,59 3,98 -10,43 34,80 49,118 17,43 -51,104 -21,166 19,41 -9,122 59,121 41,-1 110,6 90,64 -8,24 -13,69 -13,94 5,63 -6,55 28,97 7,8 10,15 16,22l0 0 -21 54c0,33 1,17 9,43 2,5 42,56 46,58 34,20 19,70 3,97 -37,59 -99,86 -160,116 -31,15 -82,36 -109,53 -110,71 -154,23 -185,-88 -29,-100 -112,4 -145,43 -47,56 -64,97 -130,137l0 0c-3,-4 -13,-12 -19,-17 -60,-62 -131,-30 -156,-50 -26,-21 -72,1 -94,21 -26,23 -32,23 -62,33 -28,9 -86,-54 -134,-24 -53,33 -23,53 -106,35l-4 -4c-34,-33 -8,-100 0,-144 19,-105 -46,-118 -60,-171 -8,-29 -13,-40 -24,-66 -15,-38 -4,-84 -54,-77 -80,12 -70,-47 -164,43 -21,21 -43,71 -35,99 15,52 27,104 27,158 0,28 -42,47 -62,46 -85,-4 -77,31 -177,-24 -26,-14 -48,-12 -57,21 -10,37 -25,73 -49,104 -28,36 -37,112 -92,124 -40,8 -58,16 -100,29l0 0 -96 13c-14,0 -27,1 -41,4 -148,25 -86,-66 -103,-136 -18,-77 4,-96 4,-163 0,-39 -60,-75 -89,-76 -136,-5 -67,-91 -128,-152 -41,-41 12,-83 15,-127 2,-34 -48,-73 -41,-167 4,-14 5,-58 8,-77 6,-33 10,-65 12,-98 3,-59 24,-67 17,-134 -4,-39 8,-58 8,-82 0,-25 -86,-27 -105,-31 -125,-25 -142,-50 -171,-170 -9,-37 -9,-97 4,-132 18,-47 22,-86 35,-134l0 0 1 -83c4,-11 1,-50 6,-64 12,-37 2,-59 34,-91 62,-62 59,-19 74,-116 9,-55 27,-114 58,-160 78,-115 -21,-108 -11,-170 19,-119 48,-56 19,-199 6,-27 26,-48 46,-66 27,-25 83,-17 114,-3 39,18 97,14 133,-9 24,-15 87,-30 115,-25 44,9 66,-30 90,-61 33,-43 39,-74 61,-116 19,-37 122,-79 154,-169 9,-25 29,-42 38,-60 24,-51 81,-50 84,-90 5,-64 43,-21 48,-59 7,-59 -20,-77 -9,-155 10,-32 -14,-97 -6,-141 5,-29 -26,-46 -50,-56 -27,-11 -51,-29 -73,-34 -45,-11 -26,-11 -56,-25 -53,-24 -89,-74 -94,-133 -3,-33 38,-62 66,-52 26,9 53,65 78,92 20,21 67,29 85,12 93,-86 -53,-91 -27,-121 44,-51 71,-6 96,-5 39,2 -2,-32 10,-51 24,-38 79,0 98,-23 28,-34 64,39 82,19 26,-29 0,-28 60,-53l0 0z"/>
  <path class="fil1 str0" d="M9780 8467c42,-79 88,-125 128,-201 37,-69 77,-176 153,-207 38,-16 47,-27 77,-49 53,-56 35,-46 102,-82 87,-47 89,9 171,-77l20 -60 0 0c-3,-2 -12,-8 -15,-11 -15,-11 -94,-94 -104,-109 -24,-39 -48,-60 -90,-79 -70,-30 -137,-88 -212,-83 -69,4 -44,-11 -79,-56 -20,-25 -103,-51 -69,-97 35,-46 47,-11 54,-94 -10,-10 -44,-11 -64,-20 -61,-27 -121,-14 -98,-106 9,-37 -48,-26 -69,-22 -52,10 -122,9 -167,32 -68,34 -51,45 -122,0 -71,-45 -55,-104 -111,-131 -79,-39 -2,-89 -34,-128 -18,-22 -64,-30 -100,-65 -22,-22 -95,-40 -122,-39 -38,1 -34,-31 -42,-44 -34,-53 -103,18 -126,6 -14,-7 -24,-8 -29,-11 -12,-6 -89,34 -101,-88 -8,-85 62,-80 -36,-129 -45,-24 -119,-56 -129,-111 -10,-54 -110,-27 -144,-17 -110,33 -98,-90 -162,-88 -61,2 -60,-37 -98,-49 -29,-9 -136,-54 -155,-55 -49,-3 -51,-34 -69,-71 -18,-37 -10,-80 -40,-93 -32,-14 -61,-18 -96,-16 -47,3 -15,-54 -70,-71 -58,-18 -37,-120 -40,-126 -16,-31 -54,51 -80,-82l-2 -4c-14,-24 -28,-56 -36,-82 -7,-22 -30,-59 -24,-76 18,-49 81,-27 105,-53 20,-22 52,-31 81,-23 25,6 78,-9 83,-31 7,-29 48,-47 74,-54 33,-9 75,-34 86,-69 37,-122 -6,-54 -77,-57 -72,-4 -69,56 -99,62 -55,10 -79,-57 -90,-99 -7,-28 -35,-72 -42,-97 -9,-31 41,-89 62,-104 53,-36 9,-127 -6,-175l-88 -106 0 0c-34,18 -73,12 -117,-13 -8,-5 -47,-1 -51,0 -49,19 -29,69 -22,106 0,37 47,75 -52,92 -47,8 -92,0 -77,52 12,42 -68,66 -98,75 -42,12 -43,83 -36,118 13,64 9,120 -53,158 -18,11 -82,21 -100,16 -34,-9 -106,8 -134,27 -80,53 -82,13 -107,15 -47,2 -17,62 -72,85 -19,8 -77,-10 -95,-19 -32,-15 -87,41 -86,71 2,70 -43,44 -89,44 -74,0 -63,-17 -131,22 -50,23 -42,43 -67,73 -29,33 -33,91 -89,97 -50,6 -12,126 -122,73 -27,-13 -59,-82 -83,-45 -39,62 -16,115 -47,178 -5,10 -42,37 -48,39 -11,29 -14,69 -49,82 -30,11 -65,28 -64,66 2,63 4,71 -7,135 -10,58 -64,44 -54,71 14,38 32,13 10,77 -14,26 -22,43 -47,62 -63,49 31,110 18,158 -18,67 -29,81 -100,97 -27,6 -91,12 -112,31 -25,22 -96,22 -98,65 -1,23 -10,47 -32,59 -65,35 -26,81 16,114 13,20 -5,89 13,103 48,35 124,59 182,73 -13,61 -29,49 -34,66 -5,16 78,-9 60,105 -8,48 39,30 38,101 -1,55 9,189 73,205 73,17 80,9 111,89 37,82 75,128 164,147 56,12 -24,33 18,90 32,43 3,97 4,150 2,96 -128,39 -158,105 -36,77 20,58 -2,103 -23,48 10,46 45,37 20,-5 87,-24 120,-12l0 0 39 -58c48,-25 28,-23 41,-54 9,-22 6,-66 36,-69 24,-2 49,-80 91,-64 166,64 33,-93 170,-60 27,6 90,45 112,33 49,-26 57,-84 87,-77 50,11 58,-74 120,-49 39,16 102,-24 161,-14 48,8 135,-53 172,-16 39,39 71,21 100,51 26,27 -41,112 60,112 57,0 51,14 95,45 19,14 84,-12 116,-14 7,-1 23,-2 30,-5 62,-26 33,-21 69,-57 9,-8 81,-81 87,-43 10,66 21,78 17,148 -4,65 66,-3 140,23 19,7 47,5 57,39 6,20 39,103 55,111 16,9 46,37 56,32 34,-17 40,-119 99,-115 41,3 55,-111 74,-52 12,39 11,167 67,63 13,-24 76,-107 107,-77 32,32 122,-42 155,35 30,70 56,-66 158,-33 51,16 116,35 167,16 46,15 35,13 56,47 18,29 27,40 35,73 13,54 52,24 78,-1 49,-47 108,10 148,-57 40,-67 64,-90 145,-86 67,3 -35,127 57,131 35,1 70,37 88,65 46,74 109,-68 221,-33 42,13 69,27 115,33 18,2 108,24 120,34l0 0z"/>
  <path class="fil1 str0" d="M7952 10689c-35,72 -3,46 41,78 26,19 32,23 54,46 11,11 45,32 61,48 14,15 65,42 89,34 65,-24 9,-85 29,-127 28,-61 53,-80 120,-82 9,0 36,15 58,17 22,2 38,8 66,8 42,0 54,2 98,-4l44 6 0 0c6,0 7,-1 13,-3 48,-17 108,-13 146,-28 44,-18 46,-31 71,-67 35,-50 78,-24 120,-16 12,2 89,0 100,-2 44,-10 57,36 103,16 95,-42 80,-116 133,-116 54,0 61,25 94,49 32,24 29,34 47,51 29,27 33,57 58,73 46,29 66,29 117,30 31,1 65,-53 70,-78 17,-78 9,-107 82,-160l9 -10c37,-41 49,-35 76,-84 27,-49 48,-34 80,-43 13,-3 70,-52 86,-66 28,-24 32,-31 54,-58 31,-39 133,64 132,-27 -1,-81 62,-4 82,-7 40,-5 17,-74 100,-74 69,0 81,-56 123,2 46,63 39,121 109,53 55,-53 88,12 112,-12 23,-23 19,-59 57,-102 15,-18 -7,-75 -16,-92 -18,-33 -21,-41 -34,-77 -25,-69 -84,-44 -115,-64 -55,-36 2,-63 5,-89 4,-29 -25,-26 -3,-127 4,-9 10,-18 19,-23 93,-51 139,40 168,-97 11,-55 19,-112 44,-163 10,-21 -43,-14 -52,-12 -31,6 -66,43 -87,23 -38,-36 93,-88 118,-94 21,-5 46,-14 44,-40 -2,-46 -52,-19 -60,-82 -2,-19 -39,18 -43,23 -20,23 -130,113 -154,74 -39,-63 -24,-66 -6,-136 10,-36 -14,-52 -24,-74 -33,-70 34,-73 34,-155 0,-91 122,-38 120,-76 -3,-63 -41,-22 -46,-120 -1,-27 -26,-60 -46,-77 -71,-59 -43,-121 40,-119 60,2 79,2 129,39 21,16 45,17 55,41 12,30 19,34 30,62 12,27 89,97 121,73 31,-23 10,-66 -1,-91 -37,-85 76,-139 15,-206 -22,-24 -7,-50 12,-51 21,-2 25,-35 50,-18 82,55 47,30 69,-29 26,-69 -30,-102 -13,-113 20,-14 76,20 91,33 46,41 56,-15 90,-18 42,-4 54,-63 48,-94 -7,-36 9,-46 43,-34 19,7 72,0 77,-15 20,-59 -43,-77 -40,-133 2,-34 38,-43 37,-61 -2,-35 -15,-25 -13,-94l0 0c-5,-4 -51,-10 -66,-15 -44,-14 -45,-14 -63,-55 -29,-68 -6,-75 -11,-129 -3,-28 -33,-30 -55,-31 -24,-2 -80,6 -95,-15 -17,-23 -3,-16 -26,-42 -21,-24 -41,26 -46,43 -21,86 -69,-7 -138,-7 -56,0 -23,5 -72,-16 -69,-31 -20,-52 -111,-42l0 0 -56 97c-9,4 -51,15 -62,16 -80,7 -64,25 -113,37 -24,6 -69,62 -77,81 -35,74 8,64 -72,144l0 0 -20 60c-82,86 -84,30 -171,77 -67,36 -49,26 -102,82 -30,22 -39,33 -77,49 -76,32 -116,139 -153,207 -41,76 -87,122 -128,201l0 0 -39 39c-7,10 -47,31 -60,37 -52,24 -64,46 -101,66 -36,20 -67,46 -99,71 -36,29 -69,142 -69,189 0,28 -56,91 -68,34 -12,-58 -73,-117 -104,-30 -12,32 -39,62 -44,77 -9,26 7,41 16,72 3,12 -57,83 -61,88l-4 8c-24,47 -53,78 -77,129 -37,83 33,83 -25,149 -35,40 -85,100 -84,157 1,45 -21,69 -66,76 -28,4 -90,-46 -134,-8 -15,13 5,112 -60,175 -32,32 -18,25 10,56 9,10 -35,29 -43,32 -52,19 -43,-13 -69,49 -2,10 -6,11 -4,25 4,29 2,27 2,53 1,60 -23,109 -82,131 -46,17 -51,56 -41,99 17,72 -6,65 -14,111 -8,45 -87,92 -128,103 -33,8 -118,73 -142,98 -101,104 -109,90 -241,134l0 0z"/>
  <path class="fil1 str0" d="M7952 10689c132,-44 140,-30 241,-134 25,-26 110,-90 142,-98 41,-11 121,-58 128,-103 8,-46 30,-39 14,-111 -10,-43 -5,-82 41,-99 59,-22 83,-72 82,-131 0,-26 2,-25 -2,-53 -2,-15 2,-15 4,-25 26,-62 18,-30 69,-49 8,-3 52,-22 43,-32 -28,-32 -42,-25 -10,-56 65,-63 45,-163 60,-175 45,-38 106,13 134,8 44,-7 66,-32 66,-76 -1,-57 49,-117 84,-157 58,-65 -13,-66 25,-149 23,-52 53,-83 77,-129l4 -8c4,-5 64,-76 61,-88 -9,-31 -25,-45 -16,-72 5,-15 32,-45 44,-77 32,-87 92,-28 104,30 12,57 68,-6 68,-34 -1,-47 33,-160 69,-189 32,-25 63,-51 99,-71 37,-20 49,-43 101,-66 12,-6 52,-27 60,-37l39 -39 0 0c-12,-10 -102,-32 -120,-34 -46,-6 -74,-20 -115,-33 -112,-34 -174,107 -221,33 -17,-28 -53,-63 -88,-65 -92,-4 10,-128 -57,-131 -81,-4 -105,19 -145,86 -40,67 -99,9 -148,57 -26,25 -65,55 -78,1 -8,-33 -17,-45 -35,-73 -21,-34 -9,-32 -56,-47 -52,19 -117,1 -167,-16 -102,-33 -128,103 -158,33 -33,-76 -123,-2 -155,-35 -30,-31 -94,53 -107,77 -56,104 -54,-24 -67,-63 -19,-59 -33,56 -74,52 -58,-5 -64,98 -99,115 -10,5 -39,-24 -56,-32 -16,-8 -49,-91 -55,-111 -10,-35 -38,-32 -57,-39 -75,-26 -144,42 -140,-23 4,-70 -7,-82 -17,-148 -6,-38 -78,34 -87,43 -36,35 -7,31 -69,57 -7,3 -22,4 -30,5 -32,2 -97,28 -116,14 -44,-32 -39,-45 -95,-45 -101,0 -34,-86 -60,-112 -30,-30 -62,-13 -100,-51 -37,-37 -124,24 -172,16 -59,-9 -122,30 -161,14 -62,-25 -70,60 -120,49 -29,-7 -37,51 -87,77 -22,12 -85,-26 -112,-33 -138,-33 -5,124 -170,60 -42,-16 -68,62 -91,64 -30,2 -27,46 -36,69 -13,32 7,29 -41,54l-39 58 0 0c11,4 19,12 19,25 0,122 57,46 85,113 30,70 53,35 94,92 19,26 5,61 -7,86 -27,14 -72,40 -33,68 15,10 68,73 56,96 -13,26 -15,26 -23,56 -12,45 -70,-14 -83,-36 -7,-12 -40,-54 -53,-30 -14,26 31,61 -71,48 -44,-6 -59,36 -80,66 -45,63 -38,121 -49,193 -8,54 -78,84 -126,84 -27,0 -60,4 -52,38 7,32 -48,120 -44,142 15,83 -63,50 -57,95 1,8 0,20 -1,28 -31,62 -28,37 -54,70 10,25 101,-1 70,34 -36,42 -30,137 -86,200 -18,20 -29,49 -14,73 53,84 97,119 0,199 -28,23 -43,55 -13,83 64,60 -20,96 1,174 39,140 -31,64 -66,130 -6,12 -1,18 2,30 34,61 18,47 26,100 2,12 5,88 6,107 2,52 20,86 74,90 17,1 108,11 116,27 3,7 0,135 3,161 6,50 35,95 88,102 30,4 101,-45 157,-50 34,-3 116,-19 100,-69 -14,-42 -28,-78 -42,-119 -9,-27 -33,-104 22,-86 78,27 132,-57 150,40 31,167 69,-83 150,-37 38,21 20,74 113,30 67,-32 40,26 71,82 49,90 53,78 11,182 -18,44 -12,69 -21,97l0 0 99 -41c51,-58 36,-83 77,-144 24,-36 74,0 104,-85 10,-29 47,-16 80,-30 39,-17 68,-61 122,-68 97,-13 48,1 101,49 41,37 23,-68 102,-93 9,-3 47,27 90,27 119,0 107,-29 199,-87 76,-48 126,-105 222,-104 12,0 22,-2 33,-3 67,-1 37,13 81,28 79,28 80,24 161,21 19,-1 44,-4 62,-4l0 0z"/>
  <path class="fil1 str0" d="M4616 14383l-42 -73c-7,-7 -48,-43 -48,-57 0,-40 29,-66 36,-106 6,-38 21,-59 26,-109 6,-62 -25,-39 8,-115 16,-37 10,-73 10,-112 0,-33 -28,-73 -62,-63 -28,8 -160,11 -184,-4 -27,-17 -58,-50 -93,-27 -24,16 28,51 33,83 9,50 39,162 -48,64 -24,-27 -42,-59 -85,-33 -32,19 -22,21 -68,13 -74,-13 -51,-12 -124,3 -49,10 -81,12 -127,-7 -38,-16 -74,-75 -101,-109l0 0c-65,53 -44,21 -81,94 -47,90 -98,55 -156,126 -28,34 -42,73 -72,105 -33,35 -48,100 -103,61 -20,-14 -71,-27 -78,6 -25,43 -16,83 -57,117 -26,21 -36,-71 -105,-36 -27,14 28,44 16,73 -21,51 -56,54 -26,114 32,64 -23,89 -52,136 -12,20 -32,20 -51,54 -28,50 -31,48 46,59 51,7 1,23 -14,66 -17,47 -63,146 -125,143 -57,-2 -70,-179 -121,-151 -37,21 10,82 -54,102 -35,11 -121,-67 -142,-27 -9,18 96,92 22,107 -23,5 -25,-13 -77,9 -37,16 -54,24 -77,59 -29,22 -49,44 -61,79 -12,35 1,125 -35,168 -22,26 -42,40 -77,26 -38,-14 -25,-160 -46,-173 -13,-8 -70,-19 -82,10 -16,37 10,86 15,125 9,66 19,40 1,114 -29,119 98,40 151,32 21,-3 76,-23 75,11 0,8 -41,32 -51,79 -18,88 -81,51 -114,131 -12,29 -3,62 -54,68 -48,6 -103,-5 -92,59 12,64 -57,102 -108,120 -39,13 -84,31 -96,75 38,25 42,33 70,55 32,25 67,3 104,79 43,88 110,126 149,232 32,85 61,113 102,187 57,101 37,205 68,309 17,55 18,132 8,189l-3 17 0 0c37,104 32,62 7,157 -21,78 -15,190 -2,269 7,44 22,70 -28,87 -24,8 -42,69 -56,95 -35,64 -78,116 -118,177 -31,49 -79,106 -130,134 -45,24 -48,46 -63,91l-2 4c-4,61 -19,82 -49,130 -11,18 -40,91 -32,112 13,33 29,64 38,99 10,39 8,47 10,86 0,3 3,14 4,18l1328 36 1435 99 331 20 0 0c-1,-3 -36,-47 -36,-50 -8,-34 -26,-59 -37,-89 -35,-98 -41,-59 -39,-180 23,-35 33,-32 71,-40 81,-17 161,14 124,-96 -5,-15 -17,-55 -22,-67 -14,-33 -95,-9 -127,-5 -41,5 -110,40 -123,-24 -13,-68 -34,-60 -58,-105 -25,-47 -77,-89 -82,-138 -5,-41 -45,-83 -82,-98 -25,-10 4,-80 11,-100 7,-20 -4,-69 21,-62 25,7 51,-3 75,-1 33,3 46,26 64,44 61,61 30,-16 10,-43 -30,-39 -53,-66 -93,-97l-3 -3c-3,-3 -6,-6 -10,-9 -89,-77 -17,-104 -60,-153 -14,-16 -126,-46 -154,-58 -41,-16 -78,-20 -49,-74 54,-101 20,-138 46,-212 27,-76 50,-170 50,-251 0,-28 -69,-10 -93,-15 -53,-12 -114,-10 -168,-10 -31,0 -80,24 -102,45 -47,44 -59,-17 -96,-18 -64,-2 -22,-92 -8,-122 2,-9 4,-14 7,-22 11,-40 79,-77 111,-46 57,56 34,-86 35,-94 12,-69 36,-63 34,-148 -1,-21 43,-80 60,-93 29,-21 50,-52 38,-89 -16,-45 -13,-88 -46,-120 -24,-23 -24,-108 -26,-140 -1,-39 -1,-47 25,-71 13,-12 76,1 93,-6 42,-17 51,23 78,27 62,9 68,-32 78,-83 8,-50 -19,-67 -66,-69 -112,-5 -155,-7 -260,-57 -28,-13 -48,-20 -76,-31 -19,-8 -225,-27 -226,-36 0,-13 53,-20 65,-20 142,0 139,-48 212,-61 55,-10 105,-30 154,-57 50,-28 135,-100 133,-164 -3,-94 -6,-76 61,-52 22,8 64,-15 80,-30 50,-45 44,-122 28,-180l-1 -5c-17,-52 78,-77 99,-98 56,-56 -13,-85 -17,-94 -26,-63 -39,-36 -78,-79 -21,-24 -23,-105 -21,-138 2,-43 -56,-81 -23,-87l0 0z"/>
  <path class="fil1 str0" d="M7130 15654c-17,37 -30,69 -52,104 -12,20 -77,155 -81,176 -4,19 -29,64 -57,64 -67,0 -71,-40 -113,-52 -26,-8 -109,-50 -132,-65 -12,-8 -88,-44 -101,-35 -2,1 -23,6 -38,20 -12,12 -50,26 -56,49 9,2 27,-1 53,6 69,19 160,23 218,52 18,9 71,17 95,33 26,17 75,30 29,75 -34,34 -84,53 -131,40 -25,-7 -54,16 -75,25 -10,7 -58,32 -64,45 -21,41 75,97 93,130 15,28 16,37 -19,56 -57,31 -60,46 -66,107 -4,39 -81,36 -45,146 10,29 -16,89 -24,119l-3 6c-26,66 -29,45 -45,77 -20,40 80,80 107,93 37,17 42,45 33,81 -17,65 -42,76 -89,120 -27,26 -84,60 -118,33 -10,-8 -59,-35 -70,-32 -35,10 -31,19 -75,25 -36,5 -72,7 -107,18 -79,24 -59,67 -84,127 -21,49 -56,95 0,129 45,27 104,79 159,64 41,-11 117,-39 81,38 -35,73 -55,100 -16,178 9,17 42,40 59,48 33,23 52,40 57,80 8,74 -40,79 14,175 16,29 65,57 58,86 -11,48 57,73 -14,134 -35,30 -67,67 -35,111 32,44 58,83 58,140l0 0c-36,8 -41,-37 -108,0 -73,40 -87,87 -159,128 -3,0 -11,5 -13,7 -79,53 -62,55 -80,144 -13,67 39,96 -90,71 -33,-7 -71,-24 -99,-31 -63,-14 -53,-16 -108,-41 -52,-23 -114,-84 -167,-71 -71,17 -39,-44 -78,-58 -31,-12 -32,-42 -60,-50 -63,-18 -29,-65 -85,4l0 0 -451 -27 0 0c-1,-3 -36,-47 -36,-50 -8,-34 -26,-59 -37,-89 -35,-98 -41,-59 -39,-180 23,-35 33,-32 71,-40 81,-17 161,14 124,-96 -5,-15 -17,-55 -22,-67 -14,-33 -95,-9 -127,-5 -41,5 -110,40 -123,-24 -13,-68 -34,-60 -58,-105 -25,-47 -77,-89 -82,-138 -5,-41 -45,-83 -82,-98 -25,-10 4,-80 11,-100 7,-20 -4,-69 21,-62 25,7 51,-3 75,-1 33,3 46,26 64,44 61,61 30,-16 10,-43 -30,-39 -53,-66 -93,-97l-3 -3c-3,-3 -6,-6 -10,-9 -89,-77 -17,-104 -60,-153 -14,-16 -126,-46 -154,-58 -41,-16 -78,-20 -49,-74 54,-101 20,-138 46,-212 27,-76 50,-170 50,-251 0,-28 -69,-10 -93,-15 -53,-12 -114,-10 -168,-10 -31,0 -80,24 -102,45 -47,44 -59,-17 -96,-18 -64,-2 -22,-92 -8,-122 2,-9 4,-14 7,-22 11,-40 79,-77 111,-46 57,56 34,-86 35,-94 12,-69 36,-63 34,-148 -1,-21 43,-80 60,-93 29,-21 50,-52 38,-89 -16,-45 -13,-88 -46,-120 -24,-23 -24,-108 -26,-140 -1,-39 -1,-47 25,-71 13,-12 76,1 93,-6 42,-17 51,23 78,27 62,9 68,-32 78,-83 8,-50 -19,-67 -66,-69 -112,-5 -155,-7 -260,-57 -28,-13 -48,-20 -76,-31 -19,-8 -225,-27 -226,-36 0,-13 53,-20 65,-20 142,0 139,-48 212,-61 55,-10 105,-30 154,-57 50,-28 135,-100 133,-164 -3,-94 -6,-76 61,-52 22,8 64,-15 80,-30 50,-45 44,-122 28,-180l-1 -5c-17,-52 78,-77 99,-98 56,-56 -13,-85 -17,-94 -26,-63 -39,-36 -78,-79 -21,-24 -23,-105 -21,-138 2,-43 -56,-81 -23,-87l0 0c40,-8 82,-31 108,-36 15,-3 79,-27 92,-34 33,-18 52,5 67,-7 15,-12 3,-68 2,-82 17,-13 80,-28 98,-44 49,-43 71,17 110,49 34,28 18,-38 55,-75 7,-7 81,-48 94,-53 54,-25 47,-19 15,-66 -7,-10 -42,-95 -41,-100 7,-43 80,-32 103,-38 35,-9 37,-1 55,-43l0 0c80,24 66,11 140,11 31,0 134,21 165,30 35,11 74,15 112,29 62,23 73,14 113,70 30,42 116,18 116,99 0,65 -2,82 58,102 18,6 45,53 47,66 15,41 24,63 64,73 25,6 44,25 54,47 19,43 59,37 88,68 34,35 91,68 134,91 27,15 48,47 33,77 -22,44 -16,47 -51,94 -28,38 -80,96 -9,123 72,27 145,48 189,116 21,33 63,51 101,46 78,-11 90,-31 81,58 -7,76 -90,72 -128,128l-4 5c-72,55 -38,73 2,123 41,51 88,34 86,122 -1,34 18,98 8,133 -5,21 -2,86 35,86 28,-1 85,-34 147,-33 42,1 47,-6 95,5 22,5 61,15 79,29l3 1 0 0z"/>
  <path class="fil1 str0" d="M7952 10689c-35,72 -3,46 41,78 26,19 32,23 54,46 11,11 45,32 61,48 14,15 65,42 89,34 65,-24 9,-85 29,-127 28,-61 53,-80 120,-82 9,0 36,15 58,17 22,2 38,8 66,8 42,0 54,2 98,-4l44 6 0 0c-4,11 -26,78 -18,90 19,31 46,-10 96,34 29,25 153,25 172,82 19,57 19,46 62,80 63,50 41,60 52,130 0,1 1,10 1,11l0 0c-61,25 -35,24 -60,53 -18,20 -54,-53 -82,-19 -19,23 -74,-16 -98,23 -11,18 29,53 -10,51 -25,-1 -53,-46 -96,5 -26,31 121,35 27,121 -18,17 -65,9 -85,-12 -26,-27 -53,-83 -78,-92 -27,-10 -68,20 -66,52 5,59 41,108 94,133 30,14 11,14 56,25 22,5 46,24 73,34 24,9 55,27 50,56 -8,44 16,109 6,141 -11,78 17,96 9,155 -5,39 -43,-5 -48,59 -3,41 -60,39 -84,90 -9,18 -29,35 -38,60 -32,90 -135,132 -154,169 -22,43 -28,73 -61,116 -24,31 -46,71 -90,61 -27,-6 -91,9 -115,25 -36,23 -93,28 -133,9 -31,-15 -87,-22 -114,3 -20,18 -40,39 -46,66 29,143 0,80 -19,199 -10,62 89,54 11,170 -31,46 -49,105 -58,160 -16,97 -12,54 -74,116 -32,32 -22,54 -34,91 -4,13 -2,52 -6,64l-1 83 0 0c-75,14 -99,11 -155,-45 -25,-25 -58,8 -87,13 -40,7 -67,-3 -82,-43 -21,-59 -43,-22 -75,-99 -10,-25 -73,-11 -91,-5 -14,4 -55,-7 -64,-28 -13,-30 -21,-27 -34,-72 -16,-55 -49,-30 -95,-64 -32,-23 -48,-32 -57,-78 -1,-3 0,-5 0,-8 -28,-61 -36,-44 -90,-54 -35,-7 -43,11 -75,-36 -55,-82 -75,-30 -157,-57 -49,-16 -106,1 -155,-10 -19,-4 -80,13 -113,-9 -38,-25 -67,-19 -105,3 -15,9 -26,40 -33,55 -78,19 -88,-10 -119,-68 -21,-39 -54,2 -69,21 -28,36 -26,-2 -51,70 -13,36 -59,44 -92,39 -51,-8 -78,50 -105,59 -15,5 -25,4 -47,12 -36,13 -57,20 -86,46 -26,24 -61,13 -99,70 -16,25 -63,62 -89,77 -18,10 -40,32 -66,47 -65,38 -72,45 -148,58 -33,6 -67,33 -54,70 8,22 11,42 11,66 7,60 18,98 12,157 -5,41 4,62 -9,109 -17,62 2,77 38,122 27,34 103,8 155,31l4 1 0 0c-18,42 -20,34 -55,43 -23,6 -96,-5 -103,38 -1,5 34,90 41,100 32,47 39,42 -15,66 -13,6 -87,46 -94,53 -37,37 -21,103 -55,75 -39,-32 -61,-93 -110,-49 -18,15 -81,31 -98,44 1,14 14,70 -2,82 -15,12 -34,-11 -67,7 -12,7 -77,31 -92,34 -26,5 -69,28 -108,36l0 0 -42 -73c-7,-7 -48,-43 -48,-57 0,-40 29,-66 36,-106 6,-38 21,-59 26,-109 6,-62 -25,-39 8,-115 16,-37 10,-73 10,-112 0,-33 -28,-73 -62,-63 -28,8 -160,11 -184,-4 -27,-17 -58,-50 -93,-27 -24,16 28,51 33,83 9,50 39,162 -48,64 -24,-27 -42,-59 -85,-33 -32,19 -22,21 -68,13 -74,-13 -51,-12 -124,3 -49,10 -81,12 -127,-7 -38,-16 -74,-75 -101,-109l0 0c73,-59 32,-190 84,-222 5,-3 10,-6 14,-8 45,-22 63,-1 102,-2 33,-1 68,16 68,-14 0,-99 77,-39 98,-39 55,2 1,-80 -5,-92 -20,-43 -22,-59 -51,-101 -11,-15 -39,-38 -36,-50 7,-39 100,-18 128,-28 47,-17 61,-21 90,-70 36,-52 -17,-58 -49,-84 -18,-15 11,-59 21,-73 32,-42 57,-55 84,-101 25,-42 7,-72 10,-105 9,-109 143,-36 178,-83 31,-43 107,74 117,-5 8,-70 75,-32 57,-72 -21,-47 -74,-62 -81,-91 -24,-94 34,-109 110,-116 31,-34 62,-58 101,-81 23,-13 78,21 109,8 40,-16 13,-52 -7,-72 -40,-40 32,-24 47,-62 17,-43 -57,-21 -57,-47 0,-66 137,-30 142,-94 1,-17 70,-12 76,-87 3,-42 29,-43 66,-48 61,-9 76,-49 134,-15 33,20 42,23 77,37 33,13 65,-36 75,-62 24,-61 81,-72 134,-99 37,-19 4,-100 -7,-122l0 -9c6,-74 1,-130 71,-173 63,-38 38,-112 89,-119 98,-13 125,102 197,108 17,2 164,-52 215,-57 104,-9 130,-10 211,-84 36,-33 50,-55 56,-75l0 0 99 -41c51,-58 36,-83 77,-144 24,-36 74,0 104,-85 10,-29 47,-16 80,-30 39,-17 68,-61 122,-68 97,-13 48,1 101,49 41,37 23,-68 102,-93 9,-3 47,27 90,27 119,0 107,-29 199,-87 76,-48 126,-105 222,-104 12,0 22,-2 33,-3 67,-1 37,13 81,28 79,28 80,24 161,21 19,-1 44,-4 62,-4l0 0z"/>
  <path class="fil1 str0" d="M10002 3676l83 61c24,19 66,41 94,57 10,6 3,21 37,32 48,16 28,85 96,43 18,-11 51,-25 72,-16 35,14 -5,58 46,73 39,11 10,76 68,62 18,-4 83,0 82,34 -1,27 -1,72 36,71 61,-1 56,-4 115,-16 65,-14 120,-7 176,30 41,27 88,29 136,29 72,3 44,7 99,33 21,10 41,16 61,30 59,40 179,-45 220,-14 13,10 19,60 27,79 14,33 -29,53 -32,97 -3,44 21,21 53,51 25,24 47,70 54,76l0 0c21,-12 47,-19 62,-23 62,-15 39,-24 65,-42 72,-49 -13,-88 77,-145 57,-36 68,-47 114,-96 55,-58 89,-76 54,-159 -21,-30 -8,-58 -17,-85 -19,-56 -33,-3 -41,-89 -4,-41 -48,-18 -74,-7 -47,19 -76,53 -81,-18 -5,-62 -39,-69 0,-132 24,-39 7,-43 19,-88 20,-73 -64,-17 -78,-46 -13,-26 45,-59 63,-68 63,-30 88,-65 155,-82 51,-13 52,-42 117,-58 52,-13 104,-26 156,-35 28,-5 70,-21 88,-23 51,-8 191,-60 229,-90 38,-31 50,-37 66,-88l3 -7c31,-76 46,-100 108,-151 29,-24 122,-45 101,-94 -33,-77 73,-32 97,-78 31,-59 52,-27 76,-54 14,-16 37,-76 44,-98 23,-79 18,-51 73,-96 24,-20 61,-48 94,-47 29,1 200,4 211,1 19,-6 40,4 50,4 97,2 34,-14 22,-41 -14,-34 -24,-37 -47,-59 -64,-63 -22,-103 -39,-122 -28,-30 -18,-24 -45,-64 0,0 -34,-71 -34,-71 -9,-31 -20,-66 -56,-74 -57,-12 -51,-44 -86,-69 -24,-18 -24,-20 -43,-38 -24,-22 -40,-61 -61,-86 -31,-37 -74,-46 -107,-72 -29,-23 -19,-18 -61,-39l0 0c-4,3 -11,6 -16,11 -42,41 -61,68 -109,104 -29,22 -50,16 -79,45 -51,53 -65,74 -131,115 -84,53 -90,49 -183,78 -5,14 -8,30 -15,43 -8,15 -22,20 -27,42 -14,64 35,37 -5,124 -3,5 -9,8 -13,12 -54,59 -78,54 -137,96 -46,32 -60,77 -117,71 -50,-5 -90,-4 -138,14 -67,24 -95,79 -177,88 -60,6 -149,-4 -201,4 -54,8 -134,72 -163,117 -25,38 -74,80 -98,118 -5,7 -10,15 -15,21 -6,33 22,161 32,196 11,40 -23,205 -80,205 -72,0 -72,-36 -108,-54 -55,-27 -22,-64 -14,-109 12,-71 -11,-69 -66,-79 -103,-18 -89,-69 -51,-148 30,-61 3,-42 -30,-34 -115,29 -80,87 -136,102 -53,14 -54,15 -102,44 -52,32 -54,10 -86,8 -17,-1 -61,-37 -69,-50 -32,-55 -147,-5 -180,-44 -29,-34 -99,-30 -140,-30 -28,0 -46,-82 -80,-21 -16,29 -22,37 -46,68l0 0c13,9 16,27 23,38 6,10 -19,62 -20,64l-2 7c-8,33 -42,88 -42,98 0,18 71,44 82,46 75,14 51,38 74,72 10,15 94,23 116,26 69,9 39,99 11,135 -55,70 -8,97 4,163 8,46 -114,95 -148,108 -46,18 -69,-37 -108,4l0 0z"/>
  <path class="fil1 str0" d="M10431 7791c80,-80 37,-70 72,-144 9,-18 53,-75 77,-81 48,-12 33,-30 113,-37 11,-1 53,-11 62,-16l56 -97 0 0 37 -91c6,-11 22,-51 23,-65 3,-48 35,-57 34,-95 -1,-30 16,-63 43,-79 30,-19 57,-41 83,-66 26,-26 41,-64 56,-81 30,-35 39,-55 59,-95 15,-31 18,-78 26,-102 8,-24 7,-51 8,-75 2,-48 -26,-61 -37,-85 -14,-31 61,9 86,8 54,-2 57,-28 71,-72 13,-40 -11,-78 4,-91 30,-25 25,27 49,-50l-2 -4c-13,-52 -27,-89 -80,-108 -33,-12 -10,-74 -29,-107 -21,-34 18,-59 50,-61 55,-3 63,-43 63,-90 0,-34 -22,-141 -51,-162 -71,-50 -17,-55 -68,-126 -31,-44 -56,-178 -73,-235 -5,-16 -6,-53 -9,-71 -16,-107 47,-111 65,-173 11,-36 -1,-31 22,-80 17,-37 35,-39 22,-77 -4,-11 -34,-46 -40,-51 -12,-8 -4,-73 -29,-108 -17,-25 -4,-41 19,-34 48,15 107,-48 126,-86 2,-4 40,-105 41,-108 18,-68 -7,-21 43,-91l70 -34 0 0c1,-14 2,-27 0,-32 -6,-22 11,-38 32,-50l0 0c-6,-6 -28,-52 -54,-76 -31,-30 -56,-7 -53,-51 3,-44 46,-64 32,-97 -8,-19 -14,-70 -27,-79 -40,-31 -161,53 -220,14 -20,-14 -40,-20 -61,-30 -55,-26 -27,-30 -99,-33 -48,0 -95,-2 -136,-29 -55,-37 -110,-44 -176,-30 -59,13 -54,15 -115,16 -36,1 -36,-44 -36,-71 1,-34 -63,-38 -82,-34 -58,14 -29,-51 -68,-62 -52,-15 -11,-58 -46,-73 -21,-9 -54,5 -72,16 -68,42 -48,-28 -96,-43 -34,-11 -27,-26 -37,-32 -28,-16 -70,-38 -94,-57l-83 -61 0 0c-23,24 -31,42 -53,69 -17,3 -50,38 -55,55 -15,54 35,49 46,104 19,92 -96,83 -86,121 9,33 -23,66 -48,67 -39,2 -83,21 -80,68 2,42 24,27 25,88 1,23 -31,73 -48,83 -31,19 -19,-19 -64,50 35,36 13,47 -25,36 -59,-18 -117,112 -141,69 -18,-32 4,-39 -24,-79 -24,-34 -59,86 -72,46 -19,-56 44,-75 -19,-112 -11,-7 -12,-19 -8,-34 -28,1 -69,13 -63,47 5,34 2,44 2,77 0,61 -32,46 -33,84 -2,53 -57,48 -97,72 -16,10 -54,76 -82,36 -25,-37 -36,-70 -96,-54 -54,15 -50,10 -99,13 -67,4 -75,30 -104,77 -19,31 -40,56 -68,16 -29,-43 -70,-41 -91,6 -21,47 -70,4 -89,5 -56,3 -62,49 -88,70 -13,11 -58,22 -74,22 -53,2 -103,54 -154,76 -26,11 -111,-29 -136,-44 -47,-28 -13,-17 -87,-49 -9,-4 -21,-10 -30,-16 -49,-31 -88,-38 -134,-60 -66,-33 -101,-22 -145,41 -14,20 -29,34 -45,42l0 0 88 106c15,47 58,139 6,175 -21,14 -71,72 -62,104 7,25 35,70 42,97 11,42 36,109 90,99 31,-6 28,-66 99,-62 71,4 114,-65 77,57 -11,35 -52,60 -86,69 -26,7 -68,25 -74,54 -5,22 -58,37 -83,31 -29,-7 -61,2 -81,23 -25,26 -87,4 -105,53 -6,17 17,54 24,76 8,27 22,58 36,82l2 4c26,133 65,51 80,82 3,6 -18,108 40,126 55,17 22,74 70,71 35,-2 64,2 96,16 30,13 22,56 40,93 18,37 20,69 69,71 20,1 126,46 155,55 38,12 37,50 98,49 64,-2 52,121 162,88 33,-10 134,-36 144,17 10,55 84,87 129,111 98,49 28,44 36,129 11,122 88,82 101,88 6,3 16,3 29,11 23,12 92,-59 126,-6 8,13 4,45 42,44 28,-1 100,17 122,39 35,35 82,43 100,65 31,39 -45,89 34,128 55,28 40,86 111,131 70,45 54,33 122,0 45,-23 115,-21 167,-32 21,-4 78,-15 69,22 -22,92 37,79 98,106 20,9 54,10 64,20 -7,82 -20,48 -54,94 -35,46 49,72 69,97 35,44 10,59 79,56 74,-4 142,53 212,83 42,18 66,40 90,79 9,15 88,98 104,109 3,2 12,8 15,11l0 0z"/>
  <path class="fil1 str0" d="M14268 14731c11,1 57,10 73,9 18,-1 74,-33 84,-53 13,-26 30,18 42,30 15,15 42,87 75,66 26,-16 75,-124 113,-93 10,8 54,30 64,7 25,-59 33,-4 83,-32 22,-12 17,-4 39,-24 32,-29 53,-13 95,-53 21,-20 90,-63 119,-65 25,-2 35,19 46,41 5,12 -18,108 51,25 27,-32 8,-33 62,-37 56,-4 32,21 90,36 47,13 11,93 69,73 59,-20 103,-6 163,-6 11,4 57,12 57,30 0,40 -44,53 -3,109 29,40 24,182 33,193 8,11 29,19 38,44 16,42 61,74 70,120 6,31 34,51 65,25 39,-33 70,-33 109,-5 26,19 46,13 60,62 16,57 65,45 97,6 9,-11 46,-48 56,-25 17,38 38,4 62,23 12,10 -39,126 27,75 1,-1 133,-70 135,-71 46,-18 49,26 54,4 4,-15 -32,-114 60,-88 23,7 100,55 117,-2 6,-18 -2,-88 -12,-106 -25,-44 -32,-52 -9,-98 36,-71 -56,-72 15,-166 4,-6 4,-5 6,-12 6,-45 34,-289 66,-103 4,20 21,62 45,42 21,-17 -3,-100 66,-114 2,0 81,-32 84,-33 43,-20 84,-28 129,-39 64,-16 83,-81 115,-135 56,-95 27,-38 92,-72 43,-22 60,-85 130,-119l4 -1 -6 -37 0 0c16,-7 67,-37 89,-26 26,14 13,29 31,47 36,35 61,20 59,91 -1,27 3,52 -4,82 -6,28 10,68 48,19 25,-32 117,-49 109,45 -2,23 -17,76 25,73 36,-3 124,-137 165,-91 40,44 19,36 39,69 21,35 38,-25 50,-44 16,-25 20,-34 40,-57l2 -4c48,-49 39,-49 93,-84 19,-12 90,-50 109,-30 32,34 13,46 -4,85 -25,58 -25,47 -28,109 -2,46 -35,47 -57,75 -18,23 -46,42 -22,72 7,9 -1,22 -19,17 -38,-9 -84,43 -60,58 6,4 56,68 61,78 21,41 45,21 87,52 21,15 46,19 46,54 -9,100 -22,44 -62,96 -35,45 41,105 -22,164 -24,23 -29,32 -60,55 -69,50 42,117 -26,158 -39,24 -24,63 -20,94l6 14 0 0c-29,2 -57,32 -52,60 3,18 -5,36 -6,51 -42,45 -42,43 -96,60 -46,14 -97,30 -36,77 44,34 -13,117 40,145 36,19 59,-62 122,-11 17,14 31,68 20,94 -35,81 -104,13 -107,84 -4,84 -94,-10 -98,58 -2,36 -56,50 -87,45 -127,-24 -47,57 -66,82 -28,36 -60,-14 -86,27 -10,16 -57,60 -72,82 -74,108 -90,12 -118,68 -23,43 -16,56 -32,87 -42,86 -67,-23 -105,5 -8,6 -86,37 -95,37 -52,0 -45,-34 -66,-34 -18,0 -13,29 -41,28 -12,-1 -86,8 -94,13 -26,16 19,67 22,106 6,120 -46,83 -63,147 -4,17 28,11 48,-14 21,-26 45,-40 71,-69 47,-54 67,-41 100,-74 9,-9 46,-72 70,-41 20,27 -58,108 11,111 53,2 59,45 88,81 43,53 -18,69 -7,110 4,14 57,7 79,12 113,23 138,26 103,139 -7,22 4,22 -20,57 -22,33 -50,63 -89,29 -32,-28 30,-69 38,-89 9,-20 6,-39 6,-59 0,-39 -88,0 -134,-48 -20,-21 -53,80 -45,112 8,31 7,76 49,89 37,12 98,-7 97,41 -1,38 60,74 18,112 -4,4 -59,35 -68,42 -16,13 -25,24 -37,40 -26,31 -92,106 -125,131 -38,28 -61,80 -116,104 -102,44 -88,122 -143,149 -20,10 -40,-3 -70,2 -51,8 -93,33 -133,34 -55,1 31,-108 -76,-144 -83,-28 -186,7 -233,-78 -10,-19 2,-174 -27,-167 -24,6 -92,20 -99,-16 -7,-35 44,-35 -13,-66 -41,-22 -11,-53 12,-85 6,-9 24,-37 31,-44l-6 -27c0,-14 -3,-27 -7,-40 -14,-51 -56,-87 -98,-118 -13,2 -30,1 -44,1 -82,-1 -70,54 -89,83 -7,10 -61,18 -37,55 12,18 12,26 17,45 3,12 25,39 34,49 34,36 18,90 -16,121 -45,42 -23,75 -10,127 15,60 -126,18 -141,7 -45,-34 -39,7 -55,-54 -10,-39 1,-32 -1,-54 -9,-85 -95,-46 -133,-57 -26,-7 -12,20 -11,39 3,90 69,69 105,98 15,12 28,4 29,9 2,11 -75,82 -88,101 -15,21 -65,45 -91,40 -59,-11 -52,-18 -95,-46 -8,-5 -57,-47 -57,-47 -66,-23 -88,66 -133,19 -32,-34 -47,-21 -75,-50 -41,-43 -32,-27 -73,-55 -23,-16 -34,-40 -48,-58 -34,-45 -41,-33 -79,-58 -27,-18 -42,-70 -48,-63 -26,29 -16,113 4,140 30,41 -54,43 33,134 21,15 22,28 48,36 42,13 107,66 86,118 -39,95 -118,126 -142,249 -11,54 -67,103 -59,144 4,21 64,62 79,66 35,9 -19,57 -31,66 -92,74 -52,4 -97,130 -3,10 -5,14 -4,25 2,32 -3,33 -4,59 -2,52 -53,40 -52,84 4,121 -76,58 -77,104 -1,47 -71,103 -6,150 59,42 41,97 58,146 14,42 -11,72 36,72 29,0 46,31 58,23 36,-25 0,-41 73,-7 21,3 16,5 39,-1 64,-16 39,41 90,38 24,-1 1,122 0,141 -5,64 -102,41 -115,89 -19,70 -94,21 -119,21 -43,-1 -115,191 -244,143 -50,-19 -40,9 -79,38 -49,37 -24,26 -50,61 -50,68 -71,96 -123,15 -22,-34 -24,-46 -52,-48l0 0c2,-13 13,-65 27,-70 23,-8 32,-32 42,-53 9,-19 32,-52 22,-71 -23,-42 16,-118 0,-124 -25,-8 -113,55 -159,63 -35,6 -48,11 -80,20 -27,7 -58,36 -87,14 -58,-45 17,-110 -46,-140 -55,-26 -25,-4 -71,-46 -42,-38 -48,4 -75,16 -38,18 -56,-65 -59,-88 -7,-60 -24,-51 -60,-79 -28,-23 -134,-52 -119,-90 25,-68 29,-44 7,-122 0,-162 95,-100 127,-110 98,-29 53,-96 73,-145 29,-73 -32,-66 -53,-91 -12,-13 -2,-76 2,-93 5,-16 38,-46 52,-56 60,-46 25,-15 37,-78 3,-19 42,-45 58,-53 54,-29 13,-67 16,-92 4,-27 14,-57 32,-78 27,-29 0,-37 12,-60 33,-63 138,23 157,25 62,6 50,-59 50,-101 5,-9 7,-13 11,-23 17,-46 35,-88 59,-131 28,-50 12,-48 13,-92 1,-45 -65,-47 -88,-35 -52,26 -13,-45 -41,-74 -28,-28 17,-51 -1,-77 -23,-32 -62,-39 -55,-60 6,-19 27,-30 23,-39 -26,-57 -47,-10 -64,-94 -5,-27 -9,-29 -15,-50 -4,-16 -28,-63 -19,-77 27,-44 31,-38 53,-98 8,-17 17,-29 16,-50 -7,-81 86,-38 119,-60 55,-36 44,-1 84,-9 100,-21 76,-84 139,-114 21,-10 78,51 103,-10 13,-32 49,-51 82,-35 81,40 63,-23 95,-40 53,-28 4,-85 10,-110 11,-39 61,-55 96,-62 21,-5 34,-32 40,-51 16,-50 -12,-51 -40,-67 -22,-13 -84,-32 -92,-49 -17,-37 -30,-7 -48,-4 -32,6 -27,-44 -25,-61 -1,-8 -1,-10 -1,-18 -1,-45 -35,2 -76,-2 -42,-4 -56,-2 -97,17 -76,37 -70,-43 -116,-46 -52,-3 -136,74 -182,62 -79,-21 -121,-48 -138,-130 -19,-92 -174,14 -233,8 -17,-2 -113,-26 -121,-36 -37,-46 -41,-45 -41,-105 0,-54 -24,-72 -24,-86 0,-19 74,33 127,-5 20,-14 43,-62 68,-73 46,-19 53,-108 92,-139 34,-28 -23,-66 29,-107 63,-50 47,-23 58,-111 23,-37 30,-65 75,-79 52,-17 49,-3 97,-38 44,-32 -2,-76 0,-117 2,-61 -83,-83 -92,-109 -16,-47 47,-71 73,-96 64,-64 35,-89 44,-159 4,-31 11,-41 27,-71l0 0z"/>
  <path class="fil2 str1" d="M8611 10712c-4,11 -26,78 -18,90 19,31 46,-10 96,34 29,25 153,25 172,82 19,57 19,46 62,80 63,50 41,60 52,130 0,1 1,10 1,11"/>
  <path class="fil2 str1" d="M8976 11138c11,-5 40,-24 53,-20 1,0 34,33 41,37 32,19 53,4 82,39 32,38 0,42 71,70 39,15 75,43 74,88 -1,28 3,58 -5,88 -5,19 -6,114 39,71 44,-41 121,-47 177,-35 25,5 59,8 73,-17 16,-31 41,-53 75,-36 38,18 135,-25 127,79 -3,39 -11,45 24,69 39,28 28,23 75,40 65,38 57,35 104,79 25,23 102,51 137,52 6,0 14,2 20,3"/>
  <path class="fil2 str1" d="M10145 11745c1,75 12,60 47,111 15,23 5,40 -3,61 -29,68 16,80 19,151 2,44 28,78 57,108 44,47 -12,95 28,122 26,18 49,27 69,56 24,35 32,33 42,82 -2,54 5,38 -15,76 -25,48 -1,55 -57,105 -23,21 -43,2 -83,70 -14,23 -27,55 -25,83 4,63 37,126 88,162 52,37 18,197 -2,245 -16,36 -44,113 -49,150 -1,8 -2,11 -2,19 -1,24 1,77 -8,102 -4,14 7,29 22,32 51,12 40,47 11,76 -17,17 -68,14 -58,80 5,36 12,59 3,98 -10,43 34,80 49,118 17,43 -51,104 -21,166 19,41 -9,122 59,121 41,-1 110,6 90,64 -8,24 -13,69 -13,94 5,63 -6,55 28,97 7,8 10,15 16,22"/>
  <path class="fil2 str1" d="M11388 17277c45,13 42,20 77,33 76,30 136,-41 180,-11 22,15 -11,107 57,128 25,8 92,32 92,65 0,39 -33,67 -67,79 -37,12 -94,8 -69,79 9,24 26,40 32,69 49,72 54,84 39,161 -3,15 -8,13 -6,32 3,25 20,18 8,74 -7,33 38,78 64,31 7,-12 32,-61 48,-44 27,28 78,-40 102,23 10,27 1,28 34,50 51,34 -5,96 -43,117 -41,23 -69,82 -112,116 -30,23 -44,66 -44,102 0,68 -25,116 -28,173 -2,43 42,56 75,77 13,8 38,19 47,29 39,50 26,42 48,84 21,40 49,57 92,37 56,-26 88,-12 102,-97 8,-53 57,-49 97,-40 36,8 54,-29 101,41 30,44 41,20 86,33 21,6 29,2 27,39 -3,49 -10,43 12,91 12,26 -47,60 -19,149 25,80 -47,83 34,150 29,24 32,66 31,102 -2,64 -74,100 -129,112 -26,6 -36,21 -44,40"/>
  <path class="fil2 str1" d="M12569 10395c4,-43 8,-73 41,-102 23,-21 66,7 137,-52 73,-61 39,-31 116,-60 10,-4 33,-16 43,-22 29,-13 57,-18 47,-44 -6,-15 -1,-53 -21,-70 -15,-13 15,-21 -28,-54 -23,-18 -61,-174 22,-143 12,4 49,31 71,41 27,12 47,25 35,54 -12,31 -15,51 -4,81 8,23 -2,59 48,61 15,1 62,-44 90,-53 82,-29 112,-34 17,-76 -7,-3 -16,-11 -17,-19l-6 -44"/>
  <path class="fil2 str1" d="M13162 9891c87,-57 35,-17 80,-27 17,-4 60,-58 74,-1 23,89 43,25 99,32 32,4 7,26 56,55 36,21 10,83 74,65 37,-11 49,39 117,-6 16,-11 69,-3 73,18 6,28 29,66 62,46 36,-21 41,-35 69,-64 58,-6 45,2 45,41 0,82 25,63 82,109 25,20 60,15 58,72 -1,35 45,51 79,17 17,-17 59,-54 81,-26 33,40 20,39 20,94 0,37 23,122 51,149 26,25 45,57 64,88 34,57 133,24 155,104 23,81 50,-8 99,55 7,10 20,50 36,54 71,18 41,13 79,53 15,16 57,-11 82,-9 7,0 115,-20 123,-24 33,-19 -28,-75 -27,-95 1,-29 31,-42 31,-80 0,-36 -55,-147 20,-135 34,6 125,5 151,-22 20,-20 50,-110 -25,-82 -59,22 -66,0 -37,-50 7,-12 15,-23 20,-35 26,-67 31,-64 41,-134 5,-33 37,-97 60,-47 20,44 83,26 127,36 60,13 45,51 110,83 37,18 15,19 71,34 64,17 43,45 121,-11 14,-10 34,-30 47,-37"/>
  <path class="fil2 str1" d="M15445 11752c51,54 51,32 69,49 26,25 49,126 48,161 -1,37 8,84 16,120 14,63 -66,71 -29,144 6,11 6,30 6,42l5 222"/>
  <path class="fil2 str1" d="M15559 12490c61,1 25,6 45,30 10,11 30,-9 54,-3 13,3 26,-4 40,1 35,13 -4,43 56,25 30,-9 67,-6 91,15 42,37 38,41 49,92 12,57 74,23 127,48 52,24 15,37 3,83 -10,38 -5,65 32,85 23,12 107,-9 129,21 12,16 -1,40 5,72 23,98 34,56 49,85 6,11 -10,54 -5,82 5,29 37,142 57,157 32,24 66,8 107,51 37,39 89,-10 151,3 44,9 79,-20 123,-34 3,-1 19,-9 22,-11"/>
  <path class="fil2 str1" d="M16694 13293c34,35 55,55 22,95 -28,35 13,63 16,108 2,31 -8,105 40,90 13,-4 82,-12 92,-1 30,33 -8,105 24,142 43,43 29,28 67,51 30,18 10,102 57,101 119,-3 76,83 137,100 46,12 66,32 99,61 31,27 32,72 48,112 2,5 2,5 3,10"/>
  <path class="fil2 str1" d="M17300 14162c16,-7 67,-37 89,-26 26,14 13,29 31,47 36,35 61,20 59,91 -1,27 3,52 -4,82 -6,28 10,68 48,19 25,-32 117,-49 109,45 -2,23 -17,76 25,73 36,-3 124,-137 165,-91 40,44 19,36 39,69 21,35 38,-25 50,-44 16,-25 20,-34 40,-57l2 -4c48,-49 39,-49 93,-84 19,-12 90,-50 109,-30 32,34 13,46 -4,85 -25,58 -25,47 -28,109 -2,46 -35,47 -57,75 -18,23 -46,42 -22,72 7,9 -1,22 -19,17 -38,-9 -84,43 -60,58 6,4 56,68 61,78 21,41 45,21 87,52 21,15 46,19 46,54 -9,100 -22,44 -62,96 -35,45 41,105 -22,164 -24,23 -29,32 -60,55 -69,50 42,117 -26,158 -39,24 -24,63 -20,94l6 14"/>
  <path class="fil2 str1" d="M6417 11222l99 -41c51,-58 36,-83 77,-144 24,-36 74,0 104,-85 10,-29 47,-16 80,-30 39,-17 68,-61 122,-68 97,-13 48,1 101,49 41,37 23,-68 102,-93 9,-3 47,27 90,27 119,0 107,-29 199,-87 76,-48 126,-105 222,-104 12,0 22,-2 33,-3 67,-1 37,13 81,28 79,28 80,24 161,21 19,-1 44,-4 62,-4"/>
  <path class="fil2 str1" d="M7952 10689c-35,72 -3,46 41,78 26,19 32,23 54,46 11,11 45,32 61,48 14,15 65,42 89,34 65,-24 9,-85 29,-127 28,-61 53,-80 120,-82 9,0 36,15 58,17 22,2 38,8 66,8 42,0 54,2 98,-4l44 6"/>
  <path class="fil2 str1" d="M7654 13404c-75,14 -99,11 -155,-45 -25,-25 -58,8 -87,13 -40,7 -67,-3 -82,-43 -21,-59 -43,-22 -75,-99 -10,-25 -73,-11 -91,-5 -14,4 -55,-7 -64,-28 -13,-30 -21,-27 -34,-72 -16,-55 -49,-30 -95,-64 -32,-23 -48,-32 -57,-78 -1,-3 0,-5 0,-8 -28,-61 -36,-44 -90,-54 -35,-7 -43,11 -75,-36 -55,-82 -75,-30 -157,-57 -49,-16 -106,1 -155,-10 -19,-4 -80,13 -113,-9 -38,-25 -67,-19 -105,3 -15,9 -26,40 -33,55 -78,19 -88,-10 -119,-68 -21,-39 -54,2 -69,21 -28,36 -26,-2 -51,70 -13,36 -59,44 -92,39 -51,-8 -78,50 -105,59 -15,5 -25,4 -47,12 -36,13 -57,20 -86,46 -26,24 -61,13 -99,70 -16,25 -63,62 -89,77 -18,10 -40,32 -66,47 -65,38 -72,45 -148,58 -33,6 -67,33 -54,70 8,22 11,42 11,66 7,60 18,98 12,157 -5,41 4,62 -9,109 -17,62 2,77 38,122 27,34 103,8 155,31l4 1"/>
  <path class="fil2 str1" d="M5374 13854c80,24 66,11 140,11 31,0 134,21 165,30 35,11 74,15 112,29 62,23 73,14 113,70 30,42 116,18 116,99 0,65 -2,82 58,102 18,6 45,53 47,66 15,41 24,63 64,73 25,6 44,25 54,47 19,43 59,37 88,68 34,35 91,68 134,91 27,15 48,47 33,77 -22,44 -16,47 -51,94 -28,38 -80,96 -9,123 72,27 145,48 189,116 21,33 63,51 101,46 78,-11 90,-31 81,58 -7,76 -90,72 -128,128l-4 5c-72,55 -38,73 2,123 41,51 88,34 86,122 -1,34 18,98 8,133 -5,21 -2,86 35,86 28,-1 85,-34 147,-33 42,1 47,-6 95,5 22,5 61,15 79,29l3 1"/>
  <path class="fil2 str1" d="M7130 15654c-17,37 -30,69 -52,104 -12,20 -77,155 -81,176 -4,19 -29,64 -57,64 -67,0 -71,-40 -113,-52 -26,-8 -109,-50 -132,-65 -12,-8 -88,-44 -101,-35 -2,1 -23,6 -38,20 -12,12 -50,26 -56,49 9,2 27,-1 53,6 69,19 160,23 218,52 18,9 71,17 95,33 26,17 75,30 29,75 -34,34 -84,53 -131,40 -25,-7 -54,16 -75,25 -10,7 -58,32 -64,45 -21,41 75,97 93,130 15,28 16,37 -19,56 -57,31 -60,46 -66,107 -4,39 -81,36 -45,146 10,29 -16,89 -24,119l-3 6c-26,66 -29,45 -45,77 -20,40 80,80 107,93 37,17 42,45 33,81 -17,65 -42,76 -89,120 -27,26 -84,60 -118,33 -10,-8 -59,-35 -70,-32 -35,10 -31,19 -75,25 -36,5 -72,7 -107,18 -79,24 -59,67 -84,127 -21,49 -56,95 0,129 45,27 104,79 159,64 41,-11 117,-39 81,38 -35,73 -55,100 -16,178 9,17 42,40 59,48 33,23 52,40 57,80 8,74 -40,79 14,175 16,29 65,57 58,86 -11,48 57,73 -14,134 -35,30 -67,67 -35,111 32,44 58,83 58,140"/>
  <path class="fil2 str1" d="M8324 15065c42,-14 60,-21 100,-29 55,-11 64,-88 92,-124 24,-30 39,-67 49,-104 9,-33 31,-35 57,-21 100,55 92,20 177,24 20,1 62,-18 62,-46 0,-55 -12,-106 -27,-158 -8,-28 13,-78 35,-99 93,-90 84,-31 164,-43 50,-8 39,38 54,77 11,27 16,37 24,66 14,53 80,66 60,171 -8,44 -34,111 0,144l4 4c82,18 53,-2 106,-35 48,-30 106,33 134,24 30,-9 36,-10 62,-33 22,-19 68,-41 94,-21 26,20 97,-12 156,50 5,5 15,14 19,17"/>
  <path class="fil2 str1" d="M9743 14929c66,-40 83,-81 130,-137 33,-39 116,-144 145,-43 32,111 76,159 185,88 26,-17 78,-38 109,-53 61,-30 123,-57 160,-116 17,-26 31,-77 -3,-97 -4,-3 -44,-53 -46,-58 -8,-25 -9,-10 -9,-43l21 -54"/>
  <path class="fil2 str1" d="M9743 14929c-24,56 -62,138 -110,178 -14,12 -71,99 -51,121 47,53 25,41 30,110 6,74 71,13 93,23 53,24 25,54 91,79 53,20 37,54 37,101 5,27 21,163 50,178 44,23 55,15 102,27 36,9 -4,66 -4,99 0,53 -16,87 42,120 38,22 45,75 -12,87 -35,7 -96,0 -97,53 0,35 42,24 28,83 -21,91 40,32 116,64 42,18 -22,89 42,97 38,4 82,7 82,55 0,11 1,27 1,39 -1,35 -10,64 20,67 37,4 -35,112 24,132 27,9 28,34 20,56 -7,18 -18,74 -8,92 25,47 -57,74 -19,121 2,2 7,17 8,20"/>
  <path class="fil2 str1" d="M10229 16932c29,-22 50,-34 76,-53 20,-14 27,-21 48,-4 28,23 13,67 91,87 48,12 28,29 96,26 54,-3 106,-29 160,-28 52,1 50,-3 94,28 14,10 68,76 74,94 22,71 11,51 52,117 26,38 64,91 118,86 38,-3 53,-54 123,3 37,30 45,-23 108,-22 11,0 40,-4 49,0l69 11"/>
  <path class="fil2 str1" d="M10134 11743c81,18 43,-2 92,-18 17,-6 25,34 92,11 16,-6 82,-14 73,21 -5,19 2,51 29,37 52,-27 76,20 112,20 42,0 147,-24 173,17 27,42 51,-26 106,20 40,33 56,63 115,18 32,-25 91,-23 124,-2 107,67 84,-13 146,-32l3 -1c55,4 106,15 163,17 91,3 41,58 199,17 61,-16 126,-38 191,-38 84,0 178,-73 253,-102 21,-8 64,-3 94,-13 24,-8 41,-22 72,-30 47,-12 100,-35 144,-55 85,-21 108,-31 167,36 13,14 8,14 26,31 23,21 67,27 97,22 48,-9 87,-20 134,-34 44,-12 73,-9 115,0 69,14 118,-19 180,-39 53,-18 76,51 144,-13 30,-29 75,-52 116,-36 42,17 40,12 82,38 40,25 98,-23 135,-36"/>
  <path class="fil2 str1" d="M13509 11598c-12,-32 -24,-71 -40,-100 -14,-27 16,-98 -23,-151 -17,-23 -36,-23 -57,-53 -27,-38 -20,-57 -23,-104 -1,-19 -4,-38 -9,-57l-1 -3c-8,-95 -27,-40 -58,-82 -18,-25 42,-78 -19,-104 -32,-14 -66,-46 -65,-85 1,-24 -11,-86 -11,-118 0,-25 5,-105 -33,-52 -22,31 -47,46 -46,-5 1,-45 -34,-100 -83,-98 -75,2 -47,-74 -157,-79 -57,-3 -145,-56 -209,-64l-8 -1 -99 -47"/>
  <path class="fil2 str1" d="M13509 11598c66,7 54,3 66,51 7,25 57,9 80,6 28,-4 79,-14 106,-3 10,4 49,8 72,19 80,38 153,12 237,16 66,3 81,23 156,19 62,-4 90,-8 150,10 24,7 79,-9 111,-2 72,15 32,56 97,61 41,4 125,-40 172,-54 3,-1 5,-2 8,-3 6,-5 38,-38 46,-38 11,0 37,20 70,12 68,-16 47,-43 104,-72 16,-8 27,24 40,35 22,18 28,20 59,10 20,-6 69,-38 78,-25 41,57 124,-85 194,-15 13,13 -2,36 5,53 9,23 -1,26 35,47 6,3 11,7 17,11l32 17"/>
  <path class="fil2 str1" d="M7654 13404c-13,47 -17,87 -35,134 -13,35 -13,95 -4,132 29,121 46,145 171,170 18,4 105,6 105,31 0,24 -12,42 -8,82 6,67 -14,75 -17,134 -2,33 -6,66 -12,98 -4,19 -5,62 -8,77 -7,94 43,133 41,167 -3,44 -55,86 -15,127 61,61 -8,147 128,152 29,1 89,36 89,76 0,68 -22,86 -4,163 17,71 -45,161 103,136 13,-2 27,-4 41,-4l96 -13"/>
  <path class="fil2 str1" d="M15375 9675l7 77c58,37 28,17 75,22 12,1 11,23 19,37 9,15 -10,41 25,56 19,9 37,38 60,48 14,6 22,35 41,49 59,44 16,75 81,138 31,29 -6,78 -17,79l-38 29"/>
  
  
  
  
  
  
  
  
  
  
  
  
  
  
  
  
  
  
  
  
  
  
  
  <g id="_2507267436032">
   
   
   
   
   
   
   
   
   
   
   
   
   
   
  </g>
 </g>
</svg>