<svg xmlns="http://www.w3.org/2000/svg" xmlns:xlink="http://www.w3.org/1999/xlink" xml:space="preserve" width="297mm" height="210mm" version="1.1" style="shape-rendering:geometricPrecision; text-rendering:geometricPrecision; image-rendering:optimizeQuality; fill-rule:evenodd; clip-rule:evenodd" viewBox="0 0 29700 21000">
 <defs>
  <style type="text/css">
   <![CDATA[
    .str1 {stroke:black;stroke-width:10;stroke-opacity:0.501961}
    .str3 {stroke:black;stroke-width:50}
    .str5 {stroke:#434242;stroke-width:10}
    .str2 {stroke:#3F3E3F;stroke-width:10}
    .str0 {stroke:black;stroke-width:10}
    .str6 {stroke:#2B2A29;stroke-width:7.62}
    .str4 {stroke:black;stroke-width:7.62}
    .fil6 {fill:none}
    .fil0 {fill:#FEFEFE}
    .fil8 {fill:#D9DADA}
    .fil4 {fill:#FEFEFE;fill-rule:nonzero}
    .fil3 {fill:#D9DADA;fill-rule:nonzero}
    .fil7 {fill:#434242;fill-rule:nonzero}
    .fil5 {fill:#2B2A29;fill-rule:nonzero}
    .fil2 {fill:black;fill-rule:nonzero}
    .fil1 {fill:#FEFEFE;fill-rule:nonzero;fill-opacity:0.501961}
   ]]>
  </style>
 </defs>
 <g id="Plan_x0020_1">
  <metadata id="CorelCorpID_0Corel-Layer"/>
  <rect class="fil0" x="1000" y="1000" width="21034" height="19000"/>
  
  
  
  
  
  
  
  
  
  <path class="fil0 str0" d="M14063 6536c18,-46 18,-99 44,-139 42,-66 160,-73 182,-163 14,-53 11,-123 11,-179 61,0 94,29 128,-60 83,-219 186,-30 259,35 70,62 72,147 181,108 71,-25 99,38 159,49 54,10 181,-62 239,-82 167,-58 -26,-168 42,-225 31,-43 44,-91 98,-115 25,-11 45,-16 71,-23 35,-10 85,-35 120,-46l0 0c-17,-50 -64,-24 -82,-58 -26,-50 -52,-88 -70,-144 -21,-66 -136,-71 -153,-130l-36 -121c-7,-29 -17,-84 -33,-109 -16,-26 -50,-61 -57,-90 -17,-62 29,-122 -4,-167 -42,-59 -21,-32 -10,-96 8,-47 -29,-57 -28,-89l0 0 -100 -74c-78,-44 -88,73 -150,113 -84,55 -99,-35 -99,-97 0,-215 -112,42 -151,42 -161,0 -45,55 -131,150 -120,132 -198,55 -354,79 -53,8 -158,22 -75,-68 72,-77 0,-85 0,-161 -19,0 -205,165 -245,121 -52,-58 -47,-126 -157,-135 -27,-2 -144,92 -182,111 -61,30 40,121 -16,168 -29,24 -84,-46 -131,-31 -111,34 -151,19 -243,93 -42,34 -88,-27 -166,15 -120,63 -196,-78 -276,-135 -72,-52 -159,91 -268,91 -68,-18 -109,5 -170,22 -45,13 -92,27 -128,62l0 0c51,41 -89,47 -49,102 22,31 104,52 91,91 -21,62 -192,69 -246,110 -51,38 38,130 40,172 6,110 -111,146 -91,265 12,72 7,155 -30,219 -44,139 -42,169 -129,277 -54,67 -106,86 -198,86 -1,0 -206,-29 -207,-29 -53,-15 -129,6 -166,52 -60,74 -26,143 -96,230 -41,51 -47,101 -111,165 -109,109 39,219 74,298 80,179 161,220 306,336 41,33 66,49 98,99 18,29 32,51 43,89 -7,113 -21,257 27,337 26,44 54,96 36,148 -13,39 -42,99 -42,139l0 0c24,120 123,118 204,57 148,-112 190,-20 312,102 89,89 141,177 297,124 0,-47 -138,-231 -16,-261 44,-175 170,-370 356,-439 135,-49 137,51 232,80 116,36 140,-93 219,-93l2 2c24,8 36,13 48,37 10,19 4,96 41,89 39,-8 69,-36 111,-36l38 3 0 0c31,-24 59,-51 91,-75 46,-34 25,-57 9,-97 -52,-135 27,-111 124,-139 41,-11 4,-96 -16,-115 -44,-40 -118,-81 -86,-143 26,-33 117,-16 153,-49 39,-36 -35,-97 -60,-121 -92,-87 -4,-173 26,-265 18,-54 -22,-141 9,-175 21,-23 77,-41 106,-57 39,-21 58,-75 95,-91 108,-48 218,-39 338,-49l0 0z"/>
  <path class="fil0 str0" d="M14063 6536c18,-46 18,-99 44,-139 42,-66 160,-73 182,-163 14,-53 11,-123 11,-179 61,0 94,29 128,-60 83,-219 186,-30 259,35 70,62 72,147 181,108 71,-25 99,38 159,49 54,10 181,-62 239,-82 167,-58 -26,-168 42,-225 31,-43 44,-91 98,-115 25,-11 45,-16 71,-23 35,-10 85,-35 120,-46l0 0c19,57 67,106 121,133 75,37 51,57 60,133 38,41 126,66 180,79 49,12 98,11 150,11 15,0 30,64 36,80 18,48 90,111 135,134 109,58 21,129 45,228 16,66 34,66 81,104 27,22 99,37 87,87 -65,16 -95,-20 -157,-20 -6,17 -16,36 -26,52 -24,28 -153,72 -153,98 0,13 121,71 139,83 18,12 39,13 57,22 25,13 -74,66 -86,72 -45,23 4,51 15,80 22,59 -82,109 -130,132 -19,9 -25,19 -23,29l0 0 -205 102c-92,46 -139,116 -215,174 -61,46 -87,130 -144,179 -120,103 -331,124 -480,97 -83,-15 -162,53 -266,42 -46,-5 -179,-84 -184,-132 -4,-39 65,-96 31,-137l-177 -216 -137 -210c-14,-70 -85,-104 -104,-163 -23,-72 21,-219 -22,-272 -44,-55 -106,-108 -159,-161l0 0z"/>
  <path class="fil0 str0" d="M11430 8246c24,120 123,118 204,57 148,-112 190,-20 312,102 89,89 141,177 297,124 0,-47 -138,-231 -16,-261 44,-175 170,-370 356,-439 135,-49 137,51 232,80 116,36 140,-93 219,-93l2 2c24,8 36,13 48,37 10,19 4,96 41,89 39,-8 69,-36 111,-36l38 3 0 0c35,36 24,29 20,71 -2,16 -12,59 2,71 26,23 96,7 115,46 15,30 0,49 -26,68 -39,28 -56,107 -22,144 44,48 129,23 184,51 10,15 7,29 16,43 16,27 60,28 83,47 45,36 -27,84 -4,123 7,13 35,21 46,34 11,14 11,62 11,79 0,35 -3,67 4,101 81,12 137,-36 203,-77 69,-43 126,-15 195,-79 149,-137 157,139 266,175 0,53 -59,42 -95,51 -45,12 -55,68 -80,101 -30,38 74,137 88,175 22,62 80,64 137,64 90,0 152,104 255,79l0 0c36,-3 75,-22 108,-35 39,-15 -60,94 -68,102 -22,24 -18,55 -58,55 -84,0 -81,52 -130,104 -20,22 -146,172 -151,199 -35,64 -105,27 -161,58 -55,31 -60,51 -130,33l-69 -7 0 0c-1,-3 -11,-26 -11,-29 -133,0 -254,-100 -381,-82 -11,80 -86,186 -93,260 -16,161 -105,231 -241,303 -78,42 -56,89 -9,152 61,81 7,129 -38,197 -80,67 -142,111 -246,99 -96,-12 -349,170 -381,177 -57,14 -90,103 -141,132 -18,10 -34,5 -51,11 -14,5 -39,32 -51,42l0 0c-62,-6 -86,-66 -155,-62 -73,4 -94,101 -172,75 -31,-10 -60,-21 -93,5 -68,54 -85,44 -164,18 -101,-33 -133,-55 -248,-16 -52,17 -86,2 -137,-13l0 0c0,-99 -91,-175 -182,-201 -108,-30 -198,-142 -230,-245 -27,-86 -81,-106 -57,-203 -7,-73 41,-160 22,-223 -22,-70 -99,-83 -141,-146 -71,-109 -312,-107 -423,-126 -89,-15 -194,63 -235,46 -66,-27 -98,-35 -168,-22 -198,36 -127,-170 -301,-170 -1,-3 -2,-2 -5,-2 0,-69 1,-111 -15,-177 -16,-69 67,-101 51,-183l-84 -420c-15,-75 70,-118 89,-177l0 0c39,11 68,25 109,4 28,-14 65,-58 95,-60 31,-2 56,111 73,137 28,42 59,82 77,132 14,40 67,118 115,69 32,-32 82,-148 104,-192 21,-14 70,-58 93,-58 6,-25 80,-49 104,-44 72,16 34,-104 64,-126 84,-61 -15,-182 62,-269 40,-45 55,-102 119,-57 100,72 155,-85 155,-161 3,-1 3,0 4,-4 137,-34 98,99 208,99 113,0 223,-28 327,-31l0 0z"/>
  <path class="fil0 str0" d="M14063 6536c-119,11 -230,1 -338,49 -37,16 -55,70 -95,91 -29,16 -85,34 -106,57 -31,35 8,121 -9,175 -30,92 -118,178 -26,265 25,24 99,84 60,121 -36,34 -127,16 -153,49 -32,62 41,103 86,143 21,19 57,104 16,115 -97,27 -176,4 -124,139 15,40 36,63 -9,97 -32,24 -61,51 -91,75l0 0c35,36 24,29 20,71 -2,16 -12,59 2,71 26,23 96,7 115,46 15,30 0,49 -26,68 -39,28 -56,107 -22,144 44,48 129,23 184,51 10,15 7,29 16,43 16,27 60,28 83,47 45,36 -27,84 -4,123 7,13 35,21 46,34 11,14 11,62 11,79 0,35 -3,67 4,101 81,12 137,-36 203,-77 69,-43 126,-15 195,-79 149,-137 157,139 266,175 0,53 -59,42 -95,51 -45,12 -55,68 -80,101 -30,38 74,137 88,175 22,62 80,64 137,64 90,0 152,104 255,79l0 0c8,-22 6,-55 9,-79 3,-23 13,-47 15,-71 3,-59 21,-91 89,-88 42,2 62,33 102,4 32,-32 -65,-113 -68,-150 -4,-53 140,-67 179,-51 134,56 165,-57 307,-57 32,96 210,-100 254,-124 112,-62 395,-90 467,-186 51,-68 160,-97 188,-152 44,-86 -7,-271 -11,-366 -8,-168 19,-281 126,-406l85 -105 0 0c-41,3 -79,7 -105,7 -71,0 -97,-87 -125,-144 -15,-31 -55,-57 -59,-80l0 0 -205 102c-92,46 -139,116 -215,174 -61,46 -87,130 -144,179 -120,103 -331,124 -480,97 -83,-15 -162,53 -266,42 -46,-5 -179,-84 -184,-132 -4,-39 65,-96 31,-137l-177 -216 -137 -210c-14,-70 -85,-104 -104,-163 -23,-72 21,-219 -22,-272 -44,-55 -106,-108 -159,-161l0 0z"/>
  <path class="fil0 str0" d="M18491 7901c-10,16 -88,107 -88,126 -31,10 43,84 44,86 41,10 14,66 86,48 38,-10 71,-50 104,-13 46,52 -15,70 -4,115 5,20 55,116 37,121 -8,31 -138,-30 -155,-38 -32,-15 -63,-36 -91,-57 -11,-8 -45,-61 -49,-75 -31,0 -55,17 -84,24 0,67 254,244 310,300 22,22 73,16 104,27 49,19 65,60 124,71 27,5 157,3 157,13 -6,59 -67,111 -110,154 -68,68 -154,112 -214,172 26,35 82,104 82,150 0,83 -71,9 -102,9 -7,-21 -112,25 -128,27l0 0c-44,-24 -140,52 -210,9 -18,-11 24,-70 24,-97 0,-33 -9,-66 -9,-95 -127,0 -137,247 -325,247 -63,0 -88,-8 -115,53 -15,35 -108,53 -130,16 -20,-34 1,-95 -20,-132 -23,-39 -126,-82 -164,-51 -41,33 -25,136 -97,141 -45,3 -172,124 -172,57 0,-29 -18,-114 -55,-112 -23,2 -109,166 -151,208 -33,33 -116,2 -161,4l0 0c-24,-39 48,-328 -33,-305 -51,14 -51,84 -86,115 -46,41 -89,26 -109,-31 -27,-74 -14,-120 -89,-166 -46,-28 -46,-54 -37,-106 45,-80 109,-147 142,-234 28,-75 37,-184 69,-249 62,-125 -173,-456 7,-515 0,-103 -10,-312 68,-378l-86 -80 0 0c0,-30 -32,-84 -37,-97 -28,-67 -30,-131 -30,-206 0,-55 -84,-101 -68,-166 46,-12 90,6 111,-55 11,-32 102,-24 132,-24 13,41 22,140 99,118 29,-8 63,-27 68,-61 3,-16 -2,-34 3,-49 4,-12 32,-37 41,-51 -15,-20 -39,-97 -30,-120 56,-19 110,0 157,-13 39,-11 73,-74 109,-74 16,49 -11,52 46,72 37,13 80,5 66,61 -47,0 -113,-17 -154,-3 0,23 58,84 66,122 11,55 173,129 227,114 54,-15 177,29 193,-52l35 -173c11,-54 64,-44 105,-66 33,-17 23,-45 46,-65 34,-30 98,-7 127,-39 14,-17 -24,-61 -5,-100 30,0 -11,-89 61,-87l155 4c20,83 30,115 108,169 100,69 96,133 32,235 -71,113 -11,237 -3,356 -5,63 22,121 -16,175 -25,35 -82,64 -82,109 0,93 14,143 -11,236 -9,33 -7,156 37,156 22,-34 108,-20 125,15l0 0z"/>
  <path class="fil0 str0" d="M17758 10051l135 115c19,26 52,61 76,88 70,81 80,236 225,226 61,-4 117,-146 136,-198 10,-29 85,-148 109,-171 45,-43 101,-79 129,-1 23,64 -5,162 -18,228 -15,77 -30,145 -60,218 -51,124 -82,180 -199,255 -34,22 -110,38 -156,60 -115,53 -134,82 -210,182 -15,19 -26,37 -39,56 -47,39 -80,78 -139,101 -60,23 -165,156 -169,218 -7,107 11,91 52,176 49,102 69,154 183,194 61,22 58,36 135,38 123,4 236,-39 351,-38 51,1 82,-9 136,11l4 2 40 18 0 0c-31,14 -64,24 -98,36 -17,6 -336,361 -354,398 -43,88 -151,63 -215,57 -70,-6 -189,91 -239,154 -8,37 -36,66 -58,98l0 0 -78 -43c1,0 -52,48 -60,77 -19,67 -66,91 -115,130 -96,76 -156,-94 -224,-117 -39,-13 -84,18 -124,15 -63,-5 -106,-54 -159,-60l0 0c19,-60 15,-80 15,-139 0,-68 127,-112 106,-188 -21,-75 -56,-278 -166,-148 -32,38 -103,84 -153,84 -24,0 -42,-16 -53,-37 -21,-37 39,-86 53,-113 -21,-28 1,-139 -22,-168 -88,-114 -90,-114 -182,-22 -28,28 -56,39 -86,9 -35,-35 -33,-234 -2,-271 28,-33 81,-100 131,-88 77,18 168,43 199,-58 32,-104 25,-215 73,-309 3,-32 5,-45 -15,-71 -14,-18 -31,-28 -31,-53 0,-48 10,-95 14,-143l0 0 3 -115 0 0c37,4 209,105 234,132 30,34 82,40 126,40 115,0 47,150 126,197 25,15 161,51 164,60 13,0 4,-18 4,-27 -5,-2 0,-89 2,-101 8,-42 33,-87 46,-130 14,-45 40,-199 -18,-225 -23,-10 -161,-5 -126,-53 47,-64 85,-145 142,-197 66,-159 88,-287 283,-324 52,-10 96,-37 138,-65l0 0z"/>
  <path class="fil0 str0" d="M17758 10051c-42,29 -86,55 -138,65 -195,37 -217,164 -283,324 -57,53 -96,134 -142,197 -35,48 103,43 126,53 58,26 32,180 18,225 -13,43 -38,88 -46,130 -2,12 -6,99 -2,101 0,10 9,27 -4,27 -3,-9 -139,-45 -164,-60 -79,-47 -11,-197 -126,-197 -44,0 -96,-7 -126,-40 -24,-27 -197,-128 -234,-132l0 0c-4,-25 2,-58 1,-85 -1,-42 -12,-80 -8,-123 4,-47 128,-252 128,-300 73,-133 98,-213 89,-364 -6,-105 -57,-206 -57,-309 0,-87 72,-117 139,-154l0 0c44,-2 128,29 161,-4 42,-42 128,-207 151,-208 37,-3 55,82 55,112 0,68 126,-53 172,-57 72,-5 56,-108 97,-141 38,-31 142,13 164,51 22,37 0,98 20,132 21,36 114,18 130,-16 27,-61 52,-53 115,-53 188,0 198,-247 325,-247 0,29 9,62 9,95 0,26 -42,86 -24,97 70,43 166,-33 210,-9l0 0c-15,73 -49,129 -11,197 15,27 33,46 44,77 10,28 33,94 33,126 0,28 -27,60 -44,82 -19,25 -4,51 5,77 20,54 83,58 115,90 12,12 18,31 26,47l0 0c-18,3 -138,72 -163,61 -91,-39 -57,-101 -86,-181 -16,-46 -33,-48 -62,-74 -26,-24 -120,-45 -147,-34 -22,9 -86,73 -109,90 -56,-23 -60,22 -86,58 0,28 20,100 0,122 -32,36 -77,54 -122,68 -56,17 -102,52 -150,84l0 0z"/>
  <path class="fil0 str0" d="M16415 7449l-85 105c-107,124 -134,238 -126,406 4,94 55,279 11,366 -28,55 -137,83 -188,152 -72,97 -355,124 -467,186 -43,24 -222,220 -254,124 -142,0 -173,113 -307,57 -38,-16 -183,-2 -179,51 3,37 100,118 68,150 -40,30 -60,-2 -102,-4 -69,-4 -86,29 -89,88 -1,25 -12,48 -15,71 -3,24 -1,56 -9,79l0 0c36,-3 75,-22 108,-35 39,-15 -60,94 -68,102 -22,24 -18,55 -58,55 -84,0 -81,52 -130,104 -20,22 -146,172 -151,199 -35,64 -105,27 -161,58 -55,31 -60,51 -130,33l-69 -7 0 0c11,121 -106,139 -192,174 -71,29 14,330 46,389 45,83 134,72 210,122 79,53 76,133 93,219 18,20 48,33 71,48 37,24 72,59 98,97 21,30 44,55 59,90l0 0c52,-56 112,-117 172,-165 50,-40 86,-95 141,-27 51,63 121,165 211,153 49,-7 108,-20 155,4 56,28 84,29 147,24 73,-44 94,30 167,37l341 33c32,3 60,-197 71,-243 25,0 112,53 155,60 103,18 217,57 316,44 42,-5 88,-44 133,-44 52,0 187,51 227,55l0 0 3 -115 0 0c-4,-25 2,-58 1,-85 -1,-42 -12,-80 -8,-123 4,-47 128,-252 128,-300 73,-133 98,-213 89,-364 -6,-105 -57,-206 -57,-309 0,-87 72,-117 139,-154l0 0c-24,-39 48,-328 -33,-305 -51,14 -51,84 -86,115 -46,41 -89,26 -109,-31 -27,-74 -14,-120 -89,-166 -46,-28 -46,-54 -37,-106 45,-80 109,-147 142,-234 28,-75 37,-184 69,-249 62,-125 -173,-456 7,-515 0,-103 -10,-312 68,-378l-86 -80 0 0c0,11 -4,20 -16,21 -2,13 -85,98 -92,96 -9,-38 -55,-75 -83,-101 -31,-31 -103,-31 -170,-26l0 0z"/>
  <path class="fil0 str0" d="M16626 12733c-56,-60 -161,-85 -181,-164 -37,-148 -260,-224 -276,0 -7,96 -80,25 -102,-20 -30,-60 -52,-71 -115,-37 -46,25 -48,12 -60,73 -28,148 -139,-51 -144,38 -4,69 48,117 -55,111 -85,-5 -170,-22 -203,79 -25,77 -64,142 -150,99 -22,-19 -85,-36 -109,-51 -16,-10 -23,-43 -46,-46 -22,-2 -46,4 -64,11 -26,10 -32,14 -64,15l0 0c-44,115 -66,68 -80,247 -3,32 -59,89 -73,126 -34,91 -54,192 -95,283 -62,138 -123,68 -217,132 85,115 225,193 330,289 91,82 140,149 140,279 -7,20 0,44 -8,67 -7,19 -23,35 -37,48 -30,30 -37,63 -27,104 14,61 86,134 51,199l0 0c43,-3 91,-1 135,-1 36,0 202,66 234,80l0 0c71,-87 258,-424 321,-433 9,-84 254,-304 396,-362 92,-37 140,231 246,124 52,-52 19,-195 100,-256 30,18 171,117 191,38l20 -179c3,-21 32,-168 46,-172 9,-36 212,-18 243,-141 15,-62 -12,-204 15,-249 102,-174 -105,-176 -255,-190 -71,-7 -77,-95 -108,-143l0 0z"/>
  <path class="fil0 str0" d="M16755 12573l-130 161 0 0c-56,-60 -161,-85 -181,-164 -37,-148 -260,-224 -276,0 -7,96 -80,25 -102,-20 -30,-60 -52,-71 -115,-37 -46,25 -48,12 -60,73 -28,148 -139,-51 -144,38 -4,69 48,117 -55,111 -85,-5 -170,-22 -203,79 -25,77 -64,142 -150,99 -22,-19 -85,-36 -109,-51 -16,-10 -23,-43 -46,-46 -22,-2 -46,4 -64,11 -26,10 -32,14 -64,15l0 0c-7,-5 -32,-39 -36,-48 -4,-8 -28,-37 -35,-40 -44,-21 -91,-8 -135,9 -51,20 -60,12 -108,-13l0 0c18,-49 47,-120 31,-168 -112,0 -292,-201 -197,-307 42,-47 111,54 111,-68 0,-45 120,-127 100,-154 0,-66 -61,-67 -85,-115 -25,-51 64,-82 50,-134 -9,-35 -63,-19 -85,-8 -52,25 -53,76 -89,112 -45,45 -105,-26 -142,-53 -23,-52 -65,-68 -65,-133 0,-38 -2,-116 -25,-148 -64,-90 -51,-142 6,-227 36,-53 27,-102 10,-156 2,-20 -2,-45 5,-63 7,-16 14,-30 22,-46 16,-33 12,-76 6,-111 -2,-14 1,-29 -1,-43l0 0c52,-56 112,-117 172,-165 50,-40 86,-95 141,-27 51,63 121,165 211,153 49,-7 108,-20 155,4 56,28 84,29 147,24 73,-44 94,30 167,37l341 33c32,3 60,-197 71,-243 25,0 112,53 155,60 103,18 217,57 316,44 42,-5 88,-44 133,-44 52,0 187,51 227,55l0 0c-4,48 -14,95 -14,143 0,25 17,35 31,53 20,27 17,39 15,71 -48,93 -41,204 -73,309 -31,102 -122,77 -199,58 -50,-12 -103,54 -131,88 -31,37 -33,236 2,271 30,30 57,19 86,-9 92,-93 95,-92 182,22 22,29 1,140 22,168 -14,27 -74,76 -53,113 11,20 29,37 53,37 50,0 121,-46 153,-84 110,-130 145,73 166,148 21,76 -106,121 -106,188 0,59 4,78 -15,139l0 0z"/>
  <path class="fil0 str0" d="M16021 15811l178 -12c65,-12 135,-6 198,-26 21,-6 143,-36 124,-62 -28,-38 -58,-80 -46,-132 5,-22 -19,-96 7,-93 88,10 329,171 312,-48 -5,-63 -2,-122 11,-181 6,-26 5,-62 15,-86 67,-176 62,-44 162,-4 28,11 130,-120 144,-137 39,-49 77,-4 111,24l0 0c90,47 121,77 135,183 8,63 37,126 53,190 9,35 6,106 53,106 22,0 77,-23 82,13 8,54 -5,100 -2,154 3,59 26,125 26,181 19,35 71,80 99,104 38,33 44,56 63,101 27,63 133,83 173,25 37,-53 61,10 103,24 24,8 39,1 62,-3l157 -52 0 0 -41 111c-27,75 15,110 15,178 22,65 94,105 107,157 19,78 136,108 86,158 -37,37 -30,135 -55,140l-138 29c-125,26 -108,-78 -182,-84 -325,-25 -95,-200 -157,-281 -30,-39 -92,-9 -139,13 -104,50 -121,103 -149,211 -13,51 -45,33 -75,5 -45,-42 -60,-47 -114,-74l-339 -74c-83,-18 -188,54 -285,30 0,-112 39,-190 -67,-185 -62,4 -138,55 -123,128 14,69 -25,96 -29,148 -7,89 -5,142 -39,224 -47,113 -112,102 -214,128 -10,52 -71,75 -89,127 -13,40 -3,104 -24,138 -17,27 -41,4 -65,7 -8,1 -24,40 -36,48 -45,33 -93,52 -150,55 -90,4 -110,168 -202,55 -59,-73 -68,-81 -167,-69 -27,3 62,53 67,56 69,46 25,101 -30,121 -55,20 -9,107 -75,91l-153 -36c-20,-5 -112,-55 -82,-60 107,-21 -248,-193 -226,-239 43,-91 34,-107 61,-142 35,-116 71,-132 169,-88 77,34 41,140 140,74 29,-19 87,-96 109,-26 42,130 61,155 151,43l186 -229c9,-57 -98,-73 -123,-90 -53,-35 -67,-111 -67,-172 0,-38 44,-130 81,-142 43,-13 46,-44 19,-74 -15,-16 -15,-46 -16,-68 -3,-44 -59,-2 -85,-41 -29,-44 4,-81 -13,-109 8,-48 33,-88 46,-136 4,-17 5,-47 21,-58 9,-6 41,-41 43,-49 46,-11 2,181 137,112 61,-32 89,-113 89,-175 0,-23 -10,-47 -18,-67 -4,-9 9,-58 17,-90l0 0z"/>
  <path class="fil0 str0" d="M17239 15055c90,47 121,77 135,183 8,63 37,126 53,190 9,35 6,106 53,106 22,0 77,-23 82,13 8,54 -5,100 -2,154 3,59 26,125 26,181 19,35 71,80 99,104 38,33 44,56 63,101 27,63 133,83 173,25 37,-53 61,10 103,24 24,8 39,1 62,-3l157 -52 0 0 11 -31 36 -114c19,-60 -24,-130 -8,-195 31,-8 114,40 114,79 0,50 -16,121 -5,168 129,32 207,-38 281,-137l44 -57c5,-38 28,-87 35,-116 15,-61 -57,-341 -117,-347 -74,-8 -117,-160 -234,-68 -104,83 -201,-62 -248,-135 -16,-26 -189,-188 -185,-188 86,2 159,93 250,93 66,0 338,-27 214,-127 -81,-59 -153,-141 -126,-244 13,-49 62,-182 124,-177 93,7 537,-3 553,-67 46,-12 51,-42 118,-42 66,0 112,38 174,45 91,10 200,-138 267,-205 53,-53 -35,-138 -83,-165 -96,-54 -32,-131 -32,-207 -146,-21 -16,-159 -16,-225 0,-93 -215,-21 -237,29l-82 182c-8,27 -88,60 -114,66 -47,11 -87,-21 -127,-39 -80,-38 -149,109 -242,64 -70,0 -109,51 -169,19 -64,-34 -53,-97 -131,-112 -54,-10 -85,-16 -130,25 -72,66 -97,25 -155,-26 -63,-54 -168,38 -228,-32 -37,-43 -81,-91 -111,-139l0 0 -223 61c-86,27 -127,81 -234,87 -122,7 -183,-35 -243,84 -27,55 -108,160 -108,218 -13,4 -76,149 -93,172 -31,44 -9,180 9,228 9,66 124,242 188,267 98,37 245,-35 332,-79 29,-14 56,118 47,150 -17,59 -65,180 -120,214l0 0z"/>
  <path class="fil0 str0" d="M17515 12572l-78 -43c1,0 -52,48 -60,77 -19,67 -66,91 -115,130 -96,76 -156,-94 -224,-117 -39,-13 -84,18 -124,15 -63,-5 -106,-54 -159,-60l0 0 -130 161 0 0c30,47 37,136 108,143 151,14 358,16 255,190 -26,45 1,187 -15,249 -31,123 -234,105 -243,141 -14,3 -43,151 -46,172l-20 179c-20,79 -161,-20 -191,-38 -81,61 -49,204 -100,256 -106,107 -154,-162 -246,-124 -142,58 -387,278 -396,362 -63,9 -250,347 -321,433l0 0c46,30 94,50 139,82 40,29 59,91 86,133 50,80 253,110 235,243l-35 105 0 0c57,53 60,156 63,242 -7,27 -44,64 -29,86 17,25 55,20 78,32 32,16 88,131 81,167 -1,5 -3,14 -6,25l0 0 178 -12c65,-12 135,-6 198,-26 21,-6 143,-36 124,-62 -28,-38 -58,-80 -46,-132 5,-22 -19,-96 7,-93 88,10 329,171 312,-48 -5,-63 -2,-122 11,-181 6,-26 5,-62 15,-86 67,-176 62,-44 162,-4 28,11 130,-120 144,-137 39,-49 77,-4 111,24l0 0c56,-34 104,-155 120,-214 9,-32 -19,-164 -47,-150 -87,43 -234,116 -332,79 -64,-24 -179,-201 -188,-267 -18,-48 -40,-185 -9,-228 17,-23 80,-167 93,-172 0,-57 80,-162 108,-218 59,-119 120,-77 243,-84 107,-6 147,-60 234,-87l223 -61 0 0c-7,-11 -13,-22 -18,-33 10,-137 -253,-327 -206,-510 6,-22 -6,-195 -16,-197 -114,-22 -79,-99 4,-122 70,-19 24,-112 51,-183 5,-13 12,-24 19,-36l0 0z"/>
  <path class="fil0 str0" d="M12301 14537c26,2 24,2 42,15 27,18 47,21 58,53 18,51 -6,90 -40,124 -10,10 -20,19 -31,27l0 0c-61,31 -132,38 -195,62 -138,53 -487,232 -566,320 -55,62 -220,182 -235,258 -19,5 -105,161 -111,183 -18,63 -37,106 -115,101 -122,-9 -253,-91 -374,-122 -152,-38 -253,-223 -321,-344 -61,-107 -75,-295 -219,-344l0 0c-15,-51 -62,-78 -58,-139 3,-50 41,-62 71,-91 205,-205 179,-213 411,-362 33,-21 81,-64 104,-97 25,-36 23,-89 55,-121 60,-101 128,-207 221,-281 36,-29 91,-71 117,-110 16,-24 100,-167 113,-205 10,-28 8,-67 13,-97 63,-125 76,-222 181,-334 25,-27 55,-40 84,-62l0 0c40,-4 75,-22 115,-24 32,-2 69,-10 95,-29 44,-31 30,-91 46,-137 9,-27 59,-54 84,-64 79,-32 67,-46 4,-91 -30,-21 -31,-44 -35,-79l0 0c13,-7 27,-5 40,-9 11,-4 26,-5 37,-11 30,-18 67,-32 95,-55l0 0c33,19 52,21 86,10 41,-14 51,12 93,12 50,-48 36,-50 68,-83 22,-23 45,23 48,-10 3,-33 -8,-82 23,-82 11,0 58,-10 63,-18 46,-66 44,-111 108,-170 41,-38 81,-46 128,-16 20,13 -38,76 -33,136l0 0c0,-32 -47,186 -146,154 -14,32 -110,61 -142,73 -28,47 -104,41 -150,62 -57,27 6,68 27,102 40,65 -28,168 -100,168 -56,0 -134,-14 -161,51 -35,85 78,148 78,234 0,62 -51,67 -68,113 -8,22 17,118 2,124 13,49 27,69 -33,87 -28,8 -72,7 -92,32 -20,25 63,114 80,136 12,15 25,30 10,47 -8,9 -68,46 -78,48 -102,7 -79,138 -11,172 143,72 -57,91 -7,183 35,64 82,59 148,77 140,37 -71,113 -104,130 -66,33 -11,55 33,69 139,46 217,-15 257,154 24,102 100,75 190,73l0 0z"/>
  <path class="fil0 str0" d="M14744 12750c48,25 57,32 108,13 44,-17 91,-31 135,-9 6,3 31,33 35,40 5,8 29,42 36,48l0 0c-44,115 -66,68 -80,247 -3,32 -59,89 -73,126 -34,91 -54,192 -95,283 -62,138 -123,68 -217,132 85,115 225,193 330,289 91,82 140,149 140,279 -7,20 0,44 -8,67 -7,19 -23,35 -37,48 -30,30 -37,63 -27,104 14,61 86,134 51,199l0 0 -231 -32 0 0c-66,0 -154,-32 -230,-31l-91 1 0 0 -35 -85c-73,-121 -298,-90 -411,-55 -33,10 -106,-48 -161,-62 -89,-23 -91,-148 -130,-161l0 -4c-8,-2 -6,-4 -15,-2 -17,67 -101,113 -119,166 -7,0 -9,2 -16,0 -18,-71 -99,-138 -115,-203 -40,-10 -29,66 -77,66 -34,0 -60,-55 -86,-15 -55,86 -280,164 -354,64 -51,-68 -109,-136 -179,-44 -50,65 -157,82 -181,-13 -36,-9 -109,147 -150,188 -60,60 -109,49 -162,143l0 0c-90,2 -166,29 -190,-73 -40,-169 -119,-107 -257,-154 -43,-14 -99,-36 -33,-69 33,-17 244,-93 104,-130 -66,-18 -113,-13 -148,-77 -50,-91 151,-111 7,-183 -68,-34 -91,-165 11,-172 11,-1 71,-39 78,-48 15,-17 2,-31 -10,-47 -18,-22 -100,-111 -80,-136 20,-25 64,-24 92,-32 60,-18 46,-38 33,-87 15,-6 -10,-102 -2,-124 17,-47 68,-51 68,-113 0,-86 -113,-149 -78,-234 27,-65 105,-51 161,-51 73,0 140,-103 100,-168 -21,-34 -84,-76 -27,-102 46,-22 122,-15 150,-62 32,-12 128,-41 142,-73 99,32 146,-186 146,-154l0 0c41,60 175,86 241,106 77,24 285,2 372,-13 46,-8 149,-20 190,-2 59,27 53,111 124,115 103,20 238,-15 334,20 78,28 186,31 266,51 0,49 -84,70 -26,128 37,37 58,27 78,82 13,33 35,152 69,166 53,22 176,-76 186,-37 116,17 254,179 254,-58 13,-4 61,-49 88,-58l0 0z"/>
  <path class="fil0 str0" d="M12544 17385c155,-12 272,-48 401,57 75,61 70,114 84,203 10,64 54,121 64,196 12,91 -22,182 -2,271l73 322 12 33 0 0c30,-10 58,-23 79,-51 25,-35 78,-3 111,-14 45,-14 71,-97 116,-95l196 7c1,-6 14,-22 17,-29 26,-62 20,-63 75,-90 20,-10 17,-92 19,-116 5,-77 58,-176 108,-235 20,-24 -11,-31 -18,-49 -19,-49 -86,-108 -73,-166 7,-32 30,-72 18,-103 -57,-46 2,-98 14,-143 11,-43 0,-112 36,-145 20,-18 86,-34 76,-69 -19,-69 -10,-57 -74,-105 -45,-34 -138,-104 -138,-166 0,-25 17,-74 7,-94 -6,-12 -34,-19 -33,-36 2,-22 11,-41 15,-63 -8,-11 6,-54 -7,-60 -19,-9 -45,-14 -66,-20 -60,-18 -135,-2 -197,-5 -31,-1 -30,-48 -32,-76 -3,-36 59,-67 71,-100 23,-61 -60,-108 -4,-154 24,-19 168,-183 90,-194 -38,-5 -97,-36 -135,-51 -48,-19 -68,-35 -78,-65l0 0 -144 -3c-71,0 -105,18 -161,49 0,44 19,84 31,126 14,48 -12,122 -33,165 -50,101 -21,271 -175,234 -83,-20 -163,-78 -224,-133 -16,-14 -115,-26 -146,-40l0 0 26 58c3,12 47,91 55,95 1,4 3,4 4,9 66,22 116,167 73,228 -66,95 17,197 -126,260 -75,33 -127,30 -75,126 56,103 76,113 70,234l0 0z"/>
  <path class="fil0 str0" d="M13370 15977c-5,-15 -7,-33 -9,-57 20,-24 40,-26 40,-62 0,-15 0,-55 22,-55 3,-13 41,-20 34,-45 -5,-20 -13,-46 3,-61 18,-18 90,-78 85,-101 -44,-11 -45,-87 -47,-124 -4,-62 -20,-94 36,-115 29,-11 70,-31 101,-31 24,73 39,172 136,191 130,25 164,-67 229,-140 154,-172 -330,-123 -330,-223 7,-47 20,-73 -9,-113 -26,-36 -75,-60 -42,-97 58,-66 -70,-187 19,-210 88,-23 64,34 93,74 17,23 64,13 84,36 16,18 18,78 30,104 30,64 29,48 93,65 40,11 142,39 180,31 72,-16 25,-73 129,-73 28,0 36,-162 37,-190 8,-146 110,-37 105,-129l-5 -97 106 -1 0 0 -35 -85c-73,-121 -298,-90 -411,-55 -33,10 -106,-48 -161,-62 -89,-23 -91,-148 -130,-161l0 -4c-8,-2 -6,-4 -15,-2 -17,67 -101,113 -119,166 -7,0 -9,2 -16,0 -18,-71 -99,-138 -115,-203 -40,-10 -29,66 -77,66 -34,0 -60,-55 -86,-15 -55,86 -280,164 -354,64 -51,-68 -109,-136 -179,-44 -50,65 -157,82 -181,-13 -36,-9 -109,147 -150,188 -60,60 -109,49 -162,143l0 0c26,2 24,2 42,15 27,18 47,21 58,53 18,51 -6,90 -40,124 -10,10 -20,19 -31,27l0 0c10,35 -1,43 -18,68 -15,21 -61,63 -80,82 -13,13 -18,31 -18,49 29,7 68,85 68,106 19,30 87,87 60,121 -22,28 -67,89 -91,104 -13,8 -97,232 -99,252 -6,95 51,128 111,188 52,52 21,89 -11,132 -95,128 74,96 106,128 32,32 70,2 102,38 9,10 6,34 11,48 10,25 34,32 44,58 49,64 65,16 18,110 -23,46 -46,83 -15,133l0 0c31,14 130,26 146,40 62,55 141,113 224,133 154,37 125,-133 175,-234 21,-43 47,-116 33,-165 -12,-42 -31,-82 -31,-126 56,-32 89,-49 161,-49l144 3 0 0zm1440 -1394l231 32 0 0c43,-3 91,-1 135,-1 36,0 202,66 234,80l0 0c46,30 94,50 139,82 40,29 59,91 86,133 50,80 253,110 235,243l-35 105 0 0c-24,-22 -57,-36 -102,-36 -130,0 -165,144 -269,180 -27,9 -68,-18 -110,-5 -84,26 -66,-67 -146,-7 -102,76 -166,33 -290,26 -87,-5 -281,-26 -359,-60 -171,-5 -109,-99 -10,-160 64,-40 -65,-163 28,-139 59,15 106,66 165,66 50,0 75,-42 113,-70 34,-25 133,-56 104,-101 -29,-45 1,-34 -51,-16 -38,14 -61,-10 -93,-10 -6,25 -38,89 -72,80 -31,-8 -65,-21 -92,-37 -30,-18 57,-49 12,-90 -11,-10 -36,-27 -48,-33 -23,-10 -16,-39 -16,-55 40,0 170,97 158,33 -7,-38 -37,-196 17,-215 13,-5 37,-11 37,-26l0 0z"/>
  <path class="fil0 str0" d="M11634 18756l57 -144c7,-81 5,-132 33,-208 45,-120 187,-121 261,-216 35,-45 28,-96 13,-143 -7,-23 -24,-43 -38,-62 -25,-35 -11,-49 -15,-91l64 -91c13,-19 36,-59 53,-71 73,-53 166,-23 245,-49l15 -271 0 0 -38 -27c-9,-5 -30,-5 -40,-5 -24,-1 -50,-1 -74,-6 -54,-12 -94,-61 -116,-109 -37,-5 -61,-75 -93,-86 -16,-5 -142,96 -170,113 -133,82 -225,-24 -334,-60 -25,-8 -148,132 -245,132 -123,0 -311,-1 -422,-44 -211,-82 -260,175 -369,271l-149 66 0 0c0,7 1,13 1,19 0,77 98,-19 126,21l81 117c61,88 116,77 124,186 2,32 -13,151 57,120 44,-19 65,-71 119,-93 51,-21 149,-8 152,58 4,72 -26,131 -26,195 -17,59 -7,92 -5,153 6,124 140,137 241,115 122,-27 159,32 232,111 68,73 171,69 260,102l0 0z"/>
  <path class="fil0 str0" d="M12518 16374c-31,-50 -8,-87 15,-133 47,-94 30,-46 -18,-110 -10,-26 -34,-33 -44,-58 -5,-14 -2,-37 -11,-48 -32,-37 -70,-6 -102,-38 -32,-32 -201,0 -106,-128 32,-42 63,-80 11,-132 -60,-60 -117,-93 -111,-188 1,-21 85,-244 99,-252 24,-15 69,-77 91,-104 27,-33 -41,-91 -60,-121 0,-21 -39,-99 -68,-106 0,-18 5,-36 18,-49 19,-19 65,-61 80,-82 18,-25 28,-33 18,-68l0 0c-61,31 -132,38 -195,62 -138,53 -487,232 -566,320 -55,62 -220,182 -235,258 -19,5 -105,161 -111,183 -18,63 -37,106 -115,101 -122,-9 -253,-91 -374,-122 -152,-38 -253,-223 -321,-344 -61,-107 -75,-295 -219,-344l0 0c-22,4 -36,36 -57,46 -152,74 -98,90 -146,216 -13,34 -121,127 -161,139 -39,12 -56,16 -97,-4l0 0c-63,63 -38,181 -89,249 -17,22 -10,46 -7,71 11,104 -63,201 -102,294l-37 102 0 0c94,-52 240,-111 240,42 0,37 -14,75 -24,110 -17,59 106,150 163,133 47,-14 122,-58 122,27 0,83 -156,64 -209,118 -14,14 -13,84 -23,106 -19,43 -48,79 -67,126 -30,35 30,150 59,185 45,53 124,84 171,137 41,46 67,92 90,150 40,98 176,-133 198,-165 66,-99 86,-57 127,25 20,41 70,112 70,156 0,40 -52,41 -14,89 89,110 -61,193 -140,232 -34,26 -43,3 -23,56 16,41 30,96 33,144l0 0 149 -66c109,-95 157,-352 369,-271 110,42 298,44 422,44 96,0 219,-140 245,-132 109,36 201,142 334,60 27,-17 154,-119 170,-113 32,11 57,81 93,86 22,47 62,97 116,109 24,5 50,5 74,6 11,0 31,0 40,5l38 27 0 0 224 -24 0 0c6,-121 -14,-131 -70,-234 -52,-96 0,-93 75,-126 143,-62 59,-165 126,-260 43,-61 -7,-207 -73,-228 -1,-5 -3,-5 -4,-9 -8,-4 -52,-83 -55,-95l-26 -58 0 0z"/>
  <path class="fil0 str0" d="M12321 17409l224 -24 0 0c155,-12 272,-48 401,57 75,61 70,114 84,203 10,64 54,121 64,196 12,91 -22,182 -2,271l73 322 12 33 0 0c-49,16 -103,24 -137,76 -34,52 -112,88 -31,138 28,17 -108,189 -130,219 -24,35 77,78 93,91 45,38 97,-19 139,-19 4,13 44,59 55,70 12,12 37,-1 48,-6 5,-3 37,-32 40,-19 15,0 35,20 47,28 -9,23 -26,27 -26,54 0,36 54,25 73,17 21,-9 60,2 78,14 28,19 -1,85 -26,94 -18,7 -34,10 -53,10 -19,0 -80,-2 -97,4 -34,13 -66,3 -95,32 -18,18 -35,51 -55,63 -54,33 -97,-60 -130,9 -12,26 -4,69 -11,98 -42,10 -84,16 -132,18 -45,2 -72,-37 -116,-48 -29,-7 -60,1 -87,9 -38,12 -87,74 -119,73l0 0 -31 -62c-30,-62 -7,-16 -57,-103 -35,-61 -64,-112 -103,-174 -12,-19 -49,1 -82,22 -63,40 -91,72 -141,122 -26,26 -35,-14 -47,-27 -6,-6 -34,-21 -36,-26 -3,0 32,-100 32,-111 0,-46 -54,-37 -35,-108 0,-124 -204,-102 -263,-187 -30,-43 -68,-66 -109,-82l0 0 57 -144c7,-81 5,-132 33,-208 45,-120 187,-121 261,-216 35,-45 28,-96 13,-143 -7,-23 -24,-43 -38,-62 -25,-35 -11,-49 -15,-91l64 -91c13,-19 36,-59 53,-71 73,-53 166,-23 245,-49l15 -271 0 0z"/>
  <path class="fil0 str0" d="M8833 12601c89,49 135,153 239,168 51,7 84,31 93,80 4,18 -7,40 1,58 7,14 39,52 39,64 25,6 170,181 189,208 61,91 97,58 97,181 0,71 70,60 75,104 4,39 -105,143 -144,137 -43,-7 -79,-64 -75,5 1,21 45,93 22,110 -53,37 -100,0 -155,0 -62,0 74,125 89,146 87,121 -37,112 -106,172l0 0c-84,-22 -153,-60 -214,-121 -58,-59 -297,493 -376,567 -63,58 -38,107 -66,179 -33,87 -265,245 -265,280 0,106 -84,129 -31,219 65,110 -51,266 -175,256 -103,-9 -99,10 -126,104l16 104 0 0c-10,-3 -21,-2 -33,5 -97,55 -112,-37 -192,-4 -159,67 -307,-11 -362,-175 -63,0 -142,20 -194,51 -82,49 -130,175 -199,23 -21,-47 -92,-12 -139,-12 -13,54 62,112 11,137 -11,5 -119,-56 -109,-85 22,-60 22,-41 -47,-49l-86 -10c-99,0 -167,96 -255,30 -79,-59 -148,-50 -247,-50 -201,0 -338,165 -535,104l-362 -113 -7 -3 0 0 69 -104c55,-55 143,-119 128,-205 -6,-34 -56,-32 -24,-77 61,-85 83,-76 109,-186 49,-206 107,-206 294,-252 57,-14 119,-45 179,-35 52,9 113,-3 146,-44 18,-22 148,86 232,40 55,-31 58,-141 111,-141 119,0 142,109 142,-71 0,-29 96,-241 117,-261 31,-54 164,-182 172,-212 17,-65 -30,-125 -9,-179 17,-44 76,-47 93,-95 19,-55 28,-133 84,-161 25,-13 132,-92 139,-117 75,0 23,125 84,152 59,26 107,2 188,26l292 86c79,23 30,-144 175,-144 212,0 250,-86 376,-232 47,-55 39,-175 141,-150 85,21 140,6 214,-31 0,-51 -74,-83 -24,-130 37,-34 70,-47 102,-90 11,-23 29,-48 29,-74 0,-37 -69,-37 -35,-88 21,-31 70,-79 103,-95l0 0z"/>
  <path class="fil0 str0" d="M9497 15983l37 -102c39,-93 113,-190 102,-294 -3,-25 -10,-49 7,-71 52,-67 26,-185 89,-249l0 0c-15,-99 71,-144 -62,-177 -77,-19 -89,-86 -168,-99 -58,-9 -114,-14 -151,-64 -67,-90 30,-120 86,-172 61,-56 200,-288 266,-342 -76,-76 -136,-66 -239,-66 -76,0 -140,16 -168,-73 -6,-18 -6,-83 -26,-90 -1,-5 -6,-6 -7,-11 -20,-5 -61,-116 -68,-139l0 0c-84,-22 -153,-60 -214,-121 -58,-59 -297,493 -376,567 -63,58 -38,107 -66,179 -33,87 -265,245 -265,280 0,106 -84,129 -31,219 65,110 -51,266 -175,256 -103,-9 -99,10 -126,104l16 104 0 0c46,13 70,105 45,111 -7,29 -56,74 -1,101 122,36 93,-77 186,53 28,39 14,161 60,161 98,0 53,-105 87,-160 65,-106 233,89 325,111 116,27 81,78 130,170 44,84 169,56 252,56 79,0 98,-15 165,18 87,44 143,52 166,-49 7,-32 3,-195 26,-203 37,-3 60,11 94,-8l0 0z"/>
  <path class="fil0 str0" d="M11503 12971c-3,-47 19,-108 5,-152 -27,-88 -22,-143 51,-201 43,-34 70,-71 109,-106 26,-23 64,-6 91,11l51 24 0 0c13,-7 27,-5 40,-9 11,-4 26,-5 37,-11 30,-18 67,-32 95,-55l0 0c23,-18 38,-34 55,-62 5,-8 7,-14 11,-22 5,-10 7,-21 7,-33 0,-22 -4,-39 0,-60 36,-73 -56,-215 66,-247 134,-35 119,-92 193,-185 49,-61 43,-95 -4,-157 -28,-37 49,-40 78,-46 47,-9 105,-12 144,-46 26,-23 73,-223 73,-252 -7,-2 -12,-20 -16,-26 -46,11 -100,102 -168,119 -60,15 -122,-28 -108,-93 25,-112 132,-199 55,-313l0 0c-62,-6 -86,-66 -155,-62 -73,4 -94,101 -172,75 -31,-10 -60,-21 -93,5 -68,54 -85,44 -164,18 -101,-33 -133,-55 -248,-16 -52,17 -86,2 -137,-13l0 0c-77,25 -56,85 -124,119 -45,23 -59,50 -44,101 12,38 26,54 2,91 -34,53 -36,60 -40,126 -3,40 1,111 -15,146 4,47 97,274 31,291 -44,-176 -166,-40 -235,29 -86,86 -118,-132 -146,-174 -48,-72 -93,3 -184,35 -39,13 27,230 -88,115 -48,-48 -138,-87 -195,-126 -88,-61 -13,-62 -135,-55 -45,3 -24,75 -11,110 20,54 31,73 -27,99 -74,33 -40,198 -164,62 -64,-70 -52,-87 -150,-108 -98,-21 -82,-9 -82,86 0,53 -135,11 -182,26 -92,29 -85,101 -141,164 -17,27 -66,48 -98,48 -50,0 -52,19 -58,61 -12,83 -119,96 -182,118 -55,19 -97,25 -147,58l0 0c8,19 32,34 40,54 10,22 18,33 18,58 -7,3 -9,10 -19,12 -9,2 -22,3 -32,1 -20,-5 -34,-10 -50,-24 -35,-30 -61,-18 -98,-3 -2,7 -10,11 -13,23l0 0c89,49 135,153 239,168 51,7 84,31 93,80 4,18 -7,40 1,58 7,14 39,52 39,64 25,6 170,181 189,208 61,91 97,58 97,181 0,71 70,60 75,104 4,39 -105,143 -144,137 -43,-7 -79,-64 -75,5 1,21 45,93 22,110 -53,37 -100,0 -155,0 -62,0 74,125 89,146 87,121 -37,112 -106,172l0 0c7,23 47,134 68,139 1,5 6,6 7,11 20,7 20,71 26,90 27,89 92,73 168,73 104,0 163,-10 239,66 -66,53 -206,285 -266,342 -56,52 -153,82 -86,172 37,50 94,55 151,64 79,12 91,80 168,99 133,33 47,79 62,177l0 0c41,19 58,16 97,4 40,-12 148,-105 161,-139 48,-125 -6,-142 146,-216 20,-10 35,-42 57,-46l0 0c-15,-51 -62,-78 -58,-139 3,-50 41,-62 71,-91 205,-205 179,-213 411,-362 33,-21 81,-64 104,-97 25,-36 23,-89 55,-121 60,-101 128,-207 221,-281 36,-29 91,-71 117,-110 16,-24 100,-167 113,-205 10,-28 8,-67 13,-97 63,-125 76,-222 181,-334 25,-27 55,-40 84,-62l0 0z"/>
  <path class="fil0 str0" d="M2981 11654l137 -21c103,30 182,38 272,-18 47,-29 17,-142 109,-49 58,58 326,0 418,-16 86,-16 184,-98 214,26 48,202 271,71 392,166 46,36 119,67 124,133 5,57 41,124 104,124 0,-43 -108,-163 -64,-203 106,-95 245,8 177,-225 -40,-137 -241,-29 -195,-168 131,0 208,-47 250,-159 68,-60 126,104 219,-2 85,-96 78,-312 234,-353 50,-13 149,39 201,51 34,8 83,7 111,-15 27,-21 46,-81 77,-90 11,-12 45,-48 62,-48 5,-16 64,101 69,108 43,48 161,-120 259,-86 125,43 79,274 228,309 136,32 296,216 405,24 81,0 18,248 155,196 103,-40 200,-110 310,-150l0 0c8,-90 -34,-174 -42,-261 -6,-60 -50,-77 0,-137 27,-32 155,-225 115,-258 -38,-32 -161,-155 -102,-203 16,-13 61,-79 75,-95 16,-18 15,-34 7,-57 -16,-43 -56,-80 -37,-130 50,-50 122,-63 122,-152 0,-55 -12,-157 -51,-192 -42,-38 -79,-58 -97,-115 -31,-100 -68,-466 -188,-490 -16,-32 -78,53 -100,-15 -18,-54 -35,-64 -71,-104 -58,-64 -241,-70 -241,-170 1,0 7,-5 7,-5 14,0 69,-28 71,-38 4,-1 6,-4 7,-7 47,-12 -21,-230 -27,-269 15,-44 50,-150 91,-175 45,-27 95,7 122,-15 115,-92 -47,-214 155,-201 71,5 153,-1 199,-55 27,-31 30,-65 75,-42 41,21 68,44 117,44 0,111 -79,103 16,207 55,60 136,72 212,84l0 0c5,-20 19,-48 27,-68 3,-6 10,-49 11,-49 0,-4 -1,-3 2,-4 0,-21 41,-46 53,-62 20,-27 13,-57 27,-82 34,-58 59,-98 75,-161 10,-38 32,-74 42,-115l4 -58c-29,0 -54,-28 -89,-26 -17,1 -64,66 -77,82 -64,80 -95,19 -162,-35 -54,-43 -121,8 -162,-18 -86,-55 6,-118 33,-163 47,-77 63,-150 15,-238 -39,-70 -176,-270 -265,-207 -57,41 -140,76 -199,22l-60 -87 0 0c-17,63 -487,220 -646,228l-545 25c-164,7 -407,48 -539,152l-408 196c-68,32 -124,82 -208,72l-240 -28c-3,-13 -72,-61 -83,-95 -21,-65 -72,-112 -96,-175 -23,-60 -12,-191 -38,-235 -29,-91 -172,-212 -242,-271 -76,-64 -160,-53 -247,-25 -54,18 -165,18 -207,48 -35,25 -67,93 -111,125 -40,29 -69,75 -114,105 -108,73 -255,180 -302,308 -84,141 -117,267 -177,421 -25,65 -46,179 -107,224 -202,150 -895,793 -971,972l-128 303c-42,101 -48,219 -48,330 6,68 -26,190 -45,256 -11,38 38,130 51,169 17,50 212,135 270,158 64,25 236,104 295,170 93,123 301,100 431,94 198,-8 461,-79 531,169 23,81 4,157 4,241 0,99 11,197 -20,292 -16,70 5,122 5,188 0,55 -18,113 -43,167l0 0z"/>
  <path class="fil0 str0" d="M8986 12480c50,-33 92,-40 147,-58 62,-22 170,-35 182,-118 6,-42 8,-61 58,-61 31,0 81,-21 98,-48 55,-63 48,-136 141,-164 47,-15 182,28 182,-26 0,-95 -16,-107 82,-86 98,21 86,38 150,108 125,136 90,-29 164,-62 58,-26 47,-44 27,-99 -13,-35 -34,-107 11,-110 123,-7 47,-6 135,55 57,39 147,78 195,126 114,115 49,-102 88,-115 92,-32 136,-107 184,-35 28,41 60,260 146,174 69,-70 192,-205 235,-29 66,-16 -27,-244 -31,-291 15,-36 12,-106 15,-146 5,-66 6,-73 40,-126 24,-38 10,-53 -2,-91 -16,-50 -2,-78 44,-101 68,-34 47,-94 124,-119l0 0c0,-99 -91,-175 -182,-201 -108,-30 -198,-142 -230,-245 -27,-86 -81,-106 -57,-203 -7,-73 41,-160 22,-223 -22,-70 -99,-83 -141,-146 -71,-109 -312,-107 -423,-126 -89,-15 -194,63 -235,46 -66,-27 -98,-35 -168,-22 -198,36 -127,-170 -301,-170 -1,-3 -2,-2 -5,-2 0,-69 1,-111 -15,-177 -16,-69 67,-101 51,-183l-84 -420c-15,-75 70,-118 89,-177l0 0c0,-76 -6,-155 -24,-227 -22,-89 -59,-86 -146,-86 -51,0 -110,87 -161,106 -66,25 -93,-107 -115,-146 -23,-42 -78,37 -95,51 -53,43 -51,-34 -57,-66 -10,-60 7,-100 -64,-90 -175,58 27,-215 27,-245 -44,-15 -151,-81 -157,18 -6,97 -82,162 -126,40 -72,-199 -255,-204 -436,-130 -54,22 -102,9 -155,20 -55,11 -53,91 -82,97 -13,53 -128,-12 -150,-15 -40,-5 -9,130 -38,144 0,41 -80,3 -93,-7 -35,-28 -29,51 -33,66 -32,115 -66,49 -133,-2l0 0c-75,-12 -157,-25 -212,-84 -96,-104 -16,-95 -16,-207 -49,0 -75,-23 -117,-44 -45,-23 -48,11 -75,42 -46,54 -128,59 -199,55 -203,-13 -40,109 -155,201 -27,21 -78,-13 -122,15 -41,25 -77,131 -91,175 7,39 75,257 27,269 -1,4 -4,6 -7,7 -2,10 -57,38 -71,38 0,1 -6,5 -7,5 0,100 183,106 241,170 36,40 53,51 71,104 22,67 84,-17 100,15 120,24 157,389 188,490 18,57 54,77 97,115 39,35 51,137 51,192 0,88 -72,102 -122,152 -19,50 21,87 37,130 8,22 9,39 -7,57 -14,16 -59,82 -75,95 -59,47 64,171 102,203 40,33 -88,225 -115,258 -50,60 -6,77 0,137 8,88 50,171 42,261l0 0c51,53 32,70 120,86 115,21 96,105 175,179 49,45 165,153 239,104 83,-54 80,-54 172,-37 137,26 109,-96 175,-163 85,-85 162,71 230,71 102,-10 195,73 254,148 47,61 79,85 84,172 4,74 40,228 -20,281 -24,21 -92,18 -124,31 -56,23 4,66 21,101 3,27 60,65 79,83 26,24 47,54 72,78 40,38 100,82 153,101 39,14 69,39 106,55l0 0z"/>
  <path class="fil0 str0" d="M5206 15471l69 -104c55,-55 143,-119 128,-205 -6,-34 -56,-32 -24,-77 61,-85 83,-76 109,-186 49,-206 107,-206 294,-252 57,-14 119,-45 179,-35 52,9 113,-3 146,-44 18,-22 148,86 232,40 55,-31 58,-141 111,-141 119,0 142,109 142,-71 0,-29 96,-241 117,-261 31,-54 164,-182 172,-212 17,-65 -30,-125 -9,-179 17,-44 76,-47 93,-95 19,-55 28,-133 84,-161 25,-13 132,-92 139,-117 75,0 23,125 84,152 59,26 107,2 188,26l292 86c79,23 30,-144 175,-144 212,0 250,-86 376,-232 47,-55 39,-175 141,-150 85,21 140,6 214,-31 0,-51 -74,-83 -24,-130 37,-34 70,-47 102,-90 11,-23 29,-48 29,-74 0,-37 -69,-37 -35,-88 21,-31 70,-79 103,-95l0 0c3,-12 11,-16 13,-23 37,-15 62,-28 98,3 16,14 30,19 50,24 9,2 23,1 32,-1 10,-2 13,-9 19,-12 0,-24 -9,-35 -18,-58 -9,-20 -33,-35 -40,-54l0 0c-37,-15 -67,-41 -106,-55 -53,-19 -113,-63 -153,-101 -26,-24 -46,-53 -72,-78 -19,-18 -76,-56 -79,-83 -17,-35 -77,-78 -21,-101 32,-13 100,-10 124,-31 60,-53 24,-207 20,-281 -5,-86 -36,-111 -84,-172 -59,-75 -151,-158 -254,-148 -68,0 -145,-156 -230,-71 -66,67 -38,189 -175,163 -92,-18 -89,-18 -172,37 -74,49 -190,-59 -239,-104 -79,-74 -60,-158 -175,-179 -89,-16 -69,-32 -120,-86l0 0c-111,40 -207,110 -310,150 -137,53 -74,-196 -155,-196 -109,192 -269,8 -405,-24 -149,-35 -103,-266 -228,-309 -98,-34 -216,134 -259,86 -6,-7 -64,-123 -69,-108 -17,0 -51,35 -62,48 -31,9 -49,69 -77,90 -28,22 -77,23 -111,15 -52,-12 -150,-65 -201,-51 -156,41 -149,257 -234,353 -93,105 -151,-58 -219,2 -42,112 -119,159 -250,159 -46,139 155,31 195,168 68,233 -71,130 -177,225 -44,40 64,160 64,203 -63,0 -99,-67 -104,-124 -5,-67 -78,-97 -124,-133 -121,-95 -345,35 -392,-166 -29,-124 -127,-41 -214,-26 -92,17 -360,75 -418,16 -93,-93 -63,20 -109,49 -90,56 -169,49 -272,18l-137 21 0 0c-22,47 -50,91 -79,129 -29,38 -83,90 -83,140 0,55 16,113 16,172 18,70 20,253 96,283 4,33 157,185 187,218 23,25 138,235 142,235 25,49 277,68 332,68 66,19 139,-8 206,-8 96,0 164,-82 265,-78 163,8 80,230 83,324l7 208 -4 234c19,73 111,121 148,186 30,53 29,109 58,161 50,87 137,153 202,229 50,59 121,169 121,250 -8,51 25,130 35,182 20,111 75,195 115,301 37,99 145,186 171,280 0,111 94,134 118,218 5,16 2,31 -6,44l0 0 95 43 0 0z"/>
  <path class="fil0 str0" d="M19460 11171l-30 -97c-24,-107 -88,-82 -170,-88 -106,-7 -244,-202 -115,-271 59,-31 336,-159 336,-225 -28,-9 -133,-33 -109,-75 36,-65 -22,-119 -9,-188l0 0 258 -9 0 0c-4,23 -18,49 -24,73 -18,69 49,17 82,-5 50,-34 66,-216 114,-207 85,17 160,-107 232,-90 83,20 243,-103 274,-176 37,-88 259,-9 333,11 94,12 158,-12 254,22 60,21 186,84 207,-6 7,-28 66,-103 47,-122 -32,-32 -33,-33 16,-33 37,0 223,16 234,27 14,14 29,38 51,38 36,0 78,45 42,76 -70,59 -10,90 2,146l0 0c-5,9 -7,20 -8,31 -1,8 -28,34 -51,2 -51,-70 -265,-1 -150,58 6,3 9,32 4,33 -45,5 -130,-44 -157,-13 -49,55 31,104 -7,132 -43,31 -53,31 -35,91 24,76 -41,86 -86,68 -31,-13 -25,-26 -64,-31 -20,-3 -85,-1 -113,24 -44,40 -34,52 -126,38 -99,-15 -52,81 -78,111 -33,38 -137,-14 -137,106 0,113 -78,55 -142,90 -57,30 -69,57 -111,106 -58,69 -46,-35 -139,40 -23,18 -45,37 -68,55 -37,30 -133,60 -161,75 -22,12 -13,57 -49,60 -42,4 -84,5 -126,11 -34,5 -68,13 -102,20 -25,5 6,50 15,64 8,12 8,29 -5,35 -14,5 -53,-3 -71,-4 -19,-1 -37,-2 -56,-3l0 0z"/>
  <path class="fil0 str0" d="M19363 10228c12,-63 26,-148 11,-210 -43,0 -61,68 -119,55 -32,-8 -49,-67 -84,-79 -29,-10 -116,133 -135,80l-38 -108c-16,0 -30,4 -46,4l-111 -35c-31,-107 -63,-22 -130,-48 -14,-5 -22,-17 -28,-31l0 0c-18,3 -138,72 -163,61 -91,-39 -57,-101 -86,-181 -16,-46 -33,-48 -62,-74 -26,-24 -120,-45 -147,-34 -22,9 -86,73 -109,90 -56,-23 -60,22 -86,58 0,28 20,100 0,122 -32,36 -77,54 -122,68 -56,17 -102,52 -150,84l0 0 135 115c19,26 52,61 76,88 70,81 80,236 225,226 61,-4 117,-146 136,-198 10,-29 85,-148 109,-171 45,-43 101,-79 129,-1 23,64 -5,162 -18,228 -15,77 -30,145 -60,218 -51,124 -82,180 -199,255 -34,22 -110,38 -156,60 -115,53 -134,82 -210,182 -15,19 -26,37 -39,56 -47,39 -80,78 -139,101 -60,23 -165,156 -169,218 -7,107 11,91 52,176 49,102 69,154 183,194 61,22 58,36 135,38 123,4 236,-39 351,-38 51,1 82,-9 136,11l4 2 40 18 0 0c42,-19 80,-42 112,-83 49,-60 62,-76 135,-102 31,-11 65,-3 99,-38 29,-32 9,-143 137,-110 143,37 336,-333 454,-327 15,1 29,2 44,2l0 0 -30 -97c-24,-107 -88,-82 -170,-88 -106,-7 -244,-202 -115,-271 59,-31 336,-159 336,-225 -28,-9 -133,-33 -109,-75 36,-65 -22,-119 -9,-188l0 0z"/>
  <path class="fil0 str0" d="M19363 10228l258 -9 0 0c4,-23 -3,-43 -39,-52 -51,-13 -37,-114 -19,-165 61,-183 229,-174 379,-257 41,-23 76,-73 120,-88 69,-23 145,11 216,-6 0,-18 -47,-27 -48,-43 -2,-14 55,-21 69,-27 57,-21 -108,-27 -114,-37 -29,-47 -25,-35 -80,-35 -57,0 -71,-79 -112,-37 -98,98 -54,-50 -59,-70 -12,-3 -15,-25 -37,-27 -24,-1 -45,10 -70,7 -39,-4 -35,-49 -35,-83 0,-23 61,-29 78,-34 45,-13 80,-15 115,-49 44,-44 -41,-50 11,-88 76,-55 94,-63 81,-154 -8,-57 -39,-329 -119,-329 -44,0 -81,10 -113,-29 -61,-75 -115,-87 -199,-58 -36,12 -108,65 -137,10 -19,-35 -2,-114 -13,-158 -8,-33 -35,-24 -57,-48 -30,-32 -22,-55 -39,-89 -18,-36 -60,-58 -82,-101 -42,-79 -11,-173 19,-252 3,-9 17,-73 4,-77 0,-23 -22,-49 -36,-66 -17,-21 -21,-58 -31,-83 -20,-47 -43,-117 -16,-166l0 0 -36 -24c-47,-13 -59,-28 -88,26 -26,50 -79,46 -121,22 -89,-49 -101,33 -203,11 -65,-14 -124,-75 -169,-4 -41,66 58,95 109,108 29,120 -98,19 -133,69 -34,49 -64,166 -123,166l0 0c-10,16 -88,107 -88,126 -31,10 43,84 44,86 41,10 14,66 86,48 38,-10 71,-50 104,-13 46,52 -15,70 -4,115 5,20 55,116 37,121 -8,31 -138,-30 -155,-38 -32,-15 -63,-36 -91,-57 -11,-8 -45,-61 -49,-75 -31,0 -55,17 -84,24 0,67 254,244 310,300 22,22 73,16 104,27 49,19 65,60 124,71 27,5 157,3 157,13 -6,59 -67,111 -110,154 -68,68 -154,112 -214,172 26,35 82,104 82,150 0,83 -71,9 -102,9 -7,-21 -112,25 -128,27l0 0c-15,73 -49,129 -11,197 15,27 33,46 44,77 10,28 33,94 33,126 0,28 -27,60 -44,82 -19,25 -4,51 5,77 20,54 83,58 115,90 12,12 18,31 26,47l0 0c7,14 15,26 28,31 67,25 98,-59 130,48l111 35c16,0 29,-4 46,-4l38 108c19,53 106,-90 135,-80 34,11 52,71 84,79 57,14 76,-55 119,-55 15,62 1,148 -11,210l0 0z"/>
  <path class="fil0 str0" d="M11690 1902l-20 307c2,81 10,125 28,202 22,98 -10,225 -59,311 -34,60 -53,205 -30,273 31,93 38,76 102,147 24,26 27,84 12,119 -43,90 -70,84 -150,121 -38,17 -144,67 -155,104 -19,67 -13,168 -37,234 -20,56 -19,86 -65,137 -54,60 -123,170 -136,250 -8,49 -22,122 -11,169 4,17 44,124 48,131l0 0c-49,-7 -115,44 -181,55 -67,11 -166,-40 -210,-4 -129,106 -332,43 -474,9 -92,-22 -156,74 -230,108 -37,17 -197,156 -197,199 0,83 24,109 -58,132 -103,28 -15,120 -80,161 -89,55 -138,-29 -217,77 -152,205 -548,-259 -630,-166 -82,93 -170,-137 -223,-199l-65 -129 0 0c113,-80 229,-158 361,-210l248 -100c125,-50 81,-106 151,-205 0,-69 102,-184 140,-240 213,-320 689,-994 657,-1389 11,-79 51,-159 71,-239l53 -212c37,-150 142,-200 290,-246 89,-28 194,-90 285,-101 151,-50 330,-47 440,-175 10,-12 35,-33 67,-59l0 0 56 35c65,43 -63,194 -43,281 31,131 98,111 215,111 16,0 31,0 47,0l0 0z"/>
  <path class="fil0 str0" d="M12082 5059c-64,-23 -135,50 -193,48 -24,-1 -29,-19 -22,-39 9,-27 22,-53 41,-74 23,-26 69,-57 69,-96 0,-39 -37,-71 -32,-111 3,-24 6,-60 -1,-82 -5,-15 -16,-27 -16,-39 -55,39 -100,-27 -123,-70 -8,-15 -19,-63 -37,-64 -21,-1 -6,128 -19,154 -19,38 -60,80 -101,40 -17,-16 -36,-229 -96,-125 -24,42 -58,82 -111,82 -55,-14 -96,-67 -116,-112 -18,-40 -39,-83 -53,-124 -10,-31 -12,-60 -53,-38l0 0c-4,-7 -44,-114 -48,-131 -11,-47 3,-120 11,-169 13,-80 82,-189 136,-250 46,-51 44,-81 65,-137 24,-65 19,-167 37,-234 10,-38 117,-87 155,-104 81,-36 108,-31 150,-121 15,-35 12,-93 -12,-119 -64,-71 -71,-54 -102,-147 -23,-68 -4,-213 30,-273 49,-86 81,-213 59,-311 -17,-77 -26,-121 -28,-202l20 -307 0 0c273,1 540,14 814,32 142,9 270,1 395,69l0 0c-2,21 -26,47 -9,65 31,34 103,18 113,69 7,36 9,91 -8,123 -41,78 -163,17 -190,75 -17,37 27,93 40,127 9,24 35,69 65,69 41,0 77,-21 101,-54 15,-20 25,-14 37,0 37,42 130,-42 118,45 -5,25 -23,149 -42,154 0,12 -22,44 -26,62 -9,37 -2,91 -5,130 -1,22 -1,48 -9,68 -3,6 -13,48 -3,49 3,14 85,23 96,63 10,37 -37,138 -71,149 -78,25 -114,34 -103,113 16,41 63,54 92,80 19,17 -20,179 8,229 50,89 58,-38 117,-49 71,-14 137,6 203,-1 42,-4 102,-82 149,-103 57,-26 215,-16 231,47 24,92 9,111 70,194 67,91 215,-29 253,75 21,57 27,75 89,90 19,5 149,0 153,-15 59,-36 27,-17 85,6 76,31 109,-40 170,-49 95,-14 69,6 89,-75 16,-4 41,-13 62,-8 0,37 -104,175 25,175 50,0 23,-76 61,-92 29,-13 72,3 95,10 0,13 -7,22 -16,31 -24,24 22,97 46,103 3,12 -65,61 -79,63 -9,37 -69,25 -27,82 49,68 59,31 37,126 -5,22 -13,62 10,76 11,7 78,6 78,16 3,1 6,34 10,39 32,50 76,67 132,91 33,59 38,143 0,196 -15,20 -20,35 -21,47l0 0 -100 -74c-78,-44 -88,73 -150,113 -84,55 -99,-35 -99,-97 0,-215 -112,42 -151,42 -161,0 -45,55 -131,150 -120,132 -198,55 -354,79 -53,8 -158,22 -75,-68 72,-77 0,-85 0,-161 -19,0 -205,165 -245,121 -52,-58 -47,-126 -157,-135 -27,-2 -144,92 -182,111 -61,30 40,121 -16,168 -29,24 -84,-46 -131,-31 -111,34 -151,19 -243,93 -42,34 -88,-27 -166,15 -120,63 -196,-78 -276,-135 -72,-52 -159,91 -268,91 -68,-18 -109,5 -170,22 -45,13 -92,27 -128,62l0 0z"/>
  <path class="fil0 str0" d="M6959 7070l60 87c59,54 142,19 199,-22 89,-64 226,137 265,207 49,88 33,161 -15,238 -27,44 -119,108 -33,163 42,27 108,-25 162,18 67,53 98,114 162,35 13,-16 60,-81 77,-82 35,-3 60,26 89,26l-4 58c-10,42 -32,77 -42,115 -16,63 -41,103 -75,161 -15,25 -8,55 -27,82 -12,16 -53,42 -53,62 -3,1 -2,0 -2,4 -1,0 -8,43 -11,49 -9,19 -22,47 -27,68l0 0c68,51 101,117 133,2 4,-15 -3,-94 33,-66 13,10 93,49 93,7 29,-15 -2,-149 38,-144 22,2 137,67 150,15 29,-6 28,-85 82,-97 53,-11 101,2 155,-20 181,-74 364,-69 436,130 44,122 120,57 126,-40 6,-100 113,-33 157,-18 0,30 -203,303 -27,245 71,-10 54,30 64,90 5,32 4,109 57,66 17,-14 72,-93 95,-51 22,39 49,172 115,146 50,-19 109,-106 161,-106 87,0 124,-3 146,86 18,71 24,150 24,227l0 0c39,11 68,25 109,4 28,-14 65,-58 95,-60 31,-2 56,111 73,137 28,42 59,82 77,132 14,40 67,118 115,69 32,-32 82,-148 104,-192 21,-14 70,-58 93,-58 6,-25 80,-49 104,-44 72,16 34,-104 64,-126 84,-61 -15,-182 62,-269 40,-45 55,-102 119,-57 100,72 155,-85 155,-161 3,-1 3,0 4,-4 137,-34 98,99 208,99 113,0 223,-28 327,-31l0 0c0,-40 29,-100 42,-139 17,-52 -11,-104 -36,-148 -47,-80 -33,-224 -27,-337 -11,-38 -25,-60 -43,-89 -31,-50 -56,-66 -98,-99 -145,-116 -227,-157 -306,-336 -35,-80 -184,-190 -74,-298 64,-64 70,-114 111,-165 70,-87 36,-156 96,-230 37,-46 113,-66 166,-52 1,0 206,29 207,29 92,0 144,-19 198,-86 87,-108 86,-138 129,-277 37,-64 43,-147 30,-219 -20,-119 97,-155 91,-265 -2,-42 -91,-134 -40,-172 54,-40 226,-48 246,-110 13,-40 -69,-60 -91,-91 -39,-55 100,-61 49,-102l0 0c-64,-23 -135,50 -193,48 -24,-1 -29,-19 -22,-39 9,-27 22,-53 41,-74 23,-26 69,-57 69,-96 0,-39 -37,-71 -32,-111 3,-24 6,-60 -1,-82 -5,-15 -16,-27 -16,-39 -55,39 -100,-27 -123,-70 -8,-15 -19,-63 -37,-64 -21,-1 -6,128 -19,154 -19,38 -60,80 -101,40 -17,-16 -36,-229 -96,-125 -24,42 -58,82 -111,82 -55,-14 -96,-67 -116,-112 -18,-40 -39,-83 -53,-124 -10,-31 -12,-60 -53,-38l0 0c-49,-7 -115,44 -181,55 -67,11 -166,-40 -210,-4 -129,106 -332,43 -474,9 -92,-22 -156,74 -230,108 -37,17 -197,156 -197,199 0,83 24,109 -58,132 -103,28 -15,120 -80,161 -89,55 -138,-29 -217,77 -152,205 -548,-259 -630,-166 -82,93 -170,-137 -223,-199l-65 -129 0 0c-128,91 -253,185 -394,251 -38,15 -76,29 -117,29 -45,0 -232,251 -257,302 -28,56 -35,131 -58,192 -29,77 -41,165 -74,239 -44,152 -85,324 -193,434l-179 181c-52,52 -197,125 -224,194 -34,63 -141,150 -141,218 0,114 -28,271 -57,378l0 0z"/>
  <path class="fil0 str0" d="M11812 12547c3,35 5,57 35,79 63,46 75,59 -4,91 -25,10 -75,37 -84,64 -16,46 -2,106 -46,137 -26,19 -62,28 -95,29 -40,2 -75,20 -115,24l0 0c-3,-47 19,-108 5,-152 -27,-88 -22,-143 51,-201 43,-34 70,-71 109,-106 26,-23 64,-6 91,11l51 24 0 0zm171 -76c33,19 52,21 86,10 41,-14 51,12 93,12 50,-48 36,-50 68,-83 22,-23 45,23 48,-10 3,-33 -8,-82 23,-82 11,0 58,-10 63,-18 46,-66 44,-111 108,-170 41,-38 81,-46 128,-16 20,13 -38,76 -33,136l0 0c41,60 175,86 241,106 77,24 285,2 372,-13 46,-8 149,-20 190,-2 59,27 53,111 124,115 103,20 238,-15 334,20 78,28 186,31 266,51 0,49 -84,70 -26,128 37,37 58,27 78,82 13,33 35,152 69,166 53,22 176,-76 186,-37 116,17 254,179 254,-58 13,-4 61,-49 88,-58l0 0c18,-49 47,-120 31,-168 -112,0 -292,-201 -197,-307 42,-47 111,54 111,-68 0,-45 120,-127 100,-154 0,-66 -61,-67 -85,-115 -25,-51 64,-82 50,-134 -9,-35 -63,-19 -85,-8 -52,25 -53,76 -89,112 -45,45 -105,-26 -142,-53 -23,-52 -65,-68 -65,-133 0,-38 -2,-116 -25,-148 -64,-90 -51,-142 6,-227 36,-53 27,-102 10,-156 2,-20 -2,-45 5,-63 7,-16 14,-30 22,-46 16,-33 12,-76 6,-111 -2,-14 1,-29 -1,-43l0 0c-15,-35 -39,-60 -59,-90 -26,-38 -60,-73 -98,-97 -23,-15 -53,-27 -71,-48 -17,-86 -14,-166 -93,-219 -75,-51 -165,-39 -210,-122 -32,-59 -117,-360 -46,-389 85,-35 203,-53 192,-174l0 0c-1,-3 -11,-26 -11,-29 -133,0 -254,-100 -381,-82 -11,80 -86,186 -93,260 -16,161 -105,231 -241,303 -78,42 -56,89 -9,152 61,81 7,129 -38,197 -80,67 -142,111 -246,99 -96,-12 -349,170 -381,177 -57,14 -90,103 -141,132 -18,10 -34,5 -51,11 -14,5 -39,32 -51,42l0 0c77,114 -30,201 -55,313 -15,65 47,108 108,93 68,-17 122,-107 168,-119 4,6 9,24 16,26 0,29 -47,230 -73,252 -39,33 -97,36 -144,46 -30,6 -106,9 -78,46 46,62 53,96 4,157 -74,92 -60,149 -193,185 -122,32 -29,174 -66,247 -4,22 0,38 0,60 0,12 -2,23 -7,33 -4,8 -6,14 -11,22 -17,27 -32,44 -55,62l0 0z"/>
  
  
  
  
  
  
  
  
  
  
  
  
  
  
  <g id="_2356974125840">
   
   
   
   
   
   
   
   
  </g>
  <g id="_2356974188976">
   
   
   
   
   
   
   
   
   
   
   
   
   
   
  </g>
 </g>
</svg>