<svg xmlns="http://www.w3.org/2000/svg" xmlns:xlink="http://www.w3.org/1999/xlink" xml:space="preserve" width="210mm" height="297mm" version="1.1" style="shape-rendering:geometricPrecision; text-rendering:geometricPrecision; image-rendering:optimizeQuality; fill-rule:evenodd; clip-rule:evenodd" viewBox="0 0 21000 29700">
 <defs>
  <style type="text/css">
   <![CDATA[
    .str1 {stroke:white;stroke-width:50;stroke-opacity:0.501961}
    .str3 {stroke:white;stroke-width:50}
    .str5 {stroke:#434242;stroke-width:50}
    .str2 {stroke:#3F3E3F;stroke-width:50}
    .str0 {stroke:white;stroke-width:50}
    .str6 {stroke:#2B2A29;stroke-width:7.62}
    .str4 {stroke:white;stroke-width:7.62}
    .fil6 {fill:none}
    .fil0 {fill:#171729}
    .fil8 {fill:#D9DADA}
    .fil4 {fill:#171729;fill-rule:nonzero}
    .fil3 {fill:#D9DADA;fill-rule:nonzero}
    .fil7 {fill:#434242;fill-rule:nonzero}
    .fil5 {fill:#2B2A29;fill-rule:nonzero}
    .fil2 {fill:black;fill-rule:nonzero}
    .fil1 {fill:#171729;fill-rule:nonzero;fill-opacity:0.501961}
   ]]>
  </style>
 </defs>
 <g id="Plan_x0020_1">
  <metadata id="CorelCorpID_0Corel-Layer"/>
  <path class="fil0 str0" d="M10853 18187c115,-14 406,-264 498,-346 98,-88 264,-273 412,-215 259,101 349,216 655,203 130,-5 282,-24 405,-62 189,-58 183,117 307,117l546 67c144,18 181,-87 353,-67 286,34 398,-223 620,-189 270,42 299,45 503,-146 292,-273 559,-337 946,-224 78,23 322,102 388,43 122,-108 167,-67 403,-41l0 0c-71,-117 -111,-283 -166,-407 -20,-44 -77,-187 -77,-229 -2,-11 -7,-20 -10,-31 -55,-71 -53,-314 -49,-403l17 -405c3,-64 -16,-160 1,-221 0,-115 -13,-244 4,-357 17,-119 -29,-152 -97,-242 -34,-46 -122,-136 -132,-187 -16,-82 -33,-185 -64,-263 -27,-110 26,-130 94,-204l303 -327c67,-72 84,-194 148,-264 46,-51 110,-217 123,-285 62,-93 38,-317 31,-426 -7,-109 159,-252 178,-363 26,-6 124,-71 147,-90 59,-47 142,-70 205,-113 91,-53 213,-329 188,-433 -33,-139 -90,-303 -2,-430 70,-101 -28,-136 -73,-214 -28,-55 -75,-129 -25,-191 57,-70 135,-130 185,-209 115,-184 136,-390 117,-600 -75,-135 -166,-287 -166,-449 0,-154 66,-257 92,-397 10,-58 4,-195 -12,-253 10,-145 9,-300 133,-394 49,-37 317,-222 324,-269l37 -246c7,-47 31,-92 31,-138 0,-302 -38,-761 -123,-1054 -54,-144 -192,-228 -284,-349l-315 -414c-24,-31 -59,-44 -83,-72 -15,-17 85,-215 69,-261 43,-173 85,-365 91,-545 5,-151 -7,-384 -61,-523 -9,-80 -39,-158 -42,-236 -3,-78 25,-159 39,-235 26,-139 81,-219 -10,-338 -57,-76 -151,-144 -192,-234 -38,-68 -151,-104 -207,-160l-170 -171c-105,-105 -174,-288 -297,-366l-285 -181c-78,-50 -249,-191 -334,-191 -260,-52 -500,-190 -756,-247 -188,-42 -488,-66 -676,-32 -181,290 -249,69 -299,-154 -22,-109 -160,-164 -247,-217 -32,-20 -241,-180 -244,-206 -10,-71 -27,-147 -60,-209l-114 -221c-35,-67 -318,-34 -340,54 -12,50 96,130 130,153 45,90 94,78 18,177l-185 239c-38,49 -104,28 -154,51l-236 109c-127,58 -283,15 -405,69 -145,65 -239,181 -211,346 -11,170 -63,329 -105,492 -51,199 -65,280 -303,280 -335,0 -615,-455 -966,-160l-338 247 -291 304c-189,197 -371,263 -613,357 -61,31 -69,88 -98,147 -27,54 -150,106 -203,136 -152,86 -328,65 -475,-6 -64,-31 -164,-115 -231,-103l-440 80c-49,9 -128,107 -162,144 -117,73 -263,78 -362,162 -166,141 -261,93 -467,93 -11,23 -169,160 -198,172 -65,26 -159,-13 -204,48 -75,100 -201,307 -341,245 -105,-46 -74,-100 -145,-152l-36 -57c-124,-90 -207,-272 -394,-142 -148,103 -353,-40 -361,174 -1,34 -30,258 -55,258 -4,11 -398,-166 -639,-282 -204,-98 -399,-119 -573,29 -57,92 -39,142 -30,241 6,63 40,131 25,192 -32,128 -144,246 -204,365 -40,80 -16,146 -8,229 72,96 135,233 203,337 65,100 -1,160 8,263l0 0 1055 519 129 265 -479 439 231 375 91 227 2 86 -129 100 -188 186 -45 647c-94,19 -254,1 -319,67 -74,74 -47,292 -69,401 -70,345 -64,1014 -313,1278 -57,60 -128,104 -186,166l-158 171c-130,135 -8,402 -8,560 -38,10 -133,85 -237,178l5 -4 290 -37c79,-30 162,-113 229,-167 69,-56 297,-23 400,-69 65,-29 42,-256 86,-327 107,-173 405,-181 584,-236 99,-31 507,300 567,384l412 461c42,47 88,148 160,148 245,0 439,296 624,454 167,142 259,357 453,468l0 0c195,-104 413,-91 617,-134 232,-49 331,-76 553,10 233,90 607,-50 751,160 149,217 228,303 527,303 22,88 -33,192 -33,286 0,178 -89,124 -112,215 -39,13 33,128 -36,155 -2,9 -51,66 -60,67 -15,88 -451,635 -486,666 -81,71 17,244 43,329 32,104 74,186 91,296 25,166 46,292 126,444 78,148 48,263 48,432 -46,394 -458,861 -169,1246 186,249 494,63 717,-38 126,-57 270,-111 410,-105 159,6 187,70 293,155l0 0z"/>
  <path class="fil0 str0" d="M3767 12622l290 -37c79,-30 162,-113 229,-167 69,-56 297,-23 400,-69 65,-29 42,-256 86,-327 107,-173 405,-181 584,-236 99,-31 507,300 567,384l412 461c42,47 88,148 160,148 245,0 439,296 624,454 167,142 259,357 453,468l0 0 -21 55c-48,30 -82,77 -133,100 -40,18 -70,46 -107,72 -82,57 -143,159 -143,260 0,60 8,170 -31,215 -48,107 -185,322 -157,439 19,81 154,259 229,298 185,98 302,365 155,547 -90,111 -69,343 -69,492 0,111 30,277 0,380 0,169 -36,491 52,630 140,220 -7,271 -7,482 0,91 128,228 210,153 184,-169 117,-215 117,-432 108,0 135,84 224,95 111,15 236,-17 343,5 182,37 203,310 153,475 -67,219 -58,186 -250,232 -102,24 -138,57 -203,134 -191,191 -21,376 -338,535 -142,71 -489,228 -350,437 70,105 238,197 238,337 0,304 -195,239 -400,337 -119,57 -235,141 -248,282 0,200 360,323 479,456 160,179 -72,459 24,692 47,116 221,174 305,267 99,109 226,460 186,611 -49,131 -122,98 -248,98 -109,0 -243,192 -312,270 -175,198 -267,463 -450,654l-51 267 0 0c-46,17 -92,43 -133,58 -217,77 -422,195 -667,155 -192,-31 -177,-298 -391,-313 -58,-4 -116,-8 -174,-12 -264,-18 -499,-83 -646,189 -98,182 -235,301 -450,248 -148,-36 -141,-152 -317,-174 -136,-18 -148,-85 -250,-148 -106,-66 -299,-54 -386,-141 -49,-49 -103,-65 -129,-138 -23,-65 -50,-140 -43,-212 9,-87 14,-200 5,-285 -1,-9 -86,-162 -105,-190 -73,-110 -100,-161 -100,-314 0,-56 76,-327 29,-347 -9,-4 -67,-49 -81,-71 -60,-94 -32,-172 -148,-224 -66,-29 -157,27 -219,-10 -105,-62 -155,-172 -281,-205 -97,-25 -310,82 -385,132l0 0 -1 -112 2 -337c1,-95 49,-184 81,-271 63,-170 169,-319 231,-486 0,-284 91,-576 135,-850 11,-68 46,-132 52,-199 70,-152 166,-299 241,-445l198 -387c48,-94 12,-152 -23,-242 0,-75 -62,-107 -76,-159 -34,-4 -190,-148 -207,-179 -40,-72 -27,-173 -11,-251l107 -524c0,-212 108,-261 244,-388 131,-121 204,-165 145,-354 -27,-88 -23,-256 -77,-327 -26,-156 -110,-256 -191,-388 -73,-118 -182,-228 -188,-374 -5,-113 51,-166 91,-259 55,-88 163,-189 181,-290 13,-73 8,-171 48,-233 41,-65 33,-70 14,-140 -18,-67 -39,-164 -74,-226 -47,-84 84,-83 128,-153 53,-63 88,-125 88,-210 0,-51 109,-43 143,-73 117,-105 29,-353 55,-489 22,-118 118,-169 186,-255 47,-60 203,-217 345,-344l5 -4z"/>
  <path class="fil0 str0" d="M7573 13699c195,-104 413,-91 617,-134 232,-49 331,-76 553,10 233,90 607,-50 751,160 149,217 228,303 527,303 22,88 -33,192 -33,286 0,178 -89,124 -112,215 -39,13 33,128 -36,155 -2,9 -51,66 -60,67 -15,88 -451,635 -486,666 -81,71 17,244 43,329 32,104 74,186 91,296 25,166 46,292 126,444 78,148 48,263 48,432 -46,394 -458,861 -169,1246 186,249 494,63 717,-38 126,-57 270,-111 410,-105 159,6 187,70 293,155l0 0c-38,56 -87,104 -117,167 -79,168 33,385 33,556 228,414 -475,472 -603,728 -97,194 -152,480 -188,697 -63,376 77,342 293,559 118,151 392,253 562,339 228,115 38,600 38,812 0,347 441,507 697,620l0 0c-81,107 177,273 86,365 -53,53 -43,199 -211,283 -120,60 -307,110 -340,215 -26,84 -123,228 -241,235 -113,7 -94,-24 -265,44 -89,35 -65,-6 -129,141 -245,567 -135,592 -598,656 -35,5 -46,34 -44,74 -87,0 -345,-186 -426,-236 -92,-57 -236,-19 -358,-74 -151,-68 -325,-125 -491,-74 -221,68 -295,-176 -410,-251 -34,-22 -68,-45 -102,-67 -86,-56 -66,112 -126,91 -88,-32 -109,21 -188,17 -40,-2 -14,-161 -14,-189 0,-78 -36,-123 -112,-143 -10,-3 -33,-63 -41,-76 -22,-39 -237,-85 -300,-29 -32,28 -100,-31 -138,-36 -56,-6 -136,45 -179,-7 -50,-61 -112,-54 -174,-31l0 0 51 -267c183,-191 275,-456 450,-654 69,-78 204,-270 312,-270 126,0 199,33 248,-98 40,-151 -87,-502 -186,-611 -84,-93 -258,-152 -305,-267 -96,-233 136,-514 -24,-692 -119,-133 -479,-256 -479,-456 13,-141 128,-225 248,-282 206,-97 400,-33 400,-337 0,-140 -168,-231 -238,-337 -139,-209 208,-366 350,-437 318,-159 148,-344 338,-535 64,-77 101,-109 203,-134 193,-46 183,-12 250,-232 51,-165 30,-438 -153,-475 -108,-22 -232,10 -343,-5 -89,-12 -116,-95 -224,-95 0,218 67,263 -117,432 -82,75 -210,-62 -210,-153 0,-211 147,-262 7,-482 -88,-139 -52,-461 -52,-630 30,-102 0,-268 0,-380 0,-148 -21,-381 69,-492 147,-181 30,-449 -155,-547 -74,-39 -210,-217 -229,-298 -28,-117 110,-332 157,-439 39,-45 31,-155 31,-215 0,-101 61,-203 143,-260 37,-26 67,-54 107,-72 51,-23 86,-70 133,-100l21 -55 0 0z"/>
  <path class="fil0 str0" d="M10853 18187c-38,56 -87,104 -117,167 -79,168 33,385 33,556 228,414 -475,472 -603,728 -97,194 -152,480 -188,697 -63,376 77,342 293,559 118,151 392,253 562,339 228,115 38,600 38,812 0,347 441,507 697,620l0 0c19,-25 57,-47 123,-64 109,-33 182,56 220,-35 74,-176 193,-152 305,-152 117,0 296,-93 424,-124 114,-27 257,43 366,-7 69,46 139,204 221,223 150,35 247,-46 386,74 99,85 162,319 307,349 330,38 336,-180 596,-277 383,-142 720,132 839,470 55,156 24,323 198,420 214,119 467,-99 661,-163l0 0c-42,-42 -61,-102 -42,-185 73,-109 125,-403 236,-460 105,-53 381,-166 416,-282 25,-80 98,-187 100,-271 83,-215 117,-420 124,-651 6,-198 45,-245 168,-380 171,-152 520,-200 736,-269 231,-74 446,82 674,-30l375 -183c79,-90 120,-146 124,-267 3,-82 -2,-174 17,-253 35,-148 109,-335 168,-474l-4 -164 0 0c-12,1 -23,0 -34,-1l-615 -378c-9,-92 -169,-371 -251,-413 0,-16 -210,-121 -231,-172 -39,-94 -47,-169 -125,-247 -165,-165 -408,18 -568,-204 -86,-120 -254,-212 -321,-337 -99,-99 -160,-279 -247,-396 -8,-11 -16,-23 -23,-35l0 0c-237,-26 -282,-67 -403,41 -66,59 -311,-20 -388,-43 -387,-112 -654,-49 -946,224 -204,191 -232,187 -503,146 -221,-34 -334,222 -620,189 -172,-20 -208,85 -353,67l-546 -67c-124,0 -118,-175 -307,-117 -123,38 -275,57 -405,62 -306,13 -396,-102 -655,-203 -148,-58 -314,127 -412,215 -92,82 -383,332 -498,346l0 0z"/>
  
  
  
  
  
  
  
  
  
  
  
  
  
  
  
  <g id="_2356831913024">
   
   
   
   
   
   
   
   
  </g>
  <g id="_2356831912160">
   
   
   
   
   
   
   
   
   
   
   
   
   
   
  </g>
 </g>
</svg>