<svg xmlns="http://www.w3.org/2000/svg" xmlns:xlink="http://www.w3.org/1999/xlink" xml:space="preserve" width="210mm" height="297mm" version="1.1" style="shape-rendering:geometricPrecision; text-rendering:geometricPrecision; image-rendering:optimizeQuality; fill-rule:evenodd; clip-rule:evenodd" viewBox="0 0 21000 29700">
 <defs>
  <style type="text/css">
   <![CDATA[
    .str1 {stroke:white;stroke-width:50;stroke-opacity:0.501961}
    .str3 {stroke:white;stroke-width:50}
    .str5 {stroke:#434242;stroke-width:50}
    .str0 {stroke:white;stroke-width:50}
    .str2 {stroke:white;stroke-width:50}
    .str6 {stroke:#2B2A29;stroke-width:7.62}
    .str4 {stroke:white;stroke-width:7.62}
    .fil6 {fill:none}
    .fil1 {fill:#171729}
    .fil0 {fill:#171729}
    .fil8 {fill:#D9DADA}
    .fil5 {fill:#171729;fill-rule:nonzero}
    .fil4 {fill:#D9DADA;fill-rule:nonzero}
    .fil7 {fill:#434242;fill-rule:nonzero}
    .fil3 {fill:black;fill-rule:nonzero}
    .fil2 {fill:#171729;fill-rule:nonzero;fill-opacity:0.501961}
   ]]>
  </style>
 </defs>
 <g id="Plan_x0020_1">
  <metadata id="CorelCorpID_0Corel-Layer"/>
  
  
  
  <path class="fil1 str0" d="M9747 13906l10 315c9,51 7,76 4,124 -6,89 -16,129 -58,208 -33,62 -68,123 -101,186 42,78 43,79 110,118 109,63 192,187 205,314 7,69 29,123 27,204 -3,128 -17,205 -41,329 -14,73 -14,194 -5,269 6,53 8,101 22,155 -5,73 0,149 20,218 21,71 11,161 69,230 68,80 68,61 164,69 9,1 76,134 80,153 25,104 88,225 -80,218 -83,-4 -44,77 -119,97 -33,9 -136,51 -117,99 49,125 62,223 208,123 87,-60 208,-100 241,32 21,83 24,69 27,159 4,111 128,117 143,220 14,98 67,196 142,260l11 11c68,156 59,67 126,156 62,83 76,207 110,301 29,79 0,54 54,142 23,37 12,147 33,205 36,99 -16,183 158,77 41,-25 88,-116 88,-26 0,32 -7,214 47,192 57,-24 102,-74 182,-74 59,0 152,48 192,-42 11,-24 18,-121 1,-151 -40,-72 -51,-124 -102,-202 -29,-44 -35,-73 -77,-130 -35,-48 -136,-177 -24,-203 120,-28 184,-144 299,9 79,105 152,33 269,119 121,88 199,-10 166,214 -23,162 -135,208 -147,288 -8,51 152,56 193,66 21,5 103,4 149,13 28,5 112,23 139,30l0 0c58,-20 73,8 96,9 69,4 24,-176 116,-114 81,54 145,76 235,27 125,-69 65,120 175,62 80,-42 110,-18 89,-125 -10,-49 -6,-51 -10,-107 -4,-10 -8,-32 -11,-43 -8,-39 -31,-59 -16,-97 23,-57 -41,-110 6,-128 24,-9 61,-2 108,-22 44,-18 80,-31 104,-72 29,-50 21,-44 75,-59 32,-8 41,-42 37,-72 -14,-92 39,-23 62,-18 85,20 70,-101 68,-152 -2,-52 -42,-86 -28,-116 35,-73 36,-21 24,-126 -23,-45 -76,-72 -127,-66 -53,6 -12,-79 44,-92 82,-19 -86,-73 -88,-131 -1,-45 31,-113 82,-116 72,-5 36,-36 27,-74 -8,-35 -55,-60 -83,-53 -54,12 -29,-48 -1,-75 14,-13 -34,-58 -45,-58 -42,-1 -19,-49 -7,-71 37,-64 13,-52 14,-105 1,-40 -4,-64 -5,-103 9,-37 -2,-79 -25,-109 -60,-76 61,-144 21,-245 -16,-41 -20,-70 -33,-107 -33,-96 -52,-91 -22,-192 47,-160 -63,-76 -72,-140 -10,-71 35,-54 -19,-136 -7,-16 -22,-48 -26,-61 -7,-27 11,-81 20,-110 13,-45 12,-111 -6,-154 -31,-72 -25,-69 -22,-144 3,-69 -35,-76 -52,-111 -10,-21 11,-112 -5,-172 -8,-30 -51,-69 -76,-84 -18,-10 -41,-26 -33,-51 11,-33 20,-48 28,-87 3,-50 79,-102 124,-113 87,-20 106,-53 95,-136 -7,-53 -6,-44 -2,-95 3,-41 43,-101 48,-133 9,-65 -36,-140 -2,-182 92,-112 155,-55 198,-74 58,-25 45,34 73,61 34,34 60,7 79,-24 36,-61 31,-52 65,-5 46,64 46,54 82,132l4 9c37,106 49,371 109,446 53,67 51,58 33,136 -7,30 48,105 62,126 5,14 18,41 21,53 11,58 73,41 116,41 58,0 0,95 75,122 41,15 42,43 61,48 57,13 82,0 140,14 25,6 141,96 151,124 23,68 98,66 143,19 59,-61 92,3 153,23 45,15 112,57 152,53 40,-4 26,11 46,17 45,12 70,-62 80,-90 0,-71 -107,-46 -98,-133 9,-84 14,-102 74,-158 55,-52 54,-143 73,-162 20,-20 87,22 136,21 69,-1 124,-26 170,-78 49,-55 54,-91 125,-127 16,-12 91,-45 113,-53 117,-43 42,-181 135,-243 58,-39 77,-59 118,-116 41,-58 39,-68 56,-133 6,-25 12,-81 30,-91 36,-21 26,-15 56,-43 86,-84 59,81 199,-27 79,-61 75,-87 177,-55l0 0c21,-53 82,-117 46,-177 -12,-19 -125,-79 -150,-87 -89,-28 -81,-168 -76,-241l-9 -941 -5 -300 -187 -681c-3,-18 -5,-36 -10,-54 -15,-58 -36,-158 -58,-211 -19,-45 -38,-110 -60,-150 -30,-56 -41,-79 -83,-130 -63,-78 -148,-108 -246,-106 -41,1 -92,-9 -128,-8 -47,1 -102,-13 -150,-15 -34,-1 -7,-70 -2,-88 19,-68 26,-74 37,-152l1 -3c7,-32 11,-60 19,-94 22,-94 22,-142 -54,-209 -41,-37 -36,-51 -59,-88 -19,-31 -22,-60 -32,-77 -22,-35 -30,-71 -56,-109l0 0 -43 -48c-17,-51 -44,-105 0,-154 42,-47 37,-44 63,-104 2,-10 5,-45 5,-56 0,-33 -6,-30 -9,-50 -5,-30 -68,-56 -92,-61 -71,-13 -70,-12 -133,-46 -50,-27 -53,-34 -90,-71 -22,-22 -76,-51 -56,-88 30,-58 44,-109 54,-173 10,-66 25,-76 25,-150 0,-63 10,-120 14,-179 4,-67 17,-61 0,-138 6,-20 27,-96 25,-112 -13,-98 -20,-102 28,-190 11,-20 54,-57 46,-72 -4,-10 -94,-21 -108,-22 -49,-5 -78,-13 -126,-21 -30,2 -72,11 -107,14 -71,6 -141,34 -205,66 -48,24 -79,83 -134,41 -100,-76 -121,-28 -176,-47 -37,-13 -45,-83 -77,-57 -31,25 -19,72 -53,124 -49,74 -1,46 -20,95 -21,53 5,98 -64,126 -19,7 -79,-50 -97,-44 -21,6 -48,86 -68,108 -75,81 -53,45 -139,59 -28,5 -24,5 -53,6 -31,1 -22,-3 -44,-10 -32,-10 -81,-80 -99,-106 -21,-16 -44,-38 -62,-58 -36,-40 -41,-86 -65,-127 -30,-51 -41,-61 -85,-97 -20,-17 -93,-28 -119,-28 -54,0 -101,-37 -133,-77 -11,-14 -29,-26 -34,-32 -26,-30 -85,-44 -96,-72 -23,-57 -15,-46 -68,-84 0,-17 -7,-71 -2,-86 6,-19 3,-43 4,-61 0,-10 -14,-83 -16,-105 -5,-62 -12,-79 -54,-130l-67 -90 0 0c-68,121 -137,83 -236,130 -43,20 -60,-38 -98,-67 -39,-31 -39,-36 -69,-68 -21,-21 -34,-47 -50,-71 -39,-56 -21,-134 -37,-176 -23,-65 -23,-89 -34,-154 -9,-57 -3,-119 -71,-128 -115,-16 -40,-51 -114,-65 -72,-14 -90,-46 -105,-121 -55,-55 -144,-22 -129,-116 13,-81 -53,-68 -32,-108 31,-58 95,-37 103,-128 2,-16 -1,-23 -3,-38 -5,-52 4,-64 -34,-104 -38,-39 -46,-41 -32,-92 14,-52 7,-41 -41,-15 -34,18 -59,86 -62,123 -1,11 -49,55 -59,60 -54,26 -49,22 -103,66 -30,9 -61,12 -92,14 -49,4 -99,-35 -132,-68 -58,-59 -65,-61 -148,-71 -52,-7 -112,6 -154,-33 -46,-42 -99,-47 -141,-100 -79,-101 -176,6 -231,-104 -24,-48 -75,-42 -106,-83 -22,-30 -39,-31 -53,-48 -20,-25 -48,96 -49,98 -17,52 9,142 29,193 25,63 13,173 30,216 15,37 27,103 21,142 -17,103 23,211 63,305 0,16 0,40 2,55 9,84 -7,180 13,256 7,27 7,50 12,70 9,36 5,56 9,90 4,41 -1,81 10,118 10,35 -9,44 -40,34l0 0 47 115c33,81 23,97 19,176 -2,33 -15,97 -13,127 1,17 -8,68 -8,94 0,72 -1,143 4,215 3,44 8,96 9,139 1,39 5,65 3,105 1,42 10,92 2,132 -4,18 -2,26 -9,49 -15,45 -53,216 -53,263 0,45 -8,124 1,167 34,163 6,172 -20,324 -2,13 -10,38 -14,54 3,73 -8,141 -8,210 0,111 -15,173 37,276 34,67 41,170 20,242 -18,63 33,122 65,169 10,14 57,107 64,124 49,27 59,45 95,81 40,40 24,11 56,67 27,47 37,47 71,79 28,27 26,85 -3,117 -39,41 -58,102 -45,158 9,38 53,26 76,75 20,43 -12,140 -18,192 -8,72 -1,145 12,216 9,89 17,175 6,265 -10,82 -16,170 -28,250 -7,42 -11,89 -18,132 -16,103 5,217 39,314 37,77 25,114 26,191 2,94 -59,231 -90,321 -45,130 41,245 25,381 -5,41 -4,117 -12,153 4,48 4,85 0,132 -11,127 -76,61 -113,168 -24,68 28,133 34,204 3,41 55,122 62,206 6,68 10,141 -71,160 -41,9 -54,38 -62,77l-1 3 9 78c3,31 21,102 -22,114 -31,8 -28,11 -64,9 -35,-1 -89,56 -95,87 -36,-13 -40,-10 -54,-41 -15,-34 -42,-107 -79,-122 -15,-7 -23,-11 -41,-16 -31,-9 -118,-32 -131,-62 -12,-26 9,-36 -22,-95 -21,-41 4,-85 42,-104 64,-32 63,-136 76,-201 1,-5 1,-7 1,-12 -17,-53 -30,-59 -53,-99 -11,-19 19,-105 -52,-143 -29,-15 -17,-3 -38,-35 -28,-43 -70,-34 -102,-60 -68,-55 -46,-56 -68,-132 -12,-41 -44,-89 -52,-140 -7,-41 -29,-112 -84,-77 -8,5 -49,58 -55,67 -71,63 -105,79 -193,93 -23,4 -40,10 -64,10l0 0z"/>
  <path class="fil1 str0" d="M12864 7849l67 90c42,51 49,67 54,130 2,22 16,95 16,105 -1,18 2,42 -4,61 -4,15 2,69 2,86 53,38 44,27 68,84 12,28 70,42 96,72 5,6 23,18 34,32 31,40 79,77 133,77 26,0 99,11 119,28 44,36 55,46 85,97 23,40 29,86 65,127 18,20 41,42 62,58 18,26 67,96 99,106 22,7 12,11 44,10 28,-1 25,-1 53,-6 86,-15 65,22 139,-59 20,-22 47,-102 68,-108 18,-5 78,52 97,44 69,-28 43,-73 64,-126 19,-49 -28,-21 20,-95 34,-52 22,-99 53,-124 33,-26 40,44 77,57 55,19 76,-29 176,47 55,42 86,-17 134,-41 64,-32 134,-60 205,-66 35,-3 77,-12 107,-14 49,8 77,16 126,21 14,1 104,13 108,22 7,16 -36,53 -46,72 -49,87 -42,92 -28,190 2,17 -19,93 -25,112 17,76 4,71 0,138 -4,60 -14,116 -14,179 0,74 -15,84 -25,150 -10,64 -24,115 -54,173 -19,37 34,66 56,88 37,38 40,44 90,71 63,34 62,33 133,46 24,4 87,31 92,61 3,20 9,17 9,50 0,11 -3,45 -5,56 -26,60 -21,56 -63,104 -44,50 -18,103 0,154l43 48 0 0c10,-8 54,-21 70,-27 61,-26 132,-38 197,-27 91,16 58,13 131,-19 34,-15 76,-45 82,-85 6,-45 0,-57 -35,-91l-2 -3c-15,-19 -83,-47 -94,-93 -15,-61 -3,-85 28,-135 27,-43 -34,-90 90,-109 37,-6 28,-100 24,-127 -6,-34 1,-47 36,-60 26,-10 136,40 161,54 37,21 69,-1 82,-36 18,-46 10,-33 38,-78 12,-19 41,-35 41,-48 -1,-43 -50,-26 -56,-47 -16,-54 62,-81 68,-97 10,-31 14,-66 26,-101l6 -12c21,-39 26,-42 48,-76 41,-61 98,-104 138,-159 29,-40 42,-111 42,-159 -1,-50 5,-90 7,-137 5,-126 96,-134 -13,-264 -36,-35 -34,-35 -84,-58 -34,-16 -130,-5 -100,-65 39,-78 101,-50 169,-121 69,-73 114,-67 191,-119 25,-17 53,-28 77,-43 45,-28 80,-42 127,-64 24,-11 87,-91 106,-116 42,-56 16,-65 83,-93 55,-23 56,-117 59,-168 2,-35 -4,-50 0,-94 1,-16 -3,-42 -5,-59 -2,-22 -8,-56 -8,-73 -5,-117 -106,-32 -199,-58 -47,-13 -52,-43 -64,-79 -3,-9 -59,-60 -71,-77 -20,-27 -54,-8 -74,10 -91,79 -89,-33 -111,-87 -8,-20 -14,-69 -21,-77 -11,-13 -68,-12 -84,-9 -76,13 -134,8 -211,7 -18,14 -55,55 -70,74 -9,11 -53,114 -71,81 -27,-53 -21,-100 -21,-156 0,-30 -9,-58 -9,-77 -1,-43 -13,-91 -19,-133 -17,-105 -128,-24 -153,-53 -32,-37 -20,-99 -60,-145 -38,-45 -91,-58 -131,-87 -16,-11 -34,-14 -46,-22 -49,-31 -54,-95 -63,-148 -3,-9 -14,-85 -16,-98 -3,-37 -11,-59 -16,-93 -20,-135 -74,-79 -176,-65 -35,5 -87,-36 -107,-63 -24,-32 -78,-38 -99,-52 -17,-11 -70,-18 -79,-23 -18,-9 -6,-65 -1,-76 5,-12 16,-98 16,-110 0,-1 12,-132 12,-133 11,-51 -3,-50 20,-117 0,-53 -12,-81 -43,-123 -23,-31 -28,-51 -46,-80 -26,-40 -25,-174 -13,-218 19,-70 35,-123 46,-197 9,-63 16,-115 20,-179 3,-51 -4,-104 8,-154l12 -252 0 0c-18,-1 -36,-2 -55,0 -59,6 -147,-25 -203,-4 -36,13 -86,34 -124,9 -40,-26 -78,-60 -127,-69 -65,-11 -78,-39 -132,-49 -74,-15 -46,-57 -77,-65 -40,-10 -122,75 -185,90 -23,6 -58,-60 -69,-79 -23,-40 -33,-21 -46,-79 -6,-25 -31,-49 -48,-19 -12,22 -23,32 -42,51 -1,33 -32,13 -57,41 -17,19 51,116 -32,119 -54,2 -128,-139 -169,-79 -40,58 11,118 29,125 17,7 18,26 3,35l26 53c0,22 -1,26 10,46 25,46 35,41 66,65 58,46 -3,48 -41,61 -76,28 -16,57 18,83 27,20 58,63 79,76 17,10 26,25 34,31 27,20 52,63 64,94 22,58 60,112 17,174 -28,41 -22,17 -23,59 -1,37 -41,31 -60,31 -48,1 -40,-9 -87,26 -138,-57 -60,-123 -147,-197 -100,-86 -55,-79 -50,-172 2,-47 -143,-97 -162,-173 -20,5 -85,69 -103,83 -66,49 -85,39 -147,103 -51,52 -114,102 -187,114 -65,11 -73,42 -73,102 0,55 24,95 29,138 4,37 37,116 38,133 1,33 2,84 34,106 39,27 32,29 58,74 0,39 12,48 20,84 4,16 39,34 17,73 -49,84 -35,53 25,114 21,21 28,140 36,176 7,35 12,26 22,47 21,42 59,36 49,113 -4,33 -46,83 -54,104 -15,42 -72,74 -55,124 14,42 -14,72 -46,97 -5,6 -10,12 -15,17 -84,93 -23,112 -56,160 -48,69 9,88 -8,154 -17,63 -24,39 -46,73 -11,16 -20,86 -29,115 -10,33 -34,65 -39,86 -10,42 22,35 -19,134 -3,31 -19,82 -17,112 4,69 -10,71 -15,127 -7,74 -11,132 -25,207 -6,31 -9,71 -14,100 -15,77 -15,82 -15,161 0,92 -71,113 -95,156l0 0z"/>
  <path class="fil1 str0" d="M15183 4177l-12 252c-12,50 -5,103 -8,154 -4,64 -10,116 -20,179 -11,74 -27,126 -46,197 -12,44 -13,178 13,218 18,29 24,48 46,80 31,42 43,70 43,123 -23,67 -8,65 -20,117 0,1 -12,133 -12,133 1,12 -10,98 -16,110 -5,11 -17,67 1,76 9,5 63,12 79,23 21,14 74,20 99,52 20,27 73,68 107,63 101,-15 156,-71 176,65 5,35 13,56 16,93 1,14 13,89 16,98 8,54 14,117 63,148 12,8 30,11 46,22 41,29 93,42 131,87 39,46 28,108 60,145 25,30 137,-52 153,53 7,42 18,90 19,133 1,19 9,47 9,77 0,56 -6,104 21,156 17,33 62,-69 71,-81 15,-19 52,-59 70,-74 77,2 134,6 211,-7 16,-3 73,-4 84,9 7,8 12,57 21,77 22,53 21,166 111,87 20,-17 54,-36 74,-10 12,17 68,68 71,77 12,36 17,66 64,79 92,26 193,-59 199,58 1,18 6,52 8,73 2,17 6,43 5,59 -4,44 2,58 0,94 -3,51 -4,146 -59,168 -67,28 -41,36 -83,93 -19,26 -82,105 -106,116 -47,22 -82,35 -127,64 -23,15 -51,26 -77,43 -77,52 -122,46 -191,119 -68,71 -130,44 -169,121 -30,60 66,49 100,65 49,23 48,24 84,58 110,130 18,138 13,264 -2,47 -7,87 -7,137 1,48 -13,119 -42,159 -40,56 -97,98 -138,159 -22,33 -27,36 -48,76l-6 12c-12,35 -16,70 -26,101 -5,17 -83,43 -68,97 6,21 55,4 56,47 0,13 -29,29 -41,48 -28,45 -20,32 -38,78 -14,34 -45,57 -82,36 -25,-14 -134,-64 -161,-54 -34,13 -42,26 -36,60 5,27 14,121 -24,127 -124,19 -63,66 -90,109 -31,49 -44,74 -28,135 11,45 79,73 94,93l2 3c35,34 42,46 35,91 -6,39 -48,70 -82,85 -72,32 -40,36 -131,19 -66,-12 -136,0 -197,27 -16,7 -60,19 -70,27l0 0c26,38 34,74 56,109 11,17 13,46 32,77 23,38 18,52 59,88 76,67 76,115 54,209 -8,34 -12,61 -19,94l-1 3c-11,77 -17,83 -37,152 -5,17 -32,86 2,88 48,2 103,16 150,15 37,-1 87,9 128,8 99,-1 183,28 246,106 42,51 52,74 83,130 22,40 41,105 60,150 22,53 43,152 58,211 5,18 7,36 10,54l187 681 5 300 9 941c-5,73 -13,213 76,241 25,8 139,68 150,87 36,60 -25,124 -46,177l0 0c21,7 53,6 62,15 17,16 12,59 4,78 -31,68 17,59 -45,112 -29,25 -9,57 3,93 3,9 5,22 8,34 14,48 43,46 73,71 32,26 76,40 116,23 51,-22 38,52 62,79 55,62 90,1 110,25 48,59 92,-16 110,36 10,28 17,32 30,53 21,33 71,46 58,90 -19,63 -9,57 37,80 25,13 80,15 81,31 2,81 -122,104 -151,187 -6,17 -12,162 -8,177 11,37 9,66 25,102 21,47 13,74 75,74 61,0 120,-128 175,-168 48,-35 46,-102 38,-156 -13,-87 -79,-157 44,-198 16,-14 4,-43 -5,-58 -46,-73 18,-55 33,-65 45,-31 13,-97 -7,-133 -11,-19 -28,-32 -21,-50 26,-78 25,-37 -1,-114 -12,-36 28,-110 53,-134 19,-19 78,-60 91,-81 24,-38 86,-52 123,-26 48,34 60,-16 116,22 35,24 23,24 73,48l0 0c4,-16 16,-85 16,-99 0,-36 -1,-80 0,-115 1,-34 -9,-106 -5,-131 8,-49 44,-81 22,-136 -15,-38 -19,-74 -14,-115 7,-54 4,-54 1,-113 0,-10 -1,-11 -3,-21 -9,-57 -4,-139 -39,-182 -40,-48 -26,-68 -20,-127 6,-53 -4,-63 -12,-109 -6,-36 -17,-77 -21,-109 -4,-34 -9,-63 -14,-96 -5,-41 29,-66 64,-72 89,-15 48,-23 87,-40 25,-11 92,27 105,41 19,20 27,-3 47,2 48,10 83,-46 69,-91 -16,-53 -28,-9 -45,-103 0,-29 -3,-54 -25,-76 -40,-40 -99,-88 -102,-150 -3,-60 19,-107 51,-156 29,-44 43,-45 71,-75 49,-54 129,-106 128,-186 -1,-49 61,14 74,21 20,12 66,59 79,64 46,15 90,49 147,39 79,-14 87,-18 137,-80 2,-2 44,-42 45,-42 46,-107 -42,-105 -95,-136 -64,-38 31,-184 60,-232 68,-113 16,-67 42,-154 10,-32 48,-50 68,-84 10,-18 2,-160 -1,-189 -8,-80 -35,-62 -60,-90 -89,-99 -78,19 -181,-188 -1,-2 -2,-4 -2,-7 -4,-18 7,-86 7,-116 0,-43 -28,-120 -20,-138 33,-82 63,-89 29,-160 -19,-41 -4,-96 36,-113 117,-50 111,-164 143,-202 22,-26 31,-66 43,-95 12,-30 16,-108 16,-108 10,-25 -7,-110 -28,-129 -119,-104 -26,-134 -84,-177 -51,-38 -74,-100 -38,-160 44,-72 -75,-90 -42,-156 40,-80 55,-28 -23,-151 -6,-10 -68,-154 32,-131 59,14 73,-28 51,-65 -31,-51 -30,-66 -52,-111 -31,-63 11,-123 64,-108 101,30 17,-111 40,-148 15,-25 10,-71 10,-101 0,-83 42,-58 12,-119 -18,-36 -13,-88 20,-108 78,-47 -49,-63 29,-138 73,-70 -64,-53 -27,-122 31,-58 -71,-53 -9,-199 34,-80 -18,-19 -25,-79 -20,-165 112,-28 162,-151 8,-19 -23,-145 -36,-164 -41,-62 -20,-64 -79,-140 -31,-40 -24,-101 5,-145 67,-103 -34,-112 -4,-170 24,-44 -53,-51 -57,-74 -16,-85 72,-89 -24,-137 -53,-26 -81,-24 -60,-96 30,-105 -54,-66 -34,-114 21,-52 -84,-40 -93,-46 -38,-24 -2,-106 18,-132 50,-64 -76,-45 -96,-35 -105,56 -91,-14 -124,-95 -24,-59 46,-87 8,-148 -22,-34 -36,-96 -38,-99 -14,-20 7,-60 25,-85l0 0 -435 4c-24,9 -47,26 -68,33 -76,28 -120,46 -187,94 -75,53 -134,57 -223,57 -146,0 -81,101 -215,61 -13,-4 -142,-67 -149,-73 -42,-32 -75,-39 -26,-78 100,-79 87,-98 124,-212 38,-119 61,-156 76,-288 2,-27 40,-111 52,-141 24,-61 47,-93 99,-137 32,-27 88,-111 111,-149 102,-165 64,-141 94,-313 21,-124 2,-116 69,-235 5,-8 10,-16 15,-25 17,-32 81,-130 105,-161 39,-49 58,-92 92,-143 77,-113 119,-213 142,-348 12,-70 -18,-173 -45,-235 -30,-70 -54,-108 -99,-168 -52,-69 -50,-75 -77,-151 -19,-52 -13,-109 -15,-162 -3,-97 36,-176 -54,-246 -43,-34 -62,-61 -101,-93 -40,-33 -68,-58 -106,-95 -21,-38 -54,-56 -85,-86 -58,-55 -42,-137 -32,-208 13,-94 -38,-52 1,-138 31,-69 51,-56 79,-97 37,-54 36,-75 8,-128 0,-1 -34,-53 -35,-53 -12,-15 -37,-74 -32,-86 9,-22 -55,32 -64,37 -43,24 -48,4 -68,0 -26,-4 -30,-7 -54,-15 -37,-13 -13,-30 -67,-2l0 0c-34,-3 -44,-16 -70,-25 -32,-12 -64,-38 -92,-49 -38,-15 -54,-46 -84,-68 -23,-16 -34,-22 -58,-42 -89,-75 -43,-114 -184,-138 -64,-11 -75,-8 -121,-61 -37,-42 -19,-79 -42,-82 -21,-3 -94,86 -101,94 -13,7 -37,30 -45,43 -15,24 -32,61 -17,87 32,57 -37,67 -16,99 42,63 70,59 11,135 -17,21 -33,45 -48,64 -33,42 23,89 16,123 -5,26 -1,87 -2,116 -2,56 44,87 38,114 -15,65 -4,56 27,122 4,10 5,51 17,79 30,66 40,40 20,111 -20,72 -38,61 20,118 19,18 14,21 18,38 14,64 -20,107 28,154 38,36 43,37 41,91 -2,52 -18,186 -70,209 -20,9 -59,-18 -75,-30 -39,-29 -49,-35 -94,-52 -61,-23 -76,82 -119,43 -25,-22 -24,-19 -50,-34 -28,-17 -53,8 -63,34 -14,37 -17,66 -35,112 2,5 3,6 3,12 2,100 36,106 -57,146 -75,32 -31,113 -93,170 -34,31 -41,77 -30,120 14,52 -29,52 -64,67 -83,37 -63,12 -134,3 -49,-6 -47,54 -82,91 -14,15 -80,32 -101,33 -68,6 -98,33 -170,25 -46,-5 -44,-8 -85,-22 -43,-15 -28,-23 -88,-24 -16,2 -31,1 -46,1l0 0z"/>
  <path class="fil1 str0" d="M2939 14216l75 70c28,22 32,28 60,12 25,-14 24,-88 119,-88 30,0 109,-12 126,5 24,24 -12,138 54,103 31,-16 60,-17 89,1 34,21 27,85 119,90 39,2 78,82 146,41 33,-20 91,-81 112,-113 32,-45 21,-58 35,-101 6,-19 30,-53 51,-60 58,-18 75,-48 112,-58 24,-7 10,45 14,66 6,32 1,56 29,85 17,18 17,24 41,34 35,15 79,74 85,113 7,41 19,73 64,42 47,-32 47,-73 60,-123 13,-48 -37,-140 -10,-232 14,-47 -9,-107 34,-153 18,-19 58,-21 83,-28 89,-26 174,-29 219,65 17,36 80,67 111,103 33,39 89,67 136,84 103,-7 137,-39 227,-75 54,-22 44,-22 103,-34 60,-11 102,-72 101,-130 0,-32 17,-80 15,-120 -3,-37 0,-65 15,-100 64,10 116,26 178,35 116,17 120,-22 219,-28 57,-3 89,22 147,31 31,5 50,6 80,10 72,9 64,84 119,138 50,48 72,65 136,94 14,6 108,38 121,40l4 0c72,-6 86,-17 145,26 44,32 88,-1 131,-20 75,-34 65,-31 148,-42 39,-5 84,-19 128,-25 29,-4 45,-9 78,-12 61,-4 166,-32 211,-77 70,-71 54,-34 119,-73 54,-32 60,-36 97,-85 37,-49 108,-14 179,-96 29,-34 41,-53 66,-87 12,-16 16,-21 34,-30l145 -62 0 0c-17,-106 42,-113 -18,-249 -53,-121 -11,-124 -3,-218 8,-87 -45,-108 -50,-212 -5,-96 69,-228 25,-315 -58,-114 45,-275 -4,-344 -84,-117 -74,-86 -93,-246 11,-58 12,-154 -21,-206 -65,-101 13,-115 -101,-99 -103,14 -133,0 -172,-87 -24,-54 40,-241 68,-298 29,-59 -69,-66 -91,-61 -70,16 -97,-72 -102,-125 -16,-196 -47,-110 -100,-214 -6,-13 5,-116 8,-124 13,-40 -65,-211 -86,-251 -34,-64 -25,-81 -36,-137 -11,-55 -102,-136 -135,-170l-3 -7c-23,-44 -10,-175 29,-201 55,-37 -5,-90 -42,-112 -112,-69 -52,-168 -89,-238 -26,-49 -5,-102 -29,-158 -21,-49 -76,-86 -78,-106 -9,-108 -52,-122 -156,-122 -49,0 -19,-84 -11,-113 16,-59 -2,-102 7,-122 37,-89 51,-47 92,-177l53 -151 0 0c-6,-1 -13,-6 -28,-18 -34,-27 -12,-24 -71,-41 -43,0 -34,0 -74,8 -46,9 -117,100 -181,53 -13,-10 -45,-18 -55,-24 -56,-30 -112,-33 -169,0 -19,11 -33,-37 -33,-43 1,-31 -55,-15 -71,-10 -143,46 -63,-52 -189,-101 -22,-9 -79,-7 -91,-11 -24,-7 -151,-9 -186,-9 -51,0 -76,6 -122,9 -38,2 -73,6 -111,8 -43,2 -51,11 -100,7 -34,-3 -32,7 -42,42 -14,46 5,181 14,234 12,70 23,98 46,163 14,39 120,208 150,240 36,38 61,57 77,110 8,28 13,47 19,75 11,44 -9,140 -16,186l-2 10c-9,92 13,105 -39,198 -34,61 -113,120 -138,165 -35,62 -130,176 -93,255 16,33 23,60 33,95 16,55 -6,88 8,150 9,39 7,24 0,59 -21,107 -30,78 -104,78 -39,0 -80,-20 -108,-48 -158,-155 -132,-2 -192,-31 -61,-30 -33,-27 -102,-6 -57,18 -52,8 -102,-14 -2,-1 -52,-56 -55,-61 -38,-61 -58,-49 -76,-67 -25,-25 -27,-15 -52,-27 -41,-21 -55,-6 -90,5 -62,21 -58,35 -122,16 -22,-7 -63,-46 -70,-69 -10,-34 -20,27 -21,34 -3,35 7,36 0,83 -22,29 -28,37 -43,70 -16,34 -23,117 -19,155 11,83 -56,51 -118,91 -57,36 -81,-42 -100,-76 -17,-31 -14,-102 -51,-54 -23,29 -59,87 -81,110 -25,28 -93,210 -96,250 -3,40 -52,97 -23,128 49,53 63,59 97,129 -3,28 14,121 18,159 4,42 17,55 -15,77 -21,14 -84,-7 -107,-15 -69,-24 -140,21 -180,-11 -39,-31 -61,-28 -111,-33 -31,-3 -82,-34 -86,-32 -29,15 35,89 44,101 30,41 56,102 47,153 -9,53 -29,58 -61,89 -30,28 -51,38 -80,60 -10,8 -53,34 -65,39 -40,17 -60,18 -52,69 10,66 17,97 15,165 -2,10 -1,11 -1,20 -1,37 38,86 72,98 57,20 51,97 58,148 3,24 47,92 63,112 8,11 74,112 78,122 41,92 39,115 32,215 -6,74 10,65 -18,149l-8 11c-32,50 -118,214 -161,248 -84,65 -15,142 -81,246 -48,76 -101,65 -61,154 36,80 36,77 36,162 0,36 1,54 3,91 0,41 -1,74 -5,115 -11,100 -77,95 -63,185 6,39 0,83 -27,115 -33,39 -45,61 -64,110l0 0z"/>
  <path class="fil1 str0" d="M9747 13906c-51,-9 -186,-19 -227,-65 -13,-15 -82,-24 -103,-24 -59,0 -186,20 -235,6 -12,-4 -119,1 -149,-11 -8,-3 -206,-35 -218,-35 -78,0 -146,29 -245,26 -85,-2 -158,52 -213,109 -14,14 -158,62 -181,53 -50,-20 -25,2 -59,-54 -31,-51 -72,52 -97,23 -80,-96 -65,53 -75,78l0 0 -62 -34 -3 -5c-51,-68 -24,-189 11,-259 26,-52 -28,-182 -41,-228 0,0 -5,-30 -6,-33l0 0c-17,-106 42,-113 -18,-249 -53,-121 -11,-124 -3,-218 8,-87 -45,-108 -50,-212 -5,-96 69,-228 25,-315 -58,-114 45,-275 -4,-344 -84,-117 -74,-86 -93,-246 11,-58 12,-154 -21,-206 -65,-101 13,-115 -101,-99 -103,14 -133,0 -172,-87 -24,-54 40,-241 68,-298 29,-59 -69,-66 -91,-61 -70,16 -97,-72 -102,-125 -16,-196 -47,-110 -100,-214 -6,-13 5,-116 8,-124 13,-40 -65,-211 -86,-251 -34,-64 -25,-81 -36,-137 -11,-55 -102,-136 -135,-170l-3 -7c-23,-44 -10,-175 29,-201 55,-37 -5,-90 -42,-112 -112,-69 -52,-168 -89,-238 -26,-49 -5,-102 -29,-158 -21,-49 -76,-86 -78,-106 -9,-108 -52,-122 -156,-122 -49,0 -19,-84 -11,-113 16,-59 -2,-102 7,-122 37,-89 51,-47 92,-177l53 -151 0 0c9,2 14,-4 41,-4 25,0 85,-5 93,25 20,75 25,101 107,122 22,6 54,7 82,14 61,14 126,27 186,41 17,4 144,54 159,63 64,35 193,91 265,77 102,-19 94,-50 203,-24 71,17 40,28 126,15 53,-8 97,-1 147,-3l70 38 69 -5c1,-18 22,-34 48,-37 32,-3 86,-83 92,-100 26,-82 35,-124 -58,-159 -49,-19 -59,-47 -52,-81 126,-55 117,-22 216,35 41,23 160,-17 195,-44 27,-22 134,-52 179,-84 82,-57 129,-53 148,-167 3,-17 -2,-112 -5,-127 -8,-33 -4,-67 -15,-107 -10,-37 -3,-36 -20,-80 -2,-6 -3,-9 -5,-15 -12,-20 -59,-98 -38,-124 43,-52 83,-70 123,-134 39,-61 26,-51 30,-116 3,-47 1,-234 -5,-269 -5,-29 9,-50 42,-27 37,26 74,67 115,6 21,-32 14,-91 21,-133 2,-14 3,-19 3,-33 15,-59 13,-60 10,-113 -3,-67 -79,-59 -75,-153 3,-66 -93,-147 -57,-197 24,-33 62,-70 72,-103 8,-28 -5,-57 38,-71 34,-11 47,-14 81,-30 36,-17 23,5 22,45 -1,27 -6,53 -5,83 0,28 -4,50 1,81 12,80 24,160 89,214 57,47 79,154 91,224 16,100 84,369 162,433 85,70 85,-6 152,-14 33,-4 48,24 52,51 4,25 8,48 31,64 48,11 63,8 106,12 26,2 59,34 72,57 22,41 77,97 128,90 49,-7 108,-51 138,-2 38,63 115,32 177,27 77,-7 75,-9 146,14l0 0 47 115c33,81 23,97 19,176 -2,33 -15,97 -13,127 1,17 -8,68 -8,94 0,72 -1,143 4,215 3,44 8,96 9,139 1,39 5,65 3,105 1,42 10,92 2,132 -4,18 -2,26 -9,49 -15,45 -53,216 -53,263 0,45 -8,124 1,167 34,163 6,172 -20,324 -2,13 -10,38 -14,54 3,73 -8,141 -8,210 0,111 -15,173 37,276 34,67 41,170 20,242 -18,63 33,122 65,169 10,14 57,107 64,124 49,27 59,45 95,81 40,40 24,11 56,67 27,47 37,47 71,79 28,27 26,85 -3,117 -39,41 -58,102 -45,158 9,38 53,26 76,75 20,43 -12,140 -18,192 -8,72 -1,145 12,216 9,89 17,175 6,265 -10,82 -16,170 -28,250 -7,42 -11,89 -18,132 -16,103 5,217 39,314 37,77 25,114 26,191 2,94 -59,231 -90,321 -45,130 41,245 25,381 -5,41 -4,117 -12,153 4,48 4,85 0,132 -11,127 -76,61 -113,168 -24,68 28,133 34,204 3,41 55,122 62,206 6,68 10,141 -71,160 -41,9 -54,38 -62,77l-1 3 9 78c3,31 21,102 -22,114 -31,8 -28,11 -64,9 -35,-1 -89,56 -95,87 -36,-13 -40,-10 -54,-41 -15,-34 -42,-107 -79,-122 -15,-7 -23,-11 -41,-16 -31,-9 -118,-32 -131,-62 -12,-26 9,-36 -22,-95 -21,-41 4,-85 42,-104 64,-32 63,-136 76,-201 1,-5 1,-7 1,-12 -17,-53 -30,-59 -53,-99 -11,-19 19,-105 -52,-143 -29,-15 -17,-3 -38,-35 -28,-43 -70,-34 -102,-60 -68,-55 -46,-56 -68,-132 -12,-41 -44,-89 -52,-140 -7,-41 -29,-112 -84,-77 -8,5 -49,58 -55,67 -71,63 -105,79 -193,93 -23,4 -40,10 -64,10l0 0z"/>
  <path class="fil1 str0" d="M5830 19984c14,-14 128,-143 155,-105 19,27 25,39 41,67 23,38 54,23 96,42 40,18 96,7 127,-25 35,-36 36,-70 86,-107l3 -2c6,-1 103,-13 90,-48 -5,-15 12,-46 -12,-56 -55,-23 -52,-56 -47,-113 5,-54 49,-38 78,-16 37,28 130,14 171,-2 48,-18 108,-8 155,-18 22,-5 62,-1 83,-8 16,-5 64,-6 82,-2 31,7 14,0 45,15 34,17 79,5 91,-35 24,-82 46,-92 117,-132 68,19 36,22 77,44 61,32 40,-37 93,-33 37,3 72,98 131,39 74,-73 73,-4 141,-22 44,-12 130,-48 159,5 60,107 22,164 133,275 85,85 184,46 281,8l5 -2c45,14 51,10 90,12 47,3 124,-15 158,-50 31,-32 62,-40 96,-84 7,-9 40,-41 41,-11 0,1 35,130 37,138 16,51 38,106 57,157 45,124 143,321 290,341 55,7 60,-19 141,8 101,34 148,-67 311,-9 23,8 86,49 117,65l14 7c59,59 30,44 36,115 6,69 83,136 141,164 32,15 65,43 103,61 40,19 67,39 114,57 61,24 74,37 145,55 38,9 140,35 147,77 12,75 -54,208 -75,287l-5 19c-11,64 -2,62 10,117 12,54 44,93 89,124 33,23 135,128 153,163 27,54 49,80 20,145 -17,38 -32,70 -51,108 -15,74 -7,133 49,186 51,48 75,56 71,135 -2,44 -8,89 -10,135 -3,74 13,128 33,198 18,64 88,119 126,171 3,4 3,5 5,9 46,70 50,100 84,169 20,41 102,162 132,194 25,49 28,96 79,139 77,65 104,134 116,230 12,99 13,134 -86,183 -105,52 -184,54 -297,42 -134,-15 -49,74 -2,117 53,48 30,9 96,92 65,51 93,44 153,75 83,43 80,46 135,120 22,29 50,119 71,160 13,25 28,92 42,124 24,55 46,97 113,96 21,0 167,38 199,46 31,7 106,13 138,19l0 0c-3,9 13,18 10,50 -8,82 -156,-13 -111,180 17,71 -81,96 -112,83 -47,-20 -92,39 -128,49 -109,32 -41,-121 -101,-91 -105,52 -49,-25 -89,-47 -68,-38 -184,13 -120,96 57,75 -6,48 -3,126 1,26 36,99 48,129 12,28 13,96 13,128 0,77 35,129 -35,176 -113,76 -111,-5 -108,-108 2,-84 -41,-38 -40,-1 3,90 -103,151 -169,183 -66,32 -79,73 -103,129 -41,96 -75,98 -128,169 -83,112 -181,100 -205,184 -53,184 -191,47 -241,162 -66,149 -59,-121 -220,-65 -86,30 -69,95 -155,146 -84,50 -86,17 -142,-24 -120,-88 18,143 -124,13 -125,-115 -120,29 -169,72 -68,60 -42,-100 -64,-122 -90,-93 -95,110 -101,151 -16,97 -114,28 -93,141 14,73 -66,93 -119,70 -53,-23 -50,26 -24,56 75,86 -9,86 -26,194 -12,77 -115,107 -136,83 -17,-19 -6,-82 -8,-116 -7,-164 -175,59 -119,-96 19,-52 -48,-28 -71,-15 -58,32 -104,-63 112,-155 25,-10 -37,-56 -51,-59 -109,-28 -16,-123 -118,-103 -142,27 40,-145 -232,65l-41 -7c-22,-2 -50,-3 -67,-6 -72,-11 -91,-29 -144,-73 -66,-55 -84,-188 -85,-267 -1,-17 0,-49 -2,-62 -6,-52 -70,-48 -106,-32 -149,64 -48,-257 -34,-312 26,-102 -128,18 -103,-86 19,-80 73,-110 114,-177 17,-29 58,-71 23,-92 -28,-17 -158,65 -223,39 -61,-24 -30,-108 -19,-149 3,-9 4,-11 8,-19 17,-35 86,-74 54,-90 -43,-22 -97,2 -135,10 -66,13 -29,-87 32,-121 109,-61 20,-44 8,-143 -13,-104 -78,-96 -77,-162 1,-65 134,-204 17,-205 -89,-1 -90,-4 -67,-107 1,-10 2,-17 1,-27 -5,-58 -86,-52 -126,-42 -43,11 -49,-25 -38,-58 24,-75 63,-66 116,-83 45,-15 20,-66 -7,-80 -63,-32 -53,-12 -41,-88 15,-97 -197,17 -155,-74 5,-11 86,-89 100,-98 35,-23 65,-108 50,-140 -13,-28 -140,25 -155,35 -34,23 -58,17 -64,-26 -11,-69 32,-79 81,-113 7,-16 7,-19 11,-35 15,-61 -97,-25 -120,-18 -136,43 -69,-115 -37,-173 49,-90 -79,-98 -67,-144 21,-78 220,2 225,-85 0,-4 -25,-181 -28,-190 -9,-29 -51,-4 -78,5 -48,15 -98,79 -147,26 -39,-42 -79,105 -131,3 -24,-48 -67,-76 -14,-106 66,-37 61,-23 80,-109l0 -7c-3,-60 10,-106 -42,-140 -54,-35 -16,-78 -69,-102 -37,-17 -144,34 -188,43 -36,8 -170,67 -176,1 -5,-57 63,-73 100,-89 41,-18 81,-11 122,-35 93,-56 -10,-105 -37,-178 -30,-81 -90,-80 -104,-137 -11,-44 -80,-97 -72,-134 14,-65 43,-8 -10,-104 -8,0 -10,-1 -18,-4 -63,-20 -186,-18 -256,-25 -93,-9 -115,29 -155,30 -95,2 -30,-110 -44,-160 -37,-131 43,-139 -87,-197 -29,-13 -53,-77 -74,-48 -22,29 -22,223 -13,266 8,36 4,53 8,85 4,32 10,81 -4,111 -24,53 -59,-42 -64,-58 -5,-15 -49,-84 -58,-89 -39,-18 -37,89 -37,104 0,56 -7,52 -15,97 -12,74 -58,50 -71,86 -24,67 51,104 96,131l2 9c5,38 64,65 49,106 -36,98 -213,26 -220,94 -2,19 38,72 50,94 34,59 -53,120 -88,155 -34,34 -22,87 17,106 48,24 46,33 35,90 -19,99 -98,113 -79,183 18,69 18,45 15,122 -3,8 -1,30 0,39 9,59 11,95 11,155 0,61 -25,168 24,206 29,23 23,23 43,43 30,30 29,69 36,110 7,43 -6,130 34,154 43,27 40,169 43,211 14,15 -3,72 36,107 67,62 49,75 31,161 -17,79 -27,115 49,162 62,38 -35,122 74,174 31,15 71,10 77,39 17,92 -26,112 -53,186 -17,45 33,107 -85,119 -39,4 -65,18 -98,20 -38,1 -88,-34 -120,-53 -31,-19 -78,-51 -108,-64 -67,-30 -65,-23 -125,-68 -85,-64 -70,-90 -119,-161 -25,-36 -55,-78 -75,-116 -27,-52 -75,-129 -112,-171 -6,-11 -6,-15 -11,-26 -20,-41 -33,-60 -44,-107 -13,-57 6,-84 12,-131 14,-129 -71,-65 -93,-91 -33,-38 32,-125 -45,-163 -50,-25 -25,-114 -42,-159 -11,-30 -17,-47 -27,-79 -14,-49 13,-112 -12,-134 -33,-29 -55,11 -118,-72l-4 -777 0 -12c-4,-52 -1,-96 -4,-144 -6,-87 -6,-168 -5,-255 1,-60 -67,-51 -68,-95 -1,-69 42,-77 91,-97 31,-13 49,-48 32,-77 -42,-69 -138,-14 -169,-94 -21,-55 -20,-87 -41,-141 -2,-20 -20,-56 -29,-75 -36,-83 80,-75 96,-128l0 0 224 69c45,19 39,10 76,-4 52,-20 97,-96 132,-123 19,-14 220,-257 232,-277 19,-33 70,-87 94,-123 23,-33 44,-61 65,-95l6 -8c54,-70 51,-86 124,-149 42,-36 65,-94 65,-149 0,-38 -1,-68 -3,-106 -1,-24 0,-42 -4,-67 -12,-79 43,-54 105,-109 39,-35 94,-72 137,-107 49,-40 101,-73 146,-118 16,-16 61,-56 78,-67l0 0z"/>
  <path class="fil1 str0" d="M7847 13452c1,4 6,33 6,33 13,46 67,176 41,228 -35,70 -63,191 -11,259l3 5 62 34 0 0c17,111 7,205 -38,306 -47,104 -184,159 -294,159 -40,0 -118,-15 -142,-1 -18,11 16,86 7,133 -27,131 8,152 -118,243 -86,63 -176,22 -269,-9 -71,-23 -52,29 -90,105 -40,79 -142,266 -216,309 -79,45 -208,169 -266,238 -144,104 -77,108 -142,230 -58,108 -80,107 -155,191 -28,31 -184,188 -189,207 -14,54 62,148 -40,175 -87,23 -273,240 -350,243 -54,2 -154,63 -158,116 -2,27 -26,42 -24,120 0,2 -25,220 -26,223 -10,54 19,296 28,350 7,46 25,105 27,154 1,28 12,70 12,101 0,46 -22,33 -62,67 -16,14 -94,47 -117,56 -35,15 -67,31 -105,44 -66,23 -32,36 -18,68 15,35 56,87 66,128 17,76 -8,99 -16,170 -10,89 -1,117 71,176 45,48 33,37 17,85 -14,41 -32,84 -39,126 -17,97 -57,182 -101,269 -39,77 -30,115 26,175 39,40 92,111 95,168 -11,60 -5,122 -18,182 -7,34 -19,172 -2,199 29,47 79,56 126,87 38,25 171,82 218,96 34,10 132,49 149,79 22,38 24,31 29,81 1,13 1,22 1,35l6 87 0 0c-17,11 -63,52 -78,67 -44,45 -97,79 -146,118 -43,35 -97,72 -137,107 -63,55 -118,30 -105,109 4,25 2,43 4,67 2,38 3,68 3,106 0,55 -22,113 -65,149 -73,63 -71,79 -124,149l-6 8c-21,35 -42,63 -65,95 -24,35 -75,90 -94,123 -12,21 -213,263 -232,277 -35,27 -80,103 -132,123 -36,14 -31,22 -76,4l-224 -69 0 0c20,-66 -71,-77 -116,-75 -59,3 -47,7 -106,-3 -49,-8 -25,-64 -9,-91 75,-123 127,-58 161,-68 100,-28 -27,-214 -34,-270 -9,-67 -76,-43 -125,-40 -70,4 -51,1 -110,-16 -35,-11 -48,-43 -43,-77 6,-37 19,-61 28,-103 2,-14 4,-28 4,-42 0,-64 26,-84 65,-128 34,-37 129,-17 170,-54 81,-73 -74,-75 88,-180 74,-48 68,-175 -16,-154 -94,24 -95,62 -153,90 -41,19 -84,58 -124,64 -75,11 -60,-38 -54,-91 12,-102 -89,-78 -98,-107 -11,-33 42,-47 63,-53 102,-28 61,-158 -1,-143 -51,12 -50,19 -108,20 -55,1 -50,-87 -51,-122 -4,-13 -7,-67 -7,-83 0,-103 -1,-205 -4,-308 -2,-81 -33,-83 -84,-127 -29,-25 -43,-30 -70,-50 -96,-70 51,-63 39,-136 -3,-20 -72,-86 -86,-101 -8,-6 -21,-19 -28,-25 -65,-64 -76,-41 -105,-132 -32,-103 -108,-53 -105,-198 1,-63 17,-95 27,-150 14,-84 35,-167 -47,-222 -125,-84 -106,-50 -191,-189 -46,-46 -94,-41 -149,-71 -46,-25 -29,-94 -11,-132 68,-138 0,-102 -102,-103 -55,0 -107,20 -137,-32 -58,-101 -80,-43 -18,-172 30,-64 6,-156 54,-203 31,-31 44,-29 76,-75 11,-17 14,-85 4,-93 -39,-33 -113,71 -134,62 -46,-19 -1,-74 -80,-42 -44,18 -26,-105 -24,-115 0,-10 -1,-16 -1,-25 -5,-211 -95,-121 -117,-253 -11,-69 -23,-57 -62,-98 -58,-60 -120,-35 -101,-112 25,-107 34,-87 -74,-87 -124,0 -126,13 -130,-103 -2,-54 -25,-56 -25,-86 1,-88 10,-66 -15,-157 -7,-40 -15,-79 -22,-119 -15,-83 72,-120 49,-182 -19,-50 -18,-32 -26,-90 -11,-77 5,-85 26,-151 28,-90 -94,-256 -8,-198 36,25 102,28 109,64 14,81 50,54 103,53 50,-1 33,38 133,13 114,-28 69,68 76,125 6,48 74,32 106,22 31,-9 95,-72 111,-99 50,-82 -20,-138 -19,-182 1,-36 11,-45 9,-100 2,-9 1,-23 3,-34 16,-103 -3,-121 52,-220 32,-58 -116,-14 -136,-99 -10,-40 -69,-18 -94,-7 -56,23 -84,23 -144,16 -46,-6 -65,-2 -107,-1 -82,2 -146,20 -224,20 -61,0 -70,-33 -79,-86 -12,-78 -30,-154 -50,-231 2,-58 18,-99 31,-153 8,-35 6,-58 25,-96 15,-31 26,-70 45,-105 28,-51 39,-123 72,-178 40,-67 51,-85 134,-73 55,8 86,14 144,11 43,-3 116,-26 151,-17 3,1 152,14 162,14 72,-2 52,58 97,82 34,18 51,50 69,82 26,46 50,27 65,-14l0 0 75 70c28,22 32,28 60,12 25,-14 24,-88 119,-88 30,0 109,-12 126,5 24,24 -12,138 54,103 31,-16 60,-17 89,1 34,21 27,85 119,90 39,2 78,82 146,41 33,-20 91,-81 112,-113 32,-45 21,-58 35,-101 6,-19 30,-53 51,-60 58,-18 75,-48 112,-58 24,-7 10,45 14,66 6,32 1,56 29,85 17,18 17,24 41,34 35,15 79,74 85,113 7,41 19,73 64,42 47,-32 47,-73 60,-123 13,-48 -37,-140 -10,-232 14,-47 -9,-107 34,-153 18,-19 58,-21 83,-28 89,-26 174,-29 219,65 17,36 80,67 111,103 33,39 89,67 136,84 103,-7 137,-39 227,-75 54,-22 44,-22 103,-34 60,-11 102,-72 101,-130 0,-32 17,-80 15,-120 -3,-37 0,-65 15,-100 64,10 116,26 178,35 116,17 120,-22 219,-28 57,-3 89,22 147,31 31,5 50,6 80,10 72,9 64,84 119,138 50,48 72,65 136,94 14,6 108,38 121,40l4 0c72,-6 86,-17 145,26 44,32 88,-1 131,-20 75,-34 65,-31 148,-42 39,-5 84,-19 128,-25 29,-4 45,-9 78,-12 61,-4 166,-32 211,-77 70,-71 54,-34 119,-73 54,-32 60,-36 97,-85 37,-49 108,-14 179,-96 29,-34 41,-53 66,-87 12,-16 16,-21 34,-30l145 -62 0 0z"/>
  <path class="fil1 str0" d="M9747 13906l10 315c9,51 7,76 4,124 -6,89 -16,129 -58,208 -33,62 -68,123 -101,186 42,78 43,79 110,118 109,63 192,187 205,314 7,69 29,123 27,204 -3,128 -17,205 -41,329 -14,73 -14,194 -5,269 6,53 8,101 22,155 -5,73 0,149 20,218 21,71 11,161 69,230 68,80 68,61 164,69 9,1 76,134 80,153 25,104 88,225 -80,218 -83,-4 -44,77 -119,97 -33,9 -136,51 -117,99 49,125 62,223 208,123 87,-60 208,-100 241,32 21,83 24,69 27,159 4,111 128,117 143,220 14,98 67,196 142,260l11 11c68,156 59,67 126,156 62,83 76,207 110,301 29,79 0,54 54,142 23,37 12,147 33,205 36,99 -16,183 158,77 41,-25 88,-116 88,-26 0,32 -7,214 47,192 57,-24 102,-74 182,-74 59,0 152,48 192,-42 11,-24 18,-121 1,-151 -40,-72 -51,-124 -102,-202 -29,-44 -35,-73 -77,-130 -35,-48 -136,-177 -24,-203 120,-28 184,-144 299,9 79,105 152,33 269,119 121,88 199,-10 166,214 -23,162 -135,208 -147,288 -8,51 152,56 193,66 21,5 103,4 149,13 28,5 112,23 139,30l0 0c-38,13 1,135 -98,122 -64,-9 -55,44 -80,71 -26,27 -31,37 -62,63 -31,26 -99,72 -134,91 -7,4 -15,12 -22,17 -42,35 -19,23 -36,40 -32,32 -120,36 -162,24 -25,-7 -53,25 -52,53 1,26 -68,42 -44,129 9,34 11,121 -38,123 -25,1 -55,6 -63,35 -4,16 22,52 29,76 12,44 -5,75 -29,111 -94,80 -53,90 -110,155 -28,32 -64,3 -93,101 -14,48 -12,98 -74,105 -71,9 -82,67 -105,123 -28,68 -3,122 -104,158 -30,10 -62,11 -93,14 -37,4 -80,56 -95,86 -39,23 -73,27 -100,68 -77,118 -87,107 -202,163 -56,27 -38,193 -48,235 -27,105 -23,188 -23,295 0,45 92,123 135,130 40,7 108,41 108,42 15,53 -31,110 8,186 17,34 17,49 27,73 11,27 -74,106 -13,160 70,62 92,-126 89,166 0,35 148,45 72,155 -90,131 89,74 9,152 -105,103 14,136 72,204 79,94 3,78 3,161 0,71 85,66 108,102 40,63 26,78 0,139 -22,52 88,96 88,104 1,28 -60,112 -21,154 67,71 75,68 48,188 -3,11 -6,24 -11,34 -86,172 90,137 91,183 2,83 -120,153 13,236 19,12 -4,74 12,108 25,52 -103,90 -71,127 57,64 176,-27 243,13 83,49 33,110 -38,143 -51,24 -66,33 -69,40l0 0c-32,-6 -107,-12 -138,-19 -31,-7 -177,-46 -199,-46 -66,1 -89,-41 -113,-96 -14,-33 -29,-100 -42,-124 -22,-41 -50,-131 -71,-160 -56,-74 -52,-76 -135,-120 -60,-31 -89,-24 -153,-75 -66,-83 -44,-44 -96,-92 -47,-43 -132,-132 2,-117 114,13 192,10 297,-42 100,-49 99,-84 86,-183 -12,-97 -39,-165 -116,-230 -52,-44 -54,-90 -79,-139 -31,-32 -113,-153 -132,-194 -34,-70 -37,-100 -84,-169 -2,-4 -3,-5 -5,-9 -37,-52 -108,-107 -126,-171 -20,-71 -36,-124 -33,-198 2,-46 8,-90 10,-135 4,-79 -20,-87 -71,-135 -56,-53 -64,-112 -49,-186 19,-38 34,-70 51,-108 29,-65 7,-91 -20,-145 -18,-35 -119,-140 -153,-163 -45,-31 -77,-70 -89,-124 -12,-55 -21,-53 -10,-117l5 -19c21,-79 86,-212 75,-287 -7,-43 -109,-68 -147,-77 -71,-18 -84,-31 -145,-55 -47,-18 -74,-38 -114,-57 -38,-18 -71,-46 -103,-61 -59,-29 -136,-95 -141,-164 -6,-72 23,-56 -36,-115l-14 -7c-31,-16 -94,-56 -117,-65 -162,-58 -210,43 -311,9 -82,-27 -87,-1 -141,-8 -147,-20 -245,-217 -290,-341 -19,-51 -41,-106 -57,-157 -3,-8 -37,-136 -37,-138 -1,-30 -34,1 -41,11 -34,44 -65,52 -96,84 -34,35 -110,52 -158,50 -40,-2 -45,2 -90,-12l-5 2c-96,39 -196,77 -281,-8 -110,-111 -73,-168 -133,-275 -29,-52 -115,-17 -159,-5 -68,19 -67,-50 -141,22 -60,58 -94,-37 -131,-39 -53,-4 -32,65 -93,33 -42,-22 -9,-25 -77,-44 -72,40 -94,51 -117,132 -12,40 -57,52 -91,35 -30,-15 -13,-8 -45,-15 -17,-4 -65,-3 -82,2 -22,6 -61,3 -83,8 -47,10 -107,0 -155,18 -41,16 -133,30 -171,2 -29,-22 -73,-38 -78,16 -5,57 -9,90 47,113 24,10 7,41 12,56 13,35 -84,46 -90,48l-3 2c-49,37 -51,71 -86,107 -30,32 -87,43 -127,25 -42,-19 -73,-4 -96,-42 -16,-27 -22,-40 -41,-67 -27,-38 -142,91 -155,105l0 0 -6 -87c0,-13 0,-22 -1,-35 -5,-49 -7,-43 -29,-81 -17,-30 -115,-69 -149,-79 -47,-14 -180,-72 -218,-96 -47,-31 -97,-40 -126,-87 -17,-27 -5,-165 2,-199 13,-60 7,-122 18,-182 -3,-57 -57,-128 -95,-168 -57,-59 -65,-98 -26,-175 44,-87 84,-172 101,-269 7,-42 25,-85 39,-126 16,-48 28,-37 -17,-85 -72,-59 -81,-87 -71,-176 8,-71 33,-95 16,-170 -9,-42 -51,-93 -66,-128 -14,-32 -48,-45 18,-68 38,-13 70,-30 105,-44 23,-10 101,-42 117,-56 40,-35 62,-21 62,-67 0,-31 -11,-73 -12,-101 -2,-48 -20,-108 -27,-154 -10,-55 -38,-296 -28,-350 1,-4 26,-222 26,-223 -2,-78 22,-93 24,-120 4,-53 105,-114 158,-116 77,-3 263,-220 350,-243 102,-27 26,-120 40,-175 5,-19 161,-176 189,-207 75,-84 97,-82 155,-191 65,-122 -2,-126 142,-230 58,-69 187,-193 266,-238 74,-42 176,-229 216,-309 38,-76 18,-128 90,-105 93,30 183,71 269,9 126,-92 91,-112 118,-243 9,-47 -25,-122 -7,-133 24,-15 101,1 142,1 110,0 247,-54 294,-159 45,-101 55,-194 38,-306l0 0c10,-25 -5,-173 75,-78 25,30 66,-74 97,-23 34,56 9,33 59,54 23,9 167,-38 181,-53 55,-58 128,-112 213,-109 100,3 167,-26 245,-26 12,0 210,32 218,35 30,12 137,7 149,11 48,14 175,-6 235,-6 21,0 89,9 103,24 41,47 176,57 227,65l0 0z"/>
  
  
  
  
  
  
  
  
  
  
  
  
  
  
  
  
  
  
  
  
  
  
  
  
 </g>
</svg>