<svg xmlns="http://www.w3.org/2000/svg" xmlns:xlink="http://www.w3.org/1999/xlink" xml:space="preserve" width="210mm" height="297mm" version="1.1" style="shape-rendering:geometricPrecision; text-rendering:geometricPrecision; image-rendering:optimizeQuality; fill-rule:evenodd; clip-rule:evenodd" viewBox="0 0 21000 29700">
 <defs>
  <style type="text/css">
   <![CDATA[
    .str1 {stroke:white;stroke-width:50;stroke-opacity:0.501961}
    .str3 {stroke:white;stroke-width:50}
    .str5 {stroke:#434242;stroke-width:50}
    .str0 {stroke:white;stroke-width:50}
    .str2 {stroke:white;stroke-width:50}
    .str6 {stroke:#2B2A29;stroke-width:7.62}
    .str4 {stroke:white;stroke-width:7.62}
    .fil6 {fill:none}
    .fil1 {fill:#171729}
    .fil0 {fill:#171729}
    .fil8 {fill:#D9DADA}
    .fil5 {fill:#171729;fill-rule:nonzero}
    .fil4 {fill:#D9DADA;fill-rule:nonzero}
    .fil7 {fill:#434242;fill-rule:nonzero}
    .fil3 {fill:black;fill-rule:nonzero}
    .fil2 {fill:#171729;fill-rule:nonzero;fill-opacity:0.501961}
   ]]>
  </style>
  <script type="text/javascript"><![CDATA[
  function myfunction() {
  console.log('123')
}
]]></script>
 </defs>
 <g id="Plan_x0020_1">
  <metadata id="CorelCorpID_0Corel-Layer"/>
  <path class="fil0 str0" d="M11957 9158l-19 -108c24,-20 50,-43 74,-63 23,-19 27,-98 15,-119 -18,-34 6,-50 6,-95 0,-47 24,-41 54,-73 23,-25 22,-40 48,-60 36,-27 10,-89 61,-102 41,-11 137,45 214,-29 9,-9 28,-85 21,-102 -38,-96 -9,-109 75,-156 10,-5 31,-14 42,-19 54,-14 89,-29 144,-34 27,-3 57,-12 87,-11 47,2 99,-10 140,20 63,46 73,-26 169,40 12,8 18,10 32,21 29,22 63,3 104,44 21,21 19,52 71,63 30,6 67,-54 89,-68 53,-34 60,-72 95,-119 35,-47 50,-152 31,-207 -20,-56 -33,-83 14,-134 29,-31 49,-79 34,-121 -18,-49 -56,-140 -6,-180 49,-40 67,-39 113,-69 58,-38 103,-37 168,-47l8 -1 158 -32 0 0c-42,-28 -49,-67 -60,-114 -22,-92 -84,-395 -216,-402l0 0c-11,-1 -26,-4 -35,5 -50,43 -105,88 -173,102 -107,22 -102,-67 -174,-67 -61,0 -65,93 -105,95 -164,9 -380,-162 -474,-281 -123,-154 -235,-57 -345,-161 -35,-33 -58,-72 -88,-101l0 0c-73,9 -134,-23 -173,-78 -17,-24 -60,-80 -95,-63 -85,40 34,256 23,328 -11,71 -56,138 -76,205l-30 105 0 0 29 55c26,37 49,91 49,136 0,39 -24,70 -35,106 -32,57 -40,71 -92,111 -39,30 -23,67 -31,109 -15,75 -151,34 -205,57 -133,57 -179,378 -340,371 -134,-5 -200,17 -242,147l-55 119 0 0c16,60 -18,94 -20,152 -2,53 15,81 36,127 19,40 19,101 21,147 3,58 -54,96 -54,160l15 41 0 0c98,-14 125,-106 235,-28 124,88 113,-25 205,-62 60,-24 67,89 68,123 2,94 74,130 112,210 68,143 79,99 210,87 20,5 47,12 74,21l0 0z"/>
  <path class="fil0 str0" d="M11957 9158c62,21 123,57 97,121 -26,62 -46,190 54,177 78,-10 90,9 154,39 80,38 196,-13 271,-47 92,-42 104,79 173,54l72 -31 0 0c37,-3 84,-24 117,0 32,24 40,63 75,84 53,31 110,-20 181,37 46,37 99,51 145,91 79,68 127,131 237,99 138,-40 131,46 241,82l113 25 0 0 107 -80c7,-85 126,-308 236,-247 109,61 196,116 216,-55 9,-77 55,-205 136,-239 115,-48 111,235 257,189 51,-16 83,66 133,45 50,-20 61,-80 139,-106 6,-23 -26,-86 7,-97 25,-8 151,-59 174,-51 52,18 14,97 24,138 20,5 31,5 49,-13 23,-31 36,-50 77,-50 23,0 36,8 51,24 34,36 66,16 63,-31 -2,-41 54,-136 79,-167l0 0c-22,0 -44,-1 -65,-2 -45,-3 -62,-49 -71,-86 0,-58 -12,-130 56,-156 57,-22 105,-51 150,-93 41,-37 8,-53 -21,-75 -45,-35 -64,-80 -104,-115 -25,-28 -30,-50 -25,-85 5,-34 -12,-50 -32,-74 -48,-57 -67,-97 -70,-173 -2,-43 25,-54 29,-84 31,-83 -114,-41 -129,-125 -12,-67 -67,-133 -130,-166 -48,-25 -81,-86 -101,-134 0,-82 7,-71 -58,-107 -54,-30 -69,-100 -116,-124 -40,-20 -77,-12 -102,-55 -24,-41 -97,-39 -127,-91 -44,-44 -51,-97 -114,-124 -50,-22 -103,-11 -154,-19 -13,-2 -75,17 -87,26 -48,38 -60,48 -124,42l-117 18c-53,-18 -74,84 -126,49l0 0 -158 32 -8 1c-66,10 -110,9 -168,47 -46,30 -63,29 -113,69 -50,41 -12,131 6,180 15,42 -5,89 -34,121 -47,51 -34,78 -14,134 19,54 4,160 -31,207 -35,47 -42,85 -95,119 -22,14 -59,74 -89,68 -52,-11 -50,-42 -71,-63 -41,-41 -75,-22 -104,-44 -14,-11 -20,-13 -32,-21 -96,-66 -106,6 -169,-40 -41,-30 -93,-18 -140,-20 -30,-1 -60,8 -87,11 -55,6 -90,21 -144,34 -11,5 -32,14 -42,19 -84,47 -113,60 -75,156 7,17 -12,94 -21,102 -77,73 -173,18 -214,29 -50,13 -24,75 -61,102 -27,20 -26,36 -48,60 -30,33 -54,27 -54,73 0,45 -24,61 -6,95 11,21 7,101 -15,119 -24,20 -50,43 -74,63l19 108 0 0z"/>
  <path class="fil0 str0" d="M4141 13850l-56 97c18,58 10,66 20,112 7,31 23,45 22,78 -2,61 5,50 -19,109 -10,24 -36,169 -37,196 -1,28 -6,114 -18,135 -25,43 -62,9 -108,5 -47,-4 -114,-12 -141,37 -38,68 75,82 116,82 50,0 203,6 226,56 2,4 4,11 5,13 15,72 3,31 -19,69 -31,53 -20,76 16,122 12,16 40,14 61,50 13,22 27,42 40,66 51,97 84,69 69,204 -6,53 -27,161 -76,189 -53,30 -237,-81 -136,97 13,23 22,61 23,87l0 3c1,4 20,71 7,80 -17,12 -132,-7 -112,57 10,32 150,16 120,90 -10,23 -99,68 -82,135l0 0 53 4c68,4 140,-13 209,-10 59,3 99,27 153,37 92,17 63,-117 136,-141 77,-25 73,-57 144,-88 31,-25 221,-138 138,-180 -49,-25 -12,-65 -30,-113 -16,-43 -37,-118 24,-142 51,-20 152,-95 206,-56 47,34 130,112 185,122l70 10 0 0 16 -64c0,-40 50,-117 92,-128 14,-59 -28,-70 -38,-127 -11,-61 53,-82 58,-137 3,-31 2,-110 57,-84 44,21 63,103 118,91 61,-14 80,-102 142,-122 95,55 102,156 213,189 94,27 84,98 149,149 60,47 82,-5 125,-19 19,-6 30,26 55,8 18,-13 26,-47 51,-39 41,13 50,3 87,-18 49,-28 61,-52 69,-107 2,-16 65,-63 83,-78 59,-48 30,-60 67,-119 35,-57 136,-30 30,-125l0 0c-18,-4 -41,0 -58,4 -25,5 -44,7 -70,7 -41,0 -68,-31 -101,-49 -12,-7 -54,-10 -62,5l-13 -1c-65,5 -78,-13 -132,-24 -39,-8 -62,52 -100,18 -43,-39 -51,-201 -49,-260 3,-67 -24,-71 -58,-119 -37,-53 -28,-117 -68,-169 -21,-28 -62,-26 -74,-60 -10,-28 -1,-83 -35,-94 -46,-15 -96,16 -118,56 -58,26 -105,32 -124,-42 -16,-63 -63,-57 -86,-110 -61,-138 -115,-97 -226,-36 -107,59 -79,38 -170,-32 -31,-24 -147,-52 -184,-38 -49,19 -67,74 -116,90l0 0c-34,59 -54,43 -111,47 -71,5 -117,67 -151,124 -28,47 -53,82 -111,63 -75,-24 -41,-132 -75,-147 -49,-22 -107,134 -154,23 -47,-47 -31,-97 -100,-118 -15,-5 -26,-10 -37,-16l0 0z"/>
  <path class="fil0 str0" d="M4141 13850l-56 97c18,58 10,66 20,112 7,31 23,45 22,78 -2,61 5,50 -19,109 -10,24 -36,169 -37,196 -1,28 -6,114 -18,135 -25,43 -62,9 -108,5 -47,-4 -114,-12 -141,37 -38,68 75,82 116,82 50,0 203,6 226,56 2,4 4,11 5,13 15,72 3,31 -19,69 -31,53 -20,76 16,122 12,16 40,14 61,50 13,22 27,42 40,66 51,97 84,69 69,204 -6,53 -27,161 -76,189 -53,30 -237,-81 -136,97 13,23 22,61 23,87l0 3c1,4 20,71 7,80 -17,12 -132,-7 -112,57 10,32 150,16 120,90 -10,23 -99,68 -82,135l0 0 -216 -14c-74,-5 -72,54 -123,85 -73,44 -65,15 -43,104 15,60 -96,63 -81,121l7 73 0 0c-14,0 -62,41 -76,51 -21,15 -40,45 -62,56 -15,8 -20,-1 -32,4 -13,5 -20,13 -30,23l-61 33 0 0c-30,-4 -60,-12 -90,-13 -67,-3 -118,-58 -160,-100 -55,-55 -143,-10 -189,-49 -33,-28 -98,-27 -139,-20 -59,10 -132,67 -188,32 -60,-37 -166,-22 -199,-54 -45,-41 -48,-40 -110,-54 -48,-10 -64,-49 -115,-35 -19,-35 -37,-70 -58,-104 -21,-33 -45,-66 -70,-96 -10,-12 -26,-24 -40,-38l23 -24c49,-18 28,-21 88,-30l117 -17c27,-4 36,8 63,-7 26,-14 44,-67 60,-91 30,-48 65,-31 106,-46 32,-8 58,-12 51,-50 -5,-24 23,-56 14,-69 -10,-15 -37,-26 -42,-42 -8,-26 37,-27 50,-32 29,-13 50,5 74,-9 36,-23 52,-74 101,-74 29,0 46,20 74,-3 33,-28 9,-59 22,-85 -12,-19 -38,-15 -27,-42 9,-22 26,-37 41,-55 47,-55 22,-65 -33,-55 -26,4 -14,52 -40,46 -1,-6 -12,-43 -16,-49 -5,-9 -35,-34 -35,-38 0,-16 75,-30 93,-42 27,-18 32,9 53,-4 21,-13 19,-88 35,-114 25,-43 -53,-43 -81,-35 -20,6 -36,39 -55,10 -19,-30 -17,-62 -28,-94 20,-40 69,-22 72,-50 3,-29 -15,-85 -31,-108 -23,-33 -4,-45 30,-38 27,54 147,63 102,-26 -16,-32 -23,-53 -32,-87 -9,-38 -26,-75 -35,-114 2,-30 7,-73 1,-103 -6,-31 -31,-55 -28,-88 5,-77 -33,-79 49,-110 43,-16 -13,-50 -3,-76 7,-18 -6,-34 2,-47 8,-14 40,-8 42,-20 2,0 6,-4 8,-4 42,-15 115,-19 87,-80 -13,-28 -19,-45 -20,-57l0 0 81 65c2,7 1,12 6,13 15,37 89,95 124,111 75,36 68,-12 130,-27 10,-40 31,-110 61,-143 22,-25 52,-13 76,-47 12,-17 15,-60 39,-66 3,-12 44,-21 51,-43 16,-49 -20,-140 73,-140 71,0 169,9 234,-21 57,-27 62,-121 153,-93 127,39 -62,249 81,249 49,0 68,14 94,27l0 0z"/>
  <path class="fil0 str0" d="M4713 9311l188 17c153,-14 330,277 424,88 64,-11 91,120 161,76 140,-87 158,-131 108,-280 -38,-113 -27,-154 72,-228 167,-126 142,137 253,214 87,60 109,-73 179,-73 88,0 21,-145 119,-131 31,61 60,104 124,130 67,28 12,167 95,177 46,-6 71,2 108,-30 29,-25 36,-98 74,-100 62,-4 52,152 119,128 23,-8 22,-29 51,-29 58,0 45,-71 56,-113 10,-37 30,-17 55,-18 41,-2 27,-71 87,-74 40,-2 62,41 112,41l64 -19 0 0c0,42 11,63 -26,88 -41,28 -106,35 -92,99 20,90 122,150 122,235 0,20 -15,40 -8,61 7,20 30,32 32,56 3,29 -6,58 -10,86 -23,126 -136,135 -163,243 -21,84 8,192 -26,264 -28,58 64,70 87,93 25,26 -18,89 -43,101 -92,46 -80,128 -122,209 0,114 48,223 -24,319 -19,26 -17,72 -36,87l0 0 -170 -36 0 0c-91,-228 -232,82 -313,-17 -37,-45 -55,-111 -105,-142 -95,-59 -115,77 -113,136 5,138 -77,125 -176,86 -26,-10 -104,-14 -117,-26 -36,-36 -26,-101 -20,-146 0,-59 -103,-29 -132,-80 -31,-53 -4,-123 -4,-175 -11,-3 -21,-15 -38,-18 -18,-3 -37,5 -55,4 -34,-2 -19,-48 -60,-50 -28,-2 -35,-4 -41,-33 -4,-22 -2,-70 -25,-78 -40,-14 -63,62 -91,76 -91,91 -90,-80 -99,-129 -18,-92 -95,-102 -83,-210 7,-66 -58,-98 -94,-36 -78,135 -44,75 -148,13 -34,25 -32,91 -66,104 -32,12 -65,-47 -79,19 -6,27 24,60 10,82 -20,32 -63,23 -81,55 -24,42 -16,113 -70,130 -77,24 -98,-32 -161,-48 -88,-22 -109,-108 -126,-187 -14,-65 -58,-13 -93,-32 -45,-25 -23,-109 -39,-147 2,-1 3,-23 4,-26 0,-71 -148,-61 -106,-131 34,-58 97,-35 102,-129 3,-46 35,-59 66,-84 30,-25 42,-73 66,-103 37,-47 -24,-161 18,-175 39,-13 83,17 114,-33 27,-44 52,-84 88,-119l97 -31 0 0z"/>
  <path class="fil0 str0" d="M8092 13418l-29 39c51,41 112,50 78,117 -11,22 -18,110 -32,115 -22,7 -126,-5 -82,51 41,53 -3,48 -26,79 -17,22 2,54 -23,75 -43,37 -96,2 -138,44 -60,60 -259,-15 -243,116 7,54 86,70 131,74 87,8 17,65 6,99 -23,49 -17,130 6,179 43,93 110,-4 163,-14 8,8 4,11 8,19 -24,56 11,94 41,135 43,59 16,104 7,168l-13 51 0 0 -67 -7c-8,0 -16,0 -24,0 -9,0 -17,-3 -26,-4 -12,-1 -23,0 -35,2 -34,6 -49,47 -68,70 -41,16 -125,55 -154,10 -45,-73 5,-54 -85,-60 -23,-1 18,-101 25,-121 9,-25 1,-105 -37,-91 -69,27 -53,115 -108,153 -83,57 -158,-61 -224,-84l-137 -47c-30,-10 -142,9 -155,-2 -46,-41 -98,1 -124,42l-2 101 0 0c-18,-4 -41,0 -58,4 -25,5 -44,7 -70,7 -41,0 -68,-31 -101,-49 -12,-7 -54,-10 -62,5l-13 -1c-65,5 -78,-13 -132,-24 -39,-8 -62,52 -100,18 -43,-39 -51,-201 -49,-260 3,-67 -24,-71 -58,-119 -37,-53 -28,-117 -68,-169 -21,-28 -62,-26 -74,-60 -10,-28 -1,-83 -35,-94 -46,-15 -96,16 -118,56 -58,26 -105,32 -124,-42 -16,-63 -63,-57 -86,-110 -61,-138 -115,-97 -226,-36 -107,59 -79,38 -170,-32 -31,-24 -147,-52 -184,-38 -49,19 -67,74 -116,90l0 0 -26 -49c-22,-39 -60,-63 -101,-75 -15,-4 -29,-3 -43,-12 -16,-9 -23,-25 -39,-35 -18,-50 -69,-73 -69,-132 0,-39 50,-48 46,-74 -18,-130 59,-51 143,-105 36,-23 58,-65 79,-101 38,-5 58,-127 113,-143 108,-31 46,-90 98,-153 36,-44 50,-87 44,-146 0,-46 -4,-93 -35,-129 -29,-35 -47,-48 -50,-98 -4,-70 -112,-98 -105,-159 7,-55 63,-65 76,-106 6,-19 8,-41 17,-60 13,-27 71,-131 93,-143 36,-20 53,-40 49,-79l-17 -87 0 0 -39 -39c-2,-48 -8,-36 23,-69 33,-36 -14,-133 75,-140 46,-3 36,67 102,67 28,0 23,59 95,49 95,-13 73,74 136,93 47,14 54,-38 72,-63 9,-13 83,-60 91,-30 17,4 23,142 37,168 31,58 75,73 135,50 77,-29 168,22 168,-106 0,-66 12,-160 97,-171l107 -68 0 0c37,-4 80,-21 95,29 8,25 0,56 7,84 20,79 135,108 145,181l0 0c-6,57 -22,102 -46,154 -16,34 -120,182 -12,175 52,-3 173,-46 189,21 -12,4 -18,10 -37,14 -30,7 -49,15 -76,31 21,39 19,55 72,55 118,0 60,45 95,116 28,57 71,5 105,-18 39,-27 151,-24 147,-101 -2,-37 -106,-132 -38,-146l58 -18 0 0 156 -19c121,-35 262,90 368,2 91,-75 210,-56 288,23l0 0c0,67 -72,61 -81,124 -19,142 213,41 150,166 -53,106 -16,227 94,276 75,2 140,124 56,144 -33,8 -60,-6 -92,-8 -55,-4 49,76 49,97 0,35 -37,56 -25,98 8,29 31,39 52,56 32,26 17,62 57,82 25,13 57,41 63,70l0 0z"/>
  <path class="fil0 str0" d="M4713 9311l-97 31c-37,35 -61,75 -88,119 -31,50 -75,20 -114,33 -42,14 19,128 -18,175 -23,30 -35,78 -66,103 -31,25 -63,37 -66,84 -6,94 -69,71 -102,129 -42,71 106,60 106,131 -1,3 -1,25 -4,26 16,37 -5,122 39,147 35,19 79,-33 93,32 17,79 38,165 126,187 63,16 84,71 161,48 55,-17 46,-88 70,-130 18,-32 61,-23 81,-55 14,-23 -15,-55 -10,-82 14,-66 46,-7 79,-19 33,-13 32,-78 66,-104 103,62 70,122 148,-13 36,-62 101,-31 94,36 -12,108 66,118 83,210 9,48 8,220 99,129 27,-14 51,-90 91,-76 23,8 21,56 25,78 6,29 13,32 41,33 40,2 25,48 60,50 18,1 37,-6 55,-4 17,3 27,15 38,18 0,52 -27,122 4,175 30,51 132,21 132,80 -6,44 -15,110 20,146 12,12 91,16 117,26 99,39 182,52 176,-86 -2,-59 19,-195 113,-136 50,31 68,97 105,142 82,99 223,-211 313,17l0 0c-48,34 -101,112 -162,112 -74,0 -117,40 -101,118 11,53 -66,79 -41,131 20,41 57,47 11,90 -26,24 -27,47 -31,80 -6,48 -95,8 -83,66 11,56 -20,87 -26,141l0 0 -107 68c-84,11 -97,105 -97,171 0,128 -91,77 -168,106 -60,23 -103,8 -135,-50 -14,-26 -20,-164 -37,-168 -7,-30 -82,17 -91,30 -18,25 -25,78 -72,63 -63,-20 -41,-107 -136,-93 -72,10 -68,-49 -95,-49 -67,0 -57,-70 -102,-67 -89,6 -42,104 -75,140 -31,34 -24,21 -23,69l39 39 0 0c-11,4 -23,15 -37,18 -9,2 -28,1 -36,-2 -18,-7 -30,-29 -36,-45 -5,-13 -7,-25 -18,-36 4,-2 -9,-11 -11,-12 -5,-2 -9,-2 -15,-2 -19,0 -34,4 -51,-2 -60,-12 -19,-90 -41,-115 -20,-22 -61,59 -98,44 -63,-26 36,-136 -81,-187 -67,-30 -50,-76 -104,-115 -10,-7 -63,-36 -55,-51 -38,-39 -126,-24 -148,-64 -30,-57 -21,-125 -113,-107 -61,12 -53,-23 -88,-44 -33,-21 -120,30 -131,-16 -2,0 -7,-3 -7,-5 -36,0 -44,44 -80,44 -66,0 -30,46 -7,79 41,58 -35,98 -18,172 11,48 -69,59 -99,70 -64,25 -95,77 -173,69l-42 133 0 0c-13,-19 -24,-34 -29,-34 -18,0 -12,44 -34,30 -21,-14 -24,-43 -44,-59 -34,0 -61,-18 -91,-18 -31,0 -75,27 -102,8 -18,-13 -13,-34 -37,-45 -26,-12 -48,-23 -55,-53 -14,-69 -32,-44 -85,-14 -26,15 -45,16 -73,22 -17,-9 -66,-104 -94,-76 -24,24 -7,153 -64,104 -27,-24 -59,-30 -94,-37 -22,-5 -34,-24 -55,-30 -28,-8 -58,4 -85,7 -58,7 -37,-97 14,-109 5,-20 -17,-60 -31,-76 0,-30 -14,-50 19,-71 25,-16 34,-31 34,-61 0,-58 60,-60 51,-115 -17,-104 -21,-151 88,-179 1,-2 2,-2 6,-3 34,-15 68,-6 96,-30 24,-20 74,-45 102,-57 14,-6 78,-16 79,-21 3,-1 2,-6 0,-8 4,-10 -56,-57 -64,-65 -27,-25 -32,-56 -55,-80 -27,-29 -79,-127 -23,-148 45,-16 52,-11 62,-63 46,-38 125,-176 165,-187 26,-7 5,-62 18,-79 20,-25 30,-45 63,-38 61,12 15,-72 51,-95 46,-31 72,-83 112,-114l41 -11c5,-18 14,-37 17,-46 21,-64 -23,-53 -8,-95 26,-75 -61,-31 -91,-42 -32,-11 -50,-42 -70,-66 -35,-44 -65,36 -85,-24 -24,-72 -74,-57 -138,-68 -16,-3 -35,-7 -53,-13l16 -63 72 -42c33,-52 54,-35 100,-47 27,-7 67,-50 61,-79 -7,-29 -4,-55 -9,-84 -8,-36 -8,-79 -18,-114 -14,-49 -84,-96 -37,-148 8,-19 30,-46 16,-66 -12,-18 -37,-36 -36,-61 2,-39 33,-100 65,-122 21,-14 55,-22 31,-52 -23,-29 -76,-36 -90,-78l0 0 91 -41c69,0 132,-27 199,-31 62,-4 82,14 117,62 46,64 154,34 223,121 37,47 56,119 105,159 44,36 216,12 271,-1 33,-8 108,-18 131,11 29,35 83,20 126,42 0,45 -80,122 39,122 26,-7 65,-10 87,6 22,16 44,46 44,73 0,28 -18,61 -18,91l0 0z"/>
  <path class="fil0 str0" d="M6684 10991c-48,34 -101,112 -162,112 -74,0 -117,40 -101,118 11,53 -66,79 -41,131 20,41 57,47 11,90 -26,24 -27,47 -31,80 -6,48 -95,8 -83,66 11,56 -20,87 -26,141l0 0c37,-4 80,-21 95,29 8,25 0,56 7,84 20,79 135,108 145,181l0 0c38,-20 87,-48 122,-5 14,17 67,66 89,58 27,-10 5,-75 12,-100 10,-38 142,-88 167,-63 25,25 -15,100 -2,136 21,57 94,1 94,104 0,30 -12,132 -25,154l0 0 156 -19c121,-35 262,90 368,2 91,-75 210,-56 288,23l0 0 38 -58c23,-29 42,-77 35,-113 -8,-40 7,-62 21,-97 9,-22 -10,-48 -21,-67 -57,-32 -170,26 -176,-85 -5,-94 1,-133 -32,-221 -19,-50 -13,-114 -30,-169 -21,-67 63,-109 29,-156 -25,-34 17,-75 33,-106l61 -94 0 0c-5,-20 -83,-66 -102,-73 -4,-14 -80,-24 -95,-24 -54,0 -89,32 -133,56 -101,54 -125,-87 -206,-54 -59,24 -80,97 -138,19 -54,-73 -97,0 -155,-4l-39 -39 0 0 -170 -36 0 0z"/>
  <path class="fil0 str0" d="M6498 12022c-6,57 -22,102 -46,154 -16,34 -120,182 -12,175 52,-3 173,-46 189,21 -12,4 -18,10 -37,14 -30,7 -49,15 -76,31 21,39 19,55 72,55 118,0 60,45 95,116 28,57 71,5 105,-18 39,-27 151,-24 147,-101 -2,-37 -106,-132 -38,-146l58 -18 0 0c13,-22 25,-124 25,-154 0,-103 -74,-46 -94,-104 -13,-36 28,-111 2,-136 -24,-24 -157,26 -167,63 -7,25 15,90 -12,100 -22,8 -76,-42 -89,-58 -35,-43 -84,-15 -122,5l0 0z"/>
  <path class="fil0 str0" d="M3666 11812l42 -133c78,7 109,-44 173,-69 29,-12 110,-23 99,-70 -17,-74 59,-114 18,-172 -23,-33 -59,-79 7,-79 36,0 44,-44 80,-44 0,1 5,4 7,5 11,45 98,-5 131,16 35,21 27,56 88,44 93,-18 83,51 113,107 22,41 109,26 148,64 -8,16 45,44 55,51 53,39 37,85 104,115 117,52 18,162 81,187 37,15 78,-67 98,-44 21,24 -20,102 41,115 18,6 33,2 51,2 6,0 10,0 15,2 2,1 15,10 11,12 11,11 13,22 18,36 6,16 18,38 36,45 8,3 27,4 36,2 14,-3 26,-14 37,-18l0 0 17 87c4,39 -13,58 -49,79 -22,13 -80,117 -93,143 -9,19 -10,40 -17,60 -14,41 -69,51 -76,106 -8,61 101,89 105,159 3,50 21,63 50,98 30,36 35,83 35,129 5,59 -8,102 -44,146 -52,63 10,122 -98,153 -55,16 -75,139 -113,143 -21,36 -43,79 -79,101 -84,54 -161,-24 -143,105 4,26 -46,35 -46,74 0,59 51,82 69,132 16,10 24,25 39,35 14,9 28,8 43,12 42,12 79,37 101,75l26 49 0 0c-34,59 -54,43 -111,47 -71,5 -117,67 -151,124 -28,47 -53,82 -111,63 -75,-24 -41,-132 -75,-147 -49,-22 -107,134 -154,23 -47,-47 -31,-97 -100,-118 -52,-16 -62,-43 -131,-43 -143,0 46,-211 -81,-249 -91,-28 -95,66 -153,93 -64,30 -163,21 -234,21 -92,0 -57,91 -73,140 -7,22 -48,31 -51,43 -25,6 -27,49 -39,66 -24,33 -54,22 -76,47 -30,33 -51,103 -61,143 -62,15 -55,63 -130,27 -35,-16 -109,-74 -124,-111 -5,-1 -4,-6 -6,-13l-81 -65 0 0c-1,-24 19,-30 57,-54 65,-43 -12,-232 -34,-290 -17,-38 -65,-44 -93,-69 -19,-16 -1,-54 -29,-76 -58,-47 -154,-37 -221,-86 -48,-35 -46,-71 -65,-120 0,-41 -58,-33 -50,-91 3,-22 29,-86 56,-86 27,0 51,6 64,-22 7,-15 -20,-84 -32,-94 -55,-45 -7,-40 37,-72 17,-12 30,31 51,20 22,-12 12,-63 26,-83 10,-14 29,-15 35,-30 20,-36 75,-36 73,-75 -2,-38 -94,-18 -67,-62 14,-23 30,-39 41,-64 14,-33 20,-70 37,-103 21,-43 -44,-107 12,-107 16,0 43,-15 55,-7 39,27 171,72 133,-27 5,-54 52,-57 84,-89 24,-24 22,-60 22,-91 -23,-8 -59,3 -81,-9 -8,-5 -8,-62 -2,-68 26,-29 90,-27 127,-41 18,-7 71,18 78,-16 1,0 5,-7 5,-7 53,-19 105,58 129,18 21,-35 -10,-118 60,-83 27,14 51,-5 71,-25 40,-38 29,-66 26,-117 -2,-29 20,-22 27,-2 22,61 6,112 84,88 27,-8 70,13 54,-38 -3,-9 -23,-45 -41,-72l0 0z"/>
  <path class="fil0 str0" d="M10216 11932l8 -60c99,-136 87,45 186,-10 33,-19 46,-55 86,-66 35,-9 35,11 64,12 53,2 70,-26 123,10 27,18 51,62 89,53 53,-12 37,-97 111,-107 39,-6 72,73 138,73l67 -4 0 0c0,-17 -6,-34 -6,-51 0,-14 10,-24 9,-38 0,-5 -5,-27 -1,-29 2,-25 34,-47 27,-69 -9,-29 -50,-37 -54,-67 0,-26 -1,-46 5,-72 4,-15 14,-30 18,-44 8,-27 -35,-68 -47,-92l0 0c-30,-3 -68,-8 -97,-14 -38,-9 -58,-38 -91,-54 -33,-16 -48,-31 -56,-69 -13,-64 -24,-45 -73,-72 -20,-11 -25,-36 -32,-56 -2,-31 -13,-54 5,-82 14,-22 43,-24 58,-44 40,-52 -35,-85 -62,-116 -24,-27 1,-67 38,-58 45,12 64,-31 61,-68l8 -63 0 0 -24 -58c-2,-26 -9,-49 -2,-75 6,-23 23,-43 35,-63 24,-41 39,-85 26,-132 -11,-39 -21,-48 -51,-74 -73,-10 -141,69 -193,41 -71,-38 -12,-140 -145,-81 -158,70 -279,-148 -399,-185 -37,-11 -114,-15 -142,-39 -35,-30 -39,-80 -69,-107 -24,-21 -110,-35 -144,-39l0 0c-28,4 -50,-4 -77,-7 -41,-5 -69,1 -102,26 -58,42 -122,-26 -149,42 -18,44 -51,98 -54,141 -2,48 -50,47 -70,79 -25,40 29,85 -12,153 -35,57 -165,53 -229,84 -37,18 -62,-39 -95,-39 -72,0 -58,76 -97,109 -19,16 -215,-108 -267,-91 -65,22 -51,129 -157,158l-81 57 0 0c50,16 61,47 120,35 106,-22 133,75 216,61 72,-12 116,-44 145,47 23,72 46,251 132,278 79,25 146,-125 209,17 17,145 180,111 197,191 28,135 95,259 63,400 -21,90 34,175 105,230 62,48 131,-28 200,58 5,1 9,1 13,2 0,11 20,45 31,49 55,21 68,-100 117,-72 43,25 37,88 64,127 18,25 29,37 61,32 42,-6 43,57 93,36 38,-16 51,-62 80,-74 5,-20 57,-42 72,-56l0 0z"/>
  <path class="fil0 str0" d="M10216 11932c23,12 37,34 61,47 45,23 88,11 104,74 10,39 60,64 63,97 6,57 -47,108 -6,167 15,22 36,28 56,43 28,22 42,45 61,75l2 45 0 0 -91 30c-52,0 -283,-3 -312,-23 -123,-82 -208,-69 -353,-62 -141,7 -39,137 -93,155 -47,15 -74,4 -76,70 -2,63 -13,114 -87,125 -59,9 -78,72 -132,27 -44,-37 -61,-97 -131,-48 -98,69 -56,96 -182,92 -61,-35 -54,-40 -122,-35 -43,3 -47,-37 -89,-37 -88,0 -153,-116 -180,5 -13,58 -3,126 -5,185 -4,106 -93,91 -17,204 120,178 -78,149 -189,178 -82,21 -50,125 -163,121 -82,-3 -163,-42 -243,-50l0 0c-6,-29 -38,-58 -63,-70 -40,-20 -26,-57 -57,-82 -21,-17 -44,-27 -52,-56 -12,-42 25,-63 25,-98 0,-20 -104,-101 -49,-97 32,2 59,17 92,8 84,-21 19,-142 -56,-144 -110,-49 -147,-169 -94,-276 62,-125 -169,-24 -150,-166 9,-63 81,-58 81,-124l0 0 38 -58c23,-29 42,-77 35,-113 -8,-40 7,-62 21,-97 9,-22 -10,-48 -21,-67 -57,-32 -170,26 -176,-85 -5,-94 1,-133 -32,-221 -19,-50 -13,-114 -30,-169 -21,-67 63,-109 29,-156 -25,-34 17,-75 33,-106l61 -94 0 0 116 -30c34,-26 61,-14 99,-23 41,-10 23,-93 91,-112 54,-15 67,-25 92,-75 35,-70 110,-49 147,-104 28,-42 10,-129 17,-183l14 -48 0 0c50,16 61,47 120,35 106,-22 133,75 216,61 72,-12 116,-44 145,47 23,72 46,251 132,278 79,25 146,-125 209,17 17,145 180,111 197,191 28,135 95,259 63,400 -21,90 34,175 105,230 62,48 131,-28 200,58 5,1 9,1 13,2 0,11 20,45 31,49 55,21 68,-100 117,-72 43,25 37,88 64,127 18,25 29,37 61,32 42,-6 43,57 93,36 38,-16 51,-62 80,-74 5,-20 57,-42 72,-56l0 0z"/>
  <path class="fil0 str0" d="M10557 12480l79 24c18,38 18,87 41,123 43,70 8,156 69,217 21,21 55,51 64,78 14,42 10,92 25,138 32,30 10,69 24,107 9,27 50,56 70,76 35,35 37,104 66,152 109,182 134,393 169,604 0,42 12,94 18,136 9,58 11,91 61,123 59,37 30,140 112,191 88,54 34,197 52,291 16,82 13,80 -8,162 -15,58 29,74 81,87 4,15 3,18 -5,33l-41 85 0 0c-18,-3 -34,-1 -47,12 -34,34 -117,142 -165,134 -37,-6 -66,-56 -99,-60 -68,-8 -64,90 -111,112 -31,15 -66,18 -101,37 -51,27 -53,26 -101,20 -57,-8 -88,-31 -133,17 -54,57 -71,2 -130,20 -34,10 -48,43 -60,74 -76,191 -204,58 -342,98 -37,11 -76,5 -114,8l-30 7c-47,11 -82,59 -129,60 -56,1 -80,-9 -108,47 -9,35 -27,74 -59,93 -30,18 -51,27 -60,65 -13,57 -22,108 8,158 11,19 16,51 -8,62 -11,15 -29,26 -33,44 -11,48 0,98 -8,146 -8,47 -3,64 2,109 3,21 3,43 1,64l15 60 0 0c-93,-40 -195,-59 -255,-153 -46,-71 -167,-115 -218,-179 -21,-26 -13,-51 -48,-70 -29,-16 -64,-17 -98,-17 -31,0 -39,-47 -76,-54 -34,-6 -87,-9 -105,-41 -90,-50 -114,-104 -232,-135 -132,-34 -103,-111 -185,-156 -39,-21 -143,-3 -193,-6 -98,-6 -117,46 -192,105 -100,79 -179,-60 -278,-60 -127,0 -251,-19 -379,6 -20,4 -72,34 -83,13 -10,-19 42,-50 56,-54 1,-6 7,-12 8,-19 2,-1 11,-11 11,-12 47,-9 48,-3 77,-43 30,-41 66,16 102,-2 109,-55 109,-153 23,-229 -38,-48 -168,-138 -14,-138 86,0 100,-64 136,-115 20,-29 35,-95 66,-109 78,-34 85,-55 94,-143 3,-34 31,-42 49,-66l55 -53 0 0 13 -51c9,-64 35,-109 -7,-168 -29,-41 -64,-79 -41,-135 -5,-8 0,-11 -8,-19 -53,11 -120,107 -163,14 -23,-49 -29,-130 -6,-179 11,-34 81,-91 -6,-99 -45,-4 -124,-20 -131,-74 -16,-131 184,-56 243,-116 42,-42 95,-7 138,-44 25,-21 6,-53 23,-75 23,-31 68,-26 26,-79 -44,-56 60,-44 82,-51 15,-5 21,-92 32,-115 34,-67 -27,-76 -78,-117l29 -39 0 0c80,8 161,47 243,50 113,4 81,-100 163,-121 112,-29 310,0 189,-178 -76,-113 13,-98 17,-204 2,-59 -8,-127 5,-185 27,-121 92,-5 180,-5 43,0 46,40 89,37 68,-5 61,0 122,35 127,4 85,-23 182,-92 70,-50 87,11 131,48 54,45 74,-19 132,-27 74,-11 85,-62 87,-125 2,-66 30,-55 76,-70 54,-18 -48,-148 93,-155 144,-7 230,-20 353,62 30,20 260,23 312,23l91 -30 0 0z"/>
  <path class="fil0 str0" id="blabal" onmouseover="myfunction()" d="M11055 8180c16,60 -18,94 -20,152 -2,53 15,81 36,127 19,40 19,101 21,147 3,58 -54,96 -54,160l15 41 0 0c-33,0 -74,-2 -104,11 -59,26 -42,90 -119,90 -18,0 -32,12 -48,18 -15,6 -34,2 -51,2 -59,0 -77,49 -87,97 -3,27 2,59 -16,82 -20,25 -42,20 -51,55 -22,85 -110,20 -159,10 -51,-10 -81,48 -130,48 -21,0 -42,-4 -58,13 -24,24 -47,23 -79,19 -34,-4 -51,14 -80,17l-111 9 0 0c-5,-17 -15,-28 -26,-42 -13,-16 -27,-24 -45,-30 -52,-13 -119,-91 -161,-88 -73,5 -80,91 -163,56 -41,-17 -69,-1 -110,-35 -52,-44 -69,-96 -110,-143 -16,-19 -43,-38 -48,-63 -17,-38 -45,-68 -23,-109 15,-28 46,-52 4,-73 -66,-33 -128,-58 -189,-101 -28,-20 -82,-83 -110,-89l-66 -37 0 0 0 -32c-9,-52 -16,-77 -2,-130 11,-42 -18,-52 -24,-89 -3,-18 3,-48 -9,-63 -18,-22 -64,-13 -89,-33 -50,-39 -42,-103 -35,-158 24,-63 34,-126 -17,-182 -34,-37 -85,-93 -100,-142 -12,-41 22,-90 13,-120l15 -78 0 0 90 7c50,-4 26,-49 -1,-63 -42,-21 -58,-35 -26,-70 27,-30 13,-53 15,-86 2,-21 32,-46 38,-73 8,-35 64,-155 114,-104 20,20 34,122 80,112 36,-7 30,-64 73,-61 43,3 77,33 118,26 13,-2 133,-52 139,-58l0 0c34,20 47,49 77,72 38,28 104,-12 150,29 22,20 -11,79 17,113 20,24 42,22 42,58 0,65 5,98 74,98 90,0 107,34 55,105 -15,15 -42,107 -12,115 1,2 0,2 2,2 6,26 -16,65 -10,97 10,52 16,149 69,175 93,47 181,-144 282,-57 47,40 82,48 136,75 64,32 95,94 163,128 66,34 139,23 204,75 116,93 129,39 255,2 33,-10 78,0 114,0 44,0 87,-32 130,-32l0 0z"/>
  <path class="fil0 str0" d="M9960 9275l-35 90c-13,23 -2,52 -18,78 -29,47 -7,114 -46,150 -59,55 -138,22 -207,63 -45,26 -10,45 15,64 15,12 25,64 25,84l-5 56 0 0c-28,4 -50,-4 -77,-7 -41,-5 -69,1 -102,26 -58,42 -122,-26 -149,42 -18,44 -51,98 -54,141 -2,48 -50,47 -70,79 -25,40 29,85 -12,153 -35,57 -165,53 -229,84 -37,18 -62,-39 -95,-39 -72,0 -58,76 -97,109 -19,16 -215,-108 -267,-91 -65,22 -51,129 -157,158l-81 57 0 0 -14 48c-7,53 12,140 -17,183 -37,55 -111,33 -147,104 -25,51 -38,60 -92,75 -68,19 -50,102 -91,112 -38,9 -64,-3 -99,23l-116 30 0 0c-5,-20 -83,-66 -102,-73 -4,-14 -80,-24 -95,-24 -54,0 -89,32 -133,56 -101,54 -125,-87 -206,-54 -59,24 -80,97 -138,19 -54,-73 -97,0 -155,-4l-39 -39 0 0c19,-15 16,-61 36,-87 72,-95 24,-205 24,-319 42,-81 30,-163 122,-209 25,-12 68,-76 43,-101 -23,-23 -115,-35 -87,-93 34,-72 5,-179 26,-264 27,-109 140,-118 163,-243 3,-28 12,-57 10,-86 -2,-24 -26,-36 -32,-56 -7,-21 8,-41 8,-61 0,-85 -101,-145 -122,-235 -14,-64 51,-71 92,-99 37,-25 26,-46 26,-88l0 0 -42 -94 27 -68 0 0c63,-7 69,-61 119,-95 22,-15 88,-1 131,-17 100,-37 164,45 245,95 172,106 232,-179 383,-122 72,28 90,-36 157,44 79,94 123,10 222,1 87,7 156,-40 212,57 21,35 45,92 95,69 89,-39 48,-133 67,-211 14,-60 12,-167 94,-187l39 -37 0 0 66 37c28,6 82,69 110,89 61,43 123,68 189,101 42,21 12,45 -4,73 -23,42 6,71 23,109 6,25 32,45 48,63 41,48 58,100 110,143 41,34 69,18 110,35 83,35 90,-51 163,-56 42,-3 109,75 161,88 18,7 33,15 45,30 11,14 21,25 26,42l0 0z"/>
  <path class="fil0 str0" d="M11054 8806c8,24 11,55 29,75 10,12 31,20 37,32 5,10 3,21 8,31 10,19 31,22 32,47 1,28 19,50 21,78 -4,25 9,37 -11,62 -25,32 -36,93 -7,127 15,19 68,43 69,66 2,35 -98,56 -85,118 5,24 29,39 42,58 18,25 23,51 32,79 7,27 20,58 36,81 31,46 101,17 133,52 25,28 -41,66 -54,82 -21,26 -12,50 -23,79 -21,56 -94,27 -106,77 -7,29 69,45 45,106 -29,42 -13,95 -47,130 -35,35 -127,89 -65,139 33,27 48,5 54,53 7,50 16,79 6,132 -17,16 -20,31 -46,37 -46,10 -81,-15 -113,37 -22,34 -54,111 -100,118 -47,7 -86,-30 -139,-26l0 0 -8 63c3,37 -16,80 -61,68 -36,-9 -61,30 -38,58 27,31 102,64 62,116 -15,20 -45,22 -58,44 -18,28 -7,51 -5,82 7,19 12,44 32,56 49,27 59,8 73,72 8,37 23,52 56,69 33,16 52,45 91,54 29,7 67,12 97,14l0 0 60 -32c37,3 65,5 98,26 47,31 101,39 124,-26 17,-50 73,-44 112,-66 51,-39 36,-112 79,-155 79,-79 132,43 197,17 64,-26 71,-91 157,-80 98,12 60,31 151,-17 38,-20 83,6 116,-20l130 -104c36,-29 43,-156 -14,-172 -3,-33 -44,-127 26,-116 18,3 30,16 48,20 7,2 54,2 48,-13 29,-33 6,-86 55,-103 61,-21 60,-150 98,-138 101,31 60,10 110,-73 71,-100 71,-85 23,-189 -10,-21 -3,-49 -4,-74 -4,-89 -63,-90 -15,-181 27,-53 -10,-66 0,-109 14,-57 39,-95 69,-143 17,-27 70,-124 70,-153l0 0 -72 31c-69,26 -80,-95 -173,-54 -75,34 -190,84 -271,47 -64,-30 -76,-50 -154,-39 -100,13 -79,-115 -54,-177 38,-92 -102,-124 -170,-142 -131,12 -142,56 -210,-87 -38,-80 -110,-116 -112,-210 -1,-34 -8,-147 -68,-123 -92,37 -81,150 -205,62 -109,-78 -137,14 -235,28l0 0z"/>
  <path class="fil0 str0" d="M11054 8806c8,24 11,55 29,75 10,12 31,20 37,32 5,10 3,21 8,31 10,19 31,22 32,47 1,28 19,50 21,78 -4,25 9,37 -11,62 -25,32 -36,93 -7,127 15,19 68,43 69,66 2,35 -98,56 -85,118 5,24 29,39 42,58 18,25 23,51 32,79 7,27 20,58 36,81 31,46 101,17 133,52 25,28 -41,66 -54,82 -21,26 -12,50 -23,79 -21,56 -94,27 -106,77 -7,29 69,45 45,106 -29,42 -13,95 -47,130 -35,35 -127,89 -65,139 33,27 48,5 54,53 7,50 16,79 6,132 -17,16 -20,31 -46,37 -46,10 -81,-15 -113,37 -22,34 -54,111 -100,118 -47,7 -86,-30 -139,-26l0 0 -24 -58c-2,-26 -9,-49 -2,-75 6,-23 23,-43 35,-63 24,-41 39,-85 26,-132 -11,-39 -21,-48 -51,-74 -73,-10 -141,69 -193,41 -71,-38 -12,-140 -145,-81 -158,70 -279,-148 -399,-185 -37,-11 -114,-15 -142,-39 -35,-30 -39,-80 -69,-107 -24,-21 -110,-35 -144,-39l0 0 5 -56c0,-19 -10,-72 -25,-84 -25,-20 -60,-38 -15,-64 69,-41 149,-8 207,-63 39,-37 18,-103 46,-150 16,-26 4,-54 18,-78l35 -90 0 0 111 -9c29,-3 46,-21 80,-17 32,4 55,5 79,-19 17,-17 38,-13 58,-13 48,0 79,-59 130,-48 49,10 137,75 159,-10 9,-34 32,-30 51,-55 18,-23 13,-54 16,-82 10,-48 28,-97 87,-97 17,0 35,4 51,-2 16,-6 31,-18 48,-18 77,0 60,-63 119,-90 29,-13 71,-11 104,-11l0 0z"/>
  <path class="fil0 str0" d="M7013 7902l83 -109c3,-3 7,-5 10,-8 -17,-67 6,-124 60,-167 51,-41 99,-38 153,-64 42,-21 24,-52 14,-85 -7,-22 24,-50 30,-70 9,-31 -22,-77 -31,-105 -19,-63 -16,-79 -8,-146l104 -71 0 0c13,-30 32,-105 19,-135 -31,-74 -110,-16 -148,-54 -33,-33 -59,27 -81,44 -17,12 -18,-37 -16,-45 0,-48 -63,-42 -79,-90 -21,-64 25,-106 10,-165 -6,-26 8,-54 -4,-82 -14,-35 -59,-75 -42,-118 -3,-31 -13,-59 -13,-91 0,-19 5,-40 0,-58 -10,-39 -47,-55 -41,-101 3,-23 -17,-52 -22,-76 -7,-31 6,-65 8,-96l28 -36 0 0c-31,-31 -76,-44 -113,-61 -81,-36 -83,-6 -166,10 -167,32 -124,-273 -344,-111 -35,26 -285,110 -286,112l-14 5c-72,24 -74,-27 -74,-79 0,-41 -43,-37 -45,-81 -8,-143 -157,5 -205,17 -54,13 -87,-50 -135,-36 -73,23 -72,141 -179,173l-51 16c-45,0 -86,69 -133,57 -75,-18 -95,-31 -123,60 -18,58 -77,258 -161,230 -90,-30 -79,1 -148,1l-149 81 0 0c-4,23 -5,46 -9,64 -9,46 -126,8 -140,6 -46,-8 -106,26 -147,46 -78,38 -149,37 -168,146 -15,83 -27,156 -83,221 -21,25 -15,68 -27,98 -1,3 -3,2 -7,4 -49,29 -124,-26 -164,32 -27,39 -72,104 -84,150 -20,77 35,142 65,212l-53 46c-27,34 -23,78 -36,117l0 0 108 57c3,15 47,136 54,137 9,36 254,26 304,26 126,0 387,25 472,119 60,67 101,134 179,177 97,53 132,-158 156,-206 4,-3 10,-5 11,-10 155,-52 143,-61 290,31 135,85 133,-57 237,-85 27,-7 143,32 180,39 110,22 35,140 173,167 67,13 123,-31 186,-31 56,0 113,21 174,21 50,-38 87,-114 160,-81 43,19 86,-25 136,5 58,34 62,121 148,121 74,0 105,-78 180,-93l0 0z"/>
  <path class="fil0 str0" d="M7013 7902l24 75c-5,27 12,100 29,122 17,21 53,50 58,76 9,45 -130,50 -99,134 27,72 22,49 13,123 -4,35 8,57 8,90 0,48 -94,101 -36,160 36,36 102,-9 102,82l4 91 32 68 0 0c63,-7 69,-61 119,-95 22,-15 88,-1 131,-17 100,-37 164,45 245,95 172,106 232,-179 383,-122 72,28 90,-36 157,44 79,94 123,10 222,1 87,7 156,-40 212,57 21,35 45,92 95,69 89,-39 48,-133 67,-211 14,-60 12,-167 94,-187l39 -37 0 0 0 -32c-9,-52 -16,-77 -2,-130 11,-42 -18,-52 -24,-89 -3,-18 3,-48 -9,-63 -18,-22 -64,-13 -89,-33 -50,-39 -42,-103 -35,-158 24,-63 34,-126 -17,-182 -34,-37 -85,-93 -100,-142 -12,-41 22,-90 13,-120l15 -78 0 0 -1 -1c-48,-9 -64,24 -110,39 -62,21 -96,-49 -138,-77 -41,-28 -87,-13 -126,-32 -50,-25 -135,-33 -172,-67 -34,-32 -43,-18 -82,-23 -74,-4 -60,-27 -100,-67 -31,-31 -59,9 -90,16 -32,7 -55,-20 -81,-34 -33,-18 -72,-3 -102,-26 -41,-31 -88,23 -127,32 -51,12 -99,-82 -85,-123l-25 -54 0 0 -104 71c-7,67 -11,83 8,146 9,28 40,74 31,105 -6,20 -37,49 -30,70 10,33 28,64 -14,85 -53,27 -101,24 -153,64 -54,43 -76,100 -60,167 -3,3 -6,6 -10,8l-83 109 0 0z"/>
  <path class="fil0 str0" d="M3298 8699l91 -41c69,0 132,-27 199,-31 62,-4 82,14 117,62 46,64 154,34 223,121 37,47 56,119 105,159 44,36 216,12 271,-1 33,-8 108,-18 131,11 29,35 83,20 126,42 0,45 -80,122 39,122 26,-7 65,-10 87,6 22,16 44,46 44,73 0,28 -18,61 -18,91l0 0 188 17c153,-14 330,277 424,88 64,-11 91,120 161,76 140,-87 158,-131 108,-280 -38,-113 -27,-154 72,-228 167,-126 142,137 253,214 87,60 109,-73 179,-73 88,0 21,-145 119,-131 31,61 60,104 124,130 67,28 12,167 95,177 46,-6 71,2 108,-30 29,-25 36,-98 74,-100 62,-4 52,152 119,128 23,-8 22,-29 51,-29 58,0 45,-71 56,-113 10,-37 30,-17 55,-18 41,-2 27,-71 87,-74 40,-2 62,41 112,41l64 -19 0 0 -42 -94 27 -68 0 0 -32 -68 -4 -91c0,-92 -67,-46 -102,-82 -59,-59 36,-112 36,-160 0,-32 -12,-55 -8,-90 8,-74 14,-51 -13,-123 -31,-84 108,-89 99,-134 -5,-26 -42,-55 -58,-76 -17,-21 -33,-95 -29,-122l-24 -75 0 0c-75,15 -106,93 -180,93 -86,0 -90,-86 -148,-121 -50,-30 -93,15 -136,-5 -73,-33 -109,43 -160,81 -61,0 -118,-21 -174,-21 -63,0 -119,44 -186,31 -138,-27 -62,-145 -173,-167 -37,-7 -153,-46 -180,-39 -104,28 -102,170 -237,85 -146,-92 -135,-83 -290,-31 -1,5 -6,6 -11,10 -24,49 -59,260 -156,206 -78,-43 -119,-109 -179,-177 -84,-95 -346,-119 -472,-119 -50,0 -295,10 -304,-26 -6,-2 -51,-123 -54,-137l-108 -57 0 0c-4,11 -9,21 -16,31 -28,37 -74,11 -111,20 -109,27 -117,150 -222,39 -24,-26 -157,-29 -157,16 0,73 23,134 30,204 10,91 -55,12 -86,19 -51,11 -27,78 -93,75 -46,-2 -36,26 -2,40 36,13 68,14 100,22 10,40 -30,44 -56,57 -61,30 -60,-17 -109,-17 -17,0 -64,10 -70,28 -25,81 193,29 97,170 -40,60 -63,115 -79,185 -11,50 -52,87 15,104 57,14 170,26 142,112l-45 60 0 0 53 37c17,2 23,-11 38,-11l0 0z"/>
  <path class="fil0 str0" d="M3607 16386l93 56 182 99c57,31 86,74 149,98 59,22 66,46 107,87 51,52 141,41 194,94 52,52 73,129 150,164 89,36 20,76 41,135 12,34 55,55 64,87 20,65 26,248 129,248 138,0 205,88 260,204 33,70 64,90 137,100 124,17 131,51 226,111 100,23 75,211 222,222 121,9 201,-127 338,-62l0 0c-5,8 -9,15 -12,24 -6,22 9,35 -8,57 -24,42 -21,74 -69,99 -39,21 -82,19 -122,32 -116,38 -41,122 -79,202 -24,52 -62,28 -101,49l-100 11c-2,31 29,59 20,91 -16,59 -69,63 -121,58 -31,-3 -67,-14 -96,-26 -43,-18 -129,-92 -162,-104 -69,-24 -126,-72 -189,-108 -84,-48 -86,-37 -178,-54 -48,-9 -71,-33 -113,-55 -150,-80 -271,190 -485,83 -60,-30 -269,-82 -324,-33 -107,93 -236,-64 -323,-103 -43,-19 -78,28 -108,10 -74,-44 -117,-28 -197,-44 -36,-7 -69,-23 -103,-37l0 0 6 -52c9,-36 15,-61 1,-97 -10,-25 -21,-61 -18,-88 -2,-38 -34,-77 -41,-116 -9,-45 -2,-78 15,-119 24,-60 35,-149 -27,-192 2,-30 50,-75 44,-81 -23,-23 -68,-15 -76,-50 -10,-43 -34,-179 -6,-213 35,-43 33,-91 33,-141 25,-23 71,6 75,-40 3,-45 -56,1 -69,5 -59,18 -43,-100 -25,-128l54 -88c26,-42 106,17 123,-1 10,-10 33,-67 36,-81 19,-8 47,-12 61,-32 22,-30 26,-14 54,-14 63,0 62,52 84,-23l-6 -80 0 0 61 -33c10,-10 17,-18 30,-23 12,-4 17,4 32,-4 22,-11 41,-41 62,-56 14,-10 62,-51 76,-51l0 0z"/>
  <path class="fil0 str0" d="M6725 14729l2 -101c26,-40 78,-83 124,-42 13,12 125,-8 155,2l137 47c66,22 141,140 224,84 55,-38 39,-126 108,-153 38,-15 46,66 37,91 -7,20 -48,119 -25,121 90,5 39,-14 85,60 28,46 113,7 154,-10 19,-23 34,-65 68,-70 11,-2 22,-3 35,-2 9,0 18,3 26,4 8,0 16,0 24,0l67 7 0 0 -55 53c-18,24 -45,32 -49,66 -9,88 -16,109 -94,143 -31,13 -45,80 -66,109 -36,50 -49,115 -136,115 -154,0 -24,91 14,138 87,76 87,175 -23,229 -37,18 -73,-38 -102,2 -29,40 -30,34 -77,43 0,1 -9,11 -11,12 -1,7 -7,13 -8,19 -14,3 -66,35 -56,54 12,21 63,-9 83,-13 128,-25 252,-6 379,-6 98,0 178,139 278,60 75,-59 94,-111 192,-105 50,3 154,-15 193,6 82,45 52,122 185,156 119,31 142,85 232,135 18,32 71,34 105,41 37,7 46,54 76,54 33,0 68,1 98,17 35,19 27,45 48,70 52,65 172,108 218,179 60,94 161,113 255,153l0 0 61 56 13 35c-7,67 -7,134 -20,200 -17,87 39,194 -77,233 -71,24 -202,76 -262,19 -37,-35 -68,-80 -123,-47 -40,24 -40,0 -74,-6 -35,-6 -72,14 -102,7 -29,-7 -53,-37 -84,-47 -97,-32 -116,-12 -178,66 -39,50 -62,61 -126,61 -75,0 -133,40 -190,81 -67,49 -5,112 24,173 20,43 27,147 -13,179 -214,173 -85,-144 -200,-197 -28,-13 -88,-4 -101,27 -36,85 36,209 -8,305 -32,68 -109,114 -165,163 -79,69 -137,20 -220,54 -37,15 -72,-38 -114,-45 -66,-12 -110,-62 -151,-114 -48,-62 -88,-125 -174,-128 -109,-4 -100,22 -168,103 -125,150 -283,-23 -424,-42 -32,-4 -199,-27 -226,-15 -35,15 -130,53 -156,80 -40,40 -102,44 -155,52 -2,0 -3,3 -5,5 -12,13 -23,27 -35,40 -32,32 -37,65 -91,63 -34,-2 -52,-47 -95,-49 -39,-2 -58,11 -67,31l0 0c-34,-17 -106,-37 -131,-59 -28,-23 -3,-87 -23,-99 -19,-12 -29,-18 -33,-41 -7,-37 -3,-69 19,-100 27,-37 -11,-50 -23,-86 -8,-25 0,-58 7,-84 19,-66 -43,-90 -18,-172 -8,-103 -99,-165 -70,-269 9,-32 -68,-166 -95,-183 -46,-28 -74,-93 -5,-119 54,-21 107,-94 166,-60 104,60 125,153 173,-38 14,-58 82,-9 126,-42 55,-41 35,-104 41,-162 0,-136 -129,-69 -191,-105 -76,-45 -184,6 -228,-67 -33,-56 -21,-125 -112,-129 -64,-3 -158,-37 -212,-72 -75,-48 -13,-194 -23,-269 -3,-23 40,-108 50,-135l15 -87 0 0 16 -64c0,-40 50,-117 92,-128 14,-59 -28,-70 -38,-127 -11,-61 53,-82 58,-137 3,-31 2,-110 57,-84 44,21 63,103 118,91 61,-14 80,-102 142,-122 95,55 102,156 213,189 94,27 84,98 149,149 60,47 82,-5 125,-19 19,-6 30,26 55,8 18,-13 26,-47 51,-39 41,13 50,3 87,-18 49,-28 61,-52 69,-107 2,-16 65,-63 83,-78 59,-48 30,-60 67,-119 35,-57 136,-30 30,-125l0 0z"/>
  <path class="fil0 str0" d="M5351 15460l-15 87c-10,27 -53,111 -50,135 10,75 -52,221 23,269 54,34 148,69 212,72 91,4 79,73 112,129 43,73 151,22 228,67 62,36 191,-31 191,105 -6,58 14,122 -41,162 -44,33 -112,-16 -126,42 -48,191 -69,98 -173,38 -59,-34 -111,39 -166,60 -70,27 -42,91 5,119 27,17 104,150 95,183 -29,104 62,165 70,269 -25,81 37,106 18,172 -7,25 -15,58 -7,84 12,36 49,49 23,86 -22,31 -26,63 -19,100 4,22 15,29 33,41 19,12 -5,76 23,99 25,21 97,42 131,59l0 0c-19,41 6,113 -3,161 -2,13 -9,24 -15,34l0 0c-137,-65 -217,71 -338,62 -147,-11 -122,-199 -222,-222 -95,-60 -102,-94 -226,-111 -73,-10 -104,-30 -137,-100 -55,-116 -121,-204 -260,-204 -103,0 -108,-183 -129,-248 -10,-32 -52,-53 -64,-87 -21,-59 49,-99 -41,-135 -77,-35 -98,-111 -150,-164 -54,-54 -143,-43 -194,-94 -41,-42 -48,-65 -107,-87 -63,-24 -92,-67 -149,-98l-182 -99 -93 -56 0 0 -7 -73c-15,-58 96,-60 81,-121 -22,-89 -30,-59 43,-104 51,-31 49,-90 123,-85l269 18c68,4 140,-13 209,-10 59,3 99,27 153,37 92,17 63,-117 136,-141 77,-25 73,-57 144,-88 31,-25 221,-138 138,-180 -49,-25 -12,-65 -30,-113 -16,-43 -37,-118 24,-142 51,-20 152,-95 206,-56 47,34 130,112 185,122l70 10 0 0z"/>
  <path class="fil0 str0" d="M13886 9888c25,53 71,111 -30,127 -91,14 -194,74 -113,179 34,44 64,43 64,106 0,60 -33,128 -57,183 0,60 -89,64 -60,131 19,45 7,72 -4,118 -8,36 6,64 4,98 -5,79 -109,82 -25,173 30,33 3,207 -29,247 -36,46 -109,0 -148,39 -33,33 38,112 42,153 -6,31 7,58 -18,85 -21,23 -37,95 -51,123l0 0 81 -1c79,-41 67,80 143,21 52,-40 84,-108 157,-113 39,-3 26,13 50,29 45,29 95,-20 147,32 40,40 85,-22 60,70 -14,51 -71,85 -49,144 6,17 30,3 42,11 28,19 14,68 69,19 33,-29 83,-116 133,-78 26,20 63,31 86,51 47,42 -62,75 -45,146 23,96 -96,71 -87,156 11,36 29,33 36,82 19,127 130,178 244,152 124,-29 97,12 113,118 11,72 46,112 120,90 52,-16 82,-13 125,-23 39,-9 96,-66 132,-60 45,8 21,79 101,79 61,0 75,68 118,104 98,32 75,75 186,11 36,-21 49,-5 77,-18 31,-14 29,-56 75,-56 11,44 90,29 106,-8 25,-56 37,-47 75,-75 45,27 153,-99 188,-119 118,-69 90,231 95,284 12,117 28,290 195,290l0 0c42,-9 78,-1 113,21 49,33 68,46 128,64 49,-13 133,30 195,20 35,-6 90,-129 92,-123 24,6 33,39 67,41 51,2 103,-44 160,-44 53,0 133,-9 184,-22 22,-24 62,-40 85,-69 13,-16 -32,-99 -26,-139 18,-117 6,-204 161,-174 33,6 42,20 77,7 50,-19 69,4 114,11 51,8 84,-35 116,-67 8,-11 15,-22 20,-32 12,-33 -18,-137 -37,-163 -28,-39 -64,-28 -101,-55 -23,-16 -68,-3 -95,-8 -59,-12 -61,-49 -83,-94 -39,-78 -102,-27 -149,16 -116,0 -135,-95 -117,-187 30,-157 -144,0 -164,11 -67,35 -73,11 -130,-17l-188 -91c-83,-40 -102,-124 -170,-192 -60,-60 -69,-280 -195,-243 -118,0 -111,37 -185,-51 -11,-13 -225,-45 -91,-86 224,-69 45,-78 76,-229 15,-72 53,-107 46,-198 -6,-75 10,-40 68,-62 47,-18 89,-47 142,-47 70,0 112,41 174,56 78,19 110,-14 181,53 88,82 120,62 191,-8 87,-87 59,-107 2,-175l-13 -93 0 0c-37,32 -132,111 -183,76 -63,-44 -140,-120 -140,-204 -27,-81 -24,-184 -38,-268 -10,-58 -89,-149 -66,-208 -1,-3 -1,-9 -1,-12l-20 -157c-6,-50 -25,-95 -32,-143 -4,-27 3,-56 -5,-82 -10,-34 -53,-73 -50,-110 -25,-69 -33,-165 21,-222 51,-54 98,-62 75,-157 -1,0 0,0 -1,-1 -2,-9 -71,6 -83,12 -36,18 -78,51 -110,76 -35,28 -212,97 -235,38 -18,-45 -28,-114 -28,-162 0,-20 -25,-82 -12,-96 20,-22 70,6 67,-42 -6,-96 -115,-47 -162,-78 -52,-35 -45,74 -49,100 0,72 -8,115 -77,150 -34,17 -78,23 -120,24l0 0c-24,31 -81,126 -79,167 3,47 -29,67 -63,31 -15,-16 -29,-24 -51,-24 -41,0 -54,19 -77,50 -18,18 -29,18 -49,13 -10,-41 28,-121 -24,-138 -23,-8 -149,43 -174,51 -33,11 -2,74 -7,97 -79,26 -89,86 -139,106 -50,21 -82,-62 -133,-45 -147,47 -142,-237 -257,-189 -81,34 -127,161 -136,239 -19,171 -106,116 -216,55 -110,-61 -229,162 -236,247l-107 80 0 0z"/>
  <path class="fil0 str0" d="M13461 11650l81 -1c79,-41 67,80 143,21 52,-40 84,-108 157,-113 39,-3 26,13 50,29 45,29 95,-20 147,32 40,40 85,-22 60,70 -14,51 -71,85 -49,144 6,17 30,3 42,11 28,19 14,68 69,19 33,-29 83,-116 133,-78 26,20 63,31 86,51 47,42 -62,75 -45,146 23,96 -96,71 -87,156 11,36 29,33 36,82 19,127 130,178 244,152 124,-29 97,12 113,118 11,72 46,112 120,90 52,-16 82,-13 125,-23 39,-9 96,-66 132,-60 45,8 21,79 101,79 61,0 75,68 118,104 98,32 75,75 186,11 36,-21 49,-5 77,-18 31,-14 29,-56 75,-56 11,44 90,29 106,-8 25,-56 37,-47 75,-75 45,27 153,-99 188,-119 118,-69 90,231 95,284 12,117 28,290 195,290l0 0c-12,2 1,46 1,56 0,48 -17,29 14,73 20,27 15,85 5,118 -11,37 -137,3 -157,17 -28,19 -9,80 -42,105 -45,35 6,43 24,80 3,27 9,52 -15,71 -24,20 -27,31 -13,60 18,36 -41,90 -68,114 -37,34 -23,37 -58,1 -14,-14 -24,-21 -43,-27 -50,-17 -99,-15 -149,-34 -58,-16 -115,-9 -161,-50 -41,-37 -109,-12 -159,-21 -43,-8 -43,5 -74,28 -17,13 -93,36 -112,28 -24,-10 -24,-26 -37,-45 11,-72 119,-69 35,-147 -71,-66 -138,-48 -213,-93 -53,-32 -80,-83 -120,-23 -26,39 -138,109 -184,111 -45,2 -49,32 -71,60 -19,42 3,61 4,104 2,39 -33,36 -53,59 -12,14 -19,34 -31,46 -18,16 -48,-1 -67,20 -23,25 0,71 -47,55 -60,-20 -78,-25 -97,-92 -10,-33 -42,-47 -56,-77 -15,-34 -2,-46 -2,-79 -14,-9 -98,64 -112,77 -40,36 40,81 42,125 2,47 -12,31 18,75 31,45 -29,56 -64,75 -12,16 -83,104 -79,119l192 50c72,19 150,47 213,83 9,8 64,63 72,55 14,-14 -8,-72 16,-91 51,-43 130,51 154,-23 7,-22 33,11 44,19 38,28 88,35 121,68 20,20 15,39 50,45 35,7 6,52 2,68 -2,1 -5,5 -6,6 -3,29 32,36 26,66 -7,33 -37,36 -63,43 -52,13 -42,93 -43,135 -1,30 -36,61 3,78 50,22 40,58 75,81 18,12 40,18 57,29 26,16 -47,45 -53,54 -71,33 -74,63 -161,53 -80,-9 -134,6 -202,-47 -28,-22 -76,-21 -96,-47 -35,-47 -19,-84 -69,-123 -26,-16 -39,-31 -71,-39 -35,-9 -26,-43 -54,-55 -22,-9 -47,-8 -67,-20 -20,-12 -45,-37 -66,-45 -24,-9 -22,52 9,67 18,9 109,56 41,75 -31,8 -88,96 -88,-3 0,-76 -42,-87 -107,-110 -55,-19 4,-54 -70,-76 -43,-13 -30,-84 -42,-124 -8,-17 -21,-26 -18,-47 2,-19 3,-22 -5,-40 -11,-27 17,-49 -2,-75 -13,-17 -27,-27 -36,-47 -8,-19 7,-54 -8,-60 -33,-12 -47,-24 -40,-66 0,-19 -1,-39 -18,-50 -40,-26 -48,7 -85,24 -47,22 -115,-64 -154,-57 -8,1 -29,16 -30,-1 -1,-20 -5,-30 -9,-49 -6,-27 -11,-33 -37,-45 -23,-10 -34,-45 -53,-15 -19,30 -31,49 -55,75 -40,9 -29,38 -73,49 -37,9 -42,37 -67,60 -50,47 -174,-13 -185,62 -7,49 -39,44 -84,36 -27,-5 -41,2 -49,15l0 0c0,-31 -32,-169 -20,-193 -2,-3 -2,-2 0,-5 -32,-53 -93,-84 -100,-150 -10,-91 -105,-49 -142,-101 -18,-25 -70,-68 -74,-93 -14,-83 -44,-81 -119,-93 -146,-24 -99,-128 -188,-171 -55,-82 -59,-149 6,-222 52,-58 -28,-137 -79,-159 -52,-23 -52,-49 -112,-49 -75,0 -103,-68 -135,-128l-33 -58 2 24 49 -39c24,-12 24,-41 61,-33 24,5 49,30 73,20 38,-16 107,-5 101,-60 -7,-57 36,-29 56,-56 23,-30 42,-118 96,-72 52,44 56,4 88,-36 24,-26 29,-46 64,-61 24,-11 141,-27 147,1 14,69 24,53 63,98 34,40 71,68 122,90 35,15 66,-13 90,-32 36,-29 75,-5 116,-2 58,-5 63,-14 103,-56 19,-20 40,-62 68,-67 36,-8 89,23 95,-32l14 -142c14,-18 5,-56 44,-44 52,16 89,31 83,-43 -5,-63 -6,-56 44,-91 32,-23 1,-45 -3,-72 -5,-37 46,-77 46,-123 0,-42 -49,-46 -52,-79l-17 -39 0 0z"/>
  <path class="fil0 str0" d="M12776 9471c37,-3 84,-24 117,0 32,24 40,63 75,84 53,31 110,-20 181,37 46,37 99,51 145,91 79,68 127,131 237,99 138,-40 131,46 241,82l113 25 0 0c25,53 71,111 -30,127 -91,14 -194,74 -113,179 34,44 64,43 64,106 0,60 -33,128 -57,183 0,60 -89,64 -60,131 19,45 7,72 -4,118 -8,36 6,64 4,98 -5,79 -109,82 -25,173 30,33 3,207 -29,247 -36,46 -109,0 -148,39 -33,33 38,112 42,153 -6,31 7,58 -18,85 -21,23 -37,95 -51,123l0 0 17 39c3,33 52,36 52,79 0,46 -51,86 -46,123 4,27 35,49 3,72 -50,35 -49,28 -44,91 6,74 -32,59 -83,43 -39,-12 -30,26 -44,44l-14 142c-5,54 -59,24 -95,32 -28,6 -49,48 -68,67 -40,42 -45,51 -103,56 -41,-3 -80,-26 -116,2 -24,19 -55,48 -90,32 -51,-22 -87,-50 -122,-90 -39,-46 -49,-29 -63,-98 -6,-29 -123,-12 -147,-1 -36,16 -40,35 -64,61 -32,40 -36,79 -88,36 -54,-46 -73,43 -96,72 -20,26 -63,-2 -56,56 7,55 -63,44 -101,60 -24,10 -49,-16 -73,-20 -38,-7 -37,21 -61,33l-49 39 0 0c-13,-22 -32,-40 -41,-64 -9,-27 13,-53 13,-79 0,-23 -16,-30 -29,-45 -23,-23 -48,-44 -38,-78 5,-17 53,-44 51,-53 -6,-39 -106,-56 -131,-106 -20,-41 -6,-63 -69,-47 -42,11 -107,-25 -136,-56 -19,-20 -32,-42 -63,-42 -22,0 -75,-2 -83,-32l-7 -3c-25,-35 -21,-110 -77,-110 -46,0 -73,-24 -120,-24 -30,0 -37,-32 -60,-41 -11,-4 -21,-3 -32,-8l0 0c0,-17 -6,-34 -6,-51 0,-14 10,-24 9,-38 0,-5 -5,-27 -1,-29 2,-25 34,-47 27,-69 -9,-29 -50,-37 -54,-67 0,-26 -1,-46 5,-72 4,-15 14,-30 18,-44 8,-27 -35,-68 -47,-92l0 0 60 -32c37,3 65,5 98,26 47,31 101,39 124,-26 17,-50 73,-44 112,-66 51,-39 36,-112 79,-155 79,-79 132,43 197,17 64,-26 71,-91 157,-80 98,12 60,31 151,-17 38,-20 83,6 116,-20l130 -104c36,-29 43,-156 -14,-172 -3,-33 -44,-127 26,-116 18,3 30,16 48,20 7,2 54,2 48,-13 29,-33 6,-86 55,-103 61,-21 60,-150 98,-138 101,31 60,10 110,-73 71,-100 71,-85 23,-189 -10,-21 -3,-49 -4,-74 -4,-89 -63,-90 -15,-181 27,-53 -10,-66 0,-109 14,-57 39,-95 69,-143 17,-27 70,-124 70,-153l0 0z"/>
  <path class="fil0 str0" d="M8654 4767l-38 111c-21,56 -67,143 -111,181 -35,30 -70,48 -81,97 -12,54 -55,243 64,206 65,-20 139,-78 150,35l6 54 0 0 145 14 136 47c48,16 60,42 97,72 66,53 130,14 161,111 35,111 49,213 98,322 47,104 223,123 223,229 58,116 170,32 260,75 87,42 170,94 218,180l46 37 0 0 114 -5c134,-16 240,-161 391,-134 43,8 66,43 76,85 6,24 117,119 144,147 85,85 227,-11 311,104 39,53 25,101 104,119 71,17 124,41 162,106 43,31 65,94 111,130 27,22 56,35 91,41 64,11 106,-50 170,-55 68,-5 114,-48 178,-67l97 -41 0 0 30 -105c21,-67 66,-135 76,-205 11,-73 -108,-288 -23,-328 36,-17 78,39 95,63 39,54 100,87 173,78l0 0c20,-23 42,-43 60,-68 7,-9 189,-100 121,-167 -68,-68 -2,-147 -8,-242 -4,-68 -45,-113 -57,-170 -12,-61 -8,-289 -84,-300 -125,-18 -206,162 -251,-47 -16,-76 -18,-157 38,-219 42,-47 127,-82 194,-124l0 0c-135,-99 -254,32 -374,37 -128,5 -133,-193 -247,-136 -83,42 -66,-64 -166,-8 -44,24 -55,26 -106,21 -66,-25 -101,-301 -179,-228 -54,50 -52,13 -75,-33 -72,0 -82,78 -170,-11 -47,-47 -82,-103 -141,-138 -106,-65 -44,252 51,297 133,64 -160,65 -173,70 -86,40 -317,-2 -403,-45 -49,-25 -155,-110 -210,-94 -70,20 15,174 35,211 38,28 272,99 118,173 -77,37 -245,-142 -245,-31 0,73 34,194 -89,111 -104,-70 -129,-158 -129,17 0,60 7,122 -49,158 -50,32 -109,80 -162,29 -107,-102 -220,-199 -368,-224 -59,-29 -69,-117 -91,-169 -23,-57 -101,-34 -142,-58 -49,-29 -17,-81 -39,-115 -35,-53 -100,-1 -129,-48 -19,-30 -39,-4 -57,-30l-62 -85 -88 -37 0 0z"/>
  <path class="fil0 str0" d="M9306 7125l5 -100c11,-34 42,-22 38,-75 -3,-48 95,-120 135,-142 75,-41 100,10 169,21 40,7 68,-13 104,-10 51,5 123,35 170,20 56,-18 45,-114 50,-160l51 -142 0 0 114 -5c134,-16 240,-161 391,-134 43,8 66,43 76,85 6,24 117,119 144,147 85,85 227,-11 311,104 39,53 25,101 104,119 71,17 124,41 162,106 43,31 65,94 111,130 27,22 56,35 91,41 64,11 106,-50 170,-55 68,-5 114,-48 178,-67l97 -41 0 0 29 55c26,37 49,91 49,136 0,39 -24,70 -35,106 -32,57 -40,71 -92,111 -39,30 -23,67 -31,109 -15,75 -151,34 -205,57 -133,57 -179,378 -340,371 -134,-5 -200,17 -242,147l-55 119 0 0c-43,0 -86,32 -130,32 -36,0 -81,-10 -114,0 -126,37 -139,90 -255,-2 -65,-52 -138,-41 -204,-75 -68,-34 -99,-96 -163,-128 -53,-27 -89,-35 -136,-75 -102,-86 -189,104 -282,57 -53,-26 -59,-124 -69,-175 -6,-32 16,-71 10,-97 -2,-1 -2,0 -2,-2 -30,-8 -3,-100 12,-115 52,-71 36,-105 -55,-105 -68,0 -74,-33 -74,-98 0,-36 -22,-34 -42,-58 -28,-34 6,-94 -17,-113 -46,-41 -113,0 -150,-29 -30,-23 -43,-52 -77,-72l0 0z"/>
  <path class="fil0 str0" d="M8645 5451l145 14 136 47c48,16 60,42 97,72 66,53 130,14 161,111 35,111 49,213 98,322 47,104 223,123 223,229 58,116 170,32 260,75 87,42 170,94 218,180l46 37 0 0 -51 142c-5,46 6,142 -50,160 -48,15 -120,-15 -170,-20 -35,-3 -63,16 -104,10 -69,-12 -94,-63 -169,-21 -40,22 -138,94 -135,142 4,53 -27,42 -38,75l-5 100 0 0c-6,6 -127,57 -139,58 -41,6 -75,-23 -118,-26 -43,-3 -36,53 -73,61 -46,9 -60,-92 -80,-112 -51,-51 -106,69 -114,104 -7,27 -37,51 -38,73 -2,33 11,56 -15,86 -32,35 -15,49 26,70 27,14 52,59 1,63l-90 -7 0 0 -1 -1c-48,-9 -64,24 -110,39 -62,21 -96,-49 -138,-77 -41,-28 -87,-13 -126,-32 -50,-25 -135,-33 -172,-67 -34,-32 -43,-18 -82,-23 -74,-4 -60,-27 -100,-67 -31,-31 -59,9 -90,16 -32,7 -55,-20 -81,-34 -33,-18 -72,-3 -102,-26 -41,-31 -88,23 -127,32 -51,12 -99,-82 -85,-123l-25 -54 0 0c13,-30 32,-105 19,-135 -31,-74 -110,-16 -148,-54 -33,-33 -59,27 -81,44 -17,12 -18,-37 -16,-45 0,-48 -63,-42 -79,-90 -21,-64 25,-106 10,-165 -6,-26 8,-54 -4,-82 -14,-35 -59,-75 -42,-118 -3,-31 -13,-59 -13,-91 0,-19 5,-40 0,-58 -10,-39 -47,-55 -41,-101 3,-23 -17,-52 -22,-76 -7,-31 6,-65 8,-96l28 -36 0 0 80 -94c80,-83 123,-111 237,-63 85,36 91,71 150,-17 42,-63 153,-204 242,-174 38,13 47,60 73,87 33,36 95,-2 132,-12 104,-104 236,-215 386,-135 124,66 209,95 305,-38l-6 -76 0 0z"/>
  <path class="fil0 str0" d="M5690 4390l99 76c27,42 90,27 131,36 43,9 46,144 112,175 58,28 116,6 135,88 20,90 103,120 169,177 31,27 75,14 105,51 40,49 107,59 169,63 37,-3 74,6 108,-8 0,-3 26,-21 30,-29 12,-24 57,-170 66,-174 50,-25 204,123 228,-12 11,-64 -5,-68 54,-113 43,-33 86,-86 132,-111 54,-13 70,-80 154,-50 49,17 113,-41 158,-54 36,-10 90,7 138,-2 88,-18 135,80 204,123 89,55 123,223 189,257 13,7 194,-122 207,-148l61 -75 0 0c29,-39 -36,-122 10,-185 87,-121 -23,-70 -66,-156 -21,-42 -70,-62 -94,-103 -14,-24 8,-57 8,-82 12,-33 12,-79 51,-90 39,-10 30,-17 48,-47 21,-34 72,6 104,-42 8,-12 54,-13 69,-20 41,-19 9,-98 42,-122 41,-30 154,91 194,18 70,-128 -42,-70 -49,-167 -3,-38 2,-81 12,-116l91 -55 0 0c-1,-13 39,-55 4,-52 -74,5 -16,-54 -33,-76 -20,-26 -47,-7 -48,-52 -1,-36 -15,-58 -23,-91 -10,-41 7,-62 7,-102 0,-164 -94,-94 -202,-125 -55,-16 -63,-5 -116,14 -35,13 -90,17 -92,-29l-9 -186c-2,-35 -30,-85 -30,-115 -2,-1 -2,-6 -2,-7l-47 -69c-4,3 -7,6 -10,8 -45,38 -152,-2 -179,-52 -1,-3 -5,-6 -8,-7 -75,-49 -86,28 -164,-31 -65,-49 -97,145 -148,22 -29,-71 -387,-183 -462,-165 -68,16 -112,-43 -169,-33 -52,9 -112,20 -131,73 -12,32 -49,74 -84,43 -38,-33 -44,-83 -104,-72 -92,18 -135,-6 -203,-65 -42,-37 -82,-64 -100,-120 -17,-51 -34,-92 -96,-84 -38,5 -29,-26 -61,-37 -39,-14 -87,-14 -55,-69 38,-67 -62,-44 -98,-29l-1 53c0,74 7,104 -23,173 16,10 16,34 45,45 21,8 44,-1 66,0 75,4 55,33 43,93 -6,31 31,54 53,67 27,16 72,45 76,79 0,32 -21,58 -21,88 0,28 2,45 -9,72 -22,53 -82,40 -65,107 10,38 2,46 -33,61 -52,23 -33,48 -69,73 -50,35 -87,-33 -135,19 -18,47 -74,86 -9,107 61,20 41,76 59,131 12,35 40,67 48,98 9,36 2,81 11,118 6,24 -32,30 -40,49 -4,34 -81,13 -60,45l43 67 1 84c0,28 24,51 32,78 12,39 37,115 30,155 -47,74 -94,29 -155,52 -47,17 -113,71 -164,59 -33,-7 -57,48 -86,63 -48,25 -89,11 -89,80 0,54 -7,129 -22,181 0,74 60,59 70,111l0 0z"/>
  <path class="fil0 str0" d="M4719 6367l149 -81c68,0 57,-31 148,-1 83,28 143,-173 161,-230 28,-91 48,-78 123,-60 47,11 89,-57 133,-57l51 -16c107,-32 105,-150 179,-173 47,-15 81,49 135,36 48,-12 197,-159 205,-17 3,44 45,41 45,81 0,52 2,103 74,79l14 -5c1,-2 251,-87 286,-112 221,-162 177,143 344,111 83,-16 85,-46 166,-10 37,16 83,30 113,61l0 0 80 -94c80,-83 123,-111 237,-63 85,36 91,71 150,-17 42,-63 153,-204 242,-174 38,13 47,60 73,87 33,36 95,-2 132,-12 104,-104 236,-215 386,-135 124,66 209,95 305,-38l-6 -76 0 0 -6 -54c-11,-112 -85,-55 -150,-35 -119,37 -76,-153 -64,-206 11,-48 46,-66 81,-97 44,-39 90,-125 111,-181l38 -111 0 0 -35 -33c-31,-24 -51,-65 -88,-83 -41,-19 -63,-17 -105,-7l-86 16 0 0 -61 75c-13,26 -194,155 -207,148 -66,-34 -100,-201 -189,-257 -68,-43 -116,-141 -204,-123 -48,10 -103,-8 -138,2 -46,13 -110,71 -158,54 -84,-30 -100,38 -154,50 -47,25 -89,78 -132,111 -58,45 -42,50 -54,113 -24,135 -177,-13 -228,12 -9,4 -53,150 -66,174 -4,8 -30,26 -30,29 -35,14 -71,5 -108,8 -62,-4 -130,-14 -169,-63 -30,-37 -73,-24 -105,-51 -66,-57 -149,-87 -169,-177 -18,-83 -76,-60 -135,-88 -66,-32 -69,-166 -112,-175 -41,-9 -105,6 -131,-36l-99 -76 0 0c12,61 -43,108 -47,162 -3,36 -5,66 -13,101 -10,42 31,51 -11,86 -38,27 -111,71 -150,29 -50,-55 -64,-49 -138,-43 -25,2 -78,-40 -87,-33 -45,28 -61,85 -115,46l-22 -110c-4,-22 -54,-23 -71,-49 -16,-48 -29,-70 -81,-78 -57,-9 -86,-39 -115,-89 -20,-34 -54,-34 -77,-60 -34,-40 -68,2 -104,14 -30,19 -43,48 -79,62 -35,13 -45,-5 -75,-7 -19,-1 -115,76 -115,95 0,97 186,85 177,141 -5,33 -132,-2 -146,37l-39 107c-5,44 -14,49 -37,81 -22,32 -23,49 5,77 54,54 -1,66 2,119 3,59 -71,79 -71,99 0,15 19,33 22,49 15,33 64,153 -12,153 -61,0 -45,-131 -128,-49l-19 82c-11,46 1,48 3,86 3,61 -133,-17 -151,-17 -7,0 -9,100 -9,118 0,19 25,30 23,56 0,22 17,42 17,63 0,22 -17,40 -17,62 0,15 65,62 78,29 15,-36 29,-23 58,-15 31,8 63,13 66,52 3,44 -41,93 39,93 57,0 125,-44 95,52 -5,15 -25,23 -31,36 0,101 83,46 146,78 17,8 19,28 35,36 31,15 24,19 31,52 8,44 -5,54 42,76 32,15 78,45 87,82l65 15 0 0z"/>
  <path class="fil0 str0" d="M8339 4659l86 -16c43,-10 65,-12 105,7 37,18 57,59 88,83l35 33 0 0 88 37 62 85c19,25 39,0 57,30 28,47 93,-5 129,48 22,33 -10,86 39,115 41,24 119,1 142,58 21,52 32,140 91,169 149,26 261,122 368,224 53,51 112,3 162,-29 56,-36 49,-97 49,-158 0,-174 24,-87 129,-17 123,83 89,-38 89,-111 0,-111 168,68 245,31 154,-74 -80,-145 -118,-173 -20,-38 -105,-191 -35,-211 55,-16 160,70 210,94 86,43 317,85 403,45 12,-6 306,-6 173,-70 -95,-46 -157,-362 -51,-297 58,36 93,91 141,138 88,88 99,11 170,11 23,46 21,83 75,33 78,-73 113,203 179,228 51,5 62,3 106,-21 100,-56 82,50 166,8 114,-57 119,141 247,136 120,-5 239,-135 374,-37l0 0c46,-29 84,-61 95,-104 18,-72 -2,-71 -41,-120 -42,-52 -30,-102 -26,-164 1,-19 -4,-9 1,-13 8,-8 41,-114 57,-133 50,-58 128,-89 100,-181 -39,-127 63,-251 36,-390 -10,-50 -47,-67 -85,-98 -47,-39 14,-120 -36,-158 -6,-5 -14,-30 -20,-33 -24,-12 -72,-48 -109,-59 -166,-51 -254,-131 -358,-274 -28,-39 -50,-74 -66,-108 -69,-5 -151,-57 -221,-57 -71,0 -128,108 -209,124 -18,4 -34,-4 -51,-3 -162,3 -274,17 -274,207 0,143 -180,60 -212,-9 -42,-92 -5,-126 -123,-56l-5 44c-30,81 -66,77 -139,119 -70,41 -62,-51 -118,-90 -62,-43 -50,-25 -119,-25 -52,0 -111,-89 -162,-111 -42,-37 -40,-54 -105,-54 -32,0 -97,-18 -115,7 -12,17 -29,44 -41,6 -7,-23 -13,-58 -11,-82 2,-34 -98,-56 -125,-65 -25,-8 -167,-60 -141,18l27 81c6,19 -23,89 -33,106 -10,21 -15,45 -25,65 -9,19 -29,15 -42,28 -28,28 -4,62 -47,99 -73,63 122,152 8,180 -55,14 -93,46 -142,4 -51,-44 -84,-129 -146,-167 -35,-21 -92,-8 -119,-41 -46,-59 19,-68 -95,-68 -55,0 -77,-57 -130,-57 -59,0 -85,15 -145,-2 -11,-3 -70,5 -71,-6l0 0 -91 55c-10,35 -15,78 -12,116 7,97 118,39 49,167 -40,73 -153,-48 -194,-18 -33,24 -1,102 -42,122 -16,7 -61,8 -69,20 -32,48 -83,8 -104,42 -18,29 -9,36 -48,47 -40,11 -40,56 -51,90 -1,25 -23,58 -8,82 24,41 73,61 94,103 43,86 153,36 66,156 -46,63 19,146 -10,185l0 0z"/>
  <path class="fil0 str0" d="M10216 11932l8 -60c99,-136 87,45 186,-10 33,-19 46,-55 86,-66 35,-9 35,11 64,12 53,2 70,-26 123,10 27,18 51,62 89,53 53,-12 37,-97 111,-107 39,-6 72,73 138,73l67 -4 0 0c10,6 21,4 32,8 23,9 30,41 60,41 48,0 74,24 120,24 56,0 52,76 77,110l7 3c7,29 61,32 83,32 31,0 44,21 63,42 29,30 94,66 136,56 63,-16 48,6 69,47 25,50 125,67 131,106 1,9 -46,36 -51,53 -11,34 15,55 38,78 14,15 29,21 29,45 0,26 -21,53 -13,79 8,25 27,43 41,64l-2 -24 33 58c32,60 60,128 135,128 60,0 60,26 112,49 50,22 130,101 79,159 -65,73 -61,140 -6,222 90,42 43,147 188,171 75,12 105,10 119,93 4,25 56,68 74,93 37,52 131,11 142,101 8,66 68,97 100,150 -2,3 -2,2 0,5 -12,25 20,163 20,193l0 0c-12,19 -13,51 -24,79 23,117 -148,72 -158,180 -8,88 -76,150 27,192 29,12 105,-12 110,6 5,16 11,67 6,83l74 54c-19,39 -6,121 -18,152 -16,39 -42,51 -45,99 -2,39 -6,83 -56,84 -2,0 -2,3 -3,5 -20,28 -28,85 -64,89 -41,5 -69,6 -91,48 -42,78 -80,159 -142,224 -93,98 -273,45 -287,-88 -11,-106 -115,-226 -213,-133 -118,112 -116,-176 -270,-120 -66,24 -122,116 -178,149 -41,24 -94,-9 -136,-15l0 0 41 -85c8,-16 9,-18 5,-33 -52,-13 -96,-29 -81,-87 21,-82 25,-81 8,-162 -19,-94 35,-237 -52,-291 -82,-51 -53,-154 -112,-191 -50,-32 -52,-65 -61,-123 -6,-43 -18,-94 -18,-136 -35,-211 -60,-422 -169,-604 -28,-47 -30,-116 -66,-152 -20,-20 -61,-50 -70,-76 -14,-38 8,-78 -24,-107 -15,-46 -11,-96 -25,-138 -9,-27 -44,-57 -64,-78 -61,-61 -26,-147 -69,-217 -22,-36 -22,-85 -41,-123l-79 -24 0 0 -2 -45c-19,-30 -33,-54 -61,-75 -20,-15 -41,-21 -56,-43 -41,-59 12,-110 6,-167 -4,-33 -54,-58 -63,-97 -16,-63 -58,-51 -104,-74 -24,-12 -38,-35 -61,-47l0 0z"/>
  
  
  
  
  
  
  
  
  
  
  
  
  
  
  
  
  
  
  
  
  
  
  
  
  
 </g>
<!-- Code injected by live-server -->
<script type="text/javascript">
	// <![CDATA[  <-- For SVG support
	if ('WebSocket' in window) {
		(function () {
			function refreshCSS() {
				var sheets = [].slice.call(document.getElementsByTagName("link"));
				var head = document.getElementsByTagName("head")[0];
				for (var i = 0; i < sheets.length; ++i) {
					var elem = sheets[i];
					var parent = elem.parentElement || head;
					parent.removeChild(elem);
					var rel = elem.rel;
					if (elem.href && typeof rel != "string" || rel.length == 0 || rel.toLowerCase() == "stylesheet") {
						var url = elem.href.replace(/(&|\?)_cacheOverride=\d+/, '');
						elem.href = url + (url.indexOf('?') >= 0 ? '&' : '?') + '_cacheOverride=' + (new Date().valueOf());
					}
					parent.appendChild(elem);
				}
			}
			var protocol = window.location.protocol === 'http:' ? 'ws://' : 'wss://';
			var address = protocol + window.location.host + window.location.pathname + '/ws';
			var socket = new WebSocket(address);
			socket.onmessage = function (msg) {
				if (msg.data == 'reload') window.location.reload();
				else if (msg.data == 'refreshcss') refreshCSS();
			};
			if (sessionStorage && !sessionStorage.getItem('IsThisFirstTime_Log_From_LiveServer')) {
				console.log('Live reload enabled.');
				sessionStorage.setItem('IsThisFirstTime_Log_From_LiveServer', true);
			}
		})();
	}
	else {
		console.error('Upgrade your browser. This Browser is NOT supported WebSocket for Live-Reloading.');
	}
	// ]]>
</script></svg>