<svg xmlns="http://www.w3.org/2000/svg" xmlns:xlink="http://www.w3.org/1999/xlink" xml:space="preserve" width="297mm" height="210mm" version="1.1" style="shape-rendering:geometricPrecision; text-rendering:geometricPrecision; image-rendering:optimizeQuality; fill-rule:evenodd; clip-rule:evenodd" viewBox="0 0 29700 21000">
 <defs>
  <style type="text/css">
   <![CDATA[
    .str2 {stroke:white;stroke-width:50;stroke-opacity:0.501961}
    .str4 {stroke:white;stroke-width:50}
    .str1 {stroke:#AE4A84;stroke-width:25}
    .str6 {stroke:#434242;stroke-width:50}
    .str0 {stroke:white;stroke-width:50}
    .str3 {stroke:white;stroke-width:50}
    .str7 {stroke:#2B2A29;stroke-width:7.62}
    .str5 {stroke:white;stroke-width:7.62}
    .fil7 {fill:none}
    .fil1 {fill:none;fill-rule:nonzero}
    .fil0 {fill:#171729}
    .fil2 {fill:#171729}
    .fil9 {fill:#D9DADA}
    .fil6 {fill:#171729;fill-rule:nonzero}
    .fil5 {fill:#D9DADA;fill-rule:nonzero}
    .fil8 {fill:#434242;fill-rule:nonzero}
    .fil4 {fill:black;fill-rule:nonzero}
    .fil3 {fill:#171729;fill-rule:nonzero;fill-opacity:0.501961}
   ]]>
  </style>
 </defs>
 <g id="Plan_x0020_1">
  <metadata id="CorelCorpID_0Corel-Layer"/>
  <path class="fil0 str0" d="M17667 12983c148,9 116,13 179,131 26,48 147,-3 212,49 12,9 103,57 116,59 26,2 49,-8 72,-21l0 0c0,-10 -18,-98 -32,-105 -102,-53 -28,-100 -51,-140 -24,-43 0,-88 42,-78 35,8 134,18 163,-1 13,-8 32,-100 86,-53 57,50 80,-43 94,-79 -7,-52 34,-94 10,-117 -22,-22 -2,-70 -21,-113 -7,-15 -145,-17 -177,-39 -35,-23 -72,-41 -111,-55 -64,-23 -14,-111 -111,-92 -60,12 -45,2 -91,2 -2,0 -93,-8 -97,-9 -27,-4 -24,-66 -21,-84 9,-61 -37,-85 -4,-96 41,-14 49,3 76,9 132,31 53,-12 133,-43 18,-7 127,51 144,-40l0 0c-24,-13 -73,-75 -90,-86 -19,-13 -117,-124 -126,-144 -19,-43 4,-117 -60,-127 -79,-13 -37,-4 -91,-48 -45,-37 -40,-70 -94,-98 -113,-58 -155,57 -211,104 -95,80 -162,8 -196,27 -82,46 -29,70 -150,71l0 0c-6,64 3,44 3,89 0,36 3,43 -2,79 -6,50 -16,67 -34,111 -27,71 -38,56 -95,93 -29,19 -52,25 -84,48 -31,23 -78,5 -106,80 -22,59 30,80 29,140 -1,32 21,126 72,94 46,-29 128,-36 128,43 0,53 42,108 100,89 68,-22 70,-9 61,56 -2,15 -13,46 -21,59l-48 141 0 0c86,6 104,-11 172,-51 50,-30 121,-44 150,18 13,28 72,15 75,102 0,3 6,23 8,25l0 0z"/>
  <path class="fil0 str0" d="M17667 12983c148,9 116,13 179,131 26,48 147,-3 212,49 12,9 103,57 116,59 26,2 49,-8 72,-21l0 0c10,0 20,-1 28,-2 47,-7 108,15 127,60 47,110 122,82 139,182 8,45 46,89 92,94 84,9 131,49 171,84 90,-34 130,-34 218,-5 13,4 22,30 37,48 33,39 4,95 102,89 22,-1 80,7 88,30 14,41 152,-19 121,71 -18,52 42,34 81,42 17,3 41,-6 36,18 -7,35 143,60 69,117 -52,40 24,40 32,86 17,106 -57,-7 -97,38 -48,54 -26,111 -77,149 -31,23 -28,-26 -85,-8 -88,28 -76,-56 -154,-38 -49,12 -97,-29 -124,-66 -24,-34 -54,-31 -78,3 -23,34 7,61 -78,121 -29,20 -64,24 -97,18 -56,-10 -119,60 -197,-30 -58,-67 -120,-176 -202,-85 -42,47 -73,132 -121,177 -48,45 -75,39 -133,90 -68,54 -82,46 -125,92l0 0c-1,-9 -45,-77 -48,-101 -3,-25 -1,-16 -2,-37 -2,-54 54,-103 35,-138 -56,-105 48,-217 -96,-217 -104,0 -74,-101 -139,-73 -103,44 -87,-33 -160,-60 -37,-14 -79,-75 -105,-105l0 0c41,-108 45,-55 128,-117 74,-56 1,-55 8,-139 3,-42 2,-94 -48,-94 -51,0 -175,-18 -195,-73 -7,-18 25,-56 8,-114 -12,-43 91,-53 123,-68 55,-26 85,-9 105,-86 9,-34 16,-52 2,-86 -7,-16 23,-40 33,-50l0 -35 0 0z"/>
  <path class="fil0 str0" d="M16891 12749c-17,65 -3,52 -8,101 -7,76 -119,118 -85,202 20,49 7,116 -28,155 -7,8 -11,12 -18,20 -63,52 -40,31 -89,62 -36,23 16,52 -55,83 -16,7 -56,31 -56,50 0,26 6,45 2,69 -8,41 -94,106 1,113 11,1 102,31 102,49 0,44 -140,76 -88,195 4,8 14,17 15,26l10 64 0 0 -5 2c-33,22 -87,77 -82,121 4,35 -36,13 -46,3 -57,-54 -18,44 -145,5 -51,-16 3,102 9,124 9,32 -65,84 -83,90 -51,18 -30,6 -67,58 -18,26 -35,70 -70,60 -66,-19 -60,-31 -142,-38l0 0c0,-9 -1,-38 0,-45 13,-70 -36,-39 -87,-66 -98,-52 -94,54 -143,18 -41,-30 -79,-65 -86,-118 -8,-60 -37,-49 -56,-65 -68,-55 -140,-4 -178,-35 -41,-33 -55,-85 -81,-131 -53,-54 -90,-66 -71,-149 12,-53 26,-93 -22,-139 -68,-65 -38,-109 -62,-167 -22,-54 -43,-110 -39,-169 5,-72 -50,-64 -67,-100 -8,-19 -5,-100 -7,-125l0 0c6,-9 19,-50 14,-60 -21,-52 -2,-77 -7,-89 -10,-23 -23,-84 -26,-104l0 0c18,-23 39,-18 59,1 40,36 33,28 73,16 37,-11 87,115 104,139 44,62 86,25 109,25 14,1 67,32 81,41 25,16 61,-18 69,-34 18,-38 -52,-119 -23,-174 16,-31 18,-83 -9,-107 -32,-29 18,-78 40,-91 29,-17 42,-41 20,-73 -39,-56 -32,-33 12,-82 26,-28 -19,-38 57,-38 2,2 3,2 5,3 51,39 139,21 122,80 -12,40 36,66 68,74 126,32 68,116 117,156 4,3 58,-1 58,-1 55,-23 54,-31 72,-79 14,-37 13,-67 22,-101 14,-55 -9,-45 36,-107l0 0c282,-33 201,76 327,73 51,-1 139,40 168,88 53,89 120,135 226,119 8,-1 24,0 32,0l0 0z"/>
  <path class="fil0 str0" d="M15963 14364c82,7 76,18 142,38 35,10 52,-33 70,-60 36,-52 16,-41 67,-58 19,-7 93,-58 83,-90 -6,-22 -60,-140 -9,-124 127,40 88,-58 145,-5 10,10 50,32 46,-3 -5,-44 49,-99 82,-121l5 -2 0 0c36,26 81,69 119,13 20,-29 29,-65 69,-83 66,-29 71,44 163,-14 105,-66 112,-14 216,-40 109,-27 111,-145 225,-26 45,47 69,35 119,56l0 0c26,30 68,91 105,105 73,27 57,104 160,60 65,-28 35,73 139,73 145,0 41,112 96,217 18,34 -37,84 -35,138 1,22 -1,12 2,37 3,24 47,92 48,101l0 0c-67,73 -84,82 -170,127 -20,10 -12,55 -14,79 -6,56 -43,52 -79,74 -28,18 -44,12 -50,16 -25,16 130,63 -3,76 -57,6 -20,64 -88,96 -30,14 -25,-27 -74,-27 -81,0 -72,74 -123,60 -36,-9 -32,12 -63,36 -21,16 -40,26 -59,48l-8 6c-46,68 -44,39 -96,41 -27,1 -38,54 -134,58l0 0c-4,-5 -17,-52 -17,-58 -7,-69 33,-74 -12,-150 -8,-13 -75,-59 -84,-61 -45,-12 -69,-96 -87,-119 -50,-62 -51,-71 -137,-74 -25,12 -65,27 -92,35 -72,22 -83,5 -119,-44 -4,-5 -19,-29 -21,-34 -17,-38 -85,-79 -121,-78 -99,2 -90,-12 -170,64l0 0c-20,-16 -58,-16 -68,-24 -22,-19 -57,-14 -74,4 -36,40 -55,26 -51,-24 3,-46 16,-30 -37,-68l0 0c8,-19 46,-100 39,-116 -42,-101 -37,-22 -43,-157l0 0z"/>
  <path class="fil0 str0" d="M16891 12749c85,-10 54,-3 122,4 53,5 28,54 119,50 23,-1 81,13 92,35 4,9 12,28 16,40l23 12 0 0c86,6 104,-11 172,-51 50,-30 121,-44 150,18 13,28 72,15 75,102 0,3 6,23 8,25l0 0 0 35c-9,9 -39,33 -33,50 14,33 7,52 -2,86 -20,78 -50,60 -105,86 -32,15 -135,26 -123,68 16,58 -15,96 -8,114 20,55 144,73 195,73 50,0 51,52 48,94 -7,84 66,83 -8,139 -83,62 -86,9 -128,117l0 0c-50,-21 -74,-10 -119,-56 -114,-119 -116,-1 -225,26 -104,26 -111,-26 -216,40 -92,58 -96,-16 -163,14 -41,18 -50,54 -69,83 -38,56 -83,13 -119,-13l0 0 -10 -64c-1,-9 -12,-18 -15,-26 -51,-119 88,-151 88,-195 0,-19 -91,-49 -102,-49 -94,-6 -9,-72 -1,-113 5,-24 -2,-44 -2,-69 0,-19 40,-43 56,-50 71,-32 19,-61 55,-83 49,-31 26,-10 89,-62 8,-8 11,-12 18,-20 34,-39 47,-106 28,-155 -34,-84 78,-126 85,-202 5,-49 -9,-36 8,-101l0 0z"/>
  <path class="fil0 str0" d="M17068 11168c2,-2 42,-56 47,-69 14,-33 55,60 95,-22 16,-33 75,-93 113,-63 25,20 60,14 80,-13 30,-39 119,0 139,-116 10,-58 -49,-88 -31,-134 8,-20 82,-39 64,-88 -15,-40 80,-39 97,-113 2,-11 10,-21 14,-31 12,-17 46,-53 28,-76 -32,-41 -42,-87 1,-127 44,-41 74,-32 14,-67 -45,-26 35,-78 37,-102 2,-24 7,-74 15,-96l0 0c5,-17 6,-32 -3,-44 -15,-19 -4,-44 10,-64l0 0 -555 -283 -501 -22c-7,28 25,47 -7,105 -30,55 43,40 18,95 -48,104 -78,44 -140,124 -39,50 -90,44 -126,16l0 0c-7,9 -48,70 -51,79 -26,64 -59,59 -95,98 -37,41 -3,93 -50,114 -134,59 -67,62 -74,125 -7,73 23,69 -40,95 -38,16 -117,-40 -32,78l0 0c79,62 46,53 136,86 43,16 43,-24 86,39 25,36 101,-16 139,-27 92,-26 72,-32 171,-29 9,0 65,-6 43,30 -10,16 -60,46 -74,92 -21,69 -2,35 -4,68 -1,15 -78,121 -23,170 22,20 113,-34 200,31 16,12 60,9 73,41 16,38 152,71 183,98l0 0z"/>
  <path class="fil0 str0" d="M17259 11768c121,-1 68,-24 150,-71 34,-19 101,53 196,-27 56,-47 98,-162 211,-104 54,28 49,60 94,98 53,44 12,35 91,48 64,11 41,84 60,127 9,20 107,131 126,144 17,11 66,73 90,86l0 0c8,-40 37,-83 38,-84 5,-38 18,-53 31,-87 13,-32 8,-86 44,-65 20,11 61,11 78,2 26,-15 171,44 203,61 85,45 112,7 135,7 66,2 32,11 105,-6 64,-15 46,-44 99,-20 31,14 92,-28 86,-55 -9,-41 0,-32 -36,-71 -7,-4 -19,-13 -26,-14 -90,-21 -58,-18 -132,-66 -85,-55 -25,-115 -66,-123 -64,-12 -102,39 -130,37 -65,-5 39,-145 29,-174 -30,-83 42,-141 -28,-170 -81,-33 -204,50 -218,51 -78,3 -17,-104 -58,-117 -51,-16 -40,-14 -76,9 -26,17 -54,-1 -61,-21 -18,-51 -37,-90 -37,-145 0,-24 -11,-57 -10,-62 8,-65 32,-29 17,-119 -10,-18 -10,-34 -6,-54 9,-47 -87,-31 -100,-44 -27,-29 48,-46 53,-63 14,-51 -59,-27 -86,-25 -25,3 -90,24 -98,21 -72,-27 96,-213 86,-269 -8,-44 -33,-19 -33,-72 0,-51 -74,-80 -115,-89 -42,-9 -89,-36 -51,-82 44,-54 29,-29 32,-83 1,-31 -36,-31 -48,-26 -60,25 -36,54 -117,3l0 0c-8,22 -13,72 -15,96 -2,24 -82,75 -37,102 59,35 30,26 -14,67 -42,40 -33,86 -1,127 18,23 -15,59 -28,76 -4,10 -12,21 -14,31 -17,74 -112,73 -97,113 19,49 -55,68 -64,88 -18,46 41,76 31,134 -21,115 -109,77 -139,116 -20,26 -55,33 -80,13 -38,-30 -97,30 -113,63 -40,81 -82,-12 -95,22 -5,13 -45,67 -47,69l0 0c-4,83 -22,88 31,133 49,41 82,83 78,150 -1,20 47,66 60,102 12,35 23,175 23,215l0 0z"/>
  <path class="fil0 str0" d="M15590 10962l0 -110 0 0 0 110 0 0c-1,15 5,60 9,75 16,56 -9,71 -49,34 -33,-30 -49,6 -49,36 0,67 1,39 -21,95 -17,43 -21,46 3,80 34,47 76,23 76,99 0,121 97,36 112,117 9,47 26,57 38,94 21,65 47,60 -1,112 -25,27 -92,54 -72,87 32,53 -73,54 -91,84 -52,85 -108,17 -136,56 -18,25 -4,18 -38,63l7 -9c34,42 122,135 179,151 65,19 128,52 198,70 26,7 138,64 154,83l55 119 0 0c6,-2 48,-28 53,-33 67,-68 31,-84 40,-134 11,-56 52,-54 97,-43 34,9 96,0 84,-51 -19,-77 -96,-61 -96,-175 0,-54 -75,-39 -62,-89 19,-76 35,-25 24,-110 -10,-85 -97,-66 -84,-136 15,-82 77,-43 105,-89 54,-87 -98,-101 -81,-136 16,-32 25,-31 51,-68 -1,-25 16,-74 31,-95 28,-37 53,-33 98,-36 110,-7 114,-101 83,-184 -34,-92 9,-111 6,-137 -8,-63 -168,13 -171,-62 -5,-126 2,-91 -56,-208l0 0c-3,2 -16,1 -20,0 -118,-10 -163,-24 -195,106 -8,33 -49,78 -79,58 -21,-14 -19,36 -82,36 -69,0 -42,-32 -119,28l0 110z"/>
  <path class="fil0 str0" d="M16086 10623l51 -55 0 0c-85,-118 -6,-62 32,-78 63,-26 32,-22 40,-95 6,-63 -60,-66 74,-125 47,-21 13,-72 50,-114 35,-39 69,-34 95,-98 3,-8 44,-70 51,-79l0 0c-20,-16 -36,-39 -41,-64 -28,-124 -136,-85 -143,-115 -11,-52 -53,-78 -98,-106 -78,-4 -134,15 -211,15 -42,0 -83,7 -121,5 -67,-4 -175,-14 -197,-92 -23,-83 -81,-65 -157,-58 -62,6 -132,3 -190,10 -34,4 -82,-7 -107,1 -12,4 -19,2 -21,-4l0 0c-49,114 37,176 28,201 -17,51 -104,37 -145,40 -31,2 -198,19 -213,15 -103,-28 -103,80 -175,93 -70,12 -66,118 -38,170 28,52 13,71 25,99 19,45 -36,82 1,126 19,22 79,33 68,63 -31,76 -134,-26 -184,0 -53,28 -46,59 -34,117l0 0c64,-12 115,-31 145,35 10,23 61,68 78,86l48 43 0 0c62,-46 43,-28 91,-55 65,-36 42,-4 102,-16 27,-5 55,1 90,-11 36,-12 116,19 154,27 84,19 69,201 153,178 35,-10 77,-12 104,18 3,3 92,43 100,50l0 0c77,-60 50,-28 119,-28 63,0 62,-50 82,-36 30,20 71,-25 79,-58 32,-129 78,-116 195,-106 5,0 17,2 20,0l0 0z"/>
  <path class="fil0 str0" d="M16086 10623l51 -55 0 0c79,62 46,53 136,86 43,16 43,-24 86,39 25,36 101,-16 139,-27 92,-26 72,-32 171,-29 9,0 65,-6 43,30 -10,16 -60,46 -74,92 -21,69 -2,35 -4,68 -1,15 -78,121 -23,170 22,20 113,-34 200,31 16,12 60,9 73,41 16,38 152,71 183,98l0 0c-4,83 -22,88 31,133 49,41 82,83 78,150 -1,20 47,66 60,102 12,35 23,175 23,215l0 0c-6,64 3,44 3,89 0,36 3,43 -2,79 -6,50 -16,67 -34,111 -27,71 -38,56 -95,93 -29,19 -52,25 -84,48 -31,23 -78,5 -106,80 -22,59 30,80 29,140 -1,32 21,126 72,94 46,-29 128,-36 128,43 0,53 42,108 100,89 68,-22 70,-9 61,56 -2,15 -13,46 -21,59l-48 141 0 0 -23 -12c-4,-11 -12,-31 -16,-40 -11,-22 -69,-36 -92,-35 -91,4 -67,-45 -119,-50 -68,-7 -36,-14 -122,-4l0 0c-9,0 -25,-1 -32,0 -106,16 -174,-30 -226,-119 -28,-48 -117,-89 -168,-88 -126,3 -46,-106 -327,-73l0 0c-6,0 -40,-6 -48,-7 -70,-13 -74,0 -127,-54l0 0c6,-2 48,-28 53,-33 67,-68 31,-84 40,-134 11,-56 52,-54 97,-43 34,9 96,0 84,-51 -19,-77 -96,-61 -96,-175 0,-54 -75,-39 -62,-89 19,-76 35,-25 24,-110 -10,-85 -97,-66 -84,-136 15,-82 77,-43 105,-89 54,-87 -98,-101 -81,-136 16,-32 25,-31 51,-68 -1,-25 16,-74 31,-95 28,-37 53,-33 98,-36 110,-7 114,-101 83,-184 -34,-92 9,-111 6,-137 -8,-63 -168,13 -171,-62 -5,-126 2,-91 -56,-208l0 0z"/>
  <path class="fil0 str0" d="M14062 11382c23,36 31,46 36,84 9,77 27,75 81,118 26,20 35,19 56,50 27,38 57,72 95,100 62,45 88,77 172,77 8,0 33,2 36,2l55 -5 0 0 -28 126c-12,19 -16,86 -43,89 -45,6 -130,71 -166,13 -18,-30 10,-18 -30,-44 -28,-18 -57,35 -64,54 -19,51 -40,109 -87,142 -32,23 -6,49 -21,91 -15,41 -32,88 -78,102 -50,16 -50,16 -104,43l0 0c-7,0 -37,-12 -43,-17 -44,-31 -86,-28 -111,-53 -1,-1 -41,-64 -45,-71 -21,-36 -114,-38 -152,-40 -151,-8 -94,-33 -190,-82 -14,-7 -90,15 -101,17l0 0 -68 -49c-34,-16 -107,-22 -142,-14 -61,12 -99,11 -152,-30 -28,-22 -111,-10 -132,3 -75,49 -49,-38 -42,-73 12,-66 -42,-92 -94,-68 -60,28 -19,-32 -11,-39 66,-62 -69,-50 -86,-68 -43,-45 -14,-57 -116,-45l0 0c-35,-3 -53,-1 -55,-40 -2,-49 117,-25 117,-81 0,-26 8,-84 -3,-100 -29,-40 -20,-18 -41,-66 -11,-25 -25,-36 -4,-74 43,-78 11,-175 134,-137 43,13 234,-56 277,-72l2 -3c87,38 60,11 140,8 60,-2 -5,65 85,63 35,-1 107,53 126,86 21,36 83,58 122,58 44,0 88,-16 129,-29 41,-14 89,-20 129,-31 40,-11 74,-24 113,-38 82,-44 84,-23 158,3 35,12 109,41 145,39l0 0z"/>
  <path class="fil0 str0" d="M14796 10660c62,-46 43,-28 91,-55 65,-36 42,-4 102,-16 27,-5 55,1 90,-11 36,-12 116,19 154,27 84,19 69,201 153,178 35,-10 77,-12 104,18 3,3 92,43 100,50l0 110c-1,15 5,60 9,75 16,56 -9,71 -49,34 -33,-30 -49,6 -49,36 0,67 1,39 -21,95 -17,43 -21,46 3,80 34,47 76,23 76,99 0,121 97,36 112,117 9,47 26,57 38,94 21,65 47,60 -1,112 -25,27 -92,54 -72,87 32,53 -73,54 -91,84 -52,85 -108,17 -136,56 -18,25 -4,18 -38,63l0 0c-53,4 -206,84 -260,20 -46,-56 -33,-63 -94,-113 -22,-17 -130,-2 -160,2 -75,9 -60,-2 -114,-25 -75,-33 -54,-42 -149,-71l0 0 -55 5c-4,0 -28,-2 -36,-2 -83,0 -110,-33 -172,-77 -38,-28 -68,-61 -95,-100 -21,-30 -30,-30 -56,-50 -54,-42 -72,-41 -81,-118 -5,-37 -13,-47 -36,-84l0 0c29,-36 33,-31 8,-71 -49,-78 -2,-58 -19,-128 -5,-19 -8,-104 6,-116 26,-23 48,-16 78,-68 0,0 86,-110 83,-63 -1,16 17,90 35,103 28,21 101,-8 157,4 48,10 92,21 129,53 25,21 77,4 98,-25 32,-44 57,-55 106,-71 44,-14 136,-79 117,-128 -7,-18 -75,-38 -71,-94 1,-9 12,-35 12,-64 0,-18 -3,-38 -3,-56l0 0z"/>
  <path class="fil0 str0" d="M15377 11985c34,42 122,135 179,151 65,19 128,52 198,70 26,7 138,64 154,83l55 119 0 0c53,54 57,41 127,54 8,1 42,7 48,7l0 0c-45,62 -22,52 -36,107 -9,34 -8,64 -22,101 -18,48 -17,56 -72,79 0,0 -54,4 -58,1 -49,-40 9,-124 -117,-156 -32,-8 -80,-34 -68,-74 17,-59 -71,-41 -122,-80 -2,-2 -3,-2 -5,-3 -77,1 -32,10 -57,38 -44,49 -51,26 -12,82 22,32 10,56 -20,73 -22,13 -72,62 -40,91 27,25 26,77 9,107 -29,55 41,136 23,174 -8,16 -44,50 -69,34 -14,-9 -67,-40 -81,-41 -23,-1 -66,36 -109,-25 -17,-24 -67,-150 -104,-139 -40,12 -33,20 -73,-16 -20,-18 -41,-24 -59,-1l0 0c-109,42 -78,18 -154,-13 -20,-8 -36,0 -63,-29 -36,-39 -130,-64 -175,-32 -54,38 -43,-63 -112,-26 -34,18 -53,23 -79,-6 -31,-35 -18,-123 -89,-179 -10,-8 -26,-56 -74,-54 -25,1 -87,-45 -134,-25 -28,11 -62,0 -89,0l-102 -34 0 0c54,-27 55,-28 104,-43 46,-14 63,-61 78,-102 15,-41 -11,-68 21,-91 47,-33 68,-91 87,-142 7,-20 36,-73 64,-54 40,26 12,14 30,44 35,58 121,-7 166,-13 27,-3 31,-70 43,-89l28 -126 0 0c95,29 73,38 149,71 54,23 39,35 114,25 30,-4 139,-19 160,-2 62,49 48,57 94,113 53,64 206,-16 260,-20l7 -9z"/>
  <path class="fil0 str0" d="M13630 9802c6,-65 1,-61 -24,-107 -8,-14 -22,-148 -17,-164 5,-16 9,-81 -14,-91 -59,-26 -28,-52 -28,-109 0,-81 120,-42 131,-183 4,-52 98,-92 83,-141 -26,-87 57,-143 102,-205 6,-9 6,-5 11,-11l106 -94 0 0c-39,-32 -49,-39 -110,-69 -74,-36 -144,1 -174,-72 -22,-52 -54,-40 -91,-58 -31,-16 -90,-15 -113,-28 -81,-47 -126,85 -162,118 -101,94 -123,-20 -216,-54 -76,-28 -77,-48 -138,-82 -45,-25 -45,-28 -91,-60l-2 -3 -66 89c-2,66 1,51 -40,84 -69,56 -113,4 -186,68 -44,39 112,57 75,179 -15,50 52,73 68,123 16,49 8,136 3,188 -14,139 43,88 62,153 11,40 -28,91 -17,128l0 6c16,4 173,24 175,49 2,22 -24,79 17,85 28,4 52,-58 102,-16 47,39 104,-56 165,-5 18,15 -5,53 75,65 59,9 180,12 149,104 -3,7 -7,35 -7,43l0 0c12,71 13,57 63,73 19,6 84,3 104,-2l7 0 0 0z"/>
  <path class="fil0 str0" d="M13456 9731c12,71 13,57 63,73 19,6 84,3 104,-2l7 0 0 0c50,49 40,42 93,42 84,0 7,103 128,172 35,20 46,22 79,50 19,16 88,47 116,69 27,22 44,35 71,60 17,15 87,79 43,96 -15,6 -80,-29 -122,64 -21,47 19,115 51,148 45,47 84,61 125,102l8 12c30,42 39,73 84,98 33,19 47,-38 105,-43 51,-5 66,-70 78,-106 1,-2 35,-70 35,-70l0 0c64,-12 115,-31 145,35 10,23 61,68 78,86l48 43 0 0c0,18 3,37 3,56 1,29 -11,55 -12,64 -4,55 64,75 71,94 19,50 -72,114 -117,128 -50,16 -74,27 -106,71 -21,28 -73,46 -98,25 -37,-32 -82,-43 -129,-53 -56,-12 -129,17 -157,-4 -18,-13 -36,-87 -35,-103 3,-46 -83,63 -83,63 -30,52 -53,45 -78,68 -13,12 -10,97 -6,116 17,69 -30,50 19,128 25,40 21,35 -8,71l0 0c-36,3 -110,-26 -145,-39 -74,-26 -76,-47 -158,-3 -39,14 -73,27 -113,38 -40,11 -88,17 -129,31 -41,14 -85,29 -129,29 -39,0 -101,-22 -122,-58 -19,-33 -91,-87 -126,-86 -90,2 -24,-65 -85,-63 -80,2 -52,30 -140,-8l-2 3 2 -3c23,-50 6,-56 -22,-84 -30,-30 -31,-56 -31,-98 0,-27 -11,-54 -43,-53 -124,5 -74,-50 -123,-67 -83,-28 -39,-100 -134,-143 -115,-52 -79,-4 -203,-101l0 0 31 -17c11,-7 34,-41 35,-55 2,-23 42,-40 53,-40 60,3 38,-59 78,-56 43,2 79,-25 88,-66 23,-113 1,-51 76,-157 0,-4 2,-20 3,-23 8,-31 -5,-66 23,-83 28,-17 32,-52 18,-79 -40,-78 47,-81 73,-53 58,60 36,49 116,57 62,6 61,55 85,58 58,6 67,-60 83,-87 45,-78 96,-28 141,-26 86,5 -34,-122 33,-144 43,-14 17,-58 37,-112 15,-39 93,-55 125,-64l0 0z"/>
  <path class="fil0 str0" d="M13630 9802c50,49 40,42 93,42 84,0 7,103 128,172 35,20 46,22 79,50 19,16 88,47 116,69 27,22 44,35 71,60 17,15 87,79 43,96 -15,6 -80,-29 -122,64 -21,47 19,115 51,148 45,47 84,61 125,102l8 12c30,42 39,73 84,98 33,19 47,-38 105,-43 51,-5 66,-70 78,-106 1,-2 35,-70 35,-70l0 0c-12,-58 -19,-89 34,-117 50,-27 154,76 184,0 12,-30 -48,-40 -68,-63 -38,-44 17,-81 -1,-126 -12,-28 3,-48 -25,-99 -28,-53 -32,-158 38,-170 72,-13 72,-121 175,-93 15,4 182,-12 213,-15 41,-3 128,12 145,-40 9,-26 -77,-87 -28,-201l0 0c-9,-24 44,-114 31,-161 -20,-72 6,-121 -4,-179 -4,-24 -55,-70 -56,-91 -4,-58 -33,-30 -33,-107 0,-20 9,-46 -8,-40 -52,20 -180,62 -232,68 -20,2 -106,21 -106,21 -54,-2 -108,-11 -161,4 -111,33 -123,15 -197,-66 -45,-49 -83,-98 -135,-140 -74,-25 -222,-113 -286,-165 -9,-8 -17,-14 -24,-20l0 0 -106 94c-6,6 -5,2 -11,11 -45,62 -128,118 -102,205 15,49 -79,89 -83,141 -11,141 -131,101 -131,183 0,57 -31,83 28,109 23,10 18,75 14,91 -5,16 10,150 17,164 25,46 29,42 24,107l0 0z"/>
  <path class="fil0 str0" d="M12598 14513c-50,-45 -22,-32 -4,-76 1,-2 -29,-115 32,-82 20,11 27,116 87,74 40,-28 137,12 138,-48 1,-32 -84,-46 -14,-75 16,-6 41,6 43,-43 1,-26 38,-127 61,-138 68,-32 65,64 203,55 24,-2 54,-7 77,3 39,17 74,-62 137,-59 28,1 38,32 100,14 4,-1 162,-1 113,54 -10,11 -79,68 -33,79 40,10 50,-20 82,32 31,52 54,79 107,28 39,-37 18,-17 42,-57 3,-5 9,-7 14,-8l54 18 0 0c11,1 48,-24 60,-29 56,-25 32,-63 35,-85 4,-29 7,-19 8,-68 -18,-41 -21,-50 -33,-93 -20,-73 46,-96 106,-101 135,-10 128,-112 149,-124 56,-33 44,-11 89,-65 45,-54 80,-27 108,-39 65,-28 -53,-76 -41,-105 34,-82 79,-44 91,-46 50,-8 50,-14 82,-62l4 2c-3,-2 -6,-3 -8,-5 -24,-22 -33,-25 -61,-39 -22,-11 -46,-8 -63,-13 -52,-12 -115,55 -149,8 -31,-44 -52,-57 -107,-62 -42,-4 -34,-5 -77,2 -44,7 -111,60 -135,25 -51,-76 -97,-27 -130,-59 -34,-34 -40,-32 -75,-17 -49,21 -22,32 -95,2l0 0c-26,-3 -58,-9 -85,-12 -64,-6 -91,-37 -156,0 -97,55 -47,-4 -137,-6 -38,-1 -83,77 -134,78 -48,1 -10,-12 -90,8 -71,-32 -18,-65 -104,-119 -37,-23 -101,46 -100,-14 3,-107 -57,-61 -89,-94 -22,-22 -15,-35 -25,-52 -30,-53 -29,-53 -86,-97l0 0c-2,4 -2,3 -5,6 -50,48 -22,99 -88,116 -73,19 -66,50 -27,107 23,34 23,68 -10,97 -63,56 37,86 35,132 -2,33 18,89 -35,100 -71,15 -89,13 -154,53 -44,28 -63,39 -102,78 -75,74 -193,66 -221,138 -28,72 10,25 -50,122l0 0c41,111 38,49 126,89 92,41 -102,164 40,230 49,23 81,100 155,130 8,3 14,8 22,12 84,33 53,46 98,64 35,15 32,-7 68,41 48,63 62,31 123,7 8,-3 22,-15 32,-14l0 0z"/>
  <path class="fil0 str0" d="M15046 12821c-109,42 -78,18 -154,-13 -20,-8 -36,0 -63,-29 -36,-39 -130,-64 -175,-32 -54,38 -43,-63 -112,-26 -34,18 -53,23 -79,-6 -31,-35 -18,-123 -89,-179 -10,-8 -26,-56 -74,-54 -25,1 -87,-45 -134,-25 -28,11 -62,0 -89,0l-102 -34 0 0c-7,0 -37,-12 -43,-17 -44,-31 -86,-28 -111,-53 -1,-1 -41,-64 -45,-71 -21,-36 -114,-38 -152,-40 -151,-8 -94,-33 -190,-82 -14,-7 -90,15 -101,17l0 0c-8,11 -16,24 -12,38 9,31 -107,47 -13,96 38,20 17,6 45,32 27,26 -4,75 -19,101 -37,64 -72,36 -113,49 -107,35 15,57 -110,99 -42,14 -40,45 -13,72 36,35 39,27 82,76 9,8 48,17 82,49 40,37 63,34 88,59 42,42 64,34 91,51 32,20 29,38 35,71 6,36 76,62 104,104 36,53 -54,95 42,132 18,7 50,31 32,48 -19,18 -39,36 -56,55l0 0c72,30 46,19 95,-2 36,-15 41,-18 75,17 32,32 78,-17 130,59 24,35 91,-18 135,-25 43,-7 35,-6 77,-2 55,5 76,18 107,62 33,47 97,-20 149,-8 17,4 41,2 63,13 28,14 37,17 61,39 2,2 5,2 8,5l-4 -2c74,0 100,46 127,45 84,-2 71,-31 63,-91 -4,-32 -24,-46 -53,-63 -35,-20 -60,-27 -49,-74 15,-69 -67,-59 -14,-124 12,-15 106,-37 127,-35 38,5 51,-11 68,-10 116,5 70,-63 86,-93 45,-85 85,-5 110,12 44,32 44,35 105,40l0 0c6,-9 19,-50 14,-60 -21,-52 -2,-77 -7,-89 -10,-23 -23,-84 -26,-104l0 0z"/>
  <path class="fil0 str0" d="M13598 13312c17,-19 37,-37 56,-55 18,-17 -14,-41 -32,-48 -97,-37 -6,-78 -42,-132 -28,-42 -98,-68 -104,-104 -6,-33 -3,-51 -35,-71 -26,-17 -48,-9 -91,-51 -26,-26 -48,-23 -88,-59 -34,-31 -73,-40 -82,-49 -43,-49 -46,-40 -82,-76 -28,-27 -29,-58 13,-72 125,-42 3,-64 110,-99 41,-13 76,15 113,-49 15,-26 46,-75 19,-101 -28,-27 -7,-13 -45,-32 -94,-49 22,-66 13,-96 -4,-14 4,-27 12,-38l0 0 -68 -49c-34,-16 -107,-22 -142,-14 -61,12 -99,11 -152,-30 -28,-22 -111,-10 -132,3 -75,49 -49,-38 -42,-73 12,-66 -42,-92 -94,-68 -60,28 -19,-32 -11,-39 66,-62 -69,-50 -86,-68 -43,-45 -14,-57 -116,-45l0 0 -1 5c-15,41 -9,19 -10,60 -1,28 21,46 0,71 -52,64 -19,69 -33,100 -49,106 -82,22 -137,25 -58,3 -49,-75 -155,-45 -58,17 -64,-132 -116,-59 -37,52 -35,53 -86,110l0 0c17,77 24,52 43,105 22,62 17,65 29,127 11,59 58,49 58,128 0,45 -11,77 -26,117 -34,93 13,65 51,125 37,57 -53,45 -80,81 -10,14 -28,41 -26,60 -8,33 -25,81 25,71 140,-30 32,88 180,27 17,-7 27,-15 51,-23 72,-25 56,-18 120,-17 41,1 85,-28 136,10 40,29 24,45 43,68l39 61 0 0c58,44 56,44 86,97 9,16 3,30 25,52 32,32 92,-13 89,94 -2,60 62,-10 100,14 86,54 33,87 104,119 81,-20 43,-7 90,-8 50,-1 95,-79 134,-78 91,3 40,62 137,6 65,-37 92,-6 156,0 27,3 58,8 85,12l0 0z"/>
  <path class="fil0 str0" d="M14304 14688c39,29 41,46 78,43 15,-1 15,-6 41,-5 42,1 108,-24 118,43 8,50 72,15 106,78 23,43 46,60 89,40 44,-20 68,-9 111,8 1,3 26,62 31,68 26,30 65,46 106,50l91 5 0 0c1,1 5,7 6,9 14,42 60,63 28,105 -68,89 0,52 -7,110 -3,24 -5,53 -18,74 -24,38 -42,18 -43,73l0 0c-9,13 -33,6 -47,30 -25,43 -71,56 -93,7 -15,-34 -117,-15 -145,-8 -67,17 -133,-20 -174,22 -86,88 -96,-37 -155,-41 -49,-3 -89,77 -110,93 -66,49 -83,-71 -114,-101 -18,-18 -57,-58 -80,-37 -59,53 5,165 -23,220l0 0c-34,66 -91,11 -132,-12 -64,-34 0,-101 16,-144 9,-25 41,-90 78,-74 54,23 81,-41 106,-70 63,-74 47,-50 50,-147 0,-50 -8,-45 21,-89 13,-19 73,-47 48,-71 -50,-46 -16,-53 -39,-95 -18,-33 -69,-41 -57,-64 31,-58 70,-30 78,-33 6,-3 37,-82 38,-84l0 0z"/>
  <path class="fil0 str0" d="M15040 15388c1,-55 19,-35 43,-73 13,-21 15,-50 18,-74 7,-58 -61,-21 7,-110 32,-42 -14,-63 -28,-105 0,-1 -4,-7 -6,-9l0 0 37 -63c1,-9 20,-13 27,-13 30,-1 12,-50 0,-59 -43,-29 87,-51 45,-103 -31,-38 -28,-90 20,-110 13,-5 93,-2 104,1 50,15 116,-62 167,-74 69,-16 75,35 147,6 41,-17 43,23 61,46 66,84 71,-60 109,-25 14,13 70,-50 88,-27 39,52 -21,77 88,41l0 0c53,38 40,22 37,68 -4,51 15,64 51,24 17,-19 52,-23 74,-4 10,8 48,9 68,24l0 0c-37,59 -34,47 -74,84 -25,23 -11,82 31,100 50,21 120,106 76,156 -43,49 -59,71 -118,106 -84,37 -69,8 -137,13 -45,3 -104,40 -85,98 28,85 73,94 63,174l0 0c-32,-33 -42,-32 -106,-25 -7,4 -18,9 -23,15 -46,56 -15,38 -78,56 -2,1 -88,-11 -94,-12 -35,-10 -122,30 -146,51 -32,29 -138,4 -150,-14 -35,-49 52,-73 52,-117 0,-76 -100,33 -111,-29 -12,-64 -102,-4 -144,-17 -34,-11 -76,-2 -111,1l0 0z"/>
  <path class="fil0 str0" d="M15064 13074c-62,-5 -61,-8 -105,-40 -24,-17 -65,-97 -110,-12 -16,30 30,98 -86,93 -17,-1 -29,15 -68,10 -21,-3 -115,20 -127,35 -54,66 29,55 14,124 -10,48 14,54 49,74 29,17 48,30 53,63 8,60 21,89 -63,91 -27,1 -53,-45 -127,-45l0 0c-32,48 -32,54 -82,62 -11,2 -56,-36 -91,46 -12,29 106,77 41,105 -28,12 -62,-14 -108,39 -46,54 -33,32 -89,65 -21,12 -14,114 -149,124 -60,4 -127,27 -106,101 12,43 14,51 33,93 -2,49 -5,39 -8,68 -3,23 21,60 -35,85 -11,5 -49,30 -60,29l0 0c-12,85 -16,50 -39,107 -13,31 53,70 71,124 23,71 138,-16 180,63 24,45 34,28 85,53 21,10 68,27 73,51 5,25 70,-21 94,6l0 0c39,29 41,46 78,43 15,-1 15,-6 41,-5 42,1 108,-24 118,43 8,50 72,15 106,78 23,43 46,60 89,40 44,-20 68,-9 111,8 1,3 26,62 31,68 26,30 65,46 106,50l91 5 0 0 37 -63c1,-9 20,-13 27,-13 30,-1 12,-50 0,-59 -43,-29 87,-51 45,-103 -31,-38 -28,-90 20,-110 13,-5 93,-2 104,1 50,15 116,-62 167,-74 69,-16 75,35 147,6 41,-17 43,23 61,46 66,84 71,-60 109,-25 14,13 70,-50 88,-27 39,52 -21,77 88,41l0 0c8,-19 46,-100 39,-116 -42,-101 -37,-22 -43,-157l0 0c0,-9 -1,-38 0,-45 13,-70 -36,-39 -87,-66 -98,-52 -94,54 -143,18 -41,-30 -79,-65 -86,-118 -8,-60 -37,-49 -56,-65 -68,-55 -140,-4 -178,-35 -41,-33 -55,-85 -81,-131 -53,-54 -90,-66 -71,-149 12,-53 26,-93 -22,-139 -68,-65 -38,-109 -62,-167 -22,-54 -43,-110 -39,-169 5,-72 -50,-64 -67,-100 -8,-19 -5,-100 -7,-125l0 0z"/>
  <path class="fil0 str0" d="M12440 15300l6 72c15,80 -34,28 -77,85 -10,14 -14,33 -10,50 5,20 20,54 37,69l0 0c0,5 0,10 2,15 10,28 14,89 -33,67 -25,-12 -48,-3 -25,31 42,60 -4,92 -51,139 -14,-1 -139,-13 -135,-48 3,-36 67,-116 -23,-65 -85,48 -96,-102 -161,-107 -37,-3 -56,-15 -56,42 0,84 -35,-122 -119,-9 -17,23 -14,118 -9,146 7,46 -29,87 -42,130 -27,90 -66,47 -65,180 1,36 4,81 -24,109 -44,44 -69,-125 -129,29 -34,86 -74,111 -131,19 -13,-21 -54,-77 -78,-81 -97,-19 -70,53 -171,66 -83,11 -35,-65 -81,-72 -31,-5 -74,-9 -105,-4 -51,43 -119,88 -190,84 -25,-1 -28,-35 -46,-58 -36,-45 0,-38 51,-77 41,-32 85,-48 34,-99 -9,-9 -40,-47 -27,-58 43,-39 104,-52 77,-121 -20,-51 51,-60 57,-130 5,-60 31,-68 -25,-77 -48,-8 -96,-96 -97,3 0,34 -33,137 -90,97 -30,-21 -35,-34 -63,-17 -37,22 -153,-55 -108,55 19,47 103,50 80,113 -15,42 -78,-16 -108,-6l0 0c-9,-11 -72,-158 -62,-176 40,-72 47,-51 24,-144 0,-13 1,-27 -1,-39 -4,-28 -10,-68 -15,-94 -14,-72 37,-106 101,-124 50,-14 88,-62 129,-86 51,-30 65,-63 101,-92 28,-23 55,-47 77,-75 26,-33 29,-43 61,-76 31,-33 87,-43 103,-70 22,-38 28,-33 43,-55 23,-33 140,-3 140,-97 0,-53 -32,-26 17,-93l0 0c66,47 64,42 128,72 58,28 104,23 163,34 48,9 95,29 95,83 0,14 0,28 0,41l0 0c-46,20 -123,49 -100,117 23,69 153,72 174,122 14,32 50,84 92,63 90,-45 107,-8 159,-21 20,-5 116,7 124,46 11,58 -1,124 72,141 85,19 72,10 158,-8 17,-3 36,-8 52,-14l101 -30 0 0z"/>
  <path class="fil0 str0" d="M12598 14513c-50,-45 -22,-32 -4,-76 1,-2 -29,-115 32,-82 20,11 27,116 87,74 40,-28 137,12 138,-48 1,-32 -84,-46 -14,-75 16,-6 41,6 43,-43 1,-26 38,-127 61,-138 68,-32 65,64 203,55 24,-2 54,-7 77,3 39,17 74,-62 137,-59 28,1 38,32 100,14 4,-1 162,-1 113,54 -10,11 -79,68 -33,79 40,10 50,-20 82,32 31,52 54,79 107,28 39,-37 18,-17 42,-57 3,-5 9,-7 14,-8l54 18 0 0c-12,85 -16,50 -39,107 -13,31 53,70 71,124 23,71 138,-16 180,63 24,45 34,28 85,53 21,10 68,27 73,51 5,25 70,-21 94,6l0 0c-1,2 -32,81 -38,84 -8,4 -47,-25 -78,33 -13,24 38,32 57,64 24,42 -10,49 39,95 26,24 -35,51 -48,71 -30,45 -21,39 -21,89 -3,98 13,73 -50,147 -24,29 -51,92 -106,70 -37,-15 -69,50 -78,74 -16,42 -80,110 -16,144 41,22 98,78 132,12l0 0 69 100c21,62 62,107 75,157 10,36 -15,41 -32,63 -34,46 34,79 -56,165 -38,36 -18,93 -85,106 -50,10 -44,86 -104,98 -31,6 -94,44 -114,68 -10,11 -20,16 -32,23 -137,93 -29,60 -74,112 -4,4 -35,28 -40,33l0 0c-9,-8 -21,-14 -36,-14 -48,-1 -113,-58 -174,-30 -32,14 -142,29 -133,-32 8,-53 -84,-36 -98,-88 -9,-35 65,-32 34,-140 -9,-33 -1,-39 1,-70 -42,-152 -5,-25 -117,-93 -45,-28 -45,-56 -99,-26 -40,22 -92,24 -118,-21 -20,-35 -50,-37 -79,-65 -29,-27 -51,41 -123,10 -53,-23 1,-84 -64,-54 -40,18 -146,16 -84,-68 53,-72 -71,-8 -30,-84 11,-19 54,-102 29,-113 -45,-21 -42,0 -81,-52 -14,-19 -131,-28 -134,20l0 0c-17,-15 -32,-48 -37,-69 -4,-17 0,-36 10,-50 43,-57 92,-5 77,-85l-6 -72 0 0c16,-9 28,-25 35,-29 31,-18 52,-63 73,-80 71,-58 66,-54 155,-61 33,-3 29,-5 78,-5 10,-12 13,-55 17,-64 11,-26 -42,-23 -57,-19 -56,14 -35,-35 -45,-64 -20,-66 11,-138 5,-153 -8,-19 -2,-50 14,-61 66,-47 1,-53 -38,-74 -21,-12 -25,-47 -19,-65 18,-54 -21,-68 -60,-93l2 -18z"/>
  <path class="fil0 str0" d="M12597 14531c39,25 78,39 60,93 -6,18 -2,53 19,65 39,22 104,28 38,74 -16,11 -21,42 -14,61 6,15 -25,87 -5,153 9,30 -11,78 45,64 15,-4 68,-6 57,19 -4,10 -7,53 -17,64 -49,0 -45,3 -78,5 -89,7 -85,3 -155,61 -21,17 -42,62 -73,80 -7,4 -18,20 -35,29l0 0 -101 30c-16,6 -35,11 -52,14 -86,18 -73,27 -158,8 -73,-17 -61,-82 -72,-141 -7,-39 -103,-51 -124,-46 -52,13 -69,-24 -159,21 -42,21 -78,-31 -92,-63 -21,-50 -152,-53 -174,-122 -23,-69 55,-98 100,-117l0 0c76,6 58,9 82,-36 22,-40 32,-35 50,-69 2,-4 -9,-121 -13,-133 -9,-30 1,-54 -40,-78 -48,-28 -53,-108 -30,-154 37,-73 -96,-174 16,-224 75,-33 57,-116 129,-110 15,1 70,-39 84,-48l47 -77 0 0c41,111 38,49 126,89 92,41 -102,164 40,230 49,23 81,100 155,130 8,3 14,8 22,12 84,33 53,46 98,64 35,15 32,-7 68,41 48,63 62,31 123,7 8,-3 22,-15 32,-14l-2 18z"/>
  <path class="fil0 str0" d="M8964 11078c36,38 74,87 122,108 21,9 41,42 33,68 -6,20 -22,67 -6,83 18,18 14,76 58,111 26,21 8,84 31,125 43,76 22,107 137,115 57,4 107,45 130,95 8,17 15,30 26,45 15,85 28,123 66,198 38,73 14,51 83,104 50,38 10,108 71,144 32,19 96,99 142,125 19,11 126,92 137,109 26,36 61,76 93,107 51,50 79,127 102,195l13 55 0 0c58,78 38,60 38,136 0,54 28,76 76,100l88 61 0 0c40,-40 63,2 63,-56 0,-58 70,-54 93,-70 7,-5 19,-158 126,-104 31,16 64,-31 75,-56 20,-43 49,-81 78,-118 62,-78 -8,-132 -26,-195 -14,-47 14,-41 48,-32 47,13 66,47 101,29 37,-20 40,42 46,69 29,129 140,-7 148,-41 30,-121 115,-44 64,-146 -4,-42 -11,-79 -33,-114 -62,-94 -32,-130 -17,-225l0 0c-8,-6 -18,-11 -26,-18 -39,-35 -117,-51 -140,-98 -14,-29 -45,-74 -75,-88 -18,-9 -45,-27 -54,-32 -33,-15 -37,-68 -62,-87 -41,-32 -95,-26 -143,-20 -98,13 -60,-18 -81,-55 -21,-37 -62,16 -82,28 -38,22 -38,-74 -35,-89 18,-86 -44,-87 -43,-118 3,-82 182,22 79,-129 -12,-12 -30,-33 -38,-47 -16,-26 -28,-40 -41,-61 -34,-53 -111,-87 -123,-109 -24,-40 2,-48 -53,-111 -47,-53 -101,1 -110,-20 -13,-28 42,-79 61,-94 58,-45 -3,-113 -30,-162l0 0c-15,2 -36,21 -46,31 -35,37 -47,34 -78,60 -30,25 -96,33 -104,37 -132,74 -94,160 -136,199 -50,47 -66,-53 -93,-62 -88,-28 -46,-92 -89,-121 -62,-43 -68,-10 -86,-84 -18,-75 -108,-12 -134,18 -29,35 -65,49 -89,71 -96,91 -73,-33 -112,-22 -54,16 -35,26 -78,-3 -33,-22 -60,2 -75,32 -33,64 -43,68 -89,128l0 0z"/>
  <path class="fil0 str0" d="M11934 13955c60,-97 22,-50 50,-122 28,-72 146,-63 221,-138 39,-39 58,-50 102,-78 65,-41 83,-38 154,-53 53,-12 34,-68 35,-100 2,-47 -98,-76 -35,-132 33,-29 33,-63 10,-97 -39,-58 -46,-88 27,-107 66,-18 38,-69 88,-116 3,-3 3,-3 5,-6l0 0 -39 -61c-19,-23 -3,-38 -43,-68 -51,-38 -95,-9 -136,-10 -64,-2 -48,-9 -120,17 -24,8 -34,16 -51,23 -148,61 -40,-57 -180,-27 -50,11 -33,-38 -25,-71 -1,-19 16,-45 26,-60 26,-36 116,-25 80,-81 -38,-60 -85,-32 -51,-125 15,-40 26,-73 26,-117 0,-79 -47,-69 -58,-128 -12,-62 -7,-65 -29,-127 -19,-53 -26,-29 -43,-105l0 0c-16,-17 -82,-29 -103,-38 -62,-26 -35,-25 -73,-48 -63,-40 -44,-21 -107,-35 -36,-8 -65,-8 -104,-10l0 0 -106 66 -4 3c-44,29 -154,155 -203,130 -28,-14 -43,-20 -79,-30l0 0c-15,96 -46,131 17,225 23,34 29,72 33,114 51,102 -34,25 -64,146 -9,34 -119,170 -148,41 -6,-27 -8,-89 -46,-69 -34,18 -54,-16 -101,-29 -33,-10 -61,-15 -48,32 18,63 88,117 26,195 -29,37 -59,75 -78,118 -11,25 -44,71 -75,56 -107,-54 -120,99 -126,104 -22,16 -93,12 -93,70 0,58 -23,16 -63,56l0 0c7,7 57,72 76,71 58,-2 93,-69 134,-28 20,20 -14,48 34,61 117,33 58,122 124,114 15,-2 99,-54 154,-53 90,3 117,-4 203,-33 38,-13 77,-11 98,25 9,16 22,24 28,45 3,9 20,42 26,48 49,71 71,59 134,99 34,21 191,73 199,98 29,92 18,82 84,164 39,49 74,74 130,100 34,16 86,51 106,83l0 0z"/>
  <path class="fil0 str0" d="M11609 14883c76,6 58,9 82,-36 22,-40 32,-35 50,-69 2,-4 -9,-121 -13,-133 -9,-30 1,-54 -40,-78 -48,-28 -53,-108 -30,-154 37,-73 -96,-174 16,-224 75,-33 57,-116 129,-110 15,1 70,-39 84,-48l47 -77 0 0c-20,-31 -72,-67 -106,-83 -56,-26 -92,-51 -130,-100 -66,-82 -54,-72 -84,-164 -8,-25 -165,-77 -199,-98 -63,-40 -86,-28 -134,-99 -6,-6 -23,-39 -26,-48 -6,-21 -19,-29 -28,-45 -21,-36 -60,-38 -98,-25 -87,30 -114,36 -203,33 -55,-2 -139,51 -154,53 -66,9 -8,-80 -124,-114 -48,-14 -13,-42 -34,-61 -41,-41 -76,26 -134,28 -18,1 -69,-64 -76,-71l0 0 -88 -61c-48,-24 -76,-47 -76,-100 0,-76 20,-58 -38,-136l0 0c-18,9 -37,18 -54,23 -57,15 -153,136 -197,118 -27,-11 -50,14 -77,32 -58,40 -64,20 -82,30 -35,20 -11,23 -93,62 -30,4 -101,95 -109,129 -23,96 -48,52 -90,107 -64,85 -2,102 -97,202 -16,17 -2,89 0,109l0 0c63,-21 83,-26 111,27 16,29 -8,47 45,61 8,2 62,-28 75,-33l0 0c118,-30 84,-24 194,-24 20,0 54,7 80,7 57,-1 153,40 199,73 40,28 25,109 -55,109 -44,0 -145,22 -146,76 -1,46 102,75 145,67 172,-34 88,106 140,147 76,59 126,25 194,70 34,22 99,40 138,40 79,0 112,-18 181,-53 40,-46 67,-96 100,-15 6,15 -32,86 92,56 29,-7 114,-59 136,2 16,47 -65,240 64,166 40,-23 121,-49 139,14 8,29 -82,51 -52,121 8,17 18,56 38,68l0 0c66,47 64,42 128,72 58,28 104,23 163,34 48,9 95,29 95,83 0,14 0,28 0,41l0 0z"/>
  <path class="fil0 str0" d="M12147 9996c-4,-80 -19,-64 -78,-111 -44,-35 -68,-57 -72,-116 -5,-66 -62,-97 -83,-147 -13,-30 -22,-46 -29,-81 -17,-86 -31,-46 -4,-141 11,-39 -13,-81 -3,-136 5,-29 12,-74 12,-103l-60 -71 0 0 -53 -38c-3,-3 -12,-17 -14,-21 -34,-57 -86,-12 -112,-28 -38,-25 58,-92 27,-114 -66,-47 -161,-12 -195,-74 -13,-24 -62,-34 -86,-36 -103,-7 -68,-26 -134,-51 -47,-18 -98,-9 -111,-52 -10,-32 30,-161 -46,-132 -95,36 -94,144 -167,141 -61,-2 -128,6 -157,69 -31,69 -44,38 -75,25 -118,-47 -97,3 -173,-11 -25,-5 -44,-14 -66,-21 -59,-18 -20,-24 -107,-27 -65,38 -45,98 -63,123 -27,38 -96,93 -146,54 -21,-17 -60,-109 -112,-94 -8,2 -151,100 -161,109 -40,37 -41,25 -75,44 -31,17 -48,63 -87,74 -85,24 -57,-22 -146,59l0 0c-4,22 -20,77 -29,103 -22,59 56,93 45,131 -30,96 -23,98 27,181 28,45 0,77 77,101 62,19 84,61 121,104 21,25 27,68 56,107 56,75 -7,80 93,159 25,20 57,63 63,94 0,2 5,14 6,17 -1,27 -6,107 44,82 29,-14 84,-35 104,1 15,27 127,8 139,23 16,19 -9,113 108,93 40,-7 92,-32 112,18 8,20 86,40 112,50 54,21 57,33 79,84 10,23 -16,45 -3,92 3,10 -1,29 -1,40l0 0c53,42 36,26 86,9 25,-9 66,-40 106,-51 23,-6 69,-49 86,-66l0 0c20,-134 6,-27 76,-129 28,-41 44,-89 107,-45 31,22 119,12 148,-24 12,-15 67,-62 86,-69 51,-16 109,-14 147,27 39,40 152,-21 138,-53 -21,-49 -27,-73 26,-108 36,-24 31,-12 58,-51 12,-18 65,-42 86,-17 27,33 46,79 32,121 -19,57 18,64 66,64 69,-24 52,-30 78,-79 29,-56 17,-38 68,-81 8,-7 21,-15 29,-24l0 0z"/>
  <path class="fil0 str0" d="M12885 8392l-2 -3c-45,-65 -27,-54 -100,-86 -95,-42 -146,7 -213,-76 -37,-47 -52,-62 -104,-93 -15,-9 -87,-47 -92,-51 -41,-30 -98,-79 -104,-133 -11,-102 -99,-58 -128,-135 -18,-47 -114,-25 -134,25 -25,61 -72,76 -83,16 -9,-47 -39,-32 -34,-53 15,-57 33,8 10,-96l-9 -9c-40,-34 -75,-78 -115,-108 -100,-76 -56,-148 -76,-239 -17,-78 -256,-48 -332,-110 -45,-36 -75,-28 -104,-47l8 5c-40,22 -27,115 16,134 58,25 38,84 -5,117 -33,26 13,69 31,75 44,14 32,55 14,88 -54,93 84,77 95,110 35,108 -1,71 110,137 10,12 29,27 41,37 46,36 37,183 9,220 -40,51 11,71 45,106 24,25 46,37 71,63 29,31 52,88 76,111 4,4 37,39 37,39 84,60 -11,141 10,179 41,73 -15,99 0,117 18,22 27,73 8,94 -23,26 -29,68 -21,101 20,86 30,59 19,165l0 0 60 71c0,29 -7,74 -12,103 -10,55 14,97 3,136 -27,96 -13,55 4,141 7,35 17,51 29,81 21,50 78,81 83,147 5,59 28,81 72,116 59,47 74,31 78,111l0 0c15,58 29,97 14,157 -10,41 -13,118 5,158 50,111 -46,146 28,220 70,70 30,207 115,167 3,-1 52,-20 52,-20l0 0 31 -17c11,-7 34,-41 35,-55 2,-23 42,-40 53,-40 60,3 38,-59 78,-56 43,2 79,-25 88,-66 23,-113 1,-51 76,-157 0,-4 2,-20 3,-23 8,-31 -5,-66 23,-83 28,-17 32,-52 18,-79 -40,-78 47,-81 73,-53 58,60 36,49 116,57 62,6 61,55 85,58 58,6 67,-60 83,-87 45,-78 96,-28 141,-26 86,5 -34,-122 33,-144 43,-14 17,-58 37,-112 15,-39 93,-55 125,-64l0 0c0,-8 4,-35 7,-43 31,-92 -89,-95 -149,-104 -80,-12 -56,-50 -75,-65 -62,-51 -118,45 -165,5 -50,-41 -74,20 -102,16 -41,-6 -15,-63 -17,-85 -3,-24 -159,-45 -175,-49l0 -6c-11,-37 29,-88 17,-128 -18,-65 -76,-14 -62,-153 5,-53 13,-139 -3,-188 -16,-50 -83,-73 -68,-123 37,-122 -119,-140 -75,-179 73,-64 117,-13 186,-68 41,-33 38,-18 40,-84l66 -89 2 3z"/>
  <path class="fil0 str0" d="M11001 10463c20,-134 6,-27 76,-129 28,-41 44,-89 107,-45 31,22 119,12 148,-24 12,-15 67,-62 86,-69 51,-16 109,-14 147,27 39,40 152,-21 138,-53 -21,-49 -27,-73 26,-108 36,-24 31,-12 58,-51 12,-18 65,-42 86,-17 27,33 46,79 32,121 -19,57 18,64 66,64 69,-24 52,-30 78,-79 29,-56 17,-38 68,-81 8,-7 21,-15 29,-24l0 0c15,58 29,97 14,157 -10,41 -13,118 5,158 50,111 -46,146 28,220 70,70 30,207 115,167 3,-1 52,-20 52,-20l0 0c124,98 89,49 203,101 94,43 51,114 134,143 49,17 -1,72 123,67 32,-1 43,26 43,53 0,42 1,68 31,98 28,28 45,34 22,84l-2 3 0 0c-43,16 -235,85 -277,72 -123,-38 -91,59 -134,137 -21,37 -7,49 4,74 20,48 11,27 41,66 11,15 3,74 3,100 0,56 -119,32 -117,81 1,39 19,36 55,40l0 0 -1 5c-15,41 -9,19 -10,60 -1,28 21,46 0,71 -52,64 -19,69 -33,100 -49,106 -82,22 -137,25 -58,3 -49,-75 -155,-45 -58,17 -64,-132 -116,-59 -37,52 -35,53 -86,110l0 0c-16,-17 -82,-29 -103,-38 -62,-26 -35,-25 -73,-48 -63,-40 -44,-21 -107,-35 -36,-8 -65,-8 -104,-10l0 0c11,-13 12,-27 17,-42 29,-82 -14,-80 22,-166 22,-53 40,-91 44,-150 4,-50 -4,-116 -63,-132 -71,-20 -64,-92 -84,-110 -60,-55 -96,-16 -128,-136 -18,-67 3,-65 -38,-132 -20,-22 -60,-55 -67,-81 -17,-56 -47,-37 -68,-92 -12,-32 -3,-60 -18,-84 -2,-3 -53,-50 -60,-56 -61,-55 36,-92 83,-98 36,-4 54,-28 28,-53 -50,-48 -31,-107 -102,-107 -69,0 -52,15 -127,-32l0 0z"/>
  <path class="fil0 str0" d="M10723 10570c53,42 36,26 86,9 25,-9 66,-40 106,-51 23,-6 69,-49 86,-66l0 0c75,47 57,32 127,32 71,0 52,60 102,107 26,25 8,48 -28,53 -47,6 -144,42 -83,98 7,6 58,53 60,56 15,24 6,52 18,84 21,55 51,36 68,92 8,26 48,59 67,81 41,67 20,65 38,132 32,120 68,81 128,136 20,18 13,91 84,110 59,16 67,82 63,132 -4,60 -22,98 -44,150 -36,86 7,84 -22,166 -5,15 -6,28 -17,42l0 0 -106 66 -4 3c-44,29 -154,155 -203,130 -28,-14 -43,-20 -79,-30l0 0c-8,-6 -18,-11 -26,-18 -39,-35 -117,-51 -140,-98 -14,-29 -45,-74 -75,-88 -18,-9 -45,-27 -54,-32 -33,-15 -37,-68 -62,-87 -41,-32 -95,-26 -143,-20 -98,13 -60,-18 -81,-55 -21,-37 -62,16 -82,28 -38,22 -38,-74 -35,-89 18,-86 -44,-87 -43,-118 3,-82 182,22 79,-129 -12,-12 -30,-33 -38,-47 -16,-26 -28,-40 -41,-61 -34,-53 -111,-87 -123,-109 -24,-40 2,-48 -53,-111 -47,-53 -101,1 -110,-20 -13,-28 42,-79 61,-94 58,-45 -3,-113 -30,-162l0 0c103,-25 55,-21 122,-68 56,-39 71,37 176,-63 30,-28 96,-53 137,-44 14,3 66,-8 79,-14l36 -34 0 0z"/>
  <path class="fil0 str0" d="M8569 11364c7,-16 18,-58 35,-70 35,-25 62,17 116,-52 23,-30 -59,-67 -7,-103 61,-41 -50,-134 76,-139 4,0 4,-2 12,-2l60 -2 0 0 -2 -73c-1,-2 -7,-16 -7,-18 -17,-73 -51,-81 -57,-165 -3,-31 -30,-49 -58,-63 -51,-27 -79,-59 -56,-119 15,-39 -23,-55 -54,-54 -110,2 -78,-47 -145,-56 -45,-6 -150,-29 -184,-58 -44,-39 -69,-59 -123,-91l0 0c-14,14 -28,26 -42,39 -28,28 -78,98 -117,86 -79,-25 -85,-16 -161,14 -99,39 -77,-38 -101,-80 -18,-31 -74,-26 -103,-21 -43,7 -51,-8 -69,-10 -60,-7 -55,-12 -119,33l0 0c0,22 4,47 3,60 -1,22 4,26 5,38 2,27 49,11 -15,111 -16,25 30,59 46,64 52,15 17,92 -7,119 -21,24 -27,39 -40,55 -43,52 10,32 -41,100 -51,67 -65,57 -142,68l0 0 68 83 0 0c108,9 67,-3 136,-5 31,-1 77,19 96,47 19,27 77,81 109,86 85,14 67,72 191,16 45,-20 156,-96 184,-7 7,21 -1,51 26,78 39,39 72,40 119,89 29,30 58,37 76,88l0 0c90,30 65,16 139,-13 27,-10 72,49 69,-22 0,-14 23,-76 43,-60 9,7 32,15 43,10l0 0z"/>
  <path class="fil0 str0" d="M10173 10793c103,-25 55,-21 122,-68 56,-39 71,37 176,-63 30,-28 96,-53 137,-44 14,3 66,-8 79,-14l36 -34 0 0c0,-11 4,-30 1,-40 -13,-47 13,-69 3,-92 -22,-50 -25,-63 -79,-84 -26,-10 -103,-30 -112,-50 -21,-50 -72,-25 -112,-18 -117,20 -92,-74 -108,-93 -13,-15 -124,4 -139,-23 -20,-36 -75,-15 -104,-1 -51,25 -45,-55 -44,-82 -1,-3 -5,-14 -6,-17 -7,-32 -38,-75 -63,-94 -100,-79 -37,-83 -93,-159 -29,-40 -35,-83 -56,-107 -37,-43 -59,-85 -121,-104 -78,-24 -50,-56 -77,-101 -50,-82 -57,-85 -27,-181 12,-38 -66,-72 -45,-131 10,-26 25,-81 29,-103l0 0c-7,-6 -16,-27 -22,-36 -23,-36 -48,-95 -86,-115 -70,-38 -86,-105 -180,-81 -75,19 -118,76 -122,-11 -2,-50 -176,-1 -194,4l0 0 9 69c0,15 -9,33 -23,39 0,0 -94,17 -94,17 -1,0 -50,13 -58,15 -47,15 -109,7 -141,30 -12,8 -64,69 -71,81 -25,41 -87,78 -135,66 -71,-19 -146,-69 -158,-146 -13,-83 -62,53 -67,73 -26,92 -54,27 -84,123 -8,25 -3,70 17,89 30,29 4,96 20,116 18,22 51,62 56,90 9,50 17,34 -17,83 -24,36 -19,34 -4,53 25,32 30,-1 12,68l0 0 -36 74c-1,2 -4,7 -5,9 -28,36 -17,52 -33,93 -9,24 10,62 22,85 18,33 11,85 19,106 31,84 -68,106 -60,135 9,32 22,47 35,81l0 0c54,31 78,52 123,91 33,29 138,52 184,58 67,9 35,59 145,56 31,-1 69,15 54,54 -23,61 5,93 56,119 28,14 56,32 58,63 7,83 40,92 57,165 1,3 6,16 7,18l2 73 0 0 104 81 0 0c46,-59 56,-64 89,-128 16,-30 43,-54 75,-32 43,29 24,19 78,3 39,-11 16,113 112,22 24,-23 59,-36 89,-71 25,-30 116,-93 134,-18 18,74 23,42 86,84 43,30 1,93 89,121 27,9 43,108 93,62 42,-39 5,-126 136,-199 7,-4 73,-12 104,-37 31,-25 43,-23 78,-60 10,-11 31,-29 46,-31l0 0z"/>
  <path class="fil0 str0" d="M9404 13675c-2,-20 -16,-92 0,-109 95,-100 33,-117 97,-202 42,-55 67,-12 90,-107 8,-34 79,-125 109,-129 82,-39 57,-42 93,-62 18,-10 24,10 82,-30 27,-18 50,-43 77,-32 44,18 141,-102 197,-118 17,-5 35,-14 54,-23l0 0 -13 -55c-24,-68 -51,-145 -102,-195 -32,-31 -67,-71 -93,-107 -12,-16 -119,-98 -137,-109 -46,-26 -110,-106 -142,-125 -61,-36 -21,-106 -71,-144 -69,-53 -45,-30 -83,-104 -38,-75 -52,-113 -66,-198 -11,-15 -18,-28 -26,-45 -22,-51 -73,-92 -130,-95 -115,-7 -94,-38 -137,-115 -23,-41 -5,-104 -31,-125 -44,-35 -40,-93 -58,-111 -16,-16 0,-63 6,-83 8,-26 -13,-59 -33,-68 -48,-21 -87,-70 -122,-108l0 0 -104 -81 0 0 -60 2c-8,0 -8,2 -12,2 -126,4 -15,98 -76,139 -52,35 30,73 7,103 -54,69 -81,28 -116,52 -17,12 -28,54 -35,70l0 0c61,24 65,23 117,38 68,19 25,79 48,116 52,81 113,82 102,205 -9,108 44,40 71,147 10,39 52,38 89,50 38,12 136,49 158,79 2,3 4,6 7,8 1,97 16,34 50,98 21,40 -25,70 -36,115 -8,33 2,59 -1,90 -6,50 -15,198 18,235 21,22 40,110 -3,111 -25,0 -29,45 -28,61 3,63 -14,64 -79,51 -61,-12 -69,-15 -126,27 -34,25 -91,-6 -103,96 -3,23 18,53 18,91l0 8c-11,94 -24,59 -82,83 -4,2 -29,22 -31,23l0 0c0,3 6,156 6,158 14,53 110,30 155,32 48,2 187,-42 150,72 -8,24 -12,39 -21,65 -34,93 34,57 96,114 1,1 97,68 101,70 34,19 69,79 109,69 5,-1 40,0 48,0l0 0z"/>
  <path class="fil0 str0" d="M8668 13249c-84,-18 -49,-29 -104,-62 -53,-32 -80,86 -171,-1 -32,-31 -58,0 -93,-57 -28,-45 26,-66 -45,-118 -10,-8 -31,-11 -51,-23 -66,-40 -137,-27 -182,-48 -1,-7 -12,-12 -12,-57 0,-58 -19,-38 -69,-68 -33,-19 -29,-30 -76,-34 -15,-1 -83,-30 -97,-44 -29,-29 -49,-77 4,-93 26,-8 139,-104 85,-115 -59,-11 -103,55 -144,53l-8 -50 0 0c-22,-22 -22,-41 -32,-63 -7,-16 4,-64 -16,-79 -49,-38 -147,-5 -203,5 -26,5 -92,15 -114,20 -97,26 -40,-19 -97,-58 -48,-32 -58,-29 -108,-15 -60,16 -11,33 -106,14l0 0 -104 -5 -105 6 0 0c3,5 4,11 4,17 -1,11 -93,19 -80,66 8,29 34,2 6,63 -37,78 47,33 76,82 10,16 -24,65 -34,92 -38,108 -75,37 -133,123 -26,39 41,38 17,90 -23,49 -67,-95 -131,-25 -51,56 117,69 19,89 -27,6 -100,42 -65,75l5 5c31,99 6,38 -36,63 -26,15 -33,73 -6,90 22,13 88,65 74,96 -17,37 -47,19 -58,78 -7,39 -70,55 -51,103 22,57 -46,86 -66,135l0 0 192 40c26,9 81,27 111,30 20,2 22,26 -6,43 -27,17 -58,71 -33,101 23,27 141,-116 141,-1 0,86 15,34 53,94 26,41 -12,32 57,63 20,9 124,23 139,34 80,63 183,-83 209,-38 22,39 7,51 27,88 22,39 114,-17 159,-24 14,-2 17,-5 33,-5l0 0c25,-55 21,-44 63,-31 62,19 90,50 103,-41 13,-89 64,-101 128,-47 52,44 125,-32 115,-39 -18,-13 -112,-59 -78,-87 13,-11 80,13 93,8 85,-28 57,-117 127,-101 38,9 42,52 100,17 73,-43 69,33 138,10 78,-26 51,79 111,96 64,18 53,-118 116,-72 9,7 57,81 85,13 21,-50 -48,-70 -36,-132 9,-47 84,-16 125,-31 42,-15 163,-121 60,-137 -30,-5 -89,-23 -41,-57 18,-12 77,-50 41,-75 -15,-10 -10,-43 -23,-68l0 0z"/>
  <path class="fil0 str0" d="M7339 11058c108,9 67,-3 136,-5 31,-1 77,19 96,47 19,27 77,81 109,86 85,14 67,72 191,16 45,-20 156,-96 184,-7 7,21 -1,51 26,78 39,39 72,40 119,89 29,30 58,37 76,88l0 0 -15 40 -3 2c-32,21 -48,34 -77,54 -30,21 -41,66 -18,90 38,38 21,52 15,101 -7,54 -4,59 -48,109 -4,9 -29,31 -38,36 -93,55 -27,52 -66,107 -51,70 -38,94 -38,175 0,57 -105,95 -113,170 -4,43 -31,67 -59,97 -49,52 -46,51 -111,101l0 0c-22,-22 -22,-41 -32,-63 -7,-16 4,-64 -16,-79 -49,-38 -147,-5 -203,5 -26,5 -92,15 -114,20 -97,26 -40,-19 -97,-58 -48,-32 -58,-29 -108,-15 -60,16 -11,33 -106,14l0 0c11,-14 17,-18 28,-30 47,-49 55,-1 83,-69 3,-7 -11,-34 -14,-43 -13,-32 5,-60 35,-76 71,-38 13,-55 -42,-33 -100,40 -41,-50 -66,-57 -38,-12 89,-162 99,-174 6,-6 15,-16 19,-21 51,-64 117,-53 110,-145 -7,-98 28,-66 28,-132 0,-65 -15,-86 -17,-141 -1,-51 30,-94 33,-111 5,-29 -20,-88 -8,-154 7,-39 14,-67 21,-111l0 0z"/>
  <path class="fil0 str0" d="M8275 11450c90,30 65,16 139,-13 27,-10 72,49 69,-22 0,-14 23,-76 43,-60 9,7 32,15 43,10l0 0c61,24 65,23 117,38 68,19 25,79 48,116 52,81 113,82 102,205 -9,108 44,40 71,147 10,39 52,38 89,50 38,12 136,49 158,79 2,3 4,6 7,8 1,97 16,34 50,98 21,40 -25,70 -36,115 -8,33 2,59 -1,90 -6,50 -15,198 18,235 21,22 40,110 -3,111 -25,0 -29,45 -28,61 3,63 -14,64 -79,51 -61,-12 -69,-15 -126,27 -34,25 -91,-6 -103,96 -3,23 18,53 18,91l0 8c-11,94 -24,59 -82,83 -4,2 -29,22 -31,23l0 0 -46 -21c-19,5 -16,12 -26,25 -19,25 -17,122 -18,150l0 0c-84,-18 -49,-29 -104,-62 -53,-32 -80,86 -171,-1 -32,-31 -58,0 -93,-57 -28,-45 26,-66 -45,-118 -10,-8 -31,-11 -51,-23 -66,-40 -137,-27 -182,-48 -1,-7 -12,-12 -12,-57 0,-58 -19,-38 -69,-68 -33,-19 -29,-30 -76,-34 -15,-1 -83,-30 -97,-44 -29,-29 -49,-77 4,-93 26,-8 139,-104 85,-115 -59,-11 -103,55 -144,53l-8 -50 0 0c65,-50 61,-49 111,-101 29,-30 55,-54 59,-97 7,-75 113,-113 113,-170 0,-81 -13,-105 38,-175 39,-55 -27,-52 66,-107 9,-5 34,-28 38,-36 44,-50 41,-55 48,-109 6,-49 23,-63 -15,-101 -24,-24 -12,-69 18,-90 29,-20 44,-33 77,-54l3 -2 15 -40 0 0z"/>
  <path class="fil0 str0" d="M5886 9982c-10,66 0,85 -33,141 -22,37 16,43 33,67 52,72 35,36 16,113 -17,70 42,66 93,113 41,38 89,80 57,141 -20,39 -45,18 -45,100 0,30 3,60 3,89l0 4c-2,141 3,82 75,170 1,2 4,8 5,10l-6 43 0 0 -96 58 -92 96 -7 -5c-76,-73 -130,35 -170,43 -49,10 -80,-58 -98,-82 -37,-47 -23,-68 -80,-84 -64,-18 -170,32 -187,-37 -27,-106 -104,-1 -122,-114 -17,-101 -37,-108 -129,-144 -68,-24 -152,19 -162,14 -53,-27 81,-162 20,-159 -89,5 -66,22 -106,71 -27,33 -62,77 -107,45 -37,-26 -66,-142 -55,-181 24,-82 -50,-116 -36,-159 13,-38 6,-81 29,-114 39,-55 15,-44 13,-96 -2,-53 49,-71 89,-54 18,7 25,2 33,3 56,5 49,-177 48,-203l0 0c3,1 58,29 61,29 38,-1 82,-67 121,5 17,31 67,15 106,22 108,18 155,49 166,-100 4,-56 100,-85 143,-134 40,-44 62,-49 109,-84 48,-36 146,-18 135,40 -4,21 -19,102 -11,118 18,38 76,57 106,91 31,34 67,83 83,126l0 0z"/>
  <path class="fil0 str0" d="M7271 10975l68 83 0 0c-7,44 -14,72 -21,111 -12,66 13,125 8,154 -3,17 -35,60 -33,111 2,55 17,76 17,141 0,67 -35,34 -28,132 7,92 -59,81 -110,145 -5,6 -14,15 -19,21 -10,12 -138,162 -99,174 24,8 -34,97 66,57 55,-22 113,-5 42,33 -30,16 -48,44 -35,76 4,9 17,36 14,43 -28,68 -37,21 -83,69 -11,12 -17,15 -28,30l0 0 -104 -5 -105 6 0 0c-9,-18 -32,-32 -40,-42 -10,-13 -56,-5 -72,-3 -33,5 -31,-34 -27,-58 14,-85 -34,-64 -85,-138 -5,-7 -50,-90 -51,-95 -14,-72 -80,-23 17,-119 -4,-21 -24,-26 -18,-38 15,-27 -9,-27 -9,-48 0,-64 4,-32 -22,-78 -13,-23 -42,4 -63,15 -72,39 -36,-26 -32,-48 8,-41 -103,-54 -118,-50 -49,12 -28,19 -79,6 -27,-7 -63,-70 -79,-95 -12,-19 -36,-37 -42,-47 -15,-29 -36,-26 -62,-21l0 0c0,-34 59,-120 94,-119 28,1 47,-20 36,-49 -42,-107 -116,-89 -134,-135 -24,-59 -107,-39 -143,-73l7 5 92 -96 96 -58 0 0c33,-3 101,-6 137,3 36,8 98,-6 128,-29 30,-24 46,-34 87,-31 2,0 43,28 61,34 77,29 61,65 161,-5 42,-29 35,-36 92,-50 28,-7 15,27 102,-4 33,-12 94,-31 109,14 14,42 63,29 98,28 89,-4 105,-19 189,17 11,5 10,25 23,25l0 0z"/>
  <path class="fil0 str0" d="M7271 10975c77,-11 92,-1 142,-68 51,-68 -2,-48 41,-100 13,-16 18,-30 40,-55 24,-27 59,-104 7,-119 -16,-5 -62,-38 -46,-64 64,-100 17,-83 15,-111 -1,-11 -6,-16 -5,-38 0,-13 -3,-38 -3,-60l0 0 -45 -13c-7,0 -14,-5 -22,-7 -76,-23 -72,-11 -112,-82 -23,-29 0,-66 -23,-89 -96,-96 -106,6 -147,-135l0 0 -60 -12c-26,-2 -119,-72 -139,-96 -24,-29 -67,-74 -98,-93 -78,-48 -134,-68 -226,-74 -37,-2 -108,6 -139,-1 -43,-9 -101,-4 -129,-44 -84,-119 -105,36 -146,94 -34,50 -5,95 -73,131 -99,52 -98,65 -217,45l0 0c-10,66 0,85 -33,141 -22,37 16,43 33,67 52,72 35,36 16,113 -17,70 42,66 93,113 41,38 89,80 57,141 -20,39 -45,18 -45,100 0,30 3,60 3,89l0 4c-2,141 3,82 75,170 1,2 4,8 5,10l-6 43 0 0c33,-3 101,-6 137,3 36,8 98,-6 128,-29 30,-24 46,-34 87,-31 2,0 43,28 61,34 77,29 61,65 161,-5 42,-29 35,-36 92,-50 28,-7 15,27 102,-4 33,-12 94,-31 109,14 14,42 63,29 98,28 89,-4 105,-19 189,17 11,5 10,25 23,25l0 0z"/>
  <path class="fil0 str0" d="M5401 8944c27,-37 76,-131 132,-131 25,0 22,75 80,100 87,36 100,30 189,28 41,-1 25,84 48,128 15,29 27,52 50,77 14,16 22,45 53,58 11,5 40,32 70,43 29,10 107,73 136,72 127,-2 69,58 125,101 20,15 94,-2 117,-24 55,-52 72,-190 114,-196 17,-2 43,85 68,112 22,23 117,112 148,112 41,0 45,2 84,-17l91 -30 0 0c2,-9 40,-99 46,-108 9,-13 -53,-35 -62,-39 -90,-36 -49,-67 -52,-139 -2,-37 101,-60 121,-64l0 0c0,-15 -1,-25 2,-40 19,-105 -13,-91 -60,-159 -13,-19 -64,-102 -72,-108 -38,-30 -136,-60 -184,-53 -32,4 -103,27 -111,-13 -12,-62 -86,-46 -124,-20 -75,50 -97,-131 -158,-142 -57,-11 -94,-30 -143,-68 -4,-3 -34,-22 -36,-24 -78,-68 -167,18 -237,-71 -37,-47 -44,-44 -88,-80 -52,-43 -60,-43 -132,-22l0 0c-16,17 -30,35 -32,60 -3,36 -40,72 -49,100 -7,22 -51,97 -65,112 -27,29 -39,40 -63,75 -66,98 -6,68 2,146 8,78 -34,66 -101,53l0 0c-28,94 -9,100 56,149 11,8 20,20 35,23l0 0z"/>
  <path class="fil0 str0" d="M6907 9378c117,49 78,-1 139,12 25,5 8,65 8,88 0,51 103,46 61,106 -53,76 13,101 0,187 -2,16 -95,34 -13,116 26,26 79,56 41,98 -8,9 -30,47 -31,48l0 0c41,141 52,40 147,135 23,23 0,61 23,89 40,71 36,59 112,82 8,2 15,8 22,7l45 13 0 0c64,-45 59,-40 119,-33 18,2 26,18 69,10 30,-5 86,-9 103,21 24,41 2,119 101,80 76,-30 82,-39 161,-14 40,12 90,-58 117,-86 13,-13 28,-25 42,-39l0 0c-13,-33 -26,-49 -35,-81 -9,-29 91,-51 60,-135 -8,-21 -1,-73 -19,-106 -12,-23 -31,-61 -22,-85 15,-41 5,-57 33,-93 1,-1 4,-7 5,-9l36 -74 0 0c-11,-2 -29,-7 -39,-8 -23,-1 -42,-45 -48,-63 -24,-72 -66,-59 -80,-93 -6,-15 -5,-59 -1,-73 8,-23 -3,-160 -7,-187 -31,-198 -175,78 -248,42 -43,-21 -46,-4 -64,-9 -43,-13 -89,6 -101,-62 -23,-127 -141,-38 -189,-50 -68,-17 -62,14 -108,-64l0 0c-12,-2 -22,-7 -33,-9 -68,-16 -133,-68 -188,-72 -93,-6 -74,-10 -164,-41l0 0c-20,5 -122,27 -121,64 3,72 -38,104 52,139 9,4 71,26 62,39 -6,9 -44,98 -46,108l0 0z"/>
  <path class="fil0 str0" d="M4868 9869c3,1 58,29 61,29 38,-1 82,-67 121,5 17,31 67,15 106,22 108,18 155,49 166,-100 4,-56 100,-85 143,-134 40,-44 62,-49 109,-84 48,-36 146,-18 135,40 -4,21 -19,102 -11,118 18,38 76,57 106,91 31,34 67,83 83,126l0 0c119,20 118,8 217,-45 68,-36 38,-81 73,-131 40,-58 62,-212 146,-94 28,40 85,35 129,44 31,6 101,-2 139,1 92,6 148,27 226,74 31,19 74,64 98,93 20,24 113,94 139,96l60 12 0 0c2,-2 23,-39 31,-48 38,-42 -15,-72 -41,-98 -82,-82 10,-100 13,-116 13,-86 -53,-111 0,-187 42,-60 -61,-56 -61,-106 0,-23 17,-83 -8,-88 -61,-13 -22,38 -139,-12l0 0 -91 30c-39,18 -43,17 -84,17 -31,0 -126,-89 -148,-112 -25,-27 -51,-114 -68,-112 -41,6 -58,144 -114,196 -24,22 -97,39 -117,24 -56,-43 2,-103 -125,-101 -29,1 -107,-62 -136,-72 -30,-11 -59,-38 -70,-43 -31,-13 -39,-43 -53,-58 -23,-25 -34,-48 -50,-77 -23,-43 -7,-129 -48,-128 -89,2 -102,8 -189,-28 -59,-24 -55,-100 -80,-100 -56,0 -105,94 -132,131l0 0 9 100 4 -11c-2,6 -5,17 -7,22 -47,103 11,142 -78,216 -21,18 -170,86 -202,98 -27,11 -129,31 -160,34 -47,4 -83,113 -159,118 -42,2 -56,6 -72,52 -25,73 -37,57 -69,104 -46,68 -35,78 -1,150l0 0c66,28 50,19 109,26 24,3 71,10 93,15l0 0z"/>
  <path class="fil0 str0" d="M9670 7400c56,-67 22,-45 34,-92 9,-32 -18,-32 -13,-77 3,-21 -44,-130 -57,-152 -31,-52 -19,-110 50,-55 56,45 151,-76 190,-88 19,-6 -23,-43 -29,-68 -7,-29 -25,-34 -31,-76 -9,-52 -46,-82 -52,-108l-2 -5c-36,-59 -34,-35 -72,-66 -29,-23 -122,24 -107,-84 2,-14 27,-44 33,-57l0 0c-26,-119 -114,-83 -143,-119 -35,-43 21,-97 -102,-108 -153,-14 -105,-85 -189,-109 -86,-24 -89,-23 -157,-95l0 0c-20,18 -43,55 -36,80 9,30 4,64 -5,93 -10,33 -25,44 -42,80 -35,20 -67,40 -106,53 -46,15 -88,33 -95,-24 -7,-59 -13,-43 -28,-83 -38,-107 -99,-21 -119,-61 -20,-39 47,-71 56,-82 12,-13 -91,-59 -147,6 -81,94 -72,39 -55,-43 10,-49 32,-52 11,-96 -20,-42 -95,-26 -116,-12 -35,24 -83,11 -128,47 -26,21 -58,19 -89,10l0 0c-15,36 -38,178 -38,216 0,75 8,36 20,92 16,70 -110,45 -106,133 3,73 12,25 -11,94 -19,56 -32,99 26,130 26,14 90,22 93,24 22,18 53,0 43,48 -13,61 -30,44 32,87 10,23 21,53 46,63 23,9 61,-35 63,-5 2,34 43,75 30,104 -34,80 29,79 6,117 -2,0 -14,16 -33,0 -38,-32 -71,20 -50,62 19,37 -7,50 -43,36 -38,25 -15,68 0,97 18,35 -5,105 -21,138 -14,29 3,38 13,56 27,47 41,35 20,99l0 0c47,57 37,34 15,87 -17,42 28,21 47,71 16,44 21,56 70,69 43,11 90,-60 102,-93 9,-26 32,-61 60,-33 29,30 14,2 35,49 24,54 112,40 83,126 -8,23 -24,107 26,83 65,-32 89,42 146,7 34,-21 -17,-47 14,-115 39,-87 8,-158 12,-245 0,-4 -21,-87 -23,-107 -5,-46 -19,-69 19,-97 51,-37 10,-113 82,-111 40,1 23,71 111,48 34,-9 146,-3 153,42 13,81 45,-42 128,50 35,38 99,68 124,1 13,-36 25,-84 62,-100l40 23c28,19 8,28 46,26 18,-1 95,-7 103,15l0 0z"/>
  <path class="fil0 str0" d="M8967 8851c17,-4 191,-54 194,-4 4,87 47,30 122,11 95,-23 111,44 180,81 38,20 64,79 86,115 6,9 15,30 22,36l0 0c89,-81 61,-35 146,-59 39,-11 56,-57 87,-74 34,-18 35,-7 75,-44 10,-9 153,-107 161,-109 51,-15 90,77 112,94 49,38 118,-16 146,-54 18,-25 -2,-85 63,-123 87,3 49,9 107,27 22,7 41,16 66,21 75,14 54,-36 173,11 31,12 44,44 75,-25 29,-64 95,-71 157,-69 73,2 72,-105 167,-141 76,-29 36,100 46,132 13,43 64,34 111,52 66,25 32,44 134,51 24,2 73,12 86,36 34,62 130,26 195,74 31,22 -65,90 -27,114 26,17 78,-29 112,28 2,4 12,18 14,21l53 38 0 0c11,-106 1,-80 -19,-165 -8,-33 -2,-74 21,-101 19,-21 9,-73 -8,-94 -15,-18 41,-44 0,-117 -21,-38 74,-119 -10,-179 0,0 -33,-35 -37,-39 -23,-23 -46,-80 -76,-111 -25,-26 -47,-37 -71,-63 -33,-35 -85,-55 -45,-106 29,-37 37,-183 -9,-220 -13,-10 -31,-25 -41,-37 -112,-67 -75,-29 -110,-137 -11,-34 -149,-17 -95,-110 19,-32 31,-74 -14,-88 -17,-5 -64,-49 -31,-75 43,-33 63,-93 5,-117 -43,-18 -56,-112 -16,-134l-8 -5c-73,-49 -13,-67 -69,-100 -51,-31 -117,43 -150,-26 -25,-52 -98,-3 -115,-72 -13,-54 13,-28 -30,-66 -36,-32 -97,51 -137,-8 -53,-77 -69,-25 -99,-80 -34,-62 -6,-66 -103,-80 -49,-17 -114,-31 -122,-90 -11,-83 -101,-22 -131,-86 -22,-47 -73,-41 -111,-80 -44,-46 -56,-28 -81,-45 -46,-32 -55,119 -56,136 -5,53 -9,62 -8,120 4,136 -51,27 -76,3 -49,-50 -51,-86 -115,-118 -44,-22 -47,-7 -81,-11 -53,-6 -154,-57 -167,-115l0 0c-6,13 -31,43 -33,57 -15,108 78,61 107,84 37,30 36,7 72,66l2 5c6,25 43,55 52,108 7,41 25,46 31,76 6,24 48,62 29,68 -39,12 -134,133 -190,88 -69,-55 -81,3 -50,55 13,21 59,131 57,152 -6,45 21,45 13,77 -13,46 22,25 -34,92l0 0c-29,49 -28,59 -70,91 -29,22 -15,98 -25,136 -10,38 -19,57 -22,98 -2,26 -8,101 -44,103 -46,3 -84,-4 -105,49 -8,21 76,163 -43,213 -7,3 -6,2 -12,7 -5,6 -72,94 -86,96 -37,4 -36,-7 -73,28 -40,38 -29,28 -58,73 -21,32 -35,50 -50,88 -10,27 -48,74 -83,67 -41,-8 -81,36 -53,68 19,22 25,49 8,73 -29,39 -34,99 -4,139 15,19 9,83 16,117l0 4 0 0z"/>
  <path class="fil0 str0" d="M7345 9149c45,78 40,47 108,64 47,12 166,-77 189,50 12,69 58,49 101,62 18,6 21,-12 64,9 73,36 217,-240 248,-42 4,27 15,164 7,187 -4,13 -5,58 1,73 14,34 56,20 80,93 6,18 25,62 48,63 10,1 28,6 39,8l0 0c18,-69 13,-36 -12,-68 -16,-20 -20,-18 4,-53 33,-49 26,-33 17,-83 -5,-28 -38,-68 -56,-90 -17,-21 10,-88 -20,-116 -20,-19 -25,-63 -17,-89 30,-97 58,-31 84,-123 6,-20 55,-156 67,-73 12,78 87,128 158,146 47,13 109,-25 135,-66 7,-12 60,-73 71,-81 32,-22 93,-14 141,-30 8,-2 57,-15 58,-15 0,0 94,-17 94,-17 14,-6 23,-25 23,-39l-9 -69 0 0 0 -4c-7,-35 -1,-98 -16,-117 -30,-40 -25,-99 4,-139 18,-24 12,-51 -8,-73 -27,-32 13,-76 53,-68 36,7 73,-41 83,-67 15,-38 29,-56 50,-88 29,-45 18,-35 58,-73 37,-35 36,-23 73,-28 14,-2 81,-90 86,-96 6,-5 5,-4 12,-7 119,-50 35,-192 43,-213 21,-53 59,-46 105,-49 35,-2 42,-77 44,-103 3,-41 12,-60 22,-98 10,-38 -4,-114 25,-136 42,-32 41,-42 70,-91l0 0c-8,-22 -85,-16 -103,-15 -37,2 -18,-7 -46,-26l-40 -23c-37,16 -49,64 -62,100 -25,67 -89,37 -124,-1 -83,-91 -115,31 -128,-50 -7,-45 -120,-51 -153,-42 -89,23 -71,-47 -111,-48 -72,-3 -30,73 -82,111 -38,27 -24,51 -19,97 2,21 23,104 23,107 -3,87 28,157 -12,245 -31,69 20,94 -14,115 -57,35 -81,-38 -146,-7 -50,25 -34,-60 -26,-83 29,-86 -58,-72 -83,-126 -21,-47 -6,-19 -35,-49 -28,-29 -50,7 -60,33 -12,34 -59,105 -102,93 -50,-13 -54,-25 -70,-69 -19,-50 -64,-29 -47,-71 22,-52 32,-30 -15,-87l0 0c-20,7 -44,23 -55,48 -32,75 -81,54 -86,131 -8,120 -56,74 -56,187 0,60 3,27 -10,79 -13,52 -140,8 -153,34 -40,76 -57,19 -96,69 -32,41 -17,34 -73,72l0 0 -33 32c-46,33 -47,131 -24,175 27,51 -67,71 -38,147 8,21 79,64 2,88 -85,26 -83,11 -173,57 -25,25 -59,66 -67,100 -14,57 27,89 -15,122 -69,54 -33,63 -6,129 15,36 20,33 14,76l0 0z"/>
  <path class="fil0 str0" d="M3965 9351c2,79 5,43 -10,93 -4,15 36,97 43,126 15,59 -25,89 -14,118 7,17 -3,9 15,37 48,75 -35,102 -30,213 1,17 -2,20 6,41 9,22 -2,28 20,61 33,49 41,10 101,10l73 4 0 0c1,0 8,8 8,8 19,37 25,44 -14,71 -52,36 -51,2 -91,41 -26,26 -31,78 -52,71 -37,-12 -3,-59 -33,-103 -45,-67 -85,-23 -96,33 -15,78 -61,42 -60,-7 1,-53 -54,-28 -61,39 -4,40 -41,53 -76,49 -51,-5 -82,-23 -137,-30l-185 25 0 0c-10,-24 -57,-29 -62,-35 -23,-31 48,-40 -29,-92 -23,-16 -5,-54 8,-68 34,-39 0,-57 -35,-40 -101,47 -112,-37 -170,-91 -16,-15 -111,-52 -137,-59 -81,-23 -66,-59 -61,-132 6,-79 -53,-74 -66,-93 -21,-30 22,-28 -52,-98 -16,-15 -40,-20 -61,-28 -42,-17 -34,-79 -17,-110 56,-103 -66,-42 -49,-90 14,-39 32,-50 46,-108 6,-25 -12,-109 -19,-136 -7,-26 5,-60 -41,-46 -72,21 -15,-69 -16,-85 -4,-32 -12,-23 -10,-71 3,-56 14,-44 -48,-79l0 0c3,-3 3,-7 5,-11 12,-31 60,-63 88,-64 67,-2 38,-71 102,-62 36,5 30,6 75,6 63,-25 10,-54 29,-84 35,-54 46,43 91,36 52,-7 49,-46 44,-85 -6,-42 28,-85 65,-103 8,-4 36,17 60,22l0 0 62 44c18,-8 68,-24 86,-37 10,-7 21,-8 43,-25 22,-16 95,-76 114,-76 49,0 39,42 73,53 55,19 80,37 122,79 31,31 26,63 76,99 54,38 -7,76 35,114 35,31 75,94 76,140 1,27 -41,57 -41,140 0,43 -32,115 17,132 29,10 70,56 73,87 36,71 28,48 25,112 -2,35 59,29 80,34 6,1 7,4 11,8l0 0z"/>
  <path class="fil0 str0" d="M5310 8772c-28,94 -9,100 56,149 11,8 20,20 35,23l13 89c-2,6 -5,17 -7,22 -47,103 11,142 -78,216 -21,18 -170,86 -202,98 -27,11 -129,31 -160,34 -47,4 -83,113 -159,118 -42,2 -56,6 -72,52 -25,73 -37,57 -69,104 -46,68 -35,78 -1,150l0 0c-18,3 -106,66 -131,64 -39,-2 -20,2 -50,20 -106,65 -94,-6 -120,-5 -85,4 17,84 -68,110 -56,17 -51,7 -127,37l0 0 -73 -4c-60,0 -69,39 -101,-10 -22,-33 -11,-39 -20,-61 -9,-21 -5,-24 -6,-41 -5,-111 78,-138 30,-213 -18,-28 -8,-19 -15,-37 -11,-29 28,-59 14,-118 -7,-29 -47,-111 -43,-126 15,-51 12,-15 10,-93l0 0c65,-35 78,-51 149,-63 51,-9 159,-106 111,-168 -38,-49 27,-125 28,-170 1,-24 20,-85 41,-103 29,-24 58,36 134,35 12,0 128,-1 131,0 61,17 52,58 75,116 16,40 65,164 123,116 42,-34 55,-40 95,-83l3 -3c30,-15 59,-29 91,-38 32,-9 100,-56 98,-97 -2,-27 41,-96 49,-138 15,-80 52,-70 114,-55 25,6 75,39 90,60 5,8 7,8 14,14l0 0z"/>
  <path class="fil0 str0" d="M5889 11122c36,35 120,14 143,73 18,46 92,28 134,135 11,29 -8,49 -36,49 -35,-1 -94,84 -94,119l0 0c-10,2 -21,3 -32,3 -69,0 15,-72 -39,-69 -62,3 -19,22 -92,-11 -46,-20 -44,-9 -88,22 -26,18 -49,82 -86,51 -30,-25 -66,-29 -93,5 -59,75 -86,11 -134,0 -67,-15 -39,-12 -89,-40 -39,-21 -43,-33 -94,-33 -37,0 -65,-31 -77,-63 -23,-62 -43,5 -93,-22 -18,-9 -44,-85 -52,-108 -18,-50 -77,-25 -109,-4 -55,36 -68,2 -94,21 -21,16 -24,147 -76,105 -31,-24 -56,-29 -87,-28l0 0c-18,-12 -4,-55 -10,-73 -26,-87 102,-65 113,-134 15,-96 -115,-25 -129,-61 -12,-31 -81,-4 -129,-36 -50,-33 -95,40 -96,79 -1,43 -38,53 -72,36 -39,-20 -52,26 -65,59 -18,49 -66,53 -65,-7 1,-68 -35,-72 -88,-41 -47,28 -56,-27 -109,-35 -28,-4 -96,82 -149,43 -73,-54 -89,-40 -170,-60 -50,-12 -58,-61 -96,-18 -42,48 -44,14 -59,31 -43,47 17,75 -94,107 -28,8 -68,46 -95,64 -22,15 -230,82 -253,82 -17,0 -52,-30 -63,-43 -24,-27 -34,102 -37,119 -6,31 48,95 -24,99 -30,2 -63,24 -64,-4 -1,-60 73,-74 -41,-74l-6 2c-34,14 25,-46 -40,-83 -52,-29 2,-91 31,-116 54,-46 86,-87 156,-103 26,-5 130,-54 152,-69 24,-16 142,-91 161,-99 80,-31 150,-68 232,-94 13,-4 42,-6 43,-7 30,-14 24,-46 6,-69 -18,-24 -92,31 -109,45 -28,23 -31,-18 -29,-36 8,-62 -35,-50 -72,-21 -68,54 -60,4 -132,-2 -134,-11 -62,-61 -94,-99 -32,-38 -55,-24 -91,-10 -46,18 -43,-55 16,-75 34,-12 97,-60 138,-81 56,-28 13,-98 63,-112 31,-9 28,31 108,-39 0,-1 2,-33 2,-35 7,-75 -89,-24 -70,-92 2,-7 1,-13 -1,-18l0 0 185 -25c55,7 86,25 137,30 35,4 72,-9 76,-49 7,-66 62,-91 61,-39 -1,48 45,85 60,7 11,-56 51,-100 96,-33 30,45 -4,92 33,103 21,7 26,-45 52,-71 39,-39 38,-6 91,-41 39,-27 33,-34 14,-71 0,0 -7,-8 -8,-8l0 0c76,-30 72,-20 127,-37 85,-26 -17,-107 68,-110 27,-1 14,70 120,5 30,-18 11,-22 50,-20 24,1 112,-62 131,-64l0 0c66,28 50,19 109,26 24,3 71,10 93,15l0 0c1,26 8,208 -48,203 -8,-1 -15,4 -33,-3 -41,-17 -91,2 -89,54 2,52 26,40 -13,96 -23,33 -17,76 -29,114 -14,43 60,78 36,159 -12,40 18,155 55,181 45,32 80,-11 107,-45 40,-49 17,-67 106,-71 61,-3 -73,132 -20,159 10,5 94,-38 162,-14 92,36 113,43 129,144 19,113 95,8 122,114 18,69 123,19 187,37 57,16 44,37 80,84 18,24 49,92 98,82 40,-8 95,-116 170,-43l0 0z"/>
  <path class="fil0 str0" d="M6456 7154c67,-47 60,-31 122,-53 65,-23 21,-74 73,-107 29,-18 90,-48 113,-69 40,-38 130,-77 157,-119 9,-14 67,-39 88,-63 87,-97 55,-86 93,-195 28,-81 65,-91 86,-150 25,-70 88,-85 146,-110 32,-29 63,-59 58,-104 -14,-115 18,-58 61,-114 16,-20 -25,-75 -25,-83 -1,-21 54,-85 80,-85l0 0c-10,-32 -18,-64 -18,-71 2,-49 -26,-64 -68,-91 -9,-3 -13,-4 -22,-6 -112,-14 -159,-54 -259,-86 -96,-31 -84,-107 -172,-76 -111,40 -48,-79 -85,-114 -36,-34 -58,-43 -31,-90 66,-118 -41,-75 -86,-102 -11,-6 -153,-70 -157,-69 -45,7 -20,87 -20,88 -11,55 -85,3 -109,-12 -36,-24 -29,6 -38,21l0 0c9,31 19,99 -6,122 -38,37 -29,30 -63,79 0,27 -24,106 -37,131 -33,66 -6,59 9,92 25,52 31,49 11,106 -26,71 77,135 76,169 -5,110 41,80 66,121 24,41 5,27 14,61 9,35 1,34 10,76 -21,19 16,72 -43,132 -107,107 -164,18 -200,15 -88,-7 -17,103 -18,126 -1,39 35,105 66,129 35,26 17,56 25,77 17,45 32,1 59,74 17,46 -14,67 -6,88 10,22 10,29 13,53 2,14 -36,95 -40,104l0 0 31 85 45 22 0 0z"/>
  <path class="fil0 str0" d="M7686 8225c56,-38 40,-32 73,-72 40,-50 57,7 96,-69 13,-25 140,18 153,-34 13,-52 10,-19 10,-79 0,-113 48,-67 56,-187 5,-77 54,-57 86,-131 11,-25 34,-41 55,-48l0 0c21,-64 7,-52 -20,-99 -10,-17 -27,-27 -13,-56 17,-33 39,-103 21,-138 -15,-29 -38,-72 0,-97 36,14 62,1 43,-36 -21,-41 12,-94 50,-62 19,16 32,0 33,0 23,-38 -41,-37 -6,-117 12,-29 -28,-71 -30,-104 -2,-29 -40,15 -63,5 -25,-10 -36,-40 -46,-63 -62,-43 -45,-26 -32,-87 10,-49 -20,-31 -43,-48 -2,-2 -67,-10 -93,-24 -58,-31 -45,-74 -26,-130 23,-69 14,-21 11,-94 -4,-87 122,-63 106,-133 -13,-55 -20,-17 -20,-92 0,-38 23,-180 38,-216l0 0c-17,-5 -34,-12 -49,-18 -77,-32 -89,-16 -160,5 -49,14 -53,-33 -53,-66 0,-36 -8,-23 -25,-36 -22,6 -37,22 -55,35 -75,52 -59,54 -135,33 -66,-18 -90,26 -116,0 -4,-4 -14,-34 -24,-64l0 0c-27,0 -81,64 -80,85 0,8 41,63 25,83 -43,56 -75,0 -61,114 6,45 -26,75 -58,104 -58,25 -122,40 -146,110 -21,59 -58,70 -86,150 -38,109 -7,98 -93,195 -21,23 -79,49 -88,63 -27,42 -116,81 -157,119 -23,22 -84,51 -113,69 -53,33 -9,83 -73,107 -62,23 -55,6 -122,53l0 0c5,3 57,30 63,43 14,35 14,18 61,30 74,19 61,38 80,104 12,41 3,31 28,72 12,19 31,75 22,99 -32,91 50,44 47,144 -1,47 51,91 99,91 40,0 78,-12 105,-10 40,3 87,26 120,48 37,24 98,-4 159,9 55,12 20,44 124,15 47,-13 131,2 173,29 31,20 45,35 73,55l4 3c42,73 29,32 61,73 30,38 -25,121 -14,147 21,52 -13,69 16,110 0,1 7,7 8,8l0 0z"/>
  <path class="fil0 str0" d="M5537 8100c40,-48 45,-50 0,-83 -39,-29 28,-38 22,-94 -8,-69 34,-70 21,-130 -4,-18 51,-50 70,-76 22,-31 18,-66 27,-107 9,-42 14,-52 27,-92 26,-82 22,-74 80,-143 29,-34 66,-54 80,-71 47,-10 142,-20 146,-84 2,-39 71,-78 102,-96 19,-12 29,-13 48,-22l70 -52 0 0c-9,-12 -23,-55 -28,-59 -72,-56 -86,-8 -103,-121 -23,-40 -46,-83 -90,-97 -50,-16 -25,-90 -25,-129 0,-25 17,-84 -15,-87 -34,-2 -99,3 -131,16 -107,43 -84,-86 -99,-125 -24,-62 -6,-105 15,-165 14,-39 -30,-134 -43,-169l0 0c-14,4 -27,0 -45,4 -42,10 -124,45 -155,47 -20,1 -25,-2 -44,-2 -112,0 -92,32 -157,50 -51,14 -131,-54 -135,-3 -3,36 3,39 -5,84 0,11 -1,88 -1,89 4,21 2,34 3,51 2,47 -43,109 -27,136 35,60 20,71 24,137 4,53 43,83 22,136 -22,56 -2,72 -20,109 -14,29 2,50 -13,61 -56,43 -60,20 -112,36 -35,11 -94,63 -112,56 -32,-12 -14,-9 -68,-20l-1 -5 1 5c7,36 -16,85 2,141 25,74 -24,72 -24,119 0,18 50,61 60,66 55,25 24,139 84,159 34,11 17,3 48,22 26,15 70,140 84,174 28,69 101,64 133,103 35,43 33,57 45,116l0 0c72,27 43,13 74,52 25,31 31,141 125,86 4,-2 42,-23 43,-23l0 0z"/>
  <path class="fil0 str0" d="M5617 8227l-80 -126 0 0c40,-48 45,-50 0,-83 -39,-29 28,-38 22,-94 -8,-69 34,-70 21,-130 -4,-18 51,-50 70,-76 22,-31 18,-66 27,-107 9,-42 14,-52 27,-92 26,-82 22,-74 80,-143 29,-34 66,-54 80,-71 47,-10 142,-20 146,-84 2,-39 71,-78 102,-96 19,-12 29,-13 48,-22l70 -52 0 0 152 -3 0 0 31 85 45 22 0 0c5,3 57,30 63,43 14,35 14,18 61,30 74,19 61,38 80,104 12,41 3,31 28,72 12,19 31,75 22,99 -32,91 50,44 47,144 -1,47 51,91 99,91 40,0 78,-12 105,-10 40,3 87,26 120,48 37,24 98,-4 159,9 55,12 20,44 124,15 47,-13 131,2 173,29 31,20 45,35 73,55l4 3c42,73 29,32 61,73 30,38 -25,121 -14,147 21,52 -13,69 16,110 0,1 7,7 8,8l0 0 -33 32c-46,33 -47,131 -24,175 27,51 -67,71 -38,147 8,21 79,64 2,88 -85,26 -83,11 -173,57 -25,25 -59,66 -67,100 -14,57 27,89 -15,122 -69,54 -33,63 -6,129 15,36 20,33 14,76l0 0c-12,-2 -22,-7 -33,-9 -68,-16 -133,-68 -188,-72 -93,-6 -74,-10 -164,-41l0 0c0,-15 -1,-25 2,-40 19,-105 -13,-91 -60,-159 -13,-19 -64,-102 -72,-108 -38,-30 -136,-60 -184,-53 -32,4 -103,27 -111,-13 -12,-62 -86,-46 -124,-20 -75,50 -97,-131 -158,-142 -57,-11 -94,-30 -143,-68 -4,-3 -34,-22 -36,-24 -78,-68 -167,18 -237,-71 -37,-47 -44,-44 -88,-80 -52,-43 -60,-43 -132,-22l0 0z"/>
  <path class="fil0 str0" d="M5617 8227l-80 -126 0 0c0,0 -39,21 -43,23 -94,55 -100,-55 -125,-86 -31,-39 -2,-25 -74,-52l0 0c-41,23 -89,65 -141,51 -33,-9 -27,-54 -48,-45 -41,17 -25,-46 -36,-63 -29,-41 -97,-17 -132,3 -48,28 -124,46 -182,76 -10,1 -74,21 -87,26 -40,16 -53,12 -82,20 -34,10 -55,-10 -87,6 -24,12 -36,9 -58,10 -20,1 -56,-53 -75,-71 -21,-21 -75,-28 -98,-21 -46,14 -64,43 -125,62 -32,10 -132,2 -147,-34 -27,-64 -75,-64 -132,-88 -64,-27 -50,-82 -99,-63 -41,16 -69,50 -105,40 -47,-13 -22,-31 -90,17l0 0 -20 40 -2 3c-28,41 -37,92 -94,67 -14,-6 -49,-115 -93,-53 -32,46 -54,-2 -96,-2 -26,0 -106,65 -122,78l-124 10 0 0c37,27 -85,124 13,104 61,-12 23,46 37,65 26,36 35,18 51,79 3,12 -51,14 -43,45 6,22 77,-13 68,70 -3,25 -17,30 -33,26l0 0 62 44c18,-8 68,-24 86,-37 10,-7 21,-8 43,-25 22,-16 95,-76 114,-76 49,0 39,42 73,53 55,19 80,37 122,79 31,31 26,63 76,99 54,38 -7,76 35,114 35,31 75,94 76,140 1,27 -41,57 -41,140 0,43 -32,115 17,132 29,10 70,56 73,87 36,71 28,48 25,112 -2,35 59,29 80,34 6,1 7,4 11,8l0 0c65,-35 78,-51 149,-63 51,-9 159,-106 111,-168 -38,-49 27,-125 28,-170 1,-24 20,-85 41,-103 29,-24 58,36 134,35 12,0 128,-1 131,0 61,17 52,58 75,116 16,40 65,164 123,116 42,-34 55,-40 95,-83l3 -3c30,-15 59,-29 91,-38 32,-9 100,-56 98,-97 -2,-27 41,-96 49,-138 15,-80 52,-70 114,-55 25,6 75,39 90,60 5,8 7,8 14,14l0 0c67,12 109,24 101,-53 -8,-79 -68,-48 -2,-146 23,-35 36,-46 63,-75 15,-15 58,-90 65,-112 9,-27 46,-64 49,-100 2,-24 16,-42 32,-60l0 0z"/>
  <path class="fil0 str0" d="M4438 5946c12,10 87,65 80,90 -38,131 31,129 38,216 5,62 5,66 37,122 20,36 89,117 86,155l2 88 0 0c-15,-6 -56,-3 -78,-14 -39,-19 -88,-30 -122,-45 -13,-6 -151,-66 -152,-66 -37,-8 -70,-37 -100,-47 -85,-31 -85,-79 -176,-8 -48,38 -74,180 -140,131 -71,-53 -169,74 -212,122 -38,42 -85,45 -99,60 -37,43 -57,44 -115,44l0 0c-6,-6 -28,-33 -34,-37 -30,-19 -54,-43 -79,-68 -29,-29 -79,-42 -75,-76 5,-37 -14,-40 -46,-30 -57,17 -25,38 -87,-1l0 0c9,-13 25,-69 16,-88 -12,-24 -4,-68 26,-70 35,-3 46,-29 74,-56 23,-22 55,-32 87,-32 76,0 54,42 103,-25l0 0c93,-4 115,-20 178,-78 22,-20 132,-83 157,-77 121,29 65,-4 74,-52 9,-50 38,-176 104,-92 38,48 75,27 116,-2 46,-33 108,-41 163,-53 10,-2 35,-1 47,-1l123 -9 0 0z"/>
  <path class="fil0 str0" d="M2629 6605c-2,50 -105,23 -55,118 20,167 92,147 112,192l0 0c52,68 37,21 62,51 21,26 2,60 45,67 59,10 4,38 75,58 73,21 102,69 136,131 0,0 12,36 16,45 38,81 -37,62 -48,120 -3,14 19,13 40,25 24,14 55,36 35,65 -14,19 -44,115 -10,122 31,7 118,-13 66,46 -29,32 34,50 10,67 -13,10 -47,-32 -76,36 -12,29 6,45 36,19 36,-30 76,-40 102,5 17,29 -15,32 -46,62 -7,7 -11,11 -19,14 -25,0 -64,1 -69,36 -3,18 54,40 10,57 -43,17 -83,70 -29,110l0 0 124 -10c16,-13 96,-78 122,-78 43,0 64,48 96,2 44,-62 79,47 93,53 57,25 66,-26 94,-67l2 -3 20 -40 0 0 -43 -177c0,-25 12,-49 -1,-73 -13,-25 -38,-106 -30,-129 35,-103 73,-35 21,-179 0,-40 -25,-61 -56,-82 -36,-24 -67,-50 -27,-93 37,-39 11,-60 -33,-50 -92,21 16,-70 -41,-106 -40,-26 39,-89 61,-106 46,-37 47,-65 64,-126l0 0c-6,-6 -28,-33 -34,-37 -30,-19 -54,-43 -79,-68 -29,-29 -79,-42 -75,-76 5,-37 -14,-40 -46,-30 -57,17 -25,38 -87,-1l0 0 -93 2c-5,0 -19,4 -27,1 -75,-21 -142,44 -197,24 -45,-17 -31,-17 -95,-7l-128 4 0 0z"/>
  <path class="fil0 str0" d="M4862 7082c-73,-63 -40,-75 -74,-109 -21,-21 37,-63 -53,-86 -43,-11 -47,-28 -51,-65 -6,-59 -25,-68 -25,-145l21 -61 0 0c-15,-6 -56,-3 -78,-14 -39,-19 -88,-30 -122,-45 -13,-6 -151,-66 -152,-66 -37,-8 -70,-37 -100,-47 -85,-31 -85,-79 -176,-8 -48,38 -74,180 -140,131 -71,-53 -169,74 -212,122 -38,42 -85,45 -99,60 -37,43 -57,44 -115,44l0 0c-18,61 -19,88 -64,126 -22,18 -101,81 -61,106 57,36 -51,127 41,106 44,-10 70,11 33,50 -40,42 -9,68 27,93 31,21 56,42 56,82 52,144 14,76 -21,179 -8,23 17,104 30,129 13,24 1,47 1,73l43 177 0 0c68,-48 42,-29 90,-17 36,10 64,-24 105,-40 49,-19 35,36 99,63 56,23 105,24 132,88 15,36 115,44 147,34 61,-19 79,-48 125,-62 23,-7 77,0 98,21 18,18 55,72 75,71 22,-1 34,2 58,-10 32,-16 52,4 87,-6 29,-8 42,-5 82,-20 13,-5 77,-26 87,-26 57,-29 134,-48 182,-76 36,-20 103,-45 132,-3 12,17 -5,80 36,63 21,-9 14,37 48,45 52,14 100,-27 141,-51l0 0c-11,-58 -10,-73 -45,-116 -32,-39 -104,-34 -133,-103 -14,-34 -58,-159 -84,-174 -31,-18 -14,-10 -48,-22 -60,-20 -29,-134 -84,-159 -10,-4 -60,-48 -60,-66 0,-47 48,-45 24,-119 -18,-55 5,-105 -2,-141l-1 -5 0 0z"/>
  <path class="fil0 str0" d="M5434 5460c71,-42 95,-20 156,-51 61,-30 97,-53 99,-125 1,-31 -31,-37 5,-52 20,-8 47,-31 36,-56 -14,-33 7,-46 32,-65 57,-44 -17,-78 50,-137 19,-17 74,-30 103,-45 7,-4 89,-33 96,-34l0 0c-19,-24 -45,-41 -79,-57 -89,-41 59,-76 80,-86 24,-11 56,7 80,-5 40,-20 6,-77 39,-62 45,22 40,42 85,16 50,-28 112,-121 135,-175 18,-41 51,-50 -2,-58 -33,-5 -74,-6 -106,-23 -54,-29 -37,-28 -99,-32 -77,-5 -75,-45 -103,-63 -60,-41 -56,-48 -145,-56 -130,-40 -91,-69 -177,-109 -68,-32 -74,-53 -125,-94 -39,-31 -125,-139 -150,-184 -24,-42 -31,-160 -38,-215 -5,-43 -96,-45 -128,-52 -21,-5 -56,-32 -66,-47 -11,-17 -74,-31 -94,-32 -102,-4 -106,-59 -140,-59 -27,0 -58,38 -78,60 -24,26 -54,41 -73,60 -17,16 -66,40 -89,34 -30,-8 -48,-4 -84,-3 -4,55 -13,75 -55,133 -65,91 -80,86 -167,148 -29,4 -168,54 -184,77 -17,23 -25,35 -32,42l0 0 31 68c-50,36 -100,53 -76,119 5,14 37,55 26,79 -14,33 47,92 51,134 2,30 27,25 6,92 -19,63 13,98 51,142 15,18 32,39 44,60 11,20 60,62 67,87 1,5 5,14 8,18l50 103 0 0c-8,19 -44,101 -34,124 17,43 30,77 -6,111 -16,15 -45,60 -22,80 16,14 19,71 -10,86 -8,4 -26,35 -28,44l0 0c36,10 128,25 150,57 49,70 10,35 107,51 94,15 112,36 218,36 48,0 49,4 93,14 41,10 145,-1 179,-24 19,-13 89,-48 114,-48 49,0 58,46 133,-6 7,-5 56,-24 64,-24l0 0z"/>
  <path class="fil0 str0" d="M6445 5293c-5,9 -16,13 -45,-2 -41,-22 -48,19 -66,-9 -28,-44 3,-66 -60,-157 -12,-19 -31,-45 -40,-66 -38,-93 -168,-37 -197,-114 -7,-19 -16,-35 -27,-49l0 0c-7,1 -89,30 -96,34 -29,15 -83,27 -103,45 -67,59 7,94 -50,137 -24,19 -45,32 -32,65 10,25 -17,47 -36,56 -36,15 -4,22 -5,52 -2,71 -38,94 -99,125 -61,30 -85,9 -156,51l0 0c29,38 56,73 44,121 -19,73 -53,99 16,173 28,30 186,26 158,114 -15,47 42,86 68,117 7,8 3,62 6,83l-17 46 0 0c14,35 57,130 43,169 -21,59 -39,103 -15,165 15,40 -7,168 99,125 32,-13 98,-19 131,-16 31,2 15,62 15,87 0,39 -25,113 25,129 45,14 68,57 90,97 17,113 31,65 103,121 6,4 19,47 28,59l0 0 152 -3 0 0c4,-9 42,-90 40,-104 -3,-24 -3,-30 -13,-53 -9,-20 23,-42 6,-88 -27,-73 -41,-29 -59,-74 -8,-20 10,-50 -25,-77 -32,-24 -68,-89 -66,-129 1,-23 -70,-133 18,-126 36,3 93,91 200,-15 60,-60 22,-113 43,-132 -9,-42 -1,-41 -10,-76 -9,-34 11,-20 -14,-61 -24,-41 -70,-11 -66,-121 1,-34 -101,-98 -76,-169 20,-57 14,-54 -11,-106 -15,-32 -43,-25 -9,-92 13,-25 37,-104 37,-131 34,-50 25,-43 63,-79 24,-23 14,-91 6,-122l0 0z"/>
  <path class="fil0 str0" d="M4374 5404c-76,56 -47,46 -21,102 21,48 -6,114 31,180 35,63 -3,64 10,104 3,10 41,27 41,43 7,1 -10,52 -4,72 1,4 6,35 7,41l0 0c12,10 87,65 80,90 -38,131 31,129 38,216 5,62 5,66 37,122 20,36 89,117 86,155l2 88 0 0 -21 61c0,77 19,86 25,145 4,36 8,54 51,65 89,23 32,65 53,86 34,34 2,46 74,109l1 5c54,10 36,7 68,20 19,7 77,-45 112,-56 52,-16 56,6 112,-36 14,-11 -2,-32 13,-61 18,-37 -2,-53 20,-109 21,-53 -18,-82 -22,-136 -4,-66 11,-77 -24,-137 -16,-27 29,-88 27,-136 -1,-18 1,-30 -3,-51 0,-1 1,-79 1,-89 8,-45 2,-48 5,-84 4,-51 84,18 135,3 65,-18 45,-50 157,-50 18,0 23,3 44,2 31,-2 113,-38 155,-47 18,-4 31,0 45,-4l0 0 17 -46c-3,-21 1,-75 -6,-83 -26,-31 -83,-70 -68,-117 29,-88 -130,-84 -158,-114 -69,-74 -35,-100 -16,-173 13,-48 -14,-83 -44,-121l0 0c-9,0 -58,19 -64,24 -75,52 -83,6 -133,6 -25,0 -95,35 -114,48 -35,23 -139,35 -179,24 -44,-11 -45,-14 -93,-14 -106,0 -125,-21 -218,-36 -98,-16 -58,18 -107,-51 -22,-31 -115,-46 -150,-57l0 0z"/>
  <path class="fil0 str0" d="M2373 6098l100 -31c76,14 70,7 95,66 9,21 70,16 98,30 14,7 35,11 58,24 51,28 77,4 105,-36 5,-7 3,-79 9,-101 25,-100 -18,-68 53,-192l2 -3 48 -46 0 0c1,-2 3,-8 4,-9 22,-79 33,-48 12,-131 -14,-55 -63,-167 -50,-220 19,-75 -52,-53 14,-163 10,-17 31,-32 34,-37 15,-29 20,-51 35,-76 19,-33 25,-32 62,-54l0 0c-10,-10 -77,-45 -93,-58 -23,-19 -37,-34 -70,-40 -79,-15 -82,-89 -163,-44 -23,13 -179,-60 -205,-70l0 0 -38 3c-30,0 -58,-8 -74,-35 -16,-27 -38,-14 -80,-10l-93 -34 0 0c-4,7 -9,13 -16,19 -25,21 -23,49 -4,73 17,21 6,69 -20,86 -35,23 17,38 7,97 -10,56 18,83 1,123 -25,61 42,43 2,92 -14,17 -25,72 12,85 72,26 34,51 44,117 4,29 68,12 71,107 2,45 7,24 0,76 -3,23 -13,61 12,73 25,12 39,32 58,46 45,125 -19,34 -66,81 -15,14 -15,36 8,48 13,7 24,24 29,38l0 0c19,74 38,66 0,106l0 0z"/>
  <path class="fil0 str0" d="M2941 5809c26,65 30,71 103,71 143,0 89,27 203,54 20,5 67,7 95,12 24,4 69,12 89,24 37,14 51,23 71,55 10,17 9,48 12,71 10,81 11,30 -21,96 -26,54 -17,22 -16,93 0,6 -2,18 -3,25l0 0c93,-4 115,-20 178,-78 22,-20 132,-83 157,-77 121,29 65,-4 74,-52 9,-50 38,-176 104,-92 38,48 75,27 116,-2 46,-33 108,-41 163,-53 10,-2 35,-1 47,-1l123 -9 0 0c-1,-6 -6,-37 -7,-41 -6,-20 10,-70 4,-72 0,-16 -38,-33 -41,-43 -13,-40 26,-41 -10,-104 -37,-66 -10,-133 -31,-180 -25,-56 -54,-46 21,-102l0 0c2,-9 20,-40 28,-44 29,-15 26,-72 10,-86 -23,-20 6,-65 22,-80 36,-34 23,-68 6,-111 -9,-24 27,-106 34,-124l0 0c-1,0 -90,17 -99,19 -64,17 -114,-24 -190,3 -72,25 -78,-3 -126,17 -38,16 -101,51 -134,60 -54,14 -40,-56 -86,27 -3,2 -29,10 -36,13 -47,19 -102,61 -128,2 -17,-39 -47,-40 -62,-52 -15,-12 -28,-15 -28,-15 -15,-11 -77,-10 -98,-10 -31,0 -62,-80 -111,-35 -68,64 -53,-6 -77,-40 -33,-45 -131,79 -161,106 -36,33 -39,32 -86,65l0 0c-37,22 -43,21 -62,54 -15,25 -19,47 -35,76 -3,5 -24,21 -34,37 -66,110 4,88 -14,163 -13,52 36,165 50,220 21,83 11,53 -12,131 0,2 -3,7 -4,9l0 0z"/>
  <path class="fil0 str0" d="M2629 6605l128 -4c64,-10 50,-10 95,7 55,20 122,-46 197,-24 8,2 22,-2 27,-1l93 -2 0 0c9,-13 25,-69 16,-88 -12,-24 -4,-68 26,-70 35,-3 46,-29 74,-56 23,-22 55,-32 87,-32 76,0 54,42 103,-25l0 0c1,-7 3,-19 3,-25 -2,-71 -10,-39 16,-93 32,-66 31,-15 21,-96 -3,-23 -2,-54 -12,-71 -20,-32 -34,-40 -71,-55 -21,-13 -65,-20 -89,-24 -29,-5 -75,-8 -95,-12 -114,-27 -61,-54 -203,-54 -73,0 -77,-6 -103,-71l0 0 -48 46 -2 3c-71,124 -27,92 -53,192 -6,23 -4,94 -9,101 -28,41 -54,65 -105,36 -23,-13 -44,-17 -58,-24 -28,-14 -89,-10 -98,-30 -25,-59 -19,-52 -95,-66l-100 31 0 0c-16,16 -27,49 -8,68 42,42 20,-13 29,57 5,40 44,31 82,73l4 4c41,82 48,27 92,60 15,11 16,59 10,80 -41,134 52,78 49,166l0 0z"/>
  <path class="fil0 str0" d="M7185 15184l54 -111c14,-12 76,-54 66,-79 -35,-85 70,-67 73,-139 1,-16 -13,-36 10,-56l34 -80 0 0c27,-1 57,-6 81,12 48,36 163,31 223,51 101,34 112,-10 179,8 98,27 149,-42 180,-124 9,-24 33,-46 55,-54 70,-26 13,-68 139,-61 104,6 83,-111 183,-82 38,11 37,51 84,70 63,26 105,-25 143,-61 72,-68 76,-40 135,20 8,8 29,24 41,24 42,1 139,-2 154,55 22,79 78,7 152,50 57,33 -17,114 96,94 6,-1 19,0 26,0l27 7 2 -3c69,38 50,23 30,69 -5,12 -11,11 -10,31 1,14 -32,42 -56,41 -13,0 -68,5 -77,13 -23,23 -68,62 -54,96 14,34 -36,138 -54,168l0 0c-35,-15 -74,-4 -102,28 -34,39 -165,-9 -129,110 6,21 -12,88 -63,69 -45,-16 -56,36 -79,46 -97,46 -92,29 -186,49 -40,8 -69,35 -39,73 36,45 55,112 10,156 -33,32 58,110 -12,136 -24,9 -74,-36 -109,-48 -49,-17 -63,-63 -80,-56 -157,-10 -79,-8 -212,27 -54,14 -29,-5 -87,-10 -48,-5 -34,-43 -87,-40 -77,5 -52,-78 -111,-57 -37,13 -38,59 -63,92 -16,21 -21,91 -81,109 -84,26 -10,-119 -68,-88 -10,5 -20,18 -42,28 -61,29 -58,15 -106,-22 -65,-50 26,-91 30,-164 1,-21 73,-40 53,-86 -28,-65 46,-49 65,-115 3,-10 2,-64 -25,-35 -33,36 -58,64 -96,15 -23,-31 30,-50 -89,-39 -12,1 -13,-2 -23,-1 -64,-57 -15,-47 -35,-93 -3,-8 -18,3 -39,-13 -27,-21 -80,-62 -111,-32l0 0z"/>
  <path class="fil0 str0" d="M9635 13731c6,65 1,65 -34,103 -19,21 -41,18 -67,62 -28,48 -104,33 -126,91 -9,22 64,49 83,61 59,37 49,7 73,87 11,37 78,70 20,92 -29,11 -51,50 -43,80 14,51 41,35 -14,91 -19,20 -41,60 -50,86 -22,71 -30,48 -94,70 -37,13 -69,64 -41,99 9,11 -15,59 -21,71l-2 3 2 -3c69,38 50,23 30,69 -5,12 -11,11 -10,31 1,14 -32,42 -56,41 -13,0 -68,5 -77,13 -23,23 -68,62 -54,96 14,34 -36,138 -54,168l0 0c7,3 14,7 21,13 22,18 66,0 76,-14 32,-43 108,-32 108,-103 0,-43 35,-57 61,-43 63,35 51,21 87,-12 40,-36 55,-2 74,30l2 3c52,64 28,58 49,93 20,32 -53,84 16,108 22,8 -7,44 -2,86 3,27 43,42 67,45 55,8 -3,109 109,80 45,-12 14,7 22,49 19,95 81,66 -25,159 -33,29 -114,49 -102,70 28,48 91,-1 26,86 -39,52 -11,62 -29,87 -28,39 -76,52 -122,45 -46,-7 -35,59 -29,76 13,11 28,11 41,20 62,43 79,-12 155,-10 58,1 -15,-139 59,-109 29,12 90,-11 111,-34 22,-24 43,29 45,44 11,79 10,24 -9,94 -13,45 67,56 82,52 18,-5 69,-77 78,-94 30,-59 -169,-25 -107,-103 77,-99 147,52 189,-12 18,-27 21,31 60,4 53,-36 -9,-125 26,-135 41,-11 49,103 60,112 36,31 88,-24 115,25 46,84 50,30 92,16l0 0c-9,-11 -72,-158 -62,-176 40,-72 47,-51 24,-144 0,-13 1,-27 -1,-39 -4,-28 -10,-68 -15,-94 -14,-72 37,-106 101,-124 50,-14 88,-62 129,-86 51,-30 65,-63 101,-92 28,-23 55,-47 77,-75 26,-33 29,-43 61,-76 31,-33 87,-43 103,-70 22,-38 28,-33 43,-55 23,-33 140,-3 140,-97 0,-53 -32,-26 17,-93l0 0c-21,-11 -31,-51 -38,-68 -31,-70 60,-92 52,-121 -17,-64 -98,-38 -139,-14 -129,74 -48,-119 -64,-166 -21,-61 -107,-9 -136,-2 -124,30 -85,-40 -92,-56 -33,-81 -61,-31 -100,15 -69,35 -102,53 -181,53 -39,0 -104,-18 -138,-40 -68,-44 -119,-11 -194,-70 -52,-40 31,-181 -140,-147 -42,9 -145,-21 -145,-67 1,-54 102,-76 146,-76 80,0 95,-81 55,-109 -46,-33 -142,-74 -199,-73 -26,1 -60,-7 -80,-7 -110,0 -76,-6 -194,24l0 0z"/>
  <path class="fil0 str0" d="M8759 13095c0,3 6,156 6,158 14,53 110,30 155,32 48,2 187,-42 150,72 -8,24 -12,39 -21,65 -34,93 34,57 96,114 1,1 97,68 101,70 34,19 69,79 109,69 5,-1 40,0 48,0l0 0c63,-21 83,-26 111,27 16,29 -8,47 45,61 8,2 62,-28 75,-33l0 0c6,65 1,65 -34,103 -19,21 -41,18 -67,62 -28,48 -104,33 -126,91 -9,22 64,49 83,61 59,37 49,7 73,87 11,37 78,70 20,92 -29,11 -51,50 -43,80 14,51 41,35 -14,91 -19,20 -41,60 -50,86 -22,71 -30,48 -94,70 -37,13 -69,64 -41,99 9,11 -15,59 -21,71l-2 3 0 0 -27 -7c-7,0 -20,-1 -26,0 -114,20 -39,-61 -96,-94 -74,-43 -130,29 -152,-50 -16,-57 -112,-54 -154,-55 -11,0 -33,-16 -41,-24 -59,-60 -63,-88 -135,-20 -38,36 -79,87 -143,61 -47,-19 -46,-59 -84,-70 -100,-30 -79,88 -183,82 -126,-7 -69,35 -139,61 -22,8 -46,31 -55,54 -31,81 -81,150 -180,124 -66,-18 -78,26 -179,-8 -61,-20 -175,-15 -223,-51 -24,-18 -54,-13 -81,-12l0 0c0,-3 1,-3 2,-7 20,-78 35,-51 12,-136 -9,-15 -11,-19 -18,-35 -34,-73 -65,-52 -41,-129 18,-58 78,-66 38,-119 -60,-78 34,-125 21,-156 -23,-56 -63,-12 7,-116l0 0c25,-55 21,-44 63,-31 62,19 90,50 103,-41 13,-89 64,-101 128,-47 52,44 125,-32 115,-39 -18,-13 -112,-59 -78,-87 13,-11 80,13 93,8 85,-28 57,-117 127,-101 38,9 42,52 100,17 73,-43 69,33 138,10 78,-26 51,79 111,96 64,18 53,-118 116,-72 9,7 57,81 85,13 21,-50 -48,-70 -36,-132 9,-47 84,-16 125,-31 42,-15 163,-121 60,-137 -30,-5 -89,-23 -41,-57 18,-12 77,-50 41,-75 -15,-10 -10,-43 -23,-68l0 0c1,-29 -1,-126 18,-150 10,-13 7,-20 26,-25l46 21 0 0z"/>
  <path class="fil0 str0" d="M14703 16912l57 -95c-22,-87 9,-51 7,-131 -1,-42 19,-153 61,-169 112,-45 89,60 171,82 76,20 165,-128 225,-104 39,16 78,-71 154,-56 53,11 39,8 87,33 56,28 93,7 147,-8 57,-15 75,9 107,-65 11,-25 40,-65 71,-65 70,3 43,3 59,41 9,21 -4,28 21,49 14,12 -25,72 -9,106 3,7 89,5 101,5l46 3 0 0c21,32 60,101 99,112 94,27 103,102 190,82 54,-13 74,-11 128,1 29,6 80,-20 90,-57 7,-24 28,-55 54,-55 40,0 116,-19 177,-29l0 0c8,9 19,18 34,28 84,54 38,37 82,96 23,31 78,-25 95,89 12,79 60,45 37,127 -16,57 90,40 51,130 -18,42 -13,52 -13,94l-63 104 0 0c-61,18 -82,24 -141,35 -46,9 -40,-7 -76,37 -33,40 -6,77 -6,124 0,147 82,78 115,177 15,44 -10,77 -53,90 -28,8 -21,10 -58,16 -42,7 -68,63 -30,101 56,54 17,66 3,135 -14,70 -29,128 -56,194 -19,47 27,66 -49,118 -18,12 -31,32 -43,46l0 0c-4,5 -8,9 -12,11 -67,54 -64,80 -89,151 -46,127 -81,14 -110,104 -9,27 -23,30 -29,75 -6,43 -79,132 -117,155 -58,34 -53,49 -129,71 -56,16 -86,21 -141,8 -22,-5 -117,7 -154,7 -56,0 -111,-4 -147,-51 -34,-44 -125,-91 -173,-121 -48,-30 -46,-32 -102,-44 -7,-2 -10,-5 -13,-6l0 0c4,-45 15,-119 -49,-117 -29,1 -75,-15 -61,-55 20,-58 87,-145 -24,-116 -84,21 -78,-36 -114,-70 -7,-7 -49,-75 -28,-71 45,9 124,-25 124,-71 0,-27 -16,-52 -9,-86 3,-13 -10,-15 14,-46 36,-47 42,-88 42,-146 12,-94 -2,-107 0,-187 3,-89 30,-65 -44,-60 -31,2 -75,-35 -50,-75 38,-62 46,-85 35,-157 -5,-37 -12,-15 0,-62 21,-76 -79,-159 26,-197 32,-11 86,-4 114,-55 20,-37 -86,-11 -68,-138 -55,-49 -42,-11 -104,-5 -92,8 -25,-98 -121,-134 -44,-16 -111,38 -157,51 -53,16 -156,78 -184,14l0 0z"/>
  <path class="fil0 str0" d="M15040 15388c35,-3 77,-12 111,-1 42,13 133,-47 144,17 11,62 111,-47 111,29 0,44 -87,68 -52,117 13,18 118,43 150,14 24,-21 111,-62 146,-51 6,2 92,13 94,12 63,-18 32,0 78,-56 5,-6 16,-12 23,-15 65,-7 74,-8 106,25l0 0c4,5 9,10 15,16 30,32 105,-3 134,46 14,23 147,19 116,67 -12,17 -58,50 -75,89 -22,50 -12,61 -12,116 0,106 -54,36 -91,60 -70,45 -63,29 -52,113 2,16 -3,37 -8,53 -3,55 -5,65 -19,109 -20,59 70,108 61,154 -19,98 -62,109 46,156 40,18 -14,55 -32,64 -7,3 -26,15 -29,20l0 0 -46 -3c-12,0 -98,2 -101,-5 -16,-34 23,-94 9,-106 -25,-21 -12,-28 -21,-49 -16,-38 11,-39 -59,-41 -31,0 -60,40 -71,65 -32,74 -51,50 -107,65 -53,14 -91,36 -147,8 -48,-24 -34,-22 -87,-33 -76,-16 -115,72 -154,56 -60,-25 -149,124 -225,104 -81,-22 -59,-127 -171,-82 -41,17 -62,127 -61,169 3,80 -29,44 -7,131l-57 95 0 0c-35,-78 -96,-5 -154,-57 -29,-25 -62,-61 -104,-38 -53,28 15,72 5,133 -9,53 -24,47 -14,102 9,44 -65,8 -92,5 -45,-4 -50,-71 -99,-36l-5 3c-74,30 -54,19 -56,-43 0,-16 -27,-100 -48,-90 -74,36 -106,2 -88,-73 7,-30 -4,-48 9,-100 26,-103 -89,53 -106,-15 -3,-11 14,-40 16,-66 3,-40 21,-25 -17,-67 -33,-38 -83,38 -110,7 -34,-40 -62,-3 -95,-22 -11,-6 -20,-39 -43,-59l0 0c5,-5 36,-29 40,-33 45,-53 -63,-20 74,-112 13,-7 23,-12 32,-23 20,-23 84,-62 114,-68 60,-12 54,-88 104,-98 67,-13 47,-70 85,-106 90,-86 22,-119 56,-165 16,-22 41,-27 32,-63 -13,-50 -54,-94 -75,-157l-69 -100 0 0c28,-55 -36,-167 23,-220 23,-21 62,19 80,37 32,31 48,150 114,101 21,-15 61,-96 110,-93 59,4 69,129 155,41 41,-42 107,-5 174,-22 29,-7 130,-26 145,8 22,49 68,36 93,-7 14,-24 39,-18 47,-30l0 0z"/>
  <path class="fil0 str0" d="M16744 16594c-46,-54 19,-102 -46,-178 -22,-26 -54,-97 -48,-131 18,-101 -32,-98 -32,-164 0,-7 10,-81 10,-82 -23,-33 -41,18 -51,-75 5,-15 10,-34 15,-50 23,-77 -2,-91 38,-160 46,-81 -2,-98 -3,-132 -4,-73 92,-87 132,-136 12,-15 8,-82 72,-72 68,11 61,-50 103,-68 43,-19 75,-76 123,-78l0 0c-4,-5 -17,-52 -17,-58 -7,-69 33,-74 -12,-150 -8,-13 -75,-59 -84,-61 -45,-12 -69,-96 -87,-119 -50,-62 -51,-71 -137,-74 -25,12 -65,27 -92,35 -72,22 -83,5 -119,-44 -4,-5 -19,-29 -21,-34 -17,-38 -85,-79 -121,-78 -99,2 -90,-12 -170,64l0 0c-37,59 -34,47 -74,84 -25,23 -11,82 31,100 50,21 120,106 76,156 -43,49 -59,71 -118,106 -84,37 -69,8 -137,13 -45,3 -104,40 -85,98 28,85 73,94 63,174l0 0c4,5 9,10 15,16 30,32 105,-3 134,46 14,23 147,19 116,67 -12,17 -58,50 -75,89 -22,50 -12,61 -12,116 0,106 -54,36 -91,60 -70,45 -63,29 -52,113 2,16 -3,37 -8,53 -3,55 -5,65 -19,109 -20,59 70,108 61,154 -19,98 -62,109 46,156 40,18 -14,55 -32,64 -7,3 -26,15 -29,20l0 0c21,32 60,101 99,112 94,27 103,102 190,82 54,-13 74,-11 128,1 29,6 80,-20 90,-57 7,-24 28,-55 54,-55 40,0 116,-19 177,-29l0 0z"/>
  <path class="fil0 str0" d="M5235 15729l94 -83c47,-51 38,-24 69,-51 43,-38 50,-61 84,-101 28,-33 29,-25 57,-43l0 0c5,24 -2,52 8,83 16,53 2,32 31,87 31,58 -45,167 59,203 34,12 67,54 72,88 3,89 2,81 -10,158 -6,43 -11,133 29,161 34,24 6,44 103,99 30,17 53,31 85,48 75,38 135,104 81,188 -51,78 -6,128 -6,208 7,81 -14,33 -42,89 -23,45 9,84 5,114 -15,93 13,142 110,101 27,-12 48,-17 72,-28 34,-15 103,-78 127,-69 11,4 18,77 60,109 13,10 60,106 63,128 10,98 51,52 51,126 0,60 -76,12 -110,26 -80,33 37,81 63,95 53,29 62,12 85,18 30,9 -5,61 -7,83 16,107 -12,120 -66,202 -18,28 -95,66 -77,108 23,52 -48,17 -56,117 -4,58 -75,43 -110,65 -47,30 -62,112 -127,70 -16,-11 -13,-65 -30,-96 -33,-62 -12,-80 -72,-45 -31,18 -23,-27 -63,7 -59,51 -161,-81 -194,-119 -28,-33 -14,-37 -41,-62 -18,-17 -67,-94 -76,-98 -53,-23 -74,-26 -115,-74 -24,-28 -87,-34 -109,14 -7,16 -48,67 -63,94 -51,68 -35,104 -115,151 -38,22 -95,25 -92,-34 2,-29 -63,-69 -86,-95 -13,-14 121,-94 51,-143 -19,-13 -89,-60 -96,-74 -32,-62 -59,-58 -119,-96 7,-12 16,-26 30,-46 29,-43 -102,-20 -58,-87 29,-45 -66,19 -44,-70 7,-30 46,-37 64,-55 8,-8 14,-18 21,-27 2,-22 28,-50 24,-64 -18,-51 8,-85 -7,-106 -60,-83 15,-90 -5,-135 -36,-81 -63,-62 -103,-188 15,-55 14,-67 -11,-114 -7,-14 -29,-39 -37,-62 -8,-24 -75,-65 -61,-133 6,-32 55,-18 88,-67 33,-49 57,-66 93,-105 23,-24 37,-40 69,-61 28,-18 49,-44 74,-66 8,-6 36,-24 44,-31 35,-37 8,-59 1,-98 -9,-54 -18,-58 0,-112 8,-25 53,-35 74,-41 49,-30 36,-23 68,-50 33,-28 65,-14 99,-14l0 0z"/>
  <path class="fil0 str0" d="M5539 15452c-3,-13 -8,-25 -22,-35 -35,-27 -23,-47 -40,-60 -49,-37 -63,-30 -120,-27 -28,1 -90,30 -92,-5 -2,-42 80,-63 118,-54 42,10 72,-34 61,-63 -14,-38 -5,-79 37,-58 72,36 105,-31 81,-52 -48,-42 -30,-23 -2,-64 22,-32 87,-38 112,-20 61,45 35,43 102,36 65,-7 60,48 74,70 29,43 48,35 90,18 60,-19 85,-108 24,-114 -53,-5 -11,-50 44,-44 101,11 25,-64 -59,-70 -29,-2 -62,-51 -55,-80 19,-73 97,-22 128,10 40,40 51,-7 74,21 27,32 24,12 59,33 59,35 55,-69 37,-99 -19,-32 -16,-65 26,-67 76,-4 -30,-91 59,-94 20,-1 43,57 87,21 33,-27 38,33 26,55 -54,96 57,17 -64,114l0 4c2,87 28,92 63,157 22,40 38,67 -9,96 -98,61 -50,-108 -135,-79 -92,31 -37,159 -161,185 -67,14 -45,90 -21,101 42,19 97,-53 35,78 -25,52 37,47 65,30 85,-52 5,-163 105,-192 61,-17 64,11 78,51 25,70 -5,61 -32,90 -30,33 -91,49 -93,68 -5,52 -35,112 31,128 112,26 93,-102 156,-50 44,36 62,-30 62,-66 0,-42 -31,-126 19,-135 67,-12 64,102 88,112 50,19 39,47 33,88 -7,52 -56,80 -39,109 49,82 167,28 187,42 49,34 -1,50 86,96 91,48 20,-112 128,-19 49,42 117,64 153,-5 37,-69 29,-32 64,-40 89,-19 55,-96 16,-149 -37,-50 5,-89 35,-64 97,81 131,5 81,-43 -47,-46 -18,-82 -84,-96 -89,-19 -145,-48 -56,-134l0 0 54 -111c14,-12 76,-54 66,-79 -35,-85 70,-67 73,-139 1,-16 -13,-36 10,-56l34 -80 0 0c0,-3 1,-3 2,-7 20,-78 35,-51 12,-136 -9,-15 -11,-19 -18,-35 -34,-73 -65,-52 -41,-129 18,-58 78,-66 38,-119 -60,-78 34,-125 21,-156 -23,-56 -63,-12 7,-116l0 0c-16,0 -19,2 -33,5 -45,7 -137,63 -159,24 -20,-37 -5,-49 -27,-88 -25,-45 -128,101 -209,38 -15,-12 -118,-25 -139,-34 -69,-31 -31,-23 -57,-63 -38,-60 -53,-8 -53,-94 0,-114 -118,28 -141,1 -25,-30 6,-83 33,-101 27,-18 26,-41 6,-43 -30,-2 -85,-20 -111,-30l-192 -40 0 0c-36,89 -93,74 -79,165 13,83 -66,22 -96,112 -3,9 -3,14 -3,23 -44,90 -42,23 -71,43 -22,16 13,55 -40,98 -30,24 -39,38 -72,58 -43,26 -77,97 -27,121 65,31 120,47 133,125 14,87 -46,164 -138,144 -88,-19 -198,127 -236,113 -37,-14 -53,-55 -96,-8 -37,40 -108,-11 -128,-7 -38,7 -106,-46 -176,30 -52,56 -62,-22 -105,10 -14,10 -40,76 -40,91 3,39 20,87 -2,119 -21,31 -36,-24 -58,48 -29,95 -84,-16 -119,27 -25,31 39,54 -67,153 -81,75 70,49 44,116 -8,20 -86,96 -18,110 124,26 57,104 127,153 11,8 21,18 28,30 0,39 3,74 31,104 21,22 65,11 48,71 -5,16 20,76 36,86l0 0 94 -83c47,-51 38,-24 69,-51 43,-38 50,-61 84,-101 28,-33 29,-25 57,-43l0 0z"/>
  <path class="fil0 str0" d="M3007 3939c84,30 51,20 106,-3 7,-3 78,-12 88,-1 10,11 81,21 117,60 40,43 23,71 68,73 58,3 123,-115 187,-88 17,7 59,-12 75,-24 39,-28 60,-37 98,-73l49 -58 0 0c-50,-2 -34,-59 -67,-73 -68,-29 -24,-87 -46,-135 -26,-55 -7,-68 -24,-112 -20,-53 -18,-25 -18,-88 0,-96 -103,-102 -84,-147 31,-75 39,-18 46,-129 1,-8 2,-55 0,-61 -24,-61 10,-70 39,-112 20,-30 63,-54 41,-82 -38,-50 23,-36 39,-92 8,-31 32,-64 66,-62 36,2 115,-80 131,-111 27,-52 53,-84 76,-137 5,-12 28,-87 29,-88 37,-32 16,-2 64,-70 -36,-33 -87,-61 -123,-66 -58,-8 -78,-17 -132,-35 -61,-21 -141,-73 -197,-87 -86,-21 -110,-115 -158,-172 -42,-49 -27,-50 -94,-88l-126 -30 0 0c-53,81 16,66 18,115 1,17 -41,18 -41,104 0,115 -62,63 -116,148 -12,18 -57,156 -63,181 -14,53 -74,95 -115,114 -42,20 -64,21 -81,60 -11,25 -11,20 -18,49 -10,42 -53,48 -72,100 -15,40 -81,82 -121,93 0,0 -93,15 -101,22 -26,22 4,53 -10,106 -5,20 4,25 -24,42 -16,10 -46,48 -48,71 -1,7 -14,1 -30,18 -66,69 -2,60 -100,127 -57,39 63,87 -1,118 -60,28 -12,86 -34,119 -47,71 5,44 -43,108 -22,30 -89,29 -90,74 0,20 27,3 27,80l0 7c35,41 43,60 40,79l0 0 97 7c78,-12 43,-3 98,30 46,28 26,20 79,26 52,5 80,37 165,37 50,0 100,3 148,-13 23,-8 125,-22 149,-12 33,14 37,-5 35,55 0,2 4,24 5,28l0 0z"/>
  <path class="fil0 str0" d="M3007 3939c15,63 15,55 9,107 -7,54 -14,33 -34,76 -11,24 -8,37 -33,52 -37,21 29,86 -5,110 -21,14 -36,53 -28,80 16,60 22,74 -31,115 -47,37 -20,120 -129,194 -35,24 -47,39 -88,33 -68,-9 -78,75 -115,121 -8,10 -27,67 -30,81l0 0c26,10 182,83 205,70 81,-45 84,29 163,44 32,6 47,20 70,40 15,13 83,47 93,58l0 0c47,-33 50,-32 86,-65 30,-27 128,-151 161,-106 25,33 10,104 77,40 48,-45 79,35 111,35 21,0 83,-2 98,10 0,0 13,3 28,15 15,12 44,13 62,52 27,60 82,18 128,-2 7,-3 33,-11 36,-13 47,-82 33,-13 86,-27 33,-9 96,-44 134,-60 48,-20 54,9 126,-17 76,-27 126,13 190,-3 8,-2 97,-19 99,-19l0 0 -50 -103c-3,-4 -6,-14 -8,-18 -7,-25 -56,-67 -67,-87 -12,-21 -29,-42 -44,-60 -38,-45 -70,-80 -51,-142 21,-68 -3,-62 -6,-92 -3,-42 -65,-101 -51,-134 10,-24 -21,-65 -26,-79 -24,-66 26,-83 76,-119l-31 -68 0 0c-12,12 -19,7 -65,19 -75,20 -87,-62 -13,-105 47,-27 0,-89 -28,-110 -29,-21 -12,-133 -97,-105 -67,22 -38,9 -92,14 -59,4 -38,43 -104,56 -9,2 -16,2 -22,2l0 0 -49 58c-38,36 -59,45 -98,73 -15,11 -58,31 -75,24 -64,-26 -128,91 -187,88 -45,-2 -28,-29 -68,-73 -36,-39 -107,-50 -117,-60 -10,-11 -81,-2 -88,1 -55,23 -22,33 -106,3l0 0z"/>
  <path class="fil0 str0" d="M2236 4831l93 34c42,-4 64,-18 80,10 16,27 44,35 74,35l38 -3 0 0c4,-14 22,-71 30,-81 38,-46 47,-131 115,-121 41,6 53,-9 88,-33 108,-73 82,-156 129,-194 53,-42 46,-55 31,-115 -7,-27 8,-66 28,-80 34,-24 -31,-89 5,-110 25,-15 22,-28 33,-52 20,-44 28,-22 34,-76 6,-51 6,-44 -9,-107l0 0c-1,-4 -5,-26 -5,-28 3,-60 -2,-41 -35,-55 -24,-10 -126,5 -149,12 -48,16 -99,13 -148,13 -84,0 -112,-31 -165,-37 -53,-6 -33,2 -79,-26 -55,-33 -20,-42 -98,-30l-97 -7 0 0c-4,19 -20,38 -35,80 -39,110 -44,54 -78,112 -10,17 39,40 -1,48 -35,7 -59,60 -24,71 84,28 44,40 28,80 -20,48 -39,62 12,98 17,12 57,51 47,76 -46,116 91,38 25,150 -41,69 65,102 15,119 -32,11 -51,46 -33,73 13,19 70,-14 73,77 -8,23 -12,48 -24,67l0 0z"/>
  <path class="fil1 str1" d="M2236 4831l93 34c42,-4 64,-18 80,10 16,27 44,35 74,35l38 -3"/>
  
  
  
  
  
  
  
  
  
  
  
  
  
  
  
  
  
  
  
  
  
  
  
  
  
  
  
  
  
  
  
  
  
  
  
  
  
  
  
  
  
  
  
  
  
  
  
  
  
  
  
  
  
  
  
  
  
  
  
  
  
  
  
  
  
  
  
  
  
  
  
  
  
  
  
  
  
  
  
  
  
  
  
  
  
  
  
  
  
  
  
  
  
  
  
  
  
  
  
  
  
  
  
  
  
  
  
  
  
  
  
  
  
  
  
  
  
  
  
  
  
  
  
  
  
 </g>
</svg>