<svg xmlns="http://www.w3.org/2000/svg" xmlns:xlink="http://www.w3.org/1999/xlink" xml:space="preserve" width="297mm" height="210mm" version="1.1" style="shape-rendering:geometricPrecision; text-rendering:geometricPrecision; image-rendering:optimizeQuality; fill-rule:evenodd; clip-rule:evenodd" viewBox="0 0 29700 21000">
 <defs>
  <style type="text/css">
   <![CDATA[
    .str2 {stroke:white;stroke-width:50;stroke-opacity:0.501961}
    .str4 {stroke:white;stroke-width:50}
    .str1 {stroke:#AE4A84;stroke-width:25}
    .str6 {stroke:#434242;stroke-width:50}
    .str0 {stroke:white;stroke-width:50}
    .str3 {stroke:white;stroke-width:50}
    .str7 {stroke:#2B2A29;stroke-width:7.62}
    .str5 {stroke:white;stroke-width:7.62}
    .fil7 {fill:none}
    .fil1 {fill:none;fill-rule:nonzero}
    .fil0 {fill:#171729}
    .fil2 {fill:#171729}
    .fil9 {fill:#D9DADA}
    .fil6 {fill:#171729;fill-rule:nonzero}
    .fil5 {fill:#D9DADA;fill-rule:nonzero}
    .fil8 {fill:#434242;fill-rule:nonzero}
    .fil4 {fill:black;fill-rule:nonzero}
    .fil3 {fill:#171729;fill-rule:nonzero;fill-opacity:0.501961}
   ]]>
  </style>
 </defs>
 <g id="Plan_x0020_1">
  <metadata id="CorelCorpID_0Corel-Layer"/>
  <path class="fil0 str0" d="M6046 10375c39,-38 56,-44 88,-73 33,-30 118,-120 164,-81 36,30 40,45 71,78 30,31 85,1 108,-23 27,-29 144,-101 174,-43 45,85 22,45 95,103 63,50 27,140 58,182 18,25 7,58 68,93 17,10 41,19 55,33 45,22 44,30 81,43 37,12 51,-56 111,-21 48,28 105,-50 149,-75 65,-37 63,-10 115,32 50,40 92,-5 128,38 34,40 187,28 163,-33 -18,-46 -17,-46 -52,-81 -27,-28 53,-74 13,-146 -6,-12 -31,-79 -26,-90 17,-43 52,-36 89,-105 24,-46 16,-48 57,-91 16,-17 28,-42 42,-61 25,-82 5,-52 11,-101 3,-28 47,3 89,-59 37,-55 7,-95 68,-95 181,0 66,-110 199,-201 58,-40 157,50 213,67 73,22 81,110 199,47 66,-36 82,-145 188,-44 41,40 82,-14 102,-45 48,-74 116,-31 185,-66 20,-10 39,-19 61,-23 25,-27 54,-53 93,-55 5,0 9,4 13,7l67 37 0 0c63,-63 121,-15 142,-86 16,-54 -28,-82 -77,-93 -20,-5 -100,-33 -109,-33 -77,3 -39,-50 -59,-61 -53,-31 -37,6 -80,-59 -18,-28 -15,-106 -11,-134 0,-9 -1,-23 0,-31 14,-103 -19,-105 -56,-182 -24,-49 -48,-28 -64,-108 -18,-85 20,-104 -47,-166 -61,-57 0,-115 39,-165 48,-63 53,-177 34,-251 -16,-61 -22,-41 -55,-69 -31,-26 -9,-46 13,-75 10,-6 11,-8 24,-12 64,-20 117,-53 151,-112 20,-34 19,-94 5,-128 -13,-32 -25,-166 -25,-205 0,-40 62,-127 93,-153 89,-75 30,-99 55,-157 32,-72 75,-57 91,-110 4,-13 2,-79 -1,-92 -6,-28 -4,-87 -3,-111 0,-7 0,-14 0,-20 0,-13 22,-125 27,-141 20,-69 59,-211 131,-242 45,-20 52,-50 88,-72 19,-12 43,-9 66,-14 45,-11 43,-37 78,-45 54,-13 53,5 88,5 74,0 79,-49 106,-63 57,-31 87,-189 94,-251 7,-61 1,-72 42,-125l0 0c-7,-14 -39,-23 -50,-37 -43,-55 -33,-60 -56,-117 -40,-100 -43,-112 -147,-144 -68,-21 -149,-2 -173,-10 -52,-18 -153,-22 -173,-83 -17,-51 -68,-44 -111,-28 -60,22 -130,19 -192,10 -32,13 -40,118 -76,149 -35,30 -35,86 -15,125 16,30 8,27 14,53 13,50 -9,84 -28,132 -9,24 -10,92 0,116 19,47 7,92 9,139 3,100 -31,124 -121,151 -31,9 -93,43 -121,62 -23,17 -43,24 -65,36 -44,24 -47,11 -82,12 -71,2 -58,-8 -123,35 -96,17 -99,42 -143,-51 -24,-49 -27,-34 -45,-58 -27,-36 -82,8 -97,34 -35,60 -128,109 -197,107 -74,-2 -47,67 -73,99 -57,70 -105,13 -173,29 -61,15 -68,6 -120,6 -12,0 -46,-8 -46,-7 -12,23 5,84 11,109 11,43 17,28 -3,81 0,4 -3,15 -4,21 -2,12 -1,109 1,123 14,100 -115,123 -147,221 -22,66 -34,91 -69,152 -14,25 -19,42 -28,60 -24,45 -13,52 -21,82 -10,36 -6,62 -13,84 -8,25 -4,51 -19,62 -6,4 -82,11 -92,10 -42,-2 -68,-2 -110,-2 -44,0 -38,-73 -33,-101 14,-75 1,-143 23,-212 12,-37 9,-41 27,-80 33,-71 43,-108 -45,-126 -96,-20 -85,-83 -117,-75 -75,18 -117,84 -167,86 -51,2 -19,94 -33,140 -10,33 -11,88 15,115 81,81 9,100 26,162 4,16 -17,64 -27,79 -52,81 -75,54 -111,158 -10,31 -5,71 -15,87 -26,41 -32,37 -79,18 -19,-19 -32,-39 -52,-59 -17,-17 -44,-40 -57,-54 -44,-46 -94,-86 -150,-117 -73,-40 -78,-112 -127,-139 -57,-31 -37,-34 -53,-76 -10,-25 -6,-49 -28,-53 -86,-16 -101,80 -127,59 -34,-27 -28,-42 -37,-74 -17,-65 54,-109 32,-144 -1,-2 -79,-66 -80,-66 -4,-1 -17,-12 -20,-15 -33,-34 -76,-16 -104,-27 -73,-28 -78,70 -105,112 -80,126 -187,35 -280,37 -65,2 -44,-10 -82,-26 -33,-14 -41,-81 -38,-112 8,-72 34,-116 -58,-135 -30,-6 -89,3 -116,-19 -41,-33 -84,-10 -141,-10 -32,0 -159,28 -185,42 -76,40 -45,80 -53,115 -13,53 -55,44 -89,45 -69,2 -74,-29 -117,-48 -34,-15 -54,-28 -91,-44l0 0c-5,107 38,119 14,215 -9,34 -58,137 -85,156 -44,31 -74,139 -62,191 19,85 -18,69 -76,88 -30,10 -195,-24 -212,47 -5,19 53,25 72,31 22,6 69,26 88,38 28,80 56,106 114,160 53,51 93,-35 116,-37 26,-1 9,-2 36,0 81,8 22,54 82,61 56,6 97,-88 179,-52 85,38 152,-22 225,-8 56,11 47,-11 88,42 10,13 74,88 84,91 102,29 186,26 289,44 22,4 50,11 71,19 56,44 81,52 126,106 39,47 132,94 21,143 -74,33 -90,49 -156,91 -62,40 -118,48 -182,77 -43,19 -113,89 -121,138 -6,33 -6,46 -19,78 10,73 17,130 91,158 39,14 83,45 108,79 34,46 48,69 115,58 87,-14 149,-127 199,24 39,119 102,15 203,-2 58,-10 65,-6 62,66 -3,74 -5,46 22,112 34,83 106,193 22,271 -42,40 -130,42 -185,125 -38,56 -122,117 -45,178 28,22 52,72 58,106 -6,58 -8,125 35,172 19,21 12,-5 32,40 28,63 62,38 115,78 10,7 44,26 46,28l0 0z"/>
  <path class="fil0 str0" d="M10069 5961c-42,53 -35,64 -42,125 -8,62 -37,220 -94,251 -27,15 -32,63 -106,63 -35,0 -35,-18 -88,-5 -35,8 -33,34 -78,45 -24,6 -47,3 -66,14 -37,22 -44,52 -88,72 -71,32 -110,173 -131,242 -4,15 -27,128 -27,141 0,7 0,14 0,20 -1,24 -4,83 3,111 3,14 5,79 1,92 -15,53 -59,37 -91,110 -25,58 33,82 -55,157 -31,26 -93,113 -93,153 0,39 12,173 25,205 14,34 15,94 -5,128 -34,59 -87,92 -151,112 -13,4 -14,7 -24,12 -22,29 -44,48 -13,75 33,28 39,9 55,69 19,74 13,188 -34,251 -38,51 -99,109 -39,165 67,63 29,82 47,166 17,80 41,58 64,108 37,77 70,79 56,182 -1,8 0,22 0,31 -4,28 -7,106 11,134 43,66 27,28 80,59 20,11 -18,64 59,61 9,0 89,28 109,33 48,11 92,39 77,93 -20,70 -79,23 -142,86l0 0c36,93 9,49 68,81 37,20 -28,191 -27,228 1,15 -8,106 -3,109 7,4 32,-16 70,-7 25,6 34,-8 88,9 33,10 65,0 116,20 38,14 240,3 282,-10 65,-21 107,-74 113,-141 4,-49 75,-98 122,-80 21,8 75,-19 91,-18l74 -31 0 0c1,-1 23,-40 24,-42 13,-30 40,-56 56,-80 46,-67 112,-108 166,-169 30,-34 24,-45 42,-69 34,-44 59,-56 112,-48 54,8 63,-36 48,-57 -31,-42 -47,-75 -66,-126 -25,-47 47,-69 33,-106 -22,-55 -101,-50 -98,-129 1,-29 -14,-38 -22,-51 -28,-48 -116,-65 -104,-87 37,-69 102,-52 164,-52 77,0 43,14 120,-10 21,-7 16,-86 16,-106 1,-55 45,-122 45,-160 0,-116 -44,-83 33,-185 5,-8 42,-139 48,-149 52,-84 105,-13 161,-113 31,-56 46,-167 95,-205 69,-54 42,-105 94,-158 112,-112 141,-25 202,-60 66,-38 70,-18 115,-89 28,-45 25,-143 95,-141 43,1 76,-19 94,-58 34,-78 31,-116 18,-198 0,-136 -110,-77 -132,-162 -15,-57 -100,-31 -107,-91 -8,-66 -35,-101 -33,-173 0,-12 -25,-72 -35,-76 -43,-19 -6,6 -70,-43l0 0 -189 -36 -4 -1c-84,-18 -65,-56 -164,-34 -49,11 -113,-12 -148,-49 -27,-28 -65,-40 -93,-58 -51,-33 -173,14 -208,-26 -42,-49 28,-65 -108,-90 -63,-11 -152,-26 -195,-77 -22,-26 -41,-39 -60,-60 -51,-57 -85,-70 -159,-98l0 0z"/>
  <path class="fil0 str0" d="M4475 7164c37,16 57,30 91,44 44,18 49,49 117,48 35,-1 76,8 89,-45 9,-35 -23,-74 53,-115 26,-14 152,-42 185,-42 57,0 100,-23 141,10 27,22 86,13 116,19 92,19 65,62 58,135 -3,31 5,99 38,112 38,16 17,28 82,26 93,-2 199,89 280,-37 27,-42 32,-140 105,-112 28,11 71,-8 104,27 3,3 16,14 20,15 0,0 78,64 80,66 22,36 -49,80 -32,144 8,32 2,47 37,74 26,20 41,-75 127,-59 22,4 18,28 28,53 17,42 -3,45 53,76 50,27 55,99 127,139 56,31 106,71 150,117 14,14 40,37 57,54 20,20 33,40 52,59 47,18 53,23 79,-18 10,-16 4,-56 15,-87 35,-104 58,-77 111,-158 10,-15 31,-63 27,-79 -17,-63 55,-82 -26,-162 -26,-26 -25,-81 -15,-115 14,-46 -18,-138 33,-140 50,-2 92,-68 167,-86 32,-8 21,56 117,75 88,18 78,55 45,126 -18,39 -15,44 -27,80 -22,69 -10,137 -23,212 -5,29 -11,101 33,101 42,0 67,0 110,2 10,1 87,-6 92,-10 15,-12 11,-37 19,-62 7,-22 3,-48 13,-84 9,-30 -3,-37 21,-82 10,-18 14,-35 28,-60 35,-61 47,-86 69,-152 32,-98 161,-120 147,-221 -2,-13 -3,-111 -1,-123 1,-6 4,-16 4,-21 20,-53 14,-38 3,-81 -6,-25 -23,-86 -11,-109 1,-1 35,7 46,7 52,0 59,9 120,-6 68,-17 116,41 173,-29 26,-32 -2,-101 73,-99 69,2 161,-47 197,-107 15,-26 70,-70 97,-34 18,24 22,9 45,58 44,93 47,68 143,51 65,-43 52,-33 123,-35 34,-1 38,12 82,-12 22,-12 42,-19 65,-36 27,-19 89,-53 121,-62 89,-27 124,-51 121,-151 -2,-47 10,-91 -9,-139 -9,-24 -9,-92 0,-116 18,-48 41,-82 28,-132 -7,-26 1,-23 -14,-53 -20,-39 -19,-95 15,-125 36,-30 44,-136 76,-149 62,9 132,13 192,-10 43,-16 94,-23 111,28 20,61 121,65 173,83 24,9 106,-11 173,10 104,32 108,44 147,144 23,57 13,61 56,117 11,14 43,22 50,37l0 0c74,27 108,40 159,98 18,21 37,33 60,60 43,51 132,66 195,77 136,25 65,41 108,90 35,40 157,-7 208,26 28,18 66,29 93,58 35,37 99,59 148,49 100,-22 80,17 164,34l4 1 189 36 0 0 -9 -72c0,-10 1,-20 -1,-30 -5,-24 1,-71 -7,-81 -56,-71 -73,-34 -112,-132 -5,-11 -11,-19 -18,-29 -24,-34 -53,-99 -76,-119 -147,-128 4,-159 3,-212 -1,-48 16,-49 33,-82 21,-43 33,-31 58,-73 27,-44 -1,-68 51,-100 50,-31 24,-5 53,-58 28,-51 -17,-127 -10,-171 8,-51 29,-46 33,-127 14,-48 33,-101 -21,-129 -30,-15 -24,-71 0,-79 44,-15 57,-10 106,-35 59,-31 156,39 177,-32 15,-48 -12,-63 8,-130 21,-71 -93,-96 -80,-139 18,-62 57,-44 82,-55 45,-19 176,-69 197,-109 46,-85 78,-45 108,-92 27,-43 16,-30 57,-81l116 -44 0 0c-6,-62 -12,-126 -23,-180 -14,-68 -21,-83 -87,-92 -31,-4 -92,-22 -112,-23 -21,-1 -228,-71 -243,-80 -76,-46 -100,-99 -129,-185 -2,-26 -12,-66 -15,-99 -3,-36 -16,-206 -23,-229 -29,-102 -79,-131 -178,-154 -122,-29 -108,-48 -167,-142 -13,-20 -41,-50 -28,-66 38,-52 75,-60 68,-123 -4,-37 -62,-107 -81,-135 -3,-5 -6,-8 -9,-13 -33,-42 -8,-90 12,-131 63,-133 -140,-102 -206,-164 -47,-44 -30,-28 -86,-49 -81,-29 -10,-139 -58,-189 -26,-27 -66,-77 -88,-108 -35,-51 -55,-85 -101,-129 -26,-25 -32,-28 -61,-48 -56,-39 -124,-34 -174,-86 -29,-30 -3,-9 -33,-25 -26,-14 -94,91 -105,112 -25,46 -78,80 -131,78 -44,-2 -80,-31 -91,-33 -36,-7 -34,114 -35,122l-2 5c-17,82 -23,79 -12,166 11,84 -56,87 -11,158 56,89 36,78 -40,115 -69,34 -131,-61 -169,-107 -13,-17 -69,-18 -81,-11 -55,29 -35,-2 -55,-21 -29,-27 -76,126 -80,141 -26,94 -83,79 -90,137 -4,32 -36,72 -60,90 -45,35 -77,117 -92,128 -13,10 -24,15 -32,17l0 0c3,3 6,28 5,29 -31,111 96,101 140,159 40,53 57,87 68,156 -2,25 24,66 40,85 31,37 45,41 79,65 87,60 47,42 77,120 23,61 24,39 56,52 47,20 68,11 98,57 11,18 22,87 21,106 -1,60 7,114 43,164 20,28 57,73 16,102 -59,41 -45,3 -108,66 -12,0 -12,0 -25,-2 -17,-3 -88,-5 -102,5 -32,24 -81,26 -123,37 -30,8 -74,-27 -84,-47 -15,-30 -55,-33 -80,-18 -32,19 -36,20 -69,34 -64,28 -75,-13 -111,-39 -22,-16 -62,-67 -63,-67 -23,-13 -55,-43 -71,-58l-8 -11c-35,-43 -41,-46 -71,-96 -28,-47 -32,-88 -50,-127 -15,-31 -17,-52 -28,-77 -24,-57 4,-104 -10,-116 -20,-16 -158,14 -189,20 -57,12 -129,8 -178,22 -55,15 -307,14 -347,-21 -77,-68 -117,10 -142,-5 -52,-30 19,-137 -118,-150 -46,-4 -68,-22 -86,-25 -38,-6 -52,-21 -85,-32 -22,-7 -49,-26 -55,-27 -50,-13 -60,6 -103,26 -43,20 -97,107 -149,149 -22,18 -86,43 -111,36 -51,-14 -117,-12 -171,-16 -64,-5 -67,6 -93,-71l-3 -6c-20,-63 -72,-131 -127,-170 -39,-28 -57,-55 -97,-76 -62,-33 -91,27 -145,41 -45,11 -79,-102 -86,-133 -23,-114 -125,-73 -156,-96 -42,-32 -55,-19 -105,-16 -33,2 -91,19 -115,5 -54,-32 -104,57 -115,100 -22,84 -88,54 -157,54 -52,0 -104,54 -120,97 -15,41 -98,97 -130,83 -36,-16 -102,14 -124,46 -38,56 -99,14 -129,-28 -22,-32 -69,-26 -97,-10 -22,12 -42,22 -61,40 -46,42 -110,100 -162,132 -5,3 -16,9 -21,13 -52,39 -190,150 -259,107 -125,-76 -197,92 -285,153 -55,38 -61,35 -109,5 -43,-27 -70,-51 -121,-25 -49,25 -78,-109 -133,-79 -55,30 -88,67 -132,107 -33,31 -32,23 -71,38 -39,15 -42,6 -70,-3 -32,-10 -38,120 -99,127 -35,4 -14,36 -22,61 -14,48 -64,62 -104,79 -27,11 -51,74 -53,98 -4,39 -8,48 -19,84 -9,27 -43,42 -65,50 -8,5 -16,16 -21,24 -12,22 -63,83 -83,97 -53,38 39,113 14,131 -41,30 -120,-20 -128,-19 -91,20 56,139 80,172 37,48 68,57 63,128l0 0 147 132c30,72 67,104 133,141 36,20 107,-22 132,-46 41,-41 58,-63 106,-101 44,-35 76,-23 131,-24 10,0 48,7 71,7 32,0 129,0 147,26 22,33 34,69 65,96 2,1 93,141 95,148 25,65 45,130 -46,150 -39,9 -56,-13 -103,35 -68,71 -19,139 -12,217l0 14c24,66 21,107 48,166 32,69 135,59 144,220 4,84 77,112 123,161 57,61 87,69 118,157 24,69 158,88 83,222 -17,31 -15,51 -21,83 -12,36 -16,67 -24,104 -19,95 -72,133 -134,201 -77,84 -156,-7 -192,96 -9,27 31,40 -3,79 -12,14 -24,39 -16,59l0 0z"/>
  <path class="fil0 str0" d="M5503 11276c39,37 61,53 101,81 66,48 101,33 173,115 54,61 135,66 127,135 -13,116 46,133 116,202 52,51 98,58 129,144 7,20 6,21 10,39 -12,74 1,174 35,241 12,25 26,113 37,132l0 0c-54,8 -139,103 -166,130 -28,28 -68,53 -90,75 -68,66 -86,71 -170,114 -35,18 -128,33 -166,34 -54,2 -80,-7 -134,-3 -6,16 -14,32 -24,48 -10,15 -37,99 -50,128 -32,66 -81,151 -143,193 -7,5 -61,49 -64,56 -7,12 -51,57 -63,68 -32,27 -65,55 -105,70 -12,5 -35,24 -56,44 -11,0 -75,5 -86,7 -39,7 -53,24 -77,31 -57,17 -124,85 -175,108 -31,14 -60,46 -85,64 -48,35 -86,141 -141,152 -16,3 -112,-17 -127,-26 -30,-17 -142,12 -162,6 -99,-30 -23,-184 39,-183 86,2 103,-19 103,-100 0,-27 -8,-58 -8,-78 -2,-43 -42,-39 -41,-68 2,-59 13,-15 -3,-100 -8,-36 -68,-88 -100,-108 -54,-35 18,-146 -74,-148 -146,-3 -106,128 -212,83 -78,-33 -181,73 -248,111 -69,40 -107,67 -176,17 -54,-39 -86,-10 -104,-89 -15,-68 4,-138 -87,-153 -83,-14 -15,-100 -52,-164 -14,-24 -16,-49 -5,-76 31,-80 -34,-129 -35,-201 -1,-64 -50,-107 -53,-136 -9,-92 -29,-76 -59,-140 -17,-35 -29,-128 -33,-135 -42,-78 -69,45 -98,-122 -2,-8 -3,-14 -6,-22 -26,-67 3,-141 58,-184 89,-69 88,-129 30,-223 -26,-43 66,-56 -16,-99 -56,-29 34,-63 40,-114 4,-36 3,-31 16,-66 18,-50 69,-66 87,-115 13,-35 12,-65 49,-87 34,-20 77,-71 64,-112 -36,-114 -43,-109 29,-219l5 -9c29,-68 46,-77 94,-127 30,-31 93,55 158,5 5,-4 149,-167 159,-180 48,-62 54,-126 100,-176 51,-56 89,-159 141,-195 43,-29 61,-85 71,-134 18,-83 16,-55 58,-115 22,-32 89,-67 89,-98l0 0 152 94c46,59 102,125 133,193 7,16 19,25 25,50 18,64 53,119 67,188 9,46 71,184 92,231 1,2 2,5 3,8 15,62 17,53 43,99 9,15 85,84 100,90 62,24 50,127 45,176 -6,54 79,89 101,144 11,30 18,26 31,71 16,55 55,17 106,63 27,24 39,29 56,68 21,47 57,92 89,131 30,35 43,52 94,52l235 12 0 0z"/>
  <path class="fil0 str0" d="M5503 11276c45,-107 104,-164 154,-256 25,-46 60,-103 95,-142 36,-39 43,-50 86,-90 12,-14 47,-48 64,-64 16,-15 68,-107 76,-132 10,-30 13,-54 14,-86 0,-2 5,-33 7,-35l45 -95 0 0c39,-38 56,-44 88,-73 33,-30 118,-120 164,-81 36,30 40,45 71,78 30,31 85,1 108,-23 27,-29 144,-101 174,-43 45,85 22,45 95,103 63,50 27,140 58,182 18,25 7,58 68,93 17,10 41,19 55,33 45,22 44,30 81,43 37,12 51,-56 111,-21 48,28 105,-50 149,-75 65,-37 63,-10 115,32 50,40 92,-5 128,38 34,40 187,28 163,-33 -18,-46 -17,-46 -52,-81 -27,-28 53,-74 13,-146 -6,-12 -31,-79 -26,-90 17,-43 52,-36 89,-105 24,-46 16,-48 57,-91 16,-17 28,-42 42,-61 25,-82 5,-52 11,-101 3,-28 47,3 89,-59 37,-55 7,-95 68,-95 181,0 66,-110 199,-201 58,-40 157,50 213,67 73,22 81,110 199,47 66,-36 82,-145 188,-44 41,40 82,-14 102,-45 48,-74 116,-31 185,-66 20,-10 39,-19 61,-23 25,-27 54,-53 93,-55 5,0 9,4 13,7l67 37 0 0c36,93 9,49 68,81 37,20 -28,191 -27,228 1,15 -8,106 -3,109 7,4 32,-16 70,-7 25,6 34,-8 88,9 33,10 65,0 116,20 38,14 240,3 282,-10 65,-21 107,-74 113,-141 4,-49 75,-98 122,-80 21,8 75,-19 91,-18l74 -31 0 0c64,12 95,15 117,77 15,41 -5,64 40,95 40,28 92,68 132,91 46,26 66,73 56,124 -11,59 2,195 -5,218 34,83 22,97 99,144 22,13 100,88 118,95 27,10 119,40 119,74 0,73 -61,160 -6,224 30,35 116,26 111,141 -2,54 -10,50 5,111 15,57 28,70 51,121l0 0 5 136c-15,70 -22,64 -79,87 -60,25 -97,-45 -106,79 -5,73 -49,62 -73,96 -19,27 -64,-9 -104,9 -7,3 -41,29 -62,39 -59,28 -28,6 -81,19 -31,8 -55,29 -78,48 -31,27 -102,61 -143,63 -72,3 -127,65 -127,138 0,33 69,54 99,81 76,69 69,78 110,167l4 8c23,75 33,154 48,231 8,41 22,75 -25,96 -51,23 -5,124 -16,169 -9,36 -1,90 13,123 16,40 24,58 -8,87 -27,25 -43,90 -22,123 17,27 38,104 22,138 -43,88 -113,1 -163,55 -12,13 -11,44 -11,61 -13,102 4,100 -74,176 -70,68 -36,109 -53,155 -2,5 -2,14 -2,20l-17 54 0 0 -5 1c-43,12 -128,34 -172,27 -27,-4 -65,23 -76,47 -17,38 -38,69 -52,100 -3,6 -67,82 -76,91 -36,36 -98,38 -82,95 9,31 -1,73 -27,94 -23,18 -35,43 -34,73 2,58 22,34 5,100 -16,67 3,45 -48,119l-123 192 0 0c-91,13 -126,2 -210,-32 -64,-25 -127,-53 -195,-66 -69,-13 -137,-43 -205,-65 -39,-12 -50,-20 -82,-33 -40,-15 -76,-37 -110,-51 -78,-31 -98,-62 -160,-101 -61,-39 -71,-19 -120,-30 -74,-17 -134,-22 -197,-67 -42,-28 -61,-65 -106,-96 -79,-55 -87,-94 -190,-145 -66,-33 -71,-52 -122,-87 -44,-30 -104,-96 -149,-130 -48,-35 -97,-89 -143,-124 -34,-26 -49,-46 -77,-73 -27,-26 -39,-50 -60,-77 -43,-55 -48,-89 -77,-145 -27,-54 -44,-57 -67,-124 11,-15 25,-33 40,-63 35,-69 -15,-84 -17,-125 -2,-45 13,-66 10,-121 -2,-33 -4,-58 -3,-80l-124 -36c-46,-10 -70,-23 -112,-36 -55,-17 -197,-69 -240,-106 -81,-70 -103,-34 -193,-46 -28,-4 -120,-58 -148,-76 -42,-28 -140,-65 -166,-88 -8,-7 -18,-9 -29,-7l0 0c-11,-19 -25,-107 -37,-132 -34,-68 -47,-167 -35,-241 -4,-18 -3,-19 -10,-39 -30,-86 -76,-93 -129,-144 -70,-69 -129,-86 -116,-202 8,-68 -73,-73 -127,-135 -72,-81 -107,-67 -173,-115 -40,-29 -62,-44 -101,-81l0 0z"/>
  <path class="fil0 str0" d="M3483 4820l147 132c30,72 67,104 133,141 36,20 107,-22 132,-46 41,-41 58,-63 106,-101 44,-35 76,-23 131,-24 10,0 48,7 71,7 32,0 129,0 147,26 22,33 34,69 65,96 2,1 93,141 95,148 25,65 45,130 -46,150 -39,9 -56,-13 -103,35 -68,71 -19,139 -12,217l0 14c24,66 21,107 48,166 32,69 135,59 144,220 4,84 77,112 123,161 57,61 87,69 118,157 24,69 158,88 83,222 -17,31 -15,51 -21,83 -12,36 -16,67 -24,104 -19,95 -72,133 -134,201 -77,84 -156,-7 -192,96 -9,27 31,40 -3,79 -12,14 -24,39 -16,59l0 0c-5,107 38,119 14,215 -9,34 -58,137 -85,156 -44,31 -74,139 -62,191 19,85 -18,69 -76,88 -30,10 -195,-24 -212,47 -5,19 53,25 72,31 22,6 69,26 88,38 28,80 56,106 114,160 53,51 93,-35 116,-37 26,-1 9,-2 36,0 81,8 22,54 82,61 56,6 97,-88 179,-52 85,38 152,-22 225,-8 56,11 47,-11 88,42 10,13 74,88 84,91 102,29 186,26 289,44 22,4 50,11 71,19 56,44 81,52 126,106 39,47 132,94 21,143 -74,33 -90,49 -156,91 -62,40 -118,48 -182,77 -43,19 -113,89 -121,138 -6,33 -6,46 -19,78 10,73 17,130 91,158 39,14 83,45 108,79 34,46 48,69 115,58 87,-14 149,-127 199,24 39,119 102,15 203,-2 58,-10 65,-6 62,66 -3,74 -5,46 22,112 34,83 106,193 22,271 -42,40 -130,42 -185,125 -38,56 -122,117 -45,178 28,22 52,72 58,106 -6,58 -8,125 35,172 19,21 12,-5 32,40 28,63 62,38 115,78 10,7 44,26 46,28l0 0 -45 95c-2,2 -7,33 -7,35 -2,31 -5,56 -14,86 -8,25 -61,118 -76,132 -18,16 -53,51 -64,64 -43,40 -51,51 -86,90 -35,38 -70,95 -95,142 -50,93 -109,150 -154,256l0 0 -235 -12c-51,0 -64,-17 -94,-52 -33,-38 -69,-84 -89,-131 -17,-39 -29,-44 -56,-68 -51,-46 -90,-8 -106,-63 -13,-45 -19,-41 -31,-71 -21,-55 -106,-90 -101,-144 5,-49 17,-152 -45,-176 -16,-6 -92,-75 -100,-90 -26,-46 -28,-37 -43,-99 -1,-3 -2,-6 -3,-8 -21,-46 -83,-185 -92,-231 -14,-69 -49,-123 -67,-188 -7,-25 -19,-35 -25,-50 -30,-68 -87,-134 -133,-193l-152 -94 0 0c0,-8 -4,-15 -13,-22 -28,-21 -39,-23 -67,-53 -14,-9 -33,-26 -45,-32 -85,-52 -123,-130 -232,-130 -64,0 -147,23 -199,-9 -62,-39 -120,-68 -182,-104 -36,-21 -153,-77 -178,-104 -43,-46 -142,-80 -200,-123 -2,-1 -85,-42 -92,-44 -39,-16 -84,-83 -102,-119 -34,-68 -62,-68 -83,-161 -8,-6 -28,-26 -34,-33 -28,-34 -67,-44 -73,-53 -19,-28 -31,-31 -46,-49 -11,-14 -114,-31 -132,-28 -58,9 -47,-7 -95,-15 -27,-5 -30,2 -49,2 -27,-1 -76,18 -87,-7 -5,-11 -36,4 -40,7 -43,28 -6,20 -84,44l0 0c0,-3 1,-6 1,-9 10,-59 30,-164 102,-179 59,-12 75,-21 138,-21 90,0 119,-65 197,-65 139,0 127,-16 250,-71 73,-33 127,-112 206,-157 36,-21 88,-59 127,-83 44,-26 82,-41 127,-63 95,-46 75,-7 146,-24 13,-3 25,-7 37,-11 0,-8 1,-53 1,-57 -3,-57 59,-239 8,-275 -62,-44 -125,-6 -161,-17 -69,-19 -93,26 -145,-66 -19,-33 -19,-47 -46,-92 -20,-36 -20,-47 -53,-75 -41,-35 35,-72 81,-43 85,55 67,-35 78,-59 39,-81 80,-55 82,-58 20,-23 -40,-109 -15,-193 10,-32 -27,-56 -50,-72 -51,-35 -42,-72 -115,-102 -38,-16 -39,-110 -31,-142 25,-110 -44,-102 -61,-138 -22,-47 0,-52 -40,-85 -32,-26 -117,-16 -121,-67 -5,-63 -7,-69 19,-129 77,-72 56,-56 82,-144 44,-153 66,-84 137,-190 11,-16 29,-69 19,-91 -28,-67 -77,-60 -19,-129 31,-37 24,-176 71,-155 24,10 17,86 55,111 24,16 77,60 103,13 21,-37 -15,-93 6,-137 31,-64 69,-42 71,-102 0,-5 13,-50 15,-57 14,-60 4,-60 0,-110 -2,-37 -31,8 -71,10 -38,2 -107,30 -141,17 -70,-26 -46,-101 -84,-124 -36,-21 0,-80 0,-129 0,-151 81,-99 176,-56 50,23 151,141 188,54 9,-22 -54,-40 -7,-91 43,-45 21,-40 25,-90l0 0z"/>
  <path class="fil0 str0" d="M15702 14087c6,-2 121,-28 134,-28 102,-2 119,133 177,184 23,21 38,48 72,69 52,33 33,58 124,84 33,9 90,37 115,60 11,10 243,75 284,91 5,2 60,19 63,22l0 0c21,-53 77,-61 140,-62 27,0 156,-16 130,-69 -20,-40 -40,-81 -14,-125 25,-42 70,10 115,-79 18,-35 69,-76 104,-93 38,-18 92,-44 75,-93 -9,-26 -2,-157 33,-169 57,-19 145,-80 168,-136 32,-76 27,-78 78,-143 54,-67 39,-100 77,-175 20,-38 24,-139 -12,-161 -21,-13 -30,-37 -70,-58 -86,-46 -119,-154 -114,-246 1,-11 3,-30 -1,-40 -21,-56 -115,-244 -26,-277 106,-39 182,-261 276,-304 192,-88 245,63 330,4 44,-30 15,-79 128,-146 113,-67 180,-129 254,-239 13,-19 26,-42 34,-64 38,-104 31,-93 43,-198 13,-103 99,-360 219,-365 97,-4 68,-9 158,29 103,44 128,-83 205,-81 107,4 112,-135 195,-185 110,-67 162,1 200,-119 23,-74 22,-195 100,-232 9,-4 18,-4 25,-10 123,-109 96,-154 235,-253 35,-25 122,-15 180,-119 82,-144 142,-73 124,-301 -1,-10 -15,-33 -36,-61 15,-46 103,-109 115,-138 25,-61 66,-88 78,-154 13,-73 62,-92 87,-23 30,82 19,74 26,153 5,51 -9,56 21,97 28,40 49,16 93,10 33,-4 179,-44 212,-57 23,-9 161,-47 186,-48 79,-5 39,11 131,-22l0 0c-9,-64 35,-102 -18,-140 -79,-56 -40,-96 -51,-135 -25,-92 -113,-69 -150,-107 -62,-62 -68,-40 -141,-60 -58,-16 -153,14 -190,-18 -26,-23 -24,-42 -66,-78 -65,-55 -31,-63 -126,-99 -57,-22 -95,14 -128,-43 -45,-77 -103,-29 -177,-63 -103,-48 -134,-6 -203,-42 -60,-30 -163,-207 -239,-266 -76,-58 -120,-149 -188,-211 -33,-30 -32,-35 -57,-65 -23,-27 -36,-62 -44,-71 -22,-24 -93,-12 -133,-15 -74,-6 -68,-32 -108,-73 -29,-30 -9,-31 -61,-78 -20,-6 -56,-22 -73,-33 -79,-50 -169,-104 -263,-116 -74,-10 -97,23 -151,52 -80,44 -155,131 -215,10 -58,-115 -79,-62 -161,-128 -74,-60 -183,-128 -279,-143 -76,-12 -76,-40 -121,-67 -99,-61 -93,-65 -213,-48 -84,12 -93,-49 -161,-47 -70,2 -75,25 -128,-48l-2 -4c-28,-52 -52,-56 -61,-119 -11,-75 -78,-78 -141,-83 -42,-3 -94,6 -124,2 -61,-8 -154,4 -189,-60 -21,-38 -67,-34 -89,-63 -89,-119 -8,-143 -39,-210 -15,-33 11,-104 24,-137 14,-38 -31,-86 -58,-103 -23,-15 -60,-84 -60,-111 0,-96 90,-73 114,-85 68,-34 83,-5 94,-99 7,-9 13,-21 17,-32 44,-101 75,-107 22,-216 -32,-67 -8,-153 -132,-87 -72,38 -117,-52 -131,-109 -32,-133 -69,-86 -103,-167 -37,-88 -162,10 -202,48 -37,35 -91,69 -144,57 -22,-5 -48,-29 -71,-54l0 0c-6,6 -28,47 -34,57 -80,123 -55,167 48,265 -14,28 -19,73 -39,92 -30,28 -205,7 -239,-14 -60,-38 -61,-9 -111,-18 -64,-12 -121,42 -161,87 -76,86 -69,75 -171,115 -40,16 -44,43 -10,70 66,53 85,26 151,111 8,10 71,65 79,68 18,7 43,42 51,60 16,36 59,148 59,183 0,42 -13,43 12,71 41,47 31,23 47,100 -20,15 -45,42 -63,53 -50,29 -71,95 -85,148 -23,85 -55,57 -70,110 -7,23 0,64 10,82 71,119 25,141 50,197 15,33 8,57 13,77 10,36 0,95 0,137 0,45 31,125 66,155 54,46 57,93 38,160 -16,27 -14,30 -10,58 20,148 -181,193 -177,315 4,113 -13,158 -64,261l0 0c105,44 64,23 154,36 110,15 56,98 132,120 38,11 135,74 148,111 8,25 24,30 35,81 7,30 33,112 53,134 31,34 40,89 100,76 27,-6 139,9 114,60 -30,60 -39,136 -43,201 -3,44 -19,114 -18,143 -34,97 -33,190 -108,269 -39,41 -54,155 -30,205 53,112 -20,196 -46,309 -9,41 -8,47 -9,86 -3,86 15,132 36,214 20,36 29,64 46,99 24,49 77,80 118,119 20,19 57,44 84,52 33,10 91,74 99,107 16,66 22,108 54,171 27,53 -39,52 -73,53 -10,0 -39,-12 -74,-12 -69,0 -65,-37 -114,45 -55,91 -136,-52 -205,-35 -32,8 -36,25 -88,28 -88,5 -127,-26 -192,51 -7,8 -10,17 -15,27 -5,39 -10,84 -8,124 2,42 -54,33 -79,44 -15,6 -47,-5 -84,30 -32,30 -28,56 20,57 13,0 42,21 88,20 63,-1 -14,91 88,158 22,15 57,69 65,96 16,51 32,54 2,108 -12,22 -48,-9 -87,40 -37,47 -86,69 -144,53 -55,-15 -226,9 -249,-2 -39,-18 -53,-141 -92,-140 -35,1 -16,0 -51,7 -56,11 -93,-73 -151,24 -92,152 -126,56 -184,67 -77,14 -137,-82 -152,14 -6,36 16,105 52,127 87,51 145,14 223,112 5,6 16,22 17,30l26 89 0 0c59,35 83,64 155,77 34,6 111,49 132,76 28,36 55,54 85,100 32,50 44,102 66,158 27,67 66,132 95,203 21,52 31,140 43,197 16,74 23,81 72,143 10,13 30,26 45,33 71,18 38,22 75,34 55,19 124,26 169,67 23,21 17,8 37,41 18,31 31,35 29,76 0,3 3,11 3,15l0 0z"/>
  <path class="fil0 str0" d="M11116 11197l5 136c-15,70 -22,64 -79,87 -60,25 -97,-45 -106,79 -5,73 -49,62 -73,96 -19,27 -64,-9 -104,9 -7,3 -41,29 -62,39 -59,28 -28,6 -81,19 -31,8 -55,29 -78,48 -31,27 -102,61 -143,63 -72,3 -127,65 -127,138 0,33 69,54 99,81 76,69 69,78 110,167l4 8c23,75 33,154 48,231 8,41 22,75 -25,96 -51,23 -5,124 -16,169 -9,36 -1,90 13,123 16,40 24,58 -8,87 -27,25 -43,90 -22,123 17,27 38,104 22,138 -43,88 -113,1 -163,55 -12,13 -11,44 -11,61 -13,102 4,100 -74,176 -70,68 -36,109 -53,155 -2,5 -2,14 -2,20l-17 54 0 0c77,68 66,61 155,93 22,8 72,63 82,85 34,79 96,56 163,60 106,7 47,80 175,78 65,-1 137,41 196,55l7 3c110,27 148,33 241,-37 45,-34 79,-154 144,-213 83,-75 81,-79 138,-172 35,-57 63,-27 99,-62 5,-5 67,-42 83,-34 34,17 22,47 95,80 24,11 44,23 71,34 33,14 130,115 153,147 38,53 133,58 184,138 22,35 113,141 145,165 55,41 43,30 101,56 42,19 77,83 145,43 59,-35 59,-27 97,-94 48,-84 57,-210 200,-180 28,6 27,10 48,23 76,16 85,12 154,-9 32,-10 67,-40 114,-53 65,-18 59,58 164,80 56,12 216,21 225,95 1,10 -29,83 -24,123 12,82 21,70 58,140 10,19 25,32 40,46 53,147 20,49 132,111 44,25 12,77 70,112 37,23 20,2 59,38 38,35 60,28 78,-16 20,-48 86,-72 136,-47 67,33 118,19 168,83 33,42 149,34 198,37l0 0c1,-16 8,-184 22,-185 24,-3 46,10 76,-23 25,-26 43,-31 69,-70 34,-51 84,-60 134,-89 46,-27 36,20 64,45 116,101 99,4 191,-59 29,-19 28,6 42,26 20,30 13,69 86,33 50,-24 115,-73 175,-51 72,-57 84,-57 165,-91 51,-21 53,-34 118,-52 3,-1 8,-3 11,-4l79 -57 0 0c-1,-4 -3,-11 -3,-15 2,-41 -11,-45 -29,-76 -20,-34 -13,-20 -37,-41 -44,-40 -114,-48 -169,-67 -37,-13 -3,-16 -75,-34 -15,-7 -35,-20 -45,-33 -49,-61 -56,-69 -72,-143 -12,-57 -22,-145 -43,-197 -29,-72 -68,-136 -95,-203 -22,-56 -34,-108 -66,-158 -29,-46 -57,-64 -85,-100 -21,-27 -98,-70 -132,-76 -73,-13 -96,-42 -155,-77l0 0 -89 9c-24,0 -52,2 -73,2 -51,-2 -84,7 -125,6 -91,-1 -168,-4 -254,30 -30,12 -107,35 -138,30 -118,-18 -129,-125 -185,-157 -79,-45 -56,-124 -105,-178 -165,-181 3,-179 -62,-319 -21,-45 0,-55 11,-91 13,-41 25,-31 -34,-60 -39,-21 -25,-35 -94,-56 -74,-23 -135,2 -180,-7 -100,-19 -16,-64 -172,-32 -52,11 -130,-30 -174,-59 -35,-23 -135,-52 -176,-57 -38,-4 -55,-12 -85,-18 -43,-8 -97,-36 -123,-72 -35,-48 -31,-88 -41,-141 -15,-77 -7,-141 -54,-210 -46,-67 1,-113 0,-154 -2,-98 10,-96 -97,-130l0 0 -83 48c-24,21 -29,35 -42,60 -16,30 -91,120 -120,133 -90,41 -99,-12 -163,7 -110,34 -89,97 -172,39 -38,-27 -44,-63 -81,-85 -24,-14 -71,-109 -81,-136 -33,-89 -65,59 -56,112 7,43 2,121 -51,131 -6,1 -86,-8 -106,-8 -29,0 -92,-12 -104,-41 -22,-50 2,-55 -25,-120 -19,-45 -122,-49 -144,-59 -3,-2 -101,-87 -102,-88l0 0z"/>
  <path class="fil0 str0" d="M12448 11205c107,34 94,32 97,130 1,41 -46,87 0,154 47,69 39,133 54,210 10,53 6,93 41,141 26,36 80,64 123,72 31,5 47,13 85,18 41,5 141,34 176,57 44,29 122,70 174,59 156,-33 71,13 172,32 46,9 106,-16 180,7 69,21 56,35 94,56 59,29 47,19 34,60 -11,35 -32,45 -11,91 65,140 -103,138 62,319 49,54 26,133 105,178 56,32 66,139 185,157 32,5 108,-19 138,-30 86,-34 164,-32 254,-30 41,1 74,-8 125,-6 21,1 49,-2 73,-2l89 -9 0 0 -26 -89c-1,-8 -12,-23 -17,-30 -78,-98 -135,-60 -223,-112 -36,-21 -58,-90 -52,-127 16,-96 75,1 152,-14 59,-11 92,85 184,-67 58,-96 95,-13 151,-24 35,-7 17,-6 51,-7 39,-1 53,122 92,140 23,11 194,-13 249,2 59,16 107,-6 144,-53 39,-49 75,-18 87,-40 30,-54 14,-57 -2,-108 -8,-27 -43,-81 -65,-96 -102,-67 -25,-159 -88,-158 -46,1 -75,-20 -88,-20 -48,0 -52,-26 -20,-57 37,-35 69,-23 84,-30 26,-11 81,-2 79,-44 -2,-40 4,-85 8,-124 5,-10 9,-19 15,-27 66,-77 104,-46 192,-51 52,-3 56,-19 88,-28 69,-17 150,126 205,35 49,-82 45,-45 114,-45 35,0 64,12 74,12 34,-1 100,0 73,-53 -32,-62 -38,-105 -54,-171 -8,-33 -66,-97 -99,-107 -27,-8 -63,-33 -84,-52 -41,-39 -94,-69 -118,-119 -17,-36 -26,-63 -46,-99 -22,-82 -40,-128 -36,-214 2,-40 0,-46 9,-86 26,-113 99,-197 46,-309 -24,-50 -8,-164 30,-205 75,-79 74,-172 108,-269 -1,-29 15,-99 18,-143 4,-65 13,-142 43,-201 26,-51 -87,-66 -114,-60 -59,13 -69,-42 -100,-76 -20,-22 -46,-104 -53,-134 -12,-51 -27,-56 -35,-81 -13,-37 -110,-100 -148,-111 -76,-22 -22,-105 -132,-120 -90,-12 -49,8 -154,-36l0 0 -43 48c-8,18 -26,56 -41,68 -55,47 -119,79 -187,38 -48,-29 -150,43 -188,71 -72,54 -58,39 -135,51 -107,16 -115,-48 -159,-62 -133,-42 -134,6 -236,6 -34,0 -15,99 -14,120 4,77 91,179 75,245 -13,55 -31,60 -47,95 -15,32 -64,81 -84,119 -35,65 -82,54 -60,118 16,48 13,40 2,104 -1,8 -7,25 -11,31 -21,34 -18,50 -32,80 -14,31 -11,76 14,101 73,73 25,92 49,176 11,40 -9,60 5,82 35,54 122,45 177,62 62,19 52,31 59,77 20,128 -103,122 -103,214 0,30 -36,78 -62,91 -12,6 -89,16 -105,17 -49,3 -155,22 -204,32 -62,13 -101,-4 -156,-1 -53,3 -85,-6 -140,-11 -28,0 -57,5 -86,5 -41,0 -121,-11 -157,-31 -53,-29 -62,-25 -116,-37 -74,-16 -134,47 -179,58 -99,24 -182,78 -291,57 -8,-2 -121,-57 -125,-63 -26,-39 -55,-48 -71,-70 -54,-74 -112,-12 -118,58 -4,53 -19,78 -25,122 -5,37 -4,29 -2,74l0 0z"/>
  <path class="fil0 str0" d="M12144 4278l-116 44c-41,51 -30,38 -57,81 -30,48 -62,7 -108,92 -21,40 -152,90 -197,109 -26,11 -64,-7 -82,55 -13,43 101,68 80,139 -20,67 6,82 -8,130 -22,72 -118,2 -177,32 -48,25 -62,20 -106,35 -25,8 -30,64 0,79 54,27 35,80 21,129 -4,81 -25,77 -33,127 -7,44 38,120 10,171 -30,53 -3,27 -53,58 -52,32 -24,56 -51,100 -26,42 -37,30 -58,73 -17,34 -34,34 -33,82 1,53 -150,83 -3,212 22,19 51,85 76,119 7,10 13,18 18,29 39,98 56,61 112,132 8,10 2,57 7,81 2,10 1,20 1,30l9 72 0 0c65,50 28,24 70,43 9,4 35,64 35,76 -2,71 25,106 33,173 7,60 93,34 107,91 22,85 132,26 132,162 13,82 16,120 -18,198 -17,39 -51,60 -94,58 -70,-2 -67,96 -95,141 -45,71 -48,51 -115,89 -61,35 -90,-52 -202,60 -52,52 -25,104 -94,158 -49,38 -63,149 -95,205 -56,100 -109,29 -161,113 -6,10 -43,140 -48,149 -77,102 -33,70 -33,185 0,38 -43,105 -45,160 -1,20 5,99 -16,106 -77,24 -43,10 -120,10 -62,0 -127,-17 -164,52 -12,23 76,39 104,87 8,14 23,22 22,51 -3,79 76,74 98,129 14,37 -58,59 -33,106 19,51 35,84 66,126 15,21 6,65 -48,57 -53,-8 -78,4 -112,48 -18,24 -12,35 -42,69 -55,61 -120,102 -166,169 -16,24 -43,50 -56,80 -1,2 -23,41 -24,42l0 0c64,12 95,15 117,77 15,41 -5,64 40,95 40,28 92,68 132,91 46,26 66,73 56,124 -11,59 2,195 -5,218 34,83 22,97 99,144 22,13 100,88 118,95 27,10 119,40 119,74 0,73 -61,160 -6,224 30,35 116,26 111,141 -2,54 -10,50 5,111 15,57 28,70 51,121l0 0c1,1 99,87 102,88 22,11 126,14 144,59 27,65 3,70 25,120 13,29 75,41 104,41 20,0 100,9 106,8 53,-10 59,-89 51,-131 -9,-53 23,-201 56,-112 10,27 56,122 81,136 38,22 43,58 81,85 83,58 62,-5 172,-39 64,-20 74,34 163,-7 29,-13 105,-103 120,-133 13,-25 18,-39 42,-60l83 -48 0 0c-2,-46 -3,-38 2,-74 5,-44 20,-70 25,-122 6,-70 64,-133 118,-58 16,23 45,31 71,70 4,6 117,61 125,63 109,20 192,-33 291,-57 45,-11 106,-74 179,-58 54,12 63,8 116,37 36,20 116,31 157,31 29,0 58,-5 86,-5 55,6 87,14 140,11 56,-3 94,15 156,1 50,-11 155,-29 204,-32 16,-1 93,-11 105,-17 27,-13 62,-61 62,-91 0,-92 123,-86 103,-214 -7,-46 3,-58 -59,-77 -55,-17 -142,-7 -177,-62 -14,-21 7,-41 -5,-82 -24,-84 23,-104 -49,-176 -25,-26 -29,-70 -14,-101 14,-31 11,-47 32,-80 4,-7 11,-24 11,-31 11,-64 14,-56 -2,-104 -22,-64 25,-53 60,-118 21,-38 69,-87 84,-119 16,-35 34,-41 47,-95 16,-65 -71,-168 -75,-245 -1,-21 -20,-120 14,-120 102,0 104,-48 236,-6 44,14 52,77 159,62 77,-11 63,4 135,-51 37,-28 140,-100 188,-71 68,41 132,9 187,-38 14,-12 33,-50 41,-68l43 -48 0 0c52,-103 68,-148 64,-261 -4,-121 197,-167 177,-315 -4,-28 -6,-30 10,-58 19,-68 16,-115 -38,-160 -36,-30 -66,-110 -66,-155 0,-42 10,-100 0,-137 -6,-20 2,-44 -13,-77 -25,-57 20,-79 -50,-197 -10,-17 -17,-59 -10,-82 16,-53 47,-25 70,-110 14,-53 35,-120 85,-148 19,-11 44,-38 63,-53 -16,-77 -6,-54 -47,-100 -25,-29 -12,-29 -12,-71 0,-35 -43,-148 -59,-183 -8,-18 -34,-53 -51,-60 -8,-3 -71,-58 -79,-68 -66,-86 -85,-58 -151,-111 -34,-27 -29,-54 10,-70 102,-41 95,-29 171,-115 40,-45 97,-98 161,-87 50,9 51,-20 111,18 34,21 209,42 239,14 20,-19 25,-64 39,-92 -103,-98 -128,-142 -48,-265 6,-10 28,-51 34,-57l0 0c-15,-16 -28,-33 -37,-45 -23,-29 -79,-103 -110,-120 -53,-29 -59,-78 -96,-109 -59,-49 -56,-21 -116,-38 -24,-7 -124,-118 -148,-141l-6 -8c-57,-77 -147,-94 -234,-114 -108,-25 -198,47 -246,-84 -63,-174 -181,-115 -210,-290 -12,-71 25,-154 -58,-171 -99,-20 -133,-5 -241,-48 -60,-7 -131,-43 -191,-60 -70,-19 -74,-23 -132,-60 -41,-27 -53,-49 -94,-15 -55,46 -43,69 -111,115 -42,29 -194,36 -232,8 -59,-45 -135,3 -159,65 -19,47 -71,87 -120,87 -94,0 -74,49 -171,67 -54,10 -64,0 -114,-14 -38,-11 -115,-83 -139,-114 -44,-59 -44,-62 -101,-120l-7 -9c-50,-45 -42,-54 -77,-99 -52,-67 -23,-140 -86,-186 -62,-46 -279,5 -355,23 -96,23 -104,-128 -111,-190 -4,-35 -7,-72 -11,-111l0 0z"/>
  <path class="fil0 str0" d="M9072 15150l222 11c58,20 113,23 168,41 28,9 85,55 104,81 27,38 121,87 170,86 42,-1 82,18 130,10 124,-20 90,102 118,150 32,56 40,32 75,100 62,119 224,-61 272,41 34,73 85,44 128,-2 28,-30 93,-40 134,-34 79,12 145,23 224,42 54,14 91,14 145,41 52,15 45,16 81,33 46,22 174,45 231,59 108,28 174,125 230,214 12,19 81,69 108,113 35,56 173,188 227,221 68,41 89,50 128,121 30,63 74,113 126,159 17,15 72,85 74,107 7,61 6,51 -14,110 -18,53 -83,113 50,116 86,2 171,9 258,8 160,-2 325,15 485,13 83,-1 130,8 208,23 77,14 160,-67 223,-86 102,-25 171,-55 227,51 31,59 17,39 82,60 108,35 136,157 244,104 27,-13 82,-54 109,-19 30,39 166,-6 208,53 19,27 -98,114 -4,137 76,18 41,146 166,26 40,-38 114,-79 138,-3 36,113 78,131 177,58 69,-51 30,-99 56,-153 59,-121 135,-91 223,-179l28 -28 131 -63 -3 1c94,-30 59,0 118,-67 15,-17 29,-23 44,-47 27,-43 80,-97 114,-29 2,5 30,95 30,101 3,90 94,137 110,201 13,54 17,70 24,126 6,49 10,86 13,136 4,68 87,223 111,288l0 0c-31,29 -58,100 -57,144 1,62 -5,111 3,177 5,40 0,112 2,152 -16,96 23,104 15,169 -2,14 -8,33 -8,51l0 0c-21,49 -9,49 -10,93 -1,46 17,118 -8,161 -24,41 -1,18 -41,55 -40,37 -58,128 -137,185 -20,15 -39,28 -60,42 -31,20 -27,26 -71,48 -85,41 -228,118 -311,36 -50,-49 66,-183 -63,-209 -70,-14 -6,-100 -29,-144 -14,-27 -95,36 -118,21 -28,-19 -12,-40 -65,-27 -64,16 -197,-104 -31,-102 48,1 136,3 134,-66 -1,-47 -37,-35 -64,-41 -37,-8 -47,7 -93,-25 -53,-37 -44,-85 -127,-62 -78,22 -35,197 -178,211 -31,3 -132,-21 -70,-64 156,-109 6,-138 76,-190 23,-17 83,-20 85,-78 0,-14 -2,-48 -5,-62 -39,-90 -50,-54 -107,-65 -41,-8 17,-61 -71,-59 -37,1 -94,-16 -115,17 -57,90 -80,38 -112,38 -37,0 -89,20 -116,46 -24,24 -76,74 -108,75 -69,2 -86,42 -149,59 -76,21 -78,-16 -144,-48 -50,-25 -32,-37 -95,-55 -8,-2 -33,-12 -39,-17 -84,-3 -124,17 -203,38 -27,7 -80,42 -120,53 -45,12 -85,32 -109,-22 -14,-30 38,-169 -3,-174 -42,-5 -96,-144 -167,-8 -29,55 -109,115 -173,100 -50,-12 -36,-19 -57,-26 -34,-11 -109,17 -150,19 -35,2 -101,6 -132,20 -63,28 -147,-9 -137,-86 7,-54 1,-50 -5,-96 -8,-60 26,-81 -7,-157 -6,-14 1,-69 -8,-109 -10,-42 -20,-44 -65,-44 -94,-9 -85,-2 -132,-71 -17,-25 -16,-44 -62,-45 -25,-1 -43,10 -87,5 -84,-9 -93,-39 -196,-37 -48,1 -201,-41 -239,-70 -45,-34 -61,-34 -105,-76 -18,-17 -71,-51 -86,-71 -30,-38 -108,-127 -162,-111 -43,12 -168,53 -207,41 -103,-31 -5,-70 -3,-128 1,-25 1,-31 -17,-46l0 0 -26 -26c-6,-9 -14,-18 -22,-25 -52,-43 -63,-38 -92,-105 -33,-76 -8,-78 8,-155 11,-54 25,-124 -10,-170 -40,-53 -101,-76 -165,-77 -77,-1 -86,17 -132,-49 -11,-15 -124,-68 -145,-76 -42,-15 -76,-59 -98,-64 -75,-17 -23,136 -87,115 -27,-9 -57,-90 -61,-8 -3,63 13,110 66,146 46,31 -28,66 -64,49 -39,-18 -83,-41 -124,-56 -50,-18 5,-116 -98,-82 -30,10 -84,60 -101,84 -27,38 -93,18 -115,-6 -13,-15 -66,8 -83,17 -55,28 -65,-43 -65,-82 0,-74 0,-95 -19,-165 -16,-62 -34,-58 -39,-141 -2,-10 -9,-22 -13,-32 -45,-112 -111,-70 -135,-171 -12,-51 -57,-61 -104,-78 -79,-30 -68,-28 -153,-28 -114,0 -97,-34 -159,-63 -117,-54 -76,-106 -115,-182 -26,-52 -149,-96 -190,-135 -25,-24 -48,-40 -78,-55 -48,-24 25,-71 50,-80 64,-23 22,-13 65,-57 15,-15 57,-22 77,-23 54,-4 38,-15 71,-27 19,-7 72,66 77,78 15,32 42,17 48,-5 11,-41 34,-93 60,-127 29,-39 51,-160 109,-125 0,0 52,82 59,91 24,35 49,9 70,-6l0 0z"/>
  <path class="fil0 str0" d="M9483 14595c69,-10 -2,83 -15,109 -25,50 -57,94 -82,146 -38,78 -67,87 -131,138 -6,5 -13,10 -19,14 -70,51 -32,22 -89,47 -22,10 -42,78 -76,101l0 0 222 11c58,20 113,23 168,41 28,9 85,55 104,81 27,38 121,87 170,86 42,-1 82,18 130,10 124,-20 90,102 118,150 32,56 40,32 75,100 62,119 224,-61 272,41 34,73 85,44 128,-2 28,-30 93,-40 134,-34 79,12 145,23 224,42 54,14 91,14 145,41 52,15 45,16 81,33 46,22 174,45 231,59 108,28 174,125 230,214 12,19 81,69 108,113 35,56 173,188 227,221 68,41 89,50 128,121 30,63 74,113 126,159 17,15 72,85 74,107 7,61 6,51 -14,110 -18,53 -83,113 50,116 86,2 171,9 258,8 160,-2 325,15 485,13 83,-1 130,8 208,23 77,14 160,-67 223,-86 102,-25 171,-55 227,51 31,59 17,39 82,60 108,35 136,157 244,104 27,-13 82,-54 109,-19 30,39 166,-6 208,53 19,27 -98,114 -4,137 76,18 41,146 166,26 40,-38 114,-79 138,-3 36,113 78,131 177,58 69,-51 30,-99 56,-153 59,-121 135,-91 223,-179l28 -28 131 -63 -3 1c-14,-32 -71,-97 -73,-104 -70,-181 72,-244 72,-316 0,-28 -114,-17 -144,-35 -46,-27 -74,-57 -134,-40 -29,8 -93,12 -113,-15 -22,-29 -22,-39 -53,-77 -3,-13 -47,-65 -57,-77 -53,-64 12,-112 71,-124 106,-22 82,-114 122,-151 21,-19 43,-85 23,-103 -32,-30 -72,-96 -95,-135 -43,-71 -144,-59 -188,-89 -61,-43 4,-39 -111,-80 -36,-13 -76,-7 -97,-11 -72,-16 -80,26 -96,-77 0,-32 3,-51 5,-79 4,-57 56,-69 -11,-142 -82,-88 -81,-127 50,-93 25,6 59,-6 69,9 14,23 98,121 127,110 74,-30 111,-114 116,-189 2,-30 28,-49 55,-52 79,-8 23,-44 17,-54 -4,-7 -136,-66 -145,-69 -68,-19 -31,-51 -83,-100 -27,-26 -58,-87 -45,-125 16,-49 14,-11 29,-91l0 0c-50,-4 -166,4 -198,-37 -50,-64 -102,-50 -168,-83 -50,-25 -116,-2 -136,47 -18,44 -40,51 -78,16 -39,-36 -23,-15 -59,-38 -57,-36 -25,-88 -70,-112 -112,-62 -79,36 -132,-111 -15,-15 -30,-28 -40,-46 -38,-70 -46,-58 -58,-140 -6,-40 25,-113 24,-123 -9,-74 -168,-84 -225,-95 -105,-22 -99,-97 -164,-80 -48,13 -82,43 -114,53 -69,22 -78,26 -154,9 -21,-13 -19,-17 -48,-23 -143,-30 -152,96 -200,180 -38,66 -38,58 -97,94 -67,40 -103,-24 -145,-43 -58,-26 -46,-15 -101,-56 -31,-23 -122,-130 -145,-165 -51,-80 -146,-85 -184,-138 -23,-32 -120,-134 -153,-147 -27,-11 -47,-23 -71,-34 -73,-33 -61,-63 -95,-80 -16,-8 -78,29 -83,34 -37,35 -65,6 -99,62 -57,93 -55,97 -138,172 -66,60 -99,179 -144,213 -93,70 -131,63 -241,37l-7 -3c-60,-14 -131,-56 -196,-55 -128,3 -69,-71 -175,-78 -67,-4 -129,19 -163,-60 -10,-22 -59,-77 -82,-85 -89,-32 -78,-25 -155,-93l0 0 -5 1c-43,12 -128,34 -172,27 -27,-4 -65,23 -76,47 -17,38 -38,69 -52,100 -3,6 -67,82 -76,91 -36,36 -98,38 -82,95 9,31 -1,73 -27,94 -23,18 -35,43 -34,73 2,58 22,34 5,100 -16,67 3,45 -48,119l-123 192 0 0z"/>
  <path class="fil0 str0" d="M15722 17684c71,-66 57,-68 106,-148 1,-44 22,-85 84,-118 61,-33 91,-173 92,-237 2,-132 31,-201 71,-323 26,-79 4,-111 73,-187 47,-52 34,-127 142,-168 34,-13 160,47 194,61 83,35 82,-18 165,-44 58,-18 161,-72 104,-144 -46,-57 -58,-129 -41,-200 0,-2 1,-3 1,-5 -9,-55 -27,-80 -39,-134 -6,-29 9,-100 50,-53 38,43 95,58 140,92 40,30 79,-22 68,-79 -4,-20 -15,-176 -9,-189 24,-53 55,-73 38,-129 -33,-107 109,-171 66,-317 -11,-36 -78,-37 -119,-91 -25,-33 -67,-91 -68,-134 -2,-79 -7,-80 3,-153 7,-48 -36,-98 -68,-127 -94,-86 -117,-102 -114,-238 1,-20 4,-36 9,-50l0 0c-3,-4 -58,-20 -63,-22 -41,-17 -273,-82 -284,-91 -26,-23 -82,-51 -115,-60 -91,-26 -72,-51 -124,-84 -34,-22 -49,-49 -72,-69 -57,-51 -75,-186 -177,-184 -13,0 -127,27 -134,28l0 0 -79 57c-3,1 -8,3 -11,4 -65,18 -67,31 -118,52 -81,34 -93,34 -165,91 -60,-22 -126,27 -175,51 -73,36 -66,-3 -86,-33 -14,-21 -13,-46 -42,-26 -93,63 -75,160 -191,59 -28,-24 -18,-72 -64,-45 -50,30 -100,38 -134,89 -26,39 -44,44 -69,70 -30,32 -52,20 -76,23 -14,2 -21,169 -22,185l0 0c-15,80 -13,43 -29,91 -12,38 18,99 45,125 51,49 14,81 83,100 9,3 141,62 145,69 6,11 61,47 -17,54 -27,3 -53,22 -55,52 -5,74 -43,159 -116,189 -29,12 -113,-87 -127,-110 -9,-15 -44,-2 -69,-9 -131,-34 -131,6 -50,93 67,73 15,85 11,142 -2,29 -5,47 -5,79 16,103 24,61 96,77 20,5 61,-1 97,11 115,41 49,37 111,80 44,30 145,18 188,89 24,39 63,105 95,135 20,18 -3,84 -23,103 -39,37 -15,129 -122,151 -59,12 -123,60 -71,124 10,12 54,64 57,77 30,38 31,48 53,77 20,27 84,23 113,15 60,-17 88,13 134,40 30,18 144,7 144,35 0,72 -142,135 -72,316 3,7 60,73 73,104l0 0c94,-30 59,0 118,-67 15,-17 29,-23 44,-47 27,-43 80,-97 114,-29 2,5 30,95 30,101 3,90 94,137 110,201 13,54 17,70 24,126 6,49 10,86 13,136 4,68 87,223 111,288l0 0z"/>
  
  
  
  
  
  
  
  
  
  
  
  
  
  
  
  
  
  
  
  
  
  
  
  
  
  
  
  
  
  
 </g>
</svg>