<svg xmlns="http://www.w3.org/2000/svg" xmlns:xlink="http://www.w3.org/1999/xlink" xml:space="preserve" width="210mm" height="297mm" version="1.1" style="shape-rendering:geometricPrecision; text-rendering:geometricPrecision; image-rendering:optimizeQuality; fill-rule:evenodd; clip-rule:evenodd" viewBox="0 0 21000 29700">
 <defs>
  <style type="text/css">
   <![CDATA[
    .str2 {stroke:black;stroke-width:10;stroke-opacity:0.501961}
    .str4 {stroke:black;stroke-width:50}
    .str0 {stroke:#2B2A29;stroke-width:20}
    .str6 {stroke:#434242;stroke-width:10}
    .str1 {stroke:black;stroke-width:10}
    .str3 {stroke:black;stroke-width:10}
    .str7 {stroke:#2B2A29;stroke-width:7.62}
    .str5 {stroke:black;stroke-width:7.62}
    .fil5 {fill:none}
    .fil0 {fill:#FEFEFE}
    .fil7 {fill:#D9DADA}
    .fil4 {fill:#FEFEFE;fill-rule:nonzero}
    .fil3 {fill:#D9DADA;fill-rule:nonzero}
    .fil6 {fill:#434242;fill-rule:nonzero}
    .fil2 {fill:black;fill-rule:nonzero}
    .fil1 {fill:#FEFEFE;fill-rule:nonzero;fill-opacity:0.501961}
   ]]>
  </style>
 </defs>
 <g id="Plan_x0020_1">
  <metadata id="CorelCorpID_0Corel-Layer"/>
  <rect class="fil0" x="1000" y="1000" width="19000" height="27085"/>
  
  
  
  
  <path class="fil0 str0" d="M15351 1000l12 55c11,23 34,49 7,70 -10,8 -57,1 -23,21 58,34 103,131 103,198 -29,76 26,77 70,104 13,8 13,36 22,50 26,39 -96,124 -138,124 -68,0 -97,-182 -179,-131l-25 36 0 0c-33,-24 -89,-10 -120,-36 -50,-41 -12,-114 -68,-141 -61,-29 -26,-43 -46,-82 -18,-34 -95,24 -106,0 -13,-28 -70,-95 -94,-99 -60,-9 -24,-49 -40,-82 -7,-15 -30,-15 -31,-38l-10 -49 0 0 667 0 0 0z"/>
  <path class="fil0 str0" d="M15200 1526l-29 66c-7,53 -2,37 11,87 14,55 -57,76 -85,104 -44,45 -45,46 -107,43l-104 -6c-51,-3 -78,43 -134,56 -48,12 -42,112 -42,154 -2,29 -5,32 -23,54 -18,23 -2,96 -38,96 -44,0 -103,35 -103,86 0,58 -53,76 -53,122l0 0 -49 15 -112 -44c-77,-26 46,-110 -49,-110 -83,0 -66,-46 -135,27 -35,37 -70,-6 -95,-27 -61,-50 -103,-42 -164,-76 -59,-33 -169,34 -230,34l-67 58c39,54 48,114 -47,124 -66,8 -39,58 -98,67 -73,11 -98,59 -116,121 -21,75 -84,62 -120,96l-41 -21c-70,-22 -106,-48 -183,-48 -89,0 -88,-22 -153,-67 -32,-22 -64,-27 -97,-54 -45,-37 -78,-28 -133,-28 -79,0 -92,-7 -167,25 -59,25 -81,-25 -127,-48 -115,-57 -164,59 -254,93 -49,-29 -117,-84 -176,-91 -36,-12 -90,-14 -97,-59 -7,-44 6,-80 -14,-123 -33,-70 -1,-178 -94,-202 -9,-2 -44,-10 -46,-20 -5,-1 -1,-2 -10,-3l-123 0 0 0c8,-52 27,-102 70,-151 16,-56 17,-118 32,-175 23,-92 140,-101 156,-180 8,-44 -99,-133 -117,-187 4,-59 -14,-107 9,-167l29 -75c11,-28 45,-67 57,-93l0 0 2955 0 0 0 10 49c1,23 24,22 31,38 16,33 -20,72 40,82 24,4 81,71 94,99 11,24 89,-34 106,0 21,40 -14,54 46,82 56,27 18,100 68,141 31,25 87,12 120,36l0 0z"/>
  
  
  
  <path class="fil0 str1" d="M7697 22315l126 88c17,81 18,109 -21,184 -25,47 -66,70 -70,136 -4,68 -6,164 28,224 22,39 45,112 36,158 -13,64 -15,82 -41,146 -4,23 -13,58 -20,82 -16,62 45,100 76,144 51,72 16,174 141,204 76,18 135,33 214,40 63,6 151,11 177,81 18,49 -59,85 -90,108 -48,37 -71,55 -89,117 -18,60 7,111 45,156 23,27 32,28 49,63 63,95 65,149 -34,215 -82,55 -121,18 -179,76 -51,51 71,267 43,347 -30,87 -61,57 -129,79 -71,23 -104,65 -83,141 16,58 68,57 94,111l3 6c26,26 44,46 66,74 17,21 26,27 40,54 14,26 43,63 52,92 7,23 41,80 57,99 16,18 22,34 47,50 12,8 43,50 51,64 4,8 20,46 25,53l0 0 -77 6c-41,-3 -78,-2 -112,-28 -19,-14 -60,-47 -84,-44 -62,109 -15,230 -185,230 -31,0 -104,1 -125,28 0,29 6,52 10,79 3,20 -5,38 -5,58 0,30 27,70 -2,86 -78,43 -119,-11 -193,-11 -71,0 -67,-34 -101,-85 -16,-24 -50,-31 -62,-57 0,-29 -23,-59 -18,-88 5,-26 12,-46 23,-71 18,-43 21,-92 41,-131 13,-26 39,-34 54,-57 26,-43 -10,-89 -17,-130 -7,-54 29,-102 -23,-142l-157 -122c-34,-27 -35,-80 -83,-85l-192 -19c-76,-7 -144,-39 -222,-42 -36,0 -113,0 -135,-33 -28,-42 -72,-57 -91,-106 -10,-27 -16,-61 -36,-82 -52,-52 -312,47 -322,-20l2 -291 0 0 85 2c32,1 71,15 102,23 32,9 51,-53 41,-73 41,-8 83,-19 46,34 -40,57 94,126 94,58 0,-42 10,-82 -15,-115 -22,-30 -38,-15 -26,-54 5,-17 -20,-73 19,-45 12,8 14,42 30,39 25,-5 47,-53 76,-66 17,-8 77,17 102,17 20,1 35,5 54,10 15,4 35,10 50,9 22,-2 35,-46 38,-66 0,-97 1,-122 -89,-164 -62,-29 -153,-61 -141,-140 5,-36 5,-73 15,-108 6,-21 25,-32 35,-51 8,-18 0,-75 7,-84 -24,-71 -107,-95 -176,-123 -107,-43 -161,17 -191,-130 -4,-22 -46,-126 -30,-126l163 0c56,0 32,-48 32,-81 0,-59 7,-67 -34,-108 -38,-38 -8,-67 -23,-104 -8,-20 -49,-16 -62,-43 -25,-49 7,-76 -62,-88 -44,-8 -122,4 -154,-12 -61,-30 -128,-4 -194,7 -40,6 -50,-56 -69,-78 -48,-21 -63,-34 -61,-88l2 -111c2,-103 -44,-122 -114,-185 -27,-17 -38,-48 -72,-54 -41,-7 -57,-1 -86,-38 -2,-2 -7,-7 -13,-12l0 0 55 -79c-24,-35 60,-108 79,-138 15,-25 40,-52 43,-81 3,-25 6,-78 29,-94l14 -29 0 0 98 24c71,16 79,85 154,97 46,7 84,18 108,61 19,34 10,60 60,60 56,0 130,-3 167,43 40,49 63,79 128,98 155,32 268,199 393,283 77,51 130,109 226,99 30,-3 -15,-205 138,-172 62,13 64,79 129,79 78,0 22,-88 24,-128 2,-39 113,-161 147,-178 69,-34 115,5 134,-32l0 0z"/>
  <path class="fil0 str1" d="M7697 22315l126 88c17,81 18,109 -21,184 -25,47 -66,70 -70,136 -4,68 -6,164 28,224 22,39 45,112 36,158 -13,64 -15,82 -41,146 -4,23 -13,58 -20,82 -16,62 45,100 76,144 51,72 16,174 141,204 76,18 135,33 214,40 63,6 151,11 177,81 18,49 -59,85 -90,108 -48,37 -71,55 -89,117 -18,60 7,111 45,156 23,27 32,28 49,63 63,95 65,149 -34,215 -82,55 -121,18 -179,76 -51,51 71,267 43,347 -30,87 -61,57 -129,79 -71,23 -104,65 -83,141 16,58 68,57 94,111l3 6c26,26 44,46 66,74 17,21 26,27 40,54 14,26 43,63 52,92 7,23 41,80 57,99 16,18 22,34 47,50 12,8 43,50 51,64 4,8 20,46 25,53l0 0c35,50 78,89 67,132 -19,75 -59,88 -18,161 33,58 30,86 11,102l32 85c-2,25 52,147 70,169 18,22 91,40 122,59 75,47 177,15 237,72 57,54 155,62 232,57 13,-3 57,-9 82,-3l0 0 -14 -115c0,-33 -61,-76 -35,-112 62,-85 32,-143 85,-228 30,-48 -61,-139 -1,-171 35,-18 116,-12 99,-76 -23,-90 118,-84 95,-146 -26,-72 -129,11 -114,-156 10,-51 -92,-102 -42,-137 49,-34 91,-54 45,-115 3,-4 22,-34 19,-37 20,-27 -28,-79 29,-118 72,-50 133,44 220,-6 168,-97 723,-38 640,-370 -21,-128 144,-51 5,-190 -28,-28 -14,-150 -14,-197 0,-120 127,-256 -56,-286 -146,-25 -224,63 -197,-155 10,-26 38,-145 19,-167 -68,-79 -11,-219 64,-279 88,-70 60,-216 157,-86 104,139 335,26 442,-48 84,-58 301,-66 400,-103l0 0 -53 -64c-32,-64 -75,-48 -118,-87 -32,-30 -62,-86 -54,-131 8,-42 -2,-49 -9,-87l-96 -82 0 0 -58 -61c-44,-25 -135,-140 -156,-190 -27,-64 -5,-124 -43,-187 -24,-41 -8,-81 -29,-122 -27,-55 -91,-45 -124,-78 -55,-55 -135,13 -161,-36 -36,-67 -8,-51 -79,-85 -155,-17 -91,-57 -154,-155 -51,-80 -180,37 -230,-44 -33,-53 -42,-74 -110,-62 -92,17 -22,-115 -63,-161 -30,-33 -55,-23 -17,-75l-21 -57 0 0c-68,10 -152,102 -215,90 -92,-19 -129,-96 -225,-115 -121,-60 -179,-61 -310,-6 -91,38 -207,173 -304,173 -76,0 -70,-75 -156,-1 -71,61 -124,30 -204,117 -125,136 -201,86 -348,86 -34,100 -70,86 -16,189 34,65 79,159 66,236 0,35 -3,55 -9,67l0 0z"/>
  <path class="fil0 str1" d="M9301 19440l88 -223c47,-32 56,-39 105,-59 34,-14 42,-137 41,-169 -1,-41 28,-175 54,-204 14,-16 13,-21 34,-37 66,-50 91,-113 112,-191 4,-16 -6,-168 -6,-185l0 0c18,-1 34,-4 46,-9 160,-66 313,-43 465,-70 104,-19 59,108 170,94 121,-15 117,72 198,82l155 10c43,3 50,47 85,67 41,23 123,-76 176,-10 51,64 91,5 106,-50 15,-57 42,-77 86,-112 88,-71 7,-211 -10,-279 -46,-11 -142,-35 -114,-105 22,-57 -3,-112 6,-180 38,-34 85,-51 120,-88 46,-49 -49,-85 -21,-127 25,-37 75,-82 62,-135l18 -57 0 0 17 -81c6,-15 5,-24 5,-39 1,0 5,-7 6,-8 111,0 182,-28 236,81 18,36 132,149 111,184 -57,93 -60,22 -20,119 28,69 114,241 199,88 90,-162 181,52 218,-13 19,5 109,-111 191,-84l0 0c0,84 -163,173 -188,267 -17,77 -64,340 67,360 79,12 109,67 174,92 89,34 43,-130 116,-116 11,55 9,218 73,234 33,9 138,-89 176,-104 200,-76 44,90 -25,160 -141,142 109,109 180,109 88,3 147,65 92,148 -34,51 -5,99 -41,156 -24,39 -81,51 -67,107 20,82 117,61 139,127 19,57 -7,153 -7,212 -24,74 -168,29 -120,154 26,70 16,93 19,168 3,65 20,84 58,132 49,62 27,151 88,208 52,48 123,40 186,31l0 0 10 61c0,121 -11,147 -114,209 -76,45 -22,257 -172,174 -70,-39 -110,-46 -195,-31 -136,23 -128,-23 -192,-119 -36,-54 -109,9 -155,7 -40,-2 -93,-24 -135,-4 -55,28 -56,116 -66,167 0,43 -5,101 -33,134 -23,27 -85,49 -94,70 -12,28 -27,53 -60,63 -44,14 -56,29 -95,45 -58,25 -97,-19 -137,-8 -47,13 -54,133 -75,175 -15,29 42,55 5,90 -13,12 -89,26 -107,21 -3,10 -40,48 -50,85 -10,35 -64,16 -92,11 -133,0 -199,92 -323,117 -142,28 -49,-193 -180,-25 -50,64 -119,-35 -162,-56 -37,-18 -58,26 -95,-2 -33,-25 -48,-52 -93,-55 -148,-9 -157,23 -230,-119l-77 -94 0 0c29,-29 62,-40 99,-53 42,-14 31,-69 35,-104 56,-89 86,-67 55,-167 -10,-32 -62,-190 -106,-160 -85,59 -27,19 -120,19 -83,0 -81,-82 -112,-140 -15,-28 -44,-41 -58,-80 -33,-85 -73,-165 -62,-259 9,-72 -49,-70 -85,-124 -87,-87 -179,-178 -284,-242 -87,-54 -211,-120 -271,-204 -14,-19 -23,-39 -31,-59l0 0z"/>
  <path class="fil0 str1" d="M9301 19440l88 -223c47,-32 56,-39 105,-59 34,-14 42,-137 41,-169 -1,-41 28,-175 54,-204 14,-16 13,-21 34,-37 66,-50 91,-113 112,-191 4,-16 -6,-168 -6,-185l0 0c-85,4 -215,-37 -268,-77 -90,38 -90,57 -198,57 -133,0 -211,-94 -234,-221 -23,-127 48,-163 -106,-210 -70,-21 -99,-97 -157,-97 -45,0 -201,-10 -237,-26 -41,-18 -16,-83 -67,-97 -53,-15 -117,-1 -164,26 -41,24 -355,-45 -421,-76l-140 -141 0 0c-49,-19 -153,-76 -182,-119 -33,-29 -49,-55 -90,-77 -36,-19 -77,-22 -111,-39 -61,-31 -132,-98 -173,-10 -21,45 -57,63 -85,13 -13,-22 -79,-114 -99,-119 -37,-9 -69,27 -104,32 -50,6 -32,48 -23,87 5,23 18,37 34,51 14,12 15,7 7,22 -23,39 -31,130 -88,77 -62,-57 -63,-47 -137,-5 -53,30 -72,15 -117,-21 -62,-50 -19,73 -13,90 21,51 77,90 83,146 3,30 -4,92 -38,103 -44,44 -80,138 -80,200 0,20 13,53 -7,66l8 -10 165 27c29,48 45,118 114,128 45,6 138,37 138,93l0 0c56,20 110,27 166,2 39,-17 71,5 99,27 46,38 123,-16 192,5 65,20 135,90 203,121l294 150c96,49 212,25 306,78 147,81 86,240 294,289 154,36 196,158 348,199 45,36 62,89 126,104 98,23 200,-37 272,67 32,46 39,100 60,152l0 0z"/>
  <path class="fil0 str1" d="M13293 2634l36 273c11,75 12,117 35,192 17,56 32,93 62,143 44,73 102,155 152,224 6,8 55,115 54,121l0 0c-26,8 -56,10 -91,1 -26,-7 -125,-47 -77,23 20,30 92,85 7,85 -45,0 -80,-41 -130,-29 -77,19 -84,102 -112,161 6,68 56,203 -27,245 -112,56 -23,165 -61,249 -17,38 -100,70 -91,110 13,55 76,78 64,147l27 138 0 0 -44 7c-4,16 -19,40 -32,50 -69,51 -13,37 -13,85 0,11 -17,59 -24,67 -15,15 -45,8 -59,26 -30,36 -4,70 -15,109 -5,17 -25,23 -34,38 -11,19 -11,44 -17,65 -4,44 -27,100 -58,134l0 0c-35,-9 -100,-19 -130,3 -35,25 -79,12 -112,35 -35,24 -38,52 -62,80l-82 168 0 0c-5,-28 -70,-25 -93,-48 -12,-13 -34,-27 -34,-46 0,-19 29,-29 39,-45 8,-15 -4,-67 -13,-80 -18,-24 -19,38 -21,47 -4,18 -21,34 -40,30 -30,-6 -80,22 -80,-26 0,-33 -20,-53 -25,-85 -8,-48 63,-76 99,-91 38,-15 97,-72 126,-101 4,-39 -65,-72 -95,-56 -22,12 -36,27 -63,31 -43,7 -90,10 -119,50 -38,52 -66,93 -135,93 -59,0 -93,-95 -132,-125l0 0c31,-25 -35,-65 9,-93 10,-6 29,-1 35,-16 8,-21 -28,-51 13,-66 52,-20 0,-98 52,-111 71,-18 11,-84 65,-114 31,-22 54,-28 63,-71 11,-53 3,-118 -4,-172 -7,-61 32,-114 73,-155 23,-80 19,-212 15,-297 -2,-35 -19,-57 -25,-90 -3,-18 7,-35 2,-55 -4,-17 -14,-35 -20,-52 -10,-33 -48,-87 -21,-113 59,-56 -21,-137 -64,-172 -91,-74 -48,-78 -39,-183 -33,-32 -96,-69 -99,-121 -2,-38 50,-70 50,-118 0,-35 -41,-29 -66,-39 -44,-18 -41,-61 -96,-78 -47,-15 -16,-90 -57,-113 -49,-35 -112,-42 -157,-77 -57,-45 -77,-160 -122,-225 -25,-36 -54,-47 -63,-93 -7,-38 36,-104 54,-139 36,-115 3,-231 20,-340l0 0 123 0c8,1 5,2 10,3 3,10 38,18 46,20 93,23 61,132 94,202 20,43 7,79 14,123 7,46 62,47 97,59 59,8 127,62 176,91 90,-33 140,-150 254,-93 46,23 68,73 127,48 75,-32 88,-25 167,-25 55,0 88,-8 133,28 33,27 65,31 97,54 65,46 64,67 153,67 76,0 113,26 183,48l41 21c23,-21 57,-23 84,-40l0 0z"/>
  <path class="fil0 str1" d="M13293 2634l36 273c11,75 12,117 35,192 17,56 32,93 62,143 44,73 102,155 152,224 6,8 55,115 54,121l0 0c74,-22 122,-87 198,-72 131,27 195,-70 248,-177 17,-34 28,-140 64,-140 51,0 0,100 32,132 72,35 184,12 262,8 146,-8 41,-59 83,-147 25,-52 87,-43 105,-85 78,-188 272,33 379,33l0 0c-2,-59 2,-120 7,-173 4,-19 28,-116 23,-124 -28,-43 8,-72 -8,-116 -11,-30 -16,-61 -10,-94 3,-19 -6,-96 -24,-101 -2,-7 -70,1 -83,-2 -33,-8 -50,-24 -77,-40 -47,-30 -75,-45 -109,-88 -22,-27 -117,13 -151,5 -28,-7 -48,-20 -79,-20l0 0 -49 15 -112 -44c-77,-26 46,-110 -49,-110 -83,0 -66,-46 -135,27 -35,37 -70,-6 -95,-27 -61,-50 -103,-42 -164,-76 -59,-33 -169,34 -230,34l-67 58c39,54 48,114 -47,124 -66,8 -39,58 -98,67 -73,11 -101,58 -116,121 -7,29 -21,46 -37,56l0 0z"/>
  <path class="fil0 str1" d="M16003 3822l-15 49c-8,24 -27,71 -15,97 5,11 -19,47 -28,55 -48,47 -86,72 -61,146 26,78 -25,102 -37,178 -9,62 -18,186 33,232 21,19 69,-10 124,29 15,10 29,11 31,38 -15,49 -16,57 23,81 42,26 69,2 87,84 16,74 -13,154 -44,219 -2,5 -34,61 -36,65l0 0c22,20 36,47 66,62 63,12 63,64 143,44 107,-26 163,63 266,49 100,-13 168,19 274,-10 162,-43 175,139 360,92 65,-17 107,-92 180,-88 55,3 103,55 174,61 39,9 76,4 116,14 18,5 47,49 31,63 5,37 58,148 80,184 52,84 54,-105 133,-12 138,163 156,-68 348,-35 136,24 202,-30 272,-119 56,-72 111,9 167,-7 51,-15 88,-68 138,-90 130,-57 70,33 31,85 -88,117 142,67 195,90l0 0c1,-43 8,-91 -3,-131 3,-15 10,-121 5,-132 -13,-31 -78,-7 -46,-67 13,-24 16,-34 26,-57 19,-45 5,-28 -23,-51 5,-10 1,-19 12,-33 9,-11 24,-17 32,-27 15,-20 2,-61 -8,-81 12,-51 -3,-146 30,-182 52,-56 37,-109 50,-177 9,-48 0,-64 -5,-107l-48 -38 -1 1c-73,19 -193,-55 -270,-30 -31,10 -77,31 -108,31 -29,0 -54,-76 -51,-100 0,-79 -67,-20 -102,-5 -59,24 -93,-45 -147,-53 -22,-3 -80,29 -94,-10 -27,0 -43,136 -100,98 -36,-24 -125,-29 -119,-63 6,-37 35,-56 60,-79 223,-208 -265,-145 -285,-247 -17,-21 -22,-48 -54,-44 -47,6 -54,10 -101,-2 -79,-20 -113,74 -179,57 -35,-9 -73,-30 -106,-46 -34,-17 -40,-75 -44,-109 -6,-43 -100,2 -119,-5l-106 -36c-30,-10 -15,-44 -30,-65 -40,-56 -208,87 -246,51 -41,-38 -145,42 -191,66 -47,25 -39,62 -94,67 -85,-16 -136,-6 -216,10 -69,14 -84,-33 -150,-19 -41,9 -83,26 -124,31 -51,6 -44,-52 -80,-70l0 0z"/>
  <path class="fil0 str1" d="M13912 5775c-10,-13 -18,-51 -6,-63 9,-9 30,-3 43,-6 32,-8 63,-8 51,32 -3,10 0,23 -4,32 -5,13 -41,19 -54,16l-31 -11zm2151 -680c-10,-9 -21,-17 -37,-20 -70,-17 -139,18 -211,2 -39,-8 -58,-46 -92,-53 -54,-10 -111,60 -157,79 -78,31 -90,-50 -143,-66 -57,-16 -101,121 -150,155 -55,38 9,78 -12,121 -33,66 -80,10 -111,99 -29,51 -75,65 -88,121 -16,64 -70,66 -110,103 -27,25 -40,62 -69,88 -38,34 -93,11 -126,37 -68,54 -70,71 -155,47 -107,-30 -82,58 -120,113l-12 99 0 0c-26,-11 -110,40 -125,49 -41,23 -48,-49 -57,-71 16,-48 -16,-60 -39,-94 -24,-34 31,-63 18,-82 -15,-21 -41,-9 -57,-20 -24,-18 34,-59 1,-67 -15,-4 -39,10 -51,-2 -15,-15 -33,-11 -45,-24 -15,-16 -19,-41 -36,-52 -24,-15 -60,-11 -74,-39 -15,-31 1,-40 1,-70 0,-21 -16,-39 -16,-63 0,-43 -75,-25 -105,-25 -43,0 -9,56 -14,79 -8,32 -87,-14 -105,-19 -33,-7 -58,-85 -61,-117 -2,-19 -75,-4 -88,-1 -41,10 -46,-45 -52,-76 -10,-47 -54,-52 -58,-75 -17,-6 -48,29 -58,8 -9,-18 -25,-63 -26,-83 -9,-72 -42,-34 -91,-50 -41,-13 -29,87 -81,26 -71,-83 -77,-156 -94,-260 -8,-49 -15,-127 -15,-175l0 0 -27 -138c12,-69 -51,-91 -64,-147 -9,-40 74,-72 91,-110 37,-85 -51,-194 61,-249 83,-42 33,-177 27,-245 28,-59 35,-143 112,-161 50,-12 85,29 130,29 85,0 13,-55 -7,-85 -48,-69 51,-29 77,-23 135,34 186,-94 290,-73 131,27 195,-70 248,-177 17,-34 28,-140 64,-140 51,0 0,100 32,132 72,35 184,12 262,8 146,-8 41,-59 83,-147 25,-52 87,-43 105,-85 78,-188 272,33 379,33l0 0c1,35 5,69 13,100 67,0 110,-82 160,-132 80,-80 33,-11 114,23 126,53 -9,152 36,209 87,109 140,45 230,1 64,-8 28,-37 66,24 14,23 67,12 89,17 7,35 -11,81 18,104 20,16 54,-36 88,-11 36,26 106,32 95,84 -16,75 51,81 45,122 -7,72 -29,102 44,138l0 0 -15 49c-8,24 -27,71 -15,97 5,11 -19,47 -28,55 -48,47 -86,72 -61,146 26,78 -25,102 -37,178 -9,62 -18,186 33,232 21,19 69,-10 124,29 15,10 29,11 31,38 -15,49 -16,57 23,81 42,26 69,2 87,84 16,74 -13,154 -44,219 -2,5 -34,61 -36,65l0 0z"/>
  <path class="fil0 str1" d="M15843 25563c0,-66 -47,-97 -85,-143 -48,-57 -83,-134 -93,-208 -5,-38 2,-100 -10,-134 19,-50 24,-72 61,-110 33,-33 -1,-47 -32,-63 -124,-65 -100,-125 -120,-249 -7,-42 -121,-26 -137,-8 -30,34 40,144 66,169 61,61 10,144 -5,211 -5,51 -34,113 -55,160 -17,37 -51,75 -95,67 -95,-15 -79,15 -76,98 3,75 54,127 54,206 0,102 -143,69 -61,191 37,55 254,217 322,177 59,-35 19,-110 -25,-141 -23,-16 -52,-36 -45,-68 4,-15 33,-88 46,-88 19,58 -7,95 50,146 18,16 38,69 63,61 134,-39 131,-122 169,-236l8 -39zm-506 361c-40,-22 -83,-67 -126,-78 -62,-15 -59,19 -110,36 -33,11 -63,-3 -96,7 -55,16 -90,3 -138,-28 -63,-40 -98,-30 -30,25 53,43 82,47 100,121 29,118 -50,114 -68,207 8,41 14,84 14,127 0,39 -20,102 -1,137 82,16 137,-6 170,92 8,79 14,115 -15,196 -29,82 34,139 47,217 3,27 31,70 56,84 19,11 45,-6 63,13 45,46 32,-8 36,-37 3,-21 10,-40 17,-60 8,-22 10,-46 16,-69 23,-36 -52,-107 -69,-136 -16,-28 -13,-70 -13,-102 0,-17 -26,-61 -24,-65 -4,-6 10,-14 13,-17 15,-13 14,-40 30,-51 31,-21 17,100 15,110 -16,104 25,104 88,167 50,50 35,105 11,164 -3,26 -45,74 -33,96 15,27 111,95 142,111 22,11 36,31 60,38 32,8 26,-58 52,-58 11,42 67,126 110,50 4,-7 -15,-149 29,-102 23,25 32,69 75,48 35,-17 116,-19 132,-51 23,-46 17,-99 -4,-146 4,-39 -57,-63 -73,-97 -17,-36 -16,-85 -41,-119l-91 -125c-45,-62 -64,-79 -89,-155 7,-35 -18,-81 -9,-124 12,-60 57,-107 71,-171 15,-73 -15,-84 -69,-123l-247 -131zm-471 1485c-9,-30 -8,-80 -7,-113 4,-102 119,-18 167,12 51,32 113,49 141,108 47,98 -33,138 -121,135 -49,-2 -83,-10 -129,-29 -49,-21 -48,-39 -59,-86l7 -27zm-215 -171c-39,-63 -29,-67 -15,-135 8,-39 -37,-94 -66,-41 -18,33 -54,13 -80,1 -41,-21 -70,-45 -99,-81 -26,-32 -102,-117 -111,-152 -13,0 -19,72 -10,86 13,20 47,27 62,48 38,54 58,106 45,174 -7,38 -38,87 -29,127 9,33 35,78 60,101 35,33 57,-8 88,-20 18,-7 49,0 69,-1 30,-1 79,5 106,-4 30,-10 16,-58 1,-77l-20 -26zm-1225 188c-10,-44 -1,-123 51,-133 29,-6 99,35 121,54 25,21 14,67 14,96 0,67 -22,52 -75,52 -40,0 -85,2 -106,-36l-5 -33zm160 -248c-4,-54 -18,-102 21,-144 19,-20 12,-126 3,-151 -10,-29 -40,-60 -43,-90 -2,-19 21,-33 21,-50 0,-11 -33,-20 -38,-37l-24 -73c-11,-47 -36,-121 1,-162 24,-26 100,-129 130,-135 25,19 52,39 75,63 60,60 -13,106 15,167 28,61 23,112 43,175 34,26 133,180 113,221 -20,40 -56,45 -15,84 26,24 22,90 15,122 -31,64 -138,-72 -191,-58 0,30 119,82 135,137 13,43 1,112 -43,135 -13,7 -31,2 -45,3 -35,2 -36,34 -81,17 -28,-11 -17,-48 -36,-68 -45,-48 -125,-24 -74,-116l19 -40zm235 -517c3,-39 -24,-70 -30,-107 -8,-58 9,-45 44,-62 29,-14 43,-52 82,-55 59,-5 74,98 86,140 13,43 8,197 -57,204 -57,6 -12,-55 -50,-50 -11,2 -28,9 -39,5 -23,-7 -15,-28 -29,-39l-8 -35zm262 -362c0,-42 0,-88 15,-128 15,-39 1,-51 1,-87 0,-25 17,-39 29,-60 16,-28 21,-70 24,-101 7,-54 -31,-53 -73,-60 -78,-14 -184,290 -243,340 -23,20 -31,64 -24,94 9,31 17,83 47,101 34,21 53,2 83,-14 31,-16 64,48 94,60 47,19 38,-86 38,-112l8 -34zm-41 -586c-49,-54 8,-224 49,-273 47,-56 81,-11 120,26 52,49 100,12 150,34 6,23 -51,83 -65,106 -24,39 -25,159 -81,155 -22,-2 -34,-38 -58,-42 -20,-4 -59,1 -78,8l-38 -12zm-1182 1365c12,-37 14,-97 5,-136 -10,-40 -42,-71 -58,-109 -10,-25 -32,-29 -57,-26 -23,3 -80,-23 -72,11 7,31 53,71 53,100 0,49 7,85 -12,134 -15,37 -45,147 -1,173 22,13 61,-13 79,-26 37,-28 33,-52 45,-94l18 -29zm21 -214c-32,-15 -82,-56 -43,-88 68,-55 -4,-187 34,-215 16,-12 64,-3 88,-12 68,-24 88,60 41,95 -33,25 -100,13 -85,78 11,48 166,10 123,75 -10,15 -44,27 -60,39 -28,22 -21,39 -65,39l-33 -11zm-714 531c-7,-15 -47,-128 1,-104 17,8 23,56 26,73 1,9 5,19 7,28 4,16 -7,12 -17,16l-17 -13zm57 -365c-9,-39 -24,-78 -24,-121 0,-23 16,-33 20,-54 11,-60 8,-52 50,-99 17,-18 59,39 21,59 -34,18 -44,49 -38,87 10,61 97,22 108,88 6,33 31,70 11,101 -14,20 -36,34 -51,54 -11,15 -30,105 -64,50 -21,-35 -8,-85 -21,-121l-13 -44zm-160 -150c0,-33 5,-86 20,-115 18,-36 40,-51 46,-95 10,-71 21,-158 8,-227 26,-98 -9,-114 -58,-180 -39,-52 -53,-120 -89,-174 -49,-75 -161,245 -178,283 -8,18 -19,71 -28,82 -7,32 -36,62 -45,97 -13,50 -25,141 -60,178 -34,36 -47,102 -60,152 -7,57 -3,142 21,194 50,106 235,62 324,44 138,-27 95,-119 95,-230l2 -10zm-99 -945c-1,-1 -3,-3 -4,-4 -4,-1 -18,-15 -21,-19 -11,-13 -17,-31 -7,-46 6,-9 22,-19 33,-21 17,-5 32,19 39,33 5,10 9,19 4,29 -6,12 -10,23 -22,30l-23 -2zm3383 -1434c3,30 2,60 3,80 2,45 21,80 27,121 19,106 160,184 73,307 -27,38 -28,71 -44,113 -20,54 -44,46 -86,67 -31,10 -65,6 -88,33 -23,27 -23,64 -23,99 0,78 26,142 43,215 6,26 -40,45 -63,45 -14,-43 8,-91 -2,-138 -11,-54 -55,-105 -37,-166 -8,-50 -44,-43 -15,-101 16,-32 48,-45 72,-69 56,-56 29,-116 -23,-165 -17,-16 -64,-125 -67,-126 -15,45 14,76 33,113 18,44 77,84 60,138 -19,59 -102,68 -116,141 -10,50 26,88 35,133 0,37 -15,87 -2,123 10,26 11,69 8,98 -9,69 20,135 14,199 -3,25 -15,51 -18,72 -54,23 -116,5 -175,26 -76,27 -103,-84 -182,-84 -27,0 -97,64 -69,86 19,14 47,20 55,45 28,95 148,28 86,184 -21,52 -38,72 -49,131 -4,60 37,83 37,131 0,40 -40,55 -41,88 -3,79 62,135 138,124 64,-9 42,50 13,82 -32,36 -96,79 -86,134 13,30 25,58 35,90 7,24 -2,50 4,75 12,46 36,89 45,136 10,50 0,41 -42,62 -31,15 -39,62 -76,12 -40,-55 -71,-25 -45,-107 25,-53 25,-243 -36,-273 -40,-20 -58,11 -94,19 -33,7 -33,-76 -39,-93 -20,0 -14,57 -39,71 -33,18 -42,55 -4,76 45,25 171,-61 175,-11 4,50 1,102 -13,149 -23,74 -82,-7 -137,0 -50,6 -68,14 -113,-9 -59,-60 -102,-71 -116,-161 -10,-60 -69,-134 -61,-189 6,-40 50,-78 50,-119 9,-51 26,-83 41,-128 11,-33 -57,-82 -69,-115 -33,-95 15,-165 45,-250 22,-81 10,-160 29,-239 7,-28 16,-30 15,-61 -1,-31 -13,-77 -8,-106 38,-33 73,35 88,-42 6,-33 48,-91 78,-106 15,-8 76,-16 75,-33 -2,-28 -82,-10 -86,-32 -6,-30 -12,-97 9,-116 31,-27 -1,-28 -30,-33 -117,-24 70,-127 60,-164 -52,-13 -138,152 -185,174 -84,40 -112,-76 -76,-133 28,-26 56,-45 89,-66 37,-23 45,-87 59,-125 5,-12 41,-69 -1,-40 -14,10 -21,25 -31,39 -24,32 -39,76 -76,97 -91,61 -213,101 -101,221 76,82 176,66 156,211 -10,2 -34,28 -46,32 -11,3 -36,-17 -47,-20 -43,-14 -71,-3 -117,-26 -121,-61 -68,-117 -89,-227 -15,-79 -91,-112 -114,-190 6,-70 28,-73 55,-131 21,-45 12,-94 40,-134 17,-25 49,-38 69,-60 24,-26 33,-95 23,-126 -18,0 -29,56 -29,70 0,25 -24,51 -40,70 -42,49 -80,76 -94,144 -9,46 -39,60 -50,97 -3,23 -29,56 -13,84l40 67c28,47 28,154 8,203 -9,20 -78,99 -72,111 -18,66 -71,114 -68,187 2,54 34,113 51,164 13,38 -20,40 -13,74 4,19 -6,40 -21,51 -45,52 -115,79 -125,147 -14,106 -26,146 -73,243 -22,46 -45,3 -73,-16 -63,-42 -2,-84 -12,-124l-1 -1c-2,-1 -4,-3 -6,-2 -17,-10 -40,19 -57,-7 -13,-19 -32,-33 -47,-50 -55,-63 -13,-91 21,-150 42,-72 -14,-23 -37,7 -11,15 -30,37 -46,45 -22,11 -52,-13 -54,-11 -13,12 35,40 40,51 30,67 -13,162 16,232 18,42 17,83 -20,112 -41,29 -58,10 -98,20 -11,43 78,2 52,91 -17,60 -16,116 -30,175 -9,38 -48,46 -55,89 -7,41 23,98 41,132 21,65 8,107 -22,167 -20,40 -33,151 -90,103 -14,-38 -20,-53 -51,-79 -37,-32 -38,-62 -41,-108 -4,-66 74,-141 54,-202 -14,0 -25,58 -28,70 -6,22 -15,29 -32,41 -35,26 -17,93 -13,130 0,14 7,52 20,60 14,8 26,18 33,33 16,38 17,68 -30,79 -32,8 -44,29 -67,52 -38,38 -31,-30 -34,-50 -3,-21 -13,-25 -20,-42 -8,-21 -4,-44 -8,-66 0,-63 -68,-133 -11,-189 41,-41 109,-62 58,-131 -29,-40 -68,-19 -105,-27 -45,-11 72,-56 78,-64 15,-19 1,-40 34,-48 5,-24 -19,-33 -18,-56 -9,-19 -60,-54 -46,-76 17,-28 57,-31 74,-64 29,-59 -40,-118 -32,-180 6,-40 34,-81 20,-118 0,-31 7,-48 26,-72 11,-14 46,-21 37,-44 -8,-19 -32,4 -42,9 -9,5 -20,9 -29,16 -15,59 15,101 -17,159 -40,71 16,95 5,159 -8,48 -27,59 -55,94 -12,15 -7,35 -13,52 -18,37 -12,52 -61,52 -23,0 -53,-7 -67,16 -37,60 24,136 -10,187 -27,41 -48,36 -89,43 -31,-3 -71,14 -71,-33 0,-34 20,-80 11,-113 -22,0 -23,138 -40,162 -19,26 -49,-64 -55,-76 -18,-32 -56,-58 -28,0l29 61c20,42 56,77 71,116 33,87 1,111 -24,192 -13,30 -32,57 -36,90 -3,24 9,47 8,71 -3,57 21,51 39,98 31,82 -133,124 -183,94 -107,-66 0,-50 -7,-122 0,-106 -159,-82 -55,-193 49,-52 38,-141 -31,-172 -71,-32 -63,-29 -67,-97 26,-20 68,-40 52,-82 -11,-29 -43,-82 -24,-113 -9,-25 -8,-78 -4,-105 5,-34 0,-54 -1,-86 -53,-61 -52,-160 -98,-222 -45,-60 -82,-116 -119,-181 -23,-42 11,-58 5,-93 11,-43 43,-117 33,-159 -8,-32 -56,-98 -77,-125 -20,-26 138,-140 140,-189 64,-106 119,-186 126,-313 5,-86 7,-161 -35,-241 -6,-99 -54,-197 -124,-266 -55,-55 -275,-104 -355,-109 -42,-3 -148,22 -106,-56 37,-41 75,-48 78,-109 3,-70 -12,-91 32,-151 27,-37 33,-58 26,-104 -8,-49 -14,-91 -9,-141 8,-103 5,-187 106,-238 91,-46 85,-138 23,-211 -121,-121 0,-133 91,-156 105,-27 108,-97 189,-152 61,-41 134,-25 170,-102l0 0 121 3c24,1 57,20 73,36 24,24 48,123 24,152 -51,59 -80,30 -38,98 15,23 31,113 73,82 119,-86 119,13 234,-6 69,-11 147,34 169,-75 9,-43 20,-131 80,-131 93,0 135,-72 66,-135 -63,-57 -103,-87 -42,-164l95 -35 0 0 108 12c59,32 174,118 224,32 17,-29 39,-99 48,-132 12,-48 54,-94 64,-124 22,16 63,7 87,26 24,19 16,65 54,74 86,22 82,48 97,123 22,113 108,141 102,263 -2,36 143,179 180,201 21,44 36,108 67,146 28,34 81,47 105,80 41,56 82,135 133,179 59,51 290,-20 215,110 -33,56 -51,93 -48,159 2,40 -3,144 11,174 25,77 62,117 124,51 51,-54 47,-32 108,-20 40,8 75,12 95,54 21,41 15,99 70,112 53,13 158,-3 215,-3l0 0z"/>
  <path class="fil0 str1" d="M11789 25781c41,-51 96,-135 122,-195 20,-45 117,-145 111,-185 -21,-5 -164,33 -192,44 -75,27 -87,107 -116,175l-54 132c2,17 -37,138 -5,130 19,-5 37,-15 54,-26 21,-14 57,-41 70,-61l10 -14zm-798 -2539c-21,63 -12,61 2,123 7,30 -60,83 -62,132 -4,104 124,135 185,177 17,26 44,57 51,87 8,30 1,61 5,92 7,56 22,100 31,153 5,31 5,96 -4,127 -3,41 12,83 -15,110 -38,38 -36,64 -6,107 51,72 136,66 158,155 14,56 43,58 87,84 31,13 80,49 115,26 36,-24 34,-59 80,-17 69,64 148,116 241,75 72,-32 66,21 122,21 80,40 115,143 163,212 33,48 110,136 66,192 -23,30 -91,85 -125,103 -81,75 -198,160 -293,215 -117,68 -110,-11 -194,-59 -21,-37 -62,-63 -73,-108 -12,-50 -47,-74 -76,-113 -20,-26 -38,-58 -70,-71 -16,-6 -107,-12 -55,14 16,8 38,4 52,14 35,23 75,68 104,100 20,22 11,62 27,85 18,47 31,93 70,126 12,11 69,28 72,39 15,4 -16,72 -21,82l-45 94c-29,60 -37,138 -73,193 -24,55 -60,104 -81,159 -20,52 -41,119 -85,156 -78,66 -117,147 -203,209 -33,24 -60,64 -100,75 -40,10 -59,-18 -89,-18 -10,42 53,47 15,86l-133 138c-18,19 -59,38 -72,56 -21,30 -23,87 -69,91l-127 71c-46,26 -56,-25 -91,-10 -25,11 -49,40 -63,64 -28,50 -283,173 -334,156 -23,-7 -53,-30 -74,-23 -28,9 -31,29 -70,41 -61,0 -146,17 -199,45 -54,29 -99,-3 -142,30 -35,26 -64,42 -108,49l-80 13 0 0c-31,-42 -110,-81 -148,-119 -42,-42 -7,-97 1,-146 4,-27 3,-71 13,-94 10,-30 3,-42 -12,-64 -10,-15 10,-42 -3,-51 -51,-37 -82,-10 -82,-91 0,-28 -19,-42 -14,-77 1,-8 -6,-13 -17,-15l0 0 -14 -115c0,-33 -61,-76 -35,-112 62,-85 32,-143 85,-228 30,-48 -61,-139 -1,-171 35,-18 116,-12 99,-76 -23,-90 118,-84 95,-146 -26,-72 -129,11 -114,-156 10,-51 -92,-102 -42,-137 49,-34 91,-54 45,-115 3,-4 22,-34 19,-37 20,-27 -28,-79 29,-118 72,-50 133,44 220,-6 168,-97 723,-38 640,-370 -21,-128 144,-51 5,-190 -28,-28 -14,-150 -14,-197 0,-120 127,-256 -56,-286 -146,-25 -224,63 -197,-155 10,-26 38,-145 19,-167 -68,-79 -11,-219 64,-279 88,-70 60,-216 157,-86 104,139 335,26 442,-48 84,-58 301,-66 400,-103l0 0z"/>
  <path class="fil0 str1" d="M12434 23160c2,-5 5,-11 7,-17 13,-36 9,-85 52,-100l0 -3 143 -5c27,-8 59,-1 88,-9 52,-15 98,-53 120,-103 26,-59 1,-111 17,-165l16 -21 0 0 146 2c93,21 -26,177 118,143 99,-23 116,26 147,103l0 0 -95 35c-61,76 -22,106 42,164 70,63 27,135 -66,135 -60,0 -71,89 -80,131 -22,109 -100,64 -169,75 -115,18 -115,-80 -234,6 -42,30 -58,-59 -73,-82 -42,-68 -12,-39 38,-98 24,-28 0,-128 -24,-152 -16,-16 -49,-35 -73,-36l-121 -3 0 0z"/>
  <path class="fil0 str1" d="M12494 23044l0 -3c-74,-24 -90,4 -90,89 0,64 -111,88 -161,123 -45,32 -64,89 -105,115 -57,27 -119,5 -176,39 -46,27 -45,88 -35,135 8,40 27,48 43,79 10,18 43,62 19,81 -45,60 -120,71 -160,130 -29,43 -13,144 -13,195 0,34 9,93 0,124 -31,42 -51,86 -54,137 -2,36 8,93 -8,125 -26,56 -111,161 -183,123 -147,-78 -262,-153 -313,-326 -9,-121 18,-230 -20,-352 -11,-37 -5,-96 -22,-128 0,-62 -123,-129 -176,-134 -122,-11 -47,-152 -22,-209 11,-24 -9,-139 -26,-144l0 0 -53 -64c-32,-64 -75,-48 -118,-87 -32,-30 -62,-86 -54,-131 8,-42 -2,-49 -9,-87l-96 -82 0 0 154 -10c83,-16 79,-2 131,-67 24,-29 101,-19 137,-44 17,-12 -6,-187 42,-261 70,-109 -21,-407 167,-375 94,16 81,12 69,112 -7,65 16,277 83,307 78,35 94,41 141,-35 36,-58 51,-53 91,-8 74,82 163,-96 212,-17 77,125 76,2 157,84 15,23 34,83 62,87 31,5 38,-27 75,-17 61,17 145,-57 205,-21 90,53 155,7 249,36 74,23 172,-17 251,-6l0 0 -10 182 0 0 -16 21c-17,55 9,106 -17,165 -22,50 -67,88 -120,103 -29,8 -61,1 -88,9l-143 5 0 3z"/>
  <path class="fil0 str1" d="M14416 19962c38,20 63,51 107,41 50,-11 90,-19 90,42 0,62 14,53 62,82 25,16 78,33 68,-11 -12,-50 -27,-45 -6,-88 24,-49 28,-100 66,-24 12,24 27,8 45,15 44,18 13,44 84,26 59,-14 103,18 164,10 94,-12 62,7 122,67 16,-9 83,18 123,2 58,-23 87,-54 120,8 8,15 3,60 3,78 0,34 -53,14 -70,8 -14,9 -17,16 -29,29 -22,24 -70,26 -85,58 -7,15 -35,55 -32,68 18,88 -35,44 -49,90 -6,19 9,43 -18,51 -40,11 -38,32 -58,68 -12,14 -19,25 -41,24 -9,-1 -16,-9 -26,-8 -8,1 -6,16 -13,17 -1,3 -37,14 -44,19 -10,7 6,26 8,36 2,12 -36,58 -41,76 -4,16 37,39 42,58 10,42 -6,59 25,101 33,44 2,55 -17,89 7,36 18,61 -30,51 -13,-3 -88,-2 -47,19 43,22 21,32 34,64 8,18 37,34 14,55 -40,36 -56,39 -39,95 12,40 -8,57 35,37 173,-81 18,79 159,114 4,15 -19,43 -25,61 0,35 14,38 29,62 18,30 3,77 57,79 18,1 26,23 45,17 10,-3 44,-31 48,-29 2,-1 3,0 5,0 16,47 101,118 96,165 -4,32 -28,49 -28,83 0,28 9,69 -2,95 -12,32 -52,15 -72,44 -22,32 -68,39 -70,79 -2,26 -76,33 -38,75 22,24 -22,53 -2,86 15,25 33,32 39,63 15,78 150,54 150,164 -15,29 -48,9 -48,41 0,50 -85,94 -83,107l15 127c8,68 124,-22 102,64 -7,28 -44,44 -58,68 -19,30 -27,66 -27,102 2,54 32,65 75,78 14,4 52,122 53,141 4,84 42,131 61,209 11,29 38,32 26,67 -16,45 37,105 12,132 -21,22 -49,47 -74,64 -57,38 87,67 64,111 -11,22 -42,38 -26,66 20,34 14,49 14,88 -12,28 -4,94 -1,125 5,46 37,14 60,21 17,6 83,94 84,111 1,18 -73,3 -91,16 -29,21 5,48 24,58 47,25 11,118 48,118 38,0 68,-49 68,35 0,62 58,111 95,153 33,37 59,56 45,109 -11,43 -14,38 -1,81 11,36 -2,134 61,59 38,-45 69,2 37,45l-74 36 0 0c-40,-8 -58,32 -84,-14 -9,-16 -68,-54 -86,-65 -22,-22 -44,-50 -50,-81 -5,-28 20,-61 14,-90 -18,-101 -101,-60 -167,-60 -65,0 -59,-52 -73,-100 -19,-66 -68,-101 -68,-175 3,-37 10,-77 4,-114 -7,-41 4,-76 4,-116 0,-26 -31,20 -33,24 -19,32 -26,36 -60,16 -32,-20 -85,-83 -108,-113 -16,-22 -36,-25 -24,10 8,24 25,45 38,67 25,44 121,103 121,152 -16,47 -27,137 32,156 36,12 47,55 51,98l0 0c-57,0 -162,15 -215,3 -55,-13 -50,-71 -70,-112 -21,-42 -55,-46 -95,-54 -61,-12 -58,-34 -108,20 -62,66 -99,26 -124,-51 -13,-30 -8,-134 -11,-174 -4,-66 15,-102 48,-159 76,-130 -155,-59 -215,-110 -52,-44 -92,-123 -133,-179 -24,-33 -77,-46 -105,-80 -30,-38 -46,-102 -67,-146 -37,-21 -181,-165 -180,-201 5,-122 -81,-149 -102,-263 -14,-75 -11,-101 -97,-123 -37,-9 -30,-55 -54,-74 -24,-19 -65,-10 -87,-26 -10,30 -52,76 -64,124 -8,34 -31,104 -48,132 -50,86 -165,0 -224,-32l-108 -12 0 0c-30,-77 -48,-126 -147,-103 -144,34 -25,-122 -118,-143l-146 -2 0 0 10 -182 0 0 11 -248c-17,-87 -64,-198 -51,-286 13,-89 65,-135 85,-214 12,-50 30,-88 32,-141 3,-58 42,-78 54,-123 21,-5 49,-98 55,-119l7 -131 0 0 141 -2c98,9 165,70 259,53 103,-20 132,62 212,62 62,0 353,56 384,95 37,47 169,127 218,56 43,-62 -88,-96 -23,-184 77,-104 -55,-190 41,-302 25,-29 10,-231 14,-288 36,-74 -88,-94 5,-179 39,-36 51,-104 36,-153 -17,-54 -52,-71 -6,-123 46,-52 86,-105 54,-174 -33,-70 -53,-99 3,-193l0 0z"/>
  <path class="fil0 str1" d="M13080 21293l-7 131c-6,21 -34,114 -55,119 -11,45 -51,65 -54,123 -2,53 -20,91 -32,141 -19,79 -72,124 -85,214 -13,89 34,199 51,286l-11 248 0 0c-79,-11 -178,29 -251,6 -94,-29 -159,17 -249,-36 -60,-36 -144,39 -205,21 -37,-10 -44,21 -75,17 -28,-4 -47,-64 -62,-87 -81,-81 -80,42 -157,-84 -49,-79 -138,98 -212,17 -40,-44 -55,-49 -91,8 -47,76 -63,69 -141,35 -68,-30 -91,-241 -83,-307 11,-101 25,-96 -69,-112 -188,-32 -96,266 -167,375 -48,74 -25,249 -42,261 -36,25 -113,15 -137,44 -52,65 -48,51 -131,67l-154 10 0 0 -58 -61c-44,-25 -135,-140 -156,-190 -27,-64 -5,-124 -43,-187 -24,-41 -8,-81 -29,-122 -27,-55 -91,-45 -124,-78 -55,-55 -135,13 -161,-36 -36,-67 -8,-51 -79,-85 -155,-17 -91,-57 -154,-155 -51,-80 -180,37 -230,-44 -33,-53 -42,-74 -110,-62 -92,17 -22,-115 -63,-161 -30,-33 -55,-23 -17,-75l-21 -57 0 0 -8 -27c-41,4 -69,-7 -93,-38 27,-36 36,-87 95,-76l104 19c84,15 149,105 224,128 40,12 141,-73 168,-104 34,-40 -28,-307 85,-270 132,44 86,-130 184,-130l66 32 0 0 77 94c73,142 82,111 230,119 45,3 60,30 93,55 38,29 58,-15 95,2 43,21 112,120 162,56 131,-168 38,53 180,25 124,-25 190,-117 323,-117 28,5 82,24 92,-11 10,-37 47,-75 50,-85 18,5 94,-9 107,-21 38,-35 -19,-60 -5,-90 21,-43 28,-162 75,-175 40,-11 79,33 137,8 39,-17 51,-31 95,-45 33,-11 48,-35 60,-63 9,-22 71,-44 94,-70 28,-33 33,-90 33,-134 10,-52 10,-140 66,-167 42,-21 95,2 135,4 46,2 119,-61 155,-7 64,96 56,143 192,119 85,-15 125,-8 195,31 149,83 95,-129 172,-174 104,-61 114,-88 114,-209l-10 -61 0 0 68 -38c122,46 79,150 24,233 -58,87 2,158 86,174 219,44 -87,181 36,277 63,50 64,106 -26,84 -91,-22 -96,70 -113,129 -21,34 -59,36 -85,64 -39,42 -38,81 -38,135 0,43 -25,94 -31,138l0 0z"/>
  <path class="fil0 str1" d="M5574 22403l55 -79c-24,-35 60,-108 79,-138 15,-25 40,-52 43,-81 3,-25 6,-78 29,-94l14 -29 0 0c0,-98 0,-131 102,-153 37,-8 137,-85 158,-117 32,-48 27,-65 91,-85 82,-25 40,-133 35,-189 -6,-66 -63,-81 -39,-159 14,-46 74,-80 98,-128 12,-25 6,-67 21,-85 34,-38 54,-51 44,-105 34,-101 -35,-152 52,-248 85,-93 -108,-106 -91,-220 10,-66 38,-127 77,-181 42,-58 17,-165 98,-149 76,15 34,-59 44,-88 -12,-31 -58,-59 -58,-88 0,-37 42,-27 57,-56 13,-25 -6,-131 -25,-154 -45,-52 30,-93 23,-129 -9,-49 -36,-120 42,-144 34,-10 137,-103 157,-136 9,-15 53,-94 56,-107 6,-25 -11,-56 4,-73 18,-11 55,-91 36,-107 -33,-29 -108,8 -142,-13 -98,-61 104,-129 145,-131 81,-5 57,-89 110,-109 29,-11 60,42 80,-6 14,-35 -9,-69 -18,-101 -16,-59 -41,-181 -92,-215 -74,-49 32,-72 51,-107 13,-24 -1,-54 16,-74l17 -78 0 0c0,-56 -94,-87 -138,-93 -69,-10 -86,-79 -114,-128l-165 -27 -8 10c-29,20 -52,22 -80,48 -24,22 -76,-18 -101,-26 -36,-7 -60,-33 -87,-38 -42,-8 -77,12 -117,21 -86,20 -155,19 -241,53 -37,15 -105,55 -141,58 -47,16 -85,54 -131,72 -40,15 -68,2 -108,32 -102,75 -137,15 -237,10 -47,-2 -124,28 -170,41 -60,27 -39,71 -75,92 -38,22 -73,7 -86,59 -6,23 -45,30 -63,42 -34,24 -8,65 -61,76 -39,8 -56,59 -72,92 -14,28 -3,48 -5,76 -3,33 21,63 1,90 -13,18 -43,59 -26,75 11,11 39,13 46,25 14,23 -39,46 -53,54 -31,17 1,55 -45,78 -23,11 -13,22 -13,41 0,26 -28,16 -44,11 -32,-10 -26,-20 -65,-8 -63,50 -20,47 -2,105 5,16 -88,23 -104,6 -16,-17 1,-62 -29,-60l-110 9c-21,2 -11,41 -28,50 -20,10 -73,-81 -70,-105 3,-27 27,-82 -15,-84 -43,-2 -88,11 -130,11 -65,0 -41,-60 -97,-51 -49,8 -141,4 -93,-75 38,-61 80,-34 18,-115 -75,-76 50,-133 2,-193 -13,-17 -208,-55 -237,-52 -21,2 -48,15 -69,11 -27,-6 -28,-33 -53,-43 -87,-35 -117,33 -181,58 -78,78 0,106 23,180 10,33 75,147 63,165 -12,18 -83,65 -104,74 -24,10 -49,17 -75,22 -44,20 -54,66 -107,64 -50,-2 -85,-8 -132,13 -22,10 -47,-37 -61,-51 -75,-75 -234,-70 -237,58l-9 81c17,2 34,-2 59,-1 64,4 10,92 58,128 45,32 9,36 -23,53 -138,73 39,121 -57,204 -19,17 -24,48 -24,73 0,21 -38,62 -55,74 -48,35 -112,44 -94,125 7,34 -30,71 -15,113 13,38 0,98 28,125l1 108c30,64 81,47 139,47l47 -6c22,84 57,255 97,292 28,26 86,16 106,43l85 -36c15,-2 28,-17 44,-17 19,0 21,37 51,16 35,-24 50,-30 89,-39 27,-6 68,-40 84,-40 12,25 84,-7 95,24 11,30 29,140 55,147 19,6 66,45 78,41 45,-17 35,12 72,25 36,29 100,-2 134,21 21,15 64,6 55,35 -21,69 45,83 52,138 5,39 16,36 46,51 28,14 40,41 51,69 1,44 44,50 78,45 50,-6 39,93 136,93 41,0 122,17 151,-17 25,-30 142,-95 166,-48 36,68 130,93 198,67 57,-20 120,40 181,56 43,11 33,-58 67,-55l163 13c33,3 288,-19 208,81 -18,23 17,40 36,35 36,-10 27,-67 95,-71 77,-4 -28,127 -67,140 -24,8 -58,-4 -77,9 -36,25 -39,41 -83,12 -32,-21 -66,-7 -80,27 0,41 -41,20 -67,34 -39,21 -19,44 -29,60 26,33 96,32 102,73 7,39 -14,37 -41,57 -26,19 33,84 -34,101 -40,10 -22,93 -24,129 -17,43 -52,55 -41,103 4,17 -28,74 -32,98 -13,79 50,85 107,96 34,6 88,86 107,117 29,62 114,80 132,137 4,14 16,33 29,39 11,6 3,-44 5,-52 2,-11 77,-46 90,-46 11,0 100,66 135,95l0 0z"/>
  <path class="fil0 str1" d="M5793 21982l98 24c71,16 79,85 154,97 46,7 84,18 108,61 19,34 10,60 60,60 56,0 130,-3 167,43 40,49 63,79 128,98 155,32 268,199 393,283 77,51 130,109 226,99 30,-3 -15,-205 138,-172 62,13 64,79 129,79 78,0 22,-88 24,-128 2,-39 113,-161 147,-178 92,-46 143,39 143,-99 14,-77 -31,-171 -66,-236 -54,-103 -18,-89 16,-189 147,0 223,50 348,-86 80,-87 133,-56 204,-117 87,-74 80,1 156,1 97,0 213,-135 304,-173 131,-55 189,-54 310,6 96,19 133,96 225,115 63,13 147,-80 215,-90l0 0 -8 -27c-41,4 -69,-7 -93,-38 27,-36 36,-87 95,-76l104 19c84,15 149,105 224,128 40,12 141,-73 168,-104 34,-40 -28,-307 85,-270 132,44 86,-130 184,-130l66 32 0 0c29,-29 62,-40 99,-53 42,-14 31,-69 35,-104 56,-89 86,-67 55,-167 -10,-32 -62,-190 -106,-160 -85,59 -27,19 -120,19 -83,0 -81,-82 -112,-140 -15,-28 -44,-41 -58,-80 -33,-85 -73,-165 -62,-259 9,-72 -49,-70 -85,-124 -87,-87 -179,-178 -284,-242 -87,-54 -211,-120 -271,-204 -49,-70 -47,-148 -91,-211 -71,-103 -174,-44 -272,-67 -64,-15 -81,-67 -126,-104 -152,-41 -194,-163 -348,-199 -208,-49 -148,-208 -294,-289 -94,-52 -210,-29 -306,-78l-294 -150c-68,-30 -137,-100 -203,-121 -68,-21 -146,33 -192,-5 -27,-23 -60,-45 -99,-27 -55,24 -110,17 -166,-2l0 0 -17 78c-17,20 -2,50 -16,74 -20,36 -125,58 -51,107 51,34 76,156 92,215 9,33 32,66 18,101 -20,48 -51,-5 -80,6 -52,19 -29,104 -110,109 -41,2 -243,71 -145,131 34,21 109,-16 142,13 19,17 -17,96 -36,107 -14,17 2,48 -4,73 -3,13 -47,92 -56,107 -20,33 -123,126 -157,136 -78,24 -51,96 -42,144 7,36 -67,77 -23,129 19,23 38,129 25,154 -15,29 -57,19 -57,56 0,30 47,57 58,88 -10,30 32,103 -44,88 -81,-16 -56,91 -98,149 -39,54 -67,115 -77,181 -17,114 175,126 91,220 -87,96 -19,147 -52,248 10,54 -10,67 -44,105 -15,17 -9,60 -21,85 -24,48 -84,81 -98,128 -24,78 34,93 39,159 5,56 48,163 -35,189 -63,19 -59,37 -91,85 -21,32 -122,109 -158,117 -102,22 -102,55 -102,153l0 0z"/>
  <path class="fil0 str1" d="M11131 12705l36 107c-3,41 -18,108 -6,146 28,89 155,124 184,221 15,51 -26,111 4,162l166 251 0 0c-24,62 66,134 101,186l147 218c25,94 134,216 206,280l135 121c34,31 100,56 115,101 54,115 168,97 267,126 84,25 167,137 219,205 41,98 220,138 312,118 141,-32 192,-65 321,21 28,-2 96,67 129,81 30,12 86,-2 108,11 28,18 119,202 129,242 20,3 69,-218 135,-124 31,45 33,83 99,53 58,-27 55,30 118,11 26,-22 41,18 64,-8 56,-62 205,-19 257,33 81,82 90,252 82,359 -18,34 -8,124 -14,165 -14,96 96,137 10,223 -33,33 -54,59 -101,70 -52,12 -79,21 -57,69l0 0c-60,12 -142,90 -162,143 -24,64 -111,106 -63,179 28,44 72,82 17,127 -43,35 -96,54 -147,20 -82,-55 -44,-151 -97,-196 -22,-19 -79,-32 -107,-32 -17,52 -47,109 -62,167 -15,58 -43,65 -102,78 -35,79 38,97 23,159 -43,11 -56,51 -93,64 -34,12 -111,-38 -118,27 -7,61 108,103 145,141 43,44 -39,68 -83,38 -89,-59 -71,65 -60,116 6,25 66,257 -27,224 -34,-12 -17,-101 -43,-124 -55,-49 -61,96 -77,116 -18,22 -19,93 -49,91 -19,-2 -18,-52 -41,-66 -67,-41 -156,83 -181,-17 -68,-17 -89,76 -170,63 -87,-14 -135,31 -206,31 -30,0 -57,-8 -86,-8 -29,0 -88,63 -77,88 -19,24 -26,61 -64,62l-122 7 0 0c-82,-27 -172,89 -191,84 -37,65 -128,-149 -218,13 -85,152 -171,-19 -199,-88 -40,-98 -37,-26 20,-119 21,-35 -93,-148 -111,-184 -54,-109 -125,-81 -236,-81 -1,2 -5,8 -6,8 0,15 1,25 -5,39l-17 81 0 0c-34,-17 -100,-36 -100,-76 0,-50 -56,-74 -101,-67 -46,7 -64,29 -87,-24 -10,-22 -26,-31 -43,-47 -75,-75 -177,-211 -75,-313 82,-82 -45,-146 -45,-232 0,-39 27,-120 63,-136 -7,-10 -20,-86 -19,-99 39,-118 134,-68 163,-144 28,-75 0,-92 54,-173 27,-40 -38,-64 -44,-101 -13,-83 76,-81 1,-154 -51,-49 120,-105 120,-123 0,-16 -78,-86 -6,-86 46,0 92,13 135,13 105,0 36,-22 70,-79 19,-32 28,-5 38,-56 3,-27 -8,-76 6,-97 22,-34 65,8 91,-16 58,-52 -35,-148 -27,-209 8,-64 -36,-74 -60,-125 -42,-90 -90,-66 -139,-129 11,-44 -73,-102 -13,-152 65,-54 43,-54 51,-140 4,-53 12,-112 -19,-158 -27,-40 -21,-62 -12,-107 23,-120 -87,-74 -113,-150 -19,-55 -9,-110 -46,-160l-133 -54 0 0c5,-12 13,-24 28,-38 70,-66 -39,-77 -13,-121 12,-20 17,-63 27,-75 30,-32 45,-30 45,-84 0,-17 -8,-73 -32,-73 -2,-7 -34,0 -39,-20 -11,-43 26,-81 26,-118 0,-26 25,-91 -11,-100 -31,-8 -21,-40 -44,-54 -12,-8 -93,5 -117,1 -66,-10 -64,-46 -114,-73 -2,-2 -5,-4 -7,-5 -3,-9 -65,-25 -46,-44l55 -58c46,-48 7,66 77,36 24,-10 83,-24 88,-50 7,-38 9,-50 29,-83 15,-27 -18,-85 -10,-117 6,-22 23,-16 36,-6 22,16 46,1 68,-7 47,-32 -7,-76 8,-112 12,-28 15,-70 33,-91 14,-16 40,-11 58,-17l0 0z"/>
  <path class="fil0 str1" d="M12240 17650l122 -7c38,-1 45,-38 64,-62 -11,-25 49,-88 77,-88 29,0 56,8 86,8 71,0 119,-45 206,-31 82,13 103,-80 170,-63 25,100 115,-25 181,17 22,14 21,64 41,66 30,3 31,-69 49,-91 17,-20 23,-165 77,-116 26,23 9,113 43,124 93,32 33,-199 27,-224 -12,-51 -29,-175 60,-116 44,30 127,5 83,-38 -38,-38 -152,-80 -145,-141 7,-66 84,-15 118,-27 37,-13 50,-54 93,-64 15,-62 -58,-80 -23,-159 59,-12 88,-19 102,-78 15,-58 45,-115 62,-167 29,0 85,14 107,32 53,45 14,141 97,196 51,34 104,14 147,-20 55,-45 12,-83 -17,-127 -48,-73 39,-115 63,-179 20,-53 102,-131 162,-143l0 0c1,3 3,7 5,10 12,31 15,37 49,16 74,-46 33,27 51,66 7,15 -4,39 -3,56 1,22 53,22 36,50 -18,28 -1,31 17,49 12,12 16,22 10,38 -9,24 18,28 4,57 -15,32 -31,61 -34,98 -8,14 11,71 34,41 30,-41 72,-84 89,-9 13,56 15,65 -55,65 -42,0 -33,16 -35,47 -1,24 -36,39 -17,69 9,15 22,17 17,38 -8,33 21,51 15,75 -3,14 -16,8 -24,17 -6,7 -7,35 -8,44 -28,39 -9,15 -46,30 -22,9 -59,-14 -80,4 -16,13 12,45 -23,54 -11,3 -42,-4 -45,10 -13,57 -49,33 -71,63 -19,27 -6,64 -48,85 -26,13 -30,-7 -52,-16 -28,-10 -53,32 -74,8 -16,-18 -47,-54 -74,-26 -4,8 -3,60 -30,29 -25,-28 -63,1 -83,19 -47,43 41,24 32,65 -6,28 -8,55 15,76 14,13 31,30 32,51 2,40 -41,14 -33,55 10,52 -27,27 -47,59 -17,46 -120,34 -41,68 65,28 34,39 34,88 0,25 -41,32 -28,58 9,18 32,28 24,51 -9,29 -42,55 -54,87 -9,24 5,78 5,105 18,37 40,52 18,93 -15,28 22,53 -23,71 -93,37 68,93 86,110 35,31 -7,50 1,91 8,39 35,17 66,38 24,16 101,-23 138,-28 61,-8 -14,44 26,85 57,37 22,155 101,171 89,18 23,56 71,82 42,22 27,49 57,73 24,19 110,26 121,47 23,46 25,115 98,115 18,-6 37,3 54,-2 14,-4 18,-57 38,-73 11,-9 48,-20 64,-30 1,1 1,1 2,1 13,39 25,68 -5,101 -32,34 65,161 -21,179 -30,6 -63,-43 -79,-20 -22,33 -23,67 -25,106 5,28 -5,53 -22,73 -20,24 20,89 28,122 5,22 11,41 2,63 -12,33 -50,-36 -54,39 -2,29 -24,10 -41,21 -20,14 -1,21 -3,36 -3,21 -44,63 1,71 31,5 47,17 36,51 -5,25 -25,56 -52,39 -6,-3 -10,-21 -14,-28 -21,-33 -20,4 -18,21 2,12 1,35 -16,35 -23,0 -31,-50 -78,-34 0,15 -34,33 -20,53 12,17 39,7 46,35 11,44 39,36 35,82 -2,26 11,60 36,73l0 0c-56,94 -35,123 -3,193 32,69 -8,123 -54,174 -46,52 -11,69 6,123 16,48 3,117 -36,153 -93,85 31,105 -5,179 -5,56 10,259 -14,288 -96,112 37,198 -41,302 -65,88 65,122 23,184 -49,71 -181,-9 -218,-56 -31,-40 -322,-95 -384,-95 -80,0 -109,-82 -212,-62 -94,18 -160,-43 -259,-53l-141 2 0 0c6,-45 31,-96 31,-138 0,-54 -1,-93 38,-135 26,-28 63,-31 85,-64 18,-59 22,-151 113,-129 90,22 90,-34 26,-84 -122,-96 183,-233 -36,-277 -83,-17 -144,-87 -86,-174 55,-83 98,-187 -24,-233l-68 38 0 0c-63,9 -134,17 -186,-31 -61,-57 -39,-146 -88,-208 -38,-48 -56,-68 -58,-132 -3,-75 7,-99 -19,-168 -47,-125 96,-80 120,-154 0,-59 27,-156 7,-212 -23,-66 -119,-44 -139,-127 -14,-56 43,-69 67,-107 35,-57 7,-106 41,-156 55,-83 -4,-145 -92,-148 -71,0 -321,33 -180,-109 69,-70 225,-236 25,-160 -39,15 -143,112 -176,104 -63,-16 -62,-179 -73,-234 -73,-14 -27,150 -116,116 -65,-25 -95,-80 -174,-92 -131,-20 -83,-284 -67,-360 25,-95 188,-184 188,-267l0 0z"/>
  <path class="fil0 str1" d="M10986 14011l133 54c38,50 28,105 46,160 26,77 136,31 113,150 -9,45 -15,68 12,107 31,45 23,105 19,158 -8,85 14,86 -51,140 -60,49 24,108 13,152 50,62 97,39 139,129 24,51 67,61 60,125 -7,61 85,157 27,209 -26,23 -68,-18 -91,16 -14,21 -3,69 -6,97 -10,51 -19,24 -38,56 -35,57 34,79 -70,79 -42,0 -88,-13 -135,-13 -72,0 6,70 6,86 0,18 -171,74 -120,123 75,73 -15,71 -1,154 6,37 71,61 44,101 -54,81 -25,98 -54,173 -29,76 -124,26 -163,144 -1,13 12,89 19,99 -36,16 -63,97 -63,136 0,86 128,149 45,232 -102,102 0,238 75,313 17,15 33,25 43,47 23,53 41,31 87,24 46,-7 101,17 101,67 0,40 66,59 100,76l0 0 -18 57c13,53 -37,98 -62,135 -27,41 68,78 21,127 -35,37 -82,54 -120,88 -8,69 16,123 -6,180 -27,70 69,94 114,105 17,68 98,208 10,279 -44,35 -71,55 -86,112 -15,55 -55,114 -106,50 -53,-66 -135,33 -176,10 -35,-20 -42,-64 -85,-67l-155 -10c-81,-10 -77,-97 -198,-82 -111,14 -66,-113 -170,-94 -152,28 -304,5 -465,70 -74,30 -251,-20 -315,-68 -90,38 -90,57 -198,57 -133,0 -211,-94 -234,-221 -23,-127 48,-163 -106,-210 -70,-21 -99,-97 -157,-97 -45,0 -201,-10 -237,-26 -41,-18 -16,-83 -67,-97 -53,-15 -117,-1 -164,26 -41,24 -355,-45 -421,-76l-140 -141 0 0c66,25 328,57 301,-84 -7,-38 -85,-27 -108,-60 -11,-15 -62,-177 2,-130 34,25 120,35 163,35 39,0 37,67 63,53 22,-12 16,-51 46,-49 21,1 104,5 110,27 6,22 -107,79 -49,87 39,13 101,26 126,-20 36,-67 -83,-130 -43,-204 15,-28 -18,-122 33,-130 37,-6 27,55 36,85 9,30 9,54 35,78 27,25 35,-18 38,-36 6,-41 61,-35 53,-77 -7,-34 -20,-95 -11,-128 27,-61 11,-147 -52,-173 -35,-15 -67,-13 -52,-60 11,-36 12,-74 -7,-107 -25,-4 -45,20 -66,0 -25,-23 -45,-79 -54,-112 17,-26 8,-92 57,-61 95,58 137,49 238,36 19,-2 130,1 120,17 -14,21 -75,51 -51,86 25,37 52,95 108,43 79,-74 89,-20 164,11 80,-8 117,77 200,77 31,0 104,-7 73,-48 -19,-25 -42,-46 -43,-80 -1,-34 33,-23 53,-14 48,22 71,-26 116,-37 46,-11 66,-41 82,-85 1,-19 -14,-23 -27,-29 -14,-6 -18,-68 -27,-86 -35,-66 52,-34 46,-60 -81,-20 -27,-51 -27,-92 0,-16 -4,-29 -2,-45 7,-66 14,-25 48,-14 24,7 80,8 97,21 27,22 31,111 81,98 9,-2 116,13 92,-23 -27,-39 -33,-51 3,-74 41,-26 -10,-64 71,-79 53,-10 64,-37 13,-69 -17,-19 -98,-53 -91,-82 24,0 42,-27 62,-23 50,10 70,-13 122,-13 47,0 58,60 97,60 33,0 56,-27 95,-14 23,8 116,50 116,0 0,-41 13,-90 -24,-112 -28,-16 -64,-20 -64,-59 0,-52 -49,-55 -91,-63 -75,-15 3,-56 -30,-113 1,-14 -8,-30 -6,-47 9,-64 36,-8 51,8 22,25 33,25 55,1 20,-21 31,-14 57,-19 89,-17 84,-172 167,-187 128,-24 162,-110 184,-221 25,-32 98,-108 85,-149 -9,-27 47,-44 32,-95 -6,-18 43,-41 52,-54 40,-61 -38,-16 -64,-31 -31,-18 2,-29 7,-50 7,-26 2,-51 2,-78 18,-25 52,-27 64,-50 13,-23 16,-28 32,-49 23,-29 -39,-48 -14,-91 29,-50 -3,-31 -5,-57 -1,-26 -2,-44 -26,-24 -13,11 -26,5 -29,-10 -5,-26 20,-46 11,-84 -11,-47 -20,-71 -5,-122 16,-43 -33,-80 -67,-90 -22,-6 -86,-74 -56,-71l141 13c60,5 80,117 176,117 27,0 136,-36 146,-61 11,-28 13,-48 22,-68l0 0z"/>
  <path class="fil0 str1" d="M12293 10612l115 10c21,48 99,100 133,39 29,-51 58,-74 99,-27 40,46 66,45 123,24 46,-17 86,11 125,30 57,27 222,-13 274,-47 119,-77 103,9 93,91 -5,46 51,93 51,147 0,160 -143,185 -42,362l0 0c20,-13 86,12 104,-19 33,-57 36,-20 88,-42 44,-18 55,44 105,44 73,0 43,59 66,67 18,7 35,-35 51,-35 57,0 44,89 86,85 75,-6 72,-55 120,-81 31,-25 63,-57 104,-41 42,16 70,-21 94,-14 23,7 32,9 56,4 26,-6 29,36 63,19 65,-34 -8,-51 87,-36 27,4 49,3 75,-4 21,-5 26,35 41,44 3,2 22,5 22,6 9,0 22,47 24,55 23,8 58,48 77,18 8,-12 50,-32 63,-22 25,19 130,93 160,66 29,-26 35,-82 63,-94 25,-11 17,-39 22,-58 1,-3 53,-16 61,-17 16,-2 32,69 38,45 1,0 8,-8 8,-8 26,0 38,16 39,39 1,30 11,13 27,18 27,7 -9,86 68,47 25,-13 34,-10 54,-17 32,-10 44,60 58,78 36,44 54,-86 100,-50 46,37 11,-38 11,-44 2,-34 -10,-29 -15,-60 -10,-49 -45,-50 23,-36 10,2 33,-10 35,-6 1,0 3,1 4,1 41,-25 7,-59 0,-98 2,-32 -9,-116 27,-134 59,-30 62,-34 106,-82 18,-19 72,3 70,-31 -1,-18 -31,-59 -36,-82 -1,0 -1,0 -1,-1 -32,-8 -86,15 -113,0 -36,-21 -73,16 -112,11 -53,-7 -30,-28 -56,-47 -32,-23 -63,18 -73,-60 -19,-49 2,-60 -58,-57 -39,2 -33,65 -49,56 -67,-40 -67,-126 -134,-158 -35,-16 -34,-112 -42,-150 -6,-30 13,-52 -30,-43 -29,6 -46,-22 -52,-51 -3,-17 45,-15 54,-46 24,-52 16,-44 -14,-89 -15,-22 52,-26 46,-58 -4,-20 -38,-147 -60,-147 -68,0 -42,8 -64,-66 -25,-86 26,-93 -73,-88 -34,2 -42,37 -73,35 -15,-1 -51,-86 -62,-48 -16,51 -19,64 20,100 40,37 -57,69 -80,69 -9,-36 -13,-73 -53,-63 -37,9 -87,22 -89,63 -2,32 -13,50 -37,69 -50,0 -150,5 -175,-49 -41,-86 -52,-56 -131,-68 -60,-9 -38,-48 -69,-70 -21,-15 -32,19 -46,29 -19,13 -143,-16 -163,-32 -5,-4 -15,-27 -19,-25 -12,6 -22,32 -27,44 -14,32 -30,-49 -32,-58 -8,-49 -26,-36 -35,-74 -18,-4 -22,23 -38,20 -25,-3 -15,-34 -32,-41 -21,-10 -26,-5 -47,-24 -45,-42 -23,-87 -15,-137 4,-25 -55,-20 -73,-20 -65,0 -45,-11 -88,-42 -25,-18 -44,4 -46,-40l0 0c-80,0 -111,-114 -188,-85 -92,35 -129,162 -217,191 -100,33 -54,58 -112,127 -29,34 -66,52 -101,79 -14,32 -25,77 -54,99 -24,19 -61,34 -76,61 -25,45 2,121 2,172 0,93 -70,198 -116,279 -25,44 -36,144 -75,168 -35,22 -86,18 -95,64l55 55 0 0z"/>
  <path class="fil0 str1" d="M11131 12705l36 107c-3,41 -18,108 -6,146 28,89 155,124 184,221 15,51 -26,111 4,162l166 251 0 0 198 -231 9 -36c29,-53 -12,-53 -2,-78 8,-22 26,-32 9,-50 -33,-33 57,-35 67,-56 18,-40 32,-21 60,-18 41,5 13,-88 17,-109 6,-32 53,-97 83,-56 7,10 41,91 41,36 0,-34 -10,-73 -10,-106 9,-3 26,-7 35,-12 5,-19 12,-88 45,-70 30,16 51,13 51,-24 0,-27 14,-19 25,-35 -25,-33 -50,-12 -46,-70 2,-31 -43,-44 10,-66 18,-7 -31,-33 -38,-35 -8,-42 -21,-47 -44,-83 -18,-27 -11,-83 31,-70 29,9 25,-4 40,-19 41,-57 137,-53 191,-103 52,-48 136,99 172,128 35,28 71,55 67,106 5,14 2,63 -1,79 -2,13 -17,61 -5,66 50,21 18,-83 63,-72 24,6 30,38 57,38 52,0 18,50 49,56 19,3 48,-16 62,-27 23,-20 25,24 41,35 22,15 41,-42 48,-55 33,-52 21,-58 -27,-58 -7,-23 -26,-45 -32,-66 -11,-35 22,-20 32,-41 18,-36 2,-126 70,-111 41,9 5,-55 69,-8 54,40 58,65 109,5 46,-53 -39,-123 50,-130 23,-2 10,-24 15,-31 -1,-2 -2,-7 -2,-8 0,-23 -13,-56 8,-72 27,-20 21,-17 40,-43 6,-8 34,11 45,11 18,0 55,-148 46,-157 -12,-11 -34,-14 -34,-34 0,-65 66,-67 54,-121l-18 -81c0,-60 -32,-145 19,-171 45,-23 39,-151 5,-174 -45,-30 -17,-63 -29,-104 -4,-12 -2,-18 4,-22l0 0c-101,-176 42,-202 42,-362 0,-54 -57,-101 -51,-147 10,-82 26,-167 -93,-91 -52,34 -218,73 -274,47 -39,-19 -79,-47 -125,-30 -56,21 -83,22 -123,-24 -41,-46 -70,-24 -99,27 -34,60 -112,8 -133,-39l-115 -10 0 0c-27,27 -41,94 -87,94 -32,0 -94,-58 -101,-87 -68,0 -49,71 -70,104 -7,11 -25,23 -29,32 -5,12 2,42 2,56 0,48 -29,19 -52,6 -28,-77 -96,-132 -43,-209 51,-74 -30,-106 -25,-174 3,-50 42,-82 -2,-127 -56,-56 13,-120 -23,-178 -24,-38 12,-74 -5,-100 -16,-25 -54,-68 -79,-92l-56 -45 0 0c-6,21 -89,42 -107,37 -21,-6 -10,-40 -26,-51 -24,-17 -60,-1 -85,-15 -3,-2 -22,-18 -24,-10 -4,1 -14,18 -20,21 -42,10 -46,-21 -54,-51 -52,-7 25,-71 -13,-77 -35,-5 -99,8 -125,-9 -32,-21 -43,-43 -85,-48 -38,-5 -89,13 -127,21 -56,11 -34,63 -105,63 -20,0 -39,78 -46,96 -10,26 -49,68 -69,90 -25,34 -74,39 -101,70 -43,48 -3,66 -3,106 0,37 -179,32 -207,30 -19,-1 -76,70 -80,87 -17,75 -60,87 15,126 33,50 55,83 67,141 10,49 63,47 90,18 29,-31 35,-4 35,31 0,50 -8,55 41,76 49,22 41,80 41,125 0,19 21,37 24,57 37,63 78,27 128,39 31,8 15,107 13,132 -3,34 -30,65 -25,97 9,54 53,50 76,85 11,17 63,153 33,143 -7,-2 -36,-48 -41,-57 -27,-46 -14,-41 -73,-41 -56,0 -87,-6 -144,-16l-127 -2 0 0 -32 50c-4,52 -19,120 -46,166 -34,59 -20,92 -20,152 0,26 -10,55 -13,82 69,82 78,143 179,195 71,36 157,-27 177,75 10,51 40,95 50,140 39,59 94,38 136,81 58,58 -19,125 30,181 25,28 59,48 93,63 37,17 83,83 72,125 -9,27 -6,63 -21,88 -13,22 -40,30 -47,54 -5,17 -12,39 -30,46l0 0z"/>
  <path class="fil0 str1" d="M11724 9892l56 45c24,24 63,67 79,92 17,27 -19,62 5,100 36,58 -33,122 23,178 44,44 6,77 2,127 -5,68 76,101 25,174 -53,77 15,132 43,209 24,14 52,42 52,-6 0,-14 -7,-44 -2,-56 4,-10 22,-22 29,-32 21,-33 2,-104 70,-104 7,29 70,87 101,87 46,0 60,-68 87,-94l0 0 -55 -55c9,-47 60,-42 95,-64 39,-25 50,-124 75,-168 45,-81 116,-186 116,-279 0,-51 -27,-127 -2,-172 15,-27 52,-42 76,-61 28,-22 40,-67 54,-99 35,-27 72,-45 101,-79 58,-68 12,-93 112,-127 88,-29 125,-156 217,-191 76,-29 108,85 188,85l0 0c-1,-29 -10,-53 -10,-81 46,-33 50,-43 52,-98 1,-15 6,-98 -7,-104 -50,-22 -201,13 -217,-53 -15,-61 -41,-10 -52,-69 -27,-9 -60,2 -67,-31 -6,-26 -6,-59 -11,-81l-44 -11c-17,-4 -7,-30 -24,-38 -19,-9 -37,1 -52,-18 -12,-16 -13,-25 -34,-29 -68,-12 -37,-12 -71,-67 -10,-17 -43,-33 -60,-42 -25,-12 -35,-49 -51,-52 -20,-4 -38,5 -54,-9 -59,-47 -6,-85 -24,-143 -15,-47 -126,-20 -141,10 -32,65 -54,4 -94,39 -37,75 -37,24 -72,-2 -49,-36 -52,-8 -86,27 -14,15 -55,7 -62,29 -13,43 -44,35 -56,-5 -27,-89 -91,-25 -117,-67 -15,-25 21,-61 -19,-67 -15,-2 1,-30 1,-38 0,-14 -24,-9 -29,-21 -7,-17 14,-38 10,-49 -22,-58 20,-31 25,-79 -30,-83 -88,-37 -55,-144 5,-16 -23,-24 -29,-38 -12,-25 4,-59 -4,-72 -4,-6 -25,-12 -23,-22 3,-17 22,-26 24,-42 6,-49 77,-12 77,-44 0,-32 23,-29 33,-51 14,-32 -14,-46 -13,-69 1,-8 24,-22 17,-24 0,-4 -1,-6 -2,-11 17,-18 42,-34 38,-60 -2,-15 -12,-37 -1,-51 21,-24 79,19 60,-44 -20,-64 82,-65 129,-77 61,-15 -12,-50 -7,-81 4,-22 -10,-36 8,-56 57,-60 18,-109 -41,-146 -4,-30 -36,-55 -21,-87 14,-31 46,-16 56,-50 6,-19 0,-39 7,-58 9,-24 15,-47 15,-72 0,-34 16,-47 49,-58 18,-6 9,-15 20,-28 9,-10 26,14 38,10 25,-7 24,-17 39,-33 18,-14 41,-20 58,-35 18,-15 11,-29 21,-44 27,-38 60,-15 94,-14 41,2 134,-79 153,-63 28,24 73,-20 113,-20 26,0 31,-45 49,-57 22,-15 51,7 67,-27 8,-13 25,-35 20,-51 -4,-13 -3,-20 7,-30 26,-26 -26,-38 -29,-61 -4,-46 -7,-140 35,-167 16,-10 20,-25 32,-38 25,-31 71,-54 107,-72 22,-11 83,4 91,-22 10,-34 -28,-26 -33,-44 -5,-18 36,-46 51,-37 35,21 69,-14 79,-46 15,-49 58,-83 70,-120 11,3 20,52 28,66 13,21 45,4 64,13 79,41 38,-46 108,-11 9,4 60,-38 63,-44 8,-18 -21,-10 -8,-36 0,-16 3,-48 -12,-57 -20,-12 -5,-29 -16,-42 -6,-8 -16,-10 -21,-19 -9,-15 -14,-27 -25,-41 -18,-22 -9,-33 -7,-59 2,-24 -33,-18 -18,-53 12,-27 -35,-50 -41,-79 -7,-2 -3,-33 -16,-42 -17,-12 -40,-15 -60,-19 -48,-8 -100,6 -137,-23 -28,-22 -33,44 -63,8 -21,-24 -32,-82 -74,-64 -57,25 -62,15 -110,-21 -25,15 -38,25 -32,60 5,33 -23,41 -22,67 0,5 8,51 -7,44 -17,-8 -23,-26 -27,-44 -25,-100 -123,-97 -24,-208l0 0c-35,-9 -100,-19 -130,3 -35,25 -79,12 -112,35 -35,24 -38,52 -62,80l-82 168 0 0c7,40 6,45 27,79 19,30 -32,86 -60,84 -19,35 -83,84 -35,116 40,27 53,35 100,26 110,-23 60,64 102,100 11,9 37,3 42,15 -16,22 -43,33 -60,56 -19,25 -51,13 -77,24 -48,21 -81,114 -130,147 -12,39 -49,91 -91,100 -61,13 -54,35 -99,66 -26,18 -52,2 -79,17 -31,16 -47,48 -78,68 -46,29 7,81 -83,93 -34,5 -29,19 -56,33 -21,5 -53,54 -57,75 -6,32 -36,44 -63,57 -68,32 -19,82 -124,60 -122,-25 -132,205 -220,175 -2,-17 -17,-32 -21,-49 -2,-8 1,-39 -7,-39 -53,0 -48,45 -54,76 -43,65 -37,53 -3,115 17,31 -55,35 -63,61 -8,29 25,35 33,56 12,30 -43,29 -58,29 -25,0 -106,23 -112,20 -47,-22 -104,-58 -153,-17 -61,52 -101,129 -133,198 -19,74 -84,133 -125,196 -48,74 -19,163 -53,235 -3,33 -11,68 -35,92 -18,18 -39,26 -48,54 -10,30 50,75 56,112 4,26 -8,49 17,62 22,12 72,8 93,-4 50,0 94,4 144,-2 34,-4 44,31 77,24 18,-4 34,-13 49,3 23,23 37,34 72,21 18,11 35,-2 25,38 -6,27 -33,40 -54,53 -48,30 -79,90 -93,143 12,36 18,87 -16,112 -31,23 -24,56 16,67 38,11 165,1 185,26 28,35 16,89 52,112 26,17 66,97 86,84 29,8 90,-5 105,23 24,43 43,29 68,58 18,21 14,53 47,60 23,4 53,-1 77,-1 13,0 25,-14 37,-12 15,2 15,112 10,130 -5,46 -1,92 -9,138 -5,30 -36,41 -36,74 0,11 19,37 13,44 -20,22 -51,5 -33,45 16,35 28,50 3,84 -20,27 -2,33 -7,56 3,29 25,60 19,90 -6,29 -19,37 13,60 45,31 89,-4 101,70 5,34 27,88 18,121l0 0z"/>
  
  
  
  
  
  
  
  
  
  
  
  
  
  
  
  
  
  
  
  
  
  
  
  
  
 </g>
</svg>