<svg version="1.1" id="Layer_1" xmlns="http://www.w3.org/2000/svg" xmlns:xlink="http://www.w3.org/1999/xlink" x="0px" y="0px"
	 width="100%" viewBox="0 0 500 500" enable-background="new 0 0 500 500" xml:space="preserve">
<path fill="#001719" opacity="1.000000" stroke="none" 
	d="
M322.000000,501.000000 
	C214.666687,501.000000 107.833382,501.000000 1.000057,501.000000 
	C1.000038,334.333405 1.000038,167.666794 1.000019,1.000147 
	C167.666565,1.000098 334.333130,1.000098 500.999756,1.000049 
	C500.999847,167.666519 500.999847,334.333038 500.999939,500.999786 
	C441.500000,501.000000 382.000000,501.000000 322.000000,501.000000 
M252.594833,175.914474 
	C252.658310,181.261948 252.721786,186.609406 252.534210,192.867950 
	C252.616837,204.591461 252.699463,216.314957 252.582870,228.949951 
	C252.546616,234.401459 252.456131,239.853378 252.498886,245.304260 
	C252.517914,247.731400 251.742233,248.900009 249.076859,248.883423 
	C246.567047,248.867798 245.418884,248.054626 245.494934,245.467117 
	C245.547913,243.664612 245.302353,241.853317 245.424713,239.162857 
	C245.356186,236.436737 245.287659,233.710632 245.445724,230.088486 
	C245.364578,226.372833 245.283432,222.657166 245.412323,218.043961 
	C245.332047,214.019745 245.251755,209.995544 245.402161,205.078949 
	C245.325714,201.393234 245.249268,197.707504 245.402435,193.126343 
	C245.325317,189.756775 245.248199,186.387222 245.401947,182.117905 
	C245.324936,178.417618 245.247910,174.717346 245.402328,170.117523 
	C245.325531,166.417252 245.248734,162.716980 245.405167,158.117462 
	C245.327332,154.416260 245.249496,150.715042 245.404678,146.101318 
	C245.335907,138.953491 245.267136,131.805664 245.428009,123.858429 
	C245.428009,121.946648 245.428009,120.034866 245.428009,118.207001 
	C232.351242,116.828400 217.752884,121.300583 208.473038,129.228683 
	C205.659058,132.508713 202.845078,135.788742 199.536880,139.543381 
	C198.013535,143.691727 196.490204,147.840057 194.536011,152.686508 
	C194.375351,156.124954 194.214691,159.563416 193.912933,163.885208 
	C193.524811,167.559830 193.136673,171.234467 192.254135,175.337158 
	C189.919067,178.559723 187.583984,181.782288 184.695374,185.452530 
	C178.927231,192.482407 179.139801,193.604248 186.932663,197.693268 
	C187.497055,197.989410 187.922806,198.549789 188.436569,199.809113 
	C187.747009,203.199066 187.057449,206.589035 186.068405,210.689636 
	C187.528275,214.663483 190.373886,218.365845 188.149933,223.749313 
	C188.193832,230.254837 190.438583,231.917648 198.175797,233.083771 
	C203.922180,233.949860 209.509354,235.872208 215.592255,237.898804 
	C218.385239,242.167892 221.535965,246.255417 223.830811,250.777298 
	C225.112732,253.303299 226.362900,254.083145 229.035629,254.057327 
	C241.855408,253.933395 254.677017,254.001633 267.497986,254.001617 
	C271.774323,254.001602 276.050690,254.001602 280.658691,254.001602 
	C280.658691,249.282593 280.658691,245.165024 280.835022,240.195953 
	C280.069824,235.730286 281.867950,232.789185 286.786713,231.089554 
	C292.356964,227.548401 295.994202,222.666794 297.907288,215.946396 
	C305.777344,213.966049 310.850647,209.389069 311.971619,200.161438 
	C311.373657,196.813797 312.724152,194.543411 315.115967,192.080841 
	C317.523285,189.602325 318.822876,186.047882 320.874329,182.203247 
	C321.754456,175.995163 321.444000,170.058319 317.876373,164.523987 
	C317.035736,163.219940 317.415863,161.128952 317.678009,158.679260 
	C318.723389,148.671158 315.069794,141.644394 306.493530,137.062881 
	C305.354950,136.454666 304.322540,135.647659 303.203613,134.166519 
	C302.827667,133.277817 302.386963,132.410477 302.085754,131.497131 
	C299.151123,122.598068 290.552155,115.601814 281.662323,114.961929 
	C270.480194,114.157051 261.462067,117.685081 255.296616,128.415802 
	C254.450912,132.472916 253.605194,136.530029 252.520309,141.422241 
	C252.610779,147.947418 252.701233,154.472595 252.579041,161.906647 
	C252.663895,166.274292 252.748764,170.641937 252.594833,175.914474 
M304.156128,403.911835 
	C298.732880,403.911835 293.309631,403.911835 287.886383,403.911835 
	C294.267883,407.498169 292.923523,408.913361 289.051666,412.561981 
	C290.221558,418.162109 294.211395,418.708496 298.814209,417.681183 
	C299.494995,419.342133 300.044647,420.683136 300.594269,422.024139 
	C301.720703,420.728424 301.971619,419.538300 302.021088,418.339844 
	C302.228638,413.313782 300.801575,407.970093 305.718201,403.797943 
	C306.319489,403.731476 306.920807,403.665009 307.522095,403.598511 
	C306.600891,401.442047 306.102875,398.899719 304.611084,397.263458 
	C303.600067,396.154480 301.192719,396.318481 300.257172,396.105804 
	C302.022217,398.940491 303.563080,401.415131 304.156128,403.911835 
M334.116119,301.740509 
	C332.498627,301.740509 330.881104,301.740509 329.187195,301.740509 
	C329.187195,314.053741 329.187195,325.779419 329.187195,337.611877 
	C331.523254,337.611877 333.546783,337.611877 336.058411,337.611877 
	C336.058411,332.798706 336.058411,328.373749 336.058411,324.042572 
	C340.612671,322.539581 342.910645,323.394714 342.570343,328.282684 
	C342.355042,331.375244 342.530090,334.494934 342.530090,337.793884 
	C345.153595,337.793884 347.097137,337.793884 349.345001,337.793884 
	C349.345001,325.752167 349.345001,313.928864 349.345001,302.142212 
	C346.895691,302.142212 344.862122,302.142212 342.532349,302.142212 
	C342.532349,305.419098 342.553345,308.232269 342.527924,311.045013 
	C342.476074,316.780640 342.380341,316.848572 336.543701,315.808990 
	C336.008209,311.180634 335.472748,306.552277 334.116119,301.740509 
M315.721069,337.776886 
	C317.423889,336.138336 320.062897,334.787384 320.669708,332.812134 
	C323.503052,323.588867 321.048126,319.217590 312.168518,316.307861 
	C311.852478,316.204285 311.533722,316.106232 311.211273,316.025360 
	C308.829041,315.428131 306.420074,314.598419 307.314026,311.505707 
	C307.673370,310.262512 309.089203,308.744202 310.298126,308.440063 
	C313.435730,307.650696 314.129547,310.016937 314.447723,312.510803 
	C314.476440,312.735779 314.935089,312.905914 315.311707,313.190338 
	C316.185150,313.235504 317.184570,313.381653 318.168335,313.310608 
	C319.089142,313.244110 319.993317,312.947540 320.809998,312.772522 
	C321.410004,303.680786 319.582764,301.679016 310.931641,301.677490 
	C309.272217,301.677185 307.376892,301.378937 306.010284,302.060303 
	C304.102051,303.011688 301.775787,304.423798 301.045624,306.216095 
	C297.714844,314.391968 300.290680,319.566071 308.454376,322.219604 
	C309.402527,322.527771 310.706757,322.551147 311.226562,323.201538 
	C312.388763,324.655792 313.533478,326.338867 313.926941,328.098328 
	C314.112793,328.929352 312.730194,330.795197 311.749481,331.063599 
	C309.566559,331.660980 307.628693,331.294708 306.986450,328.242828 
	C306.791779,327.317719 304.336945,326.505493 302.848267,326.363037 
	C302.061737,326.287811 300.568390,327.634430 300.352112,328.562378 
	C299.210236,333.462036 302.334961,337.568817 307.393433,337.935791 
	C309.873291,338.115692 312.380127,337.924133 315.721069,337.776886 
M290.966919,326.300293 
	C289.256836,319.369781 287.380219,312.474365 285.907745,305.493713 
	C285.185181,302.068359 283.301941,301.560303 280.274017,301.573303 
	C277.364014,301.585785 275.786377,302.304626 275.082794,305.390442 
	C272.979858,314.613831 270.566772,323.766205 268.325287,332.958588 
	C267.954712,334.478271 267.838196,336.059845 267.613739,337.549805 
	C271.617615,338.585480 274.476013,338.361938 274.862000,333.885620 
	C275.200348,329.961060 278.157562,330.924561 280.480896,330.888092 
	C282.862854,330.850647 285.710480,330.118164 286.093323,333.954437 
	C286.589233,338.923767 289.743469,338.445282 293.612335,337.449158 
	C292.738495,333.838898 291.924469,330.475708 290.966919,326.300293 
M260.563385,331.717438 
	C258.390564,323.013153 256.073273,314.341064 254.123367,305.587128 
	C253.440918,302.523346 252.097092,301.510986 249.058533,301.586212 
	C246.178452,301.657501 244.123657,301.744690 243.335663,305.371704 
	C241.290939,314.783203 238.766708,324.090057 236.481140,333.450226 
	C236.146301,334.821442 236.069946,336.255798 235.871964,337.675629 
	C239.714172,338.402191 242.730133,338.574738 243.075409,333.898621 
	C243.326691,330.495331 245.890472,330.725677 248.239334,330.879456 
	C250.664215,331.038208 253.833710,329.740387 254.333069,333.941406 
	C254.905518,338.757477 257.999146,338.551117 261.757965,337.463440 
	C261.417786,335.711212 261.106842,334.109711 260.563385,331.717438 
M189.809708,301.668518 
	C188.556473,302.429352 186.453979,302.963104 186.180481,303.985901 
	C183.226410,315.033325 180.560089,326.157684 177.757523,337.494080 
	C181.667084,338.339111 184.839050,338.978699 185.317184,333.853516 
	C185.663361,330.142639 188.598404,330.869995 190.997162,330.869751 
	C193.398849,330.869476 196.259155,330.183746 196.618866,333.912781 
	C197.112900,339.034149 200.343964,338.340576 204.210968,337.465240 
	C201.549332,326.785034 198.739670,316.367798 196.444717,305.838318 
	C195.639160,302.142365 193.860184,301.225525 189.809708,301.668518 
M158.064560,322.495239 
	C158.064560,327.574707 158.064560,332.654144 158.064560,337.763184 
	C160.895493,337.763184 162.845200,337.763184 165.190262,337.763184 
	C165.190262,328.710785 165.396866,319.896088 165.109726,311.097534 
	C164.947693,306.132568 164.919327,301.912598 171.699310,302.983978 
	C171.699310,300.651093 171.699310,298.754700 171.699310,296.351288 
	C166.379822,296.351288 161.411728,296.328033 156.443954,296.357483 
	C150.806793,296.390900 150.395721,297.013397 152.035721,302.947937 
	C153.908188,303.203033 155.824066,303.463989 158.064560,303.769196 
	C158.064560,309.876190 158.064560,315.687103 158.064560,322.495239 
M219.673218,331.002960 
	C219.047440,329.541901 217.912811,328.092010 217.880478,326.617920 
	C217.703125,318.531647 217.795868,310.439423 217.795868,302.014465 
	C215.245590,302.014465 213.200806,302.014465 211.033569,302.014465 
	C211.033569,314.110840 211.033569,325.917084 211.033569,337.567749 
	C217.197983,337.567749 222.900330,337.567749 228.452728,337.567749 
	C229.688873,332.819763 228.674789,330.292786 223.592651,331.030579 
	C222.618210,331.172058 221.604630,331.043945 219.673218,331.002960 
M265.493073,259.368378 
	C253.542191,259.368103 241.591171,259.334808 229.640488,259.383484 
	C224.738586,259.403442 224.676498,259.569092 225.927841,264.579041 
	C244.078247,264.579041 262.254089,264.579041 280.595795,264.579041 
	C280.595795,262.821320 280.595795,261.408234 280.595795,259.368866 
	C275.709442,259.368866 271.099335,259.368866 265.493073,259.368378 
M208.960846,406.044312 
	C211.219345,406.044312 213.477829,406.044312 215.909439,406.044312 
	C215.909439,408.895294 216.464813,411.266754 215.726379,413.123810 
	C215.176865,414.505737 213.049423,415.494171 211.417328,416.078888 
	C210.880234,416.271271 209.693695,414.650940 208.804138,413.859528 
	C210.029739,412.862549 211.190735,411.766327 212.507507,410.909424 
	C213.191055,410.464600 214.150070,410.443054 214.984650,410.230316 
	C211.695038,407.985992 207.845703,407.783905 206.805908,411.375580 
	C204.410660,419.649445 210.718124,418.419098 215.519180,418.266296 
	C215.923370,419.584686 216.306442,420.834198 217.058136,423.286041 
	C220.332611,416.502106 215.280289,409.324188 222.449158,403.520233 
	C214.611908,405.405975 209.877533,402.360382 205.669739,397.863861 
	C204.838333,396.975403 203.346161,396.568420 202.080582,396.246735 
	C196.461166,394.818420 193.956924,396.564117 192.871597,402.314484 
	C192.687729,403.288635 191.852631,404.139832 191.373962,404.953430 
	C196.775665,409.702972 191.710815,416.757568 195.076218,422.686462 
	C198.292282,416.571014 192.993362,409.358459 197.833679,405.567780 
	C197.109070,403.225403 196.547760,401.410919 195.986465,399.596436 
	C197.990967,399.251740 200.197784,398.217834 201.950073,398.732239 
	C204.276581,399.415222 206.248428,401.306305 208.761292,402.929260 
	C206.848495,403.845215 205.820694,404.337402 203.443756,405.475616 
	C206.021622,405.787445 207.081573,405.915680 208.960846,406.044312 
M245.186111,363.876404 
	C240.827530,364.407776 237.417114,363.340820 234.359741,359.675751 
	C232.676666,357.658142 229.285568,356.560822 226.490219,356.095367 
	C222.428284,355.419037 219.911423,357.019836 219.016815,361.857361 
	C218.258575,365.957489 221.222412,369.128235 220.261261,373.122253 
	C219.590195,375.910828 220.131897,378.991272 220.131897,381.941345 
	C220.693069,381.954193 221.254257,381.967072 221.815430,381.979919 
	C225.491409,376.878723 219.384232,369.374847 224.921997,365.397797 
	C223.950027,363.571808 223.048080,361.877350 222.146133,360.182892 
	C224.363907,359.686249 226.731583,358.467834 228.758820,358.888794 
	C230.939804,359.341675 232.801514,361.332184 235.218491,362.926117 
	C233.379150,363.823242 232.277756,364.360443 231.176361,364.897644 
	C231.233780,365.191772 231.291214,365.485901 231.348648,365.780029 
	C234.962021,366.012939 238.575378,366.245850 242.188751,366.478760 
	C242.196014,367.007202 242.203278,367.535614 242.210541,368.064026 
	C238.247482,369.058960 231.988724,367.430939 232.797531,374.330505 
	C233.430450,379.729706 238.074997,378.583405 241.641357,378.245087 
	C242.262802,379.689789 242.788895,380.912842 243.315002,382.135895 
	C243.871170,382.072876 244.427353,382.009857 244.983521,381.946808 
	C244.983521,379.464569 244.734970,376.950806 245.044983,374.507935 
	C245.453415,371.289337 243.025864,367.158173 247.741806,365.170898 
	C247.174835,364.746765 246.607880,364.322632 245.186111,363.876404 
M257.324890,275.592499 
	C262.067139,274.881622 266.809387,274.170776 271.707336,273.436584 
	C271.707336,272.186646 271.707336,270.798676 271.707336,269.309021 
	C259.039886,269.309021 246.661331,269.309021 233.956253,269.309021 
	C234.097961,271.059418 234.211227,272.458313 234.351410,274.189819 
	C236.832977,274.189819 239.017700,273.928284 241.100403,274.276672 
	C242.628845,274.532379 244.577087,275.200592 245.382996,276.352997 
	C249.066940,281.620789 253.311386,281.734070 257.324890,275.592499 
M272.914062,408.987335 
	C273.804474,408.012268 274.560883,406.422546 275.613770,406.193024 
	C277.663025,405.746338 279.878510,406.062164 282.025177,406.062164 
	C281.997620,405.545746 281.970062,405.029297 281.942535,404.512878 
	C273.622162,404.512878 265.301788,404.512878 256.981415,404.512878 
	C256.970123,404.984833 256.958801,405.456757 256.947479,405.928711 
	C261.249420,405.928711 265.551361,405.928711 270.996765,405.928711 
	C267.973694,413.268036 261.224701,407.897766 257.742188,411.505432 
	C262.715759,413.321564 260.072357,421.229065 266.401184,421.674225 
	C265.543640,418.958069 264.735962,416.399994 263.928314,413.841919 
	C265.822052,413.410217 267.715790,412.978516 269.687500,412.529022 
	C270.100800,416.348145 270.406799,419.175781 270.712830,422.003418 
	C271.313232,421.980988 271.913635,421.958588 272.514038,421.936157 
	C272.644318,420.090729 272.412903,418.114655 273.017456,416.440491 
	C273.515320,415.061737 275.004211,414.040863 276.053894,412.861420 
	C276.589172,414.193726 277.354279,415.487885 277.584106,416.870941 
	C277.755524,417.902527 277.234955,419.049072 277.022552,420.144409 
	C277.727509,420.282684 278.432495,420.420929 279.137451,420.559204 
	C279.456635,418.087921 280.512573,415.379700 279.822205,413.233093 
	C279.399597,411.919067 276.291931,411.478607 274.401978,410.619690 
	C273.902893,410.392883 273.447937,410.069000 272.914062,408.987335 
M270.965912,372.582336 
	C271.436859,369.916290 271.907776,367.250244 272.406708,364.425720 
	C266.998535,364.425720 260.359253,364.425720 253.720016,364.425720 
	C253.680542,364.814545 253.641068,365.203339 253.601578,365.592163 
	C256.078949,365.909515 258.556305,366.226837 261.033691,366.544189 
	C255.940430,368.325531 253.972549,370.306549 255.786865,376.090881 
	C257.459320,381.422882 258.974121,383.403625 264.289764,381.968781 
	C266.259308,381.437164 268.369293,381.425934 270.965881,381.110504 
	C270.965881,379.095703 270.965881,376.301208 270.965912,372.582336 
M179.269913,377.289581 
	C179.481247,378.866974 179.692566,380.444397 179.903900,382.021790 
	C184.007233,376.548981 178.903595,369.411652 184.773590,364.563293 
	C178.056656,364.563293 171.488266,364.563293 164.919861,364.563293 
	C164.912750,364.910461 164.905640,365.257629 164.898514,365.604828 
	C166.762390,365.870331 168.626266,366.135864 170.852798,366.453033 
	C170.773117,368.005829 170.702866,369.374939 170.639923,370.601532 
	C168.847427,370.829651 167.481125,371.003510 166.081848,371.181580 
	C167.180847,376.489319 171.390945,380.988922 175.653412,381.208038 
	C173.873322,379.095673 172.305679,377.235382 170.738022,375.375061 
	C171.004425,374.932892 171.270828,374.490723 171.537216,374.048553 
	C174.093124,374.823883 176.649033,375.599213 179.269913,377.289581 
M241.950165,411.664825 
	C242.587860,409.189850 243.225555,406.714844 243.822784,404.396973 
	C238.724228,404.396973 232.957657,404.396973 226.358215,404.396973 
	C231.569595,407.516144 231.814896,409.745911 227.585220,415.093048 
	C228.510468,416.186127 229.515030,417.372925 230.519592,418.559723 
	C230.797699,417.914978 231.075806,417.270233 231.353912,416.625488 
	C233.810898,415.951813 236.267883,415.278107 238.626205,414.631500 
	C239.290237,417.885040 239.714584,419.964142 240.138916,422.043243 
	C240.742661,421.959167 241.346390,421.875061 241.950134,421.790955 
	C241.950134,418.726196 241.950134,415.661407 241.950165,411.664825 
M310.785309,367.003967 
	C310.112488,368.937531 309.439667,370.871094 308.357391,373.981293 
	C309.214294,378.366791 313.434296,378.542999 317.894623,377.762085 
	C318.552307,379.394775 319.085449,380.718231 319.915466,382.778748 
	C322.976257,376.328888 317.990021,369.310974 323.966797,364.436829 
	C318.127899,364.436829 312.553040,364.436829 306.978180,364.436829 
	C306.942932,364.741699 306.907715,365.046570 306.872467,365.351471 
	C308.015930,365.705994 309.159424,366.060516 310.785309,367.003967 
M331.945740,369.079590 
	C331.945740,373.361237 331.945740,377.642883 331.945740,381.924561 
	C332.567535,381.965668 333.189301,382.006775 333.811096,382.047913 
	C336.631042,376.588074 331.681396,369.316345 337.882568,364.231873 
	C334.649506,364.231873 332.164093,364.231873 329.435516,364.231873 
	C330.434692,365.827332 331.187073,367.028748 331.945740,369.079590 
M285.746552,366.161194 
	C285.870575,365.417053 285.994598,364.672913 286.118622,363.928772 
	C283.919647,363.928772 281.720642,363.928772 280.970428,363.928772 
	C281.525085,370.441437 282.014404,376.187134 282.503723,381.932800 
	C283.058929,381.953369 283.614136,381.973969 284.169373,381.994537 
	C284.457062,376.839417 284.744781,371.684265 285.746552,366.161194 
M240.211807,424.860596 
	C239.637711,424.626587 239.063614,424.392578 238.489517,424.158600 
	C238.456757,424.843781 238.181458,426.016418 238.428436,426.139343 
	C241.130829,427.483948 243.828476,429.135498 246.717758,429.665131 
	C247.924591,429.886383 250.099411,427.886139 250.846069,426.399628 
	C251.286896,425.522003 250.144409,422.951477 249.084854,422.436462 
	C247.637146,421.732758 245.590698,422.260742 243.800919,422.260742 
	C243.813995,422.658569 243.827087,423.056366 243.840164,423.454193 
	C245.513657,423.938751 247.187164,424.423279 249.547638,425.106750 
	C245.918076,428.761871 243.324860,427.405884 240.211807,424.860596 
M195.367752,381.676483 
	C197.643356,376.167450 193.117615,369.388397 198.766983,364.393005 
	C196.009369,364.393005 193.451035,364.393005 191.676620,364.393005 
	C192.216415,366.820343 192.768494,368.774414 193.068573,370.766418 
	C193.627304,374.475616 194.039276,378.206879 195.367752,381.676483 
z"/>
<path fill="#76B883" opacity="1.000000" stroke="none" 
	d="
M188.413025,198.987289 
	C187.922806,198.549789 187.497055,197.989410 186.932663,197.693268 
	C179.139801,193.604248 178.927231,192.482407 185.336060,185.323914 
	C192.527130,186.339966 199.054688,187.642090 205.632736,188.596100 
	C218.798126,190.505447 231.991180,192.224289 245.172821,194.021790 
	C245.249268,197.707504 245.325714,201.393234 244.889618,205.530670 
	C241.586014,205.755127 238.780029,205.642624 236.006393,205.281616 
	C220.137680,203.216202 204.276657,201.091721 188.413025,198.987289 
z"/>
<path fill="#5BACA3" opacity="1.000000" stroke="none" 
	d="
M245.190155,240.045959 
	C245.302353,241.853317 245.547913,243.664612 245.494934,245.467117 
	C245.418884,248.054626 246.567047,248.867798 249.076859,248.883423 
	C251.742233,248.900009 252.517914,247.731400 252.498886,245.304260 
	C252.456131,239.853378 252.546616,234.401459 253.036652,228.481720 
	C255.158203,228.018982 256.825958,228.024475 258.489807,228.496094 
	C258.492615,234.421402 258.324707,239.890732 258.640472,245.331985 
	C258.711060,246.548019 260.390503,248.561188 261.480927,248.668701 
	C265.541199,249.069000 269.664612,248.828476 274.508484,248.828476 
	C274.508484,245.894974 274.508484,243.467087 274.892242,241.034485 
	C277.070221,241.035660 278.864471,241.041550 280.658691,241.047455 
	C280.658691,245.165024 280.658691,249.282593 280.658691,254.001602 
	C276.050690,254.001602 271.774323,254.001602 267.497986,254.001617 
	C254.677017,254.001633 241.855408,253.933395 229.035629,254.057327 
	C226.362900,254.083145 225.112732,253.303299 223.830811,250.777298 
	C221.535965,246.255417 218.385239,242.167892 215.879364,237.561447 
	C218.960419,237.351868 221.769058,237.340820 224.545410,237.634811 
	C231.434845,238.364334 238.309540,239.233124 245.190155,240.045959 
z"/>
<path fill="#6EB58C" opacity="1.000000" stroke="none" 
	d="
M188.424805,199.398193 
	C204.276657,201.091721 220.137680,203.216202 236.006393,205.281616 
	C238.780029,205.642624 241.586014,205.755127 244.774261,205.976868 
	C245.251755,209.995544 245.332047,214.019745 244.934784,218.494843 
	C242.157700,218.614365 239.854736,218.304840 237.559113,217.948196 
	C220.494537,215.297043 203.431442,212.636551 186.367874,209.978989 
	C187.057449,206.589035 187.747009,203.199066 188.424805,199.398193 
z"/>
<path fill="#64AB8E" opacity="1.000000" stroke="none" 
	d="
M186.218140,210.334320 
	C203.431442,212.636551 220.494537,215.297043 237.559113,217.948196 
	C239.854736,218.304840 242.157700,218.614365 244.829773,218.943604 
	C245.283432,222.657166 245.364578,226.372833 244.943848,230.536804 
	C242.471451,230.788986 240.489456,230.671173 238.532227,230.384384 
	C221.845444,227.939270 205.163147,225.463440 188.479507,222.996826 
	C190.373886,218.365845 187.528275,214.663483 186.218140,210.334320 
z"/>
<path fill="#7CBB7B" opacity="1.000000" stroke="none" 
	d="
M245.287628,193.574066 
	C231.991180,192.224289 218.798126,190.505447 205.632736,188.596100 
	C199.054688,187.642090 192.527130,186.339966 185.612823,185.100067 
	C187.583984,181.782288 189.919067,178.559723 192.911530,175.221619 
	C210.769638,177.743271 227.970352,180.380463 245.171066,183.017654 
	C245.248199,186.387222 245.325317,189.756775 245.287628,193.574066 
z"/>
<path fill="#83BE72" opacity="1.000000" stroke="none" 
	d="
M245.286499,182.567780 
	C227.970352,180.380463 210.769638,177.743271 193.158737,175.007584 
	C193.136673,171.234467 193.524811,167.559830 194.370636,163.534637 
	C211.609177,165.795074 228.390030,168.406067 245.170883,171.017059 
	C245.247910,174.717346 245.324936,178.417618 245.286499,182.567780 
z"/>
<path fill="#8AC16A" opacity="1.000000" stroke="none" 
	d="
M245.286606,170.567291 
	C228.390030,168.406067 211.609177,165.795074 194.441162,163.092972 
	C194.214691,159.563416 194.375351,156.124954 195.187332,152.341965 
	C197.654251,152.183502 199.479568,152.302902 201.283905,152.566193 
	C215.915466,154.701111 230.543106,156.863037 245.171936,159.016724 
	C245.248734,162.716980 245.325531,166.417252 245.286606,170.567291 
z"/>
<path fill="#91C461" opacity="1.000000" stroke="none" 
	d="
M245.288544,158.567093 
	C230.543106,156.863037 215.915466,154.701111 201.283905,152.566193 
	C199.479568,152.302902 197.654251,152.183502 195.402771,151.992905 
	C196.490204,147.840057 198.013535,143.691727 200.078308,139.528915 
	C202.014725,139.991364 203.375549,140.688919 204.809982,140.910873 
	C218.256683,142.991623 231.716003,144.990967 245.171661,147.013855 
	C245.249496,150.715042 245.327332,154.416260 245.288544,158.567093 
z"/>
<path fill="#4EA3AC" opacity="1.000000" stroke="none" 
	d="
M334.526672,301.832214 
	C335.472748,306.552277 336.008209,311.180634 336.544556,315.808899 
	C342.380341,316.848572 342.476074,316.780640 342.527924,311.045013 
	C342.553345,308.232269 342.532349,305.419098 342.532349,302.142212 
	C344.862122,302.142212 346.895691,302.142212 349.345001,302.142212 
	C349.345001,313.928864 349.345001,325.752167 349.345001,337.793884 
	C347.097137,337.793884 345.153595,337.793884 342.530090,337.793884 
	C342.530090,334.494934 342.355042,331.375244 342.570343,328.282684 
	C342.910645,323.394714 340.612671,322.539581 336.058411,324.042572 
	C336.058411,328.373749 336.058411,332.798706 336.058411,337.611877 
	C333.546783,337.611877 331.523254,337.611877 329.187195,337.611877 
	C329.187195,325.779419 329.187195,314.053741 329.187195,301.740509 
	C330.881104,301.740509 332.498627,301.740509 334.526672,301.832214 
z"/>
<path fill="#4EA3AC" opacity="1.000000" stroke="none" 
	d="
M315.297913,337.838776 
	C312.380127,337.924133 309.873291,338.115692 307.393433,337.935791 
	C302.334961,337.568817 299.210236,333.462036 300.352112,328.562378 
	C300.568390,327.634430 302.061737,326.287811 302.848267,326.363037 
	C304.336945,326.505493 306.791779,327.317719 306.986450,328.242828 
	C307.628693,331.294708 309.566559,331.660980 311.749481,331.063599 
	C312.730194,330.795197 314.112793,328.929352 313.926941,328.098328 
	C313.533478,326.338867 312.388763,324.655792 311.226562,323.201538 
	C310.706757,322.551147 309.402527,322.527771 308.454376,322.219604 
	C300.290680,319.566071 297.714844,314.391968 301.045624,306.216095 
	C301.775787,304.423798 304.102051,303.011688 306.010284,302.060303 
	C307.376892,301.378937 309.272217,301.677185 310.931641,301.677490 
	C319.582764,301.679016 321.410004,303.680786 320.809998,312.772522 
	C319.993317,312.947540 319.089142,313.244110 318.168335,313.310608 
	C317.184570,313.381653 316.185150,313.235504 315.311707,313.190338 
	C314.935089,312.905914 314.476440,312.735779 314.447723,312.510803 
	C314.129547,310.016937 313.435730,307.650696 310.298126,308.440063 
	C309.089203,308.744202 307.673370,310.262512 307.314026,311.505707 
	C306.420074,314.598419 308.829041,315.428131 311.211273,316.025360 
	C311.533722,316.106232 311.852478,316.204285 312.168518,316.307861 
	C321.048126,319.217590 323.503052,323.588867 320.669708,332.812134 
	C320.062897,334.787384 317.423889,336.138336 315.297913,337.838776 
z"/>
<path fill="#4EA3AC" opacity="1.000000" stroke="none" 
	d="
M291.038696,326.706390 
	C291.924469,330.475708 292.738495,333.838898 293.612335,337.449158 
	C289.743469,338.445282 286.589233,338.923767 286.093323,333.954437 
	C285.710480,330.118164 282.862854,330.850647 280.480896,330.888092 
	C278.157562,330.924561 275.200348,329.961060 274.862000,333.885620 
	C274.476013,338.361938 271.617615,338.585480 267.613739,337.549805 
	C267.838196,336.059845 267.954712,334.478271 268.325287,332.958588 
	C270.566772,323.766205 272.979858,314.613831 275.082794,305.390442 
	C275.786377,302.304626 277.364014,301.585785 280.274017,301.573303 
	C283.301941,301.560303 285.185181,302.068359 285.907745,305.493713 
	C287.380219,312.474365 289.256836,319.369781 291.038696,326.706390 
M278.309265,324.583557 
	C279.883850,324.583557 281.458435,324.583557 283.622925,324.583557 
	C282.603668,320.135956 281.721344,316.285980 280.839020,312.436005 
	C280.504395,312.442688 280.169800,312.449402 279.835175,312.456085 
	C279.153381,316.328247 278.471558,320.200409 278.309265,324.583557 
z"/>
<path fill="#4EA3AC" opacity="1.000000" stroke="none" 
	d="
M260.679657,332.112793 
	C261.106842,334.109711 261.417786,335.711212 261.757965,337.463440 
	C257.999146,338.551117 254.905518,338.757477 254.333069,333.941406 
	C253.833710,329.740387 250.664215,331.038208 248.239334,330.879456 
	C245.890472,330.725677 243.326691,330.495331 243.075409,333.898621 
	C242.730133,338.574738 239.714172,338.402191 235.871964,337.675629 
	C236.069946,336.255798 236.146301,334.821442 236.481140,333.450226 
	C238.766708,324.090057 241.290939,314.783203 243.335663,305.371704 
	C244.123657,301.744690 246.178452,301.657501 249.058533,301.586212 
	C252.097092,301.510986 253.440918,302.523346 254.123367,305.587128 
	C256.073273,314.341064 258.390564,323.013153 260.679657,332.112793 
M251.610474,323.420319 
	C250.763153,319.795074 249.915848,316.169830 249.068542,312.544617 
	C248.754547,312.612091 248.440552,312.679565 248.126556,312.747040 
	C247.319366,316.523438 246.512177,320.299835 245.532837,324.881683 
	C248.016083,324.580048 249.704056,324.375031 251.610474,323.420319 
z"/>
<path fill="#4EA3AC" opacity="1.000000" stroke="none" 
	d="
M190.206543,301.666473 
	C193.860184,301.225525 195.639160,302.142365 196.444717,305.838318 
	C198.739670,316.367798 201.549332,326.785034 204.210968,337.465240 
	C200.343964,338.340576 197.112900,339.034149 196.618866,333.912781 
	C196.259155,330.183746 193.398849,330.869476 190.997162,330.869751 
	C188.598404,330.869995 185.663361,330.142639 185.317184,333.853516 
	C184.839050,338.978699 181.667084,338.339111 177.757523,337.494080 
	C180.560089,326.157684 183.226410,315.033325 186.180481,303.985901 
	C186.453979,302.963104 188.556473,302.429352 190.206543,301.666473 
M191.356201,313.649963 
	C190.050110,317.061615 188.744003,320.473267 187.268219,324.328125 
	C190.166016,324.328125 191.955063,324.328125 194.111908,324.328125 
	C193.256546,320.609711 192.523865,317.424652 191.356201,313.649963 
z"/>
<path fill="#98C759" opacity="1.000000" stroke="none" 
	d="
M245.288177,146.557587 
	C231.716003,144.990967 218.256683,142.991623 204.809982,140.910873 
	C203.375549,140.688919 202.014725,139.991364 200.325424,139.291626 
	C202.845078,135.788742 205.659058,132.508713 209.178741,129.218674 
	C218.034042,130.538483 226.173660,131.933594 234.335739,133.181625 
	C244.583817,134.748581 244.591766,134.696579 245.198364,124.657837 
	C245.267136,131.805664 245.335907,138.953491 245.288177,146.557587 
z"/>
<path fill="#5EAB99" opacity="1.000000" stroke="none" 
	d="
M188.314728,223.373077 
	C205.163147,225.463440 221.845444,227.939270 238.532227,230.384384 
	C240.489456,230.671173 242.471451,230.788986 244.830536,230.984833 
	C245.287659,233.710632 245.356186,236.436737 245.307434,239.604416 
	C238.309540,239.233124 231.434845,238.364334 224.545410,237.634811 
	C221.769058,237.340820 218.960419,237.351868 215.666962,237.274078 
	C209.509354,235.872208 203.922180,233.949860 198.175797,233.083771 
	C190.438583,231.917648 188.193832,230.254837 188.314728,223.373077 
z"/>
<path fill="#4EA3AC" opacity="1.000000" stroke="none" 
	d="
M158.064560,321.996613 
	C158.064560,315.687103 158.064560,309.876190 158.064560,303.769196 
	C155.824066,303.463989 153.908188,303.203033 152.035721,302.947937 
	C150.395721,297.013397 150.806793,296.390900 156.443954,296.357483 
	C161.411728,296.328033 166.379822,296.351288 171.699310,296.351288 
	C171.699310,298.754700 171.699310,300.651093 171.699310,302.983978 
	C164.919327,301.912598 164.947693,306.132568 165.109726,311.097534 
	C165.396866,319.896088 165.190262,328.710785 165.190262,337.763184 
	C162.845200,337.763184 160.895493,337.763184 158.064560,337.763184 
	C158.064560,332.654144 158.064560,327.574707 158.064560,321.996613 
z"/>
<path fill="#9EC94F" opacity="1.000000" stroke="none" 
	d="
M245.313171,124.258133 
	C244.591766,134.696579 244.583817,134.748581 234.335739,133.181625 
	C226.173660,131.933594 218.034042,130.538483 209.506882,129.123962 
	C217.752884,121.300583 232.351242,116.828400 245.428009,118.207001 
	C245.428009,120.034866 245.428009,121.946648 245.313171,124.258133 
z"/>
<path fill="#6DAD7C" opacity="1.000000" stroke="none" 
	d="
M258.493713,228.029953 
	C256.825958,228.024475 255.158203,228.018982 253.136261,228.025970 
	C252.699463,216.314957 252.616837,204.591461 252.971039,192.474762 
	C255.103378,192.373581 256.798920,192.665558 258.516174,193.391434 
	C259.474823,195.874802 259.871948,198.823563 261.465057,199.779739 
	C264.446869,201.569458 266.906677,199.129929 267.900726,194.715286 
	C268.217865,193.306976 269.725739,192.166809 270.688782,190.903931 
	C271.788361,192.296158 274.087311,194.104813 273.774231,195.006561 
	C272.591797,198.412109 271.235901,202.326172 268.645233,204.503464 
	C266.358063,206.425659 262.339478,206.287720 258.493713,207.199738 
	C258.493713,213.833740 258.493713,220.931854 258.493713,228.029953 
z"/>
<path fill="#4EA3AC" opacity="1.000000" stroke="none" 
	d="
M220.141159,331.021576 
	C221.604630,331.043945 222.618210,331.172058 223.592651,331.030579 
	C228.674789,330.292786 229.688873,332.819763 228.452728,337.567749 
	C222.900330,337.567749 217.197983,337.567749 211.033569,337.567749 
	C211.033569,325.917084 211.033569,314.110840 211.033569,302.014465 
	C213.200806,302.014465 215.245590,302.014465 217.795868,302.014465 
	C217.795868,310.439423 217.703125,318.531647 217.880478,326.617920 
	C217.912811,328.092010 219.047440,329.541901 220.141159,331.021576 
z"/>
<path fill="#49969B" opacity="1.000000" stroke="none" 
	d="
M265.991150,259.368622 
	C271.099335,259.368866 275.709442,259.368866 280.595795,259.368866 
	C280.595795,261.408234 280.595795,262.821320 280.595795,264.579041 
	C262.254089,264.579041 244.078247,264.579041 225.927841,264.579041 
	C224.676498,259.569092 224.738586,259.403442 229.640488,259.383484 
	C241.591171,259.334808 253.542191,259.368103 265.991150,259.368622 
z"/>
<path fill="#A0C847" opacity="1.000000" stroke="none" 
	d="
M255.855698,127.964874 
	C261.462067,117.685081 270.480194,114.157051 281.662323,114.961929 
	C290.552155,115.601814 299.151123,122.598068 302.085754,131.497131 
	C302.386963,132.410477 302.827667,133.277817 302.801300,134.563141 
	C300.720642,134.971207 299.042267,134.982651 297.208862,134.663239 
	C295.837067,132.188232 294.864532,129.852798 293.361176,127.933098 
	C286.896332,119.677887 271.415100,116.266304 260.775818,129.891312 
	C258.956787,129.093704 257.406250,128.529297 255.855698,127.964874 
z"/>
<path fill="#98BE41" opacity="1.000000" stroke="none" 
	d="
M208.551193,406.044128 
	C207.081573,405.915680 206.021622,405.787445 203.443756,405.475616 
	C205.820694,404.337402 206.848495,403.845215 208.761292,402.929260 
	C206.248428,401.306305 204.276581,399.415222 201.950073,398.732239 
	C200.197784,398.217834 197.990967,399.251740 195.986465,399.596436 
	C196.547760,401.410919 197.109070,403.225403 197.833679,405.567780 
	C192.993362,409.358459 198.292282,416.571014 195.076218,422.686462 
	C191.710815,416.757568 196.775665,409.702972 191.373962,404.953430 
	C191.852631,404.139832 192.687729,403.288635 192.871597,402.314484 
	C193.956924,396.564117 196.461166,394.818420 202.080582,396.246735 
	C203.346161,396.568420 204.838333,396.975403 205.669739,397.863861 
	C209.877533,402.360382 214.611908,405.405975 222.449158,403.520233 
	C215.280289,409.324188 220.332611,416.502106 217.058136,423.286041 
	C216.306442,420.834198 215.923370,419.584686 215.519180,418.266296 
	C210.718124,418.419098 204.410660,419.649445 206.805908,411.375580 
	C207.845703,407.783905 211.695038,407.985992 214.984650,410.230316 
	C214.150070,410.443054 213.191055,410.464600 212.507507,410.909424 
	C211.190735,411.766327 210.029739,412.862549 208.804138,413.859528 
	C209.693695,414.650940 210.880234,416.271271 211.417328,416.078888 
	C213.049423,415.494171 215.176865,414.505737 215.726379,413.123810 
	C216.464813,411.266754 215.909439,408.895294 215.909439,406.044312 
	C213.477829,406.044312 211.219345,406.044312 208.551193,406.044128 
z"/>
<path fill="#95C354" opacity="1.000000" stroke="none" 
	d="
M297.363922,134.994095 
	C299.042267,134.982651 300.720642,134.971207 302.819977,134.946243 
	C304.322540,135.647659 305.354950,136.454666 306.493530,137.062881 
	C315.069794,141.644394 318.723389,148.671158 317.179413,158.809082 
	C315.141296,158.302795 313.601776,157.666687 312.012146,156.622894 
	C311.808289,150.563095 309.845917,145.964432 304.731628,143.194046 
	C303.234680,146.918243 302.112732,150.568344 300.288818,153.825363 
	C299.557251,155.131668 297.282288,155.573654 295.709808,156.409042 
	C295.520386,154.555725 294.563721,152.307114 295.278564,150.919693 
	C297.930023,145.773544 298.627136,140.559998 297.363922,134.994095 
z"/>
<path fill="#94B940" opacity="1.000000" stroke="none" 
	d="
M245.613525,363.887451 
	C246.607880,364.322632 247.174835,364.746765 247.741806,365.170898 
	C243.025864,367.158173 245.453415,371.289337 245.044983,374.507935 
	C244.734970,376.950806 244.983521,379.464569 244.983521,381.946808 
	C244.427353,382.009857 243.871170,382.072876 243.315002,382.135895 
	C242.788895,380.912842 242.262802,379.689789 241.641357,378.245087 
	C238.074997,378.583405 233.430450,379.729706 232.797531,374.330505 
	C231.988724,367.430939 238.247482,369.058960 242.210541,368.064026 
	C242.203278,367.535614 242.196014,367.007202 242.188751,366.478760 
	C238.575378,366.245850 234.962021,366.012939 231.348648,365.780029 
	C231.291214,365.485901 231.233780,365.191772 231.176361,364.897644 
	C232.277756,364.360443 233.379150,363.823242 235.218491,362.926117 
	C232.801514,361.332184 230.939804,359.341675 228.758820,358.888794 
	C226.731583,358.467834 224.363907,359.686249 222.146133,360.182892 
	C223.048080,361.877350 223.950027,363.571808 224.921997,365.397797 
	C219.384232,369.374847 225.491409,376.878723 221.815430,381.979919 
	C221.254257,381.967072 220.693069,381.954193 220.131897,381.941345 
	C220.131897,378.991272 219.590195,375.910828 220.261261,373.122253 
	C221.222412,369.128235 218.258575,365.957489 219.016815,361.857361 
	C219.911423,357.019836 222.428284,355.419037 226.490219,356.095367 
	C229.285568,356.560822 232.676666,357.658142 234.359741,359.675751 
	C237.417114,363.340820 240.827530,364.407776 245.613525,363.887451 
M241.658844,374.883881 
	C241.851212,373.694397 242.043579,372.504883 242.294769,370.951782 
	C240.462082,370.951782 238.964493,370.529175 237.985840,371.061188 
	C236.821579,371.694092 236.103012,373.146820 235.191330,374.244354 
	C237.129791,374.649078 239.068268,375.053802 241.658844,374.883881 
z"/>
<path fill="#4EA3AC" opacity="1.000000" stroke="none" 
	d="
M257.190155,275.977478 
	C253.311386,281.734070 249.066940,281.620789 245.382996,276.352997 
	C244.577087,275.200592 242.628845,274.532379 241.100403,274.276672 
	C239.017700,273.928284 236.832977,274.189819 234.351410,274.189819 
	C234.211227,272.458313 234.097961,271.059418 233.956253,269.309021 
	C246.661331,269.309021 259.039886,269.309021 271.707336,269.309021 
	C271.707336,270.798676 271.707336,272.186646 271.707336,273.436584 
	C266.809387,274.170776 262.067139,274.881622 257.190155,275.977478 
z"/>
<path fill="#72B27D" opacity="1.000000" stroke="none" 
	d="
M311.799988,200.983154 
	C310.850647,209.389069 305.777344,213.966049 297.129517,215.960907 
	C294.704529,215.592972 293.057312,215.210541 291.413849,214.421326 
	C290.285858,209.667847 289.099335,205.334351 288.047119,200.968491 
	C287.574738,199.008514 286.398376,195.959473 287.223511,195.175903 
	C289.959045,192.578186 291.784546,195.624054 292.916260,197.527298 
	C295.065674,201.141937 296.646881,205.094421 298.557312,209.102188 
	C302.998199,208.313950 304.566010,204.705505 306.422241,200.978912 
	C308.490814,200.981842 310.145386,200.982498 311.799988,200.983154 
z"/>
<path fill="#88BA5D" opacity="1.000000" stroke="none" 
	d="
M252.791687,160.997772 
	C252.701233,154.472595 252.610779,147.947418 252.707260,141.430664 
	C252.814911,145.249298 254.201553,147.576691 258.511047,147.419403 
	C258.699860,149.247711 258.866486,150.626602 259.022369,151.916672 
	C267.529144,152.110733 271.863251,155.130478 271.953217,161.041245 
	C271.976715,162.585861 270.355042,164.155518 269.488922,165.713684 
	C268.326538,164.569321 267.111176,163.473068 266.015869,162.267746 
	C264.794647,160.923859 263.908569,158.832123 262.439545,158.320206 
	C261.534180,158.004700 259.811890,160.033661 258.100342,161.011078 
	C256.093445,161.007370 254.442566,161.002563 252.791687,160.997772 
z"/>
<path fill="#94B940" opacity="1.000000" stroke="none" 
	d="
M272.943420,409.388550 
	C273.447937,410.069000 273.902893,410.392883 274.401978,410.619690 
	C276.291931,411.478607 279.399597,411.919067 279.822205,413.233093 
	C280.512573,415.379700 279.456635,418.087921 279.137451,420.559204 
	C278.432495,420.420929 277.727509,420.282684 277.022552,420.144409 
	C277.234955,419.049072 277.755524,417.902527 277.584106,416.870941 
	C277.354279,415.487885 276.589172,414.193726 276.053894,412.861420 
	C275.004211,414.040863 273.515320,415.061737 273.017456,416.440491 
	C272.412903,418.114655 272.644318,420.090729 272.514038,421.936157 
	C271.913635,421.958588 271.313232,421.980988 270.712830,422.003418 
	C270.406799,419.175781 270.100800,416.348145 269.687500,412.529022 
	C267.715790,412.978516 265.822052,413.410217 263.928314,413.841919 
	C264.735962,416.399994 265.543640,418.958069 266.401184,421.674225 
	C260.072357,421.229065 262.715759,413.321564 257.742188,411.505432 
	C261.224701,407.897766 267.973694,413.268036 270.996765,405.928711 
	C265.551361,405.928711 261.249420,405.928711 256.947479,405.928711 
	C256.958801,405.456757 256.970123,404.984833 256.981415,404.512878 
	C265.301788,404.512878 273.622162,404.512878 281.942535,404.512878 
	C281.970062,405.029297 281.997620,405.545746 282.025177,406.062164 
	C279.878510,406.062164 277.663025,405.746338 275.613770,406.193024 
	C274.560883,406.422546 273.804474,408.012268 272.943420,409.388550 
z"/>
<path fill="#8AC16A" opacity="1.000000" stroke="none" 
	d="
M312.062256,157.030579 
	C313.601776,157.666687 315.141296,158.302795 316.957642,159.169434 
	C317.415863,161.128952 317.035736,163.219940 317.876373,164.523987 
	C321.444000,170.058319 321.754456,175.995163 320.382690,182.567535 
	C318.246155,182.616745 316.601257,182.301666 314.961273,181.532684 
	C315.964478,173.020599 313.966339,166.481476 306.122223,162.535660 
	C305.123993,162.033493 304.929138,159.934204 304.362091,158.574844 
	C305.774078,158.107147 307.160614,157.520874 308.606323,157.210052 
	C309.719696,156.970718 310.907532,157.077637 312.062256,157.030579 
z"/>
<path fill="#94B940" opacity="1.000000" stroke="none" 
	d="
M270.965881,373.044556 
	C270.965881,376.301208 270.965881,379.095703 270.965881,381.110504 
	C268.369293,381.425934 266.259308,381.437164 264.289764,381.968781 
	C258.974121,383.403625 257.459320,381.422882 255.786865,376.090881 
	C253.972549,370.306549 255.940430,368.325531 261.033691,366.544189 
	C258.556305,366.226837 256.078949,365.909515 253.601578,365.592163 
	C253.641068,365.203339 253.680542,364.814545 253.720016,364.425720 
	C260.359253,364.425720 266.998535,364.425720 272.406708,364.425720 
	C271.907776,367.250244 271.436859,369.916290 270.965881,373.044556 
M263.980316,374.354065 
	C263.543976,374.753174 263.168457,375.274536 262.659546,375.527863 
	C261.275757,376.216766 259.812286,376.750549 258.466553,377.500519 
	C258.370819,377.553894 258.934601,379.466248 259.260681,379.488190 
	C260.994324,379.604797 263.192108,380.009338 264.391357,379.147888 
	C266.065063,377.945587 267.552673,375.866333 268.102722,373.880554 
	C268.732635,371.606598 268.248688,369.024048 268.248688,365.269440 
	C264.134979,368.013245 260.893646,370.175171 256.895233,372.842102 
	C259.429169,373.141907 261.518829,373.389160 263.980316,374.354065 
z"/>
<path fill="#5CA28C" opacity="1.000000" stroke="none" 
	d="
M280.746857,240.621704 
	C278.864471,241.041550 277.070221,241.035660 274.863037,240.593781 
	C275.081604,236.255554 273.460876,234.254745 269.470398,234.133209 
	C268.664886,234.108658 267.600800,233.991058 267.124176,233.479843 
	C266.026123,232.301987 265.215851,230.855850 264.288788,229.518570 
	C265.780090,228.893585 267.227966,227.892059 268.770813,227.714096 
	C273.436859,227.175949 278.139709,226.957275 282.965698,226.946747 
	C284.109161,228.622345 285.115143,229.965286 286.121094,231.308243 
	C281.867950,232.789185 280.069824,235.730286 280.746857,240.621704 
z"/>
<path fill="#7DB66E" opacity="1.000000" stroke="none" 
	d="
M314.956390,181.986572 
	C316.601257,182.301666 318.246155,182.616745 320.249451,182.948364 
	C318.822876,186.047882 317.523285,189.602325 315.115967,192.080841 
	C312.724152,194.543411 311.373657,196.813797 311.885803,200.572296 
	C310.145386,200.982498 308.490814,200.981842 306.346008,200.592377 
	C304.842499,199.531113 303.813690,198.880630 302.819794,198.180634 
	C301.603638,197.324097 300.416656,196.426102 299.217072,195.546051 
	C300.255371,194.421997 301.148132,192.532349 302.356476,192.302597 
	C308.529510,191.128845 312.237610,187.228012 314.956390,181.986572 
z"/>
<path fill="#98BE41" opacity="1.000000" stroke="none" 
	d="
M179.237427,376.832062 
	C176.649033,375.599213 174.093124,374.823883 171.537216,374.048553 
	C171.270828,374.490723 171.004425,374.932892 170.738022,375.375061 
	C172.305679,377.235382 173.873322,379.095673 175.653412,381.208038 
	C171.390945,380.988922 167.180847,376.489319 166.081848,371.181580 
	C167.481125,371.003510 168.847427,370.829651 170.639923,370.601532 
	C170.702866,369.374939 170.773117,368.005829 170.852798,366.453033 
	C168.626266,366.135864 166.762390,365.870331 164.898514,365.604828 
	C164.905640,365.257629 164.912750,364.910461 164.919861,364.563293 
	C171.488266,364.563293 178.056656,364.563293 184.773590,364.563293 
	C178.903595,369.411652 184.007233,376.548981 179.903900,382.021790 
	C179.692566,380.444397 179.481247,378.866974 179.237427,376.832062 
M179.043854,366.690735 
	C177.211609,366.455078 175.379364,366.219391 173.324188,365.955078 
	C173.324188,368.427460 173.324188,370.187347 173.324188,372.060577 
	C177.492126,373.204559 180.033997,372.552063 179.043854,366.690735 
z"/>
<path fill="#98BE41" opacity="1.000000" stroke="none" 
	d="
M241.950150,412.130737 
	C241.950134,415.661407 241.950134,418.726196 241.950134,421.790955 
	C241.346390,421.875061 240.742661,421.959167 240.138916,422.043243 
	C239.714584,419.964142 239.290237,417.885040 238.626205,414.631500 
	C236.267883,415.278107 233.810898,415.951813 231.353912,416.625488 
	C231.075806,417.270233 230.797699,417.914978 230.519592,418.559723 
	C229.515030,417.372925 228.510468,416.186127 227.585220,415.093048 
	C231.814896,409.745911 231.569595,407.516144 226.358215,404.396973 
	C232.957657,404.396973 238.724228,404.396973 243.822784,404.396973 
	C243.225555,406.714844 242.587860,409.189850 241.950150,412.130737 
M238.326752,406.156250 
	C236.711563,406.156250 235.096359,406.156250 233.297211,406.156250 
	C233.297211,408.388885 233.297211,410.279510 233.297211,412.359497 
	C235.310165,412.359497 237.039352,412.359497 239.029938,412.359497 
	C239.029938,410.273529 239.029938,408.495026 238.326752,406.156250 
z"/>
<path fill="#A0C847" opacity="1.000000" stroke="none" 
	d="
M304.959747,403.740936 
	C300.801575,407.970093 302.228638,413.313782 302.021088,418.339844 
	C301.971619,419.538300 301.720703,420.728424 300.594269,422.024139 
	C300.044647,420.683136 299.494995,419.342133 298.814209,417.681183 
	C294.211395,418.708496 290.221558,418.162109 289.051666,412.561981 
	C292.923523,408.913361 294.267883,407.498169 287.886383,403.911835 
	C293.309631,403.911835 298.732880,403.911835 304.604736,403.853149 
	C305.053345,403.794495 304.959747,403.740936 304.959747,403.740936 
M292.738831,415.005310 
	C299.049591,417.238312 300.728302,414.994659 299.159363,406.218506 
	C297.617523,406.218506 296.048370,406.218506 295.495331,406.218506 
	C294.254211,409.349091 293.247070,411.889496 292.738831,415.005310 
z"/>
<path fill="#A0C847" opacity="1.000000" stroke="none" 
	d="
M310.544098,366.709503 
	C309.159424,366.060516 308.015930,365.705994 306.872467,365.351471 
	C306.907715,365.046570 306.942932,364.741699 306.978180,364.436829 
	C312.553040,364.436829 318.127899,364.436829 323.966797,364.436829 
	C317.990021,369.310974 322.976257,376.328888 319.915466,382.778748 
	C319.085449,380.718231 318.552307,379.394775 317.894623,377.762085 
	C313.434296,378.542999 309.214294,378.366791 308.357391,373.981293 
	C309.439667,370.871094 310.112488,368.937531 310.544098,366.709503 
M311.241272,374.433533 
	C313.296478,374.623138 316.849152,375.511719 317.144104,374.879730 
	C318.335052,372.328125 318.521484,369.307678 319.142365,366.135498 
	C316.527191,366.135498 315.072174,366.135498 314.620941,366.135498 
	C313.250458,369.049622 312.156464,371.375854 311.241272,374.433533 
z"/>
<path fill="#83BE72" opacity="1.000000" stroke="none" 
	d="
M258.494446,192.957550 
	C256.798920,192.665558 255.103378,192.373581 253.096558,192.019226 
	C252.721786,186.609406 252.658310,181.261948 253.065567,175.459442 
	C255.190811,174.997208 256.845306,174.990005 258.494232,175.452087 
	C258.490570,181.600113 258.492523,187.278824 258.494446,192.957550 
z"/>
<path fill="#95C354" opacity="1.000000" stroke="none" 
	d="
M258.488861,146.970001 
	C254.201553,147.576691 252.814911,145.249298 252.826843,141.013092 
	C253.605194,136.530029 254.450912,132.472916 255.576157,128.190338 
	C257.406250,128.529297 258.956787,129.093704 260.698883,130.266327 
	C260.089905,136.239700 259.289368,141.604843 258.488861,146.970001 
z"/>
<path fill="#64AB8E" opacity="1.000000" stroke="none" 
	d="
M286.453918,231.198898 
	C285.115143,229.965286 284.109161,228.622345 283.177734,226.695465 
	C285.971527,222.350388 288.690796,218.589249 291.410065,214.828094 
	C293.057312,215.210541 294.704529,215.592972 296.769714,216.032990 
	C295.994202,222.666794 292.356964,227.548401 286.453918,231.198898 
z"/>
<path fill="#8AC16A" opacity="1.000000" stroke="none" 
	d="
M258.499817,174.982788 
	C256.845306,174.990005 255.190811,174.997208 253.184967,175.006989 
	C252.748764,170.641937 252.663895,166.274292 252.685364,161.452209 
	C254.442566,161.002563 256.093445,161.007370 258.110992,161.474930 
	C258.485046,166.286057 258.492432,170.634430 258.499817,174.982788 
z"/>
<path fill="#8BAF3D" opacity="1.000000" stroke="none" 
	d="
M331.942596,368.654877 
	C331.187073,367.028748 330.434692,365.827332 329.435516,364.231873 
	C332.164093,364.231873 334.649506,364.231873 337.882568,364.231873 
	C331.681396,369.316345 336.631042,376.588074 333.811096,382.047913 
	C333.189301,382.006775 332.567535,381.965668 331.945740,381.924561 
	C331.945740,377.642883 331.945740,373.361237 331.942596,368.654877 
z"/>
<path fill="#8BAF3D" opacity="1.000000" stroke="none" 
	d="
M285.389526,366.345154 
	C284.744781,371.684265 284.457062,376.839417 284.169373,381.994537 
	C283.614136,381.973969 283.058929,381.953369 282.503723,381.932800 
	C282.014404,376.187134 281.525085,370.441437 280.970428,363.928772 
	C281.720642,363.928772 283.919647,363.928772 286.118622,363.928772 
	C285.994598,364.672913 285.870575,365.417053 285.389526,366.345154 
z"/>
<path fill="#94B940" opacity="1.000000" stroke="none" 
	d="
M240.483124,425.105225 
	C243.324860,427.405884 245.918076,428.761871 249.547638,425.106750 
	C247.187164,424.423279 245.513657,423.938751 243.840164,423.454193 
	C243.827087,423.056366 243.813995,422.658569 243.800919,422.260742 
	C245.590698,422.260742 247.637146,421.732758 249.084854,422.436462 
	C250.144409,422.951477 251.286896,425.522003 250.846069,426.399628 
	C250.099411,427.886139 247.924591,429.886383 246.717758,429.665131 
	C243.828476,429.135498 241.130829,427.483948 238.428436,426.139343 
	C238.181458,426.016418 238.456757,424.843781 238.489517,424.158569 
	C239.063614,424.392578 239.637711,424.626587 240.483124,425.105225 
z"/>
<path fill="#8BAF3D" opacity="1.000000" stroke="none" 
	d="
M194.940048,381.802734 
	C194.039276,378.206879 193.627304,374.475616 193.068573,370.766418 
	C192.768494,368.774414 192.216415,366.820343 191.676620,364.393005 
	C193.451035,364.393005 196.009369,364.393005 198.766983,364.393005 
	C193.117615,369.388397 197.643356,376.167450 194.940048,381.802734 
z"/>
<path fill="#98BE41" opacity="1.000000" stroke="none" 
	d="
M305.078644,403.842102 
	C303.563080,401.415131 302.022217,398.940491 300.257172,396.105804 
	C301.192719,396.318481 303.600067,396.154480 304.611084,397.263458 
	C306.102875,398.899719 306.600891,401.442047 307.522095,403.598511 
	C306.920807,403.665009 306.319489,403.731476 305.338989,403.769440 
	C304.959747,403.740936 305.053345,403.794495 305.078644,403.842102 
z"/>
<path fill="#031B1B" opacity="1.000000" stroke="none" 
	d="
M258.494232,175.452087 
	C258.492432,170.634430 258.485046,166.286057 258.467041,161.473846 
	C259.811890,160.033661 261.534180,158.004700 262.439545,158.320206 
	C263.908569,158.832123 264.794647,160.923859 266.015869,162.267746 
	C267.111176,163.473068 268.326538,164.569321 269.488922,165.713684 
	C270.355042,164.155518 271.976715,162.585861 271.953217,161.041245 
	C271.863251,155.130478 267.529144,152.110733 259.022369,151.916672 
	C258.866486,150.626602 258.699860,149.247711 258.511047,147.419403 
	C259.289368,141.604843 260.089905,136.239700 260.967346,130.499512 
	C271.415100,116.266304 286.896332,119.677887 293.361176,127.933098 
	C294.864532,129.852798 295.837067,132.188232 297.208862,134.663239 
	C298.627136,140.559998 297.930023,145.773544 295.278564,150.919693 
	C294.563721,152.307114 295.520386,154.555725 295.709808,156.409042 
	C297.282288,155.573654 299.557251,155.131668 300.288818,153.825363 
	C302.112732,150.568344 303.234680,146.918243 304.731628,143.194046 
	C309.845917,145.964432 311.808289,150.563095 312.012146,156.622894 
	C310.907532,157.077637 309.719696,156.970718 308.606323,157.210052 
	C307.160614,157.520874 305.774078,158.107147 304.362091,158.574844 
	C304.929138,159.934204 305.123993,162.033493 306.122223,162.535660 
	C313.966339,166.481476 315.964478,173.020599 314.961273,181.532700 
	C312.237610,187.228012 308.529510,191.128845 302.356476,192.302597 
	C301.148132,192.532349 300.255371,194.421997 299.217072,195.546051 
	C300.416656,196.426102 301.603638,197.324097 302.819794,198.180634 
	C303.813690,198.880630 304.842499,199.531113 305.932007,200.590088 
	C304.566010,204.705505 302.998199,208.313950 298.557312,209.102188 
	C296.646881,205.094421 295.065674,201.141937 292.916260,197.527298 
	C291.784546,195.624054 289.959045,192.578186 287.223511,195.175903 
	C286.398376,195.959473 287.574738,199.008514 288.047119,200.968491 
	C289.099335,205.334351 290.285858,209.667847 291.413849,214.421326 
	C288.690796,218.589249 285.971527,222.350388 283.040222,226.362823 
	C278.139709,226.957275 273.436859,227.175949 268.770813,227.714096 
	C267.227966,227.892059 265.780090,228.893585 264.288788,229.518570 
	C265.215851,230.855850 266.026123,232.301987 267.124176,233.479843 
	C267.600800,233.991058 268.664886,234.108658 269.470398,234.133209 
	C273.460876,234.254745 275.081604,236.255554 274.479248,240.598511 
	C274.508484,243.467087 274.508484,245.894974 274.508484,248.828476 
	C269.664612,248.828476 265.541199,249.069000 261.480927,248.668701 
	C260.390503,248.561188 258.711060,246.548019 258.640472,245.331985 
	C258.324707,239.890732 258.492615,234.421402 258.489807,228.496094 
	C258.493713,220.931854 258.493713,213.833740 258.493713,207.199738 
	C262.339478,206.287720 266.358063,206.425659 268.645233,204.503464 
	C271.235901,202.326172 272.591797,198.412109 273.774231,195.006561 
	C274.087311,194.104813 271.788361,192.296158 270.688782,190.903931 
	C269.725739,192.166809 268.217865,193.306976 267.900726,194.715286 
	C266.906677,199.129929 264.446869,201.569458 261.465057,199.779739 
	C259.871948,198.823563 259.474823,195.874802 258.516174,193.391449 
	C258.492523,187.278824 258.490570,181.600113 258.494232,175.452087 
M272.153717,179.155548 
	C271.715118,177.747620 271.522980,176.188232 270.774719,174.970581 
	C269.864868,173.489914 268.486481,172.297180 267.310760,170.979889 
	C266.467987,172.516861 264.900848,174.057373 264.908325,175.590195 
	C264.940186,182.106110 270.124451,187.808472 276.710541,189.158783 
	C283.487091,190.548141 290.378632,187.575989 293.128693,181.695740 
	C293.739960,180.388672 293.059692,178.477570 292.974091,176.844589 
	C291.342133,177.400940 289.130615,177.466751 288.175140,178.595642 
	C283.130341,184.556152 278.346832,185.057632 272.153717,179.155548 
M283.810364,164.649078 
	C282.657318,165.799362 281.327576,166.824387 280.399261,168.133972 
	C279.405640,169.535675 278.790222,171.205490 278.009735,172.758270 
	C279.758545,172.998627 281.788208,173.931442 283.206268,173.356308 
	C288.584900,171.174789 291.691864,164.580582 290.464386,158.950470 
	C289.079529,152.598373 284.075989,147.979767 278.020416,148.056091 
	C276.451202,148.075882 274.901978,149.683029 273.343567,150.561050 
	C274.674957,151.714432 275.842682,153.524933 277.366791,153.904526 
	C283.173615,155.350723 284.886963,157.621567 283.810364,164.649078 
M286.913971,141.921158 
	C289.680298,142.530746 291.119659,141.403961 291.015015,138.587280 
	C290.838409,133.834457 288.362244,130.362259 284.305878,128.240982 
	C279.851501,125.911522 275.285217,126.197121 271.131195,129.160538 
	C267.508057,131.745209 265.580750,135.374481 266.023621,139.842514 
	C266.133392,140.950287 267.604584,142.660568 268.566864,142.743881 
	C269.576294,142.831268 270.820068,141.388458 271.767456,140.423889 
	C272.133881,140.050827 271.718384,138.902786 272.085907,138.538895 
	C274.037476,136.606598 276.064484,133.443802 278.181732,133.350632 
	C280.326813,133.256241 282.746399,136.092758 284.763245,137.951981 
	C285.618469,138.740372 285.753021,140.310501 286.913971,141.921158 
M265.639832,214.152969 
	C266.301483,215.917145 266.457092,218.314362 267.721222,219.324829 
	C271.276672,222.166824 277.059479,221.652191 280.724792,218.768433 
	C284.493317,215.803467 286.418457,210.489883 284.619354,206.294952 
	C283.929688,204.686829 281.787323,203.701706 280.306915,202.432709 
	C279.802307,204.214172 279.275879,205.989838 278.798981,207.778687 
	C278.274017,209.747726 278.403717,212.559647 277.136780,213.488693 
	C275.645447,214.582336 272.961121,214.169678 270.793091,214.179031 
	C269.260773,214.185669 267.726807,213.807968 265.639832,214.152969 
M305.454498,167.694290 
	C303.713287,167.883026 301.972107,168.071747 300.230896,168.260468 
	C300.857025,169.778992 301.146118,171.594193 302.172607,172.760315 
	C305.236267,176.240784 304.595490,178.781357 300.290039,180.723297 
	C298.866913,181.365204 297.976013,183.187180 296.841766,184.469589 
	C298.636261,185.132339 301.109924,186.875290 302.097382,186.254440 
	C305.008362,184.424271 308.303864,182.100281 309.645355,179.149612 
	C311.462006,175.153778 309.856018,170.985168 305.454498,167.694290 
z"/>
<path fill="#092629" opacity="1.000000" stroke="none" 
	d="
M278.049500,324.328064 
	C278.471558,320.200409 279.153381,316.328247 279.835175,312.456085 
	C280.169800,312.449402 280.504395,312.442688 280.839020,312.436005 
	C281.721344,316.285980 282.603668,320.135956 283.622925,324.583557 
	C281.458435,324.583557 279.883850,324.583557 278.049500,324.328064 
z"/>
<path fill="#092629" opacity="1.000000" stroke="none" 
	d="
M251.501251,323.795166 
	C249.704056,324.375031 248.016083,324.580048 245.532837,324.881683 
	C246.512177,320.299835 247.319366,316.523438 248.126556,312.747040 
	C248.440552,312.679565 248.754547,312.612091 249.068542,312.544617 
	C249.915848,316.169830 250.763153,319.795074 251.501251,323.795166 
z"/>
<path fill="#092629" opacity="1.000000" stroke="none" 
	d="
M191.573700,313.944763 
	C192.523865,317.424652 193.256546,320.609711 194.111908,324.328125 
	C191.955063,324.328125 190.166016,324.328125 187.268219,324.328125 
	C188.744003,320.473267 190.050110,317.061615 191.573700,313.944763 
z"/>
<path fill="#031B1B" opacity="1.000000" stroke="none" 
	d="
M241.332794,375.171204 
	C239.068268,375.053802 237.129791,374.649078 235.191330,374.244354 
	C236.103012,373.146820 236.821579,371.694092 237.985840,371.061188 
	C238.964493,370.529175 240.462082,370.951782 242.294769,370.951782 
	C242.043579,372.504883 241.851212,373.694397 241.332794,375.171204 
z"/>
<path fill="#031B1B" opacity="1.000000" stroke="none" 
	d="
M263.794403,373.995239 
	C261.518829,373.389160 259.429169,373.141907 256.895233,372.842102 
	C260.893646,370.175171 264.134979,368.013245 268.248688,365.269440 
	C268.248688,369.024048 268.732635,371.606598 268.102722,373.880554 
	C267.552673,375.866333 266.065063,377.945587 264.391357,379.147888 
	C263.192108,380.009338 260.994324,379.604797 259.260681,379.488190 
	C258.934601,379.466248 258.370819,377.553894 258.466553,377.500519 
	C259.812286,376.750549 261.275757,376.216766 262.659546,375.527863 
	C263.168457,375.274536 263.543976,374.753174 263.794403,373.995239 
z"/>
<path fill="#0D251C" opacity="1.000000" stroke="none" 
	d="
M179.156982,367.122620 
	C180.033997,372.552063 177.492126,373.204559 173.324188,372.060577 
	C173.324188,370.187347 173.324188,368.427460 173.324188,365.955078 
	C175.379364,366.219391 177.211609,366.455078 179.156982,367.122620 
z"/>
<path fill="#0D251C" opacity="1.000000" stroke="none" 
	d="
M238.678345,406.436401 
	C239.029938,408.495026 239.029938,410.273529 239.029938,412.359497 
	C237.039352,412.359497 235.310165,412.359497 233.297211,412.359497 
	C233.297211,410.279510 233.297211,408.388885 233.297211,406.156250 
	C235.096359,406.156250 236.711563,406.156250 238.678345,406.436401 
z"/>
<path fill="#0D251C" opacity="1.000000" stroke="none" 
	d="
M292.489380,414.717590 
	C293.247070,411.889496 294.254211,409.349091 295.495331,406.218506 
	C296.048370,406.218506 297.617523,406.218506 299.159363,406.218506 
	C300.728302,414.994659 299.049591,417.238312 292.489380,414.717590 
z"/>
<path fill="#0D251C" opacity="1.000000" stroke="none" 
	d="
M311.151855,374.067810 
	C312.156464,371.375854 313.250458,369.049622 314.620941,366.135498 
	C315.072174,366.135498 316.527191,366.135498 319.142365,366.135498 
	C318.521484,369.307678 318.335052,372.328125 317.144104,374.879730 
	C316.849152,375.511719 313.296478,374.623138 311.151855,374.067810 
z"/>
<path fill="#7DB66E" opacity="1.000000" stroke="none" 
	d="
M272.374939,179.480927 
	C278.346832,185.057632 283.130341,184.556152 288.175140,178.595642 
	C289.130615,177.466751 291.342133,177.400940 292.974060,176.844574 
	C293.059692,178.477570 293.739960,180.388672 293.128693,181.695740 
	C290.378632,187.575989 283.487091,190.548141 276.710541,189.158783 
	C270.124451,187.808472 264.940186,182.106110 264.908325,175.590195 
	C264.900848,174.057373 266.467987,172.516861 267.310760,170.979889 
	C268.486481,172.297180 269.864868,173.489914 270.774719,174.970581 
	C271.522980,176.188232 271.715118,177.747620 272.374939,179.480927 
z"/>
<path fill="#88BA5D" opacity="1.000000" stroke="none" 
	d="
M283.945801,164.267029 
	C284.886963,157.621567 283.173615,155.350723 277.366791,153.904526 
	C275.842682,153.524933 274.674957,151.714432 273.343567,150.561050 
	C274.901978,149.683029 276.451202,148.075882 278.020416,148.056091 
	C284.075989,147.979767 289.079529,152.598373 290.464386,158.950470 
	C291.691864,164.580582 288.584900,171.174789 283.206268,173.356308 
	C281.788208,173.931442 279.758545,172.998627 278.009735,172.758270 
	C278.790222,171.205490 279.405640,169.535675 280.399261,168.133972 
	C281.327576,166.824387 282.657318,165.799362 283.945801,164.267029 
z"/>
<path fill="#95C354" opacity="1.000000" stroke="none" 
	d="
M286.564545,141.723251 
	C285.753021,140.310501 285.618469,138.740372 284.763245,137.951981 
	C282.746399,136.092758 280.326813,133.256241 278.181732,133.350632 
	C276.064484,133.443802 274.037476,136.606598 272.085907,138.538895 
	C271.718384,138.902786 272.133881,140.050827 271.767456,140.423889 
	C270.820068,141.388458 269.576294,142.831268 268.566864,142.743881 
	C267.604584,142.660568 266.133392,140.950287 266.023621,139.842514 
	C265.580750,135.374481 267.508057,131.745209 271.131195,129.160538 
	C275.285217,126.197121 279.851501,125.911522 284.305878,128.240982 
	C288.362244,130.362259 290.838409,133.834457 291.015015,138.587280 
	C291.119659,141.403961 289.680298,142.530746 286.564545,141.723251 
z"/>
<path fill="#6EB58C" opacity="1.000000" stroke="none" 
	d="
M265.916687,213.877411 
	C267.726807,213.807968 269.260773,214.185669 270.793091,214.179031 
	C272.961121,214.169678 275.645447,214.582336 277.136780,213.488693 
	C278.403717,212.559647 278.274017,209.747726 278.798981,207.778687 
	C279.275879,205.989838 279.802307,204.214172 280.306915,202.432709 
	C281.787323,203.701706 283.929688,204.686829 284.619354,206.294952 
	C286.418457,210.489883 284.493317,215.803467 280.724792,218.768433 
	C277.059479,221.652191 271.276672,222.166824 267.721222,219.324829 
	C266.457092,218.314362 266.301483,215.917145 265.916687,213.877411 
z"/>
<path fill="#7DB66E" opacity="1.000000" stroke="none" 
	d="
M305.788940,167.898300 
	C309.856018,170.985168 311.462006,175.153778 309.645355,179.149612 
	C308.303864,182.100281 305.008362,184.424271 302.097382,186.254440 
	C301.109924,186.875290 298.636261,185.132339 296.841766,184.469589 
	C297.976013,183.187180 298.866913,181.365204 300.290039,180.723297 
	C304.595490,178.781357 305.236267,176.240784 302.172607,172.760315 
	C301.146118,171.594193 300.857025,169.778992 300.230896,168.260468 
	C301.972107,168.071747 303.713287,167.883026 305.788940,167.898300 
z"/>
</svg>